<?xml version="1.0" encoding="UTF-8" standalone="no"?><svg xmlns="http://www.w3.org/2000/svg" xmlns:xlink="http://www.w3.org/1999/xlink" contentScriptType="application/ecmascript" contentStyleType="text/css" height="282px" preserveAspectRatio="none" style="width:351px;height:282px;" version="1.1" viewBox="0 0 351 282" width="351px" zoomAndPan="magnify"><defs><filter height="300%" id="ffmhhunnbashy" width="300%" x="-1" y="-1"><feGaussianBlur result="blurOut" stdDeviation="1.2"/><feColorMatrix in="blurOut" result="blurOut2" type="matrix" values="0 0 0 0 0 0 0 0 0 0 0 0 0 0 0 0 0 0 .4 0"/><feOffset dx="2.4" dy="2.4" in="blurOut2" result="blurOut3"/><feBlend in="SourceGraphic" in2="blurOut3" mode="normal"/></filter></defs><g><rect fill="#FFFFFF" filter="url(#ffmhhunnbashy)" height="160.2984" style="stroke:#A80036;stroke-width:0.6;" width="6" x="35.7" y="59.7656"/><rect fill="#FFFFFF" filter="url(#ffmhhunnbashy)" height="18.2109" style="stroke:#A80036;stroke-width:0.6;" width="6" x="313.5" y="73.1766"/><rect fill="#FFFFFF" filter="url(#ffmhhunnbashy)" height="18.2109" style="stroke:#A80036;stroke-width:0.6;" width="6" x="313.5" y="109.5984"/><rect fill="#FFFFFF" filter="url(#ffmhhunnbashy)" height="18.2109" style="stroke:#A80036;stroke-width:0.6;" width="6" x="313.5" y="161.2313"/><rect fill="#FFFFFF" filter="url(#ffmhhunnbashy)" height="18.2109" style="stroke:#A80036;stroke-width:0.6;" width="6" x="313.5" y="201.8531"/><rect fill="#FFFFFF" filter="url(#ffmhhunnbashy)" height="47.4328" style="stroke:#000000;stroke-width:1.2;" width="336.9" x="6" y="136.8094"/><line style="stroke:#A80036;stroke-width:0.6;stroke-dasharray:5.0,5.0;" x1="38.4" x2="38.4" y1="53.7656" y2="230.8641"/><line style="stroke:#A80036;stroke-width:0.6;stroke-dasharray:5.0,5.0;" x1="316.5" x2="316.5" y1="53.7656" y2="230.8641"/><text fill="#000000" font-family="sans-serif" font-size="8.4" lengthAdjust="spacing" textLength="49.8" x="12" y="51.9199">Administrator</text><ellipse cx="38.7" cy="9" fill="#FEFECE" filter="url(#ffmhhunnbashy)" rx="4.8" ry="4.8" style="stroke:#A80036;stroke-width:1.2;"/><path d="M38.7,13.8 L38.7,30 M30.9,18.6 L46.5,18.6 M38.7,30 L30.9,39 M38.7,30 L46.5,39 " fill="none" filter="url(#ffmhhunnbashy)" style="stroke:#A80036;stroke-width:1.2;"/><text fill="#000000" font-family="sans-serif" font-size="8.4" lengthAdjust="spacing" textLength="49.8" x="12" y="238.984">Administrator</text><ellipse cx="38.7" cy="246.8297" fill="#FEFECE" filter="url(#ffmhhunnbashy)" rx="4.8" ry="4.8" style="stroke:#A80036;stroke-width:1.2;"/><path d="M38.7,251.6297 L38.7,267.8297 M30.9,256.4297 L46.5,256.4297 M38.7,267.8297 L30.9,276.8297 M38.7,267.8297 L46.5,276.8297 " fill="none" filter="url(#ffmhhunnbashy)" style="stroke:#A80036;stroke-width:1.2;"/><rect fill="#FEFECE" filter="url(#ffmhhunnbashy)" height="18.9656" style="stroke:#A80036;stroke-width:0.8999999999999999;" width="38.4" x="296.1" y="31.8"/><text fill="#000000" font-family="sans-serif" font-size="8.4" lengthAdjust="spacing" textLength="30" x="300.3" y="44.7199">:System</text><rect fill="#FEFECE" filter="url(#ffmhhunnbashy)" height="18.9656" style="stroke:#A80036;stroke-width:0.8999999999999999;" width="38.4" x="296.1" y="230.2641"/><text fill="#000000" font-family="sans-serif" font-size="8.4" lengthAdjust="spacing" textLength="30" x="300.3" y="243.184">:System</text><rect fill="#FFFFFF" filter="url(#ffmhhunnbashy)" height="160.2984" style="stroke:#A80036;stroke-width:0.6;" width="6" x="35.7" y="59.7656"/><rect fill="#FFFFFF" filter="url(#ffmhhunnbashy)" height="18.2109" style="stroke:#A80036;stroke-width:0.6;" width="6" x="313.5" y="73.1766"/><rect fill="#FFFFFF" filter="url(#ffmhhunnbashy)" height="18.2109" style="stroke:#A80036;stroke-width:0.6;" width="6" x="313.5" y="109.5984"/><rect fill="#FFFFFF" filter="url(#ffmhhunnbashy)" height="18.2109" style="stroke:#A80036;stroke-width:0.6;" width="6" x="313.5" y="161.2313"/><rect fill="#FFFFFF" filter="url(#ffmhhunnbashy)" height="18.2109" style="stroke:#A80036;stroke-width:0.6;" width="6" x="313.5" y="201.8531"/><polygon fill="#A80036" points="306.3,70.7766,312.3,73.1766,306.3,75.5766,308.7,73.1766" style="stroke:#A80036;stroke-width:0.6;"/><line style="stroke:#A80036;stroke-width:0.6;" x1="41.7" x2="309.9" y1="73.1766" y2="73.1766"/><text fill="#000000" font-family="sans-serif" font-size="7.8" font-weight="bold" lengthAdjust="spacing" textLength="4.2" x="45.9" y="70.2627">1</text><text fill="#000000" font-family="sans-serif" font-size="7.8" lengthAdjust="spacing" textLength="162" x="52.5" y="70.2627">Starts to create a Clinical Analysis Laboratory.</text><polygon fill="#A80036" points="48.3,88.9875,42.3,91.3875,48.3,93.7875,45.9,91.3875" style="stroke:#A80036;stroke-width:0.6;"/><line style="stroke:#A80036;stroke-width:0.6;stroke-dasharray:2.0,2.0;" x1="44.7" x2="315.9" y1="91.3875" y2="91.3875"/><text fill="#000000" font-family="sans-serif" font-size="7.8" font-weight="bold" lengthAdjust="spacing" textLength="4.2" x="51.9" y="88.4736">2</text><text fill="#000000" font-family="sans-serif" font-size="7.8" lengthAdjust="spacing" textLength="250.8" x="58.5" y="88.4736">Requests data (laboratoryID, address, name, phoneNumber, tinNumber).</text><polygon fill="#A80036" points="306.3,107.1984,312.3,109.5984,306.3,111.9984,308.7,109.5984" style="stroke:#A80036;stroke-width:0.6;"/><line style="stroke:#A80036;stroke-width:0.6;" x1="41.7" x2="309.9" y1="109.5984" y2="109.5984"/><text fill="#000000" font-family="sans-serif" font-size="7.8" font-weight="bold" lengthAdjust="spacing" textLength="4.2" x="45.9" y="106.6846">3</text><text fill="#000000" font-family="sans-serif" font-size="7.8" lengthAdjust="spacing" textLength="77.4" x="52.5" y="106.6846">Types requested data.</text><polygon fill="#A80036" points="48.3,125.4094,42.3,127.8094,48.3,130.2094,45.9,127.8094" style="stroke:#A80036;stroke-width:0.6;"/><line style="stroke:#A80036;stroke-width:0.6;stroke-dasharray:2.0,2.0;" x1="44.7" x2="315.9" y1="127.8094" y2="127.8094"/><text fill="#000000" font-family="sans-serif" font-size="7.8" font-weight="bold" lengthAdjust="spacing" textLength="4.2" x="51.9" y="124.8955">4</text><text fill="#000000" font-family="sans-serif" font-size="7.8" lengthAdjust="spacing" textLength="240.6" x="58.5" y="124.8955">Shows the data and requests for type of test showing the list of them.</text><path d="M6,136.8094 L49.8,136.8094 L49.8,141.6094 L43.8,147.6094 L6,147.6094 L6,136.8094 " fill="#EEEEEE" style="stroke:#000000;stroke-width:0.6;"/><rect fill="none" height="47.4328" style="stroke:#000000;stroke-width:1.2;" width="336.9" x="6" y="136.8094"/><text fill="#000000" font-family="sans-serif" font-size="7.8" font-weight="bold" lengthAdjust="spacing" textLength="16.8" x="15" y="145.5064">loop</text><text fill="#000000" font-family="sans-serif" font-size="6.6" font-weight="bold" lengthAdjust="spacing" textLength="217.8" x="58.8" y="144.8607">[while admin wants to add test types and while test types exists.]</text><polygon fill="#A80036" points="306.3,158.8312,312.3,161.2313,306.3,163.6313,308.7,161.2313" style="stroke:#A80036;stroke-width:0.6;"/><line style="stroke:#A80036;stroke-width:0.6;" x1="41.7" x2="309.9" y1="161.2313" y2="161.2313"/><text fill="#000000" font-family="sans-serif" font-size="7.8" font-weight="bold" lengthAdjust="spacing" textLength="4.2" x="45.9" y="158.3174">5</text><text fill="#000000" font-family="sans-serif" font-size="7.8" lengthAdjust="spacing" textLength="79.2" x="52.5" y="158.3174">Select the type of test.</text><polygon fill="#A80036" points="48.3,177.0422,42.3,179.4422,48.3,181.8422,45.9,179.4422" style="stroke:#A80036;stroke-width:0.6;"/><line style="stroke:#A80036;stroke-width:0.6;stroke-dasharray:2.0,2.0;" x1="44.7" x2="315.9" y1="179.4422" y2="179.4422"/><text fill="#000000" font-family="sans-serif" font-size="7.8" font-weight="bold" lengthAdjust="spacing" textLength="4.2" x="51.9" y="176.5283">6</text><text fill="#000000" font-family="sans-serif" font-size="7.8" lengthAdjust="spacing" textLength="183" x="58.5" y="176.5283">Validates type of test and show the list of test types.</text><polygon fill="#A80036" points="306.3,199.4531,312.3,201.8531,306.3,204.2531,308.7,201.8531" style="stroke:#A80036;stroke-width:0.6;"/><line style="stroke:#A80036;stroke-width:0.6;" x1="41.7" x2="309.9" y1="201.8531" y2="201.8531"/><text fill="#000000" font-family="sans-serif" font-size="7.8" font-weight="bold" lengthAdjust="spacing" textLength="4.2" x="45.9" y="198.9393">7</text><text fill="#000000" font-family="sans-serif" font-size="7.8" lengthAdjust="spacing" textLength="244.2" x="52.5" y="198.9393">Confirms the creation of Clinical Analysis Laboratory and type of tests.</text><polygon fill="#A80036" points="45.3,217.6641,39.3,220.0641,45.3,222.4641,42.9,220.0641" style="stroke:#A80036;stroke-width:0.6;"/><line style="stroke:#A80036;stroke-width:0.6;stroke-dasharray:2.0,2.0;" x1="41.7" x2="315.9" y1="220.0641" y2="220.0641"/><text fill="#000000" font-family="sans-serif" font-size="7.8" font-weight="bold" lengthAdjust="spacing" textLength="4.2" x="48.9" y="217.1502">8</text><text fill="#000000" font-family="sans-serif" font-size="7.8" lengthAdjust="spacing" textLength="93.6" x="55.5" y="217.1502">Informs operation success.</text><!--MD5=[47df0dc63e64299b20c54c4a6663dd41]
@startuml

autonumber
actor Administrator as admin
participant ":System" as sys

activate admin

admin -> sys: Starts to create a Clinical Analysis Laboratory.
activate sys
sys - -> admin: Requests data (laboratoryID, address, name, phoneNumber, tinNumber).
deactivate sys

admin -> sys: Types requested data.
activate sys
sys - -> admin: Shows the data and requests for type of test showing the list of them.
deactivate sys

loop while admin wants to add test types and while test types exists.

    admin -> sys: Select the type of test.
    activate sys
    sys - -> admin: Validates type of test and show the list of test types.
    deactivate sys

end

admin -> sys: Confirms the creation of Clinical Analysis Laboratory and type of tests.
activate sys
sys - -> admin: Informs operation success.
deactivate sys

deactivate admin

@enduml

PlantUML version 1.2021.2(Sun Mar 07 11:10:27 GMT 2021)
(GPL source distribution)
Java Runtime: OpenJDK Runtime Environment
JVM: OpenJDK 64-Bit Server VM
Default Encoding: Cp1252
Language: pt
Country: PT
--></g></svg>