<?xml version="1.0" encoding="UTF-8" standalone="no"?><svg xmlns="http://www.w3.org/2000/svg" xmlns:xlink="http://www.w3.org/1999/xlink" contentScriptType="application/ecmascript" contentStyleType="text/css" height="514px" preserveAspectRatio="none" style="width:268px;height:514px;" version="1.1" viewBox="0 0 268 514" width="268px" zoomAndPan="magnify"><defs><filter height="300%" id="f1q8od5fctmgpt" width="300%" x="-1" y="-1"><feGaussianBlur result="blurOut" stdDeviation="2.0"/><feColorMatrix in="blurOut" result="blurOut2" type="matrix" values="0 0 0 0 0 0 0 0 0 0 0 0 0 0 0 0 0 0 .4 0"/><feOffset dx="4.0" dy="4.0" in="blurOut2" result="blurOut3"/><feBlend in="SourceGraphic" in2="blurOut3" mode="normal"/></filter></defs><g><!--MD5=[da547346deef918ea16944ba046651ef]
class Administrator--><rect codeLine="6" fill="#FEFECE" filter="url(#f1q8od5fctmgpt)" height="158.6875" id="Administrator" style="stroke:#A80036;stroke-width:1.5;" width="105" x="122" y="7"/><ellipse cx="137" cy="23" fill="#ADD1B2" rx="11" ry="11" style="stroke:#A80036;stroke-width:1.0;"/><path d="M139,19.5 Q139.2031,19 139.4375,18.75 Q139.6719,18.5 139.9375,18.5 Q140.4063,18.5 140.7031,18.7813 Q141,19.0625 141,19.7188 L141,21.2813 Q141,21.9375 140.7188,22.2188 Q140.4375,22.5 140,22.5 Q139.6094,22.5 139.3594,22.3281 Q139.1094,22.1563 139,21.7031 Q138.9531,21.3906 138.7813,21.2188 Q138.4688,20.8906 137.9063,20.7031 Q137.3438,20.5 136.7813,20.5 Q136.0781,20.5 135.4844,20.7813 Q134.9063,21.0625 134.4531,21.6875 Q134,22.3125 134,23.1719 L134,24.0938 Q134,25.125 134.8438,25.8125 Q135.6875,26.5 137.1875,26.5 Q138.0781,26.5 138.7031,26.2969 Q139.0625,26.1875 139.4688,25.8281 Q139.7344,25.625 139.875,25.5625 Q140.0156,25.5 140.1875,25.5 Q140.5156,25.5 140.75,25.7656 Q141,26.0156 141,26.375 Q141,26.7188 140.6563,27.125 Q140.1563,27.7188 139.3594,28.0469 Q138.3125,28.5 137.0313,28.5 Q135.5313,28.5 134.3281,27.9063 Q133.3594,27.4375 132.6719,26.4219 Q132,25.4063 132,24.2031 L132,23.1094 Q132,21.8594 132.5938,20.7656 Q133.2031,19.6719 134.25,19.0938 Q135.3125,18.5 136.5,18.5 Q137.2188,18.5 137.8438,18.75 Q138.4688,19 139,19.5 Z " fill="#000000"/><text fill="#000000" font-family="sans-serif" font-size="12" lengthAdjust="spacing" textLength="73" x="151" y="27.9102">Administrator</text><line style="stroke:#A80036;stroke-width:1.5;" x1="123" x2="226" y1="39" y2="39"/><text fill="#000000" font-family="sans-serif" font-size="11" lengthAdjust="spacing" textLength="26" x="128" y="54.4189">name</text><text fill="#000000" font-family="sans-serif" font-size="11" lengthAdjust="spacing" textLength="67" x="128" y="68.2549">phoneNumber</text><text fill="#000000" font-family="sans-serif" font-size="11" lengthAdjust="spacing" textLength="24" x="128" y="82.0908">email</text><text fill="#000000" font-family="sans-serif" font-size="11" lengthAdjust="spacing" textLength="50" x="128" y="95.9268">password</text><text fill="#000000" font-family="sans-serif" font-size="11" lengthAdjust="spacing" textLength="55" x="128" y="109.7627">employeeID</text><text fill="#000000" font-family="sans-serif" font-size="11" lengthAdjust="spacing" textLength="43" x="128" y="123.5986">socCode</text><text fill="#000000" font-family="sans-serif" font-size="11" lengthAdjust="spacing" textLength="80" x="128" y="137.4346">organizationRole</text><text fill="#000000" font-family="sans-serif" font-size="11" lengthAdjust="spacing" textLength="40" x="128" y="151.2705">address</text><line style="stroke:#A80036;stroke-width:1.5;" x1="123" x2="226" y1="157.6875" y2="157.6875"/><!--MD5=[1934a092c0e7d4da7dc7075b6f4b6b03]
class ClinicalAnalysisLaboratory--><rect codeLine="17" fill="#FEFECE" filter="url(#f1q8od5fctmgpt)" height="117.1797" id="ClinicalAnalysisLaboratory" style="stroke:#A80036;stroke-width:1.5;" width="177" x="7" y="244"/><ellipse cx="22" cy="260" fill="#ADD1B2" rx="11" ry="11" style="stroke:#A80036;stroke-width:1.0;"/><path d="M24,256.5 Q24.2031,256 24.4375,255.75 Q24.6719,255.5 24.9375,255.5 Q25.4063,255.5 25.7031,255.7813 Q26,256.0625 26,256.7188 L26,258.2813 Q26,258.9375 25.7188,259.2188 Q25.4375,259.5 25,259.5 Q24.6094,259.5 24.3594,259.3281 Q24.1094,259.1563 24,258.7031 Q23.9531,258.3906 23.7813,258.2188 Q23.4688,257.8906 22.9063,257.7031 Q22.3438,257.5 21.7813,257.5 Q21.0781,257.5 20.4844,257.7813 Q19.9063,258.0625 19.4531,258.6875 Q19,259.3125 19,260.1719 L19,261.0938 Q19,262.125 19.8438,262.8125 Q20.6875,263.5 22.1875,263.5 Q23.0781,263.5 23.7031,263.2969 Q24.0625,263.1875 24.4688,262.8281 Q24.7344,262.625 24.875,262.5625 Q25.0156,262.5 25.1875,262.5 Q25.5156,262.5 25.75,262.7656 Q26,263.0156 26,263.375 Q26,263.7188 25.6563,264.125 Q25.1563,264.7188 24.3594,265.0469 Q23.3125,265.5 22.0313,265.5 Q20.5313,265.5 19.3281,264.9063 Q18.3594,264.4375 17.6719,263.4219 Q17,262.4063 17,261.2031 L17,260.1094 Q17,258.8594 17.5938,257.7656 Q18.2031,256.6719 19.25,256.0938 Q20.3125,255.5 21.5,255.5 Q22.2188,255.5 22.8438,255.75 Q23.4688,256 24,256.5 Z " fill="#000000"/><text fill="#000000" font-family="sans-serif" font-size="12" lengthAdjust="spacing" textLength="145" x="36" y="264.9102">ClinicalAnalysisLaboratory</text><line style="stroke:#A80036;stroke-width:1.5;" x1="8" x2="183" y1="276" y2="276"/><text fill="#000000" font-family="sans-serif" font-size="11" lengthAdjust="spacing" textLength="40" x="13" y="291.4189">address</text><text fill="#000000" font-family="sans-serif" font-size="11" lengthAdjust="spacing" textLength="67" x="13" y="305.2549">phoneNumber</text><text fill="#000000" font-family="sans-serif" font-size="11" lengthAdjust="spacing" textLength="48" x="13" y="319.0908">tinNumber</text><text fill="#000000" font-family="sans-serif" font-size="11" lengthAdjust="spacing" textLength="26" x="13" y="332.9268">name</text><text fill="#000000" font-family="sans-serif" font-size="11" lengthAdjust="spacing" textLength="58" x="13" y="346.7627">laboratoryID</text><line style="stroke:#A80036;stroke-width:1.5;" x1="8" x2="183" y1="353.1797" y2="353.1797"/><!--MD5=[aeb3272166074d8737a70b61b1e71682]
class TestType--><rect codeLine="25" fill="#FEFECE" filter="url(#f1q8od5fctmgpt)" height="61.8359" id="TestType" style="stroke:#A80036;stroke-width:1.5;" width="82" x="133.5" y="439"/><ellipse cx="148.5" cy="455" fill="#ADD1B2" rx="11" ry="11" style="stroke:#A80036;stroke-width:1.0;"/><path d="M150.5,451.5 Q150.7031,451 150.9375,450.75 Q151.1719,450.5 151.4375,450.5 Q151.9063,450.5 152.2031,450.7813 Q152.5,451.0625 152.5,451.7188 L152.5,453.2813 Q152.5,453.9375 152.2188,454.2188 Q151.9375,454.5 151.5,454.5 Q151.1094,454.5 150.8594,454.3281 Q150.6094,454.1563 150.5,453.7031 Q150.4531,453.3906 150.2813,453.2188 Q149.9688,452.8906 149.4063,452.7031 Q148.8438,452.5 148.2813,452.5 Q147.5781,452.5 146.9844,452.7813 Q146.4063,453.0625 145.9531,453.6875 Q145.5,454.3125 145.5,455.1719 L145.5,456.0938 Q145.5,457.125 146.3438,457.8125 Q147.1875,458.5 148.6875,458.5 Q149.5781,458.5 150.2031,458.2969 Q150.5625,458.1875 150.9688,457.8281 Q151.2344,457.625 151.375,457.5625 Q151.5156,457.5 151.6875,457.5 Q152.0156,457.5 152.25,457.7656 Q152.5,458.0156 152.5,458.375 Q152.5,458.7188 152.1563,459.125 Q151.6563,459.7188 150.8594,460.0469 Q149.8125,460.5 148.5313,460.5 Q147.0313,460.5 145.8281,459.9063 Q144.8594,459.4375 144.1719,458.4219 Q143.5,457.4063 143.5,456.2031 L143.5,455.1094 Q143.5,453.8594 144.0938,452.7656 Q144.7031,451.6719 145.75,451.0938 Q146.8125,450.5 148,450.5 Q148.7188,450.5 149.3438,450.75 Q149.9688,451 150.5,451.5 Z " fill="#000000"/><text fill="#000000" font-family="sans-serif" font-size="12" lengthAdjust="spacing" textLength="50" x="162.5" y="459.9102">TestType</text><line style="stroke:#A80036;stroke-width:1.5;" x1="134.5" x2="214.5" y1="471" y2="471"/><text fill="#000000" font-family="sans-serif" font-size="11" lengthAdjust="spacing" textLength="55" x="139.5" y="486.4189">designation</text><line style="stroke:#A80036;stroke-width:1.5;" x1="134.5" x2="214.5" y1="492.8359" y2="492.8359"/><!--MD5=[71159b3869b6d7a411768e18bcaa697a]
link Administrator to TestType--><path codeLine="29" d="M194.38,166 C196.4,176.05 198.18,186.23 199.5,196 C204.8,235.31 202.65,351.7 201.5,361 C198.22,387.66 190.54,417.21 184.21,438.65 " fill="none" id="Administrator-TestType" style="stroke:#A80036;stroke-width:1.0;"/><polygon fill="#000000" points="208.3136,307.6723,211.5877,298.7431,205.7139,298.524,208.3136,307.6723" style="stroke:#000000;stroke-width:1.0;"/><text fill="#000000" font-family="sans-serif" font-size="13" lengthAdjust="spacing" textLength="43" x="217.5" y="307.9951">creates</text><text fill="#000000" font-family="sans-serif" font-size="13" lengthAdjust="spacing" textLength="7" x="188.8388" y="187.3177">1</text><text fill="#000000" font-family="sans-serif" font-size="13" lengthAdjust="spacing" textLength="5" x="180.6971" y="428.0824">*</text><!--MD5=[23b8a99c177c2cd6d714b2cbaa81b3c4]
link Administrator to ClinicalAnalysisLaboratory--><path codeLine="30" d="M145.42,166.27 C135.92,192.02 125.55,220.11 116.73,243.98 " fill="none" id="Administrator-ClinicalAnalysisLaboratory" style="stroke:#A80036;stroke-width:1.0;"/><polygon fill="#000000" points="136.7683,209.8663,142.658,202.3989,137.144,200.3632,136.7683,209.8663" style="stroke:#000000;stroke-width:1.0;"/><text fill="#000000" font-family="sans-serif" font-size="13" lengthAdjust="spacing" textLength="43" x="147.5" y="210.4951">creates</text><text fill="#000000" font-family="sans-serif" font-size="13" lengthAdjust="spacing" textLength="7" x="135.722" y="187.0611">1</text><text fill="#000000" font-family="sans-serif" font-size="13" lengthAdjust="spacing" textLength="20" x="98.1688" y="232.9633">1..*</text><!--MD5=[2eb961b30663a01bbfd8b4b9b8950031]
link ClinicalAnalysisLaboratory to TestType--><path codeLine="31" d="M123.13,361.38 C135.59,387.48 149.78,417.22 160.09,438.81 " fill="none" id="ClinicalAnalysisLaboratory-TestType" style="stroke:#A80036;stroke-width:1.0;"/><polygon fill="#000000" points="151.6539,404.6881,150.4097,395.2592,145.1052,397.7913,151.6539,404.6881" style="stroke:#000000;stroke-width:1.0;"/><text fill="#000000" font-family="sans-serif" font-size="13" lengthAdjust="spacing" textLength="21" x="158.5" y="405.4951">has</text><text fill="#000000" font-family="sans-serif" font-size="13" lengthAdjust="spacing" textLength="7" x="118.92" y="382.6181">1</text><text fill="#000000" font-family="sans-serif" font-size="13" lengthAdjust="spacing" textLength="20" x="135.0554" y="428.2754">1..*</text><!--MD5=[e4d18bf680691a893641bcb57053fa9f]
@startuml

class Administrator
class ClinicalAnalysisLaboratory
class TestType

class Administrator {
name
phoneNumber
email
password
employeeID
socCode
organizationRole
address
}

class ClinicalAnalysisLaboratory {
address
phoneNumber
tinNumber
name
laboratoryID
}

class TestType {
designation
}

Administrator "1" - - "*" TestType : creates >
Administrator "1" - - "1..*" ClinicalAnalysisLaboratory : creates >
ClinicalAnalysisLaboratory "1" - - "1..*" TestType : has >

@enduml

PlantUML version 1.2021.2(Sun Mar 07 11:10:27 GMT 2021)
(GPL source distribution)
Java Runtime: OpenJDK Runtime Environment
JVM: OpenJDK 64-Bit Server VM
Default Encoding: Cp1252
Language: pt
Country: PT
--></g></svg>