<?xml version="1.0" encoding="UTF-8" standalone="no"?><svg xmlns="http://www.w3.org/2000/svg" xmlns:xlink="http://www.w3.org/1999/xlink" contentScriptType="application/ecmascript" contentStyleType="text/css" height="746.25px" preserveAspectRatio="none" style="width:503px;height:746px;" version="1.1" viewBox="0 0 503 746" width="503.75px" zoomAndPan="magnify"><defs><filter height="300%" id="fjgp2gaap7hob" width="300%" x="-1" y="-1"><feGaussianBlur result="blurOut" stdDeviation="2.5"/><feColorMatrix in="blurOut" result="blurOut2" type="matrix" values="0 0 0 0 0 0 0 0 0 0 0 0 0 0 0 0 0 0 .4 0"/><feOffset dx="5.0" dy="5.0" in="blurOut2" result="blurOut3"/><feBlend in="SourceGraphic" in2="blurOut3" mode="normal"/></filter></defs><g><!--MD5=[3fd616f346a44cd59a91eb10b19e157c]
class User--><rect codeLine="2" fill="#FEFECE" filter="url(#fjgp2gaap7hob)" height="111.8848" id="User" style="stroke:#A80036;stroke-width:1.875;" width="77.5" x="8.75" y="51.875"/><ellipse cx="29.1875" cy="71.875" fill="#ADD1B2" rx="13.75" ry="13.75" style="stroke:#A80036;stroke-width:1.25;"/><path d="M31.6875,67.5 Q31.9414,66.875 32.2344,66.5625 Q32.5273,66.25 32.8594,66.25 Q33.4453,66.25 33.8164,66.6016 Q34.1875,66.9531 34.1875,67.7734 L34.1875,69.7266 Q34.1875,70.5469 33.8359,70.8984 Q33.4844,71.25 32.9375,71.25 Q32.4492,71.25 32.1367,71.0352 Q31.8242,70.8203 31.6875,70.2539 Q31.6289,69.8633 31.4141,69.6484 Q31.0234,69.2383 30.3203,69.0039 Q29.6172,68.75 28.9141,68.75 Q28.0352,68.75 27.293,69.1016 Q26.5703,69.4531 26.0039,70.2344 Q25.4375,71.0156 25.4375,72.0898 L25.4375,73.2422 Q25.4375,74.5313 26.4922,75.3906 Q27.5469,76.25 29.4219,76.25 Q30.5352,76.25 31.3164,75.9961 Q31.7656,75.8594 32.2734,75.4102 Q32.6055,75.1563 32.7813,75.0781 Q32.957,75 33.1719,75 Q33.582,75 33.875,75.332 Q34.1875,75.6445 34.1875,76.0938 Q34.1875,76.5234 33.7578,77.0313 Q33.1328,77.7734 32.1367,78.1836 Q30.8281,78.75 29.2266,78.75 Q27.3516,78.75 25.8477,78.0078 Q24.6367,77.4219 23.7773,76.1523 Q22.9375,74.8828 22.9375,73.3789 L22.9375,72.0117 Q22.9375,70.4492 23.6797,69.082 Q24.4414,67.7148 25.75,66.9922 Q27.0781,66.25 28.5625,66.25 Q29.4609,66.25 30.2422,66.5625 Q31.0234,66.875 31.6875,67.5 Z " fill="#000000"/><text fill="#000000" font-family="sans-serif" font-size="15" lengthAdjust="spacing" textLength="33.75" x="47.0625" y="78.0127">User</text><line style="stroke:#A80036;stroke-width:1.875;" x1="10" x2="85" y1="91.875" y2="91.875"/><text fill="#000000" font-family="sans-serif" font-size="13.75" lengthAdjust="spacing" textLength="32.5" x="16.25" y="111.1487">name</text><text fill="#000000" font-family="sans-serif" font-size="13.75" lengthAdjust="spacing" textLength="30" x="16.25" y="128.4436">email</text><text fill="#000000" font-family="sans-serif" font-size="13.75" lengthAdjust="spacing" textLength="62.5" x="16.25" y="145.7385">password</text><line style="stroke:#A80036;stroke-width:1.875;" x1="10" x2="85" y1="153.7598" y2="153.7598"/><!--MD5=[7421f545a0d8420c5bec41e74b387d9c]
class Employee--><rect codeLine="7" fill="#FEFECE" filter="url(#fjgp2gaap7hob)" height="198.3594" id="Employee" style="stroke:#A80036;stroke-width:1.875;" width="115" x="216.25" y="8.75"/><ellipse cx="237.8125" cy="28.75" fill="#ADD1B2" rx="13.75" ry="13.75" style="stroke:#A80036;stroke-width:1.25;"/><path d="M240.3125,24.375 Q240.5664,23.75 240.8594,23.4375 Q241.1523,23.125 241.4844,23.125 Q242.0703,23.125 242.4414,23.4766 Q242.8125,23.8281 242.8125,24.6484 L242.8125,26.6016 Q242.8125,27.4219 242.4609,27.7734 Q242.1094,28.125 241.5625,28.125 Q241.0742,28.125 240.7617,27.9102 Q240.4492,27.6953 240.3125,27.1289 Q240.2539,26.7383 240.0391,26.5234 Q239.6484,26.1133 238.9453,25.8789 Q238.2422,25.625 237.5391,25.625 Q236.6602,25.625 235.918,25.9766 Q235.1953,26.3281 234.6289,27.1094 Q234.0625,27.8906 234.0625,28.9648 L234.0625,30.1172 Q234.0625,31.4063 235.1172,32.2656 Q236.1719,33.125 238.0469,33.125 Q239.1602,33.125 239.9414,32.8711 Q240.3906,32.7344 240.8984,32.2852 Q241.2305,32.0313 241.4063,31.9531 Q241.582,31.875 241.7969,31.875 Q242.207,31.875 242.5,32.207 Q242.8125,32.5195 242.8125,32.9688 Q242.8125,33.3984 242.3828,33.9063 Q241.7578,34.6484 240.7617,35.0586 Q239.4531,35.625 237.8516,35.625 Q235.9766,35.625 234.4727,34.8828 Q233.2617,34.2969 232.4023,33.0273 Q231.5625,31.7578 231.5625,30.2539 L231.5625,28.8867 Q231.5625,27.3242 232.3047,25.957 Q233.0664,24.5898 234.375,23.8672 Q235.7031,23.125 237.1875,23.125 Q238.0859,23.125 238.8672,23.4375 Q239.6484,23.75 240.3125,24.375 Z " fill="#000000"/><text fill="#000000" font-family="sans-serif" font-size="15" lengthAdjust="spacing" textLength="68.75" x="255.9375" y="34.8877">Employee</text><line style="stroke:#A80036;stroke-width:1.875;" x1="217.5" x2="330" y1="48.75" y2="48.75"/><text fill="#000000" font-family="sans-serif" font-size="13.75" lengthAdjust="spacing" textLength="32.5" x="223.75" y="68.0237">name</text><text fill="#000000" font-family="sans-serif" font-size="13.75" lengthAdjust="spacing" textLength="83.75" x="223.75" y="85.3186">phoneNumber</text><text fill="#000000" font-family="sans-serif" font-size="13.75" lengthAdjust="spacing" textLength="30" x="223.75" y="102.6135">email</text><text fill="#000000" font-family="sans-serif" font-size="13.75" lengthAdjust="spacing" textLength="62.5" x="223.75" y="119.9084">password</text><text fill="#000000" font-family="sans-serif" font-size="13.75" lengthAdjust="spacing" textLength="68.75" x="223.75" y="137.2034">employeeID</text><text fill="#000000" font-family="sans-serif" font-size="13.75" lengthAdjust="spacing" textLength="53.75" x="223.75" y="154.4983">socCode</text><text fill="#000000" font-family="sans-serif" font-size="13.75" lengthAdjust="spacing" textLength="100" x="223.75" y="171.7932">organizationRole</text><text fill="#000000" font-family="sans-serif" font-size="13.75" lengthAdjust="spacing" textLength="50" x="223.75" y="189.0881">address</text><line style="stroke:#A80036;stroke-width:1.875;" x1="217.5" x2="330" y1="197.1094" y2="197.1094"/><!--MD5=[da547346deef918ea16944ba046651ef]
class Administrator--><rect codeLine="17" fill="#FEFECE" filter="url(#fjgp2gaap7hob)" height="60" id="Administrator" style="stroke:#A80036;stroke-width:1.875;" width="131.25" x="125.625" y="391.25"/><ellipse cx="144.375" cy="411.25" fill="#ADD1B2" rx="13.75" ry="13.75" style="stroke:#A80036;stroke-width:1.25;"/><path d="M146.875,406.875 Q147.1289,406.25 147.4219,405.9375 Q147.7148,405.625 148.0469,405.625 Q148.6328,405.625 149.0039,405.9766 Q149.375,406.3281 149.375,407.1484 L149.375,409.1016 Q149.375,409.9219 149.0234,410.2734 Q148.6719,410.625 148.125,410.625 Q147.6367,410.625 147.3242,410.4102 Q147.0117,410.1953 146.875,409.6289 Q146.8164,409.2383 146.6016,409.0234 Q146.2109,408.6133 145.5078,408.3789 Q144.8047,408.125 144.1016,408.125 Q143.2227,408.125 142.4805,408.4766 Q141.7578,408.8281 141.1914,409.6094 Q140.625,410.3906 140.625,411.4648 L140.625,412.6172 Q140.625,413.9063 141.6797,414.7656 Q142.7344,415.625 144.6094,415.625 Q145.7227,415.625 146.5039,415.3711 Q146.9531,415.2344 147.4609,414.7852 Q147.793,414.5313 147.9688,414.4531 Q148.1445,414.375 148.3594,414.375 Q148.7695,414.375 149.0625,414.707 Q149.375,415.0195 149.375,415.4688 Q149.375,415.8984 148.9453,416.4063 Q148.3203,417.1484 147.3242,417.5586 Q146.0156,418.125 144.4141,418.125 Q142.5391,418.125 141.0352,417.3828 Q139.8242,416.7969 138.9648,415.5273 Q138.125,414.2578 138.125,412.7539 L138.125,411.3867 Q138.125,409.8242 138.8672,408.457 Q139.6289,407.0898 140.9375,406.3672 Q142.2656,405.625 143.75,405.625 Q144.6484,405.625 145.4297,405.9375 Q146.2109,406.25 146.875,406.875 Z " fill="#000000"/><text fill="#000000" font-family="sans-serif" font-size="15" lengthAdjust="spacing" textLength="91.25" x="161.875" y="417.3877">Administrator</text><line style="stroke:#A80036;stroke-width:1.875;" x1="126.875" x2="255.625" y1="431.25" y2="431.25"/><line style="stroke:#A80036;stroke-width:1.875;" x1="126.875" x2="255.625" y1="441.25" y2="441.25"/><!--MD5=[02e4b9b7573f1156f41e60aa5b4e25a4]
class Company--><rect codeLine="20" fill="#FEFECE" filter="url(#fjgp2gaap7hob)" height="77.2949" id="Company" style="stroke:#A80036;stroke-width:1.875;" width="106.25" x="380.625" y="382.5"/><ellipse cx="399.375" cy="402.5" fill="#ADD1B2" rx="13.75" ry="13.75" style="stroke:#A80036;stroke-width:1.25;"/><path d="M401.875,398.125 Q402.1289,397.5 402.4219,397.1875 Q402.7148,396.875 403.0469,396.875 Q403.6328,396.875 404.0039,397.2266 Q404.375,397.5781 404.375,398.3984 L404.375,400.3516 Q404.375,401.1719 404.0234,401.5234 Q403.6719,401.875 403.125,401.875 Q402.6367,401.875 402.3242,401.6602 Q402.0117,401.4453 401.875,400.8789 Q401.8164,400.4883 401.6016,400.2734 Q401.2109,399.8633 400.5078,399.6289 Q399.8047,399.375 399.1016,399.375 Q398.2227,399.375 397.4805,399.7266 Q396.7578,400.0781 396.1914,400.8594 Q395.625,401.6406 395.625,402.7148 L395.625,403.8672 Q395.625,405.1563 396.6797,406.0156 Q397.7344,406.875 399.6094,406.875 Q400.7227,406.875 401.5039,406.6211 Q401.9531,406.4844 402.4609,406.0352 Q402.793,405.7813 402.9688,405.7031 Q403.1445,405.625 403.3594,405.625 Q403.7695,405.625 404.0625,405.957 Q404.375,406.2695 404.375,406.7188 Q404.375,407.1484 403.9453,407.6563 Q403.3203,408.3984 402.3242,408.8086 Q401.0156,409.375 399.4141,409.375 Q397.5391,409.375 396.0352,408.6328 Q394.8242,408.0469 393.9648,406.7773 Q393.125,405.5078 393.125,404.0039 L393.125,402.6367 Q393.125,401.0742 393.8672,399.707 Q394.6289,398.3398 395.9375,397.6172 Q397.2656,396.875 398.75,396.875 Q399.6484,396.875 400.4297,397.1875 Q401.2109,397.5 401.875,398.125 Z " fill="#000000"/><text fill="#000000" font-family="sans-serif" font-size="15" lengthAdjust="spacing" textLength="66.25" x="416.875" y="408.6377">Company</text><line style="stroke:#A80036;stroke-width:1.875;" x1="381.875" x2="485.625" y1="422.5" y2="422.5"/><text fill="#000000" font-family="sans-serif" font-size="13.75" lengthAdjust="spacing" textLength="68.75" x="388.125" y="441.7737">designation</text><line style="stroke:#A80036;stroke-width:1.875;" x1="381.875" x2="485.625" y1="449.7949" y2="449.7949"/><!--MD5=[36afb6bbd95a8ac778c4537c55a683d5]
class ParameterCategory--><rect codeLine="24" fill="#FEFECE" filter="url(#fjgp2gaap7hob)" height="94.5898" id="ParameterCategory" style="stroke:#A80036;stroke-width:1.875;" width="173.75" x="225.625" y="635"/><ellipse cx="244.375" cy="655" fill="#ADD1B2" rx="13.75" ry="13.75" style="stroke:#A80036;stroke-width:1.25;"/><path d="M246.875,650.625 Q247.1289,650 247.4219,649.6875 Q247.7148,649.375 248.0469,649.375 Q248.6328,649.375 249.0039,649.7266 Q249.375,650.0781 249.375,650.8984 L249.375,652.8516 Q249.375,653.6719 249.0234,654.0234 Q248.6719,654.375 248.125,654.375 Q247.6367,654.375 247.3242,654.1602 Q247.0117,653.9453 246.875,653.3789 Q246.8164,652.9883 246.6016,652.7734 Q246.2109,652.3633 245.5078,652.1289 Q244.8047,651.875 244.1016,651.875 Q243.2227,651.875 242.4805,652.2266 Q241.7578,652.5781 241.1914,653.3594 Q240.625,654.1406 240.625,655.2148 L240.625,656.3672 Q240.625,657.6563 241.6797,658.5156 Q242.7344,659.375 244.6094,659.375 Q245.7227,659.375 246.5039,659.1211 Q246.9531,658.9844 247.4609,658.5352 Q247.793,658.2813 247.9688,658.2031 Q248.1445,658.125 248.3594,658.125 Q248.7695,658.125 249.0625,658.457 Q249.375,658.7695 249.375,659.2188 Q249.375,659.6484 248.9453,660.1563 Q248.3203,660.8984 247.3242,661.3086 Q246.0156,661.875 244.4141,661.875 Q242.5391,661.875 241.0352,661.1328 Q239.8242,660.5469 238.9648,659.2773 Q238.125,658.0078 238.125,656.5039 L238.125,655.1367 Q238.125,653.5742 238.8672,652.207 Q239.6289,650.8398 240.9375,650.1172 Q242.2656,649.375 243.75,649.375 Q244.6484,649.375 245.4297,649.6875 Q246.2109,650 246.875,650.625 Z " fill="#000000"/><text fill="#000000" font-family="sans-serif" font-size="15" lengthAdjust="spacing" textLength="133.75" x="261.875" y="661.1377">ParameterCategory</text><line style="stroke:#A80036;stroke-width:1.875;" x1="226.875" x2="398.125" y1="675" y2="675"/><text fill="#000000" font-family="sans-serif" font-size="13.75" lengthAdjust="spacing" textLength="30" x="233.125" y="694.2737">code</text><text fill="#000000" font-family="sans-serif" font-size="13.75" lengthAdjust="spacing" textLength="32.5" x="233.125" y="711.5686">name</text><line style="stroke:#A80036;stroke-width:1.875;" x1="226.875" x2="398.125" y1="719.5898" y2="719.5898"/><!--MD5=[48afc90033d240f0c7566c2ff402e39b]
link User to Employee--><path codeLine="29" d="M86.4,108.125 C122.025,108.125 175.2375,108.125 215.8625,108.125 " fill="none" id="User-Employee" style="stroke:#A80036;stroke-width:1.25;"/><polygon fill="#000000" points="108.125,93.3447,119.4314,97.0184,119.4314,89.6711,108.125,93.3447" style="stroke:#000000;stroke-width:1.25;"/><text fill="#000000" font-family="sans-serif" font-size="16.25" lengthAdjust="spacing" textLength="67.5" x="125.625" y="99.9939">relates to</text><text fill="#000000" font-family="sans-serif" font-size="16.25" lengthAdjust="spacing" textLength="8.75" x="96.4073" y="102.8033">1</text><text fill="#000000" font-family="sans-serif" font-size="16.25" lengthAdjust="spacing" textLength="27.5" x="178.7362" y="126.3934">0..1</text><!--MD5=[f7fb1bbd8b4f4021e9754ae6fe2871a0]
reverse link Employee to Administrator--><path codeLine="30" d="M234.475,231.8125 C229.35,249.175 224.375,266.8625 220,283.75 C210.4875,320.4875 201.825,363.4125 196.55,391.1125 " fill="none" id="Employee-backto-Administrator" style="stroke:#A80036;stroke-width:1.25;"/><polygon fill="none" points="226.175,229.025,241.7625,207.6,242.9375,234.0625,226.175,229.025" style="stroke:#A80036;stroke-width:1.25;"/><!--MD5=[8f7dd94d56b58fc07b233ccd3dd98f8c]
link Administrator to Employee--><path codeLine="31" d="M213.475,391.225 C222.7125,377.85 232.675,361.325 238.75,345 C254.9,301.5875 263.6125,251.0625 268.3125,207.95 " fill="none" id="Administrator-Employee" style="stroke:#A80036;stroke-width:1.25;"/><polygon fill="#000000" points="264.2916,289.232,257.5311,299.0108,264.5701,301.117,264.2916,289.232" style="stroke:#000000;stroke-width:1.25;"/><text fill="#000000" font-family="sans-serif" font-size="16.25" lengthAdjust="spacing" textLength="53.75" x="273.75" y="301.8689">creates</text><text fill="#000000" font-family="sans-serif" font-size="16.25" lengthAdjust="spacing" textLength="8.75" x="209.2991" y="377.8938">1</text><text fill="#000000" font-family="sans-serif" font-size="16.25" lengthAdjust="spacing" textLength="8.75" x="258.7499" y="233.9481">1</text><!--MD5=[09366576ee87d48d594df10cacc83f45]
link Company to Employee--><path codeLine="32" d="M414.375,382.375 C392.1875,339.3 354.95,267.025 324.375,207.6625 " fill="none" id="Company-Employee" style="stroke:#A80036;stroke-width:1.25;"/><polygon fill="#000000" points="377.1379,289.6636,379.0497,301.3971,385.5813,298.0324,377.1379,289.6636" style="stroke:#000000;stroke-width:1.25;"/><text fill="#000000" font-family="sans-serif" font-size="16.25" lengthAdjust="spacing" textLength="26.25" x="391.25" y="301.8689">has</text><text fill="#000000" font-family="sans-serif" font-size="16.25" lengthAdjust="spacing" textLength="8.75" x="400.7266" y="369.2299">1</text><text fill="#000000" font-family="sans-serif" font-size="16.25" lengthAdjust="spacing" textLength="25" x="302.6514" y="233.9804">1..*</text><!--MD5=[304db59a05c0da2cdffc3c882f2d9e9b]
link Administrator to Company--><path codeLine="33" d="M257.2,421.25 C295.9,421.25 344.1875,421.25 380.475,421.25 " fill="none" id="Administrator-Company" style="stroke:#A80036;stroke-width:1.25;"/><polygon fill="#000000" points="291.25,406.4697,279.9436,402.7961,279.9436,410.1434,291.25,406.4697" style="stroke:#000000;stroke-width:1.25;"/><text fill="#000000" font-family="sans-serif" font-size="16.25" lengthAdjust="spacing" textLength="61.25" x="296.25" y="413.1189">works at</text><text fill="#000000" font-family="sans-serif" font-size="16.25" lengthAdjust="spacing" textLength="8.75" x="267.0895" y="416.7435">1</text><text fill="#000000" font-family="sans-serif" font-size="16.25" lengthAdjust="spacing" textLength="8.75" x="361.8164" y="416.4555">1</text><!--MD5=[7144ffdeebbe38808f7fb2ce8ac24f7d]
link Administrator to ParameterCategory--><path codeLine="34" d="M204.925,451.675 C225.8,496.225 265.8,581.5875 290.7,634.7375 " fill="none" id="Administrator-ParameterCategory" style="stroke:#A80036;stroke-width:1.25;"/><polygon fill="#000000" points="263.9018,553.3793,262.4312,541.5824,255.778,544.6998,263.9018,553.3793" style="stroke:#000000;stroke-width:1.25;"/><text fill="#000000" font-family="sans-serif" font-size="16.25" lengthAdjust="spacing" textLength="53.75" x="272.5" y="554.3689">creates</text><text fill="#000000" font-family="sans-serif" font-size="16.25" lengthAdjust="spacing" textLength="8.75" x="198.3256" y="477.943">1</text><text fill="#000000" font-family="sans-serif" font-size="16.25" lengthAdjust="spacing" textLength="8.75" x="277.2876" y="621.3931">1</text><!--MD5=[93b4f25fb503a8e0e9a46b1d30ff3f44]
link Company to ParameterCategory--><path codeLine="35" d="M416.125,460.125 C394.45,506.375 357.6625,584.8625 334.25,634.825 " fill="none" id="Company-ParameterCategory" style="stroke:#A80036;stroke-width:1.25;"/><polygon fill="#000000" points="383.5977,553.379,391.7222,544.7002,385.0693,541.5823,383.5977,553.379" style="stroke:#000000;stroke-width:1.25;"/><text fill="#000000" font-family="sans-serif" font-size="16.25" lengthAdjust="spacing" textLength="48.75" x="397.5" y="554.3689">adopts</text><text fill="#000000" font-family="sans-serif" font-size="16.25" lengthAdjust="spacing" textLength="8.75" x="403.0437" y="486.6796">1</text><text fill="#000000" font-family="sans-serif" font-size="16.25" lengthAdjust="spacing" textLength="6.25" x="331.3176" y="621.4962">*</text><!--MD5=[26fa62e44362a7811327a3ce7ba74cce]
@startuml

class User{
    name
    email
    password
}
class Employee{
    name
    phoneNumber
    email
    password
    employeeID
    socCode
    organizationRole
    address
}
class Administrator{
}

class Company{
  designation
}

class ParameterCategory{
    code
    name
}

User "1" - "0..1" Employee: relates to <
Employee <|- - Administrator
Administrator "1" - - - "1" Employee: creates >
Company "1" - - "1..*" Employee: has >
Administrator "1" - "1" Company: works at >
Administrator "1" - - - "1" ParameterCategory: creates >
Company "1" - - "*" ParameterCategory: adopts >
@enduml

PlantUML version 1.2021.5(Sun Apr 25 12:20:28 BST 2021)
(GPL source distribution)
Java Runtime: OpenJDK Runtime Environment
JVM: Dynamic Code Evolution 64-Bit Server VM
Default Encoding: Cp1252
Language: pt
Country: PT
--></g></svg>