<?xml version="1.0" encoding="UTF-8" standalone="no"?><svg xmlns="http://www.w3.org/2000/svg" xmlns:xlink="http://www.w3.org/1999/xlink" contentScriptType="application/ecmascript" contentStyleType="text/css" height="727.5px" preserveAspectRatio="none" style="width:592px;height:727px;" version="1.1" viewBox="0 0 592 727" width="592.5px" zoomAndPan="magnify"><defs><filter height="300%" id="f14rzv58gxbrbj" width="300%" x="-1" y="-1"><feGaussianBlur result="blurOut" stdDeviation="2.5"/><feColorMatrix in="blurOut" result="blurOut2" type="matrix" values="0 0 0 0 0 0 0 0 0 0 0 0 0 0 0 0 0 0 .4 0"/><feOffset dx="5.0" dy="5.0" in="blurOut2" result="blurOut3"/><feBlend in="SourceGraphic" in2="blurOut3" mode="normal"/></filter></defs><g><!--MD5=[02e4b9b7573f1156f41e60aa5b4e25a4]
class Company--><rect codeLine="2" fill="#FEFECE" filter="url(#f14rzv58gxbrbj)" height="94.5898" id="Company" style="stroke:#A80036;stroke-width:1.875;" width="210" x="205" y="180"/><ellipse cx="271.5625" cy="200" fill="#ADD1B2" rx="13.75" ry="13.75" style="stroke:#A80036;stroke-width:1.25;"/><path d="M274.0625,195.625 Q274.3164,195 274.6094,194.6875 Q274.9023,194.375 275.2344,194.375 Q275.8203,194.375 276.1914,194.7266 Q276.5625,195.0781 276.5625,195.8984 L276.5625,197.8516 Q276.5625,198.6719 276.2109,199.0234 Q275.8594,199.375 275.3125,199.375 Q274.8242,199.375 274.5117,199.1602 Q274.1992,198.9453 274.0625,198.3789 Q274.0039,197.9883 273.7891,197.7734 Q273.3984,197.3633 272.6953,197.1289 Q271.9922,196.875 271.2891,196.875 Q270.4102,196.875 269.668,197.2266 Q268.9453,197.5781 268.3789,198.3594 Q267.8125,199.1406 267.8125,200.2148 L267.8125,201.3672 Q267.8125,202.6563 268.8672,203.5156 Q269.9219,204.375 271.7969,204.375 Q272.9102,204.375 273.6914,204.1211 Q274.1406,203.9844 274.6484,203.5352 Q274.9805,203.2813 275.1563,203.2031 Q275.332,203.125 275.5469,203.125 Q275.957,203.125 276.25,203.457 Q276.5625,203.7695 276.5625,204.2188 Q276.5625,204.6484 276.1328,205.1563 Q275.5078,205.8984 274.5117,206.3086 Q273.2031,206.875 271.6016,206.875 Q269.7266,206.875 268.2227,206.1328 Q267.0117,205.5469 266.1523,204.2773 Q265.3125,203.0078 265.3125,201.5039 L265.3125,200.1367 Q265.3125,198.5742 266.0547,197.207 Q266.8164,195.8398 268.125,195.1172 Q269.4531,194.375 270.9375,194.375 Q271.8359,194.375 272.6172,194.6875 Q273.3984,195 274.0625,195.625 Z " fill="#000000"/><text fill="#000000" font-family="sans-serif" font-size="15" lengthAdjust="spacing" textLength="66.25" x="297.1875" y="206.1377">Company</text><line style="stroke:#A80036;stroke-width:1.875;" x1="206.25" x2="413.75" y1="220" y2="220"/><rect fill="none" height="7.5" style="stroke:#C82930;stroke-width:1.25;" width="7.5" x="215" y="230"/><text fill="#000000" font-family="sans-serif" font-size="13.75" lengthAdjust="spacing" textLength="68.75" x="230" y="239.2737">designation</text><line style="stroke:#A80036;stroke-width:1.875;" x1="206.25" x2="413.75" y1="247.2949" y2="247.2949"/><ellipse cx="218.75" cy="261.0449" fill="#84BE84" rx="3.75" ry="3.75" style="stroke:#038048;stroke-width:1.25;"/><text fill="#000000" font-family="sans-serif" font-size="13.75" lengthAdjust="spacing" textLength="177.5" x="230" y="266.5686">getParameterCategoryStore()</text><!--MD5=[d802db621b5b215a6f0466f93cefcb42]
class ParameterCategoryStore--><rect codeLine="7" fill="#FEFECE" filter="url(#f14rzv58gxbrbj)" height="129.1797" id="ParameterCategoryStore" style="stroke:#A80036;stroke-width:1.875;" width="263.75" x="156.875" y="372.5"/><ellipse cx="199.8125" cy="392.5" fill="#ADD1B2" rx="13.75" ry="13.75" style="stroke:#A80036;stroke-width:1.25;"/><path d="M202.3125,388.125 Q202.5664,387.5 202.8594,387.1875 Q203.1523,386.875 203.4844,386.875 Q204.0703,386.875 204.4414,387.2266 Q204.8125,387.5781 204.8125,388.3984 L204.8125,390.3516 Q204.8125,391.1719 204.4609,391.5234 Q204.1094,391.875 203.5625,391.875 Q203.0742,391.875 202.7617,391.6602 Q202.4492,391.4453 202.3125,390.8789 Q202.2539,390.4883 202.0391,390.2734 Q201.6484,389.8633 200.9453,389.6289 Q200.2422,389.375 199.5391,389.375 Q198.6602,389.375 197.918,389.7266 Q197.1953,390.0781 196.6289,390.8594 Q196.0625,391.6406 196.0625,392.7148 L196.0625,393.8672 Q196.0625,395.1563 197.1172,396.0156 Q198.1719,396.875 200.0469,396.875 Q201.1602,396.875 201.9414,396.6211 Q202.3906,396.4844 202.8984,396.0352 Q203.2305,395.7813 203.4063,395.7031 Q203.582,395.625 203.7969,395.625 Q204.207,395.625 204.5,395.957 Q204.8125,396.2695 204.8125,396.7188 Q204.8125,397.1484 204.3828,397.6563 Q203.7578,398.3984 202.7617,398.8086 Q201.4531,399.375 199.8516,399.375 Q197.9766,399.375 196.4727,398.6328 Q195.2617,398.0469 194.4023,396.7773 Q193.5625,395.5078 193.5625,394.0039 L193.5625,392.6367 Q193.5625,391.0742 194.3047,389.707 Q195.0664,388.3398 196.375,387.6172 Q197.7031,386.875 199.1875,386.875 Q200.0859,386.875 200.8672,387.1875 Q201.6484,387.5 202.3125,388.125 Z " fill="#000000"/><text fill="#000000" font-family="sans-serif" font-size="15" lengthAdjust="spacing" textLength="170" x="222.6875" y="398.6377">ParameterCategoryStore</text><line style="stroke:#A80036;stroke-width:1.875;" x1="158.125" x2="419.375" y1="412.5" y2="412.5"/><line style="stroke:#A80036;stroke-width:1.875;" x1="158.125" x2="419.375" y1="422.5" y2="422.5"/><ellipse cx="170.625" cy="436.25" fill="#84BE84" rx="3.75" ry="3.75" style="stroke:#038048;stroke-width:1.25;"/><text fill="#000000" font-family="sans-serif" font-size="13.75" lengthAdjust="spacing" textLength="231.25" x="181.875" y="441.7737">createParameterCategory(code,name)</text><ellipse cx="170.625" cy="453.5449" fill="#84BE84" rx="3.75" ry="3.75" style="stroke:#038048;stroke-width:1.25;"/><text fill="#000000" font-family="sans-serif" font-size="13.75" lengthAdjust="spacing" textLength="187.5" x="181.875" y="459.0686">validateParameterCategory(pc)</text><ellipse cx="170.625" cy="470.8398" fill="#84BE84" rx="3.75" ry="3.75" style="stroke:#038048;stroke-width:1.25;"/><text fill="#000000" font-family="sans-serif" font-size="13.75" lengthAdjust="spacing" textLength="171.25" x="181.875" y="476.3635">saveParameterCategory(pc)</text><ellipse cx="170.625" cy="488.1348" fill="#84BE84" rx="3.75" ry="3.75" style="stroke:#038048;stroke-width:1.25;"/><text fill="#000000" font-family="sans-serif" font-size="13.75" lengthAdjust="spacing" textLength="222.5" x="181.875" y="493.6584">getParameterCategoryByCode(code)</text><!--MD5=[6017f56a87b244e108fd0d8749edd53c]
class CreateParameterCategoryUI--><rect codeLine="15" fill="#FEFECE" filter="url(#f14rzv58gxbrbj)" height="60" id="CreateParameterCategoryUI" style="stroke:#A80036;stroke-width:1.875;" width="235" x="8.75" y="26.25"/><ellipse cx="27.5" cy="46.25" fill="#ADD1B2" rx="13.75" ry="13.75" style="stroke:#A80036;stroke-width:1.25;"/><path d="M30,41.875 Q30.2539,41.25 30.5469,40.9375 Q30.8398,40.625 31.1719,40.625 Q31.7578,40.625 32.1289,40.9766 Q32.5,41.3281 32.5,42.1484 L32.5,44.1016 Q32.5,44.9219 32.1484,45.2734 Q31.7969,45.625 31.25,45.625 Q30.7617,45.625 30.4492,45.4102 Q30.1367,45.1953 30,44.6289 Q29.9414,44.2383 29.7266,44.0234 Q29.3359,43.6133 28.6328,43.3789 Q27.9297,43.125 27.2266,43.125 Q26.3477,43.125 25.6055,43.4766 Q24.8828,43.8281 24.3164,44.6094 Q23.75,45.3906 23.75,46.4648 L23.75,47.6172 Q23.75,48.9063 24.8047,49.7656 Q25.8594,50.625 27.7344,50.625 Q28.8477,50.625 29.6289,50.3711 Q30.0781,50.2344 30.5859,49.7852 Q30.918,49.5313 31.0938,49.4531 Q31.2695,49.375 31.4844,49.375 Q31.8945,49.375 32.1875,49.707 Q32.5,50.0195 32.5,50.4688 Q32.5,50.8984 32.0703,51.4063 Q31.4453,52.1484 30.4492,52.5586 Q29.1406,53.125 27.5391,53.125 Q25.6641,53.125 24.1602,52.3828 Q22.9492,51.7969 22.0898,50.5273 Q21.25,49.2578 21.25,47.7539 L21.25,46.3867 Q21.25,44.8242 21.9922,43.457 Q22.7539,42.0898 24.0625,41.3672 Q25.3906,40.625 26.875,40.625 Q27.7734,40.625 28.5547,40.9375 Q29.3359,41.25 30,41.875 Z " fill="#000000"/><text fill="#000000" font-family="sans-serif" font-size="15" lengthAdjust="spacing" textLength="195" x="45" y="52.3877">CreateParameterCategoryUI</text><line style="stroke:#A80036;stroke-width:1.875;" x1="10" x2="242.5" y1="66.25" y2="66.25"/><line style="stroke:#A80036;stroke-width:1.875;" x1="10" x2="242.5" y1="76.25" y2="76.25"/><!--MD5=[43bb81d93caae6cc68206df5797cd1c4]
class CreateParameterCategoryController--><rect codeLine="17" fill="#FEFECE" filter="url(#f14rzv58gxbrbj)" height="94.5898" id="CreateParameterCategoryController" style="stroke:#A80036;stroke-width:1.875;" width="287.5" x="287.5" y="8.75"/><ellipse cx="306.25" cy="28.75" fill="#ADD1B2" rx="13.75" ry="13.75" style="stroke:#A80036;stroke-width:1.25;"/><path d="M308.75,24.375 Q309.0039,23.75 309.2969,23.4375 Q309.5898,23.125 309.9219,23.125 Q310.5078,23.125 310.8789,23.4766 Q311.25,23.8281 311.25,24.6484 L311.25,26.6016 Q311.25,27.4219 310.8984,27.7734 Q310.5469,28.125 310,28.125 Q309.5117,28.125 309.1992,27.9102 Q308.8867,27.6953 308.75,27.1289 Q308.6914,26.7383 308.4766,26.5234 Q308.0859,26.1133 307.3828,25.8789 Q306.6797,25.625 305.9766,25.625 Q305.0977,25.625 304.3555,25.9766 Q303.6328,26.3281 303.0664,27.1094 Q302.5,27.8906 302.5,28.9648 L302.5,30.1172 Q302.5,31.4063 303.5547,32.2656 Q304.6094,33.125 306.4844,33.125 Q307.5977,33.125 308.3789,32.8711 Q308.8281,32.7344 309.3359,32.2852 Q309.668,32.0313 309.8438,31.9531 Q310.0195,31.875 310.2344,31.875 Q310.6445,31.875 310.9375,32.207 Q311.25,32.5195 311.25,32.9688 Q311.25,33.3984 310.8203,33.9063 Q310.1953,34.6484 309.1992,35.0586 Q307.8906,35.625 306.2891,35.625 Q304.4141,35.625 302.9102,34.8828 Q301.6992,34.2969 300.8398,33.0273 Q300,31.7578 300,30.2539 L300,28.8867 Q300,27.3242 300.7422,25.957 Q301.5039,24.5898 302.8125,23.8672 Q304.1406,23.125 305.625,23.125 Q306.5234,23.125 307.3047,23.4375 Q308.0859,23.75 308.75,24.375 Z " fill="#000000"/><text fill="#000000" font-family="sans-serif" font-size="15" lengthAdjust="spacing" textLength="247.5" x="323.75" y="34.8877">CreateParameterCategoryController</text><line style="stroke:#A80036;stroke-width:1.875;" x1="288.75" x2="573.75" y1="48.75" y2="48.75"/><line style="stroke:#A80036;stroke-width:1.875;" x1="288.75" x2="573.75" y1="58.75" y2="58.75"/><ellipse cx="301.25" cy="72.5" fill="#84BE84" rx="3.75" ry="3.75" style="stroke:#038048;stroke-width:1.25;"/><text fill="#000000" font-family="sans-serif" font-size="13.75" lengthAdjust="spacing" textLength="235" x="312.5" y="78.0237">createParameterCategory(code, name)</text><ellipse cx="301.25" cy="89.7949" fill="#84BE84" rx="3.75" ry="3.75" style="stroke:#038048;stroke-width:1.25;"/><text fill="#000000" font-family="sans-serif" font-size="13.75" lengthAdjust="spacing" textLength="156.25" x="312.5" y="95.3186">saveParameterCategory()</text><!--MD5=[36afb6bbd95a8ac778c4537c55a683d5]
class ParameterCategory--><rect codeLine="22" fill="#FEFECE" filter="url(#f14rzv58gxbrbj)" height="111.8848" id="ParameterCategory" style="stroke:#A80036;stroke-width:1.875;" width="228.75" x="274.375" y="598.75"/><ellipse cx="317.875" cy="618.75" fill="#ADD1B2" rx="13.75" ry="13.75" style="stroke:#A80036;stroke-width:1.25;"/><path d="M320.375,614.375 Q320.6289,613.75 320.9219,613.4375 Q321.2148,613.125 321.5469,613.125 Q322.1328,613.125 322.5039,613.4766 Q322.875,613.8281 322.875,614.6484 L322.875,616.6016 Q322.875,617.4219 322.5234,617.7734 Q322.1719,618.125 321.625,618.125 Q321.1367,618.125 320.8242,617.9102 Q320.5117,617.6953 320.375,617.1289 Q320.3164,616.7383 320.1016,616.5234 Q319.7109,616.1133 319.0078,615.8789 Q318.3047,615.625 317.6016,615.625 Q316.7227,615.625 315.9805,615.9766 Q315.2578,616.3281 314.6914,617.1094 Q314.125,617.8906 314.125,618.9648 L314.125,620.1172 Q314.125,621.4063 315.1797,622.2656 Q316.2344,623.125 318.1094,623.125 Q319.2227,623.125 320.0039,622.8711 Q320.4531,622.7344 320.9609,622.2852 Q321.293,622.0313 321.4688,621.9531 Q321.6445,621.875 321.8594,621.875 Q322.2695,621.875 322.5625,622.207 Q322.875,622.5195 322.875,622.9688 Q322.875,623.3984 322.4453,623.9063 Q321.8203,624.6484 320.8242,625.0586 Q319.5156,625.625 317.9141,625.625 Q316.0391,625.625 314.5352,624.8828 Q313.3242,624.2969 312.4648,623.0273 Q311.625,621.7578 311.625,620.2539 L311.625,618.8867 Q311.625,617.3242 312.3672,615.957 Q313.1289,614.5898 314.4375,613.8672 Q315.7656,613.125 317.25,613.125 Q318.1484,613.125 318.9297,613.4375 Q319.7109,613.75 320.375,614.375 Z " fill="#000000"/><text fill="#000000" font-family="sans-serif" font-size="15" lengthAdjust="spacing" textLength="133.75" x="340.875" y="624.8877">ParameterCategory</text><line style="stroke:#A80036;stroke-width:1.875;" x1="275.625" x2="501.875" y1="638.75" y2="638.75"/><rect fill="none" height="7.5" style="stroke:#C82930;stroke-width:1.25;" width="7.5" x="284.375" y="648.75"/><text fill="#000000" font-family="sans-serif" font-size="13.75" lengthAdjust="spacing" textLength="30" x="299.375" y="658.0237">code</text><rect fill="none" height="7.5" style="stroke:#C82930;stroke-width:1.25;" width="7.5" x="284.375" y="666.0449"/><text fill="#000000" font-family="sans-serif" font-size="13.75" lengthAdjust="spacing" textLength="32.5" x="299.375" y="675.3186">name</text><line style="stroke:#A80036;stroke-width:1.875;" x1="275.625" x2="501.875" y1="683.3398" y2="683.3398"/><ellipse cx="288.125" cy="697.0898" fill="#84BE84" rx="3.75" ry="3.75" style="stroke:#038048;stroke-width:1.25;"/><text fill="#000000" font-family="sans-serif" font-size="13.75" lengthAdjust="spacing" textLength="196.25" x="299.375" y="702.6135">ParameterCategory(code, name)</text><!--MD5=[93b1b9218398b0464d36d46d0f539949]
link CreateParameterCategoryUI to CreateParameterCategoryController--><path codeLine="28" d="M244.2,56.25 C256.4375,56.25 268.675,56.25 280.9125,56.25 " fill="none" id="CreateParameterCategoryUI-to-CreateParameterCategoryController" style="stroke:#A80036;stroke-width:1.25;stroke-dasharray:7.0,7.0;"/><polygon fill="#A80036" points="287.3125,56.25,276.0625,51.25,281.0625,56.25,276.0625,61.25,287.3125,56.25" style="stroke:#A80036;stroke-width:1.25;"/><!--MD5=[a00c31f7a5d66db29f7adf0293377a3b]
link CreateParameterCategoryController to Company--><path codeLine="29" d="M397.8,104.0625 C382.1625,125.825 363.475,151.825 347.375,174.225 " fill="none" id="CreateParameterCategoryController-to-Company" style="stroke:#A80036;stroke-width:1.25;stroke-dasharray:7.0,7.0;"/><polygon fill="#A80036" points="343.35,179.8375,353.9886,173.6421,347.008,174.7698,345.8803,167.7893,343.35,179.8375" style="stroke:#A80036;stroke-width:1.25;"/><!--MD5=[869a0022b647c5cba08cf9438b652be2]
link CreateParameterCategoryController to ParameterCategory--><path codeLine="30" d="M438.2875,103.925 C449.3125,185.15 467,358.0625 442.5,501.25 C437.225,532.125 426.3375,565.05 415.725,592.375 " fill="none" id="CreateParameterCategoryController-to-ParameterCategory" style="stroke:#A80036;stroke-width:1.25;stroke-dasharray:7.0,7.0;"/><polygon fill="#A80036" points="413.3375,598.475,422.1122,589.8398,415.6278,592.6598,412.8079,586.1753,413.3375,598.475" style="stroke:#A80036;stroke-width:1.25;"/><!--MD5=[d53d7490e5836ca5709858d7326f212b]
link Company to ParameterCategoryStore--><path codeLine="31" d="M305.225,275.175 C302.475,301.975 298.9625,336.2125 295.8875,366.1625 " fill="none" id="Company-to-ParameterCategoryStore" style="stroke:#A80036;stroke-width:1.25;"/><polygon fill="#A80036" points="295.2375,372.4875,301.3686,361.8117,295.8806,366.2707,291.4217,360.7827,295.2375,372.4875" style="stroke:#A80036;stroke-width:1.25;"/><text fill="#000000" font-family="sans-serif" font-size="16.25" lengthAdjust="spacing" textLength="35" x="303.75" y="330.6189">uses</text><text fill="#000000" font-family="sans-serif" font-size="16.25" lengthAdjust="spacing" textLength="8.75" x="295.0167" y="301.3036">1</text><text fill="#000000" font-family="sans-serif" font-size="16.25" lengthAdjust="spacing" textLength="8.75" x="286.7846" y="358.8963">1</text><!--MD5=[d6274e3b73b5bc8f467c6cfbf5bf003e]
link ParameterCategoryStore to ParameterCategory--><path codeLine="32" d="M318.2125,501.65 C331.55,530.4125 347.25,564.2625 360.45,592.725 " fill="none" id="ParameterCategoryStore-to-ParameterCategory" style="stroke:#A80036;stroke-width:1.25;"/><polygon fill="#A80036" points="363.225,598.7125,363.0282,586.403,360.5957,593.0425,353.9562,590.6099,363.225,598.7125" style="stroke:#A80036;stroke-width:1.25;"/><text fill="#000000" font-family="sans-serif" font-size="16.25" lengthAdjust="spacing" textLength="48.75" x="346.25" y="556.8689">adopts</text><text fill="#000000" font-family="sans-serif" font-size="16.25" lengthAdjust="spacing" textLength="8.75" x="312.8336" y="528.5674">1</text><text fill="#000000" font-family="sans-serif" font-size="16.25" lengthAdjust="spacing" textLength="6.25" x="352.4089" y="585.1009">*</text><!--MD5=[8ae4354d96761bb131cbe43a955c938d]
@startuml

class Company {
  - designation
  + getParameterCategoryStore()
}

class ParameterCategoryStore {
  + createParameterCategory(code,name)
  + validateParameterCategory(pc)
  + saveParameterCategory(pc)
  + getParameterCategoryByCode(code)

  }

class CreateParameterCategoryUI {}

class CreateParameterCategoryController {
  + createParameterCategory(code, name)
  + saveParameterCategory()
}

class ParameterCategory{
 - code
- name
 + ParameterCategory(code, name)

}
CreateParameterCategoryUI .> CreateParameterCategoryController
CreateParameterCategoryController ..> Company
CreateParameterCategoryController ..> ParameterCategory
Company "1" - -> "1" ParameterCategoryStore : uses
ParameterCategoryStore "1" - -> "*" ParameterCategory: adopts



@enduml

PlantUML version 1.2021.5(Sun Apr 25 12:20:28 BST 2021)
(GPL source distribution)
Java Runtime: OpenJDK Runtime Environment
JVM: Dynamic Code Evolution 64-Bit Server VM
Default Encoding: Cp1252
Language: pt
Country: PT
--></g></svg>