<?xml version="1.0" encoding="UTF-8" standalone="no"?><svg xmlns="http://www.w3.org/2000/svg" xmlns:xlink="http://www.w3.org/1999/xlink" contentScriptType="application/ecmascript" contentStyleType="text/css" height="1444px" preserveAspectRatio="none" style="width:1521px;height:1444px;" version="1.1" viewBox="0 0 1521 1444" width="1521px" zoomAndPan="magnify"><defs><filter height="300%" id="fz52ec9xi8q7i" width="300%" x="-1" y="-1"><feGaussianBlur result="blurOut" stdDeviation="2.0"/><feColorMatrix in="blurOut" result="blurOut2" type="matrix" values="0 0 0 0 0 0 0 0 0 0 0 0 0 0 0 0 0 0 .4 0"/><feOffset dx="4.0" dy="4.0" in="blurOut2" result="blurOut3"/><feBlend in="SourceGraphic" in2="blurOut3" mode="normal"/></filter></defs><g><!--MD5=[02e4b9b7573f1156f41e60aa5b4e25a4]
class Company--><rect codeLine="3" fill="#FEFECE" filter="url(#fz52ec9xi8q7i)" height="89.5078" id="Company" style="stroke:#A80036;stroke-width:1.5;" width="101" x="971" y="171"/><ellipse cx="993.2" cy="187" fill="#ADD1B2" rx="11" ry="11" style="stroke:#A80036;stroke-width:1.0;"/><path d="M995.2,183.5 Q995.4031,183 995.6375,182.75 Q995.8719,182.5 996.1375,182.5 Q996.6063,182.5 996.9031,182.7813 Q997.2,183.0625 997.2,183.7188 L997.2,185.2813 Q997.2,185.9375 996.9188,186.2188 Q996.6375,186.5 996.2,186.5 Q995.8094,186.5 995.5594,186.3281 Q995.3094,186.1563 995.2,185.7031 Q995.1531,185.3906 994.9813,185.2188 Q994.6688,184.8906 994.1063,184.7031 Q993.5438,184.5 992.9813,184.5 Q992.2781,184.5 991.6844,184.7813 Q991.1063,185.0625 990.6531,185.6875 Q990.2,186.3125 990.2,187.1719 L990.2,188.0938 Q990.2,189.125 991.0438,189.8125 Q991.8875,190.5 993.3875,190.5 Q994.2781,190.5 994.9031,190.2969 Q995.2625,190.1875 995.6688,189.8281 Q995.9344,189.625 996.075,189.5625 Q996.2156,189.5 996.3875,189.5 Q996.7156,189.5 996.95,189.7656 Q997.2,190.0156 997.2,190.375 Q997.2,190.7188 996.8563,191.125 Q996.3563,191.7188 995.5594,192.0469 Q994.5125,192.5 993.2313,192.5 Q991.7313,192.5 990.5281,191.9063 Q989.5594,191.4375 988.8719,190.4219 Q988.2,189.4063 988.2,188.2031 L988.2,187.1094 Q988.2,185.8594 988.7938,184.7656 Q989.4031,183.6719 990.45,183.0938 Q991.5125,182.5 992.7,182.5 Q993.4188,182.5 994.0438,182.75 Q994.6688,183 995.2,183.5 Z " fill="#000000"/><text fill="#000000" font-family="sans-serif" font-size="12" lengthAdjust="spacing" textLength="53" x="1008.8" y="191.9102">Company</text><line style="stroke:#A80036;stroke-width:1.5;" x1="972" x2="1071" y1="203" y2="203"/><rect fill="none" height="6" style="stroke:#C82930;stroke-width:1.0;" width="6" x="979" y="211"/><text fill="#000000" font-family="sans-serif" font-size="11" lengthAdjust="spacing" textLength="55" x="991" y="218.4189">designation</text><line style="stroke:#A80036;stroke-width:1.5;" x1="972" x2="1071" y1="224.8359" y2="224.8359"/><ellipse cx="982" cy="235.8359" fill="#84BE84" rx="3" ry="3" style="stroke:#038048;stroke-width:1.0;"/><text fill="#000000" font-family="sans-serif" font-size="11" lengthAdjust="spacing" textLength="70" x="991" y="240.2549">getTestStore()</text><ellipse cx="982" cy="249.6719" fill="#84BE84" rx="3" ry="3" style="stroke:#038048;stroke-width:1.0;"/><text fill="#000000" font-family="sans-serif" font-size="11" lengthAdjust="spacing" textLength="75" x="991" y="254.0908">getClientStore()</text><!--MD5=[c83e865530b86129c533921fe8806bee]
class ValidationController--><rect codeLine="9" fill="#FEFECE" filter="url(#fz52ec9xi8q7i)" height="103.3438" id="ValidationController" style="stroke:#A80036;stroke-width:1.5;" width="256" x="633.5" y="7"/><ellipse cx="703.25" cy="23" fill="#ADD1B2" rx="11" ry="11" style="stroke:#A80036;stroke-width:1.0;"/><path d="M705.25,19.5 Q705.4531,19 705.6875,18.75 Q705.9219,18.5 706.1875,18.5 Q706.6563,18.5 706.9531,18.7813 Q707.25,19.0625 707.25,19.7188 L707.25,21.2813 Q707.25,21.9375 706.9688,22.2188 Q706.6875,22.5 706.25,22.5 Q705.8594,22.5 705.6094,22.3281 Q705.3594,22.1563 705.25,21.7031 Q705.2031,21.3906 705.0313,21.2188 Q704.7188,20.8906 704.1563,20.7031 Q703.5938,20.5 703.0313,20.5 Q702.3281,20.5 701.7344,20.7813 Q701.1563,21.0625 700.7031,21.6875 Q700.25,22.3125 700.25,23.1719 L700.25,24.0938 Q700.25,25.125 701.0938,25.8125 Q701.9375,26.5 703.4375,26.5 Q704.3281,26.5 704.9531,26.2969 Q705.3125,26.1875 705.7188,25.8281 Q705.9844,25.625 706.125,25.5625 Q706.2656,25.5 706.4375,25.5 Q706.7656,25.5 707,25.7656 Q707.25,26.0156 707.25,26.375 Q707.25,26.7188 706.9063,27.125 Q706.4063,27.7188 705.6094,28.0469 Q704.5625,28.5 703.2813,28.5 Q701.7813,28.5 700.5781,27.9063 Q699.6094,27.4375 698.9219,26.4219 Q698.25,25.4063 698.25,24.2031 L698.25,23.1094 Q698.25,21.8594 698.8438,20.7656 Q699.4531,19.6719 700.5,19.0938 Q701.5625,18.5 702.75,18.5 Q703.4688,18.5 704.0938,18.75 Q704.7188,19 705.25,19.5 Z " fill="#000000"/><text fill="#000000" font-family="sans-serif" font-size="12" lengthAdjust="spacing" textLength="108" x="723.75" y="27.9102">ValidationController</text><line style="stroke:#A80036;stroke-width:1.5;" x1="634.5" x2="888.5" y1="39" y2="39"/><line style="stroke:#A80036;stroke-width:1.5;" x1="634.5" x2="888.5" y1="47" y2="47"/><ellipse cx="644.5" cy="58" fill="#84BE84" rx="3" ry="3" style="stroke:#038048;stroke-width:1.0;"/><text fill="#000000" font-family="sans-serif" font-size="11" lengthAdjust="spacing" textLength="151" x="653.5" y="62.4189">getListOfUnvalidatedTestsDto()</text><ellipse cx="644.5" cy="71.8359" fill="#84BE84" rx="3" ry="3" style="stroke:#038048;stroke-width:1.0;"/><text fill="#000000" font-family="sans-serif" font-size="11" lengthAdjust="spacing" textLength="230" x="653.5" y="76.2549">createListWithAllTestsAvailableToBeValidated()</text><ellipse cx="644.5" cy="85.6719" fill="#84BE84" rx="3" ry="3" style="stroke:#038048;stroke-width:1.0;"/><text fill="#000000" font-family="sans-serif" font-size="11" lengthAdjust="spacing" textLength="178" x="653.5" y="90.0908">saveTestInListByNhsCode(nhsCode)</text><ellipse cx="644.5" cy="99.5078" fill="#84BE84" rx="3" ry="3" style="stroke:#038048;stroke-width:1.0;"/><text fill="#000000" font-family="sans-serif" font-size="11" lengthAdjust="spacing" textLength="214" x="653.5" y="103.9268">validateTestsInsideTestsToBeValidatedList()</text><!--MD5=[df38be88ccee13e832d6fafd6288a4ca]
class Test--><rect codeLine="15" fill="#FEFECE" filter="url(#fz52ec9xi8q7i)" height="241.7031" id="Test" style="stroke:#A80036;stroke-width:1.5;" width="106" x="934.5" y="912"/><ellipse cx="972" cy="928" fill="#ADD1B2" rx="11" ry="11" style="stroke:#A80036;stroke-width:1.0;"/><path d="M974,924.5 Q974.2031,924 974.4375,923.75 Q974.6719,923.5 974.9375,923.5 Q975.4063,923.5 975.7031,923.7813 Q976,924.0625 976,924.7188 L976,926.2813 Q976,926.9375 975.7188,927.2188 Q975.4375,927.5 975,927.5 Q974.6094,927.5 974.3594,927.3281 Q974.1094,927.1563 974,926.7031 Q973.9531,926.3906 973.7813,926.2188 Q973.4688,925.8906 972.9063,925.7031 Q972.3438,925.5 971.7813,925.5 Q971.0781,925.5 970.4844,925.7813 Q969.9063,926.0625 969.4531,926.6875 Q969,927.3125 969,928.1719 L969,929.0938 Q969,930.125 969.8438,930.8125 Q970.6875,931.5 972.1875,931.5 Q973.0781,931.5 973.7031,931.2969 Q974.0625,931.1875 974.4688,930.8281 Q974.7344,930.625 974.875,930.5625 Q975.0156,930.5 975.1875,930.5 Q975.5156,930.5 975.75,930.7656 Q976,931.0156 976,931.375 Q976,931.7188 975.6563,932.125 Q975.1563,932.7188 974.3594,933.0469 Q973.3125,933.5 972.0313,933.5 Q970.5313,933.5 969.3281,932.9063 Q968.3594,932.4375 967.6719,931.4219 Q967,930.4063 967,929.2031 L967,928.1094 Q967,926.8594 967.5938,925.7656 Q968.2031,924.6719 969.25,924.0938 Q970.3125,923.5 971.5,923.5 Q972.2188,923.5 972.8438,923.75 Q973.4688,924 974,924.5 Z " fill="#000000"/><text fill="#000000" font-family="sans-serif" font-size="12" lengthAdjust="spacing" textLength="24" x="991" y="932.9102">Test</text><line style="stroke:#A80036;stroke-width:1.5;" x1="935.5" x2="1039.5" y1="944" y2="944"/><rect fill="none" height="6" style="stroke:#C82930;stroke-width:1.0;" width="6" x="942.5" y="952"/><text fill="#000000" font-family="sans-serif" font-size="11" lengthAdjust="spacing" textLength="24" x="954.5" y="959.4189">code</text><rect fill="none" height="6" style="stroke:#C82930;stroke-width:1.0;" width="6" x="942.5" y="965.8359"/><text fill="#000000" font-family="sans-serif" font-size="11" lengthAdjust="spacing" textLength="43" x="954.5" y="973.2549">nhsCode</text><rect fill="none" height="6" style="stroke:#C82930;stroke-width:1.0;" width="6" x="942.5" y="979.6719"/><text fill="#000000" font-family="sans-serif" font-size="11" lengthAdjust="spacing" textLength="48" x="954.5" y="987.0908">createdAt</text><rect fill="none" height="6" style="stroke:#C82930;stroke-width:1.0;" width="6" x="942.5" y="993.5078"/><text fill="#000000" font-family="sans-serif" font-size="11" lengthAdjust="spacing" textLength="49" x="954.5" y="1000.9268">resultDate</text><rect fill="none" height="6" style="stroke:#C82930;stroke-width:1.0;" width="6" x="942.5" y="1007.3438"/><text fill="#000000" font-family="sans-serif" font-size="11" lengthAdjust="spacing" textLength="56" x="954.5" y="1014.7627">sampleDate</text><rect fill="none" height="6" style="stroke:#C82930;stroke-width:1.0;" width="6" x="942.5" y="1021.1797"/><text fill="#000000" font-family="sans-serif" font-size="11" lengthAdjust="spacing" textLength="51" x="954.5" y="1028.5986">reportDate</text><line style="stroke:#A80036;stroke-width:1.5;" x1="935.5" x2="1039.5" y1="1035.0156" y2="1035.0156"/><ellipse cx="945.5" cy="1046.0156" fill="#84BE84" rx="3" ry="3" style="stroke:#038048;stroke-width:1.0;"/><text fill="#000000" font-family="sans-serif" font-size="11" lengthAdjust="spacing" textLength="67" x="954.5" y="1050.4346">getNhsCode()</text><ellipse cx="945.5" cy="1059.8516" fill="#84BE84" rx="3" ry="3" style="stroke:#038048;stroke-width:1.0;"/><text fill="#000000" font-family="sans-serif" font-size="11" lengthAdjust="spacing" textLength="58" x="954.5" y="1064.2705">hasReport()</text><ellipse cx="945.5" cy="1073.6875" fill="#84BE84" rx="3" ry="3" style="stroke:#038048;stroke-width:1.0;"/><text fill="#000000" font-family="sans-serif" font-size="11" lengthAdjust="spacing" textLength="73" x="954.5" y="1078.1064">hasValidation()</text><ellipse cx="945.5" cy="1087.5234" fill="#84BE84" rx="3" ry="3" style="stroke:#038048;stroke-width:1.0;"/><text fill="#000000" font-family="sans-serif" font-size="11" lengthAdjust="spacing" textLength="80" x="954.5" y="1091.9424">getSampleDate()</text><ellipse cx="945.5" cy="1101.3594" fill="#84BE84" rx="3" ry="3" style="stroke:#038048;stroke-width:1.0;"/><text fill="#000000" font-family="sans-serif" font-size="11" lengthAdjust="spacing" textLength="72" x="954.5" y="1105.7783">getCreatedAt()</text><ellipse cx="945.5" cy="1115.1953" fill="#84BE84" rx="3" ry="3" style="stroke:#038048;stroke-width:1.0;"/><text fill="#000000" font-family="sans-serif" font-size="11" lengthAdjust="spacing" textLength="75" x="954.5" y="1119.6143">getResultDate()</text><ellipse cx="945.5" cy="1129.0313" fill="#84BE84" rx="3" ry="3" style="stroke:#038048;stroke-width:1.0;"/><text fill="#000000" font-family="sans-serif" font-size="11" lengthAdjust="spacing" textLength="77" x="954.5" y="1133.4502">getReportDate()</text><ellipse cx="945.5" cy="1142.8672" fill="#84BE84" rx="3" ry="3" style="stroke:#038048;stroke-width:1.0;"/><text fill="#000000" font-family="sans-serif" font-size="11" lengthAdjust="spacing" textLength="66" x="954.5" y="1147.2861">validateTest()</text><!--MD5=[0f6f7964b844a64b0496af0dda7914bd]
class TestStore--><rect codeLine="31" fill="#FEFECE" filter="url(#fz52ec9xi8q7i)" height="75.6719" id="TestStore" style="stroke:#A80036;stroke-width:1.5;" width="170" x="973.5" y="445.5"/><ellipse cx="1027.75" cy="461.5" fill="#ADD1B2" rx="11" ry="11" style="stroke:#A80036;stroke-width:1.0;"/><path d="M1029.75,458 Q1029.9531,457.5 1030.1875,457.25 Q1030.4219,457 1030.6875,457 Q1031.1563,457 1031.4531,457.2813 Q1031.75,457.5625 1031.75,458.2188 L1031.75,459.7813 Q1031.75,460.4375 1031.4688,460.7188 Q1031.1875,461 1030.75,461 Q1030.3594,461 1030.1094,460.8281 Q1029.8594,460.6563 1029.75,460.2031 Q1029.7031,459.8906 1029.5313,459.7188 Q1029.2188,459.3906 1028.6563,459.2031 Q1028.0938,459 1027.5313,459 Q1026.8281,459 1026.2344,459.2813 Q1025.6563,459.5625 1025.2031,460.1875 Q1024.75,460.8125 1024.75,461.6719 L1024.75,462.5938 Q1024.75,463.625 1025.5938,464.3125 Q1026.4375,465 1027.9375,465 Q1028.8281,465 1029.4531,464.7969 Q1029.8125,464.6875 1030.2188,464.3281 Q1030.4844,464.125 1030.625,464.0625 Q1030.7656,464 1030.9375,464 Q1031.2656,464 1031.5,464.2656 Q1031.75,464.5156 1031.75,464.875 Q1031.75,465.2188 1031.4063,465.625 Q1030.9063,466.2188 1030.1094,466.5469 Q1029.0625,467 1027.7813,467 Q1026.2813,467 1025.0781,466.4063 Q1024.1094,465.9375 1023.4219,464.9219 Q1022.75,463.9063 1022.75,462.7031 L1022.75,461.6094 Q1022.75,460.3594 1023.3438,459.2656 Q1023.9531,458.1719 1025,457.5938 Q1026.0625,457 1027.25,457 Q1027.9688,457 1028.5938,457.25 Q1029.2188,457.5 1029.75,458 Z " fill="#000000"/><text fill="#000000" font-family="sans-serif" font-size="12" lengthAdjust="spacing" textLength="53" x="1048.25" y="466.4102">TestStore</text><line style="stroke:#A80036;stroke-width:1.5;" x1="974.5" x2="1142.5" y1="477.5" y2="477.5"/><line style="stroke:#A80036;stroke-width:1.5;" x1="974.5" x2="1142.5" y1="485.5" y2="485.5"/><ellipse cx="984.5" cy="496.5" fill="#84BE84" rx="3" ry="3" style="stroke:#038048;stroke-width:1.0;"/><text fill="#000000" font-family="sans-serif" font-size="11" lengthAdjust="spacing" textLength="144" x="993.5" y="500.9189">getTestByNhsCode(nhsCode)</text><ellipse cx="984.5" cy="510.3359" fill="#84BE84" rx="3" ry="3" style="stroke:#038048;stroke-width:1.0;"/><text fill="#000000" font-family="sans-serif" font-size="11" lengthAdjust="spacing" textLength="120" x="993.5" y="514.7549">getTestsWithReportList()</text><!--MD5=[144698ec4d0188f6929a3b58a3eeb1f6]
class TestMapper--><rect codeLine="35" fill="#FEFECE" filter="url(#fz52ec9xi8q7i)" height="75.6719" id="TestMapper" style="stroke:#A80036;stroke-width:1.5;" width="196" x="739.5" y="178"/><ellipse cx="800.75" cy="194" fill="#ADD1B2" rx="11" ry="11" style="stroke:#A80036;stroke-width:1.0;"/><path d="M802.75,190.5 Q802.9531,190 803.1875,189.75 Q803.4219,189.5 803.6875,189.5 Q804.1563,189.5 804.4531,189.7813 Q804.75,190.0625 804.75,190.7188 L804.75,192.2813 Q804.75,192.9375 804.4688,193.2188 Q804.1875,193.5 803.75,193.5 Q803.3594,193.5 803.1094,193.3281 Q802.8594,193.1563 802.75,192.7031 Q802.7031,192.3906 802.5313,192.2188 Q802.2188,191.8906 801.6563,191.7031 Q801.0938,191.5 800.5313,191.5 Q799.8281,191.5 799.2344,191.7813 Q798.6563,192.0625 798.2031,192.6875 Q797.75,193.3125 797.75,194.1719 L797.75,195.0938 Q797.75,196.125 798.5938,196.8125 Q799.4375,197.5 800.9375,197.5 Q801.8281,197.5 802.4531,197.2969 Q802.8125,197.1875 803.2188,196.8281 Q803.4844,196.625 803.625,196.5625 Q803.7656,196.5 803.9375,196.5 Q804.2656,196.5 804.5,196.7656 Q804.75,197.0156 804.75,197.375 Q804.75,197.7188 804.4063,198.125 Q803.9063,198.7188 803.1094,199.0469 Q802.0625,199.5 800.7813,199.5 Q799.2813,199.5 798.0781,198.9063 Q797.1094,198.4375 796.4219,197.4219 Q795.75,196.4063 795.75,195.2031 L795.75,194.1094 Q795.75,192.8594 796.3438,191.7656 Q796.9531,190.6719 798,190.0938 Q799.0625,189.5 800.25,189.5 Q800.9688,189.5 801.5938,189.75 Q802.2188,190 802.75,190.5 Z " fill="#000000"/><text fill="#000000" font-family="sans-serif" font-size="12" lengthAdjust="spacing" textLength="65" x="821.25" y="198.9102">TestMapper</text><line style="stroke:#A80036;stroke-width:1.5;" x1="740.5" x2="934.5" y1="210" y2="210"/><line style="stroke:#A80036;stroke-width:1.5;" x1="740.5" x2="934.5" y1="218" y2="218"/><ellipse cx="750.5" cy="229" fill="#84BE84" rx="3" ry="3" style="stroke:#038048;stroke-width:1.0;"/><text fill="#000000" font-family="sans-serif" font-size="11" lengthAdjust="spacing" textLength="94" x="759.5" y="233.4189">toDtoWithDate(test)</text><ellipse cx="750.5" cy="242.8359" fill="#84BE84" rx="3" ry="3" style="stroke:#038048;stroke-width:1.0;"/><text fill="#000000" font-family="sans-serif" font-size="11" lengthAdjust="spacing" textLength="170" x="759.5" y="247.2549">toDtoWithDate(testsWithReportList)</text><!--MD5=[1c38f6084f2098752e2974895ca67f4c]
class TestDto--><rect codeLine="39" fill="#FEFECE" filter="url(#fz52ec9xi8q7i)" height="144.8516" id="TestDto" style="stroke:#A80036;stroke-width:1.5;" width="357" x="211" y="411"/><ellipse cx="363.75" cy="427" fill="#ADD1B2" rx="11" ry="11" style="stroke:#A80036;stroke-width:1.0;"/><path d="M365.75,423.5 Q365.9531,423 366.1875,422.75 Q366.4219,422.5 366.6875,422.5 Q367.1563,422.5 367.4531,422.7813 Q367.75,423.0625 367.75,423.7188 L367.75,425.2813 Q367.75,425.9375 367.4688,426.2188 Q367.1875,426.5 366.75,426.5 Q366.3594,426.5 366.1094,426.3281 Q365.8594,426.1563 365.75,425.7031 Q365.7031,425.3906 365.5313,425.2188 Q365.2188,424.8906 364.6563,424.7031 Q364.0938,424.5 363.5313,424.5 Q362.8281,424.5 362.2344,424.7813 Q361.6563,425.0625 361.2031,425.6875 Q360.75,426.3125 360.75,427.1719 L360.75,428.0938 Q360.75,429.125 361.5938,429.8125 Q362.4375,430.5 363.9375,430.5 Q364.8281,430.5 365.4531,430.2969 Q365.8125,430.1875 366.2188,429.8281 Q366.4844,429.625 366.625,429.5625 Q366.7656,429.5 366.9375,429.5 Q367.2656,429.5 367.5,429.7656 Q367.75,430.0156 367.75,430.375 Q367.75,430.7188 367.4063,431.125 Q366.9063,431.7188 366.1094,432.0469 Q365.0625,432.5 363.7813,432.5 Q362.2813,432.5 361.0781,431.9063 Q360.1094,431.4375 359.4219,430.4219 Q358.75,429.4063 358.75,428.2031 L358.75,427.1094 Q358.75,425.8594 359.3438,424.7656 Q359.9531,423.6719 361,423.0938 Q362.0625,422.5 363.25,422.5 Q363.9688,422.5 364.5938,422.75 Q365.2188,423 365.75,423.5 Z " fill="#000000"/><text fill="#000000" font-family="sans-serif" font-size="12" lengthAdjust="spacing" textLength="43" x="384.25" y="431.9102">TestDto</text><line style="stroke:#A80036;stroke-width:1.5;" x1="212" x2="567" y1="443" y2="443"/><rect fill="none" height="6" style="stroke:#C82930;stroke-width:1.0;" width="6" x="219" y="451"/><text fill="#000000" font-family="sans-serif" font-size="11" lengthAdjust="spacing" textLength="24" x="231" y="458.4189">code</text><rect fill="none" height="6" style="stroke:#C82930;stroke-width:1.0;" width="6" x="219" y="464.8359"/><text fill="#000000" font-family="sans-serif" font-size="11" lengthAdjust="spacing" textLength="43" x="231" y="472.2549">nhsCode</text><rect fill="none" height="6" style="stroke:#C82930;stroke-width:1.0;" width="6" x="219" y="478.6719"/><text fill="#000000" font-family="sans-serif" font-size="11" lengthAdjust="spacing" textLength="48" x="231" y="486.0908">createdAt</text><rect fill="none" height="6" style="stroke:#C82930;stroke-width:1.0;" width="6" x="219" y="492.5078"/><text fill="#000000" font-family="sans-serif" font-size="11" lengthAdjust="spacing" textLength="49" x="231" y="499.9268">resultDate</text><rect fill="none" height="6" style="stroke:#C82930;stroke-width:1.0;" width="6" x="219" y="506.3438"/><text fill="#000000" font-family="sans-serif" font-size="11" lengthAdjust="spacing" textLength="56" x="231" y="513.7627">sampleDate</text><rect fill="none" height="6" style="stroke:#C82930;stroke-width:1.0;" width="6" x="219" y="520.1797"/><text fill="#000000" font-family="sans-serif" font-size="11" lengthAdjust="spacing" textLength="51" x="231" y="527.5986">reportDate</text><line style="stroke:#A80036;stroke-width:1.5;" x1="212" x2="567" y1="534.0156" y2="534.0156"/><ellipse cx="222" cy="545.0156" fill="#84BE84" rx="3" ry="3" style="stroke:#038048;stroke-width:1.0;"/><text fill="#000000" font-family="sans-serif" font-size="11" lengthAdjust="spacing" textLength="331" x="231" y="549.4346">TestDto(nhsCode,createdAt,sampleDate,resultDate,reportCreatedAt)</text><!--MD5=[f8d2b21678b6ea5d90e779ee6463ca37]
class Utils--><rect codeLine="48" fill="#FEFECE" filter="url(#fz52ec9xi8q7i)" height="61.8359" id="Utils" style="stroke:#A80036;stroke-width:1.5;" width="91" x="7" y="1369"/><ellipse cx="37.3" cy="1385" fill="#ADD1B2" rx="11" ry="11" style="stroke:#A80036;stroke-width:1.0;"/><path d="M39.3,1381.5 Q39.5031,1381 39.7375,1380.75 Q39.9719,1380.5 40.2375,1380.5 Q40.7063,1380.5 41.0031,1380.7813 Q41.3,1381.0625 41.3,1381.7188 L41.3,1383.2813 Q41.3,1383.9375 41.0188,1384.2188 Q40.7375,1384.5 40.3,1384.5 Q39.9094,1384.5 39.6594,1384.3281 Q39.4094,1384.1563 39.3,1383.7031 Q39.2531,1383.3906 39.0813,1383.2188 Q38.7688,1382.8906 38.2063,1382.7031 Q37.6438,1382.5 37.0813,1382.5 Q36.3781,1382.5 35.7844,1382.7813 Q35.2063,1383.0625 34.7531,1383.6875 Q34.3,1384.3125 34.3,1385.1719 L34.3,1386.0938 Q34.3,1387.125 35.1438,1387.8125 Q35.9875,1388.5 37.4875,1388.5 Q38.3781,1388.5 39.0031,1388.2969 Q39.3625,1388.1875 39.7688,1387.8281 Q40.0344,1387.625 40.175,1387.5625 Q40.3156,1387.5 40.4875,1387.5 Q40.8156,1387.5 41.05,1387.7656 Q41.3,1388.0156 41.3,1388.375 Q41.3,1388.7188 40.9563,1389.125 Q40.4563,1389.7188 39.6594,1390.0469 Q38.6125,1390.5 37.3313,1390.5 Q35.8313,1390.5 34.6281,1389.9063 Q33.6594,1389.4375 32.9719,1388.4219 Q32.3,1387.4063 32.3,1386.2031 L32.3,1385.1094 Q32.3,1383.8594 32.8938,1382.7656 Q33.5031,1381.6719 34.55,1381.0938 Q35.6125,1380.5 36.8,1380.5 Q37.5188,1380.5 38.1438,1380.75 Q38.7688,1381 39.3,1381.5 Z " fill="#000000"/><text fill="#000000" font-family="sans-serif" font-size="12" lengthAdjust="spacing" textLength="25" x="54.7" y="1389.9102">Utils</text><line style="stroke:#A80036;stroke-width:1.5;" x1="8" x2="97" y1="1401" y2="1401"/><line style="stroke:#A80036;stroke-width:1.5;" x1="8" x2="97" y1="1409" y2="1409"/><ellipse cx="18" cy="1420" fill="#84BE84" rx="3" ry="3" style="stroke:#038048;stroke-width:1.0;"/><text fill="#000000" font-family="sans-serif" font-size="11" lengthAdjust="spacing" textLength="65" x="27" y="1424.4189">currentDate()</text><!--MD5=[ed6624c6556d5e7b1bd23032162d20b7]
class Client--><rect codeLine="51" fill="#FEFECE" filter="url(#fz52ec9xi8q7i)" height="200.1953" id="Client" style="stroke:#A80036;stroke-width:1.5;" width="138" x="457.5" y="634"/><ellipse cx="506.25" cy="650" fill="#ADD1B2" rx="11" ry="11" style="stroke:#A80036;stroke-width:1.0;"/><path d="M508.25,646.5 Q508.4531,646 508.6875,645.75 Q508.9219,645.5 509.1875,645.5 Q509.6563,645.5 509.9531,645.7813 Q510.25,646.0625 510.25,646.7188 L510.25,648.2813 Q510.25,648.9375 509.9688,649.2188 Q509.6875,649.5 509.25,649.5 Q508.8594,649.5 508.6094,649.3281 Q508.3594,649.1563 508.25,648.7031 Q508.2031,648.3906 508.0313,648.2188 Q507.7188,647.8906 507.1563,647.7031 Q506.5938,647.5 506.0313,647.5 Q505.3281,647.5 504.7344,647.7813 Q504.1563,648.0625 503.7031,648.6875 Q503.25,649.3125 503.25,650.1719 L503.25,651.0938 Q503.25,652.125 504.0938,652.8125 Q504.9375,653.5 506.4375,653.5 Q507.3281,653.5 507.9531,653.2969 Q508.3125,653.1875 508.7188,652.8281 Q508.9844,652.625 509.125,652.5625 Q509.2656,652.5 509.4375,652.5 Q509.7656,652.5 510,652.7656 Q510.25,653.0156 510.25,653.375 Q510.25,653.7188 509.9063,654.125 Q509.4063,654.7188 508.6094,655.0469 Q507.5625,655.5 506.2813,655.5 Q504.7813,655.5 503.5781,654.9063 Q502.6094,654.4375 501.9219,653.4219 Q501.25,652.4063 501.25,651.2031 L501.25,650.1094 Q501.25,648.8594 501.8438,647.7656 Q502.4531,646.6719 503.5,646.0938 Q504.5625,645.5 505.75,645.5 Q506.4688,645.5 507.0938,645.75 Q507.7188,646 508.25,646.5 Z " fill="#000000"/><text fill="#000000" font-family="sans-serif" font-size="12" lengthAdjust="spacing" textLength="32" x="526.75" y="654.9102">Client</text><line style="stroke:#A80036;stroke-width:1.5;" x1="458.5" x2="594.5" y1="666" y2="666"/><rect fill="none" height="6" style="stroke:#C82930;stroke-width:1.0;" width="6" x="465.5" y="674"/><text fill="#000000" font-family="sans-serif" font-size="11" lengthAdjust="spacing" textLength="26" x="477.5" y="681.4189">name</text><rect fill="none" height="6" style="stroke:#C82930;stroke-width:1.0;" width="6" x="465.5" y="687.8359"/><text fill="#000000" font-family="sans-serif" font-size="11" lengthAdjust="spacing" textLength="67" x="477.5" y="695.2549">phoneNumber</text><rect fill="none" height="6" style="stroke:#C82930;stroke-width:1.0;" width="6" x="465.5" y="701.6719"/><text fill="#000000" font-family="sans-serif" font-size="11" lengthAdjust="spacing" textLength="112" x="477.5" y="709.0908">taxIdentificationNumber</text><rect fill="none" height="6" style="stroke:#C82930;stroke-width:1.0;" width="6" x="465.5" y="715.5078"/><text fill="#000000" font-family="sans-serif" font-size="11" lengthAdjust="spacing" textLength="24" x="477.5" y="722.9268">email</text><rect fill="none" height="6" style="stroke:#C82930;stroke-width:1.0;" width="6" x="465.5" y="729.3438"/><text fill="#000000" font-family="sans-serif" font-size="11" lengthAdjust="spacing" textLength="43" x="477.5" y="736.7627">birthDate</text><rect fill="none" height="6" style="stroke:#C82930;stroke-width:1.0;" width="6" x="465.5" y="743.1797"/><text fill="#000000" font-family="sans-serif" font-size="11" lengthAdjust="spacing" textLength="34" x="477.5" y="750.5986">gender</text><rect fill="none" height="6" style="stroke:#C82930;stroke-width:1.0;" width="6" x="465.5" y="757.0156"/><text fill="#000000" font-family="sans-serif" font-size="11" lengthAdjust="spacing" textLength="26" x="477.5" y="764.4346">nhsId</text><rect fill="none" height="6" style="stroke:#C82930;stroke-width:1.0;" width="6" x="465.5" y="770.8516"/><text fill="#000000" font-family="sans-serif" font-size="11" lengthAdjust="spacing" textLength="91" x="477.5" y="778.2705">citizenCardNumber</text><rect fill="none" height="6" style="stroke:#C82930;stroke-width:1.0;" width="6" x="465.5" y="784.6875"/><text fill="#000000" font-family="sans-serif" font-size="11" lengthAdjust="spacing" textLength="50" x="477.5" y="792.1064">password</text><line style="stroke:#A80036;stroke-width:1.5;" x1="458.5" x2="594.5" y1="798.5234" y2="798.5234"/><ellipse cx="468.5" cy="809.5234" fill="#84BE84" rx="3" ry="3" style="stroke:#038048;stroke-width:1.0;"/><text fill="#000000" font-family="sans-serif" font-size="11" lengthAdjust="spacing" textLength="47" x="477.5" y="813.9424">getEmail()</text><ellipse cx="468.5" cy="823.3594" fill="#84BE84" rx="3" ry="3" style="stroke:#038048;stroke-width:1.0;"/><text fill="#000000" font-family="sans-serif" font-size="11" lengthAdjust="spacing" textLength="50" x="477.5" y="827.7783">getName()</text><!--MD5=[55cb992be19579b505cea3c5691093cb]
class ClientStore--><rect codeLine="64" fill="#FEFECE" filter="url(#fz52ec9xi8q7i)" height="75.6719" id="ClientStore" style="stroke:#A80036;stroke-width:1.5;" width="128" x="682.5" y="445.5"/><ellipse cx="713.25" cy="461.5" fill="#ADD1B2" rx="11" ry="11" style="stroke:#A80036;stroke-width:1.0;"/><path d="M715.25,458 Q715.4531,457.5 715.6875,457.25 Q715.9219,457 716.1875,457 Q716.6563,457 716.9531,457.2813 Q717.25,457.5625 717.25,458.2188 L717.25,459.7813 Q717.25,460.4375 716.9688,460.7188 Q716.6875,461 716.25,461 Q715.8594,461 715.6094,460.8281 Q715.3594,460.6563 715.25,460.2031 Q715.2031,459.8906 715.0313,459.7188 Q714.7188,459.3906 714.1563,459.2031 Q713.5938,459 713.0313,459 Q712.3281,459 711.7344,459.2813 Q711.1563,459.5625 710.7031,460.1875 Q710.25,460.8125 710.25,461.6719 L710.25,462.5938 Q710.25,463.625 711.0938,464.3125 Q711.9375,465 713.4375,465 Q714.3281,465 714.9531,464.7969 Q715.3125,464.6875 715.7188,464.3281 Q715.9844,464.125 716.125,464.0625 Q716.2656,464 716.4375,464 Q716.7656,464 717,464.2656 Q717.25,464.5156 717.25,464.875 Q717.25,465.2188 716.9063,465.625 Q716.4063,466.2188 715.6094,466.5469 Q714.5625,467 713.2813,467 Q711.7813,467 710.5781,466.4063 Q709.6094,465.9375 708.9219,464.9219 Q708.25,463.9063 708.25,462.7031 L708.25,461.6094 Q708.25,460.3594 708.8438,459.2656 Q709.4531,458.1719 710.5,457.5938 Q711.5625,457 712.75,457 Q713.4688,457 714.0938,457.25 Q714.7188,457.5 715.25,458 Z " fill="#000000"/><text fill="#000000" font-family="sans-serif" font-size="12" lengthAdjust="spacing" textLength="61" x="730.75" y="466.4102">ClientStore</text><line style="stroke:#A80036;stroke-width:1.5;" x1="683.5" x2="809.5" y1="477.5" y2="477.5"/><line style="stroke:#A80036;stroke-width:1.5;" x1="683.5" x2="809.5" y1="485.5" y2="485.5"/><ellipse cx="693.5" cy="496.5" fill="#84BE84" rx="3" ry="3" style="stroke:#038048;stroke-width:1.0;"/><text fill="#000000" font-family="sans-serif" font-size="11" lengthAdjust="spacing" textLength="101" x="702.5" y="500.9189">getClientByTest(test)</text><ellipse cx="693.5" cy="510.3359" fill="#84BE84" rx="3" ry="3" style="stroke:#038048;stroke-width:1.0;"/><text fill="#000000" font-family="sans-serif" font-size="11" lengthAdjust="spacing" textLength="102" x="702.5" y="514.7549">sendEmail(client,test)</text><!--MD5=[a274005f5d4aa67681b23215c7c094eb]
class EmailSMS--><rect codeLine="68" fill="#FEFECE" filter="url(#fz52ec9xi8q7i)" height="61.8359" id="EmailSMS" style="stroke:#A80036;stroke-width:1.5;" width="234" x="630.5" y="703"/><ellipse cx="714.75" cy="719" fill="#ADD1B2" rx="11" ry="11" style="stroke:#A80036;stroke-width:1.0;"/><path d="M716.75,715.5 Q716.9531,715 717.1875,714.75 Q717.4219,714.5 717.6875,714.5 Q718.1563,714.5 718.4531,714.7813 Q718.75,715.0625 718.75,715.7188 L718.75,717.2813 Q718.75,717.9375 718.4688,718.2188 Q718.1875,718.5 717.75,718.5 Q717.3594,718.5 717.1094,718.3281 Q716.8594,718.1563 716.75,717.7031 Q716.7031,717.3906 716.5313,717.2188 Q716.2188,716.8906 715.6563,716.7031 Q715.0938,716.5 714.5313,716.5 Q713.8281,716.5 713.2344,716.7813 Q712.6563,717.0625 712.2031,717.6875 Q711.75,718.3125 711.75,719.1719 L711.75,720.0938 Q711.75,721.125 712.5938,721.8125 Q713.4375,722.5 714.9375,722.5 Q715.8281,722.5 716.4531,722.2969 Q716.8125,722.1875 717.2188,721.8281 Q717.4844,721.625 717.625,721.5625 Q717.7656,721.5 717.9375,721.5 Q718.2656,721.5 718.5,721.7656 Q718.75,722.0156 718.75,722.375 Q718.75,722.7188 718.4063,723.125 Q717.9063,723.7188 717.1094,724.0469 Q716.0625,724.5 714.7813,724.5 Q713.2813,724.5 712.0781,723.9063 Q711.1094,723.4375 710.4219,722.4219 Q709.75,721.4063 709.75,720.2031 L709.75,719.1094 Q709.75,717.8594 710.3438,716.7656 Q710.9531,715.6719 712,715.0938 Q713.0625,714.5 714.25,714.5 Q714.9688,714.5 715.5938,714.75 Q716.2188,715 716.75,715.5 Z " fill="#000000"/><text fill="#000000" font-family="sans-serif" font-size="12" lengthAdjust="spacing" textLength="57" x="735.25" y="723.9102">EmailSMS</text><line style="stroke:#A80036;stroke-width:1.5;" x1="631.5" x2="863.5" y1="735" y2="735"/><line style="stroke:#A80036;stroke-width:1.5;" x1="631.5" x2="863.5" y1="743" y2="743"/><ellipse cx="641.5" cy="754" fill="#84BE84" rx="3" ry="3" style="stroke:#038048;stroke-width:1.0;"/><text fill="#000000" font-family="sans-serif" font-size="11" lengthAdjust="spacing" textLength="208" x="650.5" y="758.4189">sendTestNotification(email,name, nhsCode)</text><!--MD5=[c18fe2235af84d27f50ab7ae87a88372]
class TestValidation--><rect codeLine="71" fill="#FEFECE" filter="url(#fz52ec9xi8q7i)" height="75.6719" id="TestValidation" style="stroke:#A80036;stroke-width:1.5;" width="110" x="102.5" y="1232"/><ellipse cx="117.5" cy="1248" fill="#ADD1B2" rx="11" ry="11" style="stroke:#A80036;stroke-width:1.0;"/><path d="M119.5,1244.5 Q119.7031,1244 119.9375,1243.75 Q120.1719,1243.5 120.4375,1243.5 Q120.9063,1243.5 121.2031,1243.7813 Q121.5,1244.0625 121.5,1244.7188 L121.5,1246.2813 Q121.5,1246.9375 121.2188,1247.2188 Q120.9375,1247.5 120.5,1247.5 Q120.1094,1247.5 119.8594,1247.3281 Q119.6094,1247.1563 119.5,1246.7031 Q119.4531,1246.3906 119.2813,1246.2188 Q118.9688,1245.8906 118.4063,1245.7031 Q117.8438,1245.5 117.2813,1245.5 Q116.5781,1245.5 115.9844,1245.7813 Q115.4063,1246.0625 114.9531,1246.6875 Q114.5,1247.3125 114.5,1248.1719 L114.5,1249.0938 Q114.5,1250.125 115.3438,1250.8125 Q116.1875,1251.5 117.6875,1251.5 Q118.5781,1251.5 119.2031,1251.2969 Q119.5625,1251.1875 119.9688,1250.8281 Q120.2344,1250.625 120.375,1250.5625 Q120.5156,1250.5 120.6875,1250.5 Q121.0156,1250.5 121.25,1250.7656 Q121.5,1251.0156 121.5,1251.375 Q121.5,1251.7188 121.1563,1252.125 Q120.6563,1252.7188 119.8594,1253.0469 Q118.8125,1253.5 117.5313,1253.5 Q116.0313,1253.5 114.8281,1252.9063 Q113.8594,1252.4375 113.1719,1251.4219 Q112.5,1250.4063 112.5,1249.2031 L112.5,1248.1094 Q112.5,1246.8594 113.0938,1245.7656 Q113.7031,1244.6719 114.75,1244.0938 Q115.8125,1243.5 117,1243.5 Q117.7188,1243.5 118.3438,1243.75 Q118.9688,1244 119.5,1244.5 Z " fill="#000000"/><text fill="#000000" font-family="sans-serif" font-size="12" lengthAdjust="spacing" textLength="78" x="131.5" y="1252.9102">TestValidation</text><line style="stroke:#A80036;stroke-width:1.5;" x1="103.5" x2="211.5" y1="1264" y2="1264"/><rect fill="none" height="6" style="stroke:#C82930;stroke-width:1.0;" width="6" x="110.5" y="1272"/><text fill="#000000" font-family="sans-serif" font-size="11" lengthAdjust="spacing" textLength="54" x="122.5" y="1279.4189">validatedAt</text><line style="stroke:#A80036;stroke-width:1.5;" x1="103.5" x2="211.5" y1="1285.8359" y2="1285.8359"/><ellipse cx="113.5" cy="1296.8359" fill="#84BE84" rx="3" ry="3" style="stroke:#038048;stroke-width:1.0;"/><text fill="#000000" font-family="sans-serif" font-size="11" lengthAdjust="spacing" textLength="76" x="122.5" y="1301.2549">TestValidation()</text><!--MD5=[29caffde0836da01da56152fcf2ad6e1]
class TestToBeValidatedList--><rect codeLine="75" fill="#FEFECE" filter="url(#fz52ec9xi8q7i)" height="89.5078" id="TestToBeValidatedList" style="stroke:#A80036;stroke-width:1.5;" width="344" x="1147.5" y="291"/><ellipse cx="1253.25" cy="307" fill="#ADD1B2" rx="11" ry="11" style="stroke:#A80036;stroke-width:1.0;"/><path d="M1255.25,303.5 Q1255.4531,303 1255.6875,302.75 Q1255.9219,302.5 1256.1875,302.5 Q1256.6563,302.5 1256.9531,302.7813 Q1257.25,303.0625 1257.25,303.7188 L1257.25,305.2813 Q1257.25,305.9375 1256.9688,306.2188 Q1256.6875,306.5 1256.25,306.5 Q1255.8594,306.5 1255.6094,306.3281 Q1255.3594,306.1563 1255.25,305.7031 Q1255.2031,305.3906 1255.0313,305.2188 Q1254.7188,304.8906 1254.1563,304.7031 Q1253.5938,304.5 1253.0313,304.5 Q1252.3281,304.5 1251.7344,304.7813 Q1251.1563,305.0625 1250.7031,305.6875 Q1250.25,306.3125 1250.25,307.1719 L1250.25,308.0938 Q1250.25,309.125 1251.0938,309.8125 Q1251.9375,310.5 1253.4375,310.5 Q1254.3281,310.5 1254.9531,310.2969 Q1255.3125,310.1875 1255.7188,309.8281 Q1255.9844,309.625 1256.125,309.5625 Q1256.2656,309.5 1256.4375,309.5 Q1256.7656,309.5 1257,309.7656 Q1257.25,310.0156 1257.25,310.375 Q1257.25,310.7188 1256.9063,311.125 Q1256.4063,311.7188 1255.6094,312.0469 Q1254.5625,312.5 1253.2813,312.5 Q1251.7813,312.5 1250.5781,311.9063 Q1249.6094,311.4375 1248.9219,310.4219 Q1248.25,309.4063 1248.25,308.2031 L1248.25,307.1094 Q1248.25,305.8594 1248.8438,304.7656 Q1249.4531,303.6719 1250.5,303.0938 Q1251.5625,302.5 1252.75,302.5 Q1253.4688,302.5 1254.0938,302.75 Q1254.7188,303 1255.25,303.5 Z " fill="#000000"/><text fill="#000000" font-family="sans-serif" font-size="12" lengthAdjust="spacing" textLength="124" x="1273.75" y="311.9102">TestToBeValidatedList</text><line style="stroke:#A80036;stroke-width:1.5;" x1="1148.5" x2="1490.5" y1="323" y2="323"/><line style="stroke:#A80036;stroke-width:1.5;" x1="1148.5" x2="1490.5" y1="331" y2="331"/><ellipse cx="1158.5" cy="342" fill="#84BE84" rx="3" ry="3" style="stroke:#038048;stroke-width:1.0;"/><text fill="#000000" font-family="sans-serif" font-size="11" lengthAdjust="spacing" textLength="145" x="1167.5" y="346.4189">checkTestToBeValidatedList()</text><ellipse cx="1158.5" cy="355.8359" fill="#84BE84" rx="3" ry="3" style="stroke:#038048;stroke-width:1.0;"/><text fill="#000000" font-family="sans-serif" font-size="11" lengthAdjust="spacing" textLength="318" x="1167.5" y="360.2549">createListWithAllTestsAvailableToBeValidate(testsWithReportList)</text><ellipse cx="1158.5" cy="369.6719" fill="#84BE84" rx="3" ry="3" style="stroke:#038048;stroke-width:1.0;"/><text fill="#000000" font-family="sans-serif" font-size="11" lengthAdjust="spacing" textLength="191" x="1167.5" y="374.0908">saveTestToTestToBeValidatedList(test)</text><!--MD5=[6b74681d88d6a5df1af22857acd5be75]
class ValidationUI--><rect fill="#FEFECE" filter="url(#fz52ec9xi8q7i)" height="48" id="ValidationUI" style="stroke:#A80036;stroke-width:1.5;" width="98" x="54.5" y="34.5"/><ellipse cx="69.5" cy="50.5" fill="#ADD1B2" rx="11" ry="11" style="stroke:#A80036;stroke-width:1.0;"/><path d="M71.5,47 Q71.7031,46.5 71.9375,46.25 Q72.1719,46 72.4375,46 Q72.9063,46 73.2031,46.2813 Q73.5,46.5625 73.5,47.2188 L73.5,48.7813 Q73.5,49.4375 73.2188,49.7188 Q72.9375,50 72.5,50 Q72.1094,50 71.8594,49.8281 Q71.6094,49.6563 71.5,49.2031 Q71.4531,48.8906 71.2813,48.7188 Q70.9688,48.3906 70.4063,48.2031 Q69.8438,48 69.2813,48 Q68.5781,48 67.9844,48.2813 Q67.4063,48.5625 66.9531,49.1875 Q66.5,49.8125 66.5,50.6719 L66.5,51.5938 Q66.5,52.625 67.3438,53.3125 Q68.1875,54 69.6875,54 Q70.5781,54 71.2031,53.7969 Q71.5625,53.6875 71.9688,53.3281 Q72.2344,53.125 72.375,53.0625 Q72.5156,53 72.6875,53 Q73.0156,53 73.25,53.2656 Q73.5,53.5156 73.5,53.875 Q73.5,54.2188 73.1563,54.625 Q72.6563,55.2188 71.8594,55.5469 Q70.8125,56 69.5313,56 Q68.0313,56 66.8281,55.4063 Q65.8594,54.9375 65.1719,53.9219 Q64.5,52.9063 64.5,51.7031 L64.5,50.6094 Q64.5,49.3594 65.0938,48.2656 Q65.7031,47.1719 66.75,46.5938 Q67.8125,46 69,46 Q69.7188,46 70.3438,46.25 Q70.9688,46.5 71.5,47 Z " fill="#000000"/><text fill="#000000" font-family="sans-serif" font-size="12" lengthAdjust="spacing" textLength="66" x="83.5" y="55.4102">ValidationUI</text><line style="stroke:#A80036;stroke-width:1.5;" x1="55.5" x2="151.5" y1="66.5" y2="66.5"/><line style="stroke:#A80036;stroke-width:1.5;" x1="55.5" x2="151.5" y1="74.5" y2="74.5"/><!--MD5=[fd7091a1f29d977fcff3077cba5615be]
link ValidationController to TestStore--><path codeLine="81" d="M889.67,68.8 C960.42,81.16 1043.11,109 1089.5,171 C1149.08,250.62 1107.65,375.57 1079.17,440.36 " fill="none" id="ValidationController-to-TestStore" style="stroke:#A80036;stroke-width:1.0;stroke-dasharray:7.0,7.0;"/><polygon fill="#A80036" points="1076.97,445.3,1084.2767,438.696,1078.998,440.7298,1076.9643,435.4511,1076.97,445.3" style="stroke:#A80036;stroke-width:1.0;"/><!--MD5=[a62315c097b29b309e242af051530625]
link ValidationController to ClientStore--><path codeLine="82" d="M739.18,110.12 C732.04,128.86 725.06,150.54 721.5,171 C704.91,266.4 723.6,380.19 736.45,440.35 " fill="none" id="ValidationController-to-ClientStore" style="stroke:#A80036;stroke-width:1.0;stroke-dasharray:7.0,7.0;"/><polygon fill="#A80036" points="737.52,445.3,739.5262,435.6576,736.4626,440.4131,731.7071,437.3495,737.52,445.3" style="stroke:#A80036;stroke-width:1.0;"/><!--MD5=[d421dee801382848e6ecb61923119af2]
link ValidationController to Test--><path codeLine="83" d="M889.66,59.97 C1104.61,64.25 1514.5,88.94 1514.5,215 C1514.5,215 1514.5,215 1514.5,735 C1514.5,948.08 1183.48,1009.96 1046.13,1026.47 " fill="none" id="ValidationController-to-Test" style="stroke:#A80036;stroke-width:1.0;stroke-dasharray:7.0,7.0;"/><polygon fill="#A80036" points="1040.93,1027.08,1050.3372,1029.9963,1045.8955,1026.4933,1049.3985,1022.0516,1040.93,1027.08" style="stroke:#A80036;stroke-width:1.0;"/><!--MD5=[135ab6b471522045451c521cc3b976b9]
link ValidationController to Company--><path codeLine="84" d="M849.89,110.13 C882.32,128.96 919.24,150.7 952.5,171 C957.05,173.78 961.75,176.69 966.45,179.63 " fill="none" id="ValidationController-to-Company" style="stroke:#A80036;stroke-width:1.0;stroke-dasharray:7.0,7.0;"/><polygon fill="#A80036" points="970.77,182.33,965.2457,174.1764,966.526,179.6864,961.0159,180.9668,970.77,182.33" style="stroke:#A80036;stroke-width:1.0;"/><!--MD5=[1db08e1080a6281b659cf0e9e87ca7b1]
link ValidationController to Client--><path codeLine="85" d="M734.76,110.04 C725.41,128.86 715.3,150.61 707.5,171 C643.34,338.64 640.99,385.3 585.5,556 C577.8,579.68 569.41,605.1 561.43,629.08 " fill="none" id="ValidationController-to-Client" style="stroke:#A80036;stroke-width:1.0;stroke-dasharray:7.0,7.0;"/><polygon fill="#A80036" points="559.84,633.85,566.4676,626.5648,561.4126,629.1037,558.8736,624.0487,559.84,633.85" style="stroke:#A80036;stroke-width:1.0;"/><!--MD5=[635a8391ffee2570f1aaf49f52b01d2a]
link ValidationController to TestDto--><path codeLine="86" d="M633.35,108.6 C617.62,117.67 602.53,128.11 589.5,140 C508.02,214.4 450.19,329.84 418.32,405.8 " fill="none" id="ValidationController-to-TestDto" style="stroke:#A80036;stroke-width:1.0;stroke-dasharray:7.0,7.0;"/><polygon fill="#A80036" points="416.26,410.75,423.4034,403.9698,418.176,406.1317,416.0141,400.9042,416.26,410.75" style="stroke:#A80036;stroke-width:1.0;"/><!--MD5=[c0e3e50e22bf123a85ec2f08a30f5ad5]
link ValidationController to TestMapper--><path codeLine="87" d="M786.39,110.42 C796.28,130.67 807.53,153.69 816.95,172.96 " fill="none" id="ValidationController-to-TestMapper" style="stroke:#A80036;stroke-width:1.0;stroke-dasharray:7.0,7.0;"/><polygon fill="#A80036" points="819.31,177.78,818.9636,167.9372,817.1199,173.2852,811.7719,171.4415,819.31,177.78" style="stroke:#A80036;stroke-width:1.0;"/><!--MD5=[8820ed3f898dc47ab32465ecd1a64815]
link ValidationController to TestToBeValidatedList--><path codeLine="88" d="M889.74,65.07 C969.68,73.41 1072.09,93.3 1151.5,140 C1212.14,175.66 1261.73,241.2 1290.93,286.39 " fill="none" id="ValidationController-to-TestToBeValidatedList" style="stroke:#A80036;stroke-width:1.0;stroke-dasharray:7.0,7.0;"/><polygon fill="#A80036" points="1293.69,290.69,1292.1879,280.9564,1290.9862,286.4841,1285.4585,285.2824,1293.69,290.69" style="stroke:#A80036;stroke-width:1.0;"/><!--MD5=[c51f54259aad5b7ff86ac8d3162c026c]
link ValidationUI to ValidationController--><path codeLine="89" d="M152.66,58.5 C311.17,58.5 469.69,58.5 628.21,58.5 " fill="none" id="ValidationUI-to-ValidationController" style="stroke:#A80036;stroke-width:1.0;stroke-dasharray:7.0,7.0;"/><polygon fill="#A80036" points="633.37,58.5,624.37,54.5,628.37,58.5,624.37,62.5,633.37,58.5" style="stroke:#A80036;stroke-width:1.0;"/><!--MD5=[1a5ad645166b837ddddd42c278ba4b07]
link ValidationUI to TestDto--><path codeLine="90" d="M115.45,82.72 C124.16,99.25 136.49,121.82 148.5,141 C207.41,235.07 281.96,338.63 332.43,406.77 " fill="none" id="ValidationUI-to-TestDto" style="stroke:#A80036;stroke-width:1.0;stroke-dasharray:7.0,7.0;"/><polygon fill="#A80036" points="335.41,410.8,333.2484,401.1913,332.426,406.788,326.8293,405.9657,335.41,410.8" style="stroke:#A80036;stroke-width:1.0;"/><!--MD5=[34b2fed5845bf5a187f4983fcf3f57bc]
link TestMapper to TestDto--><path codeLine="91" d="M774.74,254.2 C707.67,293.94 599.57,358.01 514.93,408.17 " fill="none" id="TestMapper-to-TestDto" style="stroke:#A80036;stroke-width:1.0;stroke-dasharray:7.0,7.0;"/><polygon fill="#A80036" points="510.41,410.85,520.1929,409.7119,514.7138,408.3049,516.1207,402.8258,510.41,410.85" style="stroke:#A80036;stroke-width:1.0;"/><!--MD5=[8d9a2c3ea1bf73d8d45b939465e53fff]
link TestMapper to Test--><path codeLine="92" d="M844.33,254.14 C865.34,368.27 929.63,717.58 964.48,906.9 " fill="none" id="TestMapper-to-Test" style="stroke:#A80036;stroke-width:1.0;stroke-dasharray:7.0,7.0;"/><polygon fill="#A80036" points="965.4,911.9,967.6863,902.3202,964.4855,906.9843,959.8213,903.7835,965.4,911.9" style="stroke:#A80036;stroke-width:1.0;"/><!--MD5=[9b017b04eec70a4e9c3d62513ab916db]
link TestValidation to Utils--><path codeLine="93" d="M127.13,1308.02 C112.38,1326.01 94.77,1347.47 80.36,1365.03 " fill="none" id="TestValidation-to-Utils" style="stroke:#A80036;stroke-width:1.0;stroke-dasharray:7.0,7.0;"/><polygon fill="#A80036" points="77.15,1368.95,85.9476,1364.5226,80.3185,1365.0821,79.759,1359.453,77.15,1368.95" style="stroke:#A80036;stroke-width:1.0;"/><!--MD5=[c26b8d0183ca3e7024b42846c60da874]
link ValidationController to TestValidation--><path codeLine="94" d="M633.28,102.58 C585.97,120.8 532.88,144.07 487.5,171 C342.44,257.08 280.25,266.34 193.5,411 C150.87,482.09 157.5,511.11 157.5,594 C157.5,594 157.5,594 157.5,1034 C157.5,1101.51 157.5,1179.93 157.5,1226.95 " fill="none" id="ValidationController-to-TestValidation" style="stroke:#A80036;stroke-width:1.0;stroke-dasharray:7.0,7.0;"/><polygon fill="#A80036" points="157.5,1231.96,161.5,1222.96,157.5,1226.96,153.5,1222.96,157.5,1231.96" style="stroke:#A80036;stroke-width:1.0;"/><!--MD5=[7f5ea8906922f723d394e8c19c10e35b]
link ValidationUI to Utils--><path codeLine="95" d="M85.4,82.51 C64.36,111.61 32.5,164.1 32.5,215 C32.5,215 32.5,215 32.5,1271 C32.5,1302.73 38.58,1338.37 44.03,1363.97 " fill="none" id="ValidationUI-to-Utils" style="stroke:#A80036;stroke-width:1.0;stroke-dasharray:7.0,7.0;"/><polygon fill="#A80036" points="45.11,1368.95,47.1162,1359.3076,44.0526,1364.0631,39.2971,1360.9995,45.11,1368.95" style="stroke:#A80036;stroke-width:1.0;"/><!--MD5=[7f6cf7f175eae0af66201860de5de971]
link Company to TestStore--><path codeLine="97" d="M1027.65,261.14 C1034.82,312.6 1046.55,396.76 1053.29,445.13 " fill="none" id="Company-TestStore" style="stroke:#A80036;stroke-width:1.0;"/><polygon fill="#000000" points="1049.1901,341.1279,1050.8525,331.7638,1045.0309,332.575,1049.1901,341.1279" style="stroke:#000000;stroke-width:1.0;"/><text fill="#000000" font-family="sans-serif" font-size="13" lengthAdjust="spacing" textLength="28" x="1057.5" y="341.4951">uses</text><text fill="#000000" font-family="sans-serif" font-size="13" lengthAdjust="spacing" textLength="7" x="1021.0227" y="282.1673">1</text><text fill="#000000" font-family="sans-serif" font-size="13" lengthAdjust="spacing" textLength="7" x="1044.793" y="434.7137">1</text><!--MD5=[a11230341c8e65219708844feaa40162]
link Company to ClientStore--><path codeLine="98" d="M975.78,261.14 C922.48,312.6 835.31,396.76 785.21,445.13 " fill="none" id="Company-ClientStore" style="stroke:#A80036;stroke-width:1.0;"/><polygon fill="#000000" points="941.9029,339.6487,950.4514,335.4805,946.3688,331.2518,941.9029,339.6487" style="stroke:#000000;stroke-width:1.0;"/><text fill="#000000" font-family="sans-serif" font-size="13" lengthAdjust="spacing" textLength="28" x="954.5" y="341.4951">uses</text><text fill="#000000" font-family="sans-serif" font-size="13" lengthAdjust="spacing" textLength="7" x="961.8584" y="282.1673">1</text><text fill="#000000" font-family="sans-serif" font-size="13" lengthAdjust="spacing" textLength="7" x="784.2617" y="434.7137">1</text><!--MD5=[b0f4f6db8206580012ef9cd998ed01c5]
link TestStore to Test--><path codeLine="99" d="M1053.68,521.7 C1043.45,600.58 1019.2,787.58 1003.07,911.96 " fill="none" id="TestStore-Test" style="stroke:#A80036;stroke-width:1.0;"/><polygon fill="#000000" points="1043.857,739.1343,1047.9347,730.5423,1042.1057,729.7863,1043.857,739.1343" style="stroke:#000000;stroke-width:1.0;"/><text fill="#000000" font-family="sans-serif" font-size="13" lengthAdjust="spacing" textLength="21" x="1053.5" y="739.4951">has</text><text fill="#000000" font-family="sans-serif" font-size="13" lengthAdjust="spacing" textLength="7" x="1045.354" y="542.6124">1</text><text fill="#000000" font-family="sans-serif" font-size="13" lengthAdjust="spacing" textLength="5" x="998.9073" y="901.2093">*</text><!--MD5=[1d934105a045dbf126514c6917bd5072]
link ClientStore to Client--><path codeLine="100" d="M718.36,521.7 C699.33,546.02 673.1,577.97 647.5,604 C633.13,618.61 627.03,619.56 612.5,634 C606.93,639.54 601.3,645.38 595.72,651.34 " fill="none" id="ClientStore-Client" style="stroke:#A80036;stroke-width:1.0;"/><polygon fill="#000000" points="664.0639,598.808,672.4148,594.2569,668.1449,590.2175,664.0639,598.808" style="stroke:#000000;stroke-width:1.0;"/><text fill="#000000" font-family="sans-serif" font-size="13" lengthAdjust="spacing" textLength="21" x="676.5" y="600.4951">has</text><text fill="#000000" font-family="sans-serif" font-size="13" lengthAdjust="spacing" textLength="7" x="706.3174" y="542.6124">1</text><text fill="#000000" font-family="sans-serif" font-size="13" lengthAdjust="spacing" textLength="5" x="603.5644" y="638.9277">*</text><!--MD5=[3cb3da3391604f7264957de95f18d78e]
link ClientStore to EmailSMS--><path codeLine="101" d="M746.65,521.7 C746.84,569.29 747.17,651.11 747.36,697.74 " fill="none" id="ClientStore-to-EmailSMS" style="stroke:#A80036;stroke-width:1.0;stroke-dasharray:7.0,7.0;"/><polygon fill="#A80036" points="747.38,702.97,751.3285,693.9473,747.3514,697.9701,743.3286,693.993,747.38,702.97" style="stroke:#A80036;stroke-width:1.0;"/><!--MD5=[905c082e5fce4eb785bce914d71adcec]
link Test to TestValidation--><path codeLine="102" d="M934.32,1049.06 C785.21,1091.28 364.17,1210.49 212.67,1253.38 " fill="none" id="Test-TestValidation" style="stroke:#A80036;stroke-width:1.0;"/><polygon fill="#000000" points="450.6891,1194.5379,460.1927,1194.9016,458.5915,1189.246,450.6891,1194.5379" style="stroke:#000000;stroke-width:1.0;"/><text fill="#000000" font-family="sans-serif" font-size="13" lengthAdjust="spacing" textLength="21" x="464.5" y="1198.4951">has</text><text fill="#000000" font-family="sans-serif" font-size="13" lengthAdjust="spacing" textLength="7" x="919.3494" y="1047.7341">1</text><text fill="#000000" font-family="sans-serif" font-size="13" lengthAdjust="spacing" textLength="7" x="220.5538" y="1247.6125">1</text><!--MD5=[502b51bc079239060389dab43b7d3470]
link Client to Test--><path codeLine="103" d="M595.7,819.35 C601.17,824.53 606.79,829.47 612.5,834 C715.88,916.02 858.34,980.25 934.47,1011.4 " fill="none" id="Client-Test" style="stroke:#A80036;stroke-width:1.0;"/><polygon fill="#000000" points="687.8497,875.6416,681.4304,868.6242,678.5317,873.7375,687.8497,875.6416" style="stroke:#000000;stroke-width:1.0;"/><text fill="#000000" font-family="sans-serif" font-size="13" lengthAdjust="spacing" textLength="21" x="692.5" y="878.4951">has</text><text fill="#000000" font-family="sans-serif" font-size="13" lengthAdjust="spacing" textLength="7" x="603.6516" y="825.3138">1</text><text fill="#000000" font-family="sans-serif" font-size="13" lengthAdjust="spacing" textLength="5" x="921.6611" y="1004.7782">*</text><!--MD5=[851c17b2ec5999d4bfd8fe1ff329bfd3]
link TestToBeValidatedList to Test--><path codeLine="104" d="M1298.63,381.27 C1257.62,468.17 1163.56,667.15 1083.5,834 C1069.66,862.85 1054.6,894.01 1040.6,922.89 " fill="none" id="TestToBeValidatedList-Test" style="stroke:#A80036;stroke-width:1.0;"/><polygon fill="#000000" points="1204.3495,599.6897,1210.893,592.7879,1205.5865,590.2599,1204.3495,599.6897" style="stroke:#000000;stroke-width:1.0;"/><text fill="#000000" font-family="sans-serif" font-size="13" lengthAdjust="spacing" textLength="78" x="1215.5" y="600.4951">composed by</text><text fill="#000000" font-family="sans-serif" font-size="13" lengthAdjust="spacing" textLength="7" x="1288.3553" y="401.98">1</text><text fill="#000000" font-family="sans-serif" font-size="13" lengthAdjust="spacing" textLength="5" x="1048.4187" y="903.8215">*</text><!--MD5=[cfd1b63aad1e0bd374db279c855dc19a]
@startuml
'https://plantuml.com/sequence-diagram

class Company{
- designation
+ getTestStore()
+ getClientStore()

}
class ValidationController{
+ getListOfUnvalidatedTestsDto()
+ createListWithAllTestsAvailableToBeValidated()
+ saveTestInListByNhsCode(nhsCode)
+ validateTestsInsideTestsToBeValidatedList()
}
class Test{
- code
- nhsCode
- createdAt
- resultDate
- sampleDate
- reportDate
+ getNhsCode()
+ hasReport()
+ hasValidation()
+ getSampleDate()
+ getCreatedAt()
+ getResultDate()
+ getReportDate()
+ validateTest()
}
class TestStore{
+ getTestByNhsCode(nhsCode)
+ getTestsWithReportList()
}
class TestMapper{
+ toDtoWithDate(test)
+ toDtoWithDate(testsWithReportList)
}
class TestDto{
- code
- nhsCode
- createdAt
- resultDate
- sampleDate
- reportDate
+ TestDto(nhsCode,createdAt,sampleDate,resultDate,reportCreatedAt)
}
class Utils{
+ currentDate()
}
class Client{
- name
- phoneNumber
- taxIdentificationNumber
- email
- birthDate
- gender
- nhsId
- citizenCardNumber
- password
+ getEmail()
+ getName()
}
class ClientStore{
+ getClientByTest(test)
+ sendEmail(client,test)
}
class EmailSMS{
+ sendTestNotification(email,name, nhsCode)
}
class TestValidation{
- validatedAt
+ TestValidation()
}
class TestToBeValidatedList{
+ checkTestToBeValidatedList()
+ createListWithAllTestsAvailableToBeValidate(testsWithReportList)
+ saveTestToTestToBeValidatedList(test)
}

ValidationController .> TestStore
ValidationController .> ClientStore
ValidationController .> Test
ValidationController ..> Company
ValidationController .> Client
ValidationController .> TestDto
ValidationController ..> TestMapper
ValidationController ..> TestToBeValidatedList
ValidationUI .> ValidationController
ValidationUI .> TestDto
TestMapper ..> TestDto
TestMapper .> Test
TestValidation .> Utils
ValidationController .> TestValidation
ValidationUI .......> Utils

Company "1" - -"1" TestStore : uses >
Company "1" - - "1" ClientStore : uses >
TestStore "1" - - "*" Test: has >
ClientStore "1" - - "*" Client: has >
ClientStore ..> EmailSMS
Test "1" - - "1" TestValidation: has >
Client "1" - - "*" Test: has >
TestToBeValidatedList "1" - - "*" Test: composed by >

@enduml

@startuml

class Company{
- designation
+ getTestStore()
+ getClientStore()

}
class ValidationController{
+ getListOfUnvalidatedTestsDto()
+ createListWithAllTestsAvailableToBeValidated()
+ saveTestInListByNhsCode(nhsCode)
+ validateTestsInsideTestsToBeValidatedList()
}
class Test{
- code
- nhsCode
- createdAt
- resultDate
- sampleDate
- reportDate
+ getNhsCode()
+ hasReport()
+ hasValidation()
+ getSampleDate()
+ getCreatedAt()
+ getResultDate()
+ getReportDate()
+ validateTest()
}
class TestStore{
+ getTestByNhsCode(nhsCode)
+ getTestsWithReportList()
}
class TestMapper{
+ toDtoWithDate(test)
+ toDtoWithDate(testsWithReportList)
}
class TestDto{
- code
- nhsCode
- createdAt
- resultDate
- sampleDate
- reportDate
+ TestDto(nhsCode,createdAt,sampleDate,resultDate,reportCreatedAt)
}
class Utils{
+ currentDate()
}
class Client{
- name
- phoneNumber
- taxIdentificationNumber
- email
- birthDate
- gender
- nhsId
- citizenCardNumber
- password
+ getEmail()
+ getName()
}
class ClientStore{
+ getClientByTest(test)
+ sendEmail(client,test)
}
class EmailSMS{
+ sendTestNotification(email,name, nhsCode)
}
class TestValidation{
- validatedAt
+ TestValidation()
}
class TestToBeValidatedList{
+ checkTestToBeValidatedList()
+ createListWithAllTestsAvailableToBeValidate(testsWithReportList)
+ saveTestToTestToBeValidatedList(test)
}

ValidationController .> TestStore
ValidationController .> ClientStore
ValidationController .> Test
ValidationController ..> Company
ValidationController .> Client
ValidationController .> TestDto
ValidationController ..> TestMapper
ValidationController ..> TestToBeValidatedList
ValidationUI .> ValidationController
ValidationUI .> TestDto
TestMapper ..> TestDto
TestMapper .> Test
TestValidation .> Utils
ValidationController .> TestValidation
ValidationUI .......> Utils

Company "1" - -"1" TestStore : uses >
Company "1" - - "1" ClientStore : uses >
TestStore "1" - - "*" Test: has >
ClientStore "1" - - "*" Client: has >
ClientStore ..> EmailSMS
Test "1" - - "1" TestValidation: has >
Client "1" - - "*" Test: has >
TestToBeValidatedList "1" - - "*" Test: composed by >

@enduml

PlantUML version 1.2021.5(Sun Apr 25 12:20:28 BST 2021)
(GPL source distribution)
Java Runtime: OpenJDK Runtime Environment
JVM: Dynamic Code Evolution 64-Bit Server VM
Default Encoding: Cp1252
Language: pt
Country: PT
--></g></svg>