<?xml version="1.0" encoding="UTF-8" standalone="no"?><svg xmlns="http://www.w3.org/2000/svg" xmlns:xlink="http://www.w3.org/1999/xlink" contentScriptType="application/ecmascript" contentStyleType="text/css" height="655px" preserveAspectRatio="none" style="width:544px;height:655px;" version="1.1" viewBox="0 0 544 655" width="544px" zoomAndPan="magnify"><defs><filter height="300%" id="f1mbesg8w91u9h" width="300%" x="-1" y="-1"><feGaussianBlur result="blurOut" stdDeviation="2.0"/><feColorMatrix in="blurOut" result="blurOut2" type="matrix" values="0 0 0 0 0 0 0 0 0 0 0 0 0 0 0 0 0 0 .4 0"/><feOffset dx="4.0" dy="4.0" in="blurOut2" result="blurOut3"/><feBlend in="SourceGraphic" in2="blurOut3" mode="normal"/></filter></defs><g><!--MD5=[7421f545a0d8420c5bec41e74b387d9c]
class Employee--><rect codeLine="3" fill="#FEFECE" filter="url(#f1mbesg8w91u9h)" height="158.6875" id="Employee" style="stroke:#A80036;stroke-width:1.5;" width="92" x="55.5" y="147"/><ellipse cx="72.75" cy="163" fill="#ADD1B2" rx="11" ry="11" style="stroke:#A80036;stroke-width:1.0;"/><path d="M74.75,159.5 Q74.9531,159 75.1875,158.75 Q75.4219,158.5 75.6875,158.5 Q76.1563,158.5 76.4531,158.7813 Q76.75,159.0625 76.75,159.7188 L76.75,161.2813 Q76.75,161.9375 76.4688,162.2188 Q76.1875,162.5 75.75,162.5 Q75.3594,162.5 75.1094,162.3281 Q74.8594,162.1563 74.75,161.7031 Q74.7031,161.3906 74.5313,161.2188 Q74.2188,160.8906 73.6563,160.7031 Q73.0938,160.5 72.5313,160.5 Q71.8281,160.5 71.2344,160.7813 Q70.6563,161.0625 70.2031,161.6875 Q69.75,162.3125 69.75,163.1719 L69.75,164.0938 Q69.75,165.125 70.5938,165.8125 Q71.4375,166.5 72.9375,166.5 Q73.8281,166.5 74.4531,166.2969 Q74.8125,166.1875 75.2188,165.8281 Q75.4844,165.625 75.625,165.5625 Q75.7656,165.5 75.9375,165.5 Q76.2656,165.5 76.5,165.7656 Q76.75,166.0156 76.75,166.375 Q76.75,166.7188 76.4063,167.125 Q75.9063,167.7188 75.1094,168.0469 Q74.0625,168.5 72.7813,168.5 Q71.2813,168.5 70.0781,167.9063 Q69.1094,167.4375 68.4219,166.4219 Q67.75,165.4063 67.75,164.2031 L67.75,163.1094 Q67.75,161.8594 68.3438,160.7656 Q68.9531,159.6719 70,159.0938 Q71.0625,158.5 72.25,158.5 Q72.9688,158.5 73.5938,158.75 Q74.2188,159 74.75,159.5 Z " fill="#000000"/><text fill="#000000" font-family="sans-serif" font-size="12" lengthAdjust="spacing" textLength="55" x="87.25" y="167.9102">Employee</text><line style="stroke:#A80036;stroke-width:1.5;" x1="56.5" x2="146.5" y1="179" y2="179"/><text fill="#000000" font-family="sans-serif" font-size="11" lengthAdjust="spacing" textLength="26" x="61.5" y="194.4189">name</text><text fill="#000000" font-family="sans-serif" font-size="11" lengthAdjust="spacing" textLength="67" x="61.5" y="208.2549">phoneNumber</text><text fill="#000000" font-family="sans-serif" font-size="11" lengthAdjust="spacing" textLength="24" x="61.5" y="222.0908">email</text><text fill="#000000" font-family="sans-serif" font-size="11" lengthAdjust="spacing" textLength="50" x="61.5" y="235.9268">password</text><text fill="#000000" font-family="sans-serif" font-size="11" lengthAdjust="spacing" textLength="55" x="61.5" y="249.7627">employeeID</text><text fill="#000000" font-family="sans-serif" font-size="11" lengthAdjust="spacing" textLength="43" x="61.5" y="263.5986">socCode</text><text fill="#000000" font-family="sans-serif" font-size="11" lengthAdjust="spacing" textLength="80" x="61.5" y="277.4346">organizationRole</text><text fill="#000000" font-family="sans-serif" font-size="11" lengthAdjust="spacing" textLength="40" x="61.5" y="291.2705">address</text><line style="stroke:#A80036;stroke-width:1.5;" x1="56.5" x2="146.5" y1="297.6875" y2="297.6875"/><!--MD5=[052425de1c0eb6cc1c1b48342b0bb88f]
class LaboratoryCoordinator--><rect codeLine="13" fill="#FEFECE" filter="url(#f1mbesg8w91u9h)" height="48" id="LaboratoryCoordinator" style="stroke:#A80036;stroke-width:1.5;" width="155" x="7" y="384"/><ellipse cx="22" cy="400" fill="#ADD1B2" rx="11" ry="11" style="stroke:#A80036;stroke-width:1.0;"/><path d="M24,396.5 Q24.2031,396 24.4375,395.75 Q24.6719,395.5 24.9375,395.5 Q25.4063,395.5 25.7031,395.7813 Q26,396.0625 26,396.7188 L26,398.2813 Q26,398.9375 25.7188,399.2188 Q25.4375,399.5 25,399.5 Q24.6094,399.5 24.3594,399.3281 Q24.1094,399.1563 24,398.7031 Q23.9531,398.3906 23.7813,398.2188 Q23.4688,397.8906 22.9063,397.7031 Q22.3438,397.5 21.7813,397.5 Q21.0781,397.5 20.4844,397.7813 Q19.9063,398.0625 19.4531,398.6875 Q19,399.3125 19,400.1719 L19,401.0938 Q19,402.125 19.8438,402.8125 Q20.6875,403.5 22.1875,403.5 Q23.0781,403.5 23.7031,403.2969 Q24.0625,403.1875 24.4688,402.8281 Q24.7344,402.625 24.875,402.5625 Q25.0156,402.5 25.1875,402.5 Q25.5156,402.5 25.75,402.7656 Q26,403.0156 26,403.375 Q26,403.7188 25.6563,404.125 Q25.1563,404.7188 24.3594,405.0469 Q23.3125,405.5 22.0313,405.5 Q20.5313,405.5 19.3281,404.9063 Q18.3594,404.4375 17.6719,403.4219 Q17,402.4063 17,401.2031 L17,400.1094 Q17,398.8594 17.5938,397.7656 Q18.2031,396.6719 19.25,396.0938 Q20.3125,395.5 21.5,395.5 Q22.2188,395.5 22.8438,395.75 Q23.4688,396 24,396.5 Z " fill="#000000"/><text fill="#000000" font-family="sans-serif" font-size="12" lengthAdjust="spacing" textLength="123" x="36" y="404.9102">LaboratoryCoordinator</text><line style="stroke:#A80036;stroke-width:1.5;" x1="8" x2="161" y1="416" y2="416"/><line style="stroke:#A80036;stroke-width:1.5;" x1="8" x2="161" y1="424" y2="424"/><!--MD5=[ed6624c6556d5e7b1bd23032162d20b7]
class Client--><rect codeLine="15" fill="#FEFECE" filter="url(#f1mbesg8w91u9h)" height="158.6875" id="Client" style="stroke:#A80036;stroke-width:1.5;" width="124" x="188.5" y="147"/><ellipse cx="230.5" cy="163" fill="#ADD1B2" rx="11" ry="11" style="stroke:#A80036;stroke-width:1.0;"/><path d="M232.5,159.5 Q232.7031,159 232.9375,158.75 Q233.1719,158.5 233.4375,158.5 Q233.9063,158.5 234.2031,158.7813 Q234.5,159.0625 234.5,159.7188 L234.5,161.2813 Q234.5,161.9375 234.2188,162.2188 Q233.9375,162.5 233.5,162.5 Q233.1094,162.5 232.8594,162.3281 Q232.6094,162.1563 232.5,161.7031 Q232.4531,161.3906 232.2813,161.2188 Q231.9688,160.8906 231.4063,160.7031 Q230.8438,160.5 230.2813,160.5 Q229.5781,160.5 228.9844,160.7813 Q228.4063,161.0625 227.9531,161.6875 Q227.5,162.3125 227.5,163.1719 L227.5,164.0938 Q227.5,165.125 228.3438,165.8125 Q229.1875,166.5 230.6875,166.5 Q231.5781,166.5 232.2031,166.2969 Q232.5625,166.1875 232.9688,165.8281 Q233.2344,165.625 233.375,165.5625 Q233.5156,165.5 233.6875,165.5 Q234.0156,165.5 234.25,165.7656 Q234.5,166.0156 234.5,166.375 Q234.5,166.7188 234.1563,167.125 Q233.6563,167.7188 232.8594,168.0469 Q231.8125,168.5 230.5313,168.5 Q229.0313,168.5 227.8281,167.9063 Q226.8594,167.4375 226.1719,166.4219 Q225.5,165.4063 225.5,164.2031 L225.5,163.1094 Q225.5,161.8594 226.0938,160.7656 Q226.7031,159.6719 227.75,159.0938 Q228.8125,158.5 230,158.5 Q230.7188,158.5 231.3438,158.75 Q231.9688,159 232.5,159.5 Z " fill="#000000"/><text fill="#000000" font-family="sans-serif" font-size="12" lengthAdjust="spacing" textLength="32" x="250.5" y="167.9102">Client</text><line style="stroke:#A80036;stroke-width:1.5;" x1="189.5" x2="311.5" y1="179" y2="179"/><text fill="#000000" font-family="sans-serif" font-size="11" lengthAdjust="spacing" textLength="26" x="194.5" y="194.4189">name</text><text fill="#000000" font-family="sans-serif" font-size="11" lengthAdjust="spacing" textLength="67" x="194.5" y="208.2549">phoneNumber</text><text fill="#000000" font-family="sans-serif" font-size="11" lengthAdjust="spacing" textLength="112" x="194.5" y="222.0908">taxIdentificationNumber</text><text fill="#000000" font-family="sans-serif" font-size="11" lengthAdjust="spacing" textLength="24" x="194.5" y="235.9268">email</text><text fill="#000000" font-family="sans-serif" font-size="11" lengthAdjust="spacing" textLength="43" x="194.5" y="249.7627">birthDate</text><text fill="#000000" font-family="sans-serif" font-size="11" lengthAdjust="spacing" textLength="34" x="194.5" y="263.5986">gender</text><text fill="#000000" font-family="sans-serif" font-size="11" lengthAdjust="spacing" textLength="55" x="194.5" y="277.4346">nhsNumber</text><text fill="#000000" font-family="sans-serif" font-size="11" lengthAdjust="spacing" textLength="91" x="194.5" y="291.2705">citizenCardNumber</text><line style="stroke:#A80036;stroke-width:1.5;" x1="189.5" x2="311.5" y1="297.6875" y2="297.6875"/><!--MD5=[76b5e19c9337179d2d7ae334371d68c8]
class Notification--><rect codeLine="25" fill="#FEFECE" filter="url(#f1mbesg8w91u9h)" height="48" id="Notification" style="stroke:#A80036;stroke-width:1.5;" width="93" x="320" y="384"/><ellipse cx="335" cy="400" fill="#ADD1B2" rx="11" ry="11" style="stroke:#A80036;stroke-width:1.0;"/><path d="M337,396.5 Q337.2031,396 337.4375,395.75 Q337.6719,395.5 337.9375,395.5 Q338.4063,395.5 338.7031,395.7813 Q339,396.0625 339,396.7188 L339,398.2813 Q339,398.9375 338.7188,399.2188 Q338.4375,399.5 338,399.5 Q337.6094,399.5 337.3594,399.3281 Q337.1094,399.1563 337,398.7031 Q336.9531,398.3906 336.7813,398.2188 Q336.4688,397.8906 335.9063,397.7031 Q335.3438,397.5 334.7813,397.5 Q334.0781,397.5 333.4844,397.7813 Q332.9063,398.0625 332.4531,398.6875 Q332,399.3125 332,400.1719 L332,401.0938 Q332,402.125 332.8438,402.8125 Q333.6875,403.5 335.1875,403.5 Q336.0781,403.5 336.7031,403.2969 Q337.0625,403.1875 337.4688,402.8281 Q337.7344,402.625 337.875,402.5625 Q338.0156,402.5 338.1875,402.5 Q338.5156,402.5 338.75,402.7656 Q339,403.0156 339,403.375 Q339,403.7188 338.6563,404.125 Q338.1563,404.7188 337.3594,405.0469 Q336.3125,405.5 335.0313,405.5 Q333.5313,405.5 332.3281,404.9063 Q331.3594,404.4375 330.6719,403.4219 Q330,402.4063 330,401.2031 L330,400.1094 Q330,398.8594 330.5938,397.7656 Q331.2031,396.6719 332.25,396.0938 Q333.3125,395.5 334.5,395.5 Q335.2188,395.5 335.8438,395.75 Q336.4688,396 337,396.5 Z " fill="#000000"/><text fill="#000000" font-family="sans-serif" font-size="12" lengthAdjust="spacing" textLength="61" x="349" y="404.9102">Notification</text><line style="stroke:#A80036;stroke-width:1.5;" x1="321" x2="412" y1="416" y2="416"/><line style="stroke:#A80036;stroke-width:1.5;" x1="321" x2="412" y1="424" y2="424"/><!--MD5=[02e4b9b7573f1156f41e60aa5b4e25a4]
class Company--><rect codeLine="26" fill="#FEFECE" filter="url(#f1mbesg8w91u9h)" height="61.8359" id="Company" style="stroke:#A80036;stroke-width:1.5;" width="85" x="292" y="7"/><ellipse cx="307" cy="23" fill="#ADD1B2" rx="11" ry="11" style="stroke:#A80036;stroke-width:1.0;"/><path d="M309,19.5 Q309.2031,19 309.4375,18.75 Q309.6719,18.5 309.9375,18.5 Q310.4063,18.5 310.7031,18.7813 Q311,19.0625 311,19.7188 L311,21.2813 Q311,21.9375 310.7188,22.2188 Q310.4375,22.5 310,22.5 Q309.6094,22.5 309.3594,22.3281 Q309.1094,22.1563 309,21.7031 Q308.9531,21.3906 308.7813,21.2188 Q308.4688,20.8906 307.9063,20.7031 Q307.3438,20.5 306.7813,20.5 Q306.0781,20.5 305.4844,20.7813 Q304.9063,21.0625 304.4531,21.6875 Q304,22.3125 304,23.1719 L304,24.0938 Q304,25.125 304.8438,25.8125 Q305.6875,26.5 307.1875,26.5 Q308.0781,26.5 308.7031,26.2969 Q309.0625,26.1875 309.4688,25.8281 Q309.7344,25.625 309.875,25.5625 Q310.0156,25.5 310.1875,25.5 Q310.5156,25.5 310.75,25.7656 Q311,26.0156 311,26.375 Q311,26.7188 310.6563,27.125 Q310.1563,27.7188 309.3594,28.0469 Q308.3125,28.5 307.0313,28.5 Q305.5313,28.5 304.3281,27.9063 Q303.3594,27.4375 302.6719,26.4219 Q302,25.4063 302,24.2031 L302,23.1094 Q302,21.8594 302.5938,20.7656 Q303.2031,19.6719 304.25,19.0938 Q305.3125,18.5 306.5,18.5 Q307.2188,18.5 307.8438,18.75 Q308.4688,19 309,19.5 Z " fill="#000000"/><text fill="#000000" font-family="sans-serif" font-size="12" lengthAdjust="spacing" textLength="53" x="321" y="27.9102">Company</text><line style="stroke:#A80036;stroke-width:1.5;" x1="293" x2="376" y1="39" y2="39"/><text fill="#000000" font-family="sans-serif" font-size="11" lengthAdjust="spacing" textLength="55" x="298" y="54.4189">designation</text><line style="stroke:#A80036;stroke-width:1.5;" x1="293" x2="376" y1="60.8359" y2="60.8359"/><!--MD5=[df38be88ccee13e832d6fafd6288a4ca]
class Test--><rect codeLine="29" fill="#FEFECE" filter="url(#f1mbesg8w91u9h)" height="131.0156" id="Test" style="stroke:#A80036;stroke-width:1.5;" width="68" x="198.5" y="510"/><ellipse cx="218.9" cy="526" fill="#ADD1B2" rx="11" ry="11" style="stroke:#A80036;stroke-width:1.0;"/><path d="M220.9,522.5 Q221.1031,522 221.3375,521.75 Q221.5719,521.5 221.8375,521.5 Q222.3063,521.5 222.6031,521.7813 Q222.9,522.0625 222.9,522.7188 L222.9,524.2813 Q222.9,524.9375 222.6188,525.2188 Q222.3375,525.5 221.9,525.5 Q221.5094,525.5 221.2594,525.3281 Q221.0094,525.1563 220.9,524.7031 Q220.8531,524.3906 220.6813,524.2188 Q220.3688,523.8906 219.8063,523.7031 Q219.2438,523.5 218.6813,523.5 Q217.9781,523.5 217.3844,523.7813 Q216.8063,524.0625 216.3531,524.6875 Q215.9,525.3125 215.9,526.1719 L215.9,527.0938 Q215.9,528.125 216.7438,528.8125 Q217.5875,529.5 219.0875,529.5 Q219.9781,529.5 220.6031,529.2969 Q220.9625,529.1875 221.3688,528.8281 Q221.6344,528.625 221.775,528.5625 Q221.9156,528.5 222.0875,528.5 Q222.4156,528.5 222.65,528.7656 Q222.9,529.0156 222.9,529.375 Q222.9,529.7188 222.5563,530.125 Q222.0563,530.7188 221.2594,531.0469 Q220.2125,531.5 218.9313,531.5 Q217.4313,531.5 216.2281,530.9063 Q215.2594,530.4375 214.5719,529.4219 Q213.9,528.4063 213.9,527.2031 L213.9,526.1094 Q213.9,524.8594 214.4938,523.7656 Q215.1031,522.6719 216.15,522.0938 Q217.2125,521.5 218.4,521.5 Q219.1188,521.5 219.7438,521.75 Q220.3688,522 220.9,522.5 Z " fill="#000000"/><text fill="#000000" font-family="sans-serif" font-size="12" lengthAdjust="spacing" textLength="24" x="234.1" y="530.9102">Test</text><line style="stroke:#A80036;stroke-width:1.5;" x1="199.5" x2="265.5" y1="542" y2="542"/><text fill="#000000" font-family="sans-serif" font-size="11" lengthAdjust="spacing" textLength="24" x="204.5" y="557.4189">code</text><text fill="#000000" font-family="sans-serif" font-size="11" lengthAdjust="spacing" textLength="43" x="204.5" y="571.2549">nhsCode</text><text fill="#000000" font-family="sans-serif" font-size="11" lengthAdjust="spacing" textLength="48" x="204.5" y="585.0908">createdAt</text><text fill="#000000" font-family="sans-serif" font-size="11" lengthAdjust="spacing" textLength="49" x="204.5" y="598.9268">resultDate</text><text fill="#000000" font-family="sans-serif" font-size="11" lengthAdjust="spacing" textLength="56" x="204.5" y="612.7627">sampleDate</text><text fill="#000000" font-family="sans-serif" font-size="11" lengthAdjust="spacing" textLength="51" x="204.5" y="626.5986">reportDate</text><line style="stroke:#A80036;stroke-width:1.5;" x1="199.5" x2="265.5" y1="633.0156" y2="633.0156"/><!--MD5=[8806e557260fb3598decb516dc04693d]
class EmailAPI--><rect codeLine="37" fill="#FEFECE" filter="url(#f1mbesg8w91u9h)" height="48" id="EmailAPI" style="stroke:#A80036;stroke-width:1.5;" width="82" x="347.5" y="202.5"/><ellipse cx="362.5" cy="218.5" fill="#ADD1B2" rx="11" ry="11" style="stroke:#A80036;stroke-width:1.0;"/><path d="M364.5,215 Q364.7031,214.5 364.9375,214.25 Q365.1719,214 365.4375,214 Q365.9063,214 366.2031,214.2813 Q366.5,214.5625 366.5,215.2188 L366.5,216.7813 Q366.5,217.4375 366.2188,217.7188 Q365.9375,218 365.5,218 Q365.1094,218 364.8594,217.8281 Q364.6094,217.6563 364.5,217.2031 Q364.4531,216.8906 364.2813,216.7188 Q363.9688,216.3906 363.4063,216.2031 Q362.8438,216 362.2813,216 Q361.5781,216 360.9844,216.2813 Q360.4063,216.5625 359.9531,217.1875 Q359.5,217.8125 359.5,218.6719 L359.5,219.5938 Q359.5,220.625 360.3438,221.3125 Q361.1875,222 362.6875,222 Q363.5781,222 364.2031,221.7969 Q364.5625,221.6875 364.9688,221.3281 Q365.2344,221.125 365.375,221.0625 Q365.5156,221 365.6875,221 Q366.0156,221 366.25,221.2656 Q366.5,221.5156 366.5,221.875 Q366.5,222.2188 366.1563,222.625 Q365.6563,223.2188 364.8594,223.5469 Q363.8125,224 362.5313,224 Q361.0313,224 359.8281,223.4063 Q358.8594,222.9375 358.1719,221.9219 Q357.5,220.9063 357.5,219.7031 L357.5,218.6094 Q357.5,217.3594 358.0938,216.2656 Q358.7031,215.1719 359.75,214.5938 Q360.8125,214 362,214 Q362.7188,214 363.3438,214.25 Q363.9688,214.5 364.5,215 Z " fill="#000000"/><text fill="#000000" font-family="sans-serif" font-size="12" lengthAdjust="spacing" textLength="50" x="376.5" y="223.4102">EmailAPI</text><line style="stroke:#A80036;stroke-width:1.5;" x1="348.5" x2="428.5" y1="234.5" y2="234.5"/><line style="stroke:#A80036;stroke-width:1.5;" x1="348.5" x2="428.5" y1="242.5" y2="242.5"/><!--MD5=[6eee883fdf517d3604e8bd0f2058e9aa]
link Company to Client--><path codeLine="39" d="M320.82,69.38 C311.33,90.44 298.24,119.5 285.93,146.84 " fill="none" id="Company-Client" style="stroke:#A80036;stroke-width:1.0;"/><polygon fill="#000000" points="310.4466,112.7347,316.8409,105.6946,311.4816,103.2806,310.4466,112.7347" style="stroke:#000000;stroke-width:1.0;"/><text fill="#000000" font-family="sans-serif" font-size="13" lengthAdjust="spacing" textLength="21" x="321.5" y="113.4951">has</text><text fill="#000000" font-family="sans-serif" font-size="13" lengthAdjust="spacing" textLength="7" x="310.5451" y="90.4311">1</text><text fill="#000000" font-family="sans-serif" font-size="13" lengthAdjust="spacing" textLength="5" x="284.0686" y="136.0117">*</text><!--MD5=[7dae17bb55c59b06af656d7c83a51371]
reverse link Employee to LaboratoryCoordinator--><path codeLine="40" d="M92.13,326.39 C90.1,347.82 88.14,368.55 86.71,383.62 " fill="none" id="Employee-backto-LaboratoryCoordinator" style="stroke:#A80036;stroke-width:1.0;"/><polygon fill="none" points="85.19,325.48,94.04,306.23,99.13,326.8,85.19,325.48" style="stroke:#A80036;stroke-width:1.0;"/><!--MD5=[09366576ee87d48d594df10cacc83f45]
link Company to Employee--><path codeLine="41" d="M291.89,62.76 C257.43,82.96 208.56,113.88 170.5,147 C162.7,153.79 154.95,161.45 147.62,169.25 " fill="none" id="Company-Employee" style="stroke:#A80036;stroke-width:1.0;"/><polygon fill="#000000" points="232.4772,111.1451,241.4999,108.1381,238.0092,103.409,232.4772,111.1451" style="stroke:#000000;stroke-width:1.0;"/><text fill="#000000" font-family="sans-serif" font-size="13" lengthAdjust="spacing" textLength="21" x="245.5" y="113.4951">has</text><text fill="#000000" font-family="sans-serif" font-size="13" lengthAdjust="spacing" textLength="7" x="276.9648" y="63.1801">1</text><text fill="#000000" font-family="sans-serif" font-size="13" lengthAdjust="spacing" textLength="20" x="155.5119" y="157.616">1..*</text><!--MD5=[7e4bc624457760b649895ff2ead938fa]
link Company to Test--><path codeLine="42" d="M377.28,64.81 C403.8,83.71 435.11,112.09 447.5,147 C489.96,266.58 495.8,323.2 430.5,432 C392.03,496.09 312.49,539.55 266.8,560.35 " fill="none" id="Company-Test" style="stroke:#A80036;stroke-width:1.0;"/><polygon fill="#000000" points="476.412,350.056,481.2487,341.8672,475.5117,340.5881,476.412,350.056" style="stroke:#000000;stroke-width:1.0;"/><text fill="#000000" font-family="sans-serif" font-size="13" lengthAdjust="spacing" textLength="50" x="486.5" y="350.4951">performs</text><text fill="#000000" font-family="sans-serif" font-size="13" lengthAdjust="spacing" textLength="7" x="384.9451" y="65.4632">1</text><text fill="#000000" font-family="sans-serif" font-size="13" lengthAdjust="spacing" textLength="5" x="274.39" y="553.1051">*</text><!--MD5=[fe28b095a1a99c1f24c8c2245ad2ba4f]
link LaboratoryCoordinator to Test--><path codeLine="43" d="M102.22,432.13 C113.22,446.23 127.82,464.45 141.5,480 C159.7,500.69 181.03,522.94 198.46,540.64 " fill="none" id="LaboratoryCoordinator-Test" style="stroke:#A80036;stroke-width:1.0;"/><polygon fill="#000000" points="149.8177,474.9165,146.0146,466.1994,141.6172,470.0996,149.8177,474.9165" style="stroke:#000000;stroke-width:1.0;"/><text fill="#000000" font-family="sans-serif" font-size="13" lengthAdjust="spacing" textLength="50" x="155.5" y="476.4951">validates</text><text fill="#000000" font-family="sans-serif" font-size="13" lengthAdjust="spacing" textLength="7" x="98.6861" y="453.4997">1</text><text fill="#000000" font-family="sans-serif" font-size="13" lengthAdjust="spacing" textLength="5" x="185.4669" y="528.7962">*</text><!--MD5=[502b51bc079239060389dab43b7d3470]
link Client to Test--><path codeLine="44" d="M246.42,306.24 C243.23,367.73 238.85,452.12 235.86,509.73 " fill="none" id="Client-Test" style="stroke:#A80036;stroke-width:1.0;"/><polygon fill="#000000" points="247.2409,413.1691,250.6446,404.2884,244.7747,403.9838,247.2409,413.1691" style="stroke:#000000;stroke-width:1.0;"/><text fill="#000000" font-family="sans-serif" font-size="13" lengthAdjust="spacing" textLength="21" x="256.5" y="413.4951">has</text><text fill="#000000" font-family="sans-serif" font-size="13" lengthAdjust="spacing" textLength="7" x="238.7686" y="327.3038">1</text><text fill="#000000" font-family="sans-serif" font-size="13" lengthAdjust="spacing" textLength="5" x="230.9541" y="499.1749">*</text><!--MD5=[d328e2a27a3b1754be195f87b0606dec]
link Company to EmailAPI--><path codeLine="45" d="M343.3,69.38 C354.08,106.64 372.13,168.97 381.84,202.49 " fill="none" id="Company-EmailAPI" style="stroke:#A80036;stroke-width:1.0;"/><polygon fill="#000000" points="363.8906,112.9785,364.198,103.4729,358.552,105.1076,363.8906,112.9785" style="stroke:#000000;stroke-width:1.0;"/><text fill="#000000" font-family="sans-serif" font-size="13" lengthAdjust="spacing" textLength="28" x="371.5" y="113.4951">uses</text><text fill="#000000" font-family="sans-serif" font-size="13" lengthAdjust="spacing" textLength="7" x="337.3103" y="90.4311">1</text><text fill="#000000" font-family="sans-serif" font-size="13" lengthAdjust="spacing" textLength="7" x="372.2365" y="191.8276">1</text><!--MD5=[b1dca605c5e12f30907947f8def44493]
link EmailAPI to Notification--><path codeLine="46" d="M385.67,250.6 C381.44,285.07 373.54,349.57 369.32,383.99 " fill="none" id="EmailAPI-Notification" style="stroke:#A80036;stroke-width:1.0;"/><polygon fill="#000000" points="378.8917,350.1386,382.9092,341.5183,377.075,340.8032,378.8917,350.1386" style="stroke:#000000;stroke-width:1.0;"/><text fill="#000000" font-family="sans-serif" font-size="13" lengthAdjust="spacing" textLength="35" x="388.5" y="350.4951">sends</text><text fill="#000000" font-family="sans-serif" font-size="13" lengthAdjust="spacing" textLength="7" x="377.1271" y="271.9623">1</text><text fill="#000000" font-family="sans-serif" font-size="13" lengthAdjust="spacing" textLength="5" x="364.402" y="373.3276">*</text><!--MD5=[3d2d5cdd8aa6df365188843f8b3f5700]
link Client to Notification--><path codeLine="47" d="M275.89,306.28 C283.11,322.86 291.94,339.66 302.5,354 C310.71,365.15 321.76,375.39 332.37,383.84 " fill="none" id="Client-Notification" style="stroke:#A80036;stroke-width:1.0;"/><polygon fill="#000000" points="310.4433,349.2177,307.4945,340.1758,302.743,343.6359,310.4433,349.2177" style="stroke:#000000;stroke-width:1.0;"/><text fill="#000000" font-family="sans-serif" font-size="13" lengthAdjust="spacing" textLength="47" x="316.5" y="350.4951">receives</text><text fill="#000000" font-family="sans-serif" font-size="13" lengthAdjust="spacing" textLength="7" x="270.7028" y="327.0719">1</text><text fill="#000000" font-family="sans-serif" font-size="13" lengthAdjust="spacing" textLength="7" x="315.7273" y="373.1392">1</text><!--MD5=[943f778f4d76be0ea2c55691fe3bc089]
@startuml
'https://plantuml.com/class-diagram

class Employee{
    name
    phoneNumber
    email
    password
    employeeID
    socCode
    organizationRole
    address
}
class LaboratoryCoordinator{
}
class Client{
  name
  phoneNumber
  taxIdentificationNumber
  email
  birthDate
  gender
  nhsNumber
  citizenCardNumber
  }
class Notification
class Company{
designation
}
class Test{
code
nhsCode
createdAt
resultDate
sampleDate
reportDate
}
class EmailAPI

Company "1" - - "*" Client: has >
Employee <|- - LaboratoryCoordinator
Company "1" - - "1..*" Employee: has >
Company "1" - - "*" Test: performs >
LaboratoryCoordinator "1" - - "*" Test: validates >
Client "1" - - "*" Test:has >
Company "1" - -"1" EmailAPI:uses >
EmailAPI "1" - - "*" Notification:sends >
Client "1" - -"1" Notification:receives >

@enduml

@startuml

class Employee{
    name
    phoneNumber
    email
    password
    employeeID
    socCode
    organizationRole
    address
}
class LaboratoryCoordinator{
}
class Client{
  name
  phoneNumber
  taxIdentificationNumber
  email
  birthDate
  gender
  nhsNumber
  citizenCardNumber
  }
class Notification
class Company{
designation
}
class Test{
code
nhsCode
createdAt
resultDate
sampleDate
reportDate
}
class EmailAPI

Company "1" - - "*" Client: has >
Employee <|- - LaboratoryCoordinator
Company "1" - - "1..*" Employee: has >
Company "1" - - "*" Test: performs >
LaboratoryCoordinator "1" - - "*" Test: validates >
Client "1" - - "*" Test:has >
Company "1" - -"1" EmailAPI:uses >
EmailAPI "1" - - "*" Notification:sends >
Client "1" - -"1" Notification:receives >

@enduml

PlantUML version 1.2021.5(Sun Apr 25 12:20:28 BST 2021)
(GPL source distribution)
Java Runtime: OpenJDK Runtime Environment
JVM: Dynamic Code Evolution 64-Bit Server VM
Default Encoding: Cp1252
Language: pt
Country: PT
--></g></svg>