<?xml version="1.0" encoding="UTF-8" standalone="no"?><svg xmlns="http://www.w3.org/2000/svg" xmlns:xlink="http://www.w3.org/1999/xlink" contentScriptType="application/ecmascript" contentStyleType="text/css" height="1418.1px" preserveAspectRatio="none" style="width:1518px;height:1418px;" version="1.1" viewBox="0 0 1518 1418" width="1518.15px" zoomAndPan="magnify"><defs><filter height="300%" id="f18su88upe0ltk" width="300%" x="-1" y="-1"><feGaussianBlur result="blurOut" stdDeviation="1.74"/><feColorMatrix in="blurOut" result="blurOut2" type="matrix" values="0 0 0 0 0 0 0 0 0 0 0 0 0 0 0 0 0 0 .4 0"/><feOffset dx="3.48" dy="3.48" in="blurOut2" result="blurOut3"/><feBlend in="SourceGraphic" in2="blurOut3" mode="normal"/></filter></defs><g><rect fill="#FFFFFF" filter="url(#f18su88upe0ltk)" height="1242.0745" style="stroke:#A80036;stroke-width:0.87;" width="8.7" x="36.54" y="86.6602"/><rect fill="#FFFFFF" filter="url(#f18su88upe0ltk)" height="40.6317" style="stroke:#A80036;stroke-width:0.87;" width="8.7" x="415.86" y="106.106"/><rect fill="#FFFFFF" filter="url(#f18su88upe0ltk)" height="644.8263" style="stroke:#A80036;stroke-width:0.87;" width="8.7" x="415.86" y="173.1436"/><rect fill="#FFFFFF" filter="url(#f18su88upe0ltk)" height="484.3589" style="stroke:#A80036;stroke-width:0.87;" width="8.7" x="415.86" y="844.3758"/><rect fill="#FFFFFF" filter="url(#f18su88upe0ltk)" height="592.0146" style="stroke:#A80036;stroke-width:0.87;" width="8.7" x="562.02" y="199.5495"/><rect fill="#FFFFFF" filter="url(#f18su88upe0ltk)" height="457.953" style="stroke:#A80036;stroke-width:0.87;" width="8.7" x="562.02" y="870.7816"/><rect fill="#FFFFFF" filter="url(#f18su88upe0ltk)" height="26.1" style="stroke:#A80036;stroke-width:0.87;" width="8.7" x="714.27" y="225.9553"/><rect fill="#FFFFFF" filter="url(#f18su88upe0ltk)" height="26.1" style="stroke:#A80036;stroke-width:0.87;" width="8.7" x="714.27" y="1092.7268"/><rect fill="#FFFFFF" filter="url(#f18su88upe0ltk)" height="460.597" style="stroke:#A80036;stroke-width:0.87;" width="8.7" x="814.32" y="278.4612"/><rect fill="#FFFFFF" filter="url(#f18su88upe0ltk)" height="26.1" style="stroke:#A80036;stroke-width:0.87;" width="8.7" x="814.32" y="765.4641"/><rect fill="#FFFFFF" filter="url(#f18su88upe0ltk)" height="431.5472" style="stroke:#A80036;stroke-width:0.87;" width="8.7" x="814.32" y="897.1875"/><rect fill="#FFFFFF" filter="url(#f18su88upe0ltk)" height="24.36" style="stroke:#A80036;stroke-width:0.87;" width="8.7" x="818.67" y="930.5534"/><rect fill="#FFFFFF" filter="url(#f18su88upe0ltk)" height="24.36" style="stroke:#A80036;stroke-width:0.87;" width="8.7" x="818.67" y="1271.8788"/><rect fill="#FFFFFF" filter="url(#f18su88upe0ltk)" height="425.4912" style="stroke:#A80036;stroke-width:0.87;" width="8.7" x="982.23" y="313.567"/><rect fill="#FFFFFF" filter="url(#f18su88upe0ltk)" height="52.5059" style="stroke:#A80036;stroke-width:0.87;" width="8.7" x="982.23" y="987.4092"/><rect fill="#FFFFFF" filter="url(#f18su88upe0ltk)" height="262.4138" style="stroke:#A80036;stroke-width:0.87;" width="8.7" x="982.23" y="1066.3209"/><rect fill="#FFFFFF" filter="url(#f18su88upe0ltk)" height="24.36" style="stroke:#A80036;stroke-width:0.87;" width="8.7" x="986.58" y="1208.063"/><rect fill="#FFFFFF" filter="url(#f18su88upe0ltk)" height="26.1" style="stroke:#A80036;stroke-width:0.87;" width="8.7" x="1297.17" y="345.4172"/><rect fill="#FFFFFF" filter="url(#f18su88upe0ltk)" height="26.1" style="stroke:#A80036;stroke-width:0.87;" width="8.7" x="1297.17" y="397.923"/><rect fill="#FFFFFF" filter="url(#f18su88upe0ltk)" height="26.1" style="stroke:#A80036;stroke-width:0.87;" width="8.7" x="1297.17" y="450.4289"/><rect fill="#FFFFFF" filter="url(#f18su88upe0ltk)" height="26.1" style="stroke:#A80036;stroke-width:0.87;" width="8.7" x="1297.17" y="502.9348"/><rect fill="#FFFFFF" filter="url(#f18su88upe0ltk)" height="26.1" style="stroke:#A80036;stroke-width:0.87;" width="8.7" x="1297.17" y="555.4406"/><rect fill="#FFFFFF" filter="url(#f18su88upe0ltk)" height="26.1" style="stroke:#A80036;stroke-width:0.87;" width="8.7" x="1297.17" y="607.9465"/><rect fill="#FFFFFF" filter="url(#f18su88upe0ltk)" height="26.1" style="stroke:#A80036;stroke-width:0.87;" width="8.7" x="1297.17" y="660.4523"/><rect fill="#FFFFFF" filter="url(#f18su88upe0ltk)" height="26.1" style="stroke:#A80036;stroke-width:0.87;" width="8.7" x="1297.17" y="712.9582"/><rect fill="#FFFFFF" filter="url(#f18su88upe0ltk)" height="26.1" style="stroke:#A80036;stroke-width:0.87;" width="8.7" x="1387.215" y="1013.8151"/><line style="stroke:#A80036;stroke-width:0.87;stroke-dasharray:5.0,5.0;" x1="40.89" x2="40.89" y1="77.9602" y2="1344.3947"/><line style="stroke:#A80036;stroke-width:0.87;stroke-dasharray:5.0,5.0;" x1="419.775" x2="419.775" y1="77.9602" y2="1344.3947"/><line style="stroke:#A80036;stroke-width:0.87;stroke-dasharray:5.0,5.0;" x1="565.935" x2="565.935" y1="77.9602" y2="1344.3947"/><line style="stroke:#A80036;stroke-width:0.87;stroke-dasharray:5.0,5.0;" x1="718.62" x2="718.62" y1="77.9602" y2="1344.3947"/><line style="stroke:#A80036;stroke-width:0.87;stroke-dasharray:5.0,5.0;" x1="818.67" x2="818.67" y1="77.9602" y2="1344.3947"/><line style="stroke:#A80036;stroke-width:0.87;stroke-dasharray:5.0,5.0;" x1="986.145" x2="986.145" y1="314.3963" y2="1344.3947"/><line style="stroke:#A80036;stroke-width:0.87;stroke-dasharray:5.0,5.0;" x1="1301.085" x2="1301.085" y1="77.9602" y2="1344.3947"/><line style="stroke:#A80036;stroke-width:0.87;stroke-dasharray:5.0,5.0;" x1="1391.565" x2="1391.565" y1="77.9602" y2="1344.3947"/><line style="stroke:#A80036;stroke-width:0.87;stroke-dasharray:5.0,5.0;" x1="1465.515" x2="1465.515" y1="1162.422" y2="1344.3947"/><text fill="#000000" font-family="sans-serif" font-size="12.18" lengthAdjust="spacing" textLength="67.86" x="4.35" y="75.2839">Receptionist</text><ellipse cx="40.89" cy="13.05" fill="#FEFECE" filter="url(#f18su88upe0ltk)" rx="6.96" ry="6.96" style="stroke:#A80036;stroke-width:1.74;"/><path d="M40.89,20.01 L40.89,43.5 M29.58,26.97 L52.2,26.97 M40.89,43.5 L29.58,56.55 M40.89,43.5 L52.2,56.55 " fill="none" filter="url(#f18su88upe0ltk)" style="stroke:#A80036;stroke-width:1.74;"/><text fill="#000000" font-family="sans-serif" font-size="12.18" lengthAdjust="spacing" textLength="67.86" x="4.35" y="1356.1686">Receptionist</text><ellipse cx="40.89" cy="1367.5448" fill="#FEFECE" filter="url(#f18su88upe0ltk)" rx="6.96" ry="6.96" style="stroke:#A80036;stroke-width:1.74;"/><path d="M40.89,1374.5048 L40.89,1397.9948 M29.58,1381.4648 L52.2,1381.4648 M40.89,1397.9948 L29.58,1411.0448 M40.89,1397.9948 L52.2,1411.0448 " fill="none" filter="url(#f18su88upe0ltk)" style="stroke:#A80036;stroke-width:1.74;"/><rect fill="#FEFECE" filter="url(#f18su88upe0ltk)" height="27.5002" style="stroke:#A80036;stroke-width:1.305;" width="103.53" x="366.705" y="46.11"/><text fill="#000000" font-family="sans-serif" font-size="12.18" lengthAdjust="spacing" textLength="91.35" x="372.795" y="64.8439">:RegisterClientUI</text><rect fill="#FEFECE" filter="url(#f18su88upe0ltk)" height="27.5002" style="stroke:#A80036;stroke-width:1.305;" width="103.53" x="366.705" y="1343.5247"/><text fill="#000000" font-family="sans-serif" font-size="12.18" lengthAdjust="spacing" textLength="91.35" x="372.795" y="1362.2586">:RegisterClientUI</text><rect fill="#FEFECE" filter="url(#f18su88upe0ltk)" height="27.5002" style="stroke:#A80036;stroke-width:1.305;" width="147.03" x="491.115" y="46.11"/><text fill="#000000" font-family="sans-serif" font-size="12.18" lengthAdjust="spacing" textLength="134.85" x="497.205" y="64.8439">:RegisterClientController</text><rect fill="#FEFECE" filter="url(#f18su88upe0ltk)" height="27.5002" style="stroke:#A80036;stroke-width:1.305;" width="147.03" x="491.115" y="1343.5247"/><text fill="#000000" font-family="sans-serif" font-size="12.18" lengthAdjust="spacing" textLength="134.85" x="497.205" y="1362.2586">:RegisterClientController</text><rect fill="#FEFECE" filter="url(#f18su88upe0ltk)" height="27.5002" style="stroke:#A80036;stroke-width:1.305;" width="67.86" x="682.95" y="46.11"/><text fill="#000000" font-family="sans-serif" font-size="12.18" lengthAdjust="spacing" textLength="55.68" x="689.04" y="64.8439">:Company</text><rect fill="#FEFECE" filter="url(#f18su88upe0ltk)" height="27.5002" style="stroke:#A80036;stroke-width:1.305;" width="67.86" x="682.95" y="1343.5247"/><text fill="#000000" font-family="sans-serif" font-size="12.18" lengthAdjust="spacing" textLength="55.68" x="689.04" y="1362.2586">:Company</text><rect fill="#FEFECE" filter="url(#f18su88upe0ltk)" height="27.5002" style="stroke:#A80036;stroke-width:1.305;" width="107.88" x="762.99" y="46.11"/><text fill="#000000" font-family="sans-serif" font-size="12.18" lengthAdjust="spacing" textLength="95.7" x="769.08" y="64.8439">store: ClientStore</text><rect fill="#FEFECE" filter="url(#f18su88upe0ltk)" height="27.5002" style="stroke:#A80036;stroke-width:1.305;" width="107.88" x="762.99" y="1343.5247"/><text fill="#000000" font-family="sans-serif" font-size="12.18" lengthAdjust="spacing" textLength="95.7" x="769.08" y="1362.2586">store: ClientStore</text><rect fill="#FEFECE" filter="url(#f18su88upe0ltk)" height="27.5002" style="stroke:#A80036;stroke-width:1.305;" width="79.17" x="945.255" y="1343.5247"/><text fill="#000000" font-family="sans-serif" font-size="12.18" lengthAdjust="spacing" textLength="66.99" x="951.345" y="1362.2586">client: Client</text><rect fill="#FEFECE" filter="url(#f18su88upe0ltk)" height="27.5002" style="stroke:#A80036;stroke-width:1.305;" width="117.45" x="1241.055" y="46.11"/><text fill="#000000" font-family="sans-serif" font-size="12.18" lengthAdjust="spacing" textLength="105.27" x="1247.145" y="64.8439">clientDto: ClientDto</text><rect fill="#FEFECE" filter="url(#f18su88upe0ltk)" height="27.5002" style="stroke:#A80036;stroke-width:1.305;" width="117.45" x="1241.055" y="1343.5247"/><text fill="#000000" font-family="sans-serif" font-size="12.18" lengthAdjust="spacing" textLength="105.27" x="1247.145" y="1362.2586">clientDto: ClientDto</text><rect fill="#FEFECE" filter="url(#f18su88upe0ltk)" height="27.5002" style="stroke:#A80036;stroke-width:1.305;" width="38.28" x="1370.685" y="46.11"/><text fill="#000000" font-family="sans-serif" font-size="12.18" lengthAdjust="spacing" textLength="26.1" x="1376.775" y="64.8439">:Utils</text><rect fill="#FEFECE" filter="url(#f18su88upe0ltk)" height="27.5002" style="stroke:#A80036;stroke-width:1.305;" width="38.28" x="1370.685" y="1343.5247"/><text fill="#000000" font-family="sans-serif" font-size="12.18" lengthAdjust="spacing" textLength="26.1" x="1376.775" y="1362.2586">:Utils</text><rect fill="#FEFECE" filter="url(#f18su88upe0ltk)" height="42.8203" style="stroke:#A80036;stroke-width:1.305;" width="85.26" x="1421.145" y="1343.5247"/><text fill="#000000" font-family="sans-serif" font-size="12.18" lengthAdjust="spacing" textLength="69.6" x="1427.235" y="1362.2586">authFacade:</text><text fill="#000000" font-family="sans-serif" font-size="12.18" lengthAdjust="spacing" textLength="66.99" x="1432.02" y="1377.5787">AuthFacade</text><rect fill="#FFFFFF" filter="url(#f18su88upe0ltk)" height="1242.0745" style="stroke:#A80036;stroke-width:0.87;" width="8.7" x="36.54" y="86.6602"/><rect fill="#FFFFFF" filter="url(#f18su88upe0ltk)" height="40.6317" style="stroke:#A80036;stroke-width:0.87;" width="8.7" x="415.86" y="106.106"/><rect fill="#FFFFFF" filter="url(#f18su88upe0ltk)" height="644.8263" style="stroke:#A80036;stroke-width:0.87;" width="8.7" x="415.86" y="173.1436"/><rect fill="#FFFFFF" filter="url(#f18su88upe0ltk)" height="484.3589" style="stroke:#A80036;stroke-width:0.87;" width="8.7" x="415.86" y="844.3758"/><rect fill="#FFFFFF" filter="url(#f18su88upe0ltk)" height="592.0146" style="stroke:#A80036;stroke-width:0.87;" width="8.7" x="562.02" y="199.5495"/><rect fill="#FFFFFF" filter="url(#f18su88upe0ltk)" height="457.953" style="stroke:#A80036;stroke-width:0.87;" width="8.7" x="562.02" y="870.7816"/><rect fill="#FFFFFF" filter="url(#f18su88upe0ltk)" height="26.1" style="stroke:#A80036;stroke-width:0.87;" width="8.7" x="714.27" y="225.9553"/><rect fill="#FFFFFF" filter="url(#f18su88upe0ltk)" height="26.1" style="stroke:#A80036;stroke-width:0.87;" width="8.7" x="714.27" y="1092.7268"/><rect fill="#FFFFFF" filter="url(#f18su88upe0ltk)" height="460.597" style="stroke:#A80036;stroke-width:0.87;" width="8.7" x="814.32" y="278.4612"/><rect fill="#FFFFFF" filter="url(#f18su88upe0ltk)" height="26.1" style="stroke:#A80036;stroke-width:0.87;" width="8.7" x="814.32" y="765.4641"/><rect fill="#FFFFFF" filter="url(#f18su88upe0ltk)" height="431.5472" style="stroke:#A80036;stroke-width:0.87;" width="8.7" x="814.32" y="897.1875"/><rect fill="#FFFFFF" filter="url(#f18su88upe0ltk)" height="24.36" style="stroke:#A80036;stroke-width:0.87;" width="8.7" x="818.67" y="930.5534"/><rect fill="#FFFFFF" filter="url(#f18su88upe0ltk)" height="24.36" style="stroke:#A80036;stroke-width:0.87;" width="8.7" x="818.67" y="1271.8788"/><rect fill="#FFFFFF" filter="url(#f18su88upe0ltk)" height="425.4912" style="stroke:#A80036;stroke-width:0.87;" width="8.7" x="982.23" y="313.567"/><rect fill="#FFFFFF" filter="url(#f18su88upe0ltk)" height="52.5059" style="stroke:#A80036;stroke-width:0.87;" width="8.7" x="982.23" y="987.4092"/><rect fill="#FFFFFF" filter="url(#f18su88upe0ltk)" height="262.4138" style="stroke:#A80036;stroke-width:0.87;" width="8.7" x="982.23" y="1066.3209"/><rect fill="#FFFFFF" filter="url(#f18su88upe0ltk)" height="24.36" style="stroke:#A80036;stroke-width:0.87;" width="8.7" x="986.58" y="1208.063"/><rect fill="#FFFFFF" filter="url(#f18su88upe0ltk)" height="26.1" style="stroke:#A80036;stroke-width:0.87;" width="8.7" x="1297.17" y="345.4172"/><rect fill="#FFFFFF" filter="url(#f18su88upe0ltk)" height="26.1" style="stroke:#A80036;stroke-width:0.87;" width="8.7" x="1297.17" y="397.923"/><rect fill="#FFFFFF" filter="url(#f18su88upe0ltk)" height="26.1" style="stroke:#A80036;stroke-width:0.87;" width="8.7" x="1297.17" y="450.4289"/><rect fill="#FFFFFF" filter="url(#f18su88upe0ltk)" height="26.1" style="stroke:#A80036;stroke-width:0.87;" width="8.7" x="1297.17" y="502.9348"/><rect fill="#FFFFFF" filter="url(#f18su88upe0ltk)" height="26.1" style="stroke:#A80036;stroke-width:0.87;" width="8.7" x="1297.17" y="555.4406"/><rect fill="#FFFFFF" filter="url(#f18su88upe0ltk)" height="26.1" style="stroke:#A80036;stroke-width:0.87;" width="8.7" x="1297.17" y="607.9465"/><rect fill="#FFFFFF" filter="url(#f18su88upe0ltk)" height="26.1" style="stroke:#A80036;stroke-width:0.87;" width="8.7" x="1297.17" y="660.4523"/><rect fill="#FFFFFF" filter="url(#f18su88upe0ltk)" height="26.1" style="stroke:#A80036;stroke-width:0.87;" width="8.7" x="1297.17" y="712.9582"/><rect fill="#FFFFFF" filter="url(#f18su88upe0ltk)" height="26.1" style="stroke:#A80036;stroke-width:0.87;" width="8.7" x="1387.215" y="1013.8151"/><polygon fill="#A80036" points="405.42,102.626,414.12,106.106,405.42,109.586,408.9,106.106" style="stroke:#A80036;stroke-width:0.87;"/><line style="stroke:#A80036;stroke-width:0.87;" x1="45.24" x2="410.64" y1="106.106" y2="106.106"/><text fill="#000000" font-family="sans-serif" font-size="11.31" font-weight="bold" lengthAdjust="spacing" textLength="6.09" x="51.33" y="101.8809">1</text><text fill="#000000" font-family="sans-serif" font-size="11.31" lengthAdjust="spacing" textLength="118.32" x="60.9" y="101.8809">starts client registration</text><polygon fill="#A80036" points="54.81,143.2577,46.11,146.7377,54.81,150.2177,51.33,146.7377" style="stroke:#A80036;stroke-width:0.87;"/><line style="stroke:#A80036;stroke-width:0.87;" x1="49.59" x2="419.34" y1="146.7377" y2="146.7377"/><text fill="#000000" font-family="sans-serif" font-size="11.31" font-weight="bold" lengthAdjust="spacing" textLength="6.09" x="60.03" y="135.3997">2</text><text fill="#000000" font-family="sans-serif" font-size="11.31" lengthAdjust="spacing" textLength="268.83" x="69.6" y="128.2868">requests data ( name, email, taxIdentificationNumber,</text><text fill="#000000" font-family="sans-serif" font-size="11.31" lengthAdjust="spacing" textLength="336.69" x="73.08" y="142.5126">citizenCardNumber, nhsNumber, birthDate, gender, phoneNumber )</text><polygon fill="#A80036" points="405.42,169.6636,414.12,173.1436,405.42,176.6236,408.9,173.1436" style="stroke:#A80036;stroke-width:0.87;"/><line style="stroke:#A80036;stroke-width:0.87;" x1="45.24" x2="410.64" y1="173.1436" y2="173.1436"/><text fill="#000000" font-family="sans-serif" font-size="11.31" font-weight="bold" lengthAdjust="spacing" textLength="6.09" x="51.33" y="168.9185">3</text><text fill="#000000" font-family="sans-serif" font-size="11.31" lengthAdjust="spacing" textLength="106.14" x="60.9" y="168.9185">types requested data</text><polygon fill="#A80036" points="551.58,196.0695,560.28,199.5495,551.58,203.0295,555.06,199.5495" style="stroke:#A80036;stroke-width:0.87;"/><line style="stroke:#A80036;stroke-width:0.87;" x1="424.56" x2="556.8" y1="199.5495" y2="199.5495"/><text fill="#000000" font-family="sans-serif" font-size="11.31" font-weight="bold" lengthAdjust="spacing" textLength="6.09" x="430.65" y="195.3243">4</text><text fill="#000000" font-family="sans-serif" font-size="11.31" lengthAdjust="spacing" textLength="111.36" x="440.22" y="195.3243">createClient(clientDto)</text><polygon fill="#A80036" points="703.83,222.4753,712.53,225.9553,703.83,229.4353,707.31,225.9553" style="stroke:#A80036;stroke-width:0.87;"/><line style="stroke:#A80036;stroke-width:0.87;" x1="570.72" x2="709.05" y1="225.9553" y2="225.9553"/><text fill="#000000" font-family="sans-serif" font-size="11.31" font-weight="bold" lengthAdjust="spacing" textLength="6.09" x="576.81" y="221.7302">5</text><text fill="#000000" font-family="sans-serif" font-size="11.31" lengthAdjust="spacing" textLength="117.45" x="586.38" y="221.7302">store = getClientStore()</text><polygon fill="#A80036" points="803.88,274.9812,812.58,278.4612,803.88,281.9412,807.36,278.4612" style="stroke:#A80036;stroke-width:0.87;"/><line style="stroke:#A80036;stroke-width:0.87;" x1="570.72" x2="809.1" y1="278.4612" y2="278.4612"/><text fill="#000000" font-family="sans-serif" font-size="11.31" font-weight="bold" lengthAdjust="spacing" textLength="6.09" x="576.81" y="274.2361">6</text><text fill="#000000" font-family="sans-serif" font-size="11.31" lengthAdjust="spacing" textLength="155.73" x="586.38" y="274.2361">client = createClient(clientDto))</text><polygon fill="#A80036" points="934.815,301.387,943.515,304.867,934.815,308.347,938.295,304.867" style="stroke:#A80036;stroke-width:0.87;"/><line style="stroke:#A80036;stroke-width:0.87;" x1="823.02" x2="940.035" y1="304.867" y2="304.867"/><text fill="#000000" font-family="sans-serif" font-size="11.31" font-weight="bold" lengthAdjust="spacing" textLength="6.09" x="829.11" y="300.6419">7</text><text fill="#000000" font-family="sans-serif" font-size="11.31" lengthAdjust="spacing" textLength="86.13" x="838.68" y="300.6419">create((clientDto)</text><rect fill="#FEFECE" filter="url(#f18su88upe0ltk)" height="27.5002" style="stroke:#A80036;stroke-width:1.305;" width="79.17" x="945.255" y="285.4212"/><text fill="#000000" font-family="sans-serif" font-size="12.18" lengthAdjust="spacing" textLength="66.99" x="951.345" y="304.1551">client: Client</text><polygon fill="#A80036" points="1286.73,341.9372,1295.43,345.4172,1286.73,348.8972,1290.21,345.4172" style="stroke:#A80036;stroke-width:0.87;"/><line style="stroke:#A80036;stroke-width:0.87;" x1="990.93" x2="1291.95" y1="345.4172" y2="345.4172"/><text fill="#000000" font-family="sans-serif" font-size="11.31" font-weight="bold" lengthAdjust="spacing" textLength="6.09" x="997.02" y="341.1921">8</text><text fill="#000000" font-family="sans-serif" font-size="11.31" lengthAdjust="spacing" textLength="93.96" x="1006.59" y="341.1921">name = getName()</text><polygon fill="#A80036" points="1286.73,394.443,1295.43,397.923,1286.73,401.403,1290.21,397.923" style="stroke:#A80036;stroke-width:0.87;"/><line style="stroke:#A80036;stroke-width:0.87;" x1="990.93" x2="1291.95" y1="397.923" y2="397.923"/><text fill="#000000" font-family="sans-serif" font-size="11.31" font-weight="bold" lengthAdjust="spacing" textLength="6.09" x="997.02" y="393.6979">9</text><text fill="#000000" font-family="sans-serif" font-size="11.31" lengthAdjust="spacing" textLength="92.22" x="1006.59" y="393.6979">email = getEmail()</text><polygon fill="#A80036" points="1286.73,446.9489,1295.43,450.4289,1286.73,453.9089,1290.21,450.4289" style="stroke:#A80036;stroke-width:0.87;"/><line style="stroke:#A80036;stroke-width:0.87;" x1="990.93" x2="1291.95" y1="450.4289" y2="450.4289"/><text fill="#000000" font-family="sans-serif" font-size="11.31" font-weight="bold" lengthAdjust="spacing" textLength="12.18" x="997.02" y="446.2038">10</text><text fill="#000000" font-family="sans-serif" font-size="11.31" lengthAdjust="spacing" textLength="274.05" x="1012.68" y="446.2038">taxIdentificationNumber = getTaxIdentificationNumber()</text><polygon fill="#A80036" points="1286.73,499.4548,1295.43,502.9348,1286.73,506.4148,1290.21,502.9348" style="stroke:#A80036;stroke-width:0.87;"/><line style="stroke:#A80036;stroke-width:0.87;" x1="990.93" x2="1291.95" y1="502.9348" y2="502.9348"/><text fill="#000000" font-family="sans-serif" font-size="11.31" font-weight="bold" lengthAdjust="spacing" textLength="12.18" x="997.02" y="498.7097">11</text><text fill="#000000" font-family="sans-serif" font-size="11.31" lengthAdjust="spacing" textLength="229.68" x="1012.68" y="498.7097">citizenCardNumber = getCitizenCardNumber()</text><polygon fill="#A80036" points="1286.73,551.9606,1295.43,555.4406,1286.73,558.9206,1290.21,555.4406" style="stroke:#A80036;stroke-width:0.87;"/><line style="stroke:#A80036;stroke-width:0.87;" x1="990.93" x2="1291.95" y1="555.4406" y2="555.4406"/><text fill="#000000" font-family="sans-serif" font-size="11.31" font-weight="bold" lengthAdjust="spacing" textLength="12.18" x="997.02" y="551.2155">12</text><text fill="#000000" font-family="sans-serif" font-size="11.31" lengthAdjust="spacing" textLength="149.64" x="1012.68" y="551.2155">nhsNumber= getNhsNumber()</text><polygon fill="#A80036" points="1286.73,604.4665,1295.43,607.9465,1286.73,611.4265,1290.21,607.9465" style="stroke:#A80036;stroke-width:0.87;"/><line style="stroke:#A80036;stroke-width:0.87;" x1="990.93" x2="1291.95" y1="607.9465" y2="607.9465"/><text fill="#000000" font-family="sans-serif" font-size="11.31" font-weight="bold" lengthAdjust="spacing" textLength="12.18" x="997.02" y="603.7214">13</text><text fill="#000000" font-family="sans-serif" font-size="11.31" lengthAdjust="spacing" textLength="125.28" x="1012.68" y="603.7214">birthDate= getBirthDate()</text><polygon fill="#A80036" points="1286.73,656.9723,1295.43,660.4523,1286.73,663.9323,1290.21,660.4523" style="stroke:#A80036;stroke-width:0.87;"/><line style="stroke:#A80036;stroke-width:0.87;" x1="990.93" x2="1291.95" y1="660.4523" y2="660.4523"/><text fill="#000000" font-family="sans-serif" font-size="11.31" font-weight="bold" lengthAdjust="spacing" textLength="12.18" x="997.02" y="656.2272">14</text><text fill="#000000" font-family="sans-serif" font-size="11.31" lengthAdjust="spacing" textLength="107.01" x="1012.68" y="656.2272">gender = getGender()</text><polygon fill="#A80036" points="1286.73,709.4782,1295.43,712.9582,1286.73,716.4382,1290.21,712.9582" style="stroke:#A80036;stroke-width:0.87;"/><line style="stroke:#A80036;stroke-width:0.87;" x1="990.93" x2="1291.95" y1="712.9582" y2="712.9582"/><text fill="#000000" font-family="sans-serif" font-size="11.31" font-weight="bold" lengthAdjust="spacing" textLength="12.18" x="997.02" y="708.7331">15</text><text fill="#000000" font-family="sans-serif" font-size="11.31" lengthAdjust="spacing" textLength="177.48" x="1012.68" y="708.7331">phoneNumber = getPhoneNumber()</text><polygon fill="#A80036" points="803.88,761.9841,812.58,765.4641,803.88,768.9441,807.36,765.4641" style="stroke:#A80036;stroke-width:0.87;"/><line style="stroke:#A80036;stroke-width:0.87;" x1="570.72" x2="809.1" y1="765.4641" y2="765.4641"/><text fill="#000000" font-family="sans-serif" font-size="11.31" font-weight="bold" lengthAdjust="spacing" textLength="12.18" x="576.81" y="761.239">16</text><text fill="#000000" font-family="sans-serif" font-size="11.31" lengthAdjust="spacing" textLength="100.05" x="592.47" y="761.239">validateClient(client)</text><polygon fill="#A80036" points="54.81,814.4899,46.11,817.9699,54.81,821.4499,51.33,817.9699" style="stroke:#A80036;stroke-width:0.87;"/><line style="stroke:#A80036;stroke-width:0.87;" x1="49.59" x2="419.34" y1="817.9699" y2="817.9699"/><text fill="#000000" font-family="sans-serif" font-size="11.31" font-weight="bold" lengthAdjust="spacing" textLength="12.18" x="60.03" y="813.7448">17</text><text fill="#000000" font-family="sans-serif" font-size="11.31" lengthAdjust="spacing" textLength="250.56" x="75.69" y="813.7448">shows the typed data and requests a confirmation</text><polygon fill="#A80036" points="405.42,840.8958,414.12,844.3758,405.42,847.8558,408.9,844.3758" style="stroke:#A80036;stroke-width:0.87;"/><line style="stroke:#A80036;stroke-width:0.87;" x1="45.24" x2="410.64" y1="844.3758" y2="844.3758"/><text fill="#000000" font-family="sans-serif" font-size="11.31" font-weight="bold" lengthAdjust="spacing" textLength="12.18" x="51.33" y="840.1507">18</text><text fill="#000000" font-family="sans-serif" font-size="11.31" lengthAdjust="spacing" textLength="87" x="66.99" y="840.1507">confirms the data</text><polygon fill="#A80036" points="551.58,867.3016,560.28,870.7816,551.58,874.2616,555.06,870.7816" style="stroke:#A80036;stroke-width:0.87;"/><line style="stroke:#A80036;stroke-width:0.87;" x1="424.56" x2="556.8" y1="870.7816" y2="870.7816"/><text fill="#000000" font-family="sans-serif" font-size="11.31" font-weight="bold" lengthAdjust="spacing" textLength="12.18" x="430.65" y="866.5565">19</text><text fill="#000000" font-family="sans-serif" font-size="11.31" lengthAdjust="spacing" textLength="58.29" x="446.31" y="866.5565">saveClient()</text><polygon fill="#A80036" points="803.88,893.7075,812.58,897.1875,803.88,900.6675,807.36,897.1875" style="stroke:#A80036;stroke-width:0.87;"/><line style="stroke:#A80036;stroke-width:0.87;" x1="570.72" x2="809.1" y1="897.1875" y2="897.1875"/><text fill="#000000" font-family="sans-serif" font-size="11.31" font-weight="bold" lengthAdjust="spacing" textLength="12.18" x="576.81" y="892.9624">20</text><text fill="#000000" font-family="sans-serif" font-size="11.31" lengthAdjust="spacing" textLength="85.26" x="592.47" y="892.9624">saveClient(client)</text><line style="stroke:#A80036;stroke-width:0.87;" x1="827.37" x2="863.91" y1="923.5934" y2="923.5934"/><line style="stroke:#A80036;stroke-width:0.87;" x1="863.91" x2="863.91" y1="923.5934" y2="934.9034"/><line style="stroke:#A80036;stroke-width:0.87;" x1="828.24" x2="863.91" y1="934.9034" y2="934.9034"/><polygon fill="#A80036" points="836.94,931.4234,828.24,934.9034,836.94,938.3834,833.46,934.9034" style="stroke:#A80036;stroke-width:0.87;"/><text fill="#000000" font-family="sans-serif" font-size="11.31" font-weight="bold" lengthAdjust="spacing" textLength="12.18" x="833.46" y="919.3683">21</text><text fill="#000000" font-family="sans-serif" font-size="11.31" lengthAdjust="spacing" textLength="100.05" x="849.12" y="919.3683">validateClient(client)</text><polygon fill="#A80036" points="971.79,983.9292,980.49,987.4092,971.79,990.8892,975.27,987.4092" style="stroke:#A80036;stroke-width:0.87;"/><line style="stroke:#A80036;stroke-width:0.87;" x1="823.02" x2="977.01" y1="987.4092" y2="987.4092"/><text fill="#000000" font-family="sans-serif" font-size="11.31" font-weight="bold" lengthAdjust="spacing" textLength="12.18" x="829.11" y="983.1841">22</text><text fill="#000000" font-family="sans-serif" font-size="11.31" lengthAdjust="spacing" textLength="72.21" x="844.77" y="983.1841">setPassword()</text><polygon fill="#A80036" points="1376.775,1010.3351,1385.475,1013.8151,1376.775,1017.2951,1380.255,1013.8151" style="stroke:#A80036;stroke-width:0.87;"/><line style="stroke:#A80036;stroke-width:0.87;" x1="990.93" x2="1381.995" y1="1013.8151" y2="1013.8151"/><text fill="#000000" font-family="sans-serif" font-size="11.31" font-weight="bold" lengthAdjust="spacing" textLength="12.18" x="997.02" y="1009.59">23</text><text fill="#000000" font-family="sans-serif" font-size="11.31" lengthAdjust="spacing" textLength="141.81" x="1012.68" y="1009.59">generateRandomPassword()</text><polygon fill="#A80036" points="971.79,1062.8409,980.49,1066.3209,971.79,1069.8009,975.27,1066.3209" style="stroke:#A80036;stroke-width:0.87;"/><line style="stroke:#A80036;stroke-width:0.87;" x1="823.02" x2="977.01" y1="1066.3209" y2="1066.3209"/><text fill="#000000" font-family="sans-serif" font-size="11.31" font-weight="bold" lengthAdjust="spacing" textLength="12.18" x="829.11" y="1062.0958">24</text><text fill="#000000" font-family="sans-serif" font-size="11.31" lengthAdjust="spacing" textLength="127.02" x="844.77" y="1062.0958">addUserAndSendEmail();</text><polygon fill="#A80036" points="732.54,1089.2468,723.84,1092.7268,732.54,1096.2068,729.06,1092.7268" style="stroke:#A80036;stroke-width:0.87;"/><line style="stroke:#A80036;stroke-width:0.87;" x1="727.32" x2="981.36" y1="1092.7268" y2="1092.7268"/><text fill="#000000" font-family="sans-serif" font-size="11.31" font-weight="bold" lengthAdjust="spacing" textLength="12.18" x="737.76" y="1088.5017">25</text><text fill="#000000" font-family="sans-serif" font-size="11.31" lengthAdjust="spacing" textLength="160.08" x="753.42" y="1088.5017">authFacade = getAuthFacade();</text><polygon fill="#A80036" points="1410.705,1141.7527,1419.405,1145.2327,1410.705,1148.7127,1414.185,1145.2327" style="stroke:#A80036;stroke-width:0.87;"/><line style="stroke:#A80036;stroke-width:0.87;" x1="990.93" x2="1415.925" y1="1145.2327" y2="1145.2327"/><text fill="#000000" font-family="sans-serif" font-size="11.31" font-weight="bold" lengthAdjust="spacing" textLength="12.18" x="997.02" y="1141.0075">26</text><text fill="#000000" font-family="sans-serif" font-size="11.31" lengthAdjust="spacing" textLength="214.89" x="1012.68" y="1141.0075">addUser(name, email.toString(), password)</text><rect fill="#FEFECE" filter="url(#f18su88upe0ltk)" height="42.8203" style="stroke:#A80036;stroke-width:1.305;" width="85.26" x="1421.145" y="1125.7868"/><text fill="#000000" font-family="sans-serif" font-size="12.18" lengthAdjust="spacing" textLength="69.6" x="1427.235" y="1144.5207">authFacade:</text><text fill="#000000" font-family="sans-serif" font-size="12.18" lengthAdjust="spacing" textLength="66.99" x="1432.02" y="1159.8408">AuthFacade</text><line style="stroke:#A80036;stroke-width:0.87;" x1="995.28" x2="1031.82" y1="1201.103" y2="1201.103"/><line style="stroke:#A80036;stroke-width:0.87;" x1="1031.82" x2="1031.82" y1="1201.103" y2="1212.413"/><line style="stroke:#A80036;stroke-width:0.87;" x1="996.15" x2="1031.82" y1="1212.413" y2="1212.413"/><polygon fill="#A80036" points="1004.85,1208.933,996.15,1212.413,1004.85,1215.893,1001.37,1212.413" style="stroke:#A80036;stroke-width:0.87;"/><text fill="#000000" font-family="sans-serif" font-size="11.31" font-weight="bold" lengthAdjust="spacing" textLength="12.18" x="1001.37" y="1196.8779">27</text><text fill="#000000" font-family="sans-serif" font-size="11.31" lengthAdjust="spacing" textLength="180.09" x="1017.03" y="1196.8779">sendEmail(email, name, password);</text><line style="stroke:#A80036;stroke-width:0.87;" x1="827.37" x2="863.91" y1="1264.9188" y2="1264.9188"/><line style="stroke:#A80036;stroke-width:0.87;" x1="863.91" x2="863.91" y1="1264.9188" y2="1276.2288"/><line style="stroke:#A80036;stroke-width:0.87;" x1="828.24" x2="863.91" y1="1276.2288" y2="1276.2288"/><polygon fill="#A80036" points="836.94,1272.7488,828.24,1276.2288,836.94,1279.7088,833.46,1276.2288" style="stroke:#A80036;stroke-width:0.87;"/><text fill="#000000" font-family="sans-serif" font-size="11.31" font-weight="bold" lengthAdjust="spacing" textLength="12.18" x="833.46" y="1260.6937">28</text><text fill="#000000" font-family="sans-serif" font-size="11.31" lengthAdjust="spacing" textLength="80.91" x="849.12" y="1260.6937">addClient(client)</text><polygon fill="#A80036" points="50.46,1325.2547,41.76,1328.7347,50.46,1332.2147,46.98,1328.7347" style="stroke:#A80036;stroke-width:0.87;"/><line style="stroke:#A80036;stroke-width:0.87;" x1="45.24" x2="419.34" y1="1328.7347" y2="1328.7347"/><text fill="#000000" font-family="sans-serif" font-size="11.31" font-weight="bold" lengthAdjust="spacing" textLength="12.18" x="55.68" y="1324.5096">29</text><text fill="#000000" font-family="sans-serif" font-size="11.31" lengthAdjust="spacing" textLength="132.24" x="71.34" y="1324.5096">informs operation success</text><!--MD5=[fe6b4d27566ad2d534eee1b39869c28c]
@startuml

actor Receptionist as R
participant ":RegisterClientUI" as A
participant ":RegisterClientController" as B
participant ":Company" as C
participant "store: ClientStore" as D



autonumber
activate R
R -> A: starts client registration
activate A
A -> R: requests data ( name, email, taxIdentificationNumber, \n citizenCardNumber, nhsNumber, birthDate, gender, phoneNumber )
deactivate A
R -> A: types requested data
activate A
A-> B: createClient(clientDto)
activate B
B-> C: store = getClientStore()
activate C
deactivate C
B -> D: client = createClient(clientDto))
activate D
create  "client: Client" as E
D ->E: create((clientDto)
activate E
participant "clientDto: ClientDto" as Cdto
E->Cdto: name = getName()
activate Cdto
deactivate Cdto
E->Cdto: email = getEmail()
activate Cdto
deactivate Cdto
E->Cdto: taxIdentificationNumber = getTaxIdentificationNumber()
activate Cdto
deactivate Cdto
E->Cdto: citizenCardNumber = getCitizenCardNumber()
activate Cdto
deactivate Cdto
E->Cdto: nhsNumber= getNhsNumber()
activate Cdto
deactivate Cdto
E->Cdto: birthDate= getBirthDate()
activate Cdto
deactivate Cdto
E->Cdto: gender = getGender()
activate Cdto
deactivate Cdto
E->Cdto: phoneNumber = getPhoneNumber()
activate Cdto
deactivate Cdto
deactivate E
deactivate D
B -> D: validateClient(client)
activate D
deactivate D
deactivate B
A -> R: shows the typed data and requests a confirmation
deactivate A
R-> A:  confirms the data
activate A

A-> B: saveClient()
activate B

B -> D: saveClient(client)
activate D

D -> D: validateClient(client)
activate D
deactivate D
D->E: setPassword()
activate E
participant ":Utils" as U
E->U: generateRandomPassword()
activate U
deactivate U
deactivate E
D-> E: addUserAndSendEmail();
activate E
E-> C : authFacade = getAuthFacade();
activate C
deactivate C
create "authFacade: \n AuthFacade" as Auth
E -> Auth : addUser(name, email.toString(), password)
E->E : sendEmail(email, name, password);
activate E
deactivate E
D -> D: addClient(client)
activate D
deactivate D
A -> R: informs operation success
deactivate B
deactivate D
deactivate A
deactivate R
deactivate E



@enduml

PlantUML version 1.2021.00(Sun Jan 10 10:25:05 GMT 2021)
(GPL source distribution)
Java Runtime: OpenJDK Runtime Environment
JVM: OpenJDK 64-Bit Server VM
Default Encoding: Cp1252
Language: pt
Country: PT
--></g></svg>