<?xml version="1.0" encoding="UTF-8" standalone="no"?><svg xmlns="http://www.w3.org/2000/svg" xmlns:xlink="http://www.w3.org/1999/xlink" contentScriptType="application/ecmascript" contentStyleType="text/css" height="1087.5px" preserveAspectRatio="none" style="width:1059px;height:1087px;" version="1.1" viewBox="0 0 1059 1087" width="1059.66px" zoomAndPan="magnify"><defs><filter height="300%" id="feixf0a4eegor" width="300%" x="-1" y="-1"><feGaussianBlur result="blurOut" stdDeviation="1.74"/><feColorMatrix in="blurOut" result="blurOut2" type="matrix" values="0 0 0 0 0 0 0 0 0 0 0 0 0 0 0 0 0 0 .4 0"/><feOffset dx="3.48" dy="3.48" in="blurOut2" result="blurOut3"/><feBlend in="SourceGraphic" in2="blurOut3" mode="normal"/></filter></defs><g><!--MD5=[02e4b9b7573f1156f41e60aa5b4e25a4]
class Company--><rect codeLine="3" fill="#FEFECE" filter="url(#feixf0a4eegor)" height="65.8345" id="Company" style="stroke:#A80036;stroke-width:1.305;" width="97.44" x="639.015" y="220.11"/><ellipse cx="662.6355" cy="234.03" fill="#ADD1B2" rx="9.57" ry="9.57" style="stroke:#A80036;stroke-width:0.87;"/><path d="M664.3755,230.985 Q664.5522,230.55 664.7561,230.3325 Q664.96,230.115 665.1911,230.115 Q665.5989,230.115 665.8572,230.3597 Q666.1155,230.6044 666.1155,231.1753 L666.1155,232.5347 Q666.1155,233.1056 665.8708,233.3503 Q665.6261,233.595 665.2455,233.595 Q664.9057,233.595 664.6882,233.4455 Q664.4707,233.2959 664.3755,232.9017 Q664.3347,232.6298 664.1852,232.4803 Q663.9133,232.1948 663.4239,232.0317 Q662.9346,231.855 662.4452,231.855 Q661.8335,231.855 661.3169,232.0997 Q660.8139,232.3444 660.4197,232.8881 Q660.0255,233.4319 660.0255,234.1795 L660.0255,234.9816 Q660.0255,235.8788 660.7596,236.4769 Q661.4936,237.075 662.7986,237.075 Q663.5735,237.075 664.1172,236.8983 Q664.4299,236.8031 664.7833,236.4905 Q665.0144,236.3138 665.1368,236.2594 Q665.2591,236.205 665.4086,236.205 Q665.6941,236.205 665.898,236.4361 Q666.1155,236.6536 666.1155,236.9663 Q666.1155,237.2653 665.8164,237.6188 Q665.3814,238.1353 664.6882,238.4208 Q663.7774,238.815 662.6627,238.815 Q661.3577,238.815 660.311,238.2984 Q659.4682,237.8906 658.87,237.007 Q658.2855,236.1234 658.2855,235.0767 L658.2855,234.1252 Q658.2855,233.0377 658.8021,232.0861 Q659.3322,231.1345 660.243,230.6316 Q661.1674,230.115 662.2005,230.115 Q662.8258,230.115 663.3696,230.3325 Q663.9133,230.55 664.3755,230.985 Z " fill="#000000"/><text fill="#000000" font-family="sans-serif" font-size="10.44" lengthAdjust="spacing" textLength="46.11" x="677.1645" y="238.3018">Company</text><line style="stroke:#A80036;stroke-width:1.305;" x1="639.885" x2="735.585" y1="247.95" y2="247.95"/><rect fill="none" height="5.22" style="stroke:#C82930;stroke-width:0.87;" width="5.22" x="645.975" y="254.91"/><text fill="#000000" font-family="sans-serif" font-size="9.57" lengthAdjust="spacing" textLength="74.82" x="656.415" y="261.3645">String designation</text><line style="stroke:#A80036;stroke-width:1.305;" x1="639.885" x2="735.585" y1="266.9473" y2="266.9473"/><ellipse cx="648.585" cy="276.5173" fill="#84BE84" rx="2.61" ry="2.61" style="stroke:#038048;stroke-width:0.87;"/><text fill="#000000" font-family="sans-serif" font-size="9.57" lengthAdjust="spacing" textLength="65.25" x="656.415" y="280.3617">getClientStore()</text><!--MD5=[71152100d89f377ebd8dc97f1c2b0d02]
class RegisterClientUI--><rect codeLine="7" fill="#FEFECE" filter="url(#feixf0a4eegor)" height="41.76" id="RegisterClientUI" style="stroke:#A80036;stroke-width:1.305;" width="107.01" x="852.6" y="6.09"/><ellipse cx="865.65" cy="20.01" fill="#ADD1B2" rx="9.57" ry="9.57" style="stroke:#A80036;stroke-width:0.87;"/><path d="M867.39,16.965 Q867.5667,16.53 867.7706,16.3125 Q867.9745,16.095 868.2056,16.095 Q868.6134,16.095 868.8717,16.3397 Q869.13,16.5844 869.13,17.1553 L869.13,18.5147 Q869.13,19.0856 868.8853,19.3303 Q868.6406,19.575 868.26,19.575 Q867.9202,19.575 867.7027,19.4255 Q867.4852,19.2759 867.39,18.8817 Q867.3492,18.6098 867.1997,18.4603 Q866.9278,18.1748 866.4384,18.0117 Q865.9491,17.835 865.4597,17.835 Q864.848,17.835 864.3314,18.0797 Q863.8284,18.3244 863.4342,18.8681 Q863.04,19.4119 863.04,20.1595 L863.04,20.9616 Q863.04,21.8588 863.7741,22.4569 Q864.5081,23.055 865.8131,23.055 Q866.588,23.055 867.1317,22.8783 Q867.4444,22.7831 867.7978,22.4705 Q868.0289,22.2938 868.1513,22.2394 Q868.2736,22.185 868.4231,22.185 Q868.7086,22.185 868.9125,22.4161 Q869.13,22.6336 869.13,22.9463 Q869.13,23.2453 868.8309,23.5988 Q868.3959,24.1153 867.7027,24.4008 Q866.7919,24.795 865.6772,24.795 Q864.3722,24.795 863.3255,24.2784 Q862.4827,23.8706 861.8845,22.987 Q861.3,22.1034 861.3,21.0567 L861.3,20.1052 Q861.3,19.0177 861.8166,18.0661 Q862.3467,17.1145 863.2575,16.6116 Q864.1819,16.095 865.215,16.095 Q865.8403,16.095 866.3841,16.3125 Q866.9278,16.53 867.39,16.965 Z " fill="#000000"/><text fill="#000000" font-family="sans-serif" font-size="10.44" lengthAdjust="spacing" textLength="79.17" x="877.83" y="24.2818">RegisterClientUI</text><line style="stroke:#A80036;stroke-width:1.305;" x1="853.47" x2="958.74" y1="33.93" y2="33.93"/><line style="stroke:#A80036;stroke-width:1.305;" x1="853.47" x2="958.74" y1="40.89" y2="40.89"/><!--MD5=[1a7fda4a36185bcd740bdf14b2b3a45e]
class RegisterClientController--><rect codeLine="9" fill="#FEFECE" filter="url(#feixf0a4eegor)" height="65.8345" id="RegisterClientController" style="stroke:#A80036;stroke-width:1.305;" width="153.99" x="767.34" y="100.92"/><ellipse cx="785.088" cy="114.84" fill="#ADD1B2" rx="9.57" ry="9.57" style="stroke:#A80036;stroke-width:0.87;"/><path d="M786.828,111.795 Q787.0047,111.36 787.2086,111.1425 Q787.4125,110.925 787.6436,110.925 Q788.0514,110.925 788.3097,111.1697 Q788.568,111.4144 788.568,111.9853 L788.568,113.3447 Q788.568,113.9156 788.3233,114.1603 Q788.0786,114.405 787.698,114.405 Q787.3582,114.405 787.1407,114.2555 Q786.9232,114.1059 786.828,113.7117 Q786.7872,113.4398 786.6377,113.2903 Q786.3658,113.0048 785.8764,112.8417 Q785.3871,112.665 784.8977,112.665 Q784.286,112.665 783.7694,112.9097 Q783.2664,113.1544 782.8722,113.6981 Q782.478,114.2419 782.478,114.9895 L782.478,115.7916 Q782.478,116.6888 783.2121,117.2869 Q783.9461,117.885 785.2511,117.885 Q786.026,117.885 786.5697,117.7083 Q786.8824,117.6131 787.2358,117.3005 Q787.4669,117.1238 787.5893,117.0694 Q787.7116,117.015 787.8611,117.015 Q788.1466,117.015 788.3505,117.2461 Q788.568,117.4636 788.568,117.7763 Q788.568,118.0753 788.2689,118.4288 Q787.8339,118.9453 787.1407,119.2308 Q786.2299,119.625 785.1152,119.625 Q783.8102,119.625 782.7635,119.1084 Q781.9207,118.7006 781.3225,117.817 Q780.738,116.9334 780.738,115.8867 L780.738,114.9352 Q780.738,113.8477 781.2546,112.8961 Q781.7847,111.9445 782.6955,111.4416 Q783.6199,110.925 784.653,110.925 Q785.2783,110.925 785.8221,111.1425 Q786.3658,111.36 786.828,111.795 Z " fill="#000000"/><text fill="#000000" font-family="sans-serif" font-size="10.44" lengthAdjust="spacing" textLength="115.71" x="798.312" y="119.1118">RegisterClientController</text><line style="stroke:#A80036;stroke-width:1.305;" x1="768.21" x2="920.46" y1="128.76" y2="128.76"/><line style="stroke:#A80036;stroke-width:1.305;" x1="768.21" x2="920.46" y1="135.72" y2="135.72"/><ellipse cx="776.91" cy="145.29" fill="#84BE84" rx="2.61" ry="2.61" style="stroke:#038048;stroke-width:0.87;"/><text fill="#000000" font-family="sans-serif" font-size="9.57" lengthAdjust="spacing" textLength="131.37" x="784.74" y="149.1345">createClient(ClientDto clientDto)</text><ellipse cx="776.91" cy="157.3273" fill="#84BE84" rx="2.61" ry="2.61" style="stroke:#038048;stroke-width:0.87;"/><text fill="#000000" font-family="sans-serif" font-size="9.57" lengthAdjust="spacing" textLength="50.46" x="784.74" y="161.1717">saveClient()</text><!--MD5=[55cb992be19579b505cea3c5691093cb]
class ClientStore--><rect codeLine="14" fill="#FEFECE" filter="url(#feixf0a4eegor)" height="77.8718" id="ClientStore" style="stroke:#A80036;stroke-width:1.305;" width="153.99" x="637.71" y="354.09"/><ellipse cx="684.4725" cy="368.01" fill="#ADD1B2" rx="9.57" ry="9.57" style="stroke:#A80036;stroke-width:0.87;"/><path d="M686.2125,364.965 Q686.3892,364.53 686.5931,364.3125 Q686.797,364.095 687.0281,364.095 Q687.4359,364.095 687.6942,364.3397 Q687.9525,364.5844 687.9525,365.1553 L687.9525,366.5147 Q687.9525,367.0856 687.7078,367.3303 Q687.4631,367.575 687.0825,367.575 Q686.7427,367.575 686.5252,367.4255 Q686.3077,367.2759 686.2125,366.8817 Q686.1717,366.6098 686.0222,366.4603 Q685.7503,366.1748 685.2609,366.0117 Q684.7716,365.835 684.2822,365.835 Q683.6705,365.835 683.1539,366.0797 Q682.6509,366.3244 682.2567,366.8681 Q681.8625,367.4119 681.8625,368.1595 L681.8625,368.9616 Q681.8625,369.8588 682.5966,370.4569 Q683.3306,371.055 684.6356,371.055 Q685.4105,371.055 685.9542,370.8783 Q686.2669,370.7831 686.6203,370.4705 Q686.8514,370.2938 686.9738,370.2394 Q687.0961,370.185 687.2456,370.185 Q687.5311,370.185 687.735,370.4161 Q687.9525,370.6336 687.9525,370.9463 Q687.9525,371.2453 687.6534,371.5988 Q687.2184,372.1153 686.5252,372.4008 Q685.6144,372.795 684.4997,372.795 Q683.1947,372.795 682.148,372.2784 Q681.3052,371.8706 680.707,370.987 Q680.1225,370.1034 680.1225,369.0567 L680.1225,368.1052 Q680.1225,367.0177 680.6391,366.0661 Q681.1692,365.1145 682.08,364.6116 Q683.0044,364.095 684.0375,364.095 Q684.6628,364.095 685.2066,364.3125 Q685.7503,364.53 686.2125,364.965 Z " fill="#000000"/><text fill="#000000" font-family="sans-serif" font-size="10.44" lengthAdjust="spacing" textLength="53.07" x="702.3075" y="372.2818">ClientStore</text><line style="stroke:#A80036;stroke-width:1.305;" x1="638.58" x2="790.83" y1="381.93" y2="381.93"/><line style="stroke:#A80036;stroke-width:1.305;" x1="638.58" x2="790.83" y1="388.89" y2="388.89"/><ellipse cx="647.28" cy="398.46" fill="#84BE84" rx="2.61" ry="2.61" style="stroke:#038048;stroke-width:0.87;"/><text fill="#000000" font-family="sans-serif" font-size="9.57" lengthAdjust="spacing" textLength="131.37" x="655.11" y="402.3045">createClient(ClientDto clientDto)</text><ellipse cx="647.28" cy="410.4973" fill="#84BE84" rx="2.61" ry="2.61" style="stroke:#038048;stroke-width:0.87;"/><text fill="#000000" font-family="sans-serif" font-size="9.57" lengthAdjust="spacing" textLength="108.75" x="655.11" y="414.3417">validateClient(Client client)</text><ellipse cx="647.28" cy="422.5345" fill="#84BE84" rx="2.61" ry="2.61" style="stroke:#038048;stroke-width:0.87;"/><text fill="#000000" font-family="sans-serif" font-size="9.57" lengthAdjust="spacing" textLength="97.44" x="655.11" y="426.379">saveClient(Client client)</text><!--MD5=[a274005f5d4aa67681b23215c7c094eb]
class EmailSMS--><rect codeLine="20" fill="#FEFECE" filter="url(#feixf0a4eegor)" height="53.7973" id="EmailSMS" style="stroke:#A80036;stroke-width:1.305;" width="232.29" x="637.71" y="931.335"/><ellipse cx="725.3625" cy="945.255" fill="#B4A7E5" rx="9.57" ry="9.57" style="stroke:#A80036;stroke-width:0.87;"/><path d="M726.2325,942.645 L726.2325,947.865 L727.9725,947.865 L728.3939,947.865 L728.8425,948.4087 L728.8425,948.735 L728.8425,949.0613 L728.3939,949.605 L727.9725,949.605 L722.7525,949.605 L722.3311,949.605 L721.8825,949.0613 L721.8825,948.735 L721.8825,948.4087 L722.3311,947.865 L722.7525,947.865 L724.4925,947.865 L724.4925,942.645 L722.7525,942.645 L722.3311,942.645 L721.8825,942.1013 L721.8825,941.775 L721.8825,941.4488 L722.3311,940.905 L722.7525,940.905 L727.9725,940.905 L728.3939,940.905 L728.8425,941.4488 L728.8425,941.775 L728.8425,942.1013 L728.3939,942.645 L727.9725,942.645 L726.2325,942.645 Z " fill="#000000"/><text fill="#000000" font-family="sans-serif" font-size="10.44" font-style="italic" lengthAdjust="spacing" textLength="49.59" x="743.1975" y="949.5268">EmailSMS</text><line style="stroke:#A80036;stroke-width:1.305;" x1="638.58" x2="869.13" y1="959.175" y2="959.175"/><line style="stroke:#A80036;stroke-width:1.305;" x1="638.58" x2="869.13" y1="966.135" y2="966.135"/><text fill="#000000" font-family="sans-serif" font-size="9.57" lengthAdjust="spacing" textLength="221.85" x="642.93" y="979.5495">sendEmail(String email,String name,String password)</text><!--MD5=[d92da6d3e9b1e9631354e1a6db35e891]
class ClientDTO--><rect codeLine="26" fill="#FEFECE" filter="url(#feixf0a4eegor)" height="234.3563" id="ClientDTO" style="stroke:#A80036;stroke-width:1.305;" width="147.03" x="900.45" y="841.29"/><ellipse cx="945.4725" cy="855.21" fill="#ADD1B2" rx="9.57" ry="9.57" style="stroke:#A80036;stroke-width:0.87;"/><path d="M947.2125,852.165 Q947.3892,851.73 947.5931,851.5125 Q947.797,851.295 948.0281,851.295 Q948.4359,851.295 948.6942,851.5397 Q948.9525,851.7844 948.9525,852.3553 L948.9525,853.7147 Q948.9525,854.2856 948.7078,854.5303 Q948.4631,854.775 948.0825,854.775 Q947.7427,854.775 947.5252,854.6255 Q947.3077,854.4759 947.2125,854.0817 Q947.1717,853.8098 947.0222,853.6603 Q946.7503,853.3748 946.2609,853.2117 Q945.7716,853.035 945.2822,853.035 Q944.6705,853.035 944.1539,853.2797 Q943.6509,853.5244 943.2567,854.0681 Q942.8625,854.6119 942.8625,855.3595 L942.8625,856.1616 Q942.8625,857.0588 943.5966,857.6569 Q944.3306,858.255 945.6356,858.255 Q946.4105,858.255 946.9542,858.0783 Q947.2669,857.9831 947.6203,857.6705 Q947.8514,857.4938 947.9738,857.4394 Q948.0961,857.385 948.2456,857.385 Q948.5311,857.385 948.735,857.6161 Q948.9525,857.8336 948.9525,858.1463 Q948.9525,858.4453 948.6534,858.7988 Q948.2184,859.3153 947.5252,859.6008 Q946.6144,859.995 945.4997,859.995 Q944.1947,859.995 943.148,859.4784 Q942.3052,859.0706 941.707,858.187 Q941.1225,857.3034 941.1225,856.2567 L941.1225,855.3052 Q941.1225,854.2177 941.6391,853.2661 Q942.1692,852.3145 943.08,851.8116 Q944.0044,851.295 945.0375,851.295 Q945.6628,851.295 946.2066,851.5125 Q946.7503,851.73 947.2125,852.165 Z " fill="#000000"/><text fill="#000000" font-family="sans-serif" font-size="10.44" lengthAdjust="spacing" textLength="49.59" x="963.3075" y="859.4818">ClientDTO</text><line style="stroke:#A80036;stroke-width:1.305;" x1="901.32" x2="1046.61" y1="869.13" y2="869.13"/><rect fill="none" height="5.22" style="stroke:#C82930;stroke-width:0.87;" width="5.22" x="907.41" y="876.09"/><text fill="#000000" font-family="sans-serif" font-size="9.57" lengthAdjust="spacing" textLength="49.59" x="917.85" y="882.5445">String name</text><rect fill="none" height="5.22" style="stroke:#C82930;stroke-width:0.87;" width="5.22" x="907.41" y="888.1273"/><text fill="#000000" font-family="sans-serif" font-size="9.57" lengthAdjust="spacing" textLength="44.37" x="917.85" y="894.5817">Email email</text><rect fill="none" height="5.22" style="stroke:#C82930;stroke-width:0.87;" width="5.22" x="907.41" y="900.1645"/><text fill="#000000" font-family="sans-serif" font-size="9.57" lengthAdjust="spacing" textLength="124.41" x="917.85" y="906.619">String taxIdentificationNumber</text><rect fill="none" height="5.22" style="stroke:#C82930;stroke-width:0.87;" width="5.22" x="907.41" y="912.2018"/><text fill="#000000" font-family="sans-serif" font-size="9.57" lengthAdjust="spacing" textLength="106.14" x="917.85" y="918.6563">String citizenCardNumber</text><rect fill="none" height="5.22" style="stroke:#C82930;stroke-width:0.87;" width="5.22" x="907.41" y="924.2391"/><text fill="#000000" font-family="sans-serif" font-size="9.57" lengthAdjust="spacing" textLength="74.82" x="917.85" y="930.6935">String nhsNumber</text><rect fill="none" height="5.22" style="stroke:#C82930;stroke-width:0.87;" width="5.22" x="907.41" y="936.2763"/><text fill="#000000" font-family="sans-serif" font-size="9.57" lengthAdjust="spacing" textLength="64.38" x="917.85" y="942.7308">String birthDate</text><rect fill="none" height="5.22" style="stroke:#C82930;stroke-width:0.87;" width="5.22" x="907.41" y="948.3136"/><text fill="#000000" font-family="sans-serif" font-size="9.57" lengthAdjust="spacing" textLength="56.55" x="917.85" y="954.7681">String gender</text><rect fill="none" height="5.22" style="stroke:#C82930;stroke-width:0.87;" width="5.22" x="907.41" y="960.3509"/><text fill="#000000" font-family="sans-serif" font-size="9.57" lengthAdjust="spacing" textLength="85.26" x="917.85" y="966.8053">String phoneNumber</text><line style="stroke:#A80036;stroke-width:1.305;" x1="901.32" x2="1046.61" y1="972.3881" y2="972.3881"/><ellipse cx="910.02" cy="981.9581" fill="#84BE84" rx="2.61" ry="2.61" style="stroke:#038048;stroke-width:0.87;"/><text fill="#000000" font-family="sans-serif" font-size="9.57" lengthAdjust="spacing" textLength="43.5" x="917.85" y="985.8026">getName()</text><ellipse cx="910.02" cy="993.9954" fill="#84BE84" rx="2.61" ry="2.61" style="stroke:#038048;stroke-width:0.87;"/><text fill="#000000" font-family="sans-serif" font-size="9.57" lengthAdjust="spacing" textLength="40.89" x="917.85" y="997.8399">getEmail()</text><ellipse cx="910.02" cy="1006.0327" fill="#84BE84" rx="2.61" ry="2.61" style="stroke:#038048;stroke-width:0.87;"/><text fill="#000000" font-family="sans-serif" font-size="9.57" lengthAdjust="spacing" textLength="120.06" x="917.85" y="1009.8771">getTaxIdentificationNumber()</text><ellipse cx="910.02" cy="1018.0699" fill="#84BE84" rx="2.61" ry="2.61" style="stroke:#038048;stroke-width:0.87;"/><text fill="#000000" font-family="sans-serif" font-size="9.57" lengthAdjust="spacing" textLength="100.05" x="917.85" y="1021.9144">getCitizenCardNumber()</text><ellipse cx="910.02" cy="1030.1072" fill="#84BE84" rx="2.61" ry="2.61" style="stroke:#038048;stroke-width:0.87;"/><text fill="#000000" font-family="sans-serif" font-size="9.57" lengthAdjust="spacing" textLength="68.73" x="917.85" y="1033.9517">getNhsNumber()</text><ellipse cx="910.02" cy="1042.1445" fill="#84BE84" rx="2.61" ry="2.61" style="stroke:#038048;stroke-width:0.87;"/><text fill="#000000" font-family="sans-serif" font-size="9.57" lengthAdjust="spacing" textLength="58.29" x="917.85" y="1045.9889">getBirthDate()</text><ellipse cx="910.02" cy="1054.1817" fill="#84BE84" rx="2.61" ry="2.61" style="stroke:#038048;stroke-width:0.87;"/><text fill="#000000" font-family="sans-serif" font-size="9.57" lengthAdjust="spacing" textLength="51.33" x="917.85" y="1058.0262">getGender()</text><ellipse cx="910.02" cy="1066.219" fill="#84BE84" rx="2.61" ry="2.61" style="stroke:#038048;stroke-width:0.87;"/><text fill="#000000" font-family="sans-serif" font-size="9.57" lengthAdjust="spacing" textLength="78.3" x="917.85" y="1070.0635">getPhoneNumber()</text><!--MD5=[ed6624c6556d5e7b1bd23032162d20b7]
class Client--><rect codeLine="49" fill="#FEFECE" filter="url(#feixf0a4eegor)" height="234.3563" id="Client" style="stroke:#A80036;stroke-width:1.305;" width="302.76" x="563.325" y="554.19"/><ellipse cx="697.0875" cy="568.11" fill="#ADD1B2" rx="9.57" ry="9.57" style="stroke:#A80036;stroke-width:0.87;"/><path d="M698.8275,565.065 Q699.0042,564.63 699.2081,564.4125 Q699.412,564.195 699.6431,564.195 Q700.0509,564.195 700.3092,564.4397 Q700.5675,564.6844 700.5675,565.2553 L700.5675,566.6147 Q700.5675,567.1856 700.3228,567.4303 Q700.0781,567.675 699.6975,567.675 Q699.3577,567.675 699.1402,567.5255 Q698.9227,567.3759 698.8275,566.9817 Q698.7867,566.7098 698.6372,566.5603 Q698.3653,566.2748 697.8759,566.1117 Q697.3866,565.935 696.8972,565.935 Q696.2855,565.935 695.7689,566.1797 Q695.2659,566.4244 694.8717,566.9681 Q694.4775,567.5119 694.4775,568.2595 L694.4775,569.0616 Q694.4775,569.9588 695.2116,570.5569 Q695.9456,571.155 697.2506,571.155 Q698.0255,571.155 698.5692,570.9783 Q698.8819,570.8831 699.2353,570.5705 Q699.4664,570.3938 699.5888,570.3394 Q699.7111,570.285 699.8606,570.285 Q700.1461,570.285 700.35,570.5161 Q700.5675,570.7336 700.5675,571.0463 Q700.5675,571.3453 700.2684,571.6988 Q699.8334,572.2153 699.1402,572.5008 Q698.2294,572.895 697.1147,572.895 Q695.8097,572.895 694.763,572.3784 Q693.9202,571.9706 693.322,571.087 Q692.7375,570.2034 692.7375,569.1567 L692.7375,568.2052 Q692.7375,567.1177 693.2541,566.1661 Q693.7842,565.2145 694.695,564.7116 Q695.6194,564.195 696.6525,564.195 Q697.2778,564.195 697.8216,564.4125 Q698.3653,564.63 698.8275,565.065 Z " fill="#000000"/><text fill="#000000" font-family="sans-serif" font-size="10.44" lengthAdjust="spacing" textLength="27.84" x="714.9225" y="572.3818">Client</text><line style="stroke:#A80036;stroke-width:1.305;" x1="564.195" x2="865.215" y1="582.03" y2="582.03"/><rect fill="none" height="5.22" style="stroke:#C82930;stroke-width:0.87;" width="5.22" x="570.285" y="588.99"/><text fill="#000000" font-family="sans-serif" font-size="9.57" lengthAdjust="spacing" textLength="49.59" x="580.725" y="595.4445">String name</text><rect fill="none" height="5.22" style="stroke:#C82930;stroke-width:0.87;" width="5.22" x="570.285" y="601.0273"/><text fill="#000000" font-family="sans-serif" font-size="9.57" lengthAdjust="spacing" textLength="44.37" x="580.725" y="607.4817">Email email</text><rect fill="none" height="5.22" style="stroke:#C82930;stroke-width:0.87;" width="5.22" x="570.285" y="613.0645"/><text fill="#000000" font-family="sans-serif" font-size="9.57" lengthAdjust="spacing" textLength="124.41" x="580.725" y="619.519">String taxIdentificationNumber</text><rect fill="none" height="5.22" style="stroke:#C82930;stroke-width:0.87;" width="5.22" x="570.285" y="625.1018"/><text fill="#000000" font-family="sans-serif" font-size="9.57" lengthAdjust="spacing" textLength="106.14" x="580.725" y="631.5563">String citizenCardNumber</text><rect fill="none" height="5.22" style="stroke:#C82930;stroke-width:0.87;" width="5.22" x="570.285" y="637.1391"/><text fill="#000000" font-family="sans-serif" font-size="9.57" lengthAdjust="spacing" textLength="74.82" x="580.725" y="643.5935">String nhsNumber</text><rect fill="none" height="5.22" style="stroke:#C82930;stroke-width:0.87;" width="5.22" x="570.285" y="649.1763"/><text fill="#000000" font-family="sans-serif" font-size="9.57" lengthAdjust="spacing" textLength="64.38" x="580.725" y="655.6308">String birthDate</text><rect fill="none" height="5.22" style="stroke:#C82930;stroke-width:0.87;" width="5.22" x="570.285" y="661.2136"/><text fill="#000000" font-family="sans-serif" font-size="9.57" lengthAdjust="spacing" textLength="56.55" x="580.725" y="667.6681">String gender</text><rect fill="none" height="5.22" style="stroke:#C82930;stroke-width:0.87;" width="5.22" x="570.285" y="673.2509"/><text fill="#000000" font-family="sans-serif" font-size="9.57" lengthAdjust="spacing" textLength="85.26" x="580.725" y="679.7053">String phoneNumber</text><line style="stroke:#A80036;stroke-width:1.305;" x1="564.195" x2="865.215" y1="685.2881" y2="685.2881"/><ellipse cx="572.895" cy="694.8581" fill="#84BE84" rx="2.61" ry="2.61" style="stroke:#038048;stroke-width:0.87;"/><text fill="#000000" font-family="sans-serif" font-size="9.57" lengthAdjust="spacing" textLength="107.01" x="580.725" y="698.7026">Client (ClientDto clientDto)</text><ellipse cx="572.895" cy="706.8954" fill="#84BE84" rx="2.61" ry="2.61" style="stroke:#038048;stroke-width:0.87;"/><text fill="#000000" font-family="sans-serif" font-size="9.57" lengthAdjust="spacing" textLength="102.66" x="580.725" y="710.7399">addUserAndSendEmail()</text><ellipse cx="572.895" cy="718.9327" fill="#84BE84" rx="2.61" ry="2.61" style="stroke:#038048;stroke-width:0.87;"/><text fill="#000000" font-family="sans-serif" font-size="9.57" lengthAdjust="spacing" textLength="128.76" x="580.725" y="722.7771">checkNameRules(String name)</text><ellipse cx="572.895" cy="730.9699" fill="#84BE84" rx="2.61" ry="2.61" style="stroke:#038048;stroke-width:0.87;"/><text fill="#000000" font-family="sans-serif" font-size="9.57" lengthAdjust="spacing" textLength="280.14" x="580.725" y="734.8144">checkTaxIdentificationNumberRules(String taxIdentificationNumber)</text><ellipse cx="572.895" cy="743.0072" fill="#84BE84" rx="2.61" ry="2.61" style="stroke:#038048;stroke-width:0.87;"/><text fill="#000000" font-family="sans-serif" font-size="9.57" lengthAdjust="spacing" textLength="241.86" x="580.725" y="746.8517">checkCitizenCardNumberRules(String citizenCardNumber)</text><ellipse cx="572.895" cy="755.0445" fill="#84BE84" rx="2.61" ry="2.61" style="stroke:#038048;stroke-width:0.87;"/><text fill="#000000" font-family="sans-serif" font-size="9.57" lengthAdjust="spacing" textLength="179.22" x="580.725" y="758.8889">checkNshNumberRules(String nhsNumber)</text><ellipse cx="572.895" cy="767.0817" fill="#84BE84" rx="2.61" ry="2.61" style="stroke:#038048;stroke-width:0.87;"/><text fill="#000000" font-family="sans-serif" font-size="9.57" lengthAdjust="spacing" textLength="143.55" x="580.725" y="770.9262">checkGenderRules(String gender)</text><ellipse cx="572.895" cy="779.119" fill="#84BE84" rx="2.61" ry="2.61" style="stroke:#038048;stroke-width:0.87;"/><text fill="#000000" font-family="sans-serif" font-size="9.57" lengthAdjust="spacing" textLength="199.23" x="580.725" y="782.9635">checkPhoneNumberRules(String phoneNumber)</text><!--MD5=[8ae808d068a8995f06b9b3ec51357f0b]
class AuthFacade--><rect codeLine="68" fill="#FEFECE" filter="url(#feixf0a4eegor)" height="138.0581" id="AuthFacade" style="stroke:#A80036;stroke-width:1.305;" width="359.31" x="6.09" y="889.14"/><ellipse cx="153.7725" cy="903.06" fill="#ADD1B2" rx="9.57" ry="9.57" style="stroke:#A80036;stroke-width:0.87;"/><path d="M155.5125,900.015 Q155.6892,899.58 155.8931,899.3625 Q156.097,899.145 156.3281,899.145 Q156.7359,899.145 156.9942,899.3897 Q157.2525,899.6344 157.2525,900.2053 L157.2525,901.5647 Q157.2525,902.1356 157.0078,902.3803 Q156.7631,902.625 156.3825,902.625 Q156.0427,902.625 155.8252,902.4755 Q155.6077,902.3259 155.5125,901.9317 Q155.4717,901.6598 155.3222,901.5103 Q155.0503,901.2248 154.5609,901.0617 Q154.0716,900.885 153.5822,900.885 Q152.9705,900.885 152.4539,901.1297 Q151.9509,901.3744 151.5567,901.9181 Q151.1625,902.4619 151.1625,903.2095 L151.1625,904.0116 Q151.1625,904.9087 151.8966,905.5069 Q152.6306,906.105 153.9356,906.105 Q154.7105,906.105 155.2542,905.9283 Q155.5669,905.8331 155.9203,905.5205 Q156.1514,905.3438 156.2738,905.2894 Q156.3961,905.235 156.5456,905.235 Q156.8311,905.235 157.035,905.4661 Q157.2525,905.6836 157.2525,905.9963 Q157.2525,906.2953 156.9534,906.6488 Q156.5184,907.1653 155.8252,907.4508 Q154.9144,907.845 153.7997,907.845 Q152.4947,907.845 151.448,907.3284 Q150.6052,906.9206 150.007,906.037 Q149.4225,905.1534 149.4225,904.1067 L149.4225,903.1552 Q149.4225,902.0677 149.9391,901.1161 Q150.4692,900.1645 151.38,899.6616 Q152.3044,899.145 153.3375,899.145 Q153.9628,899.145 154.5066,899.3625 Q155.0503,899.58 155.5125,900.015 Z " fill="#000000"/><text fill="#000000" font-family="sans-serif" font-size="10.44" lengthAdjust="spacing" textLength="56.55" x="171.6075" y="907.3318">AuthFacade</text><line style="stroke:#A80036;stroke-width:1.305;" x1="6.96" x2="364.53" y1="916.98" y2="916.98"/><line style="stroke:#A80036;stroke-width:1.305;" x1="6.96" x2="364.53" y1="923.94" y2="923.94"/><ellipse cx="15.66" cy="933.51" fill="#84BE84" rx="2.61" ry="2.61" style="stroke:#038048;stroke-width:0.87;"/><text fill="#000000" font-family="sans-serif" font-size="9.57" lengthAdjust="spacing" textLength="208.8" x="23.49" y="937.3545">boolean addUserRole(String id, String description)</text><ellipse cx="15.66" cy="945.5473" fill="#84BE84" rx="2.61" ry="2.61" style="stroke:#038048;stroke-width:0.87;"/><text fill="#000000" font-family="sans-serif" font-size="9.57" lengthAdjust="spacing" textLength="146.16" x="23.49" y="949.3917">addUser( String name, String pwd)</text><ellipse cx="15.66" cy="957.5845" fill="#84BE84" rx="2.61" ry="2.61" style="stroke:#038048;stroke-width:0.87;"/><text fill="#000000" font-family="sans-serif" font-size="9.57" lengthAdjust="spacing" textLength="321.03" x="23.49" y="961.429">boolean addUserWithRole(String name,String email, String pwd, String roleId)</text><ellipse cx="15.66" cy="969.6218" fill="#84BE84" rx="2.61" ry="2.61" style="stroke:#038048;stroke-width:0.87;"/><text fill="#000000" font-family="sans-serif" font-size="9.57" lengthAdjust="spacing" textLength="336.69" x="23.49" y="973.4663">boolean addUserWithRoles(String name,String email, String pwd, String[] rolesId)</text><ellipse cx="15.66" cy="981.6591" fill="#84BE84" rx="2.61" ry="2.61" style="stroke:#038048;stroke-width:0.87;"/><text fill="#000000" font-family="sans-serif" font-size="9.57" lengthAdjust="spacing" textLength="138.33" x="23.49" y="985.5035">boolean existsUser (String email)</text><ellipse cx="15.66" cy="993.6963" fill="#84BE84" rx="2.61" ry="2.61" style="stroke:#038048;stroke-width:0.87;"/><text fill="#000000" font-family="sans-serif" font-size="9.57" lengthAdjust="spacing" textLength="220.11" x="23.49" y="997.5408">UserSession doLogin(String email, String password)</text><ellipse cx="15.66" cy="1005.7336" fill="#84BE84" rx="2.61" ry="2.61" style="stroke:#038048;stroke-width:0.87;"/><text fill="#000000" font-family="sans-serif" font-size="9.57" lengthAdjust="spacing" textLength="161.82" x="23.49" y="1009.5781">UserSession getCurrentUserSession()</text><ellipse cx="15.66" cy="1017.7709" fill="#84BE84" rx="2.61" ry="2.61" style="stroke:#038048;stroke-width:0.87;"/><text fill="#000000" font-family="sans-serif" font-size="9.57" lengthAdjust="spacing" textLength="66.12" x="23.49" y="1021.6153">void doLogout()</text><!--MD5=[f8d2b21678b6ea5d90e779ee6463ca37]
class Utils--><rect codeLine="80" fill="#FEFECE" filter="url(#feixf0a4eegor)" height="222.319" id="Utils" style="stroke:#A80036;stroke-width:1.305;" width="210.54" x="396.285" y="846.945"/><ellipse cx="486.9825" cy="860.865" fill="#ADD1B2" rx="9.57" ry="9.57" style="stroke:#A80036;stroke-width:0.87;"/><path d="M488.7225,857.82 Q488.8992,857.385 489.1031,857.1675 Q489.307,856.95 489.5381,856.95 Q489.9459,856.95 490.2042,857.1947 Q490.4625,857.4394 490.4625,858.0103 L490.4625,859.3697 Q490.4625,859.9406 490.2178,860.1853 Q489.9731,860.43 489.5925,860.43 Q489.2527,860.43 489.0352,860.2805 Q488.8177,860.1309 488.7225,859.7367 Q488.6817,859.4648 488.5322,859.3153 Q488.2603,859.0298 487.7709,858.8667 Q487.2816,858.69 486.7922,858.69 Q486.1805,858.69 485.6639,858.9347 Q485.1609,859.1794 484.7667,859.7231 Q484.3725,860.2669 484.3725,861.0145 L484.3725,861.8166 Q484.3725,862.7138 485.1066,863.3119 Q485.8406,863.91 487.1456,863.91 Q487.9205,863.91 488.4642,863.7333 Q488.7769,863.6381 489.1303,863.3255 Q489.3614,863.1488 489.4838,863.0944 Q489.6061,863.04 489.7556,863.04 Q490.0411,863.04 490.245,863.2711 Q490.4625,863.4886 490.4625,863.8013 Q490.4625,864.1003 490.1634,864.4538 Q489.7284,864.9703 489.0352,865.2558 Q488.1244,865.65 487.0097,865.65 Q485.7047,865.65 484.658,865.1334 Q483.8152,864.7256 483.217,863.842 Q482.6325,862.9584 482.6325,861.9117 L482.6325,860.9602 Q482.6325,859.8727 483.1491,858.9211 Q483.6792,857.9695 484.59,857.4666 Q485.5144,856.95 486.5475,856.95 Q487.1728,856.95 487.7166,857.1675 Q488.2603,857.385 488.7225,857.82 Z " fill="#000000"/><text fill="#000000" font-family="sans-serif" font-size="10.44" lengthAdjust="spacing" textLength="21.75" x="504.8175" y="865.1368">Utils</text><line style="stroke:#A80036;stroke-width:1.305;" x1="397.155" x2="605.955" y1="874.785" y2="874.785"/><line style="stroke:#A80036;stroke-width:1.305;" x1="397.155" x2="605.955" y1="881.745" y2="881.745"/><ellipse cx="405.855" cy="891.315" fill="#84BE84" rx="2.61" ry="2.61" style="stroke:#038048;stroke-width:0.87;"/><text fill="#000000" font-family="sans-serif" font-size="9.57" lengthAdjust="spacing" textLength="81.78" x="413.685" y="895.1595">randomPassword()</text><ellipse cx="405.855" cy="903.3523" fill="#84BE84" rx="2.61" ry="2.61" style="stroke:#038048;stroke-width:0.87;"/><text fill="#000000" font-family="sans-serif" font-size="9.57" lengthAdjust="spacing" textLength="116.58" x="413.685" y="907.1967">quantityOfDigits(int number)</text><ellipse cx="405.855" cy="915.3895" fill="#84BE84" rx="2.61" ry="2.61" style="stroke:#038048;stroke-width:0.87;"/><text fill="#000000" font-family="sans-serif" font-size="9.57" lengthAdjust="spacing" textLength="85.26" x="413.685" y="919.234">onlyDigits(String str)</text><ellipse cx="405.855" cy="927.4268" fill="#84BE84" rx="2.61" ry="2.61" style="stroke:#038048;stroke-width:0.87;"/><text fill="#000000" font-family="sans-serif" font-size="9.57" lengthAdjust="spacing" textLength="107.88" x="413.685" y="931.2713">getStringInitials(String str)</text><ellipse cx="405.855" cy="939.4641" fill="#84BE84" rx="2.61" ry="2.61" style="stroke:#038048;stroke-width:0.87;"/><text fill="#000000" font-family="sans-serif" font-size="9.57" lengthAdjust="spacing" textLength="142.68" x="413.685" y="943.3085">printLineToConsole(String prompt)</text><ellipse cx="405.855" cy="951.5013" fill="#84BE84" rx="2.61" ry="2.61" style="stroke:#038048;stroke-width:0.87;"/><text fill="#000000" font-family="sans-serif" font-size="9.57" lengthAdjust="spacing" textLength="153.99" x="413.685" y="955.3458">readLineFromConsole(String prompt)</text><ellipse cx="405.855" cy="963.5386" fill="#84BE84" rx="2.61" ry="2.61" style="stroke:#038048;stroke-width:0.87;"/><text fill="#000000" font-family="sans-serif" font-size="9.57" lengthAdjust="spacing" textLength="165.3" x="413.685" y="967.3831">readIntegerFromConsole(String prompt)</text><ellipse cx="405.855" cy="975.5759" fill="#84BE84" rx="2.61" ry="2.61" style="stroke:#038048;stroke-width:0.87;"/><text fill="#000000" font-family="sans-serif" font-size="9.57" lengthAdjust="spacing" textLength="165.3" x="413.685" y="979.4203">readDoubleFromConsole(String prompt)</text><ellipse cx="405.855" cy="987.6131" fill="#84BE84" rx="2.61" ry="2.61" style="stroke:#038048;stroke-width:0.87;"/><text fill="#000000" font-family="sans-serif" font-size="9.57" lengthAdjust="spacing" textLength="155.73" x="413.685" y="991.4576">readDateFromConsole(String prompt)</text><ellipse cx="405.855" cy="999.6504" fill="#84BE84" rx="2.61" ry="2.61" style="stroke:#038048;stroke-width:0.87;"/><text fill="#000000" font-family="sans-serif" font-size="9.57" lengthAdjust="spacing" textLength="103.53" x="413.685" y="1003.4949">confirm(String message)</text><ellipse cx="405.855" cy="1011.6877" fill="#84BE84" rx="2.61" ry="2.61" style="stroke:#038048;stroke-width:0.87;"/><text fill="#000000" font-family="sans-serif" font-size="9.57" lengthAdjust="spacing" textLength="182.7" x="413.685" y="1015.5321">showAndSelectOne(List list, String header)</text><ellipse cx="405.855" cy="1023.7249" fill="#84BE84" rx="2.61" ry="2.61" style="stroke:#038048;stroke-width:0.87;"/><text fill="#000000" font-family="sans-serif" font-size="9.57" lengthAdjust="spacing" textLength="187.92" x="413.685" y="1027.5694">showAndSelectIndex(List list, String header)</text><ellipse cx="405.855" cy="1035.7622" fill="#84BE84" rx="2.61" ry="2.61" style="stroke:#038048;stroke-width:0.87;"/><text fill="#000000" font-family="sans-serif" font-size="9.57" lengthAdjust="spacing" textLength="136.59" x="413.685" y="1039.6067">showList(List list, String header)</text><ellipse cx="405.855" cy="1047.7995" fill="#84BE84" rx="2.61" ry="2.61" style="stroke:#038048;stroke-width:0.87;"/><text fill="#000000" font-family="sans-serif" font-size="9.57" lengthAdjust="spacing" textLength="93.09" x="413.685" y="1051.6439">selectsObject(List list)</text><ellipse cx="405.855" cy="1059.8367" fill="#84BE84" rx="2.61" ry="2.61" style="stroke:#038048;stroke-width:0.87;"/><text fill="#000000" font-family="sans-serif" font-size="9.57" lengthAdjust="spacing" textLength="88.74" x="413.685" y="1063.6812">selectsIndex(List list)</text><!--MD5=[98d2d934d445daef8d5bcbeea20c1f70]
link RegisterClientUI to RegisterClientController--><path codeLine="101" d="M894.3426,47.8848 C886.2777,61.6395 875.3331,80.2749 865.7457,96.6135 " fill="none" id="RegisterClientUI-to-RegisterClientController" style="stroke:#A80036;stroke-width:0.87;stroke-dasharray:7.0,7.0;"/><polygon fill="#A80036" points="863.3445,100.7199,870.306,95.7243,865.5441,96.967,864.3014,92.205,863.3445,100.7199" style="stroke:#A80036;stroke-width:0.87;"/><!--MD5=[643792627e1c1924fc8ffc1a39f5e611]
link RegisterClientUI to ClientDTO--><path codeLine="102" d="M929.0817,47.9544 C948.7698,67.5207 973.965,99.1887 973.965,133.11 C973.965,133.11 973.965,133.11 973.965,672.075 C973.965,726.0585 973.965,785.784 973.965,836.5833 " fill="none" id="RegisterClientUI-to-ClientDTO" style="stroke:#A80036;stroke-width:0.87;stroke-dasharray:7.0,7.0;"/><polygon fill="#A80036" points="973.965,841.1595,977.445,833.3295,973.965,836.8095,970.485,833.3295,973.965,841.1595" style="stroke:#A80036;stroke-width:0.87;"/><!--MD5=[401103b44f5971919e28af6a6eb0cda9]
link RegisterClientController to ClientDTO--><path codeLine="103" d="M875.2896,167.214 C893.1855,189.3555 912.195,220.3884 912.195,252.3 C912.195,252.3 912.195,252.3 912.195,672.075 C912.195,726.9285 923.2353,786.393 935.9721,836.766 " fill="none" id="RegisterClientController-to-ClientDTO" style="stroke:#A80036;stroke-width:0.87;stroke-dasharray:7.0,7.0;"/><polygon fill="#A80036" points="937.0509,840.9942,938.4753,832.5449,935.9696,836.7807,931.7337,834.275,937.0509,840.9942" style="stroke:#A80036;stroke-width:0.87;"/><!--MD5=[198be3749d42ca56b2a20022cdc44bdd]
link RegisterClientController to Company--><path codeLine="104" d="M796.0935,167.1618 C784.1484,175.4442 771.4638,184.4661 759.945,193.14 C749.9139,200.6916 739.3434,209.0958 729.4689,217.1346 " fill="none" id="RegisterClientController-to-Company" style="stroke:#A80036;stroke-width:0.87;stroke-dasharray:7.0,7.0;"/><polygon fill="#A80036" points="725.8671,220.0839,734.1295,217.814,729.2322,217.3273,729.7189,212.43,725.8671,220.0839" style="stroke:#A80036;stroke-width:0.87;"/><!--MD5=[d17ba2de69bcbdc84560ba08c091bb6c]
link RegisterClientController to ClientStore--><path codeLine="105" d="M828.0486,167.2053 C804.7239,213.5502 761.7633,298.8798 735.9591,350.1402 " fill="none" id="RegisterClientController-to-ClientStore" style="stroke:#A80036;stroke-width:0.87;stroke-dasharray:7.0,7.0;"/><polygon fill="#A80036" points="733.9842,354.0813,740.6193,348.6596,735.9445,350.198,734.406,345.5232,733.9842,354.0813" style="stroke:#A80036;stroke-width:0.87;"/><!--MD5=[ed103a8ea2b4d350bb3452ad82ebe4da]
link RegisterClientController to Client--><path codeLine="106" d="M844.335,167.2575 C844.335,190.8432 844.335,223.5465 844.335,252.3 C844.335,252.3 844.335,252.3 844.335,494.16 C844.335,513.6654 839.115,532.4313 830.7717,549.9792 " fill="none" id="RegisterClientController-to-Client" style="stroke:#A80036;stroke-width:0.87;stroke-dasharray:7.0,7.0;"/><polygon fill="#A80036" points="828.8316,553.9377,835.418,548.4569,830.7571,550.0371,829.1769,545.3762,828.8316,553.9377" style="stroke:#A80036;stroke-width:0.87;"/><!--MD5=[a11230341c8e65219708844feaa40162]
link Company to ClientStore--><path codeLine="107" d="M694.0599,286.4736 C697.74,305.3352 702.4119,329.3298 706.3878,349.7139 " fill="none" id="Company-to-ClientStore" style="stroke:#A80036;stroke-width:0.87;"/><polygon fill="#A80036" points="707.223,354.003,709.1373,345.6511,706.3891,349.7337,702.3064,346.9854,707.223,354.003" style="stroke:#A80036;stroke-width:0.87;"/><text fill="#000000" font-family="sans-serif" font-size="11.31" lengthAdjust="spacing" textLength="24.36" x="702.525" y="324.9408">uses</text><text fill="#000000" font-family="sans-serif" font-size="11.31" lengthAdjust="spacing" textLength="6.09" x="688.4926" y="304.6785">1</text><text fill="#000000" font-family="sans-serif" font-size="11.31" lengthAdjust="spacing" textLength="6.09" x="699.4553" y="344.5196">1</text><!--MD5=[1d934105a045dbf126514c6917bd5072]
link ClientStore to Client--><path codeLine="108" d="M714.705,432.5205 C714.705,462.9792 714.705,507.3057 714.705,549.4572 " fill="none" id="ClientStore-to-Client" style="stroke:#A80036;stroke-width:0.87;"/><polygon fill="#A80036" points="714.705,554.0508,718.185,546.2208,714.705,549.7008,711.225,546.2208,714.705,554.0508" style="stroke:#A80036;stroke-width:0.87;"/><text fill="#000000" font-family="sans-serif" font-size="11.31" lengthAdjust="spacing" textLength="33.93" x="715.575" y="498.0708">adopts</text><text fill="#000000" font-family="sans-serif" font-size="11.31" lengthAdjust="spacing" textLength="6.09" x="708.2058" y="450.5241">1</text><text fill="#000000" font-family="sans-serif" font-size="11.31" lengthAdjust="spacing" textLength="4.35" x="710.2293" y="544.6956">*</text><!--MD5=[717d4b03d3c4372f4eafe5e342a0a7dd]
link Company to AuthFacade--><path codeLine="109" d="M638.9454,258.9207 C524.3229,271.7184 247.515,311.0598 247.515,392.37 C247.515,392.37 247.515,392.37 247.515,672.075 C247.515,745.6857 227.6355,827.6049 210.4356,884.7204 " fill="none" id="Company-to-AuthFacade" style="stroke:#A80036;stroke-width:0.87;stroke-dasharray:7.0,7.0;"/><polygon fill="#A80036" points="209.0958,889.14,214.7056,882.6632,210.3628,884.9786,208.0474,880.6359,209.0958,889.14" style="stroke:#A80036;stroke-width:0.87;"/><!--MD5=[0fdec59389f2fe3c9252faf1edf568fc]
link Client to EmailSMS--><path codeLine="110" d="M730.6869,788.5506 C736.7421,832.6857 743.2671,880.2921 747.852,913.6653 " fill="none" id="Client-to-EmailSMS" style="stroke:#A80036;stroke-width:0.87;stroke-dasharray:7.0,7.0;"/><polygon fill="none" points="753.9072,913.0215,750.2445,931.0914,741.8403,914.6832,753.9072,913.0215" style="stroke:#A80036;stroke-width:0.87;"/><!--MD5=[9250d73f0fb2df684fbc76a1ebd6cb56]
link Client to AuthFacade--><path codeLine="111" d="M563.0553,746.1381 C505.47,774.9699 439.5762,808.839 380.625,841.29 C354.7251,855.5406 327.2592,871.4268 301.3767,886.7562 " fill="none" id="Client-to-AuthFacade" style="stroke:#A80036;stroke-width:0.87;stroke-dasharray:7.0,7.0;"/><polygon fill="#A80036" points="297.5661,889.0095,306.0762,888.0108,301.3082,886.7915,302.5274,882.0235,297.5661,889.0095" style="stroke:#A80036;stroke-width:0.87;"/><!--MD5=[bda86b0a4540d9a62a9524f69bd208eb]
link Client to ClientDTO--><path codeLine="112" d="M836.0874,788.4114 C852.9828,805.7766 869.8086,823.7421 885.225,841.29 C889.3053,845.9358 893.4204,850.7556 897.5094,855.6624 " fill="none" id="Client-to-ClientDTO" style="stroke:#A80036;stroke-width:0.87;stroke-dasharray:7.0,7.0;"/><polygon fill="#A80036" points="900.3456,859.0728,898.0094,850.8289,897.562,855.73,892.6609,855.2827,900.3456,859.0728" style="stroke:#A80036;stroke-width:0.87;"/><!--MD5=[ee106421675acba1fb8c0ea55c88989a]
link Client to Utils--><path codeLine="113" d="M627.705,788.5506 C614.2113,806.6118 600.2913,825.2559 586.8411,843.2649 " fill="none" id="Client-to-Utils" style="stroke:#A80036;stroke-width:0.87;stroke-dasharray:7.0,7.0;"/><polygon fill="#A80036" points="584.1528,846.858,591.6348,842.682,586.7628,843.378,586.0668,838.506,584.1528,846.858" style="stroke:#A80036;stroke-width:0.87;"/><!--MD5=[63055aec6770bd321ab1c1ab0dd9862b]
@startuml


class Company{
  - String designation
  + getClientStore()
  }
class RegisterClientUI{}

class RegisterClientController{
    + createClient(ClientDto clientDto)
    + saveClient()
}

class ClientStore{
    + createClient(ClientDto clientDto)
    + validateClient(Client client)
    + saveClient(Client client)
}

interface EmailSMS{
    sendEmail(String email,String name,String password)
}



class ClientDTO{
    - String name
       -  Email email
       -  String taxIdentificationNumber
       -  String citizenCardNumber
       -  String nhsNumber
       -  String birthDate
       -  String gender
       -  String phoneNumber
     + getName()
     + getEmail()
      + getTaxIdentificationNumber()
      + getCitizenCardNumber()
      + getNhsNumber()
     + getBirthDate()
     + getGender()
     + getPhoneNumber()



}


class Client{
   - String name
   -  Email email
   -  String taxIdentificationNumber
   -  String citizenCardNumber
   -  String nhsNumber
   -  String birthDate
   -  String gender
   -  String phoneNumber
  + Client (ClientDto clientDto)
  + addUserAndSendEmail()
  + checkNameRules(String name)
  + checkTaxIdentificationNumberRules(String taxIdentificationNumber)
  + checkCitizenCardNumberRules(String citizenCardNumber)
  + checkNshNumberRules(String nhsNumber)
  + checkGenderRules(String gender)
  + checkPhoneNumberRules(String phoneNumber)
}

class AuthFacade{
   + boolean addUserRole(String id, String description)
   +addUser( String name, String pwd)
   + boolean addUserWithRole(String name,String email, String pwd, String roleId)
   + boolean addUserWithRoles(String name,String email, String pwd, String[] rolesId)
   + boolean existsUser (String email)
   + UserSession doLogin(String email, String password)
   + UserSession getCurrentUserSession()
   + void doLogout()
  }


class Utils{
 + randomPassword()
 + quantityOfDigits(int number)
 + onlyDigits(String str)
 + getStringInitials(String str)
 + printLineToConsole(String prompt)
 + readLineFromConsole(String prompt)
 + readIntegerFromConsole(String prompt)
 + readDoubleFromConsole(String prompt)
 + readDateFromConsole(String prompt)
 + confirm(String message)
 + showAndSelectOne(List list, String header)
 + showAndSelectIndex(List list, String header)
 + showList(List list, String header)
 + selectsObject(List list)
 + selectsIndex(List list)

}



RegisterClientUI ..> RegisterClientController
RegisterClientUI ..> ClientDTO
RegisterClientController ..> ClientDTO
RegisterClientController ..> Company
RegisterClientController ...> ClientStore
RegisterClientController ....> Client
Company "1" - -> "1" ClientStore : uses
ClientStore "1" - - -> "*" Client: adopts
Company ..> AuthFacade
Client ..|> EmailSMS
Client..> AuthFacade
Client ..> ClientDTO
Client ..> Utils




@enduml

PlantUML version 1.2021.00(Sun Jan 10 10:25:05 GMT 2021)
(GPL source distribution)
Java Runtime: OpenJDK Runtime Environment
JVM: OpenJDK 64-Bit Server VM
Default Encoding: Cp1252
Language: pt
Country: PT
--></g></svg>