<?xml version="1.0" encoding="UTF-8" standalone="no"?><svg xmlns="http://www.w3.org/2000/svg" xmlns:xlink="http://www.w3.org/1999/xlink" contentScriptType="application/ecmascript" contentStyleType="text/css" height="745px" preserveAspectRatio="none" style="width:295px;height:745px;" version="1.1" viewBox="0 0 295 745" width="295px" zoomAndPan="magnify"><defs><filter height="300%" id="f1ltza7wged6xd" width="300%" x="-1" y="-1"><feGaussianBlur result="blurOut" stdDeviation="2.5"/><feColorMatrix in="blurOut" result="blurOut2" type="matrix" values="0 0 0 0 0 0 0 0 0 0 0 0 0 0 0 0 0 0 .4 0"/><feOffset dx="5.0" dy="5.0" in="blurOut2" result="blurOut3"/><feBlend in="SourceGraphic" in2="blurOut3" mode="normal"/></filter></defs><g><!--MD5=[02e4b9b7573f1156f41e60aa5b4e25a4]
class Company--><rect codeLine="2" fill="#FEFECE" filter="url(#f1ltza7wged6xd)" height="77.2949" id="Company" style="stroke:#A80036;stroke-width:1.875;" width="106.25" x="8.75" y="8.75"/><ellipse cx="27.5" cy="28.75" fill="#ADD1B2" rx="13.75" ry="13.75" style="stroke:#A80036;stroke-width:1.25;"/><path d="M30,24.375 Q30.2539,23.75 30.5469,23.4375 Q30.8398,23.125 31.1719,23.125 Q31.7578,23.125 32.1289,23.4766 Q32.5,23.8281 32.5,24.6484 L32.5,26.6016 Q32.5,27.4219 32.1484,27.7734 Q31.7969,28.125 31.25,28.125 Q30.7617,28.125 30.4492,27.9102 Q30.1367,27.6953 30,27.1289 Q29.9414,26.7383 29.7266,26.5234 Q29.3359,26.1133 28.6328,25.8789 Q27.9297,25.625 27.2266,25.625 Q26.3477,25.625 25.6055,25.9766 Q24.8828,26.3281 24.3164,27.1094 Q23.75,27.8906 23.75,28.9648 L23.75,30.1172 Q23.75,31.4063 24.8047,32.2656 Q25.8594,33.125 27.7344,33.125 Q28.8477,33.125 29.6289,32.8711 Q30.0781,32.7344 30.5859,32.2852 Q30.918,32.0313 31.0938,31.9531 Q31.2695,31.875 31.4844,31.875 Q31.8945,31.875 32.1875,32.207 Q32.5,32.5195 32.5,32.9688 Q32.5,33.3984 32.0703,33.9063 Q31.4453,34.6484 30.4492,35.0586 Q29.1406,35.625 27.5391,35.625 Q25.6641,35.625 24.1602,34.8828 Q22.9492,34.2969 22.0898,33.0273 Q21.25,31.7578 21.25,30.2539 L21.25,28.8867 Q21.25,27.3242 21.9922,25.957 Q22.7539,24.5898 24.0625,23.8672 Q25.3906,23.125 26.875,23.125 Q27.7734,23.125 28.5547,23.4375 Q29.3359,23.75 30,24.375 Z " fill="#000000"/><text fill="#000000" font-family="sans-serif" font-size="15" lengthAdjust="spacing" textLength="66.25" x="45" y="34.8877">Company</text><line style="stroke:#A80036;stroke-width:1.875;" x1="10" x2="113.75" y1="48.75" y2="48.75"/><text fill="#000000" font-family="sans-serif" font-size="13.75" lengthAdjust="spacing" textLength="68.75" x="16.25" y="68.0237">designation</text><line style="stroke:#A80036;stroke-width:1.875;" x1="10" x2="113.75" y1="76.0449" y2="76.0449"/><!--MD5=[03960189e81aa2c066c762ffabbee709]
class Receptionist--><rect codeLine="6" fill="#FEFECE" filter="url(#f1ltza7wged6xd)" height="60" id="Receptionist" style="stroke:#A80036;stroke-width:1.875;" width="126.25" x="151.25" y="162.5"/><ellipse cx="170" cy="182.5" fill="#ADD1B2" rx="13.75" ry="13.75" style="stroke:#A80036;stroke-width:1.25;"/><path d="M172.5,178.125 Q172.7539,177.5 173.0469,177.1875 Q173.3398,176.875 173.6719,176.875 Q174.2578,176.875 174.6289,177.2266 Q175,177.5781 175,178.3984 L175,180.3516 Q175,181.1719 174.6484,181.5234 Q174.2969,181.875 173.75,181.875 Q173.2617,181.875 172.9492,181.6602 Q172.6367,181.4453 172.5,180.8789 Q172.4414,180.4883 172.2266,180.2734 Q171.8359,179.8633 171.1328,179.6289 Q170.4297,179.375 169.7266,179.375 Q168.8477,179.375 168.1055,179.7266 Q167.3828,180.0781 166.8164,180.8594 Q166.25,181.6406 166.25,182.7148 L166.25,183.8672 Q166.25,185.1563 167.3047,186.0156 Q168.3594,186.875 170.2344,186.875 Q171.3477,186.875 172.1289,186.6211 Q172.5781,186.4844 173.0859,186.0352 Q173.418,185.7813 173.5938,185.7031 Q173.7695,185.625 173.9844,185.625 Q174.3945,185.625 174.6875,185.957 Q175,186.2695 175,186.7188 Q175,187.1484 174.5703,187.6563 Q173.9453,188.3984 172.9492,188.8086 Q171.6406,189.375 170.0391,189.375 Q168.1641,189.375 166.6602,188.6328 Q165.4492,188.0469 164.5898,186.7773 Q163.75,185.5078 163.75,184.0039 L163.75,182.6367 Q163.75,181.0742 164.4922,179.707 Q165.2539,178.3398 166.5625,177.6172 Q167.8906,176.875 169.375,176.875 Q170.2734,176.875 171.0547,177.1875 Q171.8359,177.5 172.5,178.125 Z " fill="#000000"/><text fill="#000000" font-family="sans-serif" font-size="15" lengthAdjust="spacing" textLength="86.25" x="187.5" y="188.6377">Receptionist</text><line style="stroke:#A80036;stroke-width:1.875;" x1="152.5" x2="276.25" y1="202.5" y2="202.5"/><line style="stroke:#A80036;stroke-width:1.875;" x1="152.5" x2="276.25" y1="212.5" y2="212.5"/><!--MD5=[ed6624c6556d5e7b1bd23032162d20b7]
class Client--><rect codeLine="9" fill="#FEFECE" filter="url(#f1ltza7wged6xd)" height="198.3594" id="Client" style="stroke:#A80036;stroke-width:1.875;" width="155" x="60.625" y="320"/><ellipse cx="113.125" cy="340" fill="#ADD1B2" rx="13.75" ry="13.75" style="stroke:#A80036;stroke-width:1.25;"/><path d="M115.625,335.625 Q115.8789,335 116.1719,334.6875 Q116.4648,334.375 116.7969,334.375 Q117.3828,334.375 117.7539,334.7266 Q118.125,335.0781 118.125,335.8984 L118.125,337.8516 Q118.125,338.6719 117.7734,339.0234 Q117.4219,339.375 116.875,339.375 Q116.3867,339.375 116.0742,339.1602 Q115.7617,338.9453 115.625,338.3789 Q115.5664,337.9883 115.3516,337.7734 Q114.9609,337.3633 114.2578,337.1289 Q113.5547,336.875 112.8516,336.875 Q111.9727,336.875 111.2305,337.2266 Q110.5078,337.5781 109.9414,338.3594 Q109.375,339.1406 109.375,340.2148 L109.375,341.3672 Q109.375,342.6563 110.4297,343.5156 Q111.4844,344.375 113.3594,344.375 Q114.4727,344.375 115.2539,344.1211 Q115.7031,343.9844 116.2109,343.5352 Q116.543,343.2813 116.7188,343.2031 Q116.8945,343.125 117.1094,343.125 Q117.5195,343.125 117.8125,343.457 Q118.125,343.7695 118.125,344.2188 Q118.125,344.6484 117.6953,345.1563 Q117.0703,345.8984 116.0742,346.3086 Q114.7656,346.875 113.1641,346.875 Q111.2891,346.875 109.7852,346.1328 Q108.5742,345.5469 107.7148,344.2773 Q106.875,343.0078 106.875,341.5039 L106.875,340.1367 Q106.875,338.5742 107.6172,337.207 Q108.3789,335.8398 109.6875,335.1172 Q111.0156,334.375 112.5,334.375 Q113.3984,334.375 114.1797,334.6875 Q114.9609,335 115.625,335.625 Z " fill="#000000"/><text fill="#000000" font-family="sans-serif" font-size="15" lengthAdjust="spacing" textLength="40" x="138.125" y="346.1377">Client</text><line style="stroke:#A80036;stroke-width:1.875;" x1="61.875" x2="214.375" y1="360" y2="360"/><text fill="#000000" font-family="sans-serif" font-size="13.75" lengthAdjust="spacing" textLength="32.5" x="68.125" y="379.2737">name</text><text fill="#000000" font-family="sans-serif" font-size="13.75" lengthAdjust="spacing" textLength="83.75" x="68.125" y="396.5686">phoneNumber</text><text fill="#000000" font-family="sans-serif" font-size="13.75" lengthAdjust="spacing" textLength="140" x="68.125" y="413.8635">taxIdentificationNumber</text><text fill="#000000" font-family="sans-serif" font-size="13.75" lengthAdjust="spacing" textLength="30" x="68.125" y="431.1584">email</text><text fill="#000000" font-family="sans-serif" font-size="13.75" lengthAdjust="spacing" textLength="53.75" x="68.125" y="448.4534">birthDate</text><text fill="#000000" font-family="sans-serif" font-size="13.75" lengthAdjust="spacing" textLength="42.5" x="68.125" y="465.7483">gender</text><text fill="#000000" font-family="sans-serif" font-size="13.75" lengthAdjust="spacing" textLength="68.75" x="68.125" y="483.0432">nhsNumber</text><text fill="#000000" font-family="sans-serif" font-size="13.75" lengthAdjust="spacing" textLength="113.75" x="68.125" y="500.3381">citizenCardNumber</text><line style="stroke:#A80036;stroke-width:1.875;" x1="61.875" x2="214.375" y1="508.3594" y2="508.3594"/><!--MD5=[3fd616f346a44cd59a91eb10b19e157c]
class User--><rect codeLine="20" fill="#FEFECE" filter="url(#f1ltza7wged6xd)" height="111.8848" id="User" style="stroke:#A80036;stroke-width:1.875;" width="77.5" x="99.375" y="616.25"/><ellipse cx="119.8125" cy="636.25" fill="#ADD1B2" rx="13.75" ry="13.75" style="stroke:#A80036;stroke-width:1.25;"/><path d="M122.3125,631.875 Q122.5664,631.25 122.8594,630.9375 Q123.1523,630.625 123.4844,630.625 Q124.0703,630.625 124.4414,630.9766 Q124.8125,631.3281 124.8125,632.1484 L124.8125,634.1016 Q124.8125,634.9219 124.4609,635.2734 Q124.1094,635.625 123.5625,635.625 Q123.0742,635.625 122.7617,635.4102 Q122.4492,635.1953 122.3125,634.6289 Q122.2539,634.2383 122.0391,634.0234 Q121.6484,633.6133 120.9453,633.3789 Q120.2422,633.125 119.5391,633.125 Q118.6602,633.125 117.918,633.4766 Q117.1953,633.8281 116.6289,634.6094 Q116.0625,635.3906 116.0625,636.4648 L116.0625,637.6172 Q116.0625,638.9063 117.1172,639.7656 Q118.1719,640.625 120.0469,640.625 Q121.1602,640.625 121.9414,640.3711 Q122.3906,640.2344 122.8984,639.7852 Q123.2305,639.5313 123.4063,639.4531 Q123.582,639.375 123.7969,639.375 Q124.207,639.375 124.5,639.707 Q124.8125,640.0195 124.8125,640.4688 Q124.8125,640.8984 124.3828,641.4063 Q123.7578,642.1484 122.7617,642.5586 Q121.4531,643.125 119.8516,643.125 Q117.9766,643.125 116.4727,642.3828 Q115.2617,641.7969 114.4023,640.5273 Q113.5625,639.2578 113.5625,637.7539 L113.5625,636.3867 Q113.5625,634.8242 114.3047,633.457 Q115.0664,632.0898 116.375,631.3672 Q117.7031,630.625 119.1875,630.625 Q120.0859,630.625 120.8672,630.9375 Q121.6484,631.25 122.3125,631.875 Z " fill="#000000"/><text fill="#000000" font-family="sans-serif" font-size="15" lengthAdjust="spacing" textLength="33.75" x="137.6875" y="642.3877">User</text><line style="stroke:#A80036;stroke-width:1.875;" x1="100.625" x2="175.625" y1="656.25" y2="656.25"/><text fill="#000000" font-family="sans-serif" font-size="13.75" lengthAdjust="spacing" textLength="32.5" x="106.875" y="675.5237">name</text><text fill="#000000" font-family="sans-serif" font-size="13.75" lengthAdjust="spacing" textLength="30" x="106.875" y="692.8186">email</text><text fill="#000000" font-family="sans-serif" font-size="13.75" lengthAdjust="spacing" textLength="62.5" x="106.875" y="710.1135">password</text><line style="stroke:#A80036;stroke-width:1.875;" x1="100.625" x2="175.625" y1="718.1348" y2="718.1348"/><!--MD5=[6eee883fdf517d3604e8bd0f2058e9aa]
link Company to Client--><path codeLine="27" d="M65.2125,86.275 C68.7125,121.6375 75.025,175.975 84.375,222.5 C90.8,254.4375 99.6,288.8375 108.2125,319.75 " fill="none" id="Company-Client" style="stroke:#A80036;stroke-width:1.25;"/><polygon fill="#000000" points="91.757,198.8663,93.322,187.0816,86.0963,188.4124,91.757,198.8663" style="stroke:#000000;stroke-width:1.25;"/><text fill="#000000" font-family="sans-serif" font-size="16.25" lengthAdjust="spacing" textLength="26.25" x="101.875" y="199.3689">has</text><text fill="#000000" font-family="sans-serif" font-size="16.25" lengthAdjust="spacing" textLength="8.75" x="56.2582" y="112.8099">1</text><text fill="#000000" font-family="sans-serif" font-size="16.25" lengthAdjust="spacing" textLength="6.25" x="98.9169" y="306.5511">*</text><!--MD5=[6a35157f4c730bda767e7c9f1b8b7f73]
link Receptionist to Client--><path codeLine="29" d="M204.5625,222.625 C196.15,247.3625 183.5375,284.475 171.5625,319.75 " fill="none" id="Receptionist-Client" style="stroke:#A80036;stroke-width:1.25;"/><polygon fill="#000000" points="194.8643,277.3875,201.98,267.864,195.0233,265.5003,194.8643,277.3875" style="stroke:#000000;stroke-width:1.25;"/><text fill="#000000" font-family="sans-serif" font-size="16.25" lengthAdjust="spacing" textLength="62.5" x="208.125" y="278.1189">registers</text><text fill="#000000" font-family="sans-serif" font-size="16.25" lengthAdjust="spacing" textLength="8.75" x="192.3543" y="249.3279">1</text><text fill="#000000" font-family="sans-serif" font-size="16.25" lengthAdjust="spacing" textLength="25" x="148.4927" y="306.5511">1..*</text><!--MD5=[9a8dc34b38f85b9f3fcdb440f4bffc6a]
link Client to User--><path codeLine="31" d="M138.125,518.9625 C138.125,552.0125 138.125,587.6875 138.125,616.2 " fill="none" id="Client-User" style="stroke:#A80036;stroke-width:1.25;"/><polygon fill="#000000" points="144.375,573.9697,148.0487,562.6634,140.7013,562.6634,144.375,573.9697" style="stroke:#000000;stroke-width:1.25;"/><text fill="#000000" font-family="sans-serif" font-size="16.25" lengthAdjust="spacing" textLength="67.5" x="155.625" y="574.3689">relates to</text><text fill="#000000" font-family="sans-serif" font-size="16.25" lengthAdjust="spacing" textLength="27.5" x="109.4434" y="545.2847">0..1</text><text fill="#000000" font-family="sans-serif" font-size="16.25" lengthAdjust="spacing" textLength="8.75" x="128.6777" y="602.5864">1</text><!--MD5=[63a6bcaa47b736837b2ca188fb35918b]
@startuml

class Company{
  designation
}

class Receptionist


class Client{
  name
  phoneNumber
  taxIdentificationNumber
  email
  birthDate
  gender
  nhsNumber
  citizenCardNumber
  }

 class User{
   name
   email
   password
 }


Company "1" - - - "*" Client: has >

Receptionist "1" - - "1..*"Client: registers >

Client  "0..1" - - "1"User: > relates to

@enduml

PlantUML version 1.2021.00(Sun Jan 10 10:25:05 GMT 2021)
(GPL source distribution)
Java Runtime: OpenJDK Runtime Environment
JVM: OpenJDK 64-Bit Server VM
Default Encoding: Cp1252
Language: pt
Country: PT
--></g></svg>