<?xml version="1.0" encoding="UTF-8" standalone="no"?><svg xmlns="http://www.w3.org/2000/svg" xmlns:xlink="http://www.w3.org/1999/xlink" contentScriptType="application/ecmascript" contentStyleType="text/css" height="1347px" preserveAspectRatio="none" style="width:1120px;height:1347px;" version="1.1" viewBox="0 0 1120 1347" width="1120px" zoomAndPan="magnify"><defs><filter height="300%" id="f5bv7o035oqbv" width="300%" x="-1" y="-1"><feGaussianBlur result="blurOut" stdDeviation="2.0"/><feColorMatrix in="blurOut" result="blurOut2" type="matrix" values="0 0 0 0 0 0 0 0 0 0 0 0 0 0 0 0 0 0 .4 0"/><feOffset dx="4.0" dy="4.0" in="blurOut2" result="blurOut3"/><feBlend in="SourceGraphic" in2="blurOut3" mode="normal"/></filter></defs><g><!--MD5=[050b4c4f5a6f983888d2a8b4ff566d24]
class RecordResultsUI--><rect codeLine="4" fill="#FEFECE" filter="url(#f5bv7o035oqbv)" height="48" id="RecordResultsUI" style="stroke:#A80036;stroke-width:1.5;" width="127" x="440" y="48.5"/><ellipse cx="455" cy="64.5" fill="#ADD1B2" rx="11" ry="11" style="stroke:#A80036;stroke-width:1.0;"/><path d="M457,61 Q457.2031,60.5 457.4375,60.25 Q457.6719,60 457.9375,60 Q458.4063,60 458.7031,60.2813 Q459,60.5625 459,61.2188 L459,62.7813 Q459,63.4375 458.7188,63.7188 Q458.4375,64 458,64 Q457.6094,64 457.3594,63.8281 Q457.1094,63.6563 457,63.2031 Q456.9531,62.8906 456.7813,62.7188 Q456.4688,62.3906 455.9063,62.2031 Q455.3438,62 454.7813,62 Q454.0781,62 453.4844,62.2813 Q452.9063,62.5625 452.4531,63.1875 Q452,63.8125 452,64.6719 L452,65.5938 Q452,66.625 452.8438,67.3125 Q453.6875,68 455.1875,68 Q456.0781,68 456.7031,67.7969 Q457.0625,67.6875 457.4688,67.3281 Q457.7344,67.125 457.875,67.0625 Q458.0156,67 458.1875,67 Q458.5156,67 458.75,67.2656 Q459,67.5156 459,67.875 Q459,68.2188 458.6563,68.625 Q458.1563,69.2188 457.3594,69.5469 Q456.3125,70 455.0313,70 Q453.5313,70 452.3281,69.4063 Q451.3594,68.9375 450.6719,67.9219 Q450,66.9063 450,65.7031 L450,64.6094 Q450,63.3594 450.5938,62.2656 Q451.2031,61.1719 452.25,60.5938 Q453.3125,60 454.5,60 Q455.2188,60 455.8438,60.25 Q456.4688,60.5 457,61 Z " fill="#000000"/><text fill="#000000" font-family="sans-serif" font-size="12" lengthAdjust="spacing" textLength="95" x="469" y="69.4102">RecordResultsUI</text><line style="stroke:#A80036;stroke-width:1.5;" x1="441" x2="566" y1="80.5" y2="80.5"/><line style="stroke:#A80036;stroke-width:1.5;" x1="441" x2="566" y1="88.5" y2="88.5"/><!--MD5=[ab6fcce6d49d940c28db8ba495cfa0ae]
class RecordResultsController--><rect codeLine="7" fill="#FEFECE" filter="url(#f5bv7o035oqbv)" height="131.0156" id="RecordResultsController" style="stroke:#A80036;stroke-width:1.5;" width="207" x="602" y="7"/><ellipse cx="634.1" cy="23" fill="#ADD1B2" rx="11" ry="11" style="stroke:#A80036;stroke-width:1.0;"/><path d="M636.1,19.5 Q636.3031,19 636.5375,18.75 Q636.7719,18.5 637.0375,18.5 Q637.5063,18.5 637.8031,18.7813 Q638.1,19.0625 638.1,19.7188 L638.1,21.2813 Q638.1,21.9375 637.8188,22.2188 Q637.5375,22.5 637.1,22.5 Q636.7094,22.5 636.4594,22.3281 Q636.2094,22.1563 636.1,21.7031 Q636.0531,21.3906 635.8813,21.2188 Q635.5688,20.8906 635.0063,20.7031 Q634.4438,20.5 633.8813,20.5 Q633.1781,20.5 632.5844,20.7813 Q632.0063,21.0625 631.5531,21.6875 Q631.1,22.3125 631.1,23.1719 L631.1,24.0938 Q631.1,25.125 631.9438,25.8125 Q632.7875,26.5 634.2875,26.5 Q635.1781,26.5 635.8031,26.2969 Q636.1625,26.1875 636.5688,25.8281 Q636.8344,25.625 636.975,25.5625 Q637.1156,25.5 637.2875,25.5 Q637.6156,25.5 637.85,25.7656 Q638.1,26.0156 638.1,26.375 Q638.1,26.7188 637.7563,27.125 Q637.2563,27.7188 636.4594,28.0469 Q635.4125,28.5 634.1313,28.5 Q632.6313,28.5 631.4281,27.9063 Q630.4594,27.4375 629.7719,26.4219 Q629.1,25.4063 629.1,24.2031 L629.1,23.1094 Q629.1,21.8594 629.6938,20.7656 Q630.3031,19.6719 631.35,19.0938 Q632.4125,18.5 633.6,18.5 Q634.3188,18.5 634.9438,18.75 Q635.5688,19 636.1,19.5 Z " fill="#000000"/><text fill="#000000" font-family="sans-serif" font-size="12" lengthAdjust="spacing" textLength="137" x="651.9" y="27.9102">RecordResultsController</text><line style="stroke:#A80036;stroke-width:1.5;" x1="603" x2="808" y1="39" y2="39"/><line style="stroke:#A80036;stroke-width:1.5;" x1="603" x2="808" y1="47" y2="47"/><ellipse cx="613" cy="58" fill="#84BE84" rx="3" ry="3" style="stroke:#038048;stroke-width:1.0;"/><text fill="#000000" font-family="sans-serif" font-size="11" lengthAdjust="spacing" textLength="125" x="622" y="62.4189">RecordResultsController()</text><ellipse cx="613" cy="71.8359" fill="#84BE84" rx="3" ry="3" style="stroke:#038048;stroke-width:1.0;"/><text fill="#000000" font-family="sans-serif" font-size="11" lengthAdjust="spacing" textLength="169" x="622" y="76.2549">RecordResultsController(company)</text><ellipse cx="613" cy="85.6719" fill="#84BE84" rx="3" ry="3" style="stroke:#038048;stroke-width:1.0;"/><text fill="#000000" font-family="sans-serif" font-size="11" lengthAdjust="spacing" textLength="89" x="622" y="90.0908">getParameterList()</text><ellipse cx="613" cy="99.5078" fill="#84BE84" rx="3" ry="3" style="stroke:#038048;stroke-width:1.0;"/><text fill="#000000" font-family="sans-serif" font-size="11" lengthAdjust="spacing" textLength="138" x="622" y="103.9268">getTestByBarcode(barcode)</text><ellipse cx="613" cy="113.3438" fill="#84BE84" rx="3" ry="3" style="stroke:#038048;stroke-width:1.0;"/><text fill="#000000" font-family="sans-serif" font-size="11" lengthAdjust="spacing" textLength="181" x="622" y="117.7627">addTestResult(parameterCode,result)</text><ellipse cx="613" cy="127.1797" fill="#84BE84" rx="3" ry="3" style="stroke:#038048;stroke-width:1.0;"/><text fill="#000000" font-family="sans-serif" font-size="11" lengthAdjust="spacing" textLength="96" x="622" y="131.5986">validateTestResult()</text><!--MD5=[02e4b9b7573f1156f41e60aa5b4e25a4]
class Company--><rect codeLine="16" fill="#FEFECE" filter="url(#f5bv7o035oqbv)" height="75.6719" id="Company" style="stroke:#A80036;stroke-width:1.5;" width="96" x="890.5" y="199"/><ellipse cx="910.45" cy="215" fill="#ADD1B2" rx="11" ry="11" style="stroke:#A80036;stroke-width:1.0;"/><path d="M912.45,211.5 Q912.6531,211 912.8875,210.75 Q913.1219,210.5 913.3875,210.5 Q913.8563,210.5 914.1531,210.7813 Q914.45,211.0625 914.45,211.7188 L914.45,213.2813 Q914.45,213.9375 914.1688,214.2188 Q913.8875,214.5 913.45,214.5 Q913.0594,214.5 912.8094,214.3281 Q912.5594,214.1563 912.45,213.7031 Q912.4031,213.3906 912.2313,213.2188 Q911.9188,212.8906 911.3563,212.7031 Q910.7938,212.5 910.2313,212.5 Q909.5281,212.5 908.9344,212.7813 Q908.3563,213.0625 907.9031,213.6875 Q907.45,214.3125 907.45,215.1719 L907.45,216.0938 Q907.45,217.125 908.2938,217.8125 Q909.1375,218.5 910.6375,218.5 Q911.5281,218.5 912.1531,218.2969 Q912.5125,218.1875 912.9188,217.8281 Q913.1844,217.625 913.325,217.5625 Q913.4656,217.5 913.6375,217.5 Q913.9656,217.5 914.2,217.7656 Q914.45,218.0156 914.45,218.375 Q914.45,218.7188 914.1063,219.125 Q913.6063,219.7188 912.8094,220.0469 Q911.7625,220.5 910.4813,220.5 Q908.9813,220.5 907.7781,219.9063 Q906.8094,219.4375 906.1219,218.4219 Q905.45,217.4063 905.45,216.2031 L905.45,215.1094 Q905.45,213.8594 906.0438,212.7656 Q906.6531,211.6719 907.7,211.0938 Q908.7625,210.5 909.95,210.5 Q910.6688,210.5 911.2938,210.75 Q911.9188,211 912.45,211.5 Z " fill="#000000"/><text fill="#000000" font-family="sans-serif" font-size="12" lengthAdjust="spacing" textLength="53" x="925.55" y="219.9102">Company</text><line style="stroke:#A80036;stroke-width:1.5;" x1="891.5" x2="985.5" y1="231" y2="231"/><rect fill="none" height="6" style="stroke:#C82930;stroke-width:1.0;" width="6" x="898.5" y="239"/><text fill="#000000" font-family="sans-serif" font-size="11" lengthAdjust="spacing" textLength="55" x="910.5" y="246.4189">designation</text><line style="stroke:#A80036;stroke-width:1.5;" x1="891.5" x2="985.5" y1="252.8359" y2="252.8359"/><ellipse cx="901.5" cy="263.8359" fill="#84BE84" rx="3" ry="3" style="stroke:#038048;stroke-width:1.0;"/><text fill="#000000" font-family="sans-serif" font-size="11" lengthAdjust="spacing" textLength="70" x="910.5" y="268.2549">getTestStore()</text><!--MD5=[0f6f7964b844a64b0496af0dda7914bd]
class TestStore--><rect codeLine="22" fill="#FEFECE" filter="url(#f5bv7o035oqbv)" height="75.6719" id="TestStore" style="stroke:#A80036;stroke-width:1.5;" width="164" x="163.5" y="199"/><ellipse cx="214.75" cy="215" fill="#ADD1B2" rx="11" ry="11" style="stroke:#A80036;stroke-width:1.0;"/><path d="M216.75,211.5 Q216.9531,211 217.1875,210.75 Q217.4219,210.5 217.6875,210.5 Q218.1563,210.5 218.4531,210.7813 Q218.75,211.0625 218.75,211.7188 L218.75,213.2813 Q218.75,213.9375 218.4688,214.2188 Q218.1875,214.5 217.75,214.5 Q217.3594,214.5 217.1094,214.3281 Q216.8594,214.1563 216.75,213.7031 Q216.7031,213.3906 216.5313,213.2188 Q216.2188,212.8906 215.6563,212.7031 Q215.0938,212.5 214.5313,212.5 Q213.8281,212.5 213.2344,212.7813 Q212.6563,213.0625 212.2031,213.6875 Q211.75,214.3125 211.75,215.1719 L211.75,216.0938 Q211.75,217.125 212.5938,217.8125 Q213.4375,218.5 214.9375,218.5 Q215.8281,218.5 216.4531,218.2969 Q216.8125,218.1875 217.2188,217.8281 Q217.4844,217.625 217.625,217.5625 Q217.7656,217.5 217.9375,217.5 Q218.2656,217.5 218.5,217.7656 Q218.75,218.0156 218.75,218.375 Q218.75,218.7188 218.4063,219.125 Q217.9063,219.7188 217.1094,220.0469 Q216.0625,220.5 214.7813,220.5 Q213.2813,220.5 212.0781,219.9063 Q211.1094,219.4375 210.4219,218.4219 Q209.75,217.4063 209.75,216.2031 L209.75,215.1094 Q209.75,213.8594 210.3438,212.7656 Q210.9531,211.6719 212,211.0938 Q213.0625,210.5 214.25,210.5 Q214.9688,210.5 215.5938,210.75 Q216.2188,211 216.75,211.5 Z " fill="#000000"/><text fill="#000000" font-family="sans-serif" font-size="12" lengthAdjust="spacing" textLength="53" x="235.25" y="219.9102">TestStore</text><line style="stroke:#A80036;stroke-width:1.5;" x1="164.5" x2="326.5" y1="231" y2="231"/><line style="stroke:#A80036;stroke-width:1.5;" x1="164.5" x2="326.5" y1="239" y2="239"/><ellipse cx="174.5" cy="250" fill="#84BE84" rx="3" ry="3" style="stroke:#038048;stroke-width:1.0;"/><text fill="#000000" font-family="sans-serif" font-size="11" lengthAdjust="spacing" textLength="138" x="183.5" y="254.4189">getTestByBarcode(barcode)</text><ellipse cx="174.5" cy="263.8359" fill="#84BE84" rx="3" ry="3" style="stroke:#038048;stroke-width:1.0;"/><text fill="#000000" font-family="sans-serif" font-size="11" lengthAdjust="spacing" textLength="99" x="183.5" y="268.2549">addTestResultDate()</text><!--MD5=[df38be88ccee13e832d6fafd6288a4ca]
class Test--><rect codeLine="27" fill="#FEFECE" filter="url(#f5bv7o035oqbv)" height="172.5234" id="Test" style="stroke:#A80036;stroke-width:1.5;" width="245" x="213" y="500"/><ellipse cx="319.25" cy="516" fill="#ADD1B2" rx="11" ry="11" style="stroke:#A80036;stroke-width:1.0;"/><path d="M321.25,512.5 Q321.4531,512 321.6875,511.75 Q321.9219,511.5 322.1875,511.5 Q322.6563,511.5 322.9531,511.7813 Q323.25,512.0625 323.25,512.7188 L323.25,514.2813 Q323.25,514.9375 322.9688,515.2188 Q322.6875,515.5 322.25,515.5 Q321.8594,515.5 321.6094,515.3281 Q321.3594,515.1563 321.25,514.7031 Q321.2031,514.3906 321.0313,514.2188 Q320.7188,513.8906 320.1563,513.7031 Q319.5938,513.5 319.0313,513.5 Q318.3281,513.5 317.7344,513.7813 Q317.1563,514.0625 316.7031,514.6875 Q316.25,515.3125 316.25,516.1719 L316.25,517.0938 Q316.25,518.125 317.0938,518.8125 Q317.9375,519.5 319.4375,519.5 Q320.3281,519.5 320.9531,519.2969 Q321.3125,519.1875 321.7188,518.8281 Q321.9844,518.625 322.125,518.5625 Q322.2656,518.5 322.4375,518.5 Q322.7656,518.5 323,518.7656 Q323.25,519.0156 323.25,519.375 Q323.25,519.7188 322.9063,520.125 Q322.4063,520.7188 321.6094,521.0469 Q320.5625,521.5 319.2813,521.5 Q317.7813,521.5 316.5781,520.9063 Q315.6094,520.4375 314.9219,519.4219 Q314.25,518.4063 314.25,517.2031 L314.25,516.1094 Q314.25,514.8594 314.8438,513.7656 Q315.4531,512.6719 316.5,512.0938 Q317.5625,511.5 318.75,511.5 Q319.4688,511.5 320.0938,511.75 Q320.7188,512 321.25,512.5 Z " fill="#000000"/><text fill="#000000" font-family="sans-serif" font-size="12" lengthAdjust="spacing" textLength="24" x="339.75" y="520.9102">Test</text><line style="stroke:#A80036;stroke-width:1.5;" x1="214" x2="457" y1="532" y2="532"/><rect fill="none" height="6" style="stroke:#C82930;stroke-width:1.0;" width="6" x="221" y="540"/><text fill="#000000" font-family="sans-serif" font-size="11" lengthAdjust="spacing" textLength="43" x="233" y="547.4189">nhsCode</text><rect fill="none" height="6" style="stroke:#C82930;stroke-width:1.0;" width="6" x="221" y="553.8359"/><text fill="#000000" font-family="sans-serif" font-size="11" lengthAdjust="spacing" textLength="24" x="233" y="561.2549">code</text><rect fill="none" height="6" style="stroke:#C82930;stroke-width:1.0;" width="6" x="221" y="567.6719"/><text fill="#000000" font-family="sans-serif" font-size="11" lengthAdjust="spacing" textLength="48" x="233" y="575.0908">createdAt</text><rect fill="none" height="6" style="stroke:#C82930;stroke-width:1.0;" width="6" x="221" y="581.5078"/><text fill="#000000" font-family="sans-serif" font-size="11" lengthAdjust="spacing" textLength="56" x="233" y="588.9268">sampleDate</text><rect fill="none" height="6" style="stroke:#C82930;stroke-width:1.0;" width="6" x="221" y="595.3438"/><text fill="#000000" font-family="sans-serif" font-size="11" lengthAdjust="spacing" textLength="49" x="233" y="602.7627">resultDate</text><rect fill="none" height="6" style="stroke:#C82930;stroke-width:1.0;" width="6" x="221" y="609.1797"/><text fill="#000000" font-family="sans-serif" font-size="11" lengthAdjust="spacing" textLength="51" x="233" y="616.5986">reportDate</text><line style="stroke:#A80036;stroke-width:1.5;" x1="214" x2="457" y1="623.0156" y2="623.0156"/><ellipse cx="224" cy="634.0156" fill="#84BE84" rx="3" ry="3" style="stroke:#038048;stroke-width:1.0;"/><text fill="#000000" font-family="sans-serif" font-size="11" lengthAdjust="spacing" textLength="219" x="233" y="638.4346">addTestResult(result, parameterCode, metric)</text><ellipse cx="224" cy="647.8516" fill="#84BE84" rx="3" ry="3" style="stroke:#038048;stroke-width:1.0;"/><text fill="#000000" font-family="sans-serif" font-size="11" lengthAdjust="spacing" textLength="183" x="233" y="652.2705">getTestParameterFor(parameterCode)</text><ellipse cx="224" cy="661.6875" fill="#84BE84" rx="3" ry="3" style="stroke:#038048;stroke-width:1.0;"/><text fill="#000000" font-family="sans-serif" font-size="11" lengthAdjust="spacing" textLength="166" x="233" y="666.1064">setTestResultDate(testResultDate)</text><!--MD5=[f8d2b21678b6ea5d90e779ee6463ca37]
class Utils--><rect codeLine="40" fill="#FEFECE" filter="url(#f5bv7o035oqbv)" height="61.8359" id="Utils" style="stroke:#A80036;stroke-width:1.5;" width="91" x="363" y="206"/><ellipse cx="393.3" cy="222" fill="#ADD1B2" rx="11" ry="11" style="stroke:#A80036;stroke-width:1.0;"/><path d="M395.3,218.5 Q395.5031,218 395.7375,217.75 Q395.9719,217.5 396.2375,217.5 Q396.7063,217.5 397.0031,217.7813 Q397.3,218.0625 397.3,218.7188 L397.3,220.2813 Q397.3,220.9375 397.0188,221.2188 Q396.7375,221.5 396.3,221.5 Q395.9094,221.5 395.6594,221.3281 Q395.4094,221.1563 395.3,220.7031 Q395.2531,220.3906 395.0813,220.2188 Q394.7688,219.8906 394.2063,219.7031 Q393.6438,219.5 393.0813,219.5 Q392.3781,219.5 391.7844,219.7813 Q391.2063,220.0625 390.7531,220.6875 Q390.3,221.3125 390.3,222.1719 L390.3,223.0938 Q390.3,224.125 391.1438,224.8125 Q391.9875,225.5 393.4875,225.5 Q394.3781,225.5 395.0031,225.2969 Q395.3625,225.1875 395.7688,224.8281 Q396.0344,224.625 396.175,224.5625 Q396.3156,224.5 396.4875,224.5 Q396.8156,224.5 397.05,224.7656 Q397.3,225.0156 397.3,225.375 Q397.3,225.7188 396.9563,226.125 Q396.4563,226.7188 395.6594,227.0469 Q394.6125,227.5 393.3313,227.5 Q391.8313,227.5 390.6281,226.9063 Q389.6594,226.4375 388.9719,225.4219 Q388.3,224.4063 388.3,223.2031 L388.3,222.1094 Q388.3,220.8594 388.8938,219.7656 Q389.5031,218.6719 390.55,218.0938 Q391.6125,217.5 392.8,217.5 Q393.5188,217.5 394.1438,217.75 Q394.7688,218 395.3,218.5 Z " fill="#000000"/><text fill="#000000" font-family="sans-serif" font-size="12" lengthAdjust="spacing" textLength="25" x="410.7" y="226.9102">Utils</text><line style="stroke:#A80036;stroke-width:1.5;" x1="364" x2="453" y1="238" y2="238"/><line style="stroke:#A80036;stroke-width:1.5;" x1="364" x2="453" y1="246" y2="246"/><ellipse cx="374" cy="257" fill="#84BE84" rx="3" ry="3" style="stroke:#038048;stroke-width:1.0;"/><text fill="#000000" font-family="sans-serif" font-size="11" lengthAdjust="spacing" textLength="65" x="383" y="261.4189">currentDate()</text><!--MD5=[e0569d1bc34b9d21face98cd33d75fba]
class ParameterMapper--><rect codeLine="43" fill="#FEFECE" filter="url(#f5bv7o035oqbv)" height="75.6719" id="ParameterMapper" style="stroke:#A80036;stroke-width:1.5;" width="131" x="724" y="199"/><ellipse cx="739" cy="215" fill="#ADD1B2" rx="11" ry="11" style="stroke:#A80036;stroke-width:1.0;"/><path d="M741,211.5 Q741.2031,211 741.4375,210.75 Q741.6719,210.5 741.9375,210.5 Q742.4063,210.5 742.7031,210.7813 Q743,211.0625 743,211.7188 L743,213.2813 Q743,213.9375 742.7188,214.2188 Q742.4375,214.5 742,214.5 Q741.6094,214.5 741.3594,214.3281 Q741.1094,214.1563 741,213.7031 Q740.9531,213.3906 740.7813,213.2188 Q740.4688,212.8906 739.9063,212.7031 Q739.3438,212.5 738.7813,212.5 Q738.0781,212.5 737.4844,212.7813 Q736.9063,213.0625 736.4531,213.6875 Q736,214.3125 736,215.1719 L736,216.0938 Q736,217.125 736.8438,217.8125 Q737.6875,218.5 739.1875,218.5 Q740.0781,218.5 740.7031,218.2969 Q741.0625,218.1875 741.4688,217.8281 Q741.7344,217.625 741.875,217.5625 Q742.0156,217.5 742.1875,217.5 Q742.5156,217.5 742.75,217.7656 Q743,218.0156 743,218.375 Q743,218.7188 742.6563,219.125 Q742.1563,219.7188 741.3594,220.0469 Q740.3125,220.5 739.0313,220.5 Q737.5313,220.5 736.3281,219.9063 Q735.3594,219.4375 734.6719,218.4219 Q734,217.4063 734,216.2031 L734,215.1094 Q734,213.8594 734.5938,212.7656 Q735.2031,211.6719 736.25,211.0938 Q737.3125,210.5 738.5,210.5 Q739.2188,210.5 739.8438,210.75 Q740.4688,211 741,211.5 Z " fill="#000000"/><text fill="#000000" font-family="sans-serif" font-size="12" lengthAdjust="spacing" textLength="99" x="753" y="219.9102">ParameterMapper</text><line style="stroke:#A80036;stroke-width:1.5;" x1="725" x2="854" y1="231" y2="231"/><line style="stroke:#A80036;stroke-width:1.5;" x1="725" x2="854" y1="239" y2="239"/><ellipse cx="735" cy="250" fill="#84BE84" rx="3" ry="3" style="stroke:#038048;stroke-width:1.0;"/><text fill="#000000" font-family="sans-serif" font-size="11" lengthAdjust="spacing" textLength="82" x="744" y="254.4189">toDto(parameter)</text><ellipse cx="735" cy="263.8359" fill="#84BE84" rx="3" ry="3" style="stroke:#038048;stroke-width:1.0;"/><text fill="#000000" font-family="sans-serif" font-size="11" lengthAdjust="spacing" textLength="99" x="744" y="268.2549">toDto(parameterList)</text><!--MD5=[0f07739f46effee96e095e9c408da841]
class TestParameter--><rect codeLine="47" fill="#FEFECE" filter="url(#f5bv7o035oqbv)" height="75.6719" id="TestParameter" style="stroke:#A80036;stroke-width:1.5;" width="247" x="624" y="548.5"/><ellipse cx="702.25" cy="564.5" fill="#ADD1B2" rx="11" ry="11" style="stroke:#A80036;stroke-width:1.0;"/><path d="M704.25,561 Q704.4531,560.5 704.6875,560.25 Q704.9219,560 705.1875,560 Q705.6563,560 705.9531,560.2813 Q706.25,560.5625 706.25,561.2188 L706.25,562.7813 Q706.25,563.4375 705.9688,563.7188 Q705.6875,564 705.25,564 Q704.8594,564 704.6094,563.8281 Q704.3594,563.6563 704.25,563.2031 Q704.2031,562.8906 704.0313,562.7188 Q703.7188,562.3906 703.1563,562.2031 Q702.5938,562 702.0313,562 Q701.3281,562 700.7344,562.2813 Q700.1563,562.5625 699.7031,563.1875 Q699.25,563.8125 699.25,564.6719 L699.25,565.5938 Q699.25,566.625 700.0938,567.3125 Q700.9375,568 702.4375,568 Q703.3281,568 703.9531,567.7969 Q704.3125,567.6875 704.7188,567.3281 Q704.9844,567.125 705.125,567.0625 Q705.2656,567 705.4375,567 Q705.7656,567 706,567.2656 Q706.25,567.5156 706.25,567.875 Q706.25,568.2188 705.9063,568.625 Q705.4063,569.2188 704.6094,569.5469 Q703.5625,570 702.2813,570 Q700.7813,570 699.5781,569.4063 Q698.6094,568.9375 697.9219,567.9219 Q697.25,566.9063 697.25,565.7031 L697.25,564.6094 Q697.25,563.3594 697.8438,562.2656 Q698.4531,561.1719 699.5,560.5938 Q700.5625,560 701.75,560 Q702.4688,560 703.0938,560.25 Q703.7188,560.5 704.25,561 Z " fill="#000000"/><text fill="#000000" font-family="sans-serif" font-size="12" lengthAdjust="spacing" textLength="82" x="722.75" y="569.4102">TestParameter</text><line style="stroke:#A80036;stroke-width:1.5;" x1="625" x2="870" y1="580.5" y2="580.5"/><line style="stroke:#A80036;stroke-width:1.5;" x1="625" x2="870" y1="588.5" y2="588.5"/><ellipse cx="635" cy="599.5" fill="#84BE84" rx="3" ry="3" style="stroke:#038048;stroke-width:1.0;"/><text fill="#000000" font-family="sans-serif" font-size="11" lengthAdjust="spacing" textLength="72" x="644" y="603.9189">getParameter()</text><ellipse cx="635" cy="613.3359" fill="#84BE84" rx="3" ry="3" style="stroke:#038048;stroke-width:1.0;"/><text fill="#000000" font-family="sans-serif" font-size="11" lengthAdjust="spacing" textLength="221" x="644" y="617.7549">addTestResult(result, metric, referenceValue)</text><!--MD5=[b42990f7a7d3650acbc29420386312ae]
class ParameterDto--><rect codeLine="51" fill="#FEFECE" filter="url(#f5bv7o035oqbv)" height="103.3438" id="ParameterDto" style="stroke:#A80036;stroke-width:1.5;" width="234" x="383.5" y="336"/><ellipse cx="457.75" cy="352" fill="#ADD1B2" rx="11" ry="11" style="stroke:#A80036;stroke-width:1.0;"/><path d="M459.75,348.5 Q459.9531,348 460.1875,347.75 Q460.4219,347.5 460.6875,347.5 Q461.1563,347.5 461.4531,347.7813 Q461.75,348.0625 461.75,348.7188 L461.75,350.2813 Q461.75,350.9375 461.4688,351.2188 Q461.1875,351.5 460.75,351.5 Q460.3594,351.5 460.1094,351.3281 Q459.8594,351.1563 459.75,350.7031 Q459.7031,350.3906 459.5313,350.2188 Q459.2188,349.8906 458.6563,349.7031 Q458.0938,349.5 457.5313,349.5 Q456.8281,349.5 456.2344,349.7813 Q455.6563,350.0625 455.2031,350.6875 Q454.75,351.3125 454.75,352.1719 L454.75,353.0938 Q454.75,354.125 455.5938,354.8125 Q456.4375,355.5 457.9375,355.5 Q458.8281,355.5 459.4531,355.2969 Q459.8125,355.1875 460.2188,354.8281 Q460.4844,354.625 460.625,354.5625 Q460.7656,354.5 460.9375,354.5 Q461.2656,354.5 461.5,354.7656 Q461.75,355.0156 461.75,355.375 Q461.75,355.7188 461.4063,356.125 Q460.9063,356.7188 460.1094,357.0469 Q459.0625,357.5 457.7813,357.5 Q456.2813,357.5 455.0781,356.9063 Q454.1094,356.4375 453.4219,355.4219 Q452.75,354.4063 452.75,353.2031 L452.75,352.1094 Q452.75,350.8594 453.3438,349.7656 Q453.9531,348.6719 455,348.0938 Q456.0625,347.5 457.25,347.5 Q457.9688,347.5 458.5938,347.75 Q459.2188,348 459.75,348.5 Z " fill="#000000"/><text fill="#000000" font-family="sans-serif" font-size="12" lengthAdjust="spacing" textLength="77" x="478.25" y="356.9102">ParameterDto</text><line style="stroke:#A80036;stroke-width:1.5;" x1="384.5" x2="616.5" y1="368" y2="368"/><rect fill="none" height="6" style="stroke:#C82930;stroke-width:1.0;" width="6" x="391.5" y="376"/><text fill="#000000" font-family="sans-serif" font-size="11" lengthAdjust="spacing" textLength="24" x="403.5" y="383.4189">code</text><rect fill="none" height="6" style="stroke:#C82930;stroke-width:1.0;" width="6" x="391.5" y="389.8359"/><text fill="#000000" font-family="sans-serif" font-size="11" lengthAdjust="spacing" textLength="52" x="403.5" y="397.2549">shortName</text><rect fill="none" height="6" style="stroke:#C82930;stroke-width:1.0;" width="6" x="391.5" y="403.6719"/><text fill="#000000" font-family="sans-serif" font-size="11" lengthAdjust="spacing" textLength="53" x="403.5" y="411.0908">description</text><line style="stroke:#A80036;stroke-width:1.5;" x1="384.5" x2="616.5" y1="417.5078" y2="417.5078"/><ellipse cx="394.5" cy="428.5078" fill="#84BE84" rx="3" ry="3" style="stroke:#038048;stroke-width:1.0;"/><text fill="#000000" font-family="sans-serif" font-size="11" lengthAdjust="spacing" textLength="208" x="403.5" y="432.9268">parameterDto(code,shortName,description)</text><!--MD5=[1f6362a5c8f21d8d6a0fce68f3a92a4e]
class Parameter--><rect codeLine="57" fill="#FEFECE" filter="url(#f5bv7o035oqbv)" height="89.5078" id="Parameter" style="stroke:#A80036;stroke-width:1.5;" width="90" x="967.5" y="541.5"/><ellipse cx="982.5" cy="557.5" fill="#ADD1B2" rx="11" ry="11" style="stroke:#A80036;stroke-width:1.0;"/><path d="M984.5,554 Q984.7031,553.5 984.9375,553.25 Q985.1719,553 985.4375,553 Q985.9063,553 986.2031,553.2813 Q986.5,553.5625 986.5,554.2188 L986.5,555.7813 Q986.5,556.4375 986.2188,556.7188 Q985.9375,557 985.5,557 Q985.1094,557 984.8594,556.8281 Q984.6094,556.6563 984.5,556.2031 Q984.4531,555.8906 984.2813,555.7188 Q983.9688,555.3906 983.4063,555.2031 Q982.8438,555 982.2813,555 Q981.5781,555 980.9844,555.2813 Q980.4063,555.5625 979.9531,556.1875 Q979.5,556.8125 979.5,557.6719 L979.5,558.5938 Q979.5,559.625 980.3438,560.3125 Q981.1875,561 982.6875,561 Q983.5781,561 984.2031,560.7969 Q984.5625,560.6875 984.9688,560.3281 Q985.2344,560.125 985.375,560.0625 Q985.5156,560 985.6875,560 Q986.0156,560 986.25,560.2656 Q986.5,560.5156 986.5,560.875 Q986.5,561.2188 986.1563,561.625 Q985.6563,562.2188 984.8594,562.5469 Q983.8125,563 982.5313,563 Q981.0313,563 979.8281,562.4063 Q978.8594,561.9375 978.1719,560.9219 Q977.5,559.9063 977.5,558.7031 L977.5,557.6094 Q977.5,556.3594 978.0938,555.2656 Q978.7031,554.1719 979.75,553.5938 Q980.8125,553 982,553 Q982.7188,553 983.3438,553.25 Q983.9688,553.5 984.5,554 Z " fill="#000000"/><text fill="#000000" font-family="sans-serif" font-size="12" lengthAdjust="spacing" textLength="58" x="996.5" y="562.4102">Parameter</text><line style="stroke:#A80036;stroke-width:1.5;" x1="968.5" x2="1056.5" y1="573.5" y2="573.5"/><rect fill="none" height="6" style="stroke:#C82930;stroke-width:1.0;" width="6" x="975.5" y="581.5"/><text fill="#000000" font-family="sans-serif" font-size="11" lengthAdjust="spacing" textLength="24" x="987.5" y="588.9189">code</text><rect fill="none" height="6" style="stroke:#C82930;stroke-width:1.0;" width="6" x="975.5" y="595.3359"/><text fill="#000000" font-family="sans-serif" font-size="11" lengthAdjust="spacing" textLength="52" x="987.5" y="602.7549">shortName</text><rect fill="none" height="6" style="stroke:#C82930;stroke-width:1.0;" width="6" x="975.5" y="609.1719"/><text fill="#000000" font-family="sans-serif" font-size="11" lengthAdjust="spacing" textLength="53" x="987.5" y="616.5908">description</text><line style="stroke:#A80036;stroke-width:1.5;" x1="968.5" x2="1056.5" y1="623.0078" y2="623.0078"/><!--MD5=[aeb3272166074d8737a70b61b1e71682]
class TestType--><rect codeLine="63" fill="#FEFECE" filter="url(#f5bv7o035oqbv)" height="61.8359" id="TestType" style="stroke:#A80036;stroke-width:1.5;" width="122" x="189.5" y="751"/><ellipse cx="222.5" cy="767" fill="#ADD1B2" rx="11" ry="11" style="stroke:#A80036;stroke-width:1.0;"/><path d="M224.5,763.5 Q224.7031,763 224.9375,762.75 Q225.1719,762.5 225.4375,762.5 Q225.9063,762.5 226.2031,762.7813 Q226.5,763.0625 226.5,763.7188 L226.5,765.2813 Q226.5,765.9375 226.2188,766.2188 Q225.9375,766.5 225.5,766.5 Q225.1094,766.5 224.8594,766.3281 Q224.6094,766.1563 224.5,765.7031 Q224.4531,765.3906 224.2813,765.2188 Q223.9688,764.8906 223.4063,764.7031 Q222.8438,764.5 222.2813,764.5 Q221.5781,764.5 220.9844,764.7813 Q220.4063,765.0625 219.9531,765.6875 Q219.5,766.3125 219.5,767.1719 L219.5,768.0938 Q219.5,769.125 220.3438,769.8125 Q221.1875,770.5 222.6875,770.5 Q223.5781,770.5 224.2031,770.2969 Q224.5625,770.1875 224.9688,769.8281 Q225.2344,769.625 225.375,769.5625 Q225.5156,769.5 225.6875,769.5 Q226.0156,769.5 226.25,769.7656 Q226.5,770.0156 226.5,770.375 Q226.5,770.7188 226.1563,771.125 Q225.6563,771.7188 224.8594,772.0469 Q223.8125,772.5 222.5313,772.5 Q221.0313,772.5 219.8281,771.9063 Q218.8594,771.4375 218.1719,770.4219 Q217.5,769.4063 217.5,768.2031 L217.5,767.1094 Q217.5,765.8594 218.0938,764.7656 Q218.7031,763.6719 219.75,763.0938 Q220.8125,762.5 222,762.5 Q222.7188,762.5 223.3438,762.75 Q223.9688,763 224.5,763.5 Z " fill="#000000"/><text fill="#000000" font-family="sans-serif" font-size="12" lengthAdjust="spacing" textLength="50" x="240.5" y="771.9102">TestType</text><line style="stroke:#A80036;stroke-width:1.5;" x1="190.5" x2="310.5" y1="783" y2="783"/><line style="stroke:#A80036;stroke-width:1.5;" x1="190.5" x2="310.5" y1="791" y2="791"/><ellipse cx="200.5" cy="802" fill="#84BE84" rx="3" ry="3" style="stroke:#038048;stroke-width:1.0;"/><text fill="#000000" font-family="sans-serif" font-size="11" lengthAdjust="spacing" textLength="96" x="209.5" y="806.4189">getExternalModule()</text><!--MD5=[0f11f0f60ee567100a99d4d7b98e8e2f]
class ExternalModuleAdapter1--><rect codeLine="67" fill="#FEFECE" filter="url(#f5bv7o035oqbv)" height="75.6719" id="ExternalModuleAdapter1" style="stroke:#A80036;stroke-width:1.5;" width="177" x="7" y="1258"/><ellipse cx="27.4" cy="1274" fill="#ADD1B2" rx="11" ry="11" style="stroke:#A80036;stroke-width:1.0;"/><path d="M29.4,1270.5 Q29.6031,1270 29.8375,1269.75 Q30.0719,1269.5 30.3375,1269.5 Q30.8063,1269.5 31.1031,1269.7813 Q31.4,1270.0625 31.4,1270.7188 L31.4,1272.2813 Q31.4,1272.9375 31.1188,1273.2188 Q30.8375,1273.5 30.4,1273.5 Q30.0094,1273.5 29.7594,1273.3281 Q29.5094,1273.1563 29.4,1272.7031 Q29.3531,1272.3906 29.1813,1272.2188 Q28.8688,1271.8906 28.3063,1271.7031 Q27.7438,1271.5 27.1813,1271.5 Q26.4781,1271.5 25.8844,1271.7813 Q25.3063,1272.0625 24.8531,1272.6875 Q24.4,1273.3125 24.4,1274.1719 L24.4,1275.0938 Q24.4,1276.125 25.2438,1276.8125 Q26.0875,1277.5 27.5875,1277.5 Q28.4781,1277.5 29.1031,1277.2969 Q29.4625,1277.1875 29.8688,1276.8281 Q30.1344,1276.625 30.275,1276.5625 Q30.4156,1276.5 30.5875,1276.5 Q30.9156,1276.5 31.15,1276.7656 Q31.4,1277.0156 31.4,1277.375 Q31.4,1277.7188 31.0563,1278.125 Q30.5563,1278.7188 29.7594,1279.0469 Q28.7125,1279.5 27.4313,1279.5 Q25.9313,1279.5 24.7281,1278.9063 Q23.7594,1278.4375 23.0719,1277.4219 Q22.4,1276.4063 22.4,1275.2031 L22.4,1274.1094 Q22.4,1272.8594 22.9938,1271.7656 Q23.6031,1270.6719 24.65,1270.0938 Q25.7125,1269.5 26.9,1269.5 Q27.6188,1269.5 28.2438,1269.75 Q28.8688,1270 29.4,1270.5 Z " fill="#000000"/><text fill="#000000" font-family="sans-serif" font-size="12" lengthAdjust="spacing" textLength="133" x="42.6" y="1278.9102">ExternalModuleAdapter1</text><line style="stroke:#A80036;stroke-width:1.5;" x1="8" x2="183" y1="1290" y2="1290"/><line style="stroke:#A80036;stroke-width:1.5;" x1="8" x2="183" y1="1298" y2="1298"/><ellipse cx="18" cy="1309" fill="#84BE84" rx="3" ry="3" style="stroke:#038048;stroke-width:1.0;"/><text fill="#000000" font-family="sans-serif" font-size="11" lengthAdjust="spacing" textLength="151" x="27" y="1313.4189">getReferenceValue(parameter)</text><ellipse cx="18" cy="1322.8359" fill="#84BE84" rx="3" ry="3" style="stroke:#038048;stroke-width:1.0;"/><text fill="#000000" font-family="sans-serif" font-size="11" lengthAdjust="spacing" textLength="101" x="27" y="1327.2549">getMetric(parameter)</text><!--MD5=[2191233c03d1d98f88ead7aa4dd76da0]
class ExternalModuleAdapter2--><rect codeLine="71" fill="#FEFECE" filter="url(#f5bv7o035oqbv)" height="75.6719" id="ExternalModuleAdapter2" style="stroke:#A80036;stroke-width:1.5;" width="177" x="219" y="1258"/><ellipse cx="239.4" cy="1274" fill="#ADD1B2" rx="11" ry="11" style="stroke:#A80036;stroke-width:1.0;"/><path d="M241.4,1270.5 Q241.6031,1270 241.8375,1269.75 Q242.0719,1269.5 242.3375,1269.5 Q242.8063,1269.5 243.1031,1269.7813 Q243.4,1270.0625 243.4,1270.7188 L243.4,1272.2813 Q243.4,1272.9375 243.1188,1273.2188 Q242.8375,1273.5 242.4,1273.5 Q242.0094,1273.5 241.7594,1273.3281 Q241.5094,1273.1563 241.4,1272.7031 Q241.3531,1272.3906 241.1813,1272.2188 Q240.8688,1271.8906 240.3063,1271.7031 Q239.7438,1271.5 239.1813,1271.5 Q238.4781,1271.5 237.8844,1271.7813 Q237.3063,1272.0625 236.8531,1272.6875 Q236.4,1273.3125 236.4,1274.1719 L236.4,1275.0938 Q236.4,1276.125 237.2438,1276.8125 Q238.0875,1277.5 239.5875,1277.5 Q240.4781,1277.5 241.1031,1277.2969 Q241.4625,1277.1875 241.8688,1276.8281 Q242.1344,1276.625 242.275,1276.5625 Q242.4156,1276.5 242.5875,1276.5 Q242.9156,1276.5 243.15,1276.7656 Q243.4,1277.0156 243.4,1277.375 Q243.4,1277.7188 243.0563,1278.125 Q242.5563,1278.7188 241.7594,1279.0469 Q240.7125,1279.5 239.4313,1279.5 Q237.9313,1279.5 236.7281,1278.9063 Q235.7594,1278.4375 235.0719,1277.4219 Q234.4,1276.4063 234.4,1275.2031 L234.4,1274.1094 Q234.4,1272.8594 234.9938,1271.7656 Q235.6031,1270.6719 236.65,1270.0938 Q237.7125,1269.5 238.9,1269.5 Q239.6188,1269.5 240.2438,1269.75 Q240.8688,1270 241.4,1270.5 Z " fill="#000000"/><text fill="#000000" font-family="sans-serif" font-size="12" lengthAdjust="spacing" textLength="133" x="254.6" y="1278.9102">ExternalModuleAdapter2</text><line style="stroke:#A80036;stroke-width:1.5;" x1="220" x2="395" y1="1290" y2="1290"/><line style="stroke:#A80036;stroke-width:1.5;" x1="220" x2="395" y1="1298" y2="1298"/><ellipse cx="230" cy="1309" fill="#84BE84" rx="3" ry="3" style="stroke:#038048;stroke-width:1.0;"/><text fill="#000000" font-family="sans-serif" font-size="11" lengthAdjust="spacing" textLength="151" x="239" y="1313.4189">getReferenceValue(parameter)</text><ellipse cx="230" cy="1322.8359" fill="#84BE84" rx="3" ry="3" style="stroke:#038048;stroke-width:1.0;"/><text fill="#000000" font-family="sans-serif" font-size="11" lengthAdjust="spacing" textLength="101" x="239" y="1327.2549">getMetric(parameter)</text><!--MD5=[63386ce01156be326996be41135b9514]
class ExternalModuleAdapter3--><rect codeLine="75" fill="#FEFECE" filter="url(#f5bv7o035oqbv)" height="75.6719" id="ExternalModuleAdapter3" style="stroke:#A80036;stroke-width:1.5;" width="177" x="431" y="1258"/><ellipse cx="451.4" cy="1274" fill="#ADD1B2" rx="11" ry="11" style="stroke:#A80036;stroke-width:1.0;"/><path d="M453.4,1270.5 Q453.6031,1270 453.8375,1269.75 Q454.0719,1269.5 454.3375,1269.5 Q454.8063,1269.5 455.1031,1269.7813 Q455.4,1270.0625 455.4,1270.7188 L455.4,1272.2813 Q455.4,1272.9375 455.1188,1273.2188 Q454.8375,1273.5 454.4,1273.5 Q454.0094,1273.5 453.7594,1273.3281 Q453.5094,1273.1563 453.4,1272.7031 Q453.3531,1272.3906 453.1813,1272.2188 Q452.8688,1271.8906 452.3063,1271.7031 Q451.7438,1271.5 451.1813,1271.5 Q450.4781,1271.5 449.8844,1271.7813 Q449.3063,1272.0625 448.8531,1272.6875 Q448.4,1273.3125 448.4,1274.1719 L448.4,1275.0938 Q448.4,1276.125 449.2438,1276.8125 Q450.0875,1277.5 451.5875,1277.5 Q452.4781,1277.5 453.1031,1277.2969 Q453.4625,1277.1875 453.8688,1276.8281 Q454.1344,1276.625 454.275,1276.5625 Q454.4156,1276.5 454.5875,1276.5 Q454.9156,1276.5 455.15,1276.7656 Q455.4,1277.0156 455.4,1277.375 Q455.4,1277.7188 455.0563,1278.125 Q454.5563,1278.7188 453.7594,1279.0469 Q452.7125,1279.5 451.4313,1279.5 Q449.9313,1279.5 448.7281,1278.9063 Q447.7594,1278.4375 447.0719,1277.4219 Q446.4,1276.4063 446.4,1275.2031 L446.4,1274.1094 Q446.4,1272.8594 446.9938,1271.7656 Q447.6031,1270.6719 448.65,1270.0938 Q449.7125,1269.5 450.9,1269.5 Q451.6188,1269.5 452.2438,1269.75 Q452.8688,1270 453.4,1270.5 Z " fill="#000000"/><text fill="#000000" font-family="sans-serif" font-size="12" lengthAdjust="spacing" textLength="133" x="466.6" y="1278.9102">ExternalModuleAdapter3</text><line style="stroke:#A80036;stroke-width:1.5;" x1="432" x2="607" y1="1290" y2="1290"/><line style="stroke:#A80036;stroke-width:1.5;" x1="432" x2="607" y1="1298" y2="1298"/><ellipse cx="442" cy="1309" fill="#84BE84" rx="3" ry="3" style="stroke:#038048;stroke-width:1.0;"/><text fill="#000000" font-family="sans-serif" font-size="11" lengthAdjust="spacing" textLength="151" x="451" y="1313.4189">getReferenceValue(parameter)</text><ellipse cx="442" cy="1322.8359" fill="#84BE84" rx="3" ry="3" style="stroke:#038048;stroke-width:1.0;"/><text fill="#000000" font-family="sans-serif" font-size="11" lengthAdjust="spacing" textLength="101" x="451" y="1327.2549">getMetric(parameter)</text><!--MD5=[8f188b89eff49accb0f38c057b38a9f2]
class ExternalModule--><rect codeLine="80" fill="#FEFECE" filter="url(#f5bv7o035oqbv)" height="75.6719" id="ExternalModule" style="stroke:#A80036;stroke-width:1.5;" width="177" x="219" y="1121"/><ellipse cx="261" cy="1137" fill="#B4A7E5" rx="11" ry="11" style="stroke:#A80036;stroke-width:1.0;"/><path d="M262,1134 L262,1140 L264,1140 L264.4844,1140 L265,1140.625 L265,1141 L265,1141.375 L264.4844,1142 L264,1142 L258,1142 L257.5156,1142 L257,1141.375 L257,1141 L257,1140.625 L257.5156,1140 L258,1140 L260,1140 L260,1134 L258,1134 L257.5156,1134 L257,1133.375 L257,1133 L257,1132.625 L257.5156,1132 L258,1132 L264,1132 L264.4844,1132 L265,1132.625 L265,1133 L265,1133.375 L264.4844,1134 L264,1134 L262,1134 Z " fill="#000000"/><text fill="#000000" font-family="sans-serif" font-size="12" font-style="italic" lengthAdjust="spacing" textLength="85" x="281" y="1141.9102">ExternalModule</text><line style="stroke:#A80036;stroke-width:1.5;" x1="220" x2="395" y1="1153" y2="1153"/><line style="stroke:#A80036;stroke-width:1.5;" x1="220" x2="395" y1="1161" y2="1161"/><ellipse cx="230" cy="1172" fill="#84BE84" rx="3" ry="3" style="stroke:#038048;stroke-width:1.0;"/><text fill="#000000" font-family="sans-serif" font-size="11" lengthAdjust="spacing" textLength="151" x="239" y="1176.4189">getReferenceValue(parameter)</text><ellipse cx="230" cy="1185.8359" fill="#84BE84" rx="3" ry="3" style="stroke:#038048;stroke-width:1.0;"/><text fill="#000000" font-family="sans-serif" font-size="11" lengthAdjust="spacing" textLength="101" x="239" y="1190.2549">getMetric(parameter)</text><!--MD5=[1c357e7e7fdba398bcadd6e61afe49f5]
class ReferenceValue--><rect codeLine="85" fill="#FEFECE" filter="url(#f5bv7o035oqbv)" height="89.5078" id="ReferenceValue" style="stroke:#A80036;stroke-width:1.5;" width="133" x="681" y="891"/><ellipse cx="701.85" cy="907" fill="#ADD1B2" rx="11" ry="11" style="stroke:#A80036;stroke-width:1.0;"/><path d="M703.85,903.5 Q704.0531,903 704.2875,902.75 Q704.5219,902.5 704.7875,902.5 Q705.2563,902.5 705.5531,902.7813 Q705.85,903.0625 705.85,903.7188 L705.85,905.2813 Q705.85,905.9375 705.5688,906.2188 Q705.2875,906.5 704.85,906.5 Q704.4594,906.5 704.2094,906.3281 Q703.9594,906.1563 703.85,905.7031 Q703.8031,905.3906 703.6313,905.2188 Q703.3188,904.8906 702.7563,904.7031 Q702.1938,904.5 701.6313,904.5 Q700.9281,904.5 700.3344,904.7813 Q699.7563,905.0625 699.3031,905.6875 Q698.85,906.3125 698.85,907.1719 L698.85,908.0938 Q698.85,909.125 699.6938,909.8125 Q700.5375,910.5 702.0375,910.5 Q702.9281,910.5 703.5531,910.2969 Q703.9125,910.1875 704.3188,909.8281 Q704.5844,909.625 704.725,909.5625 Q704.8656,909.5 705.0375,909.5 Q705.3656,909.5 705.6,909.7656 Q705.85,910.0156 705.85,910.375 Q705.85,910.7188 705.5063,911.125 Q705.0063,911.7188 704.2094,912.0469 Q703.1625,912.5 701.8813,912.5 Q700.3813,912.5 699.1781,911.9063 Q698.2094,911.4375 697.5219,910.4219 Q696.85,909.4063 696.85,908.2031 L696.85,907.1094 Q696.85,905.8594 697.4438,904.7656 Q698.0531,903.6719 699.1,903.0938 Q700.1625,902.5 701.35,902.5 Q702.0688,902.5 702.6938,902.75 Q703.3188,903 703.85,903.5 Z " fill="#000000"/><text fill="#000000" font-family="sans-serif" font-size="12" lengthAdjust="spacing" textLength="88" x="717.15" y="911.9102">ReferenceValue</text><line style="stroke:#A80036;stroke-width:1.5;" x1="682" x2="813" y1="923" y2="923"/><rect fill="none" height="6" style="stroke:#C82930;stroke-width:1.0;" width="6" x="689" y="931"/><text fill="#000000" font-family="sans-serif" font-size="11" lengthAdjust="spacing" textLength="107" x="701" y="938.4189">lowerReferenceValue</text><rect fill="none" height="6" style="stroke:#C82930;stroke-width:1.0;" width="6" x="689" y="944.8359"/><text fill="#000000" font-family="sans-serif" font-size="11" lengthAdjust="spacing" textLength="107" x="701" y="952.2549">upperReferenceValue</text><line style="stroke:#A80036;stroke-width:1.5;" x1="682" x2="813" y1="958.6719" y2="958.6719"/><ellipse cx="692" cy="969.6719" fill="#84BE84" rx="3" ry="3" style="stroke:#038048;stroke-width:1.0;"/><text fill="#000000" font-family="sans-serif" font-size="11" lengthAdjust="spacing" textLength="87" x="701" y="974.0908">ReferenceValue()</text><!--MD5=[4e608140b854dae633589343bce77383]
class TestParameterResult--><rect codeLine="92" fill="#FEFECE" filter="url(#f5bv7o035oqbv)" height="61.8359" id="TestParameterResult" style="stroke:#A80036;stroke-width:1.5;" width="278" x="608.5" y="751"/><ellipse cx="684.25" cy="767" fill="#ADD1B2" rx="11" ry="11" style="stroke:#A80036;stroke-width:1.0;"/><path d="M686.25,763.5 Q686.4531,763 686.6875,762.75 Q686.9219,762.5 687.1875,762.5 Q687.6563,762.5 687.9531,762.7813 Q688.25,763.0625 688.25,763.7188 L688.25,765.2813 Q688.25,765.9375 687.9688,766.2188 Q687.6875,766.5 687.25,766.5 Q686.8594,766.5 686.6094,766.3281 Q686.3594,766.1563 686.25,765.7031 Q686.2031,765.3906 686.0313,765.2188 Q685.7188,764.8906 685.1563,764.7031 Q684.5938,764.5 684.0313,764.5 Q683.3281,764.5 682.7344,764.7813 Q682.1563,765.0625 681.7031,765.6875 Q681.25,766.3125 681.25,767.1719 L681.25,768.0938 Q681.25,769.125 682.0938,769.8125 Q682.9375,770.5 684.4375,770.5 Q685.3281,770.5 685.9531,770.2969 Q686.3125,770.1875 686.7188,769.8281 Q686.9844,769.625 687.125,769.5625 Q687.2656,769.5 687.4375,769.5 Q687.7656,769.5 688,769.7656 Q688.25,770.0156 688.25,770.375 Q688.25,770.7188 687.9063,771.125 Q687.4063,771.7188 686.6094,772.0469 Q685.5625,772.5 684.2813,772.5 Q682.7813,772.5 681.5781,771.9063 Q680.6094,771.4375 679.9219,770.4219 Q679.25,769.4063 679.25,768.2031 L679.25,767.1094 Q679.25,765.8594 679.8438,764.7656 Q680.4531,763.6719 681.5,763.0938 Q682.5625,762.5 683.75,762.5 Q684.4688,762.5 685.0938,762.75 Q685.7188,763 686.25,763.5 Z " fill="#000000"/><text fill="#000000" font-family="sans-serif" font-size="12" lengthAdjust="spacing" textLength="118" x="704.75" y="771.9102">TestParameterResult</text><line style="stroke:#A80036;stroke-width:1.5;" x1="609.5" x2="885.5" y1="783" y2="783"/><line style="stroke:#A80036;stroke-width:1.5;" x1="609.5" x2="885.5" y1="791" y2="791"/><ellipse cx="619.5" cy="802" fill="#84BE84" rx="3" ry="3" style="stroke:#038048;stroke-width:1.0;"/><text fill="#000000" font-family="sans-serif" font-size="11" lengthAdjust="spacing" textLength="252" x="628.5" y="806.4189">TestParameterResult(result, metric, referenceValue)</text><!--MD5=[0259fadb38466e78c39bf33b4f8b858d]
link RecordResultsUI to ParameterDto--><path codeLine="96" d="M503.28,96.52 C502.81,145.43 501.7,260.94 501.04,330.51 " fill="none" id="RecordResultsUI-to-ParameterDto" style="stroke:#A80036;stroke-width:1.0;stroke-dasharray:7.0,7.0;"/><polygon fill="#A80036" points="500.99,335.85,505.0926,326.8963,501.0471,330.8503,497.0931,326.8049,500.99,335.85" style="stroke:#A80036;stroke-width:1.0;"/><!--MD5=[3658f24f54b6913ac92069b502cb15eb]
link RecordResultsUI to RecordResultsController--><path codeLine="98" d="M567.02,72.5 C576.92,72.5 586.83,72.5 596.73,72.5 " fill="none" id="RecordResultsUI-to-RecordResultsController" style="stroke:#A80036;stroke-width:1.0;stroke-dasharray:7.0,7.0;"/><polygon fill="#A80036" points="601.91,72.5,592.91,68.5,596.91,72.5,592.91,76.5,601.91,72.5" style="stroke:#A80036;stroke-width:1.0;"/><!--MD5=[d684bc00c1ddfb53475dc496608bab12]
link RecordResultsController to Company--><path codeLine="99" d="M798.26,138.19 C828.13,159.03 860.18,181.38 886.09,199.45 " fill="none" id="RecordResultsController-to-Company" style="stroke:#A80036;stroke-width:1.0;stroke-dasharray:7.0,7.0;"/><polygon fill="#A80036" points="890.2,202.31,885.1227,193.8707,886.1045,199.4417,880.5335,200.4235,890.2,202.31" style="stroke:#A80036;stroke-width:1.0;"/><!--MD5=[dc41caf219a17b0a23cdf29d9b1d1469]
link RecordResultsController to TestStore--><path codeLine="100" d="M601.97,130.72 C596.12,133.31 590.27,135.76 584.5,138 C482.28,177.62 450.16,166.38 345.5,199 C341.22,200.33 336.85,201.75 332.45,203.21 " fill="none" id="RecordResultsController-to-TestStore" style="stroke:#A80036;stroke-width:1.0;stroke-dasharray:7.0,7.0;"/><polygon fill="#A80036" points="327.67,204.82,337.4739,205.7598,332.412,203.2346,334.9372,198.1726,327.67,204.82" style="stroke:#A80036;stroke-width:1.0;"/><!--MD5=[618a5f472619b17b01cf55c6072cef5f]
link RecordResultsController to Test--><path codeLine="101" d="M699.87,138.03 C690.72,229.98 669.97,392.68 634.5,439 C592.28,494.13 523.85,529.78 463.11,552.09 " fill="none" id="RecordResultsController-to-Test" style="stroke:#A80036;stroke-width:1.0;stroke-dasharray:7.0,7.0;"/><polygon fill="#A80036" points="458.37,553.81,468.1939,554.5103,463.0719,552.1093,465.4728,546.9873,458.37,553.81" style="stroke:#A80036;stroke-width:1.0;"/><!--MD5=[a4f8fa180ec75daba3d5fa2f66a84c42]
link Test to ExternalModule--><path codeLine="102" d="M354.58,673.27 C360.5,706.71 365.5,745.48 365.5,781 C365.5,781 365.5,781 365.5,1060 C365.5,1080.41 356.07,1100.3 344.81,1116.77 " fill="none" id="Test-to-ExternalModule" style="stroke:#A80036;stroke-width:1.0;stroke-dasharray:7.0,7.0;"/><polygon fill="#A80036" points="341.91,1120.88,350.3694,1115.8363,344.7945,1116.796,343.8349,1111.2211,341.91,1120.88" style="stroke:#A80036;stroke-width:1.0;"/><!--MD5=[c2c2ccc97fe06aa0672aa10f0c0d0d1b]
reverse link ExternalModule to ExternalModuleAdapter1--><path codeLine="103" d="M232.39,1207.83 C206.63,1224.24 178.19,1242.34 153.95,1257.78 " fill="none" id="ExternalModule-backto-ExternalModuleAdapter1" style="stroke:#A80036;stroke-width:1.0;stroke-dasharray:7.0,7.0;"/><polygon fill="none" points="228.66,1201.91,249.29,1197.07,236.18,1213.72,228.66,1201.91" style="stroke:#A80036;stroke-width:1.0;"/><!--MD5=[e762491942221b7e6cccce8a5f133053]
reverse link ExternalModule to ExternalModuleAdapter2--><path codeLine="104" d="M307.5,1217.33 C307.5,1231.05 307.5,1245.34 307.5,1257.87 " fill="none" id="ExternalModule-backto-ExternalModuleAdapter2" style="stroke:#A80036;stroke-width:1.0;stroke-dasharray:7.0,7.0;"/><polygon fill="none" points="300.5,1217.25,307.5,1197.25,314.5,1217.25,300.5,1217.25" style="stroke:#A80036;stroke-width:1.0;"/><!--MD5=[1d0e74bf7655fc5437023a6d82ac8590]
reverse link ExternalModule to ExternalModuleAdapter3--><path codeLine="105" d="M382.61,1207.83 C408.37,1224.24 436.81,1242.34 461.05,1257.78 " fill="none" id="ExternalModule-backto-ExternalModuleAdapter3" style="stroke:#A80036;stroke-width:1.0;stroke-dasharray:7.0,7.0;"/><polygon fill="none" points="378.82,1213.72,365.71,1197.07,386.34,1201.91,378.82,1213.72" style="stroke:#A80036;stroke-width:1.0;"/><!--MD5=[b0f4f6db8206580012ef9cd998ed01c5]
link TestStore to Test--><path codeLine="106" d="M255.13,275.19 C268.92,328.42 294.67,427.83 313.31,499.82 " fill="none" id="TestStore-Test" style="stroke:#A80036;stroke-width:1.0;"/><polygon fill="#000000" points="303.7537,392.5161,304.3308,383.023,298.6407,384.4968,303.7537,392.5161" style="stroke:#000000;stroke-width:1.0;"/><text fill="#000000" font-family="sans-serif" font-size="13" lengthAdjust="spacing" textLength="21" x="311.5" y="392.9951">has</text><text fill="#000000" font-family="sans-serif" font-size="13" lengthAdjust="spacing" textLength="7" x="249.107" y="296.1008">1</text><text fill="#000000" font-family="sans-serif" font-size="13" lengthAdjust="spacing" textLength="5" x="306.1882" y="489.2141">*</text><!--MD5=[70d89944940c3244e7532af0352b680c]
link TestStore to Utils--><path codeLine="107" d="M327.64,237 C337.59,237 347.54,237 357.49,237 " fill="none" id="TestStore-to-Utils" style="stroke:#A80036;stroke-width:1.0;stroke-dasharray:7.0,7.0;"/><polygon fill="#A80036" points="362.7,237,353.7,233,357.7,237,353.7,241,362.7,237" style="stroke:#A80036;stroke-width:1.0;"/><!--MD5=[310e85849b065df20736ccc116ed909e]
link ParameterMapper to ParameterDto--><path codeLine="108" d="M723.92,271.7 C688.47,289.91 643.89,312.82 603.89,333.38 " fill="none" id="ParameterMapper-to-ParameterDto" style="stroke:#A80036;stroke-width:1.0;stroke-dasharray:7.0,7.0;"/><polygon fill="#A80036" points="599.03,335.87,608.8629,335.3096,603.4761,333.5826,605.2031,328.1958,599.03,335.87" style="stroke:#A80036;stroke-width:1.0;"/><!--MD5=[6a9c25a7b7cd4f2505d061be4a34119e]
link ParameterMapper to Parameter--><path codeLine="109" d="M790.67,275.16 C793.55,317.67 803.13,387.97 834.5,439 C851.24,466.22 916.35,516.48 962.97,550.45 " fill="none" id="ParameterMapper-to-Parameter" style="stroke:#A80036;stroke-width:1.0;stroke-dasharray:7.0,7.0;"/><polygon fill="#A80036" points="967.14,553.48,962.2176,544.9494,963.0976,550.5374,957.5096,551.4174,967.14,553.48" style="stroke:#A80036;stroke-width:1.0;"/><!--MD5=[3acac1ce488a964e2f88e06e3161607c]
link RecordResultsController to ParameterMapper--><path codeLine="110" d="M738.94,138.19 C748.64,156.96 758.98,176.96 767.76,193.95 " fill="none" id="RecordResultsController-to-ParameterMapper" style="stroke:#A80036;stroke-width:1.0;stroke-dasharray:7.0,7.0;"/><polygon fill="#A80036" points="770.2,198.66,769.6396,188.8271,767.9126,194.2139,762.5258,192.4869,770.2,198.66" style="stroke:#A80036;stroke-width:1.0;"/><!--MD5=[9bdcc1565b5d7912e17b78c23c83a686]
link RecordResultsController to ParameterDto--><path codeLine="111" d="M663.02,138.35 C625.72,195.31 572.05,277.26 536.74,331.17 " fill="none" id="RecordResultsController-to-ParameterDto" style="stroke:#A80036;stroke-width:1.0;stroke-dasharray:7.0,7.0;"/><polygon fill="#A80036" points="533.8,335.65,542.0785,330.3146,536.5405,331.4679,535.3872,325.9299,533.8,335.65" style="stroke:#A80036;stroke-width:1.0;"/><!--MD5=[7e4bc624457760b649895ff2ead938fa]
link Company to Test--><path codeLine="112" d="M909.23,275.16 C867.28,326.06 785.27,417.15 696.5,470 C691.04,473.25 560.68,514.65 458.17,546.96 " fill="none" id="Company-Test" style="stroke:#A80036;stroke-width:1.0;"/><polygon fill="#000000" points="855.2174,390.2564,864.4815,388.1053,861.4478,383.0708,855.2174,390.2564" style="stroke:#000000;stroke-width:1.0;"/><text fill="#000000" font-family="sans-serif" font-size="13" lengthAdjust="spacing" textLength="50" x="868.5" y="392.9951">performs</text><text fill="#000000" font-family="sans-serif" font-size="13" lengthAdjust="spacing" textLength="7" x="897.0073" y="296.066">1</text><text fill="#000000" font-family="sans-serif" font-size="13" lengthAdjust="spacing" textLength="5" x="466.1887" y="541.4361">*</text><!--MD5=[71e6920dcc27afae8f25537cd5357b5f]
link TestType to ExternalModule--><path codeLine="113" d="M245.48,813.38 C238.73,860.3 229.42,952.94 246.5,1029 C253.85,1061.75 270.51,1095.97 284.57,1120.93 " fill="none" id="TestType-ExternalModule" style="stroke:#A80036;stroke-width:1.0;"/><polygon fill="#000000" points="252.1304,1025.1359,253.9054,1015.7924,248.0745,1016.5335,252.1304,1025.1359" style="stroke:#000000;stroke-width:1.0;"/><text fill="#000000" font-family="sans-serif" font-size="13" lengthAdjust="spacing" textLength="78" x="260.5" y="1025.4951">makes use of</text><text fill="#000000" font-family="sans-serif" font-size="13" lengthAdjust="spacing" textLength="5" x="239.0465" y="834.4311">*</text><text fill="#000000" font-family="sans-serif" font-size="13" lengthAdjust="spacing" textLength="7" x="272.8622" y="1110.2794">1</text><!--MD5=[12d76240d3c3c66074d4ec2ea8bf469c]
link Company to Parameter--><path codeLine="114" d="M946.42,275.19 C960.16,339.71 988.35,472.1 1003.08,541.24 " fill="none" id="Company-Parameter" style="stroke:#A80036;stroke-width:1.0;"/><polygon fill="#000000" points="986.5415,392.5661,987.5319,383.1073,981.783,384.3316,986.5415,392.5661" style="stroke:#000000;stroke-width:1.0;"/><text fill="#000000" font-family="sans-serif" font-size="13" lengthAdjust="spacing" textLength="118" x="994.5" y="392.9951">capable of analysing</text><text fill="#000000" font-family="sans-serif" font-size="13" lengthAdjust="spacing" textLength="7" x="940.1244" y="296.1008">1</text><text fill="#000000" font-family="sans-serif" font-size="13" lengthAdjust="spacing" textLength="5" x="996.2548" y="530.6443">*</text><!--MD5=[0e00e25ac6b8c14659aaff2cf7e5df08]
link TestParameter to TestParameterResult--><path codeLine="115" d="M747.5,624.81 C747.5,661.49 747.5,716.78 747.5,750.79 " fill="none" id="TestParameter-TestParameterResult" style="stroke:#A80036;stroke-width:1.0;"/><polygon fill="#000000" points="752.5,717.1758,755.4389,708.1307,749.5611,708.1307,752.5,717.1758" style="stroke:#000000;stroke-width:1.0;"/><text fill="#000000" font-family="sans-serif" font-size="13" lengthAdjust="spacing" textLength="49" x="761.5" y="717.4951">contains</text><text fill="#000000" font-family="sans-serif" font-size="13" lengthAdjust="spacing" textLength="7" x="739.9422" y="645.7399">1</text><text fill="#000000" font-family="sans-serif" font-size="13" lengthAdjust="spacing" textLength="22" x="723.2313" y="740.2512">0..1</text><!--MD5=[52200cc2361fa0ac0481dd6ffcdb824b]
link TestParameterResult to ReferenceValue--><path codeLine="116" d="M747.5,813.03 C747.5,835.27 747.5,865.91 747.5,890.92 " fill="none" id="TestParameterResult-ReferenceValue" style="stroke:#A80036;stroke-width:1.0;"/><polygon fill="#000000" points="752.5,857.1758,755.4389,848.1307,749.5611,848.1307,752.5,857.1758" style="stroke:#000000;stroke-width:1.0;"/><text fill="#000000" font-family="sans-serif" font-size="13" lengthAdjust="spacing" textLength="43" x="761.5" y="857.4951">records</text><text fill="#000000" font-family="sans-serif" font-size="13" lengthAdjust="spacing" textLength="7" x="739.8109" y="834.2599">1</text><text fill="#000000" font-family="sans-serif" font-size="13" lengthAdjust="spacing" textLength="7" x="739.9422" y="880.0227">1</text><!--MD5=[f24c888dadeb846430474fe80a58922b]
link Test to TestParameter--><path codeLine="117" d="M458.28,586.5 C510.57,586.5 571.46,586.5 623.85,586.5 " fill="none" id="Test-TestParameter" style="stroke:#A80036;stroke-width:1.0;"/><polygon fill="#000000" points="485.5,574.6758,476.4549,571.7369,476.4549,577.6147,485.5,574.6758" style="stroke:#000000;stroke-width:1.0;"/><text fill="#000000" font-family="sans-serif" font-size="13" lengthAdjust="spacing" textLength="116" x="489.5" y="579.9951">requests analysis of</text><text fill="#000000" font-family="sans-serif" font-size="13" lengthAdjust="spacing" textLength="7" x="465.9752" y="583.5328">1</text><text fill="#000000" font-family="sans-serif" font-size="13" lengthAdjust="spacing" textLength="20" x="596.1234" y="600.4773">1..*</text><!--MD5=[92e8e476cc9e9004a7125f53a120ec97]
link TestParameter to Parameter--><path codeLine="118" d="M871.08,586.5 C905.49,586.5 940.7,586.5 967.38,586.5 " fill="none" id="TestParameter-Parameter" style="stroke:#A80036;stroke-width:1.0;"/><polygon fill="#000000" points="898.25,574.6758,889.2049,571.7369,889.2049,577.6147,898.25,574.6758" style="stroke:#000000;stroke-width:1.0;"/><text fill="#000000" font-family="sans-serif" font-size="13" lengthAdjust="spacing" textLength="47" x="902.25" y="579.9951">refers to</text><text fill="#000000" font-family="sans-serif" font-size="13" lengthAdjust="spacing" textLength="5" x="879.157" y="583.5044">*</text><text fill="#000000" font-family="sans-serif" font-size="13" lengthAdjust="spacing" textLength="7" x="952.6312" y="582.7874">1</text><!--MD5=[e981d4f96c4342412d1e68160b30cf70]
link Test to TestType--><path codeLine="119" d="M297.85,673.22 C285.68,700.92 272.98,729.84 263.79,750.74 " fill="none" id="Test-TestType" style="stroke:#A80036;stroke-width:1.0;"/><polygon fill="#000000" points="286.4887,716.7534,292.8178,709.6546,287.4365,707.2902,286.4887,716.7534" style="stroke:#000000;stroke-width:1.0;"/><text fill="#000000" font-family="sans-serif" font-size="13" lengthAdjust="spacing" textLength="24" x="297.5" y="717.4951">is of</text><text fill="#000000" font-family="sans-serif" font-size="13" lengthAdjust="spacing" textLength="5" x="289.776" y="693.9988">*</text><text fill="#000000" font-family="sans-serif" font-size="13" lengthAdjust="spacing" textLength="7" x="258.8092" y="740.1909">1</text><!--MD5=[96956aff42e87540af2b705911d6090f]
@startuml
'https://plantuml.com/class-diagram


class RecordResultsUI{
}

class RecordResultsController{
    + RecordResultsController()
    + RecordResultsController(company)
    + getParameterList()
    + getTestByBarcode(barcode)
    + addTestResult(parameterCode,result)
    + validateTestResult()
}

class Company{
    - designation

    + getTestStore()
}

class TestStore{
    + getTestByBarcode(barcode)
    + addTestResultDate()
}

class Test{
    - nhsCode
    - code
    - createdAt
    - sampleDate
    - resultDate
    - reportDate

    + addTestResult(result, parameterCode, metric)
    + getTestParameterFor(parameterCode)
    + setTestResultDate(testResultDate)
}

class Utils{
    + currentDate()
}
class ParameterMapper{
    + toDto(parameter)
    + toDto(parameterList)
}
class TestParameter{
    + getParameter()
    + addTestResult(result, metric, referenceValue)
}
class ParameterDto{
    - code
    - shortName
    - description
    + parameterDto(code,shortName,description)
}
class Parameter{
    - code
    - shortName
    - description
}

class TestType{
    + getExternalModule()
}

class ExternalModuleAdapter1{
    + getReferenceValue(parameter)
    + getMetric(parameter)
}
class ExternalModuleAdapter2{
    + getReferenceValue(parameter)
     + getMetric(parameter)
}
class ExternalModuleAdapter3{
    + getReferenceValue(parameter)
     + getMetric(parameter)
}

Interface ExternalModule{
    + getReferenceValue(parameter)
     + getMetric(parameter)
}

class ReferenceValue{
    - lowerReferenceValue
    - upperReferenceValue

    + ReferenceValue()
}

class TestParameterResult{
    + TestParameterResult(result, metric, referenceValue)
}

RecordResultsUI ..> ParameterDto

RecordResultsUI .> RecordResultsController
RecordResultsController ..> Company
RecordResultsController ..> TestStore
RecordResultsController ..> Test
Test ..> ExternalModule
ExternalModule <|.. ExternalModuleAdapter1
ExternalModule <|..  ExternalModuleAdapter2
ExternalModule <|.. ExternalModuleAdapter3
TestStore "1" - - "*" Test: has >
TestStore .> Utils
ParameterMapper ..> ParameterDto
ParameterMapper ..> Parameter
RecordResultsController ..> ParameterMapper
RecordResultsController ..> ParameterDto
Company "1" - - - "*" Test: performs >
TestType "*" - - - - "1" ExternalModule: makes use of >
Company "1" - "*" Parameter: capable of analysing >
TestParameter "1" - - "0..1" TestParameterResult: contains >
TestParameterResult "1" - - "1" ReferenceValue: records >
Test "1" - "1..*" TestParameter: requests analysis of >
TestParameter "*" - "1" Parameter: refers to >
Test "*" - - "1" TestType: is of >


@enduml

@startuml


class RecordResultsUI{
}

class RecordResultsController{
    + RecordResultsController()
    + RecordResultsController(company)
    + getParameterList()
    + getTestByBarcode(barcode)
    + addTestResult(parameterCode,result)
    + validateTestResult()
}

class Company{
    - designation

    + getTestStore()
}

class TestStore{
    + getTestByBarcode(barcode)
    + addTestResultDate()
}

class Test{
    - nhsCode
    - code
    - createdAt
    - sampleDate
    - resultDate
    - reportDate

    + addTestResult(result, parameterCode, metric)
    + getTestParameterFor(parameterCode)
    + setTestResultDate(testResultDate)
}

class Utils{
    + currentDate()
}
class ParameterMapper{
    + toDto(parameter)
    + toDto(parameterList)
}
class TestParameter{
    + getParameter()
    + addTestResult(result, metric, referenceValue)
}
class ParameterDto{
    - code
    - shortName
    - description
    + parameterDto(code,shortName,description)
}
class Parameter{
    - code
    - shortName
    - description
}

class TestType{
    + getExternalModule()
}

class ExternalModuleAdapter1{
    + getReferenceValue(parameter)
    + getMetric(parameter)
}
class ExternalModuleAdapter2{
    + getReferenceValue(parameter)
     + getMetric(parameter)
}
class ExternalModuleAdapter3{
    + getReferenceValue(parameter)
     + getMetric(parameter)
}

Interface ExternalModule{
    + getReferenceValue(parameter)
     + getMetric(parameter)
}

class ReferenceValue{
    - lowerReferenceValue
    - upperReferenceValue

    + ReferenceValue()
}

class TestParameterResult{
    + TestParameterResult(result, metric, referenceValue)
}

RecordResultsUI ..> ParameterDto

RecordResultsUI .> RecordResultsController
RecordResultsController ..> Company
RecordResultsController ..> TestStore
RecordResultsController ..> Test
Test ..> ExternalModule
ExternalModule <|.. ExternalModuleAdapter1
ExternalModule <|..  ExternalModuleAdapter2
ExternalModule <|.. ExternalModuleAdapter3
TestStore "1" - - "*" Test: has >
TestStore .> Utils
ParameterMapper ..> ParameterDto
ParameterMapper ..> Parameter
RecordResultsController ..> ParameterMapper
RecordResultsController ..> ParameterDto
Company "1" - - - "*" Test: performs >
TestType "*" - - - - "1" ExternalModule: makes use of >
Company "1" - "*" Parameter: capable of analysing >
TestParameter "1" - - "0..1" TestParameterResult: contains >
TestParameterResult "1" - - "1" ReferenceValue: records >
Test "1" - "1..*" TestParameter: requests analysis of >
TestParameter "*" - "1" Parameter: refers to >
Test "*" - - "1" TestType: is of >


@enduml

PlantUML version 1.2021.5(Sun Apr 25 12:20:28 BST 2021)
(GPL source distribution)
Java Runtime: OpenJDK Runtime Environment
JVM: Dynamic Code Evolution 64-Bit Server VM
Default Encoding: Cp1252
Language: pt
Country: PT
--></g></svg>