<?xml version="1.0" encoding="UTF-8" standalone="no"?><svg xmlns="http://www.w3.org/2000/svg" xmlns:xlink="http://www.w3.org/1999/xlink" contentScriptType="application/ecmascript" contentStyleType="text/css" height="1018px" preserveAspectRatio="none" style="width:635px;height:1018px;" version="1.1" viewBox="0 0 635 1018" width="635px" zoomAndPan="magnify"><defs><filter height="300%" id="f10duvx011giog" width="300%" x="-1" y="-1"><feGaussianBlur result="blurOut" stdDeviation="2.0"/><feColorMatrix in="blurOut" result="blurOut2" type="matrix" values="0 0 0 0 0 0 0 0 0 0 0 0 0 0 0 0 0 0 .4 0"/><feOffset dx="4.0" dy="4.0" in="blurOut2" result="blurOut3"/><feBlend in="SourceGraphic" in2="blurOut3" mode="normal"/></filter></defs><g><!--MD5=[02e4b9b7573f1156f41e60aa5b4e25a4]
class Company--><rect codeLine="3" fill="#FEFECE" filter="url(#f10duvx011giog)" height="61.8359" id="Company" style="stroke:#A80036;stroke-width:1.5;" width="85" x="345" y="7"/><ellipse cx="360" cy="23" fill="#ADD1B2" rx="11" ry="11" style="stroke:#A80036;stroke-width:1.0;"/><path d="M362,19.5 Q362.2031,19 362.4375,18.75 Q362.6719,18.5 362.9375,18.5 Q363.4063,18.5 363.7031,18.7813 Q364,19.0625 364,19.7188 L364,21.2813 Q364,21.9375 363.7188,22.2188 Q363.4375,22.5 363,22.5 Q362.6094,22.5 362.3594,22.3281 Q362.1094,22.1563 362,21.7031 Q361.9531,21.3906 361.7813,21.2188 Q361.4688,20.8906 360.9063,20.7031 Q360.3438,20.5 359.7813,20.5 Q359.0781,20.5 358.4844,20.7813 Q357.9063,21.0625 357.4531,21.6875 Q357,22.3125 357,23.1719 L357,24.0938 Q357,25.125 357.8438,25.8125 Q358.6875,26.5 360.1875,26.5 Q361.0781,26.5 361.7031,26.2969 Q362.0625,26.1875 362.4688,25.8281 Q362.7344,25.625 362.875,25.5625 Q363.0156,25.5 363.1875,25.5 Q363.5156,25.5 363.75,25.7656 Q364,26.0156 364,26.375 Q364,26.7188 363.6563,27.125 Q363.1563,27.7188 362.3594,28.0469 Q361.3125,28.5 360.0313,28.5 Q358.5313,28.5 357.3281,27.9063 Q356.3594,27.4375 355.6719,26.4219 Q355,25.4063 355,24.2031 L355,23.1094 Q355,21.8594 355.5938,20.7656 Q356.2031,19.6719 357.25,19.0938 Q358.3125,18.5 359.5,18.5 Q360.2188,18.5 360.8438,18.75 Q361.4688,19 362,19.5 Z " fill="#000000"/><text fill="#000000" font-family="sans-serif" font-size="12" lengthAdjust="spacing" textLength="53" x="374" y="27.9102">Company</text><line style="stroke:#A80036;stroke-width:1.5;" x1="346" x2="429" y1="39" y2="39"/><text fill="#000000" font-family="sans-serif" font-size="11" lengthAdjust="spacing" textLength="55" x="351" y="54.4189">designation</text><line style="stroke:#A80036;stroke-width:1.5;" x1="346" x2="429" y1="60.8359" y2="60.8359"/><!--MD5=[df38be88ccee13e832d6fafd6288a4ca]
class Test--><rect codeLine="6" fill="#FEFECE" filter="url(#f10duvx011giog)" height="131.0156" id="Test" style="stroke:#A80036;stroke-width:1.5;" width="68" x="111.5" y="147"/><ellipse cx="131.9" cy="163" fill="#ADD1B2" rx="11" ry="11" style="stroke:#A80036;stroke-width:1.0;"/><path d="M133.9,159.5 Q134.1031,159 134.3375,158.75 Q134.5719,158.5 134.8375,158.5 Q135.3063,158.5 135.6031,158.7813 Q135.9,159.0625 135.9,159.7188 L135.9,161.2813 Q135.9,161.9375 135.6188,162.2188 Q135.3375,162.5 134.9,162.5 Q134.5094,162.5 134.2594,162.3281 Q134.0094,162.1563 133.9,161.7031 Q133.8531,161.3906 133.6813,161.2188 Q133.3688,160.8906 132.8063,160.7031 Q132.2438,160.5 131.6813,160.5 Q130.9781,160.5 130.3844,160.7813 Q129.8063,161.0625 129.3531,161.6875 Q128.9,162.3125 128.9,163.1719 L128.9,164.0938 Q128.9,165.125 129.7438,165.8125 Q130.5875,166.5 132.0875,166.5 Q132.9781,166.5 133.6031,166.2969 Q133.9625,166.1875 134.3688,165.8281 Q134.6344,165.625 134.775,165.5625 Q134.9156,165.5 135.0875,165.5 Q135.4156,165.5 135.65,165.7656 Q135.9,166.0156 135.9,166.375 Q135.9,166.7188 135.5563,167.125 Q135.0563,167.7188 134.2594,168.0469 Q133.2125,168.5 131.9313,168.5 Q130.4313,168.5 129.2281,167.9063 Q128.2594,167.4375 127.5719,166.4219 Q126.9,165.4063 126.9,164.2031 L126.9,163.1094 Q126.9,161.8594 127.4938,160.7656 Q128.1031,159.6719 129.15,159.0938 Q130.2125,158.5 131.4,158.5 Q132.1188,158.5 132.7438,158.75 Q133.3688,159 133.9,159.5 Z " fill="#000000"/><text fill="#000000" font-family="sans-serif" font-size="12" lengthAdjust="spacing" textLength="24" x="147.1" y="167.9102">Test</text><line style="stroke:#A80036;stroke-width:1.5;" x1="112.5" x2="178.5" y1="179" y2="179"/><text fill="#000000" font-family="sans-serif" font-size="11" lengthAdjust="spacing" textLength="24" x="117.5" y="194.4189">code</text><text fill="#000000" font-family="sans-serif" font-size="11" lengthAdjust="spacing" textLength="43" x="117.5" y="208.2549">nhsCode</text><text fill="#000000" font-family="sans-serif" font-size="11" lengthAdjust="spacing" textLength="48" x="117.5" y="222.0908">createdAt</text><text fill="#000000" font-family="sans-serif" font-size="11" lengthAdjust="spacing" textLength="56" x="117.5" y="235.9268">sampleDate</text><text fill="#000000" font-family="sans-serif" font-size="11" lengthAdjust="spacing" textLength="49" x="117.5" y="249.7627">resultDate</text><text fill="#000000" font-family="sans-serif" font-size="11" lengthAdjust="spacing" textLength="51" x="117.5" y="263.5986">reportDate</text><line style="stroke:#A80036;stroke-width:1.5;" x1="112.5" x2="178.5" y1="270.0156" y2="270.0156"/><!--MD5=[aeb3272166074d8737a70b61b1e71682]
class TestType--><rect codeLine="14" fill="#FEFECE" filter="url(#f10duvx011giog)" height="89.5078" id="TestType" style="stroke:#A80036;stroke-width:1.5;" width="92" x="99.5" y="356"/><ellipse cx="119" cy="372" fill="#ADD1B2" rx="11" ry="11" style="stroke:#A80036;stroke-width:1.0;"/><path d="M121,368.5 Q121.2031,368 121.4375,367.75 Q121.6719,367.5 121.9375,367.5 Q122.4063,367.5 122.7031,367.7813 Q123,368.0625 123,368.7188 L123,370.2813 Q123,370.9375 122.7188,371.2188 Q122.4375,371.5 122,371.5 Q121.6094,371.5 121.3594,371.3281 Q121.1094,371.1563 121,370.7031 Q120.9531,370.3906 120.7813,370.2188 Q120.4688,369.8906 119.9063,369.7031 Q119.3438,369.5 118.7813,369.5 Q118.0781,369.5 117.4844,369.7813 Q116.9063,370.0625 116.4531,370.6875 Q116,371.3125 116,372.1719 L116,373.0938 Q116,374.125 116.8438,374.8125 Q117.6875,375.5 119.1875,375.5 Q120.0781,375.5 120.7031,375.2969 Q121.0625,375.1875 121.4688,374.8281 Q121.7344,374.625 121.875,374.5625 Q122.0156,374.5 122.1875,374.5 Q122.5156,374.5 122.75,374.7656 Q123,375.0156 123,375.375 Q123,375.7188 122.6563,376.125 Q122.1563,376.7188 121.3594,377.0469 Q120.3125,377.5 119.0313,377.5 Q117.5313,377.5 116.3281,376.9063 Q115.3594,376.4375 114.6719,375.4219 Q114,374.4063 114,373.2031 L114,372.1094 Q114,370.8594 114.5938,369.7656 Q115.2031,368.6719 116.25,368.0938 Q117.3125,367.5 118.5,367.5 Q119.2188,367.5 119.8438,367.75 Q120.4688,368 121,368.5 Z " fill="#000000"/><text fill="#000000" font-family="sans-serif" font-size="12" lengthAdjust="spacing" textLength="50" x="134" y="376.9102">TestType</text><line style="stroke:#A80036;stroke-width:1.5;" x1="100.5" x2="190.5" y1="388" y2="388"/><text fill="#000000" font-family="sans-serif" font-size="11" lengthAdjust="spacing" textLength="24" x="105.5" y="403.4189">code</text><text fill="#000000" font-family="sans-serif" font-size="11" lengthAdjust="spacing" textLength="53" x="105.5" y="417.2549">description</text><text fill="#000000" font-family="sans-serif" font-size="11" lengthAdjust="spacing" textLength="80" x="105.5" y="431.0908">collectionMethod</text><line style="stroke:#A80036;stroke-width:1.5;" x1="100.5" x2="190.5" y1="437.5078" y2="437.5078"/><!--MD5=[0f07739f46effee96e095e9c408da841]
class TestParameter--><rect codeLine="19" fill="#FEFECE" filter="url(#f10duvx011giog)" height="48" id="TestParameter" style="stroke:#A80036;stroke-width:1.5;" width="114" x="297.5" y="377"/><ellipse cx="312.5" cy="393" fill="#ADD1B2" rx="11" ry="11" style="stroke:#A80036;stroke-width:1.0;"/><path d="M314.5,389.5 Q314.7031,389 314.9375,388.75 Q315.1719,388.5 315.4375,388.5 Q315.9063,388.5 316.2031,388.7813 Q316.5,389.0625 316.5,389.7188 L316.5,391.2813 Q316.5,391.9375 316.2188,392.2188 Q315.9375,392.5 315.5,392.5 Q315.1094,392.5 314.8594,392.3281 Q314.6094,392.1563 314.5,391.7031 Q314.4531,391.3906 314.2813,391.2188 Q313.9688,390.8906 313.4063,390.7031 Q312.8438,390.5 312.2813,390.5 Q311.5781,390.5 310.9844,390.7813 Q310.4063,391.0625 309.9531,391.6875 Q309.5,392.3125 309.5,393.1719 L309.5,394.0938 Q309.5,395.125 310.3438,395.8125 Q311.1875,396.5 312.6875,396.5 Q313.5781,396.5 314.2031,396.2969 Q314.5625,396.1875 314.9688,395.8281 Q315.2344,395.625 315.375,395.5625 Q315.5156,395.5 315.6875,395.5 Q316.0156,395.5 316.25,395.7656 Q316.5,396.0156 316.5,396.375 Q316.5,396.7188 316.1563,397.125 Q315.6563,397.7188 314.8594,398.0469 Q313.8125,398.5 312.5313,398.5 Q311.0313,398.5 309.8281,397.9063 Q308.8594,397.4375 308.1719,396.4219 Q307.5,395.4063 307.5,394.2031 L307.5,393.1094 Q307.5,391.8594 308.0938,390.7656 Q308.7031,389.6719 309.75,389.0938 Q310.8125,388.5 312,388.5 Q312.7188,388.5 313.3438,388.75 Q313.9688,389 314.5,389.5 Z " fill="#000000"/><text fill="#000000" font-family="sans-serif" font-size="12" lengthAdjust="spacing" textLength="82" x="326.5" y="397.9102">TestParameter</text><line style="stroke:#A80036;stroke-width:1.5;" x1="298.5" x2="410.5" y1="409" y2="409"/><line style="stroke:#A80036;stroke-width:1.5;" x1="298.5" x2="410.5" y1="417" y2="417"/><!--MD5=[8f188b89eff49accb0f38c057b38a9f2]
class ExternalModule--><rect codeLine="20" fill="#FEFECE" filter="url(#f10duvx011giog)" height="48" id="ExternalModule" style="stroke:#A80036;stroke-width:1.5;" width="116" x="103.5" y="901.5"/><ellipse cx="118.5" cy="917.5" fill="#ADD1B2" rx="11" ry="11" style="stroke:#A80036;stroke-width:1.0;"/><path d="M120.5,914 Q120.7031,913.5 120.9375,913.25 Q121.1719,913 121.4375,913 Q121.9063,913 122.2031,913.2813 Q122.5,913.5625 122.5,914.2188 L122.5,915.7813 Q122.5,916.4375 122.2188,916.7188 Q121.9375,917 121.5,917 Q121.1094,917 120.8594,916.8281 Q120.6094,916.6563 120.5,916.2031 Q120.4531,915.8906 120.2813,915.7188 Q119.9688,915.3906 119.4063,915.2031 Q118.8438,915 118.2813,915 Q117.5781,915 116.9844,915.2813 Q116.4063,915.5625 115.9531,916.1875 Q115.5,916.8125 115.5,917.6719 L115.5,918.5938 Q115.5,919.625 116.3438,920.3125 Q117.1875,921 118.6875,921 Q119.5781,921 120.2031,920.7969 Q120.5625,920.6875 120.9688,920.3281 Q121.2344,920.125 121.375,920.0625 Q121.5156,920 121.6875,920 Q122.0156,920 122.25,920.2656 Q122.5,920.5156 122.5,920.875 Q122.5,921.2188 122.1563,921.625 Q121.6563,922.2188 120.8594,922.5469 Q119.8125,923 118.5313,923 Q117.0313,923 115.8281,922.4063 Q114.8594,921.9375 114.1719,920.9219 Q113.5,919.9063 113.5,918.7031 L113.5,917.6094 Q113.5,916.3594 114.0938,915.2656 Q114.7031,914.1719 115.75,913.5938 Q116.8125,913 118,913 Q118.7188,913 119.3438,913.25 Q119.9688,913.5 120.5,914 Z " fill="#000000"/><text fill="#000000" font-family="sans-serif" font-size="12" lengthAdjust="spacing" textLength="84" x="132.5" y="922.4102">ExternalModule</text><line style="stroke:#A80036;stroke-width:1.5;" x1="104.5" x2="218.5" y1="933.5" y2="933.5"/><line style="stroke:#A80036;stroke-width:1.5;" x1="104.5" x2="218.5" y1="941.5" y2="941.5"/><!--MD5=[1c357e7e7fdba398bcadd6e61afe49f5]
class ReferenceValue--><rect codeLine="21" fill="#FEFECE" filter="url(#f10duvx011giog)" height="75.6719" id="ReferenceValue" style="stroke:#A80036;stroke-width:1.5;" width="120" x="184.5" y="692"/><ellipse cx="199.5" cy="708" fill="#ADD1B2" rx="11" ry="11" style="stroke:#A80036;stroke-width:1.0;"/><path d="M201.5,704.5 Q201.7031,704 201.9375,703.75 Q202.1719,703.5 202.4375,703.5 Q202.9063,703.5 203.2031,703.7813 Q203.5,704.0625 203.5,704.7188 L203.5,706.2813 Q203.5,706.9375 203.2188,707.2188 Q202.9375,707.5 202.5,707.5 Q202.1094,707.5 201.8594,707.3281 Q201.6094,707.1563 201.5,706.7031 Q201.4531,706.3906 201.2813,706.2188 Q200.9688,705.8906 200.4063,705.7031 Q199.8438,705.5 199.2813,705.5 Q198.5781,705.5 197.9844,705.7813 Q197.4063,706.0625 196.9531,706.6875 Q196.5,707.3125 196.5,708.1719 L196.5,709.0938 Q196.5,710.125 197.3438,710.8125 Q198.1875,711.5 199.6875,711.5 Q200.5781,711.5 201.2031,711.2969 Q201.5625,711.1875 201.9688,710.8281 Q202.2344,710.625 202.375,710.5625 Q202.5156,710.5 202.6875,710.5 Q203.0156,710.5 203.25,710.7656 Q203.5,711.0156 203.5,711.375 Q203.5,711.7188 203.1563,712.125 Q202.6563,712.7188 201.8594,713.0469 Q200.8125,713.5 199.5313,713.5 Q198.0313,713.5 196.8281,712.9063 Q195.8594,712.4375 195.1719,711.4219 Q194.5,710.4063 194.5,709.2031 L194.5,708.1094 Q194.5,706.8594 195.0938,705.7656 Q195.7031,704.6719 196.75,704.0938 Q197.8125,703.5 199,703.5 Q199.7188,703.5 200.3438,703.75 Q200.9688,704 201.5,704.5 Z " fill="#000000"/><text fill="#000000" font-family="sans-serif" font-size="12" lengthAdjust="spacing" textLength="88" x="213.5" y="712.9102">ReferenceValue</text><line style="stroke:#A80036;stroke-width:1.5;" x1="185.5" x2="303.5" y1="724" y2="724"/><text fill="#000000" font-family="sans-serif" font-size="11" lengthAdjust="spacing" textLength="107" x="190.5" y="739.4189">lowerReferenceValue</text><text fill="#000000" font-family="sans-serif" font-size="11" lengthAdjust="spacing" textLength="107" x="190.5" y="753.2549">upperReferenceValue</text><line style="stroke:#A80036;stroke-width:1.5;" x1="185.5" x2="303.5" y1="759.6719" y2="759.6719"/><!--MD5=[1f6362a5c8f21d8d6a0fce68f3a92a4e]
class Parameter--><rect codeLine="25" fill="#FEFECE" filter="url(#f10duvx011giog)" height="89.5078" id="Parameter" style="stroke:#A80036;stroke-width:1.5;" width="90" x="391.5" y="167.5"/><ellipse cx="406.5" cy="183.5" fill="#ADD1B2" rx="11" ry="11" style="stroke:#A80036;stroke-width:1.0;"/><path d="M408.5,180 Q408.7031,179.5 408.9375,179.25 Q409.1719,179 409.4375,179 Q409.9063,179 410.2031,179.2813 Q410.5,179.5625 410.5,180.2188 L410.5,181.7813 Q410.5,182.4375 410.2188,182.7188 Q409.9375,183 409.5,183 Q409.1094,183 408.8594,182.8281 Q408.6094,182.6563 408.5,182.2031 Q408.4531,181.8906 408.2813,181.7188 Q407.9688,181.3906 407.4063,181.2031 Q406.8438,181 406.2813,181 Q405.5781,181 404.9844,181.2813 Q404.4063,181.5625 403.9531,182.1875 Q403.5,182.8125 403.5,183.6719 L403.5,184.5938 Q403.5,185.625 404.3438,186.3125 Q405.1875,187 406.6875,187 Q407.5781,187 408.2031,186.7969 Q408.5625,186.6875 408.9688,186.3281 Q409.2344,186.125 409.375,186.0625 Q409.5156,186 409.6875,186 Q410.0156,186 410.25,186.2656 Q410.5,186.5156 410.5,186.875 Q410.5,187.2188 410.1563,187.625 Q409.6563,188.2188 408.8594,188.5469 Q407.8125,189 406.5313,189 Q405.0313,189 403.8281,188.4063 Q402.8594,187.9375 402.1719,186.9219 Q401.5,185.9063 401.5,184.7031 L401.5,183.6094 Q401.5,182.3594 402.0938,181.2656 Q402.7031,180.1719 403.75,179.5938 Q404.8125,179 406,179 Q406.7188,179 407.3438,179.25 Q407.9688,179.5 408.5,180 Z " fill="#000000"/><text fill="#000000" font-family="sans-serif" font-size="12" lengthAdjust="spacing" textLength="58" x="420.5" y="188.4102">Parameter</text><line style="stroke:#A80036;stroke-width:1.5;" x1="392.5" x2="480.5" y1="199.5" y2="199.5"/><text fill="#000000" font-family="sans-serif" font-size="11" lengthAdjust="spacing" textLength="24" x="397.5" y="214.9189">code</text><text fill="#000000" font-family="sans-serif" font-size="11" lengthAdjust="spacing" textLength="52" x="397.5" y="228.7549">shortName</text><text fill="#000000" font-family="sans-serif" font-size="11" lengthAdjust="spacing" textLength="53" x="397.5" y="242.5908">description</text><line style="stroke:#A80036;stroke-width:1.5;" x1="392.5" x2="480.5" y1="249.0078" y2="249.0078"/><!--MD5=[4e608140b854dae633589343bce77383]
class TestParameterResult--><rect codeLine="30" fill="#FEFECE" filter="url(#f10duvx011giog)" height="89.5078" id="TestParameterResult" style="stroke:#A80036;stroke-width:1.5;" width="150" x="279.5" y="524"/><ellipse cx="294.5" cy="540" fill="#ADD1B2" rx="11" ry="11" style="stroke:#A80036;stroke-width:1.0;"/><path d="M296.5,536.5 Q296.7031,536 296.9375,535.75 Q297.1719,535.5 297.4375,535.5 Q297.9063,535.5 298.2031,535.7813 Q298.5,536.0625 298.5,536.7188 L298.5,538.2813 Q298.5,538.9375 298.2188,539.2188 Q297.9375,539.5 297.5,539.5 Q297.1094,539.5 296.8594,539.3281 Q296.6094,539.1563 296.5,538.7031 Q296.4531,538.3906 296.2813,538.2188 Q295.9688,537.8906 295.4063,537.7031 Q294.8438,537.5 294.2813,537.5 Q293.5781,537.5 292.9844,537.7813 Q292.4063,538.0625 291.9531,538.6875 Q291.5,539.3125 291.5,540.1719 L291.5,541.0938 Q291.5,542.125 292.3438,542.8125 Q293.1875,543.5 294.6875,543.5 Q295.5781,543.5 296.2031,543.2969 Q296.5625,543.1875 296.9688,542.8281 Q297.2344,542.625 297.375,542.5625 Q297.5156,542.5 297.6875,542.5 Q298.0156,542.5 298.25,542.7656 Q298.5,543.0156 298.5,543.375 Q298.5,543.7188 298.1563,544.125 Q297.6563,544.7188 296.8594,545.0469 Q295.8125,545.5 294.5313,545.5 Q293.0313,545.5 291.8281,544.9063 Q290.8594,544.4375 290.1719,543.4219 Q289.5,542.4063 289.5,541.2031 L289.5,540.1094 Q289.5,538.8594 290.0938,537.7656 Q290.7031,536.6719 291.75,536.0938 Q292.8125,535.5 294,535.5 Q294.7188,535.5 295.3438,535.75 Q295.9688,536 296.5,536.5 Z " fill="#000000"/><text fill="#000000" font-family="sans-serif" font-size="12" lengthAdjust="spacing" textLength="118" x="308.5" y="544.9102">TestParameterResult</text><line style="stroke:#A80036;stroke-width:1.5;" x1="280.5" x2="428.5" y1="556" y2="556"/><text fill="#000000" font-family="sans-serif" font-size="11" lengthAdjust="spacing" textLength="48" x="285.5" y="571.4189">createdAt</text><text fill="#000000" font-family="sans-serif" font-size="11" lengthAdjust="spacing" textLength="26" x="285.5" y="585.2549">value</text><text fill="#000000" font-family="sans-serif" font-size="11" lengthAdjust="spacing" textLength="29" x="285.5" y="599.0908">metric</text><line style="stroke:#A80036;stroke-width:1.5;" x1="280.5" x2="428.5" y1="605.5078" y2="605.5078"/><!--MD5=[9681492165142af2a4a3a169d90ee8d4]
class Sample--><rect codeLine="35" fill="#FEFECE" filter="url(#f10duvx011giog)" height="61.8359" id="Sample" style="stroke:#A80036;stroke-width:1.5;" width="89" x="7" y="7"/><ellipse cx="28.3" cy="23" fill="#ADD1B2" rx="11" ry="11" style="stroke:#A80036;stroke-width:1.0;"/><path d="M30.3,19.5 Q30.5031,19 30.7375,18.75 Q30.9719,18.5 31.2375,18.5 Q31.7063,18.5 32.0031,18.7813 Q32.3,19.0625 32.3,19.7188 L32.3,21.2813 Q32.3,21.9375 32.0188,22.2188 Q31.7375,22.5 31.3,22.5 Q30.9094,22.5 30.6594,22.3281 Q30.4094,22.1563 30.3,21.7031 Q30.2531,21.3906 30.0813,21.2188 Q29.7688,20.8906 29.2063,20.7031 Q28.6438,20.5 28.0813,20.5 Q27.3781,20.5 26.7844,20.7813 Q26.2063,21.0625 25.7531,21.6875 Q25.3,22.3125 25.3,23.1719 L25.3,24.0938 Q25.3,25.125 26.1438,25.8125 Q26.9875,26.5 28.4875,26.5 Q29.3781,26.5 30.0031,26.2969 Q30.3625,26.1875 30.7688,25.8281 Q31.0344,25.625 31.175,25.5625 Q31.3156,25.5 31.4875,25.5 Q31.8156,25.5 32.05,25.7656 Q32.3,26.0156 32.3,26.375 Q32.3,26.7188 31.9563,27.125 Q31.4563,27.7188 30.6594,28.0469 Q29.6125,28.5 28.3313,28.5 Q26.8313,28.5 25.6281,27.9063 Q24.6594,27.4375 23.9719,26.4219 Q23.3,25.4063 23.3,24.2031 L23.3,23.1094 Q23.3,21.8594 23.8938,20.7656 Q24.5031,19.6719 25.55,19.0938 Q26.6125,18.5 27.8,18.5 Q28.5188,18.5 29.1438,18.75 Q29.7688,19 30.3,19.5 Z " fill="#000000"/><text fill="#000000" font-family="sans-serif" font-size="12" lengthAdjust="spacing" textLength="43" x="43.7" y="27.9102">Sample</text><line style="stroke:#A80036;stroke-width:1.5;" x1="8" x2="95" y1="39" y2="39"/><text fill="#000000" font-family="sans-serif" font-size="11" lengthAdjust="spacing" textLength="77" x="13" y="54.4189">barcodeNumber</text><line style="stroke:#A80036;stroke-width:1.5;" x1="8" x2="95" y1="60.8359" y2="60.8359"/><!--MD5=[012ee2a8bf3ae2b319009b06f951c2e5]
class ClinicalChemistryTechnologist--><rect codeLine="38" fill="#FEFECE" filter="url(#f10duvx011giog)" height="48" id="ClinicalChemistryTechnologist" style="stroke:#A80036;stroke-width:1.5;" width="200" x="339.5" y="706"/><ellipse cx="354.5" cy="722" fill="#ADD1B2" rx="11" ry="11" style="stroke:#A80036;stroke-width:1.0;"/><path d="M356.5,718.5 Q356.7031,718 356.9375,717.75 Q357.1719,717.5 357.4375,717.5 Q357.9063,717.5 358.2031,717.7813 Q358.5,718.0625 358.5,718.7188 L358.5,720.2813 Q358.5,720.9375 358.2188,721.2188 Q357.9375,721.5 357.5,721.5 Q357.1094,721.5 356.8594,721.3281 Q356.6094,721.1563 356.5,720.7031 Q356.4531,720.3906 356.2813,720.2188 Q355.9688,719.8906 355.4063,719.7031 Q354.8438,719.5 354.2813,719.5 Q353.5781,719.5 352.9844,719.7813 Q352.4063,720.0625 351.9531,720.6875 Q351.5,721.3125 351.5,722.1719 L351.5,723.0938 Q351.5,724.125 352.3438,724.8125 Q353.1875,725.5 354.6875,725.5 Q355.5781,725.5 356.2031,725.2969 Q356.5625,725.1875 356.9688,724.8281 Q357.2344,724.625 357.375,724.5625 Q357.5156,724.5 357.6875,724.5 Q358.0156,724.5 358.25,724.7656 Q358.5,725.0156 358.5,725.375 Q358.5,725.7188 358.1563,726.125 Q357.6563,726.7188 356.8594,727.0469 Q355.8125,727.5 354.5313,727.5 Q353.0313,727.5 351.8281,726.9063 Q350.8594,726.4375 350.1719,725.4219 Q349.5,724.4063 349.5,723.2031 L349.5,722.1094 Q349.5,720.8594 350.0938,719.7656 Q350.7031,718.6719 351.75,718.0938 Q352.8125,717.5 354,717.5 Q354.7188,717.5 355.3438,717.75 Q355.9688,718 356.5,718.5 Z " fill="#000000"/><text fill="#000000" font-family="sans-serif" font-size="12" lengthAdjust="spacing" textLength="168" x="368.5" y="726.9102">ClinicalChemistryTechnologist</text><line style="stroke:#A80036;stroke-width:1.5;" x1="340.5" x2="538.5" y1="738" y2="738"/><line style="stroke:#A80036;stroke-width:1.5;" x1="340.5" x2="538.5" y1="746" y2="746"/><!--MD5=[7421f545a0d8420c5bec41e74b387d9c]
class Employee--><rect codeLine="40" fill="#FEFECE" filter="url(#f10duvx011giog)" height="158.6875" id="Employee" style="stroke:#A80036;stroke-width:1.5;" width="92" x="497.5" y="846"/><ellipse cx="514.75" cy="862" fill="#ADD1B2" rx="11" ry="11" style="stroke:#A80036;stroke-width:1.0;"/><path d="M516.75,858.5 Q516.9531,858 517.1875,857.75 Q517.4219,857.5 517.6875,857.5 Q518.1563,857.5 518.4531,857.7813 Q518.75,858.0625 518.75,858.7188 L518.75,860.2813 Q518.75,860.9375 518.4688,861.2188 Q518.1875,861.5 517.75,861.5 Q517.3594,861.5 517.1094,861.3281 Q516.8594,861.1563 516.75,860.7031 Q516.7031,860.3906 516.5313,860.2188 Q516.2188,859.8906 515.6563,859.7031 Q515.0938,859.5 514.5313,859.5 Q513.8281,859.5 513.2344,859.7813 Q512.6563,860.0625 512.2031,860.6875 Q511.75,861.3125 511.75,862.1719 L511.75,863.0938 Q511.75,864.125 512.5938,864.8125 Q513.4375,865.5 514.9375,865.5 Q515.8281,865.5 516.4531,865.2969 Q516.8125,865.1875 517.2188,864.8281 Q517.4844,864.625 517.625,864.5625 Q517.7656,864.5 517.9375,864.5 Q518.2656,864.5 518.5,864.7656 Q518.75,865.0156 518.75,865.375 Q518.75,865.7188 518.4063,866.125 Q517.9063,866.7188 517.1094,867.0469 Q516.0625,867.5 514.7813,867.5 Q513.2813,867.5 512.0781,866.9063 Q511.1094,866.4375 510.4219,865.4219 Q509.75,864.4063 509.75,863.2031 L509.75,862.1094 Q509.75,860.8594 510.3438,859.7656 Q510.9531,858.6719 512,858.0938 Q513.0625,857.5 514.25,857.5 Q514.9688,857.5 515.5938,857.75 Q516.2188,858 516.75,858.5 Z " fill="#000000"/><text fill="#000000" font-family="sans-serif" font-size="12" lengthAdjust="spacing" textLength="55" x="529.25" y="866.9102">Employee</text><line style="stroke:#A80036;stroke-width:1.5;" x1="498.5" x2="588.5" y1="878" y2="878"/><text fill="#000000" font-family="sans-serif" font-size="11" lengthAdjust="spacing" textLength="26" x="503.5" y="893.4189">name</text><text fill="#000000" font-family="sans-serif" font-size="11" lengthAdjust="spacing" textLength="67" x="503.5" y="907.2549">phoneNumber</text><text fill="#000000" font-family="sans-serif" font-size="11" lengthAdjust="spacing" textLength="24" x="503.5" y="921.0908">email</text><text fill="#000000" font-family="sans-serif" font-size="11" lengthAdjust="spacing" textLength="50" x="503.5" y="934.9268">password</text><text fill="#000000" font-family="sans-serif" font-size="11" lengthAdjust="spacing" textLength="55" x="503.5" y="948.7627">employeeID</text><text fill="#000000" font-family="sans-serif" font-size="11" lengthAdjust="spacing" textLength="43" x="503.5" y="962.5986">socCode</text><text fill="#000000" font-family="sans-serif" font-size="11" lengthAdjust="spacing" textLength="80" x="503.5" y="976.4346">organizationRole</text><text fill="#000000" font-family="sans-serif" font-size="11" lengthAdjust="spacing" textLength="40" x="503.5" y="990.2705">address</text><line style="stroke:#A80036;stroke-width:1.5;" x1="498.5" x2="588.5" y1="996.6875" y2="996.6875"/><ellipse cx="354.5" cy="212.5" fill="#000000" rx="2" ry="2" style="stroke:none;stroke-width:1.0;"/><!--MD5=[09366576ee87d48d594df10cacc83f45]
link Company to Employee--><path codeLine="50" d="M430.3,44.85 C466.4,51.89 517.2,67.04 549.5,99 C587.55,136.65 592.5,157.97 592.5,211.5 C592.5,211.5 592.5,211.5 592.5,731 C592.5,769.47 583.29,810.95 572.85,845.61 " fill="none" id="Company-Employee" style="stroke:#A80036;stroke-width:1.0;"/><polygon fill="#000000" points="598.3763,490.0984,599.6845,480.6782,593.8976,481.7084,598.3763,490.0984" style="stroke:#000000;stroke-width:1.0;"/><text fill="#000000" font-family="sans-serif" font-size="13" lengthAdjust="spacing" textLength="21" x="606.5" y="490.4951">has</text><text fill="#000000" font-family="sans-serif" font-size="13" lengthAdjust="spacing" textLength="7" x="437.9684" y="42.1973">1</text><text fill="#000000" font-family="sans-serif" font-size="13" lengthAdjust="spacing" textLength="20" x="554.6338" y="835.0334">1..*</text><!--MD5=[87a5f0022a2a3a92268bc4ee95033c51]
link ClinicalChemistryTechnologist to Employee--><path codeLine="51" d="M452.04,754.34 C462.06,772.98 476.81,800.43 491.56,827.86 " fill="none" id="ClinicalChemistryTechnologist-to-Employee" style="stroke:#A80036;stroke-width:1.0;"/><polygon fill="none" points="497.9,824.87,501.2,845.8,485.57,831.5,497.9,824.87" style="stroke:#A80036;stroke-width:1.0;"/><!--MD5=[742a261f27a3dcd734c626287d811acd]
link Company to TestType--><path codeLine="52" d="M370.44,69.24 C360.39,85.01 346.51,103.73 330.5,117 C306.62,136.79 288.9,124.55 267.5,147 C207.98,209.43 232.43,249.54 192.5,326 C187.36,335.85 181.32,346.1 175.33,355.72 " fill="none" id="Company-TestType" style="stroke:#A80036;stroke-width:1.0;"/><polygon fill="#000000" points="269.6855,216.8084,277.2061,210.9868,272.3479,207.6781,269.6855,216.8084" style="stroke:#000000;stroke-width:1.0;"/><text fill="#000000" font-family="sans-serif" font-size="13" lengthAdjust="spacing" textLength="53" x="281.5" y="217.9951">conducts</text><text fill="#000000" font-family="sans-serif" font-size="13" lengthAdjust="spacing" textLength="7" x="359.5208" y="90.2644">1</text><text fill="#000000" font-family="sans-serif" font-size="13" lengthAdjust="spacing" textLength="5" x="174.5149" y="345.1212">*</text><!--MD5=[7e4bc624457760b649895ff2ead938fa]
link Company to Test--><path codeLine="53" d="M344.97,42.44 C277.92,48.85 152.47,65.15 125.5,99 C114.74,112.5 113.61,129.81 116.8,146.79 " fill="none" id="Company-Test" style="stroke:#A80036;stroke-width:1.0;"/><polygon fill="#000000" points="125.953,110.2553,135.4009,109.1661,132.9563,103.8207,125.953,110.2553" style="stroke:#000000;stroke-width:1.0;"/><text fill="#000000" font-family="sans-serif" font-size="13" lengthAdjust="spacing" textLength="50" x="139.5" y="113.4951">performs</text><text fill="#000000" font-family="sans-serif" font-size="13" lengthAdjust="spacing" textLength="7" x="330.0586" y="39.3676">1</text><text fill="#000000" font-family="sans-serif" font-size="13" lengthAdjust="spacing" textLength="5" x="108.3875" y="136.2415">*</text><!--MD5=[71e6920dcc27afae8f25537cd5357b5f]
link TestType to ExternalModule--><path codeLine="54" d="M146.85,446.1 C150.11,552.63 158.33,821.13 160.79,901.45 " fill="none" id="TestType-ExternalModule" style="stroke:#A80036;stroke-width:1.0;"/><polygon fill="#000000" points="157.653,658.1734,160.3138,649.0427,154.4387,649.2225,157.653,658.1734" style="stroke:#000000;stroke-width:1.0;"/><text fill="#000000" font-family="sans-serif" font-size="13" lengthAdjust="spacing" textLength="78" x="166.5" y="658.4951">makes use of</text><text fill="#000000" font-family="sans-serif" font-size="13" lengthAdjust="spacing" textLength="5" x="141.6883" y="467.1216">*</text><text fill="#000000" font-family="sans-serif" font-size="13" lengthAdjust="spacing" textLength="7" x="152.7112" y="890.7773">1</text><!--MD5=[12d76240d3c3c66074d4ec2ea8bf469c]
link Company to Parameter--><path codeLine="55" d="M396.04,69.05 C403.74,96.17 415.18,136.43 423.93,167.24 " fill="none" id="Company-Parameter" style="stroke:#A80036;stroke-width:1.0;"/><polygon fill="#000000" points="414.8662,112.9855,415.2218,103.4816,409.5677,105.0876,414.8662,112.9855" style="stroke:#000000;stroke-width:1.0;"/><text fill="#000000" font-family="sans-serif" font-size="13" lengthAdjust="spacing" textLength="118" x="422.5" y="113.4951">capable of analysing</text><text fill="#000000" font-family="sans-serif" font-size="13" lengthAdjust="spacing" textLength="7" x="390.0323" y="90.2838">1</text><text fill="#000000" font-family="sans-serif" font-size="13" lengthAdjust="spacing" textLength="5" x="416.6224" y="156.6443">*</text><!--MD5=[1ae83efc6d1967ce5bc17dfe294d00c2]
link Sample to Test--><path codeLine="56" d="M44.46,69.34 C42.44,84.24 42.23,102.14 48.5,117 C61.2,147.11 88.71,172.38 111.2,189.19 " fill="none" id="Sample-Test" style="stroke:#A80036;stroke-width:1.0;"/><polygon fill="#000000" points="51.0674,103.8074,52.9003,113.1397,58.0357,110.28,51.0674,103.8074" style="stroke:#000000;stroke-width:1.0;"/><text fill="#000000" font-family="sans-serif" font-size="13" lengthAdjust="spacing" textLength="21" x="62.5" y="113.4951">has</text><text fill="#000000" font-family="sans-serif" font-size="13" lengthAdjust="spacing" textLength="5" x="37.6414" y="90.3835">*</text><text fill="#000000" font-family="sans-serif" font-size="13" lengthAdjust="spacing" textLength="7" x="96.4038" y="180.2621">1</text><!--MD5=[0e00e25ac6b8c14659aaff2cf7e5df08]
link TestParameter to TestParameterResult--><path codeLine="57" d="M354.5,425.08 C354.5,450.56 354.5,492.17 354.5,523.94 " fill="none" id="TestParameter-TestParameterResult" style="stroke:#A80036;stroke-width:1.0;"/><polygon fill="#000000" points="359.5,490.1758,362.4389,481.1307,356.5611,481.1307,359.5,490.1758" style="stroke:#000000;stroke-width:1.0;"/><text fill="#000000" font-family="sans-serif" font-size="13" lengthAdjust="spacing" textLength="49" x="368.5" y="490.4951">contains</text><text fill="#000000" font-family="sans-serif" font-size="13" lengthAdjust="spacing" textLength="7" x="346.6469" y="446.4375">1</text><text fill="#000000" font-family="sans-serif" font-size="13" lengthAdjust="spacing" textLength="22" x="330.7469" y="513.0459">0..1</text><!--MD5=[52200cc2361fa0ac0481dd6ffcdb824b]
link TestParameterResult to ReferenceValue--><path codeLine="58" d="M323.86,614.29 C306.95,638.73 286.19,668.74 270.14,691.93 " fill="none" id="TestParameterResult-ReferenceValue" style="stroke:#A80036;stroke-width:1.0;"/><polygon fill="#000000" points="304.6551,657.2875,312.2184,651.5215,307.3848,648.1771,304.6551,657.2875" style="stroke:#000000;stroke-width:1.0;"/><text fill="#000000" font-family="sans-serif" font-size="13" lengthAdjust="spacing" textLength="43" x="316.5" y="658.4951">records</text><text fill="#000000" font-family="sans-serif" font-size="13" lengthAdjust="spacing" textLength="7" x="312.2724" y="635.0027">1</text><text fill="#000000" font-family="sans-serif" font-size="13" lengthAdjust="spacing" textLength="7" x="267.0837" y="681.2794">1</text><!--MD5=[ae231f2115f9ba798a2f0cf9b31d676f]
link TestParameterResult to ClinicalChemistryTechnologist--><path codeLine="59" d="M383.16,614.07 C389.12,623.8 395.2,634.14 400.5,644 C411.49,664.45 422.37,688.58 429.84,705.89 " fill="none" id="TestParameterResult-ClinicalChemistryTechnologist" style="stroke:#A80036;stroke-width:1.0;"/><polygon fill="#000000" points="411.2341,648.7187,412.7134,658.1135,417.953,655.4498,411.2341,648.7187" style="stroke:#000000;stroke-width:1.0;"/><text fill="#000000" font-family="sans-serif" font-size="13" lengthAdjust="spacing" textLength="43" x="422.5" y="658.4951">records</text><text fill="#000000" font-family="sans-serif" font-size="13" lengthAdjust="spacing" textLength="5" x="381.8388" y="635.0874">*</text><text fill="#000000" font-family="sans-serif" font-size="13" lengthAdjust="spacing" textLength="7" x="419.4677" y="695.202">1</text><!--MD5=[9735660ec8fc5abdb8afe2aef285d6e2]
link ReferenceValue to ExternalModule--><path codeLine="60" d="M228.5,768.31 C211.63,807.63 185.6,868.32 171.46,901.28 " fill="none" id="ReferenceValue-ExternalModule" style="stroke:#A80036;stroke-width:1.0;"/><polygon fill="#000000" points="217.5289,811.7708,223.7956,804.6169,218.3938,802.2997,217.5289,811.7708" style="stroke:#000000;stroke-width:1.0;"/><text fill="#000000" font-family="sans-serif" font-size="13" lengthAdjust="spacing" textLength="65" x="228.5" y="812.4951">provided by</text><text fill="#000000" font-family="sans-serif" font-size="13" lengthAdjust="spacing" textLength="5" x="220.5516" y="789.2399">*</text><text fill="#000000" font-family="sans-serif" font-size="13" lengthAdjust="spacing" textLength="7" x="166.1154" y="890.5638">1</text><!--MD5=[e42fb202181089d0b8af686a2ee00568]
link Test to apoint26732--><path d="M168.68,146.96 C176.11,134.62 185.7,123.31 198,116 C223.02,101.13 305.94,98.24 329,116 C360.58,140.32 356,198.83 354.74,210.47 " fill="none" id="Test-apoint26732" style="stroke:#A80036;stroke-width:1.0;"/><polygon fill="#000000" points="207.7319,109.791,200.1212,104.0877,198.2224,109.6504,207.7319,109.791" style="stroke:#000000;stroke-width:1.0;"/><text fill="#000000" font-family="sans-serif" font-size="13" lengthAdjust="spacing" textLength="116" x="212" y="113.4951">requests analysis of</text><text fill="#000000" font-family="sans-serif" font-size="13" lengthAdjust="spacing" textLength="5" x="166.0711" y="135.9715">*</text><!--MD5=[aaca3284e5715a817b6ac0659716dd15]
link apoint26732 to Parameter--><path d="M356.74,212.5 C368.27,212.5 379.8,212.5 391.32,212.5 " fill="none" id="apoint26732-Parameter" style="stroke:#A80036;stroke-width:1.0;"/><text fill="#000000" font-family="sans-serif" font-size="13" lengthAdjust="spacing" textLength="20" x="364.4835" y="208.4988">1..*</text><!--MD5=[5750f9031171bac9a70ce103445ddb15]
link apoint26732 to TestParameter--><path d="M354.5,214.69 C354.5,226.91 354.5,330.06 354.5,376.96 " fill="none" id="apoint26732-TestParameter" style="stroke:#A80036;stroke-width:1.0;stroke-dasharray:7.0,7.0;"/><!--MD5=[e981d4f96c4342412d1e68160b30cf70]
link Test to TestType--><path codeLine="63" d="M145.5,278.21 C145.5,303.88 145.5,332.74 145.5,355.92 " fill="none" id="Test-TestType" style="stroke:#A80036;stroke-width:1.0;"/><polygon fill="#000000" points="150.5,322.1758,153.4389,313.1307,147.5611,313.1307,150.5,322.1758" style="stroke:#000000;stroke-width:1.0;"/><text fill="#000000" font-family="sans-serif" font-size="13" lengthAdjust="spacing" textLength="24" x="159.5" y="322.4951">is of</text><text fill="#000000" font-family="sans-serif" font-size="13" lengthAdjust="spacing" textLength="5" x="140.2422" y="299.3238">*</text><text fill="#000000" font-family="sans-serif" font-size="13" lengthAdjust="spacing" textLength="7" x="137.9422" y="345.0227">1</text><!--MD5=[89f52cfbdb75b44d91224142446f449f]
@startuml
'https://plantuml.com/class-diagram

class Company{
designation
}
class Test{
 code
 nhsCode
 createdAt
 sampleDate
 resultDate
 reportDate
}
class TestType{
code
description
collectionMethod
}
class TestParameter
class ExternalModule
class ReferenceValue{
lowerReferenceValue
upperReferenceValue
}
class Parameter{
code
shortName
description
}
class TestParameterResult{
createdAt
value
metric
}
class Sample{
barcodeNumber
}
class ClinicalChemistryTechnologist{
}
class Employee{
    name
    phoneNumber
    email
    password
    employeeID
    socCode
    organizationRole
    address
}
Company "1" - - "1..*" Employee: has >
ClinicalChemistryTechnologist - -|> Employee
Company "1" - - "*" TestType: conducts >
Company "1" - - "*" Test: performs >
TestType "*" - "1" ExternalModule: makes use of >
Company "1" - - "*" Parameter: capable of analysing >
Sample "*" - - "1" Test: has <
TestParameter "1" - - "0..1" TestParameterResult: contains >
TestParameterResult "1" - - "1" ReferenceValue: records >
TestParameterResult "*" - - "1" ClinicalChemistryTechnologist: records <
ReferenceValue "*" - - "1" ExternalModule: provided by >
Test "*" - "1..*" Parameter: requests analysis of >
(Test, Parameter) .. TestParameter
Test "*" - - "1" TestType: is of >
@enduml

@startuml

class Company{
designation
}
class Test{
 code
 nhsCode
 createdAt
 sampleDate
 resultDate
 reportDate
}
class TestType{
code
description
collectionMethod
}
class TestParameter
class ExternalModule
class ReferenceValue{
lowerReferenceValue
upperReferenceValue
}
class Parameter{
code
shortName
description
}
class TestParameterResult{
createdAt
value
metric
}
class Sample{
barcodeNumber
}
class ClinicalChemistryTechnologist{
}
class Employee{
    name
    phoneNumber
    email
    password
    employeeID
    socCode
    organizationRole
    address
}
Company "1" - - "1..*" Employee: has >
ClinicalChemistryTechnologist - -|> Employee
Company "1" - - "*" TestType: conducts >
Company "1" - - "*" Test: performs >
TestType "*" - "1" ExternalModule: makes use of >
Company "1" - - "*" Parameter: capable of analysing >
Sample "*" - - "1" Test: has <
TestParameter "1" - - "0..1" TestParameterResult: contains >
TestParameterResult "1" - - "1" ReferenceValue: records >
TestParameterResult "*" - - "1" ClinicalChemistryTechnologist: records <
ReferenceValue "*" - - "1" ExternalModule: provided by >
Test "*" - "1..*" Parameter: requests analysis of >
(Test, Parameter) .. TestParameter
Test "*" - - "1" TestType: is of >
@enduml

PlantUML version 1.2021.5(Sun Apr 25 12:20:28 BST 2021)
(GPL source distribution)
Java Runtime: OpenJDK Runtime Environment
JVM: Dynamic Code Evolution 64-Bit Server VM
Default Encoding: Cp1252
Language: pt
Country: PT
--></g></svg>