<?xml version="1.0" encoding="UTF-8" standalone="no"?><svg xmlns="http://www.w3.org/2000/svg" xmlns:xlink="http://www.w3.org/1999/xlink" contentScriptType="application/ecmascript" contentStyleType="text/css" height="888.75px" preserveAspectRatio="none" style="width:1342px;height:888px;" version="1.1" viewBox="0 0 1342 888" width="1342.5px" zoomAndPan="magnify"><defs><filter height="300%" id="f1bu46ppalrgpd" width="300%" x="-1" y="-1"><feGaussianBlur result="blurOut" stdDeviation="2.5"/><feColorMatrix in="blurOut" result="blurOut2" type="matrix" values="0 0 0 0 0 0 0 0 0 0 0 0 0 0 0 0 0 0 .4 0"/><feOffset dx="5.0" dy="5.0" in="blurOut2" result="blurOut3"/><feBlend in="SourceGraphic" in2="blurOut3" mode="normal"/></filter></defs><g><rect fill="#FFFFFF" filter="url(#f1bu46ppalrgpd)" height="646.2207" style="stroke:#A80036;stroke-width:1.25;" width="12.5" x="471.25" y="124.5117"/><rect fill="#FFFFFF" filter="url(#f1bu46ppalrgpd)" height="54.4092" style="stroke:#A80036;stroke-width:1.25;" width="12.5" x="1212.5" y="168.9209"/><rect fill="#FFFFFF" filter="url(#f1bu46ppalrgpd)" height="37.9395" style="stroke:#A80036;stroke-width:1.25;" width="12.5" x="1212.5" y="261.2695"/><rect fill="#FFFFFF" filter="url(#f1bu46ppalrgpd)" height="37.9395" style="stroke:#A80036;stroke-width:1.25;" width="12.5" x="1212.5" y="337.1484"/><rect fill="#FFFFFF" filter="url(#f1bu46ppalrgpd)" height="69.6289" style="stroke:#A80036;stroke-width:1.25;" width="12.5" x="1212.5" y="413.0273"/><rect fill="#FFFFFF" filter="url(#f1bu46ppalrgpd)" height="69.6289" style="stroke:#A80036;stroke-width:1.25;" width="12.5" x="1212.5" y="520.5957"/><rect fill="#FFFFFF" filter="url(#f1bu46ppalrgpd)" height="55.4395" style="stroke:#A80036;stroke-width:1.25;" width="12.5" x="1212.5" y="628.1641"/><rect fill="#FFFFFF" filter="url(#f1bu46ppalrgpd)" height="37.9395" style="stroke:#A80036;stroke-width:1.25;" width="12.5" x="1212.5" y="721.543"/><rect fill="#FFFFFF" filter="url(#f1bu46ppalrgpd)" height="215.1367" style="stroke:#000000;stroke-width:2.5;" width="925" x="400" y="431.7773"/><rect fill="#FFFFFF" filter="url(#f1bu46ppalrgpd)" height="98.8184" style="stroke:#000000;stroke-width:2.5;" width="900" x="412.5" y="539.3457"/><line style="stroke:#A80036;stroke-width:1.25;stroke-dasharray:5.0,5.0;" x1="477.5" x2="477.5" y1="112.0117" y2="781.9824"/><line style="stroke:#A80036;stroke-width:1.25;stroke-dasharray:5.0,5.0;" x1="1218.75" x2="1218.75" y1="112.0117" y2="781.9824"/><text fill="#000000" font-family="sans-serif" font-size="17.5" lengthAdjust="spacing" textLength="97.5" x="425" y="108.1665">Receptionist</text><ellipse cx="477.5" cy="18.75" fill="#FEFECE" filter="url(#f1bu46ppalrgpd)" rx="10" ry="10" style="stroke:#A80036;stroke-width:2.5;"/><path d="M477.5,28.75 L477.5,62.5 M461.25,38.75 L493.75,38.75 M477.5,62.5 L461.25,81.25 M477.5,62.5 L493.75,81.25 " fill="none" filter="url(#f1bu46ppalrgpd)" style="stroke:#A80036;stroke-width:2.5;"/><text fill="#000000" font-family="sans-serif" font-size="17.5" lengthAdjust="spacing" textLength="97.5" x="425" y="798.8989">Receptionist</text><ellipse cx="477.5" cy="815.2441" fill="#FEFECE" filter="url(#f1bu46ppalrgpd)" rx="10" ry="10" style="stroke:#A80036;stroke-width:2.5;"/><path d="M477.5,825.2441 L477.5,858.9941 M461.25,835.2441 L493.75,835.2441 M477.5,858.9941 L461.25,877.7441 M477.5,858.9941 L493.75,877.7441 " fill="none" filter="url(#f1bu46ppalrgpd)" style="stroke:#A80036;stroke-width:2.5;"/><rect fill="#FEFECE" filter="url(#f1bu46ppalrgpd)" height="39.5117" style="stroke:#A80036;stroke-width:1.875;" width="80" x="1176.25" y="66.25"/><text fill="#000000" font-family="sans-serif" font-size="17.5" lengthAdjust="spacing" textLength="62.5" x="1185" y="93.1665">:System</text><rect fill="#FEFECE" filter="url(#f1bu46ppalrgpd)" height="39.5117" style="stroke:#A80036;stroke-width:1.875;" width="80" x="1176.25" y="780.7324"/><text fill="#000000" font-family="sans-serif" font-size="17.5" lengthAdjust="spacing" textLength="62.5" x="1185" y="807.6489">:System</text><rect fill="#FFFFFF" filter="url(#f1bu46ppalrgpd)" height="646.2207" style="stroke:#A80036;stroke-width:1.25;" width="12.5" x="471.25" y="124.5117"/><rect fill="#FFFFFF" filter="url(#f1bu46ppalrgpd)" height="54.4092" style="stroke:#A80036;stroke-width:1.25;" width="12.5" x="1212.5" y="168.9209"/><rect fill="#FFFFFF" filter="url(#f1bu46ppalrgpd)" height="37.9395" style="stroke:#A80036;stroke-width:1.25;" width="12.5" x="1212.5" y="261.2695"/><rect fill="#FFFFFF" filter="url(#f1bu46ppalrgpd)" height="37.9395" style="stroke:#A80036;stroke-width:1.25;" width="12.5" x="1212.5" y="337.1484"/><rect fill="#FFFFFF" filter="url(#f1bu46ppalrgpd)" height="69.6289" style="stroke:#A80036;stroke-width:1.25;" width="12.5" x="1212.5" y="413.0273"/><rect fill="#FFFFFF" filter="url(#f1bu46ppalrgpd)" height="69.6289" style="stroke:#A80036;stroke-width:1.25;" width="12.5" x="1212.5" y="520.5957"/><rect fill="#FFFFFF" filter="url(#f1bu46ppalrgpd)" height="55.4395" style="stroke:#A80036;stroke-width:1.25;" width="12.5" x="1212.5" y="628.1641"/><rect fill="#FFFFFF" filter="url(#f1bu46ppalrgpd)" height="37.9395" style="stroke:#A80036;stroke-width:1.25;" width="12.5" x="1212.5" y="721.543"/><polygon fill="#A80036" points="1197.5,163.9209,1210,168.9209,1197.5,173.9209,1202.5,168.9209" style="stroke:#A80036;stroke-width:1.25;"/><line style="stroke:#A80036;stroke-width:1.25;" x1="483.75" x2="1205" y1="168.9209" y2="168.9209"/><text fill="#000000" font-family="sans-serif" font-size="16.25" font-weight="bold" lengthAdjust="spacing" textLength="8.75" x="492.5" y="162.8503">1</text><text fill="#000000" font-family="sans-serif" font-size="16.25" lengthAdjust="spacing" textLength="196.25" x="506.25" y="162.8503">Requests to register a Test</text><path d="M6.25,130.7617 L6.25,183.2617 L460,183.2617 L460,143.2617 L447.5,130.7617 L6.25,130.7617 " fill="#FBFB77" filter="url(#f1bu46ppalrgpd)" style="stroke:#A80036;stroke-width:1.25;"/><path d="M447.5,130.7617 L447.5,143.2617 L460,143.2617 L447.5,130.7617 " fill="#FBFB77" style="stroke:#A80036;stroke-width:1.25;"/><text fill="#000000" font-family="sans-serif" font-size="16.25" lengthAdjust="spacing" textLength="422.5" x="13.75" y="153.8806">See the steps of the Clinical Analysis Laboratory selection</text><text fill="#000000" font-family="sans-serif" font-size="16.25" lengthAdjust="spacing" textLength="388.75" x="13.75" y="174.3201">(US04-ChooseLabSSD.puml) before seeing the US04.</text><polygon fill="#A80036" points="497.5,218.3301,485,223.3301,497.5,228.3301,492.5,223.3301" style="stroke:#A80036;stroke-width:1.25;"/><line style="stroke:#A80036;stroke-width:1.25;stroke-dasharray:2.0,2.0;" x1="490" x2="1217.5" y1="223.3301" y2="223.3301"/><text fill="#000000" font-family="sans-serif" font-size="16.25" font-weight="bold" lengthAdjust="spacing" textLength="8.75" x="505" y="217.2595">2</text><text fill="#000000" font-family="sans-serif" font-size="16.25" lengthAdjust="spacing" textLength="371.25" x="518.75" y="217.2595">Asks some data (taxIdentificationNumber,nhsCode)</text><polygon fill="#A80036" points="1197.5,256.2695,1210,261.2695,1197.5,266.2695,1202.5,261.2695" style="stroke:#A80036;stroke-width:1.25;"/><line style="stroke:#A80036;stroke-width:1.25;" x1="483.75" x2="1205" y1="261.2695" y2="261.2695"/><text fill="#000000" font-family="sans-serif" font-size="16.25" font-weight="bold" lengthAdjust="spacing" textLength="8.75" x="492.5" y="255.199">3</text><text fill="#000000" font-family="sans-serif" font-size="16.25" lengthAdjust="spacing" textLength="183.75" x="506.25" y="255.199">Types the requested data</text><polygon fill="#A80036" points="497.5,294.209,485,299.209,497.5,304.209,492.5,299.209" style="stroke:#A80036;stroke-width:1.25;"/><line style="stroke:#A80036;stroke-width:1.25;stroke-dasharray:2.0,2.0;" x1="490" x2="1217.5" y1="299.209" y2="299.209"/><text fill="#000000" font-family="sans-serif" font-size="16.25" font-weight="bold" lengthAdjust="spacing" textLength="8.75" x="505" y="293.1384">4</text><text fill="#000000" font-family="sans-serif" font-size="16.25" lengthAdjust="spacing" textLength="152.5" x="518.75" y="293.1384">Asks for confirmation</text><polygon fill="#A80036" points="1197.5,332.1484,1210,337.1484,1197.5,342.1484,1202.5,337.1484" style="stroke:#A80036;stroke-width:1.25;"/><line style="stroke:#A80036;stroke-width:1.25;" x1="483.75" x2="1205" y1="337.1484" y2="337.1484"/><text fill="#000000" font-family="sans-serif" font-size="16.25" font-weight="bold" lengthAdjust="spacing" textLength="8.75" x="492.5" y="331.0779">5</text><text fill="#000000" font-family="sans-serif" font-size="16.25" lengthAdjust="spacing" textLength="172.5" x="506.25" y="331.0779">Confirms the typed data</text><polygon fill="#A80036" points="497.5,370.0879,485,375.0879,497.5,380.0879,492.5,375.0879" style="stroke:#A80036;stroke-width:1.25;"/><line style="stroke:#A80036;stroke-width:1.25;stroke-dasharray:2.0,2.0;" x1="490" x2="1217.5" y1="375.0879" y2="375.0879"/><text fill="#000000" font-family="sans-serif" font-size="16.25" font-weight="bold" lengthAdjust="spacing" textLength="8.75" x="505" y="369.0173">6</text><text fill="#000000" font-family="sans-serif" font-size="16.25" lengthAdjust="spacing" textLength="685" x="518.75" y="369.0173">Shows the Test Type list associated to the Clinical Analysis Laboratory and asks to select one</text><polygon fill="#A80036" points="1197.5,408.0273,1210,413.0273,1197.5,418.0273,1202.5,413.0273" style="stroke:#A80036;stroke-width:1.25;"/><line style="stroke:#A80036;stroke-width:1.25;" x1="483.75" x2="1205" y1="413.0273" y2="413.0273"/><text fill="#000000" font-family="sans-serif" font-size="16.25" font-weight="bold" lengthAdjust="spacing" textLength="8.75" x="492.5" y="406.9568">7</text><text fill="#000000" font-family="sans-serif" font-size="16.25" lengthAdjust="spacing" textLength="158.75" x="506.25" y="406.9568">Selects the Test Type</text><path d="M400,431.7773 L491.25,431.7773 L491.25,441.7773 L478.75,454.2773 L400,454.2773 L400,431.7773 " fill="#EEEEEE" style="stroke:#000000;stroke-width:1.25;"/><rect fill="none" height="215.1367" style="stroke:#000000;stroke-width:2.5;" width="925" x="400" y="431.7773"/><text fill="#000000" font-family="sans-serif" font-size="16.25" font-weight="bold" lengthAdjust="spacing" textLength="35" x="418.75" y="449.8962">loop</text><text fill="#000000" font-family="sans-serif" font-size="13.75" font-weight="bold" lengthAdjust="spacing" textLength="420" x="510" y="448.551">[While the Receptionist wants to add Parameters to the Test]</text><polygon fill="#A80036" points="497.5,477.6563,485,482.6563,497.5,487.6563,492.5,482.6563" style="stroke:#A80036;stroke-width:1.25;"/><line style="stroke:#A80036;stroke-width:1.25;stroke-dasharray:2.0,2.0;" x1="490" x2="1217.5" y1="482.6563" y2="482.6563"/><text fill="#000000" font-family="sans-serif" font-size="16.25" font-weight="bold" lengthAdjust="spacing" textLength="8.75" x="505" y="476.5857">8</text><text fill="#000000" font-family="sans-serif" font-size="16.25" lengthAdjust="spacing" textLength="503.75" x="518.75" y="476.5857">Shows the list of Parameter Categories associated with the Test Type</text><polygon fill="#A80036" points="1197.5,515.5957,1210,520.5957,1197.5,525.5957,1202.5,520.5957" style="stroke:#A80036;stroke-width:1.25;"/><line style="stroke:#A80036;stroke-width:1.25;" x1="483.75" x2="1205" y1="520.5957" y2="520.5957"/><text fill="#000000" font-family="sans-serif" font-size="16.25" font-weight="bold" lengthAdjust="spacing" textLength="8.75" x="492.5" y="514.5251">9</text><text fill="#000000" font-family="sans-serif" font-size="16.25" lengthAdjust="spacing" textLength="218.75" x="506.25" y="514.5251">Selects a Parameter Category</text><path d="M412.5,539.3457 L503.75,539.3457 L503.75,549.3457 L491.25,561.8457 L412.5,561.8457 L412.5,539.3457 " fill="#EEEEEE" style="stroke:#000000;stroke-width:1.25;"/><rect fill="none" height="98.8184" style="stroke:#000000;stroke-width:2.5;" width="900" x="412.5" y="539.3457"/><text fill="#000000" font-family="sans-serif" font-size="16.25" font-weight="bold" lengthAdjust="spacing" textLength="35" x="431.25" y="557.4646">loop</text><text fill="#000000" font-family="sans-serif" font-size="13.75" font-weight="bold" lengthAdjust="spacing" textLength="783.75" x="522.5" y="556.1194">[While the Receptionist wants to add Parameters associated with the Parameter Category that has been selected]</text><polygon fill="#A80036" points="497.5,585.2246,485,590.2246,497.5,595.2246,492.5,590.2246" style="stroke:#A80036;stroke-width:1.25;"/><line style="stroke:#A80036;stroke-width:1.25;stroke-dasharray:2.0,2.0;" x1="490" x2="1217.5" y1="590.2246" y2="590.2246"/><text fill="#000000" font-family="sans-serif" font-size="16.25" font-weight="bold" lengthAdjust="spacing" textLength="17.5" x="505" y="584.1541">10</text><text fill="#000000" font-family="sans-serif" font-size="16.25" lengthAdjust="spacing" textLength="503.75" x="527.5" y="584.1541">Shows the list of Parameters associated with the Parameter Category</text><polygon fill="#A80036" points="1197.5,623.1641,1210,628.1641,1197.5,633.1641,1202.5,628.1641" style="stroke:#A80036;stroke-width:1.25;"/><line style="stroke:#A80036;stroke-width:1.25;" x1="483.75" x2="1205" y1="628.1641" y2="628.1641"/><text fill="#000000" font-family="sans-serif" font-size="16.25" font-weight="bold" lengthAdjust="spacing" textLength="17.5" x="492.5" y="622.0935">11</text><text fill="#000000" font-family="sans-serif" font-size="16.25" lengthAdjust="spacing" textLength="148.75" x="515" y="622.0935">Selects a Parameter</text><polygon fill="#A80036" points="497.5,678.6035,485,683.6035,497.5,688.6035,492.5,683.6035" style="stroke:#A80036;stroke-width:1.25;"/><line style="stroke:#A80036;stroke-width:1.25;stroke-dasharray:2.0,2.0;" x1="490" x2="1217.5" y1="683.6035" y2="683.6035"/><text fill="#000000" font-family="sans-serif" font-size="16.25" font-weight="bold" lengthAdjust="spacing" textLength="17.5" x="505" y="677.533">12</text><text fill="#000000" font-family="sans-serif" font-size="16.25" lengthAdjust="spacing" textLength="152.5" x="527.5" y="677.533">Asks for confirmation</text><polygon fill="#A80036" points="1197.5,716.543,1210,721.543,1197.5,726.543,1202.5,721.543" style="stroke:#A80036;stroke-width:1.25;"/><line style="stroke:#A80036;stroke-width:1.25;" x1="483.75" x2="1205" y1="721.543" y2="721.543"/><text fill="#000000" font-family="sans-serif" font-size="16.25" font-weight="bold" lengthAdjust="spacing" textLength="17.5" x="492.5" y="715.4724">13</text><text fill="#000000" font-family="sans-serif" font-size="16.25" lengthAdjust="spacing" textLength="121.25" x="515" y="715.4724">Confirms all data</text><polygon fill="#A80036" points="497.5,754.4824,485,759.4824,497.5,764.4824,492.5,759.4824" style="stroke:#A80036;stroke-width:1.25;"/><line style="stroke:#A80036;stroke-width:1.25;stroke-dasharray:2.0,2.0;" x1="490" x2="1217.5" y1="759.4824" y2="759.4824"/><text fill="#000000" font-family="sans-serif" font-size="16.25" font-weight="bold" lengthAdjust="spacing" textLength="17.5" x="505" y="753.4119">14</text><text fill="#000000" font-family="sans-serif" font-size="16.25" lengthAdjust="spacing" textLength="207.5" x="527.5" y="753.4119">Informs of operation success</text><!--MD5=[3e6e7d6eb82bacdb05ee14c67e4cdf80]
@startuml

autonumber

actor Receptionist as Recep

participant ":System" as Sys

activate Recep
Recep -> Sys : Requests to register a Test
note left : See the steps of the Clinical Analysis Laboratory selection \n(US04-ChooseLabSSD.puml) before seeing the US04.
activate Sys
Sys - -> Recep : Asks some data (taxIdentificationNumber,nhsCode)
deactivate Sys
Recep -> Sys : Types the requested data
activate Sys
Sys - -> Recep : Asks for confirmation
deactivate Sys
Recep -> Sys : Confirms the typed data
activate Sys
Sys - -> Recep : Shows the Test Type list associated to the Clinical Analysis Laboratory and asks to select one
deactivate Sys
Recep -> Sys : Selects the Test Type
activate Sys

loop While the Receptionist wants to add Parameters to the Test
Sys - -> Recep : Shows the list of Parameter Categories associated with the Test Type
deactivate Sys
Recep -> Sys : Selects a Parameter Category
activate Sys
loop While the Receptionist wants to add Parameters associated with the Parameter Category that has been selected
Sys - -> Recep: Shows the list of Parameters associated with the Parameter Category
deactivate Sys
Recep -> Sys : Selects a Parameter
activate Sys
end
end
Sys - -> Recep : Asks for confirmation
deactivate Sys
Recep -> Sys: Confirms all data
activate Sys
Sys - -> Recep: Informs of operation success
deactivate Sys






@enduml

PlantUML version 1.2021.00(Sun Jan 10 10:25:05 GMT 2021)
(GPL source distribution)
Java Runtime: OpenJDK Runtime Environment
JVM: OpenJDK 64-Bit Server VM
Default Encoding: Cp1252
Language: pt
Country: PT
--></g></svg>