<?xml version="1.0" encoding="UTF-8" standalone="no"?><svg xmlns="http://www.w3.org/2000/svg" xmlns:xlink="http://www.w3.org/1999/xlink" contentScriptType="application/ecmascript" contentStyleType="text/css" height="1530px" preserveAspectRatio="none" style="width:631px;height:1530px;" version="1.1" viewBox="0 0 631 1530" width="631.25px" zoomAndPan="magnify"><defs><filter height="300%" id="fm3574upbv7g0" width="300%" x="-1" y="-1"><feGaussianBlur result="blurOut" stdDeviation="2.5"/><feColorMatrix in="blurOut" result="blurOut2" type="matrix" values="0 0 0 0 0 0 0 0 0 0 0 0 0 0 0 0 0 0 .4 0"/><feOffset dx="5.0" dy="5.0" in="blurOut2" result="blurOut3"/><feBlend in="SourceGraphic" in2="blurOut3" mode="normal"/></filter></defs><g><!--MD5=[02e4b9b7573f1156f41e60aa5b4e25a4]
class Company--><rect codeLine="3" fill="#FEFECE" filter="url(#fm3574upbv7g0)" height="77.2949" id="Company" style="stroke:#A80036;stroke-width:1.875;" width="106.25" x="411.875" y="8.75"/><ellipse cx="430.625" cy="28.75" fill="#ADD1B2" rx="13.75" ry="13.75" style="stroke:#A80036;stroke-width:1.25;"/><path d="M433.125,24.375 Q433.3789,23.75 433.6719,23.4375 Q433.9648,23.125 434.2969,23.125 Q434.8828,23.125 435.2539,23.4766 Q435.625,23.8281 435.625,24.6484 L435.625,26.6016 Q435.625,27.4219 435.2734,27.7734 Q434.9219,28.125 434.375,28.125 Q433.8867,28.125 433.5742,27.9102 Q433.2617,27.6953 433.125,27.1289 Q433.0664,26.7383 432.8516,26.5234 Q432.4609,26.1133 431.7578,25.8789 Q431.0547,25.625 430.3516,25.625 Q429.4727,25.625 428.7305,25.9766 Q428.0078,26.3281 427.4414,27.1094 Q426.875,27.8906 426.875,28.9648 L426.875,30.1172 Q426.875,31.4063 427.9297,32.2656 Q428.9844,33.125 430.8594,33.125 Q431.9727,33.125 432.7539,32.8711 Q433.2031,32.7344 433.7109,32.2852 Q434.043,32.0313 434.2188,31.9531 Q434.3945,31.875 434.6094,31.875 Q435.0195,31.875 435.3125,32.207 Q435.625,32.5195 435.625,32.9688 Q435.625,33.3984 435.1953,33.9063 Q434.5703,34.6484 433.5742,35.0586 Q432.2656,35.625 430.6641,35.625 Q428.7891,35.625 427.2852,34.8828 Q426.0742,34.2969 425.2148,33.0273 Q424.375,31.7578 424.375,30.2539 L424.375,28.8867 Q424.375,27.3242 425.1172,25.957 Q425.8789,24.5898 427.1875,23.8672 Q428.5156,23.125 430,23.125 Q430.8984,23.125 431.6797,23.4375 Q432.4609,23.75 433.125,24.375 Z " fill="#000000"/><text fill="#000000" font-family="sans-serif" font-size="15" lengthAdjust="spacing" textLength="66.25" x="448.125" y="34.8877">Company</text><line style="stroke:#A80036;stroke-width:1.875;" x1="413.125" x2="516.875" y1="48.75" y2="48.75"/><text fill="#000000" font-family="sans-serif" font-size="13.75" lengthAdjust="spacing" textLength="68.75" x="419.375" y="68.0237">designation</text><line style="stroke:#A80036;stroke-width:1.875;" x1="413.125" x2="516.875" y1="76.0449" y2="76.0449"/><!--MD5=[1934a092c0e7d4da7dc7075b6f4b6b03]
class ClinicalAnalysisLaboratory--><rect codeLine="7" fill="#FEFECE" filter="url(#fm3574upbv7g0)" height="146.4746" id="ClinicalAnalysisLaboratory" style="stroke:#A80036;stroke-width:1.875;" width="221.25" x="393.125" y="767.5"/><ellipse cx="411.875" cy="787.5" fill="#ADD1B2" rx="13.75" ry="13.75" style="stroke:#A80036;stroke-width:1.25;"/><path d="M414.375,783.125 Q414.6289,782.5 414.9219,782.1875 Q415.2148,781.875 415.5469,781.875 Q416.1328,781.875 416.5039,782.2266 Q416.875,782.5781 416.875,783.3984 L416.875,785.3516 Q416.875,786.1719 416.5234,786.5234 Q416.1719,786.875 415.625,786.875 Q415.1367,786.875 414.8242,786.6602 Q414.5117,786.4453 414.375,785.8789 Q414.3164,785.4883 414.1016,785.2734 Q413.7109,784.8633 413.0078,784.6289 Q412.3047,784.375 411.6016,784.375 Q410.7227,784.375 409.9805,784.7266 Q409.2578,785.0781 408.6914,785.8594 Q408.125,786.6406 408.125,787.7148 L408.125,788.8672 Q408.125,790.1563 409.1797,791.0156 Q410.2344,791.875 412.1094,791.875 Q413.2227,791.875 414.0039,791.6211 Q414.4531,791.4844 414.9609,791.0352 Q415.293,790.7813 415.4688,790.7031 Q415.6445,790.625 415.8594,790.625 Q416.2695,790.625 416.5625,790.957 Q416.875,791.2695 416.875,791.7188 Q416.875,792.1484 416.4453,792.6563 Q415.8203,793.3984 414.8242,793.8086 Q413.5156,794.375 411.9141,794.375 Q410.0391,794.375 408.5352,793.6328 Q407.3242,793.0469 406.4648,791.7773 Q405.625,790.5078 405.625,789.0039 L405.625,787.6367 Q405.625,786.0742 406.3672,784.707 Q407.1289,783.3398 408.4375,782.6172 Q409.7656,781.875 411.25,781.875 Q412.1484,781.875 412.9297,782.1875 Q413.7109,782.5 414.375,783.125 Z " fill="#000000"/><text fill="#000000" font-family="sans-serif" font-size="15" lengthAdjust="spacing" textLength="181.25" x="429.375" y="793.6377">ClinicalAnalysisLaboratory</text><line style="stroke:#A80036;stroke-width:1.875;" x1="394.375" x2="613.125" y1="807.5" y2="807.5"/><text fill="#000000" font-family="sans-serif" font-size="13.75" lengthAdjust="spacing" textLength="50" x="400.625" y="826.7737">address</text><text fill="#000000" font-family="sans-serif" font-size="13.75" lengthAdjust="spacing" textLength="83.75" x="400.625" y="844.0686">phoneNumber</text><text fill="#000000" font-family="sans-serif" font-size="13.75" lengthAdjust="spacing" textLength="140" x="400.625" y="861.3635">taxIdentificationNumber</text><text fill="#000000" font-family="sans-serif" font-size="13.75" lengthAdjust="spacing" textLength="32.5" x="400.625" y="878.6584">name</text><text fill="#000000" font-family="sans-serif" font-size="13.75" lengthAdjust="spacing" textLength="71.25" x="400.625" y="895.9534">laboratoryId</text><line style="stroke:#A80036;stroke-width:1.875;" x1="394.375" x2="613.125" y1="903.9746" y2="903.9746"/><!--MD5=[df38be88ccee13e832d6fafd6288a4ca]
class Test--><rect codeLine="15" fill="#FEFECE" filter="url(#fm3574upbv7g0)" height="163.7695" id="Test" style="stroke:#A80036;stroke-width:1.875;" width="85" x="182.5" y="758.75"/><ellipse cx="208" cy="778.75" fill="#ADD1B2" rx="13.75" ry="13.75" style="stroke:#A80036;stroke-width:1.25;"/><path d="M210.5,774.375 Q210.7539,773.75 211.0469,773.4375 Q211.3398,773.125 211.6719,773.125 Q212.2578,773.125 212.6289,773.4766 Q213,773.8281 213,774.6484 L213,776.6016 Q213,777.4219 212.6484,777.7734 Q212.2969,778.125 211.75,778.125 Q211.2617,778.125 210.9492,777.9102 Q210.6367,777.6953 210.5,777.1289 Q210.4414,776.7383 210.2266,776.5234 Q209.8359,776.1133 209.1328,775.8789 Q208.4297,775.625 207.7266,775.625 Q206.8477,775.625 206.1055,775.9766 Q205.3828,776.3281 204.8164,777.1094 Q204.25,777.8906 204.25,778.9648 L204.25,780.1172 Q204.25,781.4063 205.3047,782.2656 Q206.3594,783.125 208.2344,783.125 Q209.3477,783.125 210.1289,782.8711 Q210.5781,782.7344 211.0859,782.2852 Q211.418,782.0313 211.5938,781.9531 Q211.7695,781.875 211.9844,781.875 Q212.3945,781.875 212.6875,782.207 Q213,782.5195 213,782.9688 Q213,783.3984 212.5703,783.9063 Q211.9453,784.6484 210.9492,785.0586 Q209.6406,785.625 208.0391,785.625 Q206.1641,785.625 204.6602,784.8828 Q203.4492,784.2969 202.5898,783.0273 Q201.75,781.7578 201.75,780.2539 L201.75,778.8867 Q201.75,777.3242 202.4922,775.957 Q203.2539,774.5898 204.5625,773.8672 Q205.8906,773.125 207.375,773.125 Q208.2734,773.125 209.0547,773.4375 Q209.8359,773.75 210.5,774.375 Z " fill="#000000"/><text fill="#000000" font-family="sans-serif" font-size="15" lengthAdjust="spacing" textLength="30" x="227" y="784.8877">Test</text><line style="stroke:#A80036;stroke-width:1.875;" x1="183.75" x2="266.25" y1="798.75" y2="798.75"/><text fill="#000000" font-family="sans-serif" font-size="13.75" lengthAdjust="spacing" textLength="30" x="190" y="818.0237">code</text><text fill="#000000" font-family="sans-serif" font-size="13.75" lengthAdjust="spacing" textLength="53.75" x="190" y="835.3186">nhsCode</text><text fill="#000000" font-family="sans-serif" font-size="13.75" lengthAdjust="spacing" textLength="60" x="190" y="852.6135">createdAt</text><text fill="#000000" font-family="sans-serif" font-size="13.75" lengthAdjust="spacing" textLength="70" x="190" y="869.9084">sampleDate</text><text fill="#000000" font-family="sans-serif" font-size="13.75" lengthAdjust="spacing" textLength="61.25" x="190" y="887.2034">resultDate</text><text fill="#000000" font-family="sans-serif" font-size="13.75" lengthAdjust="spacing" textLength="63.75" x="190" y="904.4983">reportDate</text><line style="stroke:#A80036;stroke-width:1.875;" x1="183.75" x2="266.25" y1="912.5195" y2="912.5195"/><!--MD5=[aeb3272166074d8737a70b61b1e71682]
class TestType--><rect codeLine="24" fill="#FEFECE" filter="url(#fm3574upbv7g0)" height="111.8848" id="TestType" style="stroke:#A80036;stroke-width:1.875;" width="115" x="410" y="1020"/><ellipse cx="434.375" cy="1040" fill="#ADD1B2" rx="13.75" ry="13.75" style="stroke:#A80036;stroke-width:1.25;"/><path d="M436.875,1035.625 Q437.1289,1035 437.4219,1034.6875 Q437.7148,1034.375 438.0469,1034.375 Q438.6328,1034.375 439.0039,1034.7266 Q439.375,1035.0781 439.375,1035.8984 L439.375,1037.8516 Q439.375,1038.6719 439.0234,1039.0234 Q438.6719,1039.375 438.125,1039.375 Q437.6367,1039.375 437.3242,1039.1602 Q437.0117,1038.9453 436.875,1038.3789 Q436.8164,1037.9883 436.6016,1037.7734 Q436.2109,1037.3633 435.5078,1037.1289 Q434.8047,1036.875 434.1016,1036.875 Q433.2227,1036.875 432.4805,1037.2266 Q431.7578,1037.5781 431.1914,1038.3594 Q430.625,1039.1406 430.625,1040.2148 L430.625,1041.3672 Q430.625,1042.6563 431.6797,1043.5156 Q432.7344,1044.375 434.6094,1044.375 Q435.7227,1044.375 436.5039,1044.1211 Q436.9531,1043.9844 437.4609,1043.5352 Q437.793,1043.2813 437.9688,1043.2031 Q438.1445,1043.125 438.3594,1043.125 Q438.7695,1043.125 439.0625,1043.457 Q439.375,1043.7695 439.375,1044.2188 Q439.375,1044.6484 438.9453,1045.1563 Q438.3203,1045.8984 437.3242,1046.3086 Q436.0156,1046.875 434.4141,1046.875 Q432.5391,1046.875 431.0352,1046.1328 Q429.8242,1045.5469 428.9648,1044.2773 Q428.125,1043.0078 428.125,1041.5039 L428.125,1040.1367 Q428.125,1038.5742 428.8672,1037.207 Q429.6289,1035.8398 430.9375,1035.1172 Q432.2656,1034.375 433.75,1034.375 Q434.6484,1034.375 435.4297,1034.6875 Q436.2109,1035 436.875,1035.625 Z " fill="#000000"/><text fill="#000000" font-family="sans-serif" font-size="15" lengthAdjust="spacing" textLength="62.5" x="453.125" y="1046.1377">TestType</text><line style="stroke:#A80036;stroke-width:1.875;" x1="411.25" x2="523.75" y1="1060" y2="1060"/><text fill="#000000" font-family="sans-serif" font-size="13.75" lengthAdjust="spacing" textLength="30" x="417.5" y="1079.2737">code</text><text fill="#000000" font-family="sans-serif" font-size="13.75" lengthAdjust="spacing" textLength="66.25" x="417.5" y="1096.5686">description</text><text fill="#000000" font-family="sans-serif" font-size="13.75" lengthAdjust="spacing" textLength="100" x="417.5" y="1113.8635">collectionMethod</text><line style="stroke:#A80036;stroke-width:1.875;" x1="411.25" x2="523.75" y1="1121.8848" y2="1121.8848"/><!--MD5=[1f6362a5c8f21d8d6a0fce68f3a92a4e]
class Parameter--><rect codeLine="30" fill="#FEFECE" filter="url(#fm3574upbv7g0)" height="111.8848" id="Parameter" style="stroke:#A80036;stroke-width:1.875;" width="112.5" x="215" y="1208.75"/><ellipse cx="233.75" cy="1228.75" fill="#ADD1B2" rx="13.75" ry="13.75" style="stroke:#A80036;stroke-width:1.25;"/><path d="M236.25,1224.375 Q236.5039,1223.75 236.7969,1223.4375 Q237.0898,1223.125 237.4219,1223.125 Q238.0078,1223.125 238.3789,1223.4766 Q238.75,1223.8281 238.75,1224.6484 L238.75,1226.6016 Q238.75,1227.4219 238.3984,1227.7734 Q238.0469,1228.125 237.5,1228.125 Q237.0117,1228.125 236.6992,1227.9102 Q236.3867,1227.6953 236.25,1227.1289 Q236.1914,1226.7383 235.9766,1226.5234 Q235.5859,1226.1133 234.8828,1225.8789 Q234.1797,1225.625 233.4766,1225.625 Q232.5977,1225.625 231.8555,1225.9766 Q231.1328,1226.3281 230.5664,1227.1094 Q230,1227.8906 230,1228.9648 L230,1230.1172 Q230,1231.4063 231.0547,1232.2656 Q232.1094,1233.125 233.9844,1233.125 Q235.0977,1233.125 235.8789,1232.8711 Q236.3281,1232.7344 236.8359,1232.2852 Q237.168,1232.0313 237.3438,1231.9531 Q237.5195,1231.875 237.7344,1231.875 Q238.1445,1231.875 238.4375,1232.207 Q238.75,1232.5195 238.75,1232.9688 Q238.75,1233.3984 238.3203,1233.9063 Q237.6953,1234.6484 236.6992,1235.0586 Q235.3906,1235.625 233.7891,1235.625 Q231.9141,1235.625 230.4102,1234.8828 Q229.1992,1234.2969 228.3398,1233.0273 Q227.5,1231.7578 227.5,1230.2539 L227.5,1228.8867 Q227.5,1227.3242 228.2422,1225.957 Q229.0039,1224.5898 230.3125,1223.8672 Q231.6406,1223.125 233.125,1223.125 Q234.0234,1223.125 234.8047,1223.4375 Q235.5859,1223.75 236.25,1224.375 Z " fill="#000000"/><text fill="#000000" font-family="sans-serif" font-size="15" lengthAdjust="spacing" textLength="72.5" x="251.25" y="1234.8877">Parameter</text><line style="stroke:#A80036;stroke-width:1.875;" x1="216.25" x2="326.25" y1="1248.75" y2="1248.75"/><text fill="#000000" font-family="sans-serif" font-size="13.75" lengthAdjust="spacing" textLength="30" x="222.5" y="1268.0237">code</text><text fill="#000000" font-family="sans-serif" font-size="13.75" lengthAdjust="spacing" textLength="65" x="222.5" y="1285.3186">shortName</text><text fill="#000000" font-family="sans-serif" font-size="13.75" lengthAdjust="spacing" textLength="66.25" x="222.5" y="1302.6135">description</text><line style="stroke:#A80036;stroke-width:1.875;" x1="216.25" x2="326.25" y1="1310.6348" y2="1310.6348"/><!--MD5=[7421f545a0d8420c5bec41e74b387d9c]
class Employee--><rect codeLine="37" fill="#FEFECE" filter="url(#fm3574upbv7g0)" height="181.0645" id="Employee" style="stroke:#A80036;stroke-width:1.875;" width="115" x="8.75" y="480"/><ellipse cx="30.3125" cy="500" fill="#ADD1B2" rx="13.75" ry="13.75" style="stroke:#A80036;stroke-width:1.25;"/><path d="M32.8125,495.625 Q33.0664,495 33.3594,494.6875 Q33.6523,494.375 33.9844,494.375 Q34.5703,494.375 34.9414,494.7266 Q35.3125,495.0781 35.3125,495.8984 L35.3125,497.8516 Q35.3125,498.6719 34.9609,499.0234 Q34.6094,499.375 34.0625,499.375 Q33.5742,499.375 33.2617,499.1602 Q32.9492,498.9453 32.8125,498.3789 Q32.7539,497.9883 32.5391,497.7734 Q32.1484,497.3633 31.4453,497.1289 Q30.7422,496.875 30.0391,496.875 Q29.1602,496.875 28.418,497.2266 Q27.6953,497.5781 27.1289,498.3594 Q26.5625,499.1406 26.5625,500.2148 L26.5625,501.3672 Q26.5625,502.6563 27.6172,503.5156 Q28.6719,504.375 30.5469,504.375 Q31.6602,504.375 32.4414,504.1211 Q32.8906,503.9844 33.3984,503.5352 Q33.7305,503.2813 33.9063,503.2031 Q34.082,503.125 34.2969,503.125 Q34.707,503.125 35,503.457 Q35.3125,503.7695 35.3125,504.2188 Q35.3125,504.6484 34.8828,505.1563 Q34.2578,505.8984 33.2617,506.3086 Q31.9531,506.875 30.3516,506.875 Q28.4766,506.875 26.9727,506.1328 Q25.7617,505.5469 24.9023,504.2773 Q24.0625,503.0078 24.0625,501.5039 L24.0625,500.1367 Q24.0625,498.5742 24.8047,497.207 Q25.5664,495.8398 26.875,495.1172 Q28.2031,494.375 29.6875,494.375 Q30.5859,494.375 31.3672,494.6875 Q32.1484,495 32.8125,495.625 Z " fill="#000000"/><text fill="#000000" font-family="sans-serif" font-size="15" lengthAdjust="spacing" textLength="68.75" x="48.4375" y="506.1377">Employee</text><line style="stroke:#A80036;stroke-width:1.875;" x1="10" x2="122.5" y1="520" y2="520"/><text fill="#000000" font-family="sans-serif" font-size="13.75" lengthAdjust="spacing" textLength="32.5" x="16.25" y="539.2737">name</text><text fill="#000000" font-family="sans-serif" font-size="13.75" lengthAdjust="spacing" textLength="83.75" x="16.25" y="556.5686">phoneNumber</text><text fill="#000000" font-family="sans-serif" font-size="13.75" lengthAdjust="spacing" textLength="30" x="16.25" y="573.8635">email</text><text fill="#000000" font-family="sans-serif" font-size="13.75" lengthAdjust="spacing" textLength="68.75" x="16.25" y="591.1584">employeeID</text><text fill="#000000" font-family="sans-serif" font-size="13.75" lengthAdjust="spacing" textLength="53.75" x="16.25" y="608.4534">socCode</text><text fill="#000000" font-family="sans-serif" font-size="13.75" lengthAdjust="spacing" textLength="100" x="16.25" y="625.7483">organizationRole</text><text fill="#000000" font-family="sans-serif" font-size="13.75" lengthAdjust="spacing" textLength="50" x="16.25" y="643.0432">address</text><line style="stroke:#A80036;stroke-width:1.875;" x1="10" x2="122.5" y1="651.0645" y2="651.0645"/><!--MD5=[a999c1570c205a2156b04a15307bc1ff]
class LabOrder--><rect codeLine="47" fill="#FEFECE" filter="url(#fm3574upbv7g0)" height="60" id="LabOrder" style="stroke:#A80036;stroke-width:1.875;" width="105" x="167.5" y="540.625"/><ellipse cx="186.25" cy="560.625" fill="#ADD1B2" rx="13.75" ry="13.75" style="stroke:#A80036;stroke-width:1.25;"/><path d="M188.75,556.25 Q189.0039,555.625 189.2969,555.3125 Q189.5898,555 189.9219,555 Q190.5078,555 190.8789,555.3516 Q191.25,555.7031 191.25,556.5234 L191.25,558.4766 Q191.25,559.2969 190.8984,559.6484 Q190.5469,560 190,560 Q189.5117,560 189.1992,559.7852 Q188.8867,559.5703 188.75,559.0039 Q188.6914,558.6133 188.4766,558.3984 Q188.0859,557.9883 187.3828,557.7539 Q186.6797,557.5 185.9766,557.5 Q185.0977,557.5 184.3555,557.8516 Q183.6328,558.2031 183.0664,558.9844 Q182.5,559.7656 182.5,560.8398 L182.5,561.9922 Q182.5,563.2813 183.5547,564.1406 Q184.6094,565 186.4844,565 Q187.5977,565 188.3789,564.7461 Q188.8281,564.6094 189.3359,564.1602 Q189.668,563.9063 189.8438,563.8281 Q190.0195,563.75 190.2344,563.75 Q190.6445,563.75 190.9375,564.082 Q191.25,564.3945 191.25,564.8438 Q191.25,565.2734 190.8203,565.7813 Q190.1953,566.5234 189.1992,566.9336 Q187.8906,567.5 186.2891,567.5 Q184.4141,567.5 182.9102,566.7578 Q181.6992,566.1719 180.8398,564.9023 Q180,563.6328 180,562.1289 L180,560.7617 Q180,559.1992 180.7422,557.832 Q181.5039,556.4648 182.8125,555.7422 Q184.1406,555 185.625,555 Q186.5234,555 187.3047,555.3125 Q188.0859,555.625 188.75,556.25 Z " fill="#000000"/><text fill="#000000" font-family="sans-serif" font-size="15" lengthAdjust="spacing" textLength="65" x="203.75" y="566.7627">LabOrder</text><line style="stroke:#A80036;stroke-width:1.875;" x1="168.75" x2="271.25" y1="580.625" y2="580.625"/><line style="stroke:#A80036;stroke-width:1.875;" x1="168.75" x2="271.25" y1="590.625" y2="590.625"/><!--MD5=[03960189e81aa2c066c762ffabbee709]
class Receptionist--><rect codeLine="49" fill="#FEFECE" filter="url(#fm3574upbv7g0)" height="60" id="Receptionist" style="stroke:#A80036;stroke-width:1.875;" width="126.25" x="316.875" y="540.625"/><ellipse cx="335.625" cy="560.625" fill="#ADD1B2" rx="13.75" ry="13.75" style="stroke:#A80036;stroke-width:1.25;"/><path d="M338.125,556.25 Q338.3789,555.625 338.6719,555.3125 Q338.9648,555 339.2969,555 Q339.8828,555 340.2539,555.3516 Q340.625,555.7031 340.625,556.5234 L340.625,558.4766 Q340.625,559.2969 340.2734,559.6484 Q339.9219,560 339.375,560 Q338.8867,560 338.5742,559.7852 Q338.2617,559.5703 338.125,559.0039 Q338.0664,558.6133 337.8516,558.3984 Q337.4609,557.9883 336.7578,557.7539 Q336.0547,557.5 335.3516,557.5 Q334.4727,557.5 333.7305,557.8516 Q333.0078,558.2031 332.4414,558.9844 Q331.875,559.7656 331.875,560.8398 L331.875,561.9922 Q331.875,563.2813 332.9297,564.1406 Q333.9844,565 335.8594,565 Q336.9727,565 337.7539,564.7461 Q338.2031,564.6094 338.7109,564.1602 Q339.043,563.9063 339.2188,563.8281 Q339.3945,563.75 339.6094,563.75 Q340.0195,563.75 340.3125,564.082 Q340.625,564.3945 340.625,564.8438 Q340.625,565.2734 340.1953,565.7813 Q339.5703,566.5234 338.5742,566.9336 Q337.2656,567.5 335.6641,567.5 Q333.7891,567.5 332.2852,566.7578 Q331.0742,566.1719 330.2148,564.9023 Q329.375,563.6328 329.375,562.1289 L329.375,560.7617 Q329.375,559.1992 330.1172,557.832 Q330.8789,556.4648 332.1875,555.7422 Q333.5156,555 335,555 Q335.8984,555 336.6797,555.3125 Q337.4609,555.625 338.125,556.25 Z " fill="#000000"/><text fill="#000000" font-family="sans-serif" font-size="15" lengthAdjust="spacing" textLength="86.25" x="353.125" y="566.7627">Receptionist</text><line style="stroke:#A80036;stroke-width:1.875;" x1="318.125" x2="441.875" y1="580.625" y2="580.625"/><line style="stroke:#A80036;stroke-width:1.875;" x1="318.125" x2="441.875" y1="590.625" y2="590.625"/><!--MD5=[ed6624c6556d5e7b1bd23032162d20b7]
class Client--><rect codeLine="51" fill="#FEFECE" filter="url(#fm3574upbv7g0)" height="198.3594" id="Client" style="stroke:#A80036;stroke-width:1.875;" width="155" x="287.5" y="183.75"/><ellipse cx="340" cy="203.75" fill="#ADD1B2" rx="13.75" ry="13.75" style="stroke:#A80036;stroke-width:1.25;"/><path d="M342.5,199.375 Q342.7539,198.75 343.0469,198.4375 Q343.3398,198.125 343.6719,198.125 Q344.2578,198.125 344.6289,198.4766 Q345,198.8281 345,199.6484 L345,201.6016 Q345,202.4219 344.6484,202.7734 Q344.2969,203.125 343.75,203.125 Q343.2617,203.125 342.9492,202.9102 Q342.6367,202.6953 342.5,202.1289 Q342.4414,201.7383 342.2266,201.5234 Q341.8359,201.1133 341.1328,200.8789 Q340.4297,200.625 339.7266,200.625 Q338.8477,200.625 338.1055,200.9766 Q337.3828,201.3281 336.8164,202.1094 Q336.25,202.8906 336.25,203.9648 L336.25,205.1172 Q336.25,206.4063 337.3047,207.2656 Q338.3594,208.125 340.2344,208.125 Q341.3477,208.125 342.1289,207.8711 Q342.5781,207.7344 343.0859,207.2852 Q343.418,207.0313 343.5938,206.9531 Q343.7695,206.875 343.9844,206.875 Q344.3945,206.875 344.6875,207.207 Q345,207.5195 345,207.9688 Q345,208.3984 344.5703,208.9063 Q343.9453,209.6484 342.9492,210.0586 Q341.6406,210.625 340.0391,210.625 Q338.1641,210.625 336.6602,209.8828 Q335.4492,209.2969 334.5898,208.0273 Q333.75,206.7578 333.75,205.2539 L333.75,203.8867 Q333.75,202.3242 334.4922,200.957 Q335.2539,199.5898 336.5625,198.8672 Q337.8906,198.125 339.375,198.125 Q340.2734,198.125 341.0547,198.4375 Q341.8359,198.75 342.5,199.375 Z " fill="#000000"/><text fill="#000000" font-family="sans-serif" font-size="15" lengthAdjust="spacing" textLength="40" x="365" y="209.8877">Client</text><line style="stroke:#A80036;stroke-width:1.875;" x1="288.75" x2="441.25" y1="223.75" y2="223.75"/><text fill="#000000" font-family="sans-serif" font-size="13.75" lengthAdjust="spacing" textLength="32.5" x="295" y="243.0237">name</text><text fill="#000000" font-family="sans-serif" font-size="13.75" lengthAdjust="spacing" textLength="30" x="295" y="260.3186">email</text><text fill="#000000" font-family="sans-serif" font-size="13.75" lengthAdjust="spacing" textLength="140" x="295" y="277.6135">taxIdentificationNumber</text><text fill="#000000" font-family="sans-serif" font-size="13.75" lengthAdjust="spacing" textLength="113.75" x="295" y="294.9084">citizenCardNumber</text><text fill="#000000" font-family="sans-serif" font-size="13.75" lengthAdjust="spacing" textLength="68.75" x="295" y="312.2034">nhsNumber</text><text fill="#000000" font-family="sans-serif" font-size="13.75" lengthAdjust="spacing" textLength="53.75" x="295" y="329.4983">birthDate</text><text fill="#000000" font-family="sans-serif" font-size="13.75" lengthAdjust="spacing" textLength="42.5" x="295" y="346.7932">gender</text><text fill="#000000" font-family="sans-serif" font-size="13.75" lengthAdjust="spacing" textLength="83.75" x="295" y="364.0881">phoneNumber</text><line style="stroke:#A80036;stroke-width:1.875;" x1="288.75" x2="441.25" y1="372.1094" y2="372.1094"/><!--MD5=[36afb6bbd95a8ac778c4537c55a683d5]
class ParameterCategory--><rect codeLine="62" fill="#FEFECE" filter="url(#fm3574upbv7g0)" height="94.5898" id="ParameterCategory" style="stroke:#A80036;stroke-width:1.875;" width="173.75" x="281.875" y="1418.75"/><ellipse cx="300.625" cy="1438.75" fill="#ADD1B2" rx="13.75" ry="13.75" style="stroke:#A80036;stroke-width:1.25;"/><path d="M303.125,1434.375 Q303.3789,1433.75 303.6719,1433.4375 Q303.9648,1433.125 304.2969,1433.125 Q304.8828,1433.125 305.2539,1433.4766 Q305.625,1433.8281 305.625,1434.6484 L305.625,1436.6016 Q305.625,1437.4219 305.2734,1437.7734 Q304.9219,1438.125 304.375,1438.125 Q303.8867,1438.125 303.5742,1437.9102 Q303.2617,1437.6953 303.125,1437.1289 Q303.0664,1436.7383 302.8516,1436.5234 Q302.4609,1436.1133 301.7578,1435.8789 Q301.0547,1435.625 300.3516,1435.625 Q299.4727,1435.625 298.7305,1435.9766 Q298.0078,1436.3281 297.4414,1437.1094 Q296.875,1437.8906 296.875,1438.9648 L296.875,1440.1172 Q296.875,1441.4063 297.9297,1442.2656 Q298.9844,1443.125 300.8594,1443.125 Q301.9727,1443.125 302.7539,1442.8711 Q303.2031,1442.7344 303.7109,1442.2852 Q304.043,1442.0313 304.2188,1441.9531 Q304.3945,1441.875 304.6094,1441.875 Q305.0195,1441.875 305.3125,1442.207 Q305.625,1442.5195 305.625,1442.9688 Q305.625,1443.3984 305.1953,1443.9063 Q304.5703,1444.6484 303.5742,1445.0586 Q302.2656,1445.625 300.6641,1445.625 Q298.7891,1445.625 297.2852,1444.8828 Q296.0742,1444.2969 295.2148,1443.0273 Q294.375,1441.7578 294.375,1440.2539 L294.375,1438.8867 Q294.375,1437.3242 295.1172,1435.957 Q295.8789,1434.5898 297.1875,1433.8672 Q298.5156,1433.125 300,1433.125 Q300.8984,1433.125 301.6797,1433.4375 Q302.4609,1433.75 303.125,1434.375 Z " fill="#000000"/><text fill="#000000" font-family="sans-serif" font-size="15" lengthAdjust="spacing" textLength="133.75" x="318.125" y="1444.8877">ParameterCategory</text><line style="stroke:#A80036;stroke-width:1.875;" x1="283.125" x2="454.375" y1="1458.75" y2="1458.75"/><text fill="#000000" font-family="sans-serif" font-size="13.75" lengthAdjust="spacing" textLength="30" x="289.375" y="1478.0237">code</text><text fill="#000000" font-family="sans-serif" font-size="13.75" lengthAdjust="spacing" textLength="32.5" x="289.375" y="1495.3186">name</text><line style="stroke:#A80036;stroke-width:1.875;" x1="283.125" x2="454.375" y1="1503.3398" y2="1503.3398"/><!--MD5=[0f07739f46effee96e095e9c408da841]
class TestParameter--><rect fill="#FEFECE" filter="url(#fm3574upbv7g0)" height="60" id="TestParameter" style="stroke:#A80036;stroke-width:1.875;" width="142.5" x="223.75" y="1046.25"/><ellipse cx="242.5" cy="1066.25" fill="#ADD1B2" rx="13.75" ry="13.75" style="stroke:#A80036;stroke-width:1.25;"/><path d="M245,1061.875 Q245.2539,1061.25 245.5469,1060.9375 Q245.8398,1060.625 246.1719,1060.625 Q246.7578,1060.625 247.1289,1060.9766 Q247.5,1061.3281 247.5,1062.1484 L247.5,1064.1016 Q247.5,1064.9219 247.1484,1065.2734 Q246.7969,1065.625 246.25,1065.625 Q245.7617,1065.625 245.4492,1065.4102 Q245.1367,1065.1953 245,1064.6289 Q244.9414,1064.2383 244.7266,1064.0234 Q244.3359,1063.6133 243.6328,1063.3789 Q242.9297,1063.125 242.2266,1063.125 Q241.3477,1063.125 240.6055,1063.4766 Q239.8828,1063.8281 239.3164,1064.6094 Q238.75,1065.3906 238.75,1066.4648 L238.75,1067.6172 Q238.75,1068.9063 239.8047,1069.7656 Q240.8594,1070.625 242.7344,1070.625 Q243.8477,1070.625 244.6289,1070.3711 Q245.0781,1070.2344 245.5859,1069.7852 Q245.918,1069.5313 246.0938,1069.4531 Q246.2695,1069.375 246.4844,1069.375 Q246.8945,1069.375 247.1875,1069.707 Q247.5,1070.0195 247.5,1070.4688 Q247.5,1070.8984 247.0703,1071.4063 Q246.4453,1072.1484 245.4492,1072.5586 Q244.1406,1073.125 242.5391,1073.125 Q240.6641,1073.125 239.1602,1072.3828 Q237.9492,1071.7969 237.0898,1070.5273 Q236.25,1069.2578 236.25,1067.7539 L236.25,1066.3867 Q236.25,1064.8242 236.9922,1063.457 Q237.7539,1062.0898 239.0625,1061.3672 Q240.3906,1060.625 241.875,1060.625 Q242.7734,1060.625 243.5547,1060.9375 Q244.3359,1061.25 245,1061.875 Z " fill="#000000"/><text fill="#000000" font-family="sans-serif" font-size="15" lengthAdjust="spacing" textLength="102.5" x="260" y="1072.3877">TestParameter</text><line style="stroke:#A80036;stroke-width:1.875;" x1="225" x2="365" y1="1086.25" y2="1086.25"/><line style="stroke:#A80036;stroke-width:1.875;" x1="225" x2="365" y1="1096.25" y2="1096.25"/><ellipse cx="177.5" cy="1076.25" fill="#000000" rx="2.5" ry="2.5" style="stroke:none;stroke-width:1.25;"/><!--MD5=[aafc5d8a5829a6a8d6dc892cb1ff5d24]
link Company to ClinicalAnalysisLaboratory--><path codeLine="67" d="M478.7625,86.475 C482.575,98.2625 486.325,111.425 488.75,123.75 C538.325,375.3375 525.6875,442.5375 536.25,698.75 C536.6625,708.7375 537.5875,711.3375 536.25,721.25 C534.2125,736.325 530.775,752.1875 526.8875,767.225 " fill="none" id="Company-ClinicalAnalysisLaboratory" style="stroke:#A80036;stroke-width:1.25;"/><polygon fill="#000000" points="535.4407,437.7042,538.3079,426.1669,530.9789,426.685,535.4407,437.7042" style="stroke:#000000;stroke-width:1.25;"/><text fill="#000000" font-family="sans-serif" font-size="16.25" lengthAdjust="spacing" textLength="37.5" x="546.25" y="438.1189">owns</text><text fill="#000000" font-family="sans-serif" font-size="16.25" lengthAdjust="spacing" textLength="8.75" x="471.8607" y="113.0493">1</text><text fill="#000000" font-family="sans-serif" font-size="16.25" lengthAdjust="spacing" textLength="20" x="508.4886" y="753.9426">1.*</text><!--MD5=[2eb961b30663a01bbfd8b4b9b8950031]
link ClinicalAnalysisLaboratory to TestType--><path codeLine="68" d="M492.525,914.0375 C487.225,948.1375 481,988.2 476.075,1019.825 " fill="none" id="ClinicalAnalysisLaboratory-TestType" style="stroke:#A80036;stroke-width:1.25;"/><polygon fill="#000000" points="490.2897,977.6455,495.657,967.0379,488.3969,965.9089,490.2897,977.6455" style="stroke:#000000;stroke-width:1.25;"/><text fill="#000000" font-family="sans-serif" font-size="16.25" lengthAdjust="spacing" textLength="26.25" x="502.5" y="978.1189">has</text><text fill="#000000" font-family="sans-serif" font-size="16.25" lengthAdjust="spacing" textLength="8.75" x="481.8738" y="941.0854">1</text><text fill="#000000" font-family="sans-serif" font-size="16.25" lengthAdjust="spacing" textLength="20" x="455.8568" y="1006.6033">1.*</text><!--MD5=[bfff716514ca687b645fe473c6e098a4]
reverse link Employee to Receptionist--><path codeLine="69" d="M123.2625,466.775 C135.7,452.4625 150.225,439.7625 166.875,431.25 C208.425,410 229.9625,410.725 271.875,431.25 C318.075,453.8875 350.2,506.8375 366.8375,540.5625 " fill="none" id="Employee-backto-Receptionist" style="stroke:#A80036;stroke-width:1.25;"/><polygon fill="#FFFFFF" points="112.85,479.7125,121.4461,477.0001,122.2486,468.022,113.6524,470.7344,112.85,479.7125" style="stroke:#A80036;stroke-width:1.25;"/><!--MD5=[6eee883fdf517d3604e8bd0f2058e9aa]
link Company to Client--><path codeLine="70" d="M448.7125,86.725 C437.425,113.05 421.8375,149.375 407.175,183.55 " fill="none" id="Company-Client" style="stroke:#A80036;stroke-width:1.25;"/><polygon fill="#000000" points="437.5359,140.9635,445.3696,132.0213,438.6174,129.1246,437.5359,140.9635" style="stroke:#000000;stroke-width:1.25;"/><text fill="#000000" font-family="sans-serif" font-size="16.25" lengthAdjust="spacing" textLength="26.25" x="451.25" y="141.8689">has</text><text fill="#000000" font-family="sans-serif" font-size="16.25" lengthAdjust="spacing" textLength="8.75" x="436.0237" y="113.0388">1</text><text fill="#000000" font-family="sans-serif" font-size="16.25" lengthAdjust="spacing" textLength="6.25" x="404.647" y="170.0146">*</text><!--MD5=[e8b34c2e6517a986175307f5599f058a]
link Receptionist to Test--><path codeLine="71" d="M363.1125,601.0125 C340.3625,640.275 299.075,711.5375 267.55,765.95 " fill="none" id="Receptionist-Test" style="stroke:#A80036;stroke-width:1.25;"/><polygon fill="#000000" points="305.6167,715.6276,314.4635,707.6863,308.1062,704.003,305.6167,715.6276" style="stroke:#000000;stroke-width:1.25;"/><text fill="#000000" font-family="sans-serif" font-size="16.25" lengthAdjust="spacing" textLength="62.5" x="320" y="716.8689">registers</text><text fill="#000000" font-family="sans-serif" font-size="16.25" lengthAdjust="spacing" textLength="8.75" x="349.4455" y="627.2718">1</text><text fill="#000000" font-family="sans-serif" font-size="16.25" lengthAdjust="spacing" textLength="6.25" x="276.9705" y="745.398">*</text><!--MD5=[6cd0a3af2322bf46f6c633408da71c74]
link Receptionist to ClinicalAnalysisLaboratory--><path codeLine="72" d="M393.475,601.0125 C411.775,640.55 445.0625,712.525 470.3,767.0625 " fill="none" id="Receptionist-ClinicalAnalysisLaboratory" style="stroke:#A80036;stroke-width:1.25;"/><polygon fill="#000000" points="455.1244,715.892,453.7109,704.0882,447.0427,707.1733,455.1244,715.892" style="stroke:#000000;stroke-width:1.25;"/><text fill="#000000" font-family="sans-serif" font-size="16.25" lengthAdjust="spacing" textLength="61.25" x="463.75" y="716.8689">works at</text><text fill="#000000" font-family="sans-serif" font-size="16.25" lengthAdjust="spacing" textLength="25" x="368.7005" y="627.2718">1..*</text><text fill="#000000" font-family="sans-serif" font-size="16.25" lengthAdjust="spacing" textLength="8.75" x="456.9401" y="753.7603">1</text><!--MD5=[e981d4f96c4342412d1e68160b30cf70]
link Test to TestType--><path codeLine="73" d="M267.8,883.0125 C307.3625,921.05 366.4625,977.875 410.1125,1019.8375 " fill="none" id="Test-TestType" style="stroke:#A80036;stroke-width:1.25;"/><polygon fill="#000000" points="379.5054,975.8014,373.9011,965.3171,368.8089,970.6135,379.5054,975.8014" style="stroke:#000000;stroke-width:1.25;"/><text fill="#000000" font-family="sans-serif" font-size="16.25" lengthAdjust="spacing" textLength="43.75" x="386.25" y="978.1189">is of a</text><text fill="#000000" font-family="sans-serif" font-size="16.25" lengthAdjust="spacing" textLength="8.75" x="277.5298" y="886.6046">1</text><text fill="#000000" font-family="sans-serif" font-size="16.25" lengthAdjust="spacing" textLength="8.75" x="391.9051" y="1006.6177">1</text><!--MD5=[0bde84c484199f8c429a86e32cc6847f]
link Client to LabOrder--><path codeLine="74" d="M314.9,382.85 C286.65,438.3625 253.3875,503.75 234.6875,540.5 " fill="none" id="Client-LabOrder" style="stroke:#A80036;stroke-width:1.25;"/><polygon fill="#000000" points="295.9158,437.0401,304.3172,428.6291,297.7687,425.2972,295.9158,437.0401" style="stroke:#000000;stroke-width:1.25;"/><text fill="#000000" font-family="sans-serif" font-size="16.25" lengthAdjust="spacing" textLength="26.25" x="310" y="438.1189">has</text><text fill="#000000" font-family="sans-serif" font-size="16.25" lengthAdjust="spacing" textLength="8.75" x="301.6388" y="408.8399">1</text><text fill="#000000" font-family="sans-serif" font-size="16.25" lengthAdjust="spacing" textLength="8.75" x="228.5801" y="527.1432">1</text><!--MD5=[84a279e28ad6c3248737114c29c49c27]
link LabOrder to Test--><path codeLine="75" d="M207.1875,600.875 C195.5,630.825 180.9625,679.025 187.5,721.25 C189.4,733.475 192.325,746.175 195.7375,758.5 " fill="none" id="LabOrder-Test" style="stroke:#A80036;stroke-width:1.25;"/><polygon fill="#000000" points="193.2972,716.4533,197.7803,705.4428,190.4523,704.9105,193.2972,716.4533" style="stroke:#000000;stroke-width:1.25;"/><text fill="#000000" font-family="sans-serif" font-size="16.25" lengthAdjust="spacing" textLength="66.25" x="205" y="716.8689">conducts</text><text fill="#000000" font-family="sans-serif" font-size="16.25" lengthAdjust="spacing" textLength="8.75" x="194.248" y="627.6084">1</text><text fill="#000000" font-family="sans-serif" font-size="16.25" lengthAdjust="spacing" textLength="8.75" x="183.3084" y="745.3157">1</text><!--MD5=[30617779416bf69d034a33c38c733dd5]
link Test to apoint3195--><path d="M184.8125,922.75 C180.25,934.975 176.3125,947.6375 173.75,960 C164.325,1005.375 175.0625,1062.9625 177.1625,1073.35 " fill="none" id="Test-apoint3195" style="stroke:#A80036;stroke-width:1.25;"/><polygon fill="#000000" points="179.6829,977.7117,183.9254,966.6063,176.5876,966.2335,179.6829,977.7117" style="stroke:#000000;stroke-width:1.25;"/><text fill="#000000" font-family="sans-serif" font-size="16.25" lengthAdjust="spacing" textLength="145" x="191.25" y="978.1189">requests analysis of</text><text fill="#000000" font-family="sans-serif" font-size="16.25" lengthAdjust="spacing" textLength="6.25" x="174.0959" y="949.1409">*</text><!--MD5=[312c28da842752782d703c96ab71b164]
link apoint3195 to Parameter--><path d="M178.05,1078.875 C180.5375,1085.1375 191.1375,1111.5125 201.25,1132.5 C213.4625,1157.8625 227.9625,1185.425 240.6,1208.7125 " fill="none" id="apoint3195-Parameter" style="stroke:#A80036;stroke-width:1.25;"/><text fill="#000000" font-family="sans-serif" font-size="16.25" lengthAdjust="spacing" textLength="25" x="208.723" y="1195.1009">1..*</text><!--MD5=[bc7918f8845759956a02f640ddab9ee8]
link apoint3195 to TestParameter--><path d="M180.25,1076.25 C194.75,1076.25 209.2375,1076.25 223.7375,1076.25 " fill="none" id="apoint3195-TestParameter" style="stroke:#A80036;stroke-width:1.25;stroke-dasharray:7.0,7.0;"/><!--MD5=[6df8849671cb880f6936e94aa30db6f9]
link Parameter to ParameterCategory--><path codeLine="78" d="M274.3875,1321.5 C277.15,1341.1375 282.175,1362.9 291.25,1381.25 C297.8375,1394.5625 307.2125,1407.275 317.1875,1418.575 " fill="none" id="Parameter-ParameterCategory" style="stroke:#A80036;stroke-width:1.25;"/><polygon fill="#000000" points="300.0214,1375.9386,298.8216,1364.1111,292.0987,1367.0751,300.0214,1375.9386" style="stroke:#000000;stroke-width:1.25;"/><text fill="#000000" font-family="sans-serif" font-size="16.25" lengthAdjust="spacing" textLength="116.25" x="308.75" y="1376.8689">presented under</text><text fill="#000000" font-family="sans-serif" font-size="16.25" lengthAdjust="spacing" textLength="6.25" x="268.1392" y="1347.3757">*</text><text fill="#000000" font-family="sans-serif" font-size="16.25" lengthAdjust="spacing" textLength="8.75" x="298.4736" y="1405.2462">1</text><!--MD5=[8aaf0efd5e2f3824be7ea3e488dcc283]
link TestType to ParameterCategory--><path codeLine="79" d="M469.325,1132.8125 C469.5125,1195.3375 464.05,1299.125 431.25,1381.25 C426.075,1394.225 418.35,1406.975 410.0875,1418.45 " fill="none" id="TestType-ParameterCategory" style="stroke:#A80036;stroke-width:1.25;"/><polygon fill="#000000" points="472.4808,1271.3395,478.3739,1261.0147,471.1797,1259.5227,472.4808,1271.3395" style="stroke:#000000;stroke-width:1.25;"/><text fill="#000000" font-family="sans-serif" font-size="16.25" lengthAdjust="spacing" textLength="62.5" x="485" y="1271.8689">requests</text><text fill="#000000" font-family="sans-serif" font-size="16.25" lengthAdjust="spacing" textLength="8.75" x="460.2323" y="1158.6966">1</text><text fill="#000000" font-family="sans-serif" font-size="16.25" lengthAdjust="spacing" textLength="25" x="390.2242" y="1405.0989">1..*</text><!--MD5=[1d150a570d373ffcefb6bf5bf9e91e6e]
@startuml


class Company{
  designation
  }

class ClinicalAnalysisLaboratory{
address
phoneNumber
taxIdentificationNumber
name
laboratoryId
}

 class Test{
   code
   nhsCode
   createdAt
   sampleDate
   resultDate
   reportDate
}

class TestType{
  code
  description
  collectionMethod
}

class Parameter{
  code
  shortName
  description

}

class Employee{
name
phoneNumber
email
employeeID
socCode
organizationRole
address
}

class LabOrder{}

class Receptionist{}

class Client{
  name
  email
  taxIdentificationNumber
  citizenCardNumber
  nhsNumber
  birthDate
  gender
  phoneNumber
  }

class ParameterCategory{
  code
  name
}

Company "1" - - "1.*" ClinicalAnalysisLaboratory : owns >
ClinicalAnalysisLaboratory "1" - - "1.*" TestType : has >
Employee o- Receptionist
Company "1" - - "*" Client : has >
Receptionist "1" - - "*" Test : registers >
Receptionist "1..*" - - "1" ClinicalAnalysisLaboratory: works at >
Test "1" - - "1" TestType : is of a >
Client "1" - - "1" LabOrder: has >
LabOrder "1" - - "1" Test: conducts >
Test "*" - - "1..*" Parameter: requests analysis of >
(Test,Parameter) .. TestParameter
Parameter "*" - - "1" ParameterCategory: presented under >
TestType "1" - - "1..*" ParameterCategory: requests >


@enduml

PlantUML version 1.2021.00(Sun Jan 10 10:25:05 GMT 2021)
(GPL source distribution)
Java Runtime: OpenJDK Runtime Environment
JVM: OpenJDK 64-Bit Server VM
Default Encoding: Cp1252
Language: pt
Country: PT
--></g></svg>