<?xml version="1.0" encoding="UTF-8" standalone="no"?><svg xmlns="http://www.w3.org/2000/svg" xmlns:xlink="http://www.w3.org/1999/xlink" contentScriptType="application/ecmascript" contentStyleType="text/css" height="1193.75px" preserveAspectRatio="none" style="width:1278px;height:1193px;" version="1.1" viewBox="0 0 1278 1193" width="1278.75px" zoomAndPan="magnify"><defs><filter height="300%" id="f3n3j0azfxnv3" width="300%" x="-1" y="-1"><feGaussianBlur result="blurOut" stdDeviation="2.5"/><feColorMatrix in="blurOut" result="blurOut2" type="matrix" values="0 0 0 0 0 0 0 0 0 0 0 0 0 0 0 0 0 0 .4 0"/><feOffset dx="5.0" dy="5.0" in="blurOut2" result="blurOut3"/><feBlend in="SourceGraphic" in2="blurOut3" mode="normal"/></filter></defs><g><!--MD5=[6ba72ddf03822b91e8d41ca71de58ed3]
class TestTypeStore--><rect codeLine="2" fill="#FEFECE" filter="url(#f3n3j0azfxnv3)" height="129.1797" id="TestTypeStore" style="stroke:#A80036;stroke-width:1.875;" width="341.25" x="74.375" y="577.5"/><ellipse cx="190.3125" cy="597.5" fill="#ADD1B2" rx="13.75" ry="13.75" style="stroke:#A80036;stroke-width:1.25;"/><path d="M192.8125,593.125 Q193.0664,592.5 193.3594,592.1875 Q193.6523,591.875 193.9844,591.875 Q194.5703,591.875 194.9414,592.2266 Q195.3125,592.5781 195.3125,593.3984 L195.3125,595.3516 Q195.3125,596.1719 194.9609,596.5234 Q194.6094,596.875 194.0625,596.875 Q193.5742,596.875 193.2617,596.6602 Q192.9492,596.4453 192.8125,595.8789 Q192.7539,595.4883 192.5391,595.2734 Q192.1484,594.8633 191.4453,594.6289 Q190.7422,594.375 190.0391,594.375 Q189.1602,594.375 188.418,594.7266 Q187.6953,595.0781 187.1289,595.8594 Q186.5625,596.6406 186.5625,597.7148 L186.5625,598.8672 Q186.5625,600.1563 187.6172,601.0156 Q188.6719,601.875 190.5469,601.875 Q191.6602,601.875 192.4414,601.6211 Q192.8906,601.4844 193.3984,601.0352 Q193.7305,600.7813 193.9063,600.7031 Q194.082,600.625 194.2969,600.625 Q194.707,600.625 195,600.957 Q195.3125,601.2695 195.3125,601.7188 Q195.3125,602.1484 194.8828,602.6563 Q194.2578,603.3984 193.2617,603.8086 Q191.9531,604.375 190.3516,604.375 Q188.4766,604.375 186.9727,603.6328 Q185.7617,603.0469 184.9023,601.7773 Q184.0625,600.5078 184.0625,599.0039 L184.0625,597.6367 Q184.0625,596.0742 184.8047,594.707 Q185.5664,593.3398 186.875,592.6172 Q188.2031,591.875 189.6875,591.875 Q190.5859,591.875 191.3672,592.1875 Q192.1484,592.5 192.8125,593.125 Z " fill="#000000"/><text fill="#000000" font-family="sans-serif" font-size="15" lengthAdjust="spacing" textLength="98.75" x="215.9375" y="603.6377">TestTypeStore</text><line style="stroke:#A80036;stroke-width:1.875;" x1="75.625" x2="414.375" y1="617.5" y2="617.5"/><line style="stroke:#A80036;stroke-width:1.875;" x1="75.625" x2="414.375" y1="627.5" y2="627.5"/><ellipse cx="88.125" cy="641.25" fill="#84BE84" rx="3.75" ry="3.75" style="stroke:#038048;stroke-width:1.25;"/><text fill="#000000" font-family="sans-serif" font-size="13.75" lengthAdjust="spacing" textLength="308.75" x="99.375" y="646.7737">createTestType(code,collectionMethod,description)</text><ellipse cx="88.125" cy="658.5449" fill="#84BE84" rx="3.75" ry="3.75" style="stroke:#038048;stroke-width:1.25;"/><text fill="#000000" font-family="sans-serif" font-size="13.75" lengthAdjust="spacing" textLength="165" x="99.375" y="664.0686">validateTestType(testType)</text><ellipse cx="88.125" cy="675.8398" fill="#84BE84" rx="3.75" ry="3.75" style="stroke:#038048;stroke-width:1.25;"/><text fill="#000000" font-family="sans-serif" font-size="13.75" lengthAdjust="spacing" textLength="148.75" x="99.375" y="681.3635">saveTestType(testType)</text><rect fill="#F24D5C" height="7.5" style="stroke:#C82930;stroke-width:1.25;" width="7.5" x="84.375" y="689.3848"/><text fill="#000000" font-family="sans-serif" font-size="13.75" lengthAdjust="spacing" textLength="141.25" x="99.375" y="698.6584">addTestType(testType)</text><!--MD5=[aeb3272166074d8737a70b61b1e71682]
class TestType--><rect codeLine="9" fill="#FEFECE" filter="url(#f3n3j0azfxnv3)" height="163.7695" id="TestType" style="stroke:#A80036;stroke-width:1.875;" width="302.5" x="131.25" y="803.75"/><ellipse cx="245.9375" cy="823.75" fill="#ADD1B2" rx="13.75" ry="13.75" style="stroke:#A80036;stroke-width:1.25;"/><path d="M248.4375,819.375 Q248.6914,818.75 248.9844,818.4375 Q249.2773,818.125 249.6094,818.125 Q250.1953,818.125 250.5664,818.4766 Q250.9375,818.8281 250.9375,819.6484 L250.9375,821.6016 Q250.9375,822.4219 250.5859,822.7734 Q250.2344,823.125 249.6875,823.125 Q249.1992,823.125 248.8867,822.9102 Q248.5742,822.6953 248.4375,822.1289 Q248.3789,821.7383 248.1641,821.5234 Q247.7734,821.1133 247.0703,820.8789 Q246.3672,820.625 245.6641,820.625 Q244.7852,820.625 244.043,820.9766 Q243.3203,821.3281 242.7539,822.1094 Q242.1875,822.8906 242.1875,823.9648 L242.1875,825.1172 Q242.1875,826.4063 243.2422,827.2656 Q244.2969,828.125 246.1719,828.125 Q247.2852,828.125 248.0664,827.8711 Q248.5156,827.7344 249.0234,827.2852 Q249.3555,827.0313 249.5313,826.9531 Q249.707,826.875 249.9219,826.875 Q250.332,826.875 250.625,827.207 Q250.9375,827.5195 250.9375,827.9688 Q250.9375,828.3984 250.5078,828.9063 Q249.8828,829.6484 248.8867,830.0586 Q247.5781,830.625 245.9766,830.625 Q244.1016,830.625 242.5977,829.8828 Q241.3867,829.2969 240.5273,828.0273 Q239.6875,826.7578 239.6875,825.2539 L239.6875,823.8867 Q239.6875,822.3242 240.4297,820.957 Q241.1914,819.5898 242.5,818.8672 Q243.8281,818.125 245.3125,818.125 Q246.2109,818.125 246.9922,818.4375 Q247.7734,818.75 248.4375,819.375 Z " fill="#000000"/><text fill="#000000" font-family="sans-serif" font-size="15" lengthAdjust="spacing" textLength="62.5" x="271.5625" y="829.8877">TestType</text><line style="stroke:#A80036;stroke-width:1.875;" x1="132.5" x2="432.5" y1="843.75" y2="843.75"/><rect fill="none" height="7.5" style="stroke:#C82930;stroke-width:1.25;" width="7.5" x="141.25" y="853.75"/><text fill="#000000" font-family="sans-serif" font-size="13.75" lengthAdjust="spacing" textLength="30" x="156.25" y="863.0237">code</text><rect fill="none" height="7.5" style="stroke:#C82930;stroke-width:1.25;" width="7.5" x="141.25" y="871.0449"/><text fill="#000000" font-family="sans-serif" font-size="13.75" lengthAdjust="spacing" textLength="66.25" x="156.25" y="880.3186">description</text><rect fill="none" height="7.5" style="stroke:#C82930;stroke-width:1.25;" width="7.5" x="141.25" y="888.3398"/><text fill="#000000" font-family="sans-serif" font-size="13.75" lengthAdjust="spacing" textLength="100" x="156.25" y="897.6135">collectionMethod</text><line style="stroke:#A80036;stroke-width:1.875;" x1="132.5" x2="432.5" y1="905.6348" y2="905.6348"/><ellipse cx="145" cy="919.3848" fill="#84BE84" rx="3.75" ry="3.75" style="stroke:#038048;stroke-width:1.25;"/><text fill="#000000" font-family="sans-serif" font-size="13.75" lengthAdjust="spacing" textLength="270" x="156.25" y="924.9084">TestType(code,collectionMethod,description)</text><ellipse cx="145" cy="936.6797" fill="#84BE84" rx="3.75" ry="3.75" style="stroke:#038048;stroke-width:1.25;"/><text fill="#000000" font-family="sans-serif" font-size="13.75" lengthAdjust="spacing" textLength="203.75" x="156.25" y="942.2034">validateParameterCategoryList(cl)</text><ellipse cx="145" cy="953.9746" fill="#84BE84" rx="3.75" ry="3.75" style="stroke:#038048;stroke-width:1.25;"/><text fill="#000000" font-family="sans-serif" font-size="13.75" lengthAdjust="spacing" textLength="251.25" x="156.25" y="959.4983">addParameterCategoryListToTestType(cl)</text><!--MD5=[ae4ce8b9e36cc829775f8966335bc94b]
class ParameterCategoryDto--><rect codeLine="17" fill="#FEFECE" filter="url(#f3n3j0azfxnv3)" height="111.8848" id="ParameterCategoryDto" style="stroke:#A80036;stroke-width:1.875;" width="245" x="1016.25" y="585.625"/><ellipse cx="1056.375" cy="605.625" fill="#ADD1B2" rx="13.75" ry="13.75" style="stroke:#A80036;stroke-width:1.25;"/><path d="M1058.875,601.25 Q1059.1289,600.625 1059.4219,600.3125 Q1059.7148,600 1060.0469,600 Q1060.6328,600 1061.0039,600.3516 Q1061.375,600.7031 1061.375,601.5234 L1061.375,603.4766 Q1061.375,604.2969 1061.0234,604.6484 Q1060.6719,605 1060.125,605 Q1059.6367,605 1059.3242,604.7852 Q1059.0117,604.5703 1058.875,604.0039 Q1058.8164,603.6133 1058.6016,603.3984 Q1058.2109,602.9883 1057.5078,602.7539 Q1056.8047,602.5 1056.1016,602.5 Q1055.2227,602.5 1054.4805,602.8516 Q1053.7578,603.2031 1053.1914,603.9844 Q1052.625,604.7656 1052.625,605.8398 L1052.625,606.9922 Q1052.625,608.2813 1053.6797,609.1406 Q1054.7344,610 1056.6094,610 Q1057.7227,610 1058.5039,609.7461 Q1058.9531,609.6094 1059.4609,609.1602 Q1059.793,608.9063 1059.9688,608.8281 Q1060.1445,608.75 1060.3594,608.75 Q1060.7695,608.75 1061.0625,609.082 Q1061.375,609.3945 1061.375,609.8438 Q1061.375,610.2734 1060.9453,610.7813 Q1060.3203,611.5234 1059.3242,611.9336 Q1058.0156,612.5 1056.4141,612.5 Q1054.5391,612.5 1053.0352,611.7578 Q1051.8242,611.1719 1050.9648,609.9023 Q1050.125,608.6328 1050.125,607.1289 L1050.125,605.7617 Q1050.125,604.1992 1050.8672,602.832 Q1051.6289,601.4648 1052.9375,600.7422 Q1054.2656,600 1055.75,600 Q1056.6484,600 1057.4297,600.3125 Q1058.2109,600.625 1058.875,601.25 Z " fill="#000000"/><text fill="#000000" font-family="sans-serif" font-size="15" lengthAdjust="spacing" textLength="157.5" x="1078.625" y="611.7627">ParameterCategoryDto</text><line style="stroke:#A80036;stroke-width:1.875;" x1="1017.5" x2="1260" y1="625.625" y2="625.625"/><rect fill="none" height="7.5" style="stroke:#C82930;stroke-width:1.25;" width="7.5" x="1026.25" y="635.625"/><text fill="#000000" font-family="sans-serif" font-size="13.75" lengthAdjust="spacing" textLength="30" x="1041.25" y="644.8987">code</text><rect fill="none" height="7.5" style="stroke:#C82930;stroke-width:1.25;" width="7.5" x="1026.25" y="652.9199"/><text fill="#000000" font-family="sans-serif" font-size="13.75" lengthAdjust="spacing" textLength="32.5" x="1041.25" y="662.1936">name</text><line style="stroke:#A80036;stroke-width:1.875;" x1="1017.5" x2="1260" y1="670.2148" y2="670.2148"/><ellipse cx="1030" cy="683.9648" fill="#84BE84" rx="3.75" ry="3.75" style="stroke:#038048;stroke-width:1.25;"/><text fill="#000000" font-family="sans-serif" font-size="13.75" lengthAdjust="spacing" textLength="212.5" x="1041.25" y="689.4885">ParameterCategoryDto(code,name)</text><!--MD5=[fab6cba0d8a30102bb3e071a5ce00b91]
class ParameterCategoryMapper--><rect codeLine="22" fill="#FEFECE" filter="url(#f3n3j0azfxnv3)" height="94.5898" id="ParameterCategoryMapper" style="stroke:#A80036;stroke-width:1.875;" width="225" x="847.5" y="376.25"/><ellipse cx="866.25" cy="396.25" fill="#ADD1B2" rx="13.75" ry="13.75" style="stroke:#A80036;stroke-width:1.25;"/><path d="M868.75,391.875 Q869.0039,391.25 869.2969,390.9375 Q869.5898,390.625 869.9219,390.625 Q870.5078,390.625 870.8789,390.9766 Q871.25,391.3281 871.25,392.1484 L871.25,394.1016 Q871.25,394.9219 870.8984,395.2734 Q870.5469,395.625 870,395.625 Q869.5117,395.625 869.1992,395.4102 Q868.8867,395.1953 868.75,394.6289 Q868.6914,394.2383 868.4766,394.0234 Q868.0859,393.6133 867.3828,393.3789 Q866.6797,393.125 865.9766,393.125 Q865.0977,393.125 864.3555,393.4766 Q863.6328,393.8281 863.0664,394.6094 Q862.5,395.3906 862.5,396.4648 L862.5,397.6172 Q862.5,398.9063 863.5547,399.7656 Q864.6094,400.625 866.4844,400.625 Q867.5977,400.625 868.3789,400.3711 Q868.8281,400.2344 869.3359,399.7852 Q869.668,399.5313 869.8438,399.4531 Q870.0195,399.375 870.2344,399.375 Q870.6445,399.375 870.9375,399.707 Q871.25,400.0195 871.25,400.4688 Q871.25,400.8984 870.8203,401.4063 Q870.1953,402.1484 869.1992,402.5586 Q867.8906,403.125 866.2891,403.125 Q864.4141,403.125 862.9102,402.3828 Q861.6992,401.7969 860.8398,400.5273 Q860,399.2578 860,397.7539 L860,396.3867 Q860,394.8242 860.7422,393.457 Q861.5039,392.0898 862.8125,391.3672 Q864.1406,390.625 865.625,390.625 Q866.5234,390.625 867.3047,390.9375 Q868.0859,391.25 868.75,391.875 Z " fill="#000000"/><text fill="#000000" font-family="sans-serif" font-size="15" lengthAdjust="spacing" textLength="185" x="883.75" y="402.3877">ParameterCategoryMapper</text><line style="stroke:#A80036;stroke-width:1.875;" x1="848.75" x2="1071.25" y1="416.25" y2="416.25"/><line style="stroke:#A80036;stroke-width:1.875;" x1="848.75" x2="1071.25" y1="426.25" y2="426.25"/><ellipse cx="861.25" cy="440" fill="#84BE84" rx="3.75" ry="3.75" style="stroke:#038048;stroke-width:1.25;"/><text fill="#000000" font-family="sans-serif" font-size="13.75" lengthAdjust="spacing" textLength="56.25" x="872.5" y="445.5237">toDto(pc)</text><ellipse cx="861.25" cy="457.2949" fill="#84BE84" rx="3.75" ry="3.75" style="stroke:#038048;stroke-width:1.25;"/><text fill="#000000" font-family="sans-serif" font-size="13.75" lengthAdjust="spacing" textLength="88.75" x="872.5" y="462.8186">toDto(pcStore)</text><!--MD5=[2c845ebea24388d268f5a9acbeca4fd9]
class CreateTestTypeController--><rect codeLine="27" fill="#FEFECE" filter="url(#f3n3j0azfxnv3)" height="146.4746" id="CreateTestTypeController" style="stroke:#A80036;stroke-width:1.875;" width="341.25" x="373.125" y="145"/><ellipse cx="450.3125" cy="165" fill="#ADD1B2" rx="13.75" ry="13.75" style="stroke:#A80036;stroke-width:1.25;"/><path d="M452.8125,160.625 Q453.0664,160 453.3594,159.6875 Q453.6523,159.375 453.9844,159.375 Q454.5703,159.375 454.9414,159.7266 Q455.3125,160.0781 455.3125,160.8984 L455.3125,162.8516 Q455.3125,163.6719 454.9609,164.0234 Q454.6094,164.375 454.0625,164.375 Q453.5742,164.375 453.2617,164.1602 Q452.9492,163.9453 452.8125,163.3789 Q452.7539,162.9883 452.5391,162.7734 Q452.1484,162.3633 451.4453,162.1289 Q450.7422,161.875 450.0391,161.875 Q449.1602,161.875 448.418,162.2266 Q447.6953,162.5781 447.1289,163.3594 Q446.5625,164.1406 446.5625,165.2148 L446.5625,166.3672 Q446.5625,167.6563 447.6172,168.5156 Q448.6719,169.375 450.5469,169.375 Q451.6602,169.375 452.4414,169.1211 Q452.8906,168.9844 453.3984,168.5352 Q453.7305,168.2813 453.9063,168.2031 Q454.082,168.125 454.2969,168.125 Q454.707,168.125 455,168.457 Q455.3125,168.7695 455.3125,169.2188 Q455.3125,169.6484 454.8828,170.1563 Q454.2578,170.8984 453.2617,171.3086 Q451.9531,171.875 450.3516,171.875 Q448.4766,171.875 446.9727,171.1328 Q445.7617,170.5469 444.9023,169.2773 Q444.0625,168.0078 444.0625,166.5039 L444.0625,165.1367 Q444.0625,163.5742 444.8047,162.207 Q445.5664,160.8398 446.875,160.1172 Q448.2031,159.375 449.6875,159.375 Q450.5859,159.375 451.3672,159.6875 Q452.1484,160 452.8125,160.625 Z " fill="#000000"/><text fill="#000000" font-family="sans-serif" font-size="15" lengthAdjust="spacing" textLength="176.25" x="475.9375" y="171.1377">CreateTestTypeController</text><line style="stroke:#A80036;stroke-width:1.875;" x1="374.375" x2="713.125" y1="185" y2="185"/><line style="stroke:#A80036;stroke-width:1.875;" x1="374.375" x2="713.125" y1="195" y2="195"/><ellipse cx="386.875" cy="208.75" fill="#84BE84" rx="3.75" ry="3.75" style="stroke:#038048;stroke-width:1.25;"/><text fill="#000000" font-family="sans-serif" font-size="13.75" lengthAdjust="spacing" textLength="308.75" x="398.125" y="214.2737">createTestType(code,collectionMethod,description)</text><ellipse cx="386.875" cy="226.0449" fill="#84BE84" rx="3.75" ry="3.75" style="stroke:#038048;stroke-width:1.25;"/><text fill="#000000" font-family="sans-serif" font-size="13.75" lengthAdjust="spacing" textLength="96.25" x="398.125" y="231.5686">saveTestType()</text><ellipse cx="386.875" cy="243.3398" fill="#84BE84" rx="3.75" ry="3.75" style="stroke:#038048;stroke-width:1.25;"/><text fill="#000000" font-family="sans-serif" font-size="13.75" lengthAdjust="spacing" textLength="186.25" x="398.125" y="248.8635">saveParameterCategory(code)</text><ellipse cx="386.875" cy="260.6348" fill="#84BE84" rx="3.75" ry="3.75" style="stroke:#038048;stroke-width:1.25;"/><text fill="#000000" font-family="sans-serif" font-size="13.75" lengthAdjust="spacing" textLength="166.25" x="398.125" y="266.1584">getListParameterCategory()</text><ellipse cx="386.875" cy="277.9297" fill="#84BE84" rx="3.75" ry="3.75" style="stroke:#038048;stroke-width:1.25;"/><text fill="#000000" font-family="sans-serif" font-size="13.75" lengthAdjust="spacing" textLength="197.5" x="398.125" y="283.4534">getParameterCategoryStoreDto()</text><!--MD5=[d802db621b5b215a6f0466f93cefcb42]
class ParameterCategoryStore--><rect codeLine="34" fill="#FEFECE" filter="url(#f3n3j0azfxnv3)" height="77.2949" id="ParameterCategoryStore" style="stroke:#A80036;stroke-width:1.875;" width="255" x="548.75" y="385"/><ellipse cx="587.75" cy="405" fill="#ADD1B2" rx="13.75" ry="13.75" style="stroke:#A80036;stroke-width:1.25;"/><path d="M590.25,400.625 Q590.5039,400 590.7969,399.6875 Q591.0898,399.375 591.4219,399.375 Q592.0078,399.375 592.3789,399.7266 Q592.75,400.0781 592.75,400.8984 L592.75,402.8516 Q592.75,403.6719 592.3984,404.0234 Q592.0469,404.375 591.5,404.375 Q591.0117,404.375 590.6992,404.1602 Q590.3867,403.9453 590.25,403.3789 Q590.1914,402.9883 589.9766,402.7734 Q589.5859,402.3633 588.8828,402.1289 Q588.1797,401.875 587.4766,401.875 Q586.5977,401.875 585.8555,402.2266 Q585.1328,402.5781 584.5664,403.3594 Q584,404.1406 584,405.2148 L584,406.3672 Q584,407.6563 585.0547,408.5156 Q586.1094,409.375 587.9844,409.375 Q589.0977,409.375 589.8789,409.1211 Q590.3281,408.9844 590.8359,408.5352 Q591.168,408.2813 591.3438,408.2031 Q591.5195,408.125 591.7344,408.125 Q592.1445,408.125 592.4375,408.457 Q592.75,408.7695 592.75,409.2188 Q592.75,409.6484 592.3203,410.1563 Q591.6953,410.8984 590.6992,411.3086 Q589.3906,411.875 587.7891,411.875 Q585.9141,411.875 584.4102,411.1328 Q583.1992,410.5469 582.3398,409.2773 Q581.5,408.0078 581.5,406.5039 L581.5,405.1367 Q581.5,403.5742 582.2422,402.207 Q583.0039,400.8398 584.3125,400.1172 Q585.6406,399.375 587.125,399.375 Q588.0234,399.375 588.8047,399.6875 Q589.5859,400 590.25,400.625 Z " fill="#000000"/><text fill="#000000" font-family="sans-serif" font-size="15" lengthAdjust="spacing" textLength="170" x="609.75" y="411.1377">ParameterCategoryStore</text><line style="stroke:#A80036;stroke-width:1.875;" x1="550" x2="802.5" y1="425" y2="425"/><line style="stroke:#A80036;stroke-width:1.875;" x1="550" x2="802.5" y1="435" y2="435"/><ellipse cx="562.5" cy="448.75" fill="#84BE84" rx="3.75" ry="3.75" style="stroke:#038048;stroke-width:1.25;"/><text fill="#000000" font-family="sans-serif" font-size="13.75" lengthAdjust="spacing" textLength="222.5" x="573.75" y="454.2737">getParameterCategoryByCode(code)</text><!--MD5=[bebdcc43ebcb1534ee764d1f430c03ae]
class CreateTestTypeUI--><rect codeLine="37" fill="#FEFECE" filter="url(#f3n3j0azfxnv3)" height="60" id="CreateTestTypeUI" style="stroke:#A80036;stroke-width:1.875;" width="163.75" x="834.375" y="8.75"/><ellipse cx="853.125" cy="28.75" fill="#ADD1B2" rx="13.75" ry="13.75" style="stroke:#A80036;stroke-width:1.25;"/><path d="M855.625,24.375 Q855.8789,23.75 856.1719,23.4375 Q856.4648,23.125 856.7969,23.125 Q857.3828,23.125 857.7539,23.4766 Q858.125,23.8281 858.125,24.6484 L858.125,26.6016 Q858.125,27.4219 857.7734,27.7734 Q857.4219,28.125 856.875,28.125 Q856.3867,28.125 856.0742,27.9102 Q855.7617,27.6953 855.625,27.1289 Q855.5664,26.7383 855.3516,26.5234 Q854.9609,26.1133 854.2578,25.8789 Q853.5547,25.625 852.8516,25.625 Q851.9727,25.625 851.2305,25.9766 Q850.5078,26.3281 849.9414,27.1094 Q849.375,27.8906 849.375,28.9648 L849.375,30.1172 Q849.375,31.4063 850.4297,32.2656 Q851.4844,33.125 853.3594,33.125 Q854.4727,33.125 855.2539,32.8711 Q855.7031,32.7344 856.2109,32.2852 Q856.543,32.0313 856.7188,31.9531 Q856.8945,31.875 857.1094,31.875 Q857.5195,31.875 857.8125,32.207 Q858.125,32.5195 858.125,32.9688 Q858.125,33.3984 857.6953,33.9063 Q857.0703,34.6484 856.0742,35.0586 Q854.7656,35.625 853.1641,35.625 Q851.2891,35.625 849.7852,34.8828 Q848.5742,34.2969 847.7148,33.0273 Q846.875,31.7578 846.875,30.2539 L846.875,28.8867 Q846.875,27.3242 847.6172,25.957 Q848.3789,24.5898 849.6875,23.8672 Q851.0156,23.125 852.5,23.125 Q853.3984,23.125 854.1797,23.4375 Q854.9609,23.75 855.625,24.375 Z " fill="#000000"/><text fill="#000000" font-family="sans-serif" font-size="15" lengthAdjust="spacing" textLength="123.75" x="870.625" y="34.8877">CreateTestTypeUI</text><line style="stroke:#A80036;stroke-width:1.875;" x1="835.625" x2="996.875" y1="48.75" y2="48.75"/><line style="stroke:#A80036;stroke-width:1.875;" x1="835.625" x2="996.875" y1="58.75" y2="58.75"/><!--MD5=[02e4b9b7573f1156f41e60aa5b4e25a4]
class Company--><rect codeLine="39" fill="#FEFECE" filter="url(#f3n3j0azfxnv3)" height="111.8848" id="Company" style="stroke:#A80036;stroke-width:1.875;" width="210" x="117.5" y="367.5"/><ellipse cx="184.0625" cy="387.5" fill="#ADD1B2" rx="13.75" ry="13.75" style="stroke:#A80036;stroke-width:1.25;"/><path d="M186.5625,383.125 Q186.8164,382.5 187.1094,382.1875 Q187.4023,381.875 187.7344,381.875 Q188.3203,381.875 188.6914,382.2266 Q189.0625,382.5781 189.0625,383.3984 L189.0625,385.3516 Q189.0625,386.1719 188.7109,386.5234 Q188.3594,386.875 187.8125,386.875 Q187.3242,386.875 187.0117,386.6602 Q186.6992,386.4453 186.5625,385.8789 Q186.5039,385.4883 186.2891,385.2734 Q185.8984,384.8633 185.1953,384.6289 Q184.4922,384.375 183.7891,384.375 Q182.9102,384.375 182.168,384.7266 Q181.4453,385.0781 180.8789,385.8594 Q180.3125,386.6406 180.3125,387.7148 L180.3125,388.8672 Q180.3125,390.1563 181.3672,391.0156 Q182.4219,391.875 184.2969,391.875 Q185.4102,391.875 186.1914,391.6211 Q186.6406,391.4844 187.1484,391.0352 Q187.4805,390.7813 187.6563,390.7031 Q187.832,390.625 188.0469,390.625 Q188.457,390.625 188.75,390.957 Q189.0625,391.2695 189.0625,391.7188 Q189.0625,392.1484 188.6328,392.6563 Q188.0078,393.3984 187.0117,393.8086 Q185.7031,394.375 184.1016,394.375 Q182.2266,394.375 180.7227,393.6328 Q179.5117,393.0469 178.6523,391.7773 Q177.8125,390.5078 177.8125,389.0039 L177.8125,387.6367 Q177.8125,386.0742 178.5547,384.707 Q179.3164,383.3398 180.625,382.6172 Q181.9531,381.875 183.4375,381.875 Q184.3359,381.875 185.1172,382.1875 Q185.8984,382.5 186.5625,383.125 Z " fill="#000000"/><text fill="#000000" font-family="sans-serif" font-size="15" lengthAdjust="spacing" textLength="66.25" x="209.6875" y="393.6377">Company</text><line style="stroke:#A80036;stroke-width:1.875;" x1="118.75" x2="326.25" y1="407.5" y2="407.5"/><rect fill="none" height="7.5" style="stroke:#C82930;stroke-width:1.25;" width="7.5" x="127.5" y="417.5"/><text fill="#000000" font-family="sans-serif" font-size="13.75" lengthAdjust="spacing" textLength="68.75" x="142.5" y="426.7737">designation</text><line style="stroke:#A80036;stroke-width:1.875;" x1="118.75" x2="326.25" y1="434.7949" y2="434.7949"/><ellipse cx="131.25" cy="448.5449" fill="#84BE84" rx="3.75" ry="3.75" style="stroke:#038048;stroke-width:1.25;"/><text fill="#000000" font-family="sans-serif" font-size="13.75" lengthAdjust="spacing" textLength="117.5" x="142.5" y="454.0686">getTestTypeStore()</text><ellipse cx="131.25" cy="465.8398" fill="#84BE84" rx="3.75" ry="3.75" style="stroke:#038048;stroke-width:1.25;"/><text fill="#000000" font-family="sans-serif" font-size="13.75" lengthAdjust="spacing" textLength="177.5" x="142.5" y="471.3635">getParameterCategoryStore()</text><!--MD5=[36afb6bbd95a8ac778c4537c55a683d5]
class ParameterCategory--><rect codeLine="44" fill="#FEFECE" filter="url(#f3n3j0azfxnv3)" height="94.5898" id="ParameterCategory" style="stroke:#A80036;stroke-width:1.875;" width="173.75" x="589.375" y="1073.75"/><ellipse cx="608.125" cy="1093.75" fill="#ADD1B2" rx="13.75" ry="13.75" style="stroke:#A80036;stroke-width:1.25;"/><path d="M610.625,1089.375 Q610.8789,1088.75 611.1719,1088.4375 Q611.4648,1088.125 611.7969,1088.125 Q612.3828,1088.125 612.7539,1088.4766 Q613.125,1088.8281 613.125,1089.6484 L613.125,1091.6016 Q613.125,1092.4219 612.7734,1092.7734 Q612.4219,1093.125 611.875,1093.125 Q611.3867,1093.125 611.0742,1092.9102 Q610.7617,1092.6953 610.625,1092.1289 Q610.5664,1091.7383 610.3516,1091.5234 Q609.9609,1091.1133 609.2578,1090.8789 Q608.5547,1090.625 607.8516,1090.625 Q606.9727,1090.625 606.2305,1090.9766 Q605.5078,1091.3281 604.9414,1092.1094 Q604.375,1092.8906 604.375,1093.9648 L604.375,1095.1172 Q604.375,1096.4063 605.4297,1097.2656 Q606.4844,1098.125 608.3594,1098.125 Q609.4727,1098.125 610.2539,1097.8711 Q610.7031,1097.7344 611.2109,1097.2852 Q611.543,1097.0313 611.7188,1096.9531 Q611.8945,1096.875 612.1094,1096.875 Q612.5195,1096.875 612.8125,1097.207 Q613.125,1097.5195 613.125,1097.9688 Q613.125,1098.3984 612.6953,1098.9063 Q612.0703,1099.6484 611.0742,1100.0586 Q609.7656,1100.625 608.1641,1100.625 Q606.2891,1100.625 604.7852,1099.8828 Q603.5742,1099.2969 602.7148,1098.0273 Q601.875,1096.7578 601.875,1095.2539 L601.875,1093.8867 Q601.875,1092.3242 602.6172,1090.957 Q603.3789,1089.5898 604.6875,1088.8672 Q606.0156,1088.125 607.5,1088.125 Q608.3984,1088.125 609.1797,1088.4375 Q609.9609,1088.75 610.625,1089.375 Z " fill="#000000"/><text fill="#000000" font-family="sans-serif" font-size="15" lengthAdjust="spacing" textLength="133.75" x="625.625" y="1099.8877">ParameterCategory</text><line style="stroke:#A80036;stroke-width:1.875;" x1="590.625" x2="761.875" y1="1113.75" y2="1113.75"/><rect fill="none" height="7.5" style="stroke:#C82930;stroke-width:1.25;" width="7.5" x="599.375" y="1123.75"/><text fill="#000000" font-family="sans-serif" font-size="13.75" lengthAdjust="spacing" textLength="30" x="614.375" y="1133.0237">code</text><rect fill="none" height="7.5" style="stroke:#C82930;stroke-width:1.25;" width="7.5" x="599.375" y="1141.0449"/><text fill="#000000" font-family="sans-serif" font-size="13.75" lengthAdjust="spacing" textLength="32.5" x="614.375" y="1150.3186">name</text><line style="stroke:#A80036;stroke-width:1.875;" x1="590.625" x2="761.875" y1="1158.3398" y2="1158.3398"/><!--MD5=[a9e46643f228e387e5782435a7a53d91]
class ParameterCategoryList--><rect codeLine="48" fill="#FEFECE" filter="url(#f3n3j0azfxnv3)" height="111.8848" id="ParameterCategoryList" style="stroke:#A80036;stroke-width:1.875;" width="220" x="172.5" y="1065"/><ellipse cx="200.8125" cy="1085" fill="#ADD1B2" rx="13.75" ry="13.75" style="stroke:#A80036;stroke-width:1.25;"/><path d="M203.3125,1080.625 Q203.5664,1080 203.8594,1079.6875 Q204.1523,1079.375 204.4844,1079.375 Q205.0703,1079.375 205.4414,1079.7266 Q205.8125,1080.0781 205.8125,1080.8984 L205.8125,1082.8516 Q205.8125,1083.6719 205.4609,1084.0234 Q205.1094,1084.375 204.5625,1084.375 Q204.0742,1084.375 203.7617,1084.1602 Q203.4492,1083.9453 203.3125,1083.3789 Q203.2539,1082.9883 203.0391,1082.7734 Q202.6484,1082.3633 201.9453,1082.1289 Q201.2422,1081.875 200.5391,1081.875 Q199.6602,1081.875 198.918,1082.2266 Q198.1953,1082.5781 197.6289,1083.3594 Q197.0625,1084.1406 197.0625,1085.2148 L197.0625,1086.3672 Q197.0625,1087.6563 198.1172,1088.5156 Q199.1719,1089.375 201.0469,1089.375 Q202.1602,1089.375 202.9414,1089.1211 Q203.3906,1088.9844 203.8984,1088.5352 Q204.2305,1088.2813 204.4063,1088.2031 Q204.582,1088.125 204.7969,1088.125 Q205.207,1088.125 205.5,1088.457 Q205.8125,1088.7695 205.8125,1089.2188 Q205.8125,1089.6484 205.3828,1090.1563 Q204.7578,1090.8984 203.7617,1091.3086 Q202.4531,1091.875 200.8516,1091.875 Q198.9766,1091.875 197.4727,1091.1328 Q196.2617,1090.5469 195.4023,1089.2773 Q194.5625,1088.0078 194.5625,1086.5039 L194.5625,1085.1367 Q194.5625,1083.5742 195.3047,1082.207 Q196.0664,1080.8398 197.375,1080.1172 Q198.7031,1079.375 200.1875,1079.375 Q201.0859,1079.375 201.8672,1079.6875 Q202.6484,1080 203.3125,1080.625 Z " fill="#000000"/><text fill="#000000" font-family="sans-serif" font-size="15" lengthAdjust="spacing" textLength="158.75" x="220.4375" y="1091.1377">ParameterCategoryList</text><line style="stroke:#A80036;stroke-width:1.875;" x1="173.75" x2="391.25" y1="1105" y2="1105"/><line style="stroke:#A80036;stroke-width:1.875;" x1="173.75" x2="391.25" y1="1115" y2="1115"/><ellipse cx="186.25" cy="1128.75" fill="#84BE84" rx="3.75" ry="3.75" style="stroke:#038048;stroke-width:1.25;"/><text fill="#000000" font-family="sans-serif" font-size="13.75" lengthAdjust="spacing" textLength="147.5" x="197.5" y="1134.2737">ParameterCategoryList()</text><ellipse cx="186.25" cy="1146.0449" fill="#84BE84" rx="3.75" ry="3.75" style="stroke:#038048;stroke-width:1.25;"/><text fill="#000000" font-family="sans-serif" font-size="13.75" lengthAdjust="spacing" textLength="187.5" x="197.5" y="1151.5686">validateParameterCategory(pc)</text><rect fill="#F24D5C" height="7.5" style="stroke:#C82930;stroke-width:1.25;" width="7.5" x="182.5" y="1159.5898"/><text fill="#000000" font-family="sans-serif" font-size="13.75" lengthAdjust="spacing" textLength="163.75" x="197.5" y="1168.8635">addParameterCategory(pc)</text><!--MD5=[d826292dd1c3de1d289673c07e4766db]
link CreateTestTypeController to ParameterCategoryDto--><path codeLine="53" d="M714.65,244.6125 C856.95,269.2125 1044.2,311.1375 1095,367.5 C1146.65,424.8 1150.7,517.7375 1146.5625,579.025 " fill="none" id="CreateTestTypeController-to-ParameterCategoryDto" style="stroke:#A80036;stroke-width:1.25;stroke-dasharray:7.0,7.0;"/><polygon fill="#A80036" points="1146.075,585.6,1151.897,574.7526,1146.5393,579.3673,1141.9246,574.0096,1146.075,585.6" style="stroke:#A80036;stroke-width:1.25;"/><!--MD5=[f615245dec7c9eb6d64eb1284a82148a]
link CreateTestTypeController to ParameterCategoryMapper--><path codeLine="54" d="M691.0875,291.275 C746.7125,318.4125 808.6875,348.6625 859.1,373.2625 " fill="none" id="CreateTestTypeController-to-ParameterCategoryMapper" style="stroke:#A80036;stroke-width:1.25;stroke-dasharray:7.0,7.0;"/><polygon fill="#A80036" points="865.2,376.2375,857.2892,366.8045,859.5851,373.4924,852.8971,375.7883,865.2,376.2375" style="stroke:#A80036;stroke-width:1.25;"/><!--MD5=[58fac5310c1666a6e65c137533900c90]
link ParameterCategoryMapper to ParameterCategoryDto--><path codeLine="55" d="M998.35,471.2625 C1024.75,503.1 1060.075,545.725 1088.6875,580.2375 " fill="none" id="ParameterCategoryMapper-to-ParameterCategoryDto" style="stroke:#A80036;stroke-width:1.25;stroke-dasharray:7.0,7.0;"/><polygon fill="#A80036" points="1092.8625,585.275,1089.5275,573.4243,1088.8719,580.4649,1081.8313,579.8093,1092.8625,585.275" style="stroke:#A80036;stroke-width:1.25;"/><!--MD5=[69134a8957932d955e1f822b15ec4b1c]
link CreateTestTypeUI to CreateTestTypeController--><path codeLine="56" d="M855.575,68.8125 C813.6,88.7375 755.7125,116.225 701.1875,142.1125 " fill="none" id="CreateTestTypeUI-to-CreateTestTypeController" style="stroke:#A80036;stroke-width:1.25;stroke-dasharray:7.0,7.0;"/><polygon fill="#A80036" points="695.25,144.9375,707.5572,144.6302,700.8962,142.2574,703.269,135.5963,695.25,144.9375" style="stroke:#A80036;stroke-width:1.25;"/><!--MD5=[a0c08eca13bfc06260ed3890b790a8bb]
link CreateTestTypeUI to ParameterCategoryDto--><path codeLine="57" d="M943.9,68.825 C993.8875,122.725 1098.975,244.4875 1151.25,367.5 C1181.6125,438.95 1193.35,463.75 1178.75,540 C1176.2625,553.0125 1172.1125,566.4875 1167.4,579.175 " fill="none" id="CreateTestTypeUI-to-ParameterCategoryDto" style="stroke:#A80036;stroke-width:1.25;stroke-dasharray:7.0,7.0;"/><polygon fill="#A80036" points="1165.05,585.3375,1173.7374,576.6144,1167.2817,579.4995,1164.3966,573.0438,1165.05,585.3375" style="stroke:#A80036;stroke-width:1.25;"/><!--MD5=[812ef8251b528d1a64980212cceda9f5]
link CreateTestTypeController to Company--><path codeLine="58" d="M421.4625,291.4125 C401.2375,303.6875 380.5625,316.45 361.25,328.75 C343.8,339.8625 325.3375,352.0375 307.775,363.825 " fill="none" id="CreateTestTypeController-to-Company" style="stroke:#A80036;stroke-width:1.25;stroke-dasharray:7.0,7.0;"/><polygon fill="#A80036" points="302.35,367.475,314.4741,365.3373,307.5338,363.9835,308.8877,357.0432,302.35,367.475" style="stroke:#A80036;stroke-width:1.25;"/><!--MD5=[97f86ea091f10acfb6befc2251259947]
link CreateTestTypeController to TestTypeStore--><path codeLine="59" d="M479.9,291.2625 C469.625,303.55 459.325,316.3625 450,328.75 C433.0625,351.2625 344.5125,487.15 289.475,571.9625 " fill="none" id="CreateTestTypeController-to-TestTypeStore" style="stroke:#A80036;stroke-width:1.25;stroke-dasharray:7.0,7.0;"/><polygon fill="#A80036" points="285.9,577.475,296.2056,570.7403,289.2924,572.2258,287.8069,565.3125,285.9,577.475" style="stroke:#A80036;stroke-width:1.25;"/><!--MD5=[f4bf28669fe4ba1101395c8fda9b28f2]
link CreateTestTypeController to ParameterCategoryStore--><path codeLine="60" d="M590.8375,291.5625 C610,320.95 631.5125,353.9125 648.15,379.425 " fill="none" id="CreateTestTypeController-to-ParameterCategoryStore" style="stroke:#A80036;stroke-width:1.25;stroke-dasharray:7.0,7.0;"/><polygon fill="#A80036" points="651.625,384.75,649.641,372.5998,648.1994,379.5224,641.2768,378.0808,651.625,384.75" style="stroke:#A80036;stroke-width:1.25;"/><!--MD5=[19765d4468597c595e89fcbff5e25b10]
link ParameterCategoryMapper to ParameterCategory--><path codeLine="61" d="M940.9375,471.675 C890.0625,596.3125 751.25,936.3 697.7125,1067.4375 " fill="none" id="ParameterCategoryMapper-to-ParameterCategory" style="stroke:#A80036;stroke-width:1.25;stroke-dasharray:7.0,7.0;"/><polygon fill="#A80036" points="695.225,1073.525,704.1001,1064.9929,697.5831,1067.7369,694.8391,1061.22,695.225,1073.525" style="stroke:#A80036;stroke-width:1.25;"/><!--MD5=[141c3afa12b2b3c0a39ffce56dbd5f19]
link Company to TestTypeStore--><path codeLine="62" d="M228.3,480.525 C231.1625,508.025 234.6625,541.5 237.7,570.725 " fill="none" id="Company-to-TestTypeStore" style="stroke:#A80036;stroke-width:1.25;"/><polygon fill="#A80036" points="238.3875,577.275,242.2033,565.5702,237.7444,571.0582,232.2564,566.5992,238.3875,577.275" style="stroke:#A80036;stroke-width:1.25;"/><polygon fill="#000000" points="241.8978,535.1861,244.3798,523.5598,237.072,524.3214,241.8978,535.1861" style="stroke:#000000;stroke-width:1.25;"/><text fill="#000000" font-family="sans-serif" font-size="16.25" lengthAdjust="spacing" textLength="35" x="252.5" y="535.6189">uses</text><text fill="#000000" font-family="sans-serif" font-size="16.25" lengthAdjust="spacing" textLength="8.75" x="219.7415" y="506.4376">1</text><text fill="#000000" font-family="sans-serif" font-size="16.25" lengthAdjust="spacing" textLength="8.75" x="228.1611" y="564.1202">1</text><!--MD5=[d53d7490e5836ca5709858d7326f212b]
link Company to ParameterCategoryStore--><path codeLine="63" d="M327.7375,423.75 C391.525,423.75 473.525,423.75 541.95,423.75 " fill="none" id="Company-to-ParameterCategoryStore" style="stroke:#A80036;stroke-width:1.25;"/><polygon fill="#A80036" points="548.5375,423.75,537.2875,418.75,542.2875,423.75,537.2875,428.75,548.5375,423.75" style="stroke:#A80036;stroke-width:1.25;"/><polygon fill="#000000" points="423.75,408.9697,412.4436,405.2961,412.4436,412.6434,423.75,408.9697" style="stroke:#000000;stroke-width:1.25;"/><text fill="#000000" font-family="sans-serif" font-size="16.25" lengthAdjust="spacing" textLength="35" x="428.75" y="415.6189">uses</text><text fill="#000000" font-family="sans-serif" font-size="16.25" lengthAdjust="spacing" textLength="8.75" x="337.4999" y="419.7752">1</text><text fill="#000000" font-family="sans-serif" font-size="16.25" lengthAdjust="spacing" textLength="8.75" x="530.0873" y="419.9082">1</text><!--MD5=[3eebf0e5f359806b77b30e9524c37676]
link TestTypeStore to TestType--><path codeLine="64" d="M254.85,706.5125 C259.1625,734.275 264.3,767.3 268.9625,797.3125 " fill="none" id="TestTypeStore-to-TestType" style="stroke:#A80036;stroke-width:1.25;"/><polygon fill="#A80036" points="269.95,803.675,273.189,791.7976,269.0037,797.4971,263.3042,793.3118,269.95,803.675" style="stroke:#A80036;stroke-width:1.25;"/><polygon fill="#000000" points="270.9599,761.3956,272.8535,749.6592,265.5934,750.7876,270.9599,761.3956" style="stroke:#000000;stroke-width:1.25;"/><text fill="#000000" font-family="sans-serif" font-size="16.25" lengthAdjust="spacing" textLength="66.25" x="281.25" y="761.8689">conducts</text><text fill="#000000" font-family="sans-serif" font-size="16.25" lengthAdjust="spacing" textLength="8.75" x="246.8357" y="733.4115">1</text><text fill="#000000" font-family="sans-serif" font-size="16.25" lengthAdjust="spacing" textLength="6.25" x="261.8876" y="789.9365">*</text><!--MD5=[5a82a387146907254b130c6b1980ca8f]
link CreateTestTypeController to TestType--><path codeLine="65" d="M532.5125,291.6 C513.55,408.7 473.7125,634.1625 437.5,706.25 C420.8875,739.325 396.7125,771.2125 372.3875,798.6625 " fill="none" id="CreateTestTypeController-to-TestType" style="stroke:#A80036;stroke-width:1.25;stroke-dasharray:7.0,7.0;"/><polygon fill="#A80036" points="368.1625,803.375,379.3845,798.3124,372.3247,798.7126,371.9246,791.6528,368.1625,803.375" style="stroke:#A80036;stroke-width:1.25;"/><!--MD5=[d6274e3b73b5bc8f467c6cfbf5bf003e]
link ParameterCategoryStore to ParameterCategory--><path codeLine="66" d="M676.25,462.8625 C676.25,579.3 676.25,932.35 676.25,1067.025 " fill="none" id="ParameterCategoryStore-to-ParameterCategory" style="stroke:#A80036;stroke-width:1.25;"/><polygon fill="#A80036" points="676.25,1073.65,681.2821,1062.4143,676.2679,1067.4,671.2822,1062.3858,676.25,1073.65" style="stroke:#A80036;stroke-width:1.25;"/><polygon fill="#000000" points="682.5,761.4697,686.1737,750.1634,678.8263,750.1634,682.5,761.4697" style="stroke:#000000;stroke-width:1.25;"/><text fill="#000000" font-family="sans-serif" font-size="16.25" lengthAdjust="spacing" textLength="66.25" x="693.75" y="761.8689">conducts</text><text fill="#000000" font-family="sans-serif" font-size="16.25" lengthAdjust="spacing" textLength="8.75" x="666.666" y="489.1549">1</text><text fill="#000000" font-family="sans-serif" font-size="16.25" lengthAdjust="spacing" textLength="6.25" x="669.4434" y="1060.3346">*</text><!--MD5=[b8fa0769599297522896225aa5f18ecf]
link TestType to ParameterCategoryList--><path codeLine="67" d="M282.5,967.7625 C282.5,997.4625 282.5,1030.5875 282.5,1058.3375 " fill="none" id="TestType-to-ParameterCategoryList" style="stroke:#A80036;stroke-width:1.25;"/><polygon fill="#A80036" points="282.5,1064.9,287.5,1053.65,282.5,1058.65,277.5,1053.65,282.5,1064.9" style="stroke:#A80036;stroke-width:1.25;"/><polygon fill="#000000" points="288.75,1022.7197,292.4237,1011.4134,285.0763,1011.4134,288.75,1022.7197" style="stroke:#000000;stroke-width:1.25;"/><text fill="#000000" font-family="sans-serif" font-size="16.25" lengthAdjust="spacing" textLength="26.25" x="300" y="1023.1189">has</text><text fill="#000000" font-family="sans-serif" font-size="16.25" lengthAdjust="spacing" textLength="8.75" x="273.2988" y="994.1547">1</text><text fill="#000000" font-family="sans-serif" font-size="16.25" lengthAdjust="spacing" textLength="8.75" x="273.0527" y="1051.2784">1</text><!--MD5=[2b073b587168ccc479206ec46372bf9f]
link CreateTestTypeController to ParameterCategoryList--><path codeLine="68" d="M372.975,250.275 C215.9875,283.7 7.5,343.0375 7.5,422.5 C7.5,422.5 7.5,422.5 7.5,886.875 C7.5,975.325 91.3,1037.1625 166.3875,1074.8125 " fill="none" id="CreateTestTypeController-to-ParameterCategoryList" style="stroke:#A80036;stroke-width:1.25;stroke-dasharray:7.0,7.0;"/><polygon fill="#A80036" points="172.2375,1077.7125,164.3628,1068.2493,166.6331,1074.946,159.9364,1077.2163,172.2375,1077.7125" style="stroke:#A80036;stroke-width:1.25;"/><!--MD5=[b804e6bd9159ab26870074e1d93ea930]
link ParameterCategoryList to ParameterCategory--><path codeLine="69" d="M392.7,1121.25 C452.5125,1121.25 525.65,1121.25 582.6625,1121.25 " fill="none" id="ParameterCategoryList-to-ParameterCategory" style="stroke:#A80036;stroke-width:1.25;"/><polygon fill="#A80036" points="589.175,1121.25,577.925,1116.25,582.925,1121.25,577.925,1126.25,589.175,1121.25" style="stroke:#A80036;stroke-width:1.25;"/><polygon fill="#000000" points="445.3125,1106.4697,434.0061,1102.7961,434.0061,1110.1434,445.3125,1106.4697" style="stroke:#000000;stroke-width:1.25;"/><text fill="#000000" font-family="sans-serif" font-size="16.25" lengthAdjust="spacing" textLength="97.5" x="450.3125" y="1113.1189">composed by</text><text fill="#000000" font-family="sans-serif" font-size="16.25" lengthAdjust="spacing" textLength="8.75" x="402.5463" y="1117.3048">1</text><text fill="#000000" font-family="sans-serif" font-size="16.25" lengthAdjust="spacing" textLength="6.25" x="573.0594" y="1117.0716">*</text><!--MD5=[ff740d06af21649102926fd13c53eda3]
@startuml
'https://plantuml.com/class-diagram
class TestTypeStore{
+ createTestType(code,collectionMethod,description)
+ validateTestType(testType)
+ saveTestType(testType)
-addTestType(testType)

}
class TestType{
-code
-description
-collectionMethod
+ TestType(code,collectionMethod,description)
+ validateParameterCategoryList(cl)
+addParameterCategoryListToTestType(cl)
}
class ParameterCategoryDto{
-code
-name
+ParameterCategoryDto(code,name)
}
class ParameterCategoryMapper{
+ toDto(pc)
+ toDto(pcStore)
}

class CreateTestTypeController{
+ createTestType(code,collectionMethod,description)
+ saveTestType()
+ saveParameterCategory(code)
+ getListParameterCategory()
+ getParameterCategoryStoreDto()
}
class ParameterCategoryStore{
+getParameterCategoryByCode(code)
}
class CreateTestTypeUI{
}
class Company{
-designation
+ getTestTypeStore()
+ getParameterCategoryStore()
}
class ParameterCategory{
-code
-name
}
class ParameterCategoryList{
+ParameterCategoryList()
+validateParameterCategory(pc)
-addParameterCategory(pc)
}
CreateTestTypeController .> ParameterCategoryDto
CreateTestTypeController ..> ParameterCategoryMapper
ParameterCategoryMapper ..> ParameterCategoryDto
CreateTestTypeUI ..> CreateTestTypeController
CreateTestTypeUI .> ParameterCategoryDto
CreateTestTypeController ..> Company
CreateTestTypeController .> TestTypeStore
CreateTestTypeController .> ParameterCategoryStore
ParameterCategoryMapper ..> ParameterCategory
Company "1" - ->"1" TestTypeStore: uses >
Company "1" ->"1" ParameterCategoryStore: uses >
TestTypeStore"1" - ->"*" TestType: conducts >
CreateTestTypeController ..> TestType
ParameterCategoryStore "1" - -> "*" ParameterCategory :conducts >
TestType "1" - -> "1" ParameterCategoryList: has >
CreateTestTypeController ..> ParameterCategoryList
ParameterCategoryList "1" -> "*" ParameterCategory: composed by >
@enduml

@startuml
class TestTypeStore{
+ createTestType(code,collectionMethod,description)
+ validateTestType(testType)
+ saveTestType(testType)
-addTestType(testType)

}
class TestType{
-code
-description
-collectionMethod
+ TestType(code,collectionMethod,description)
+ validateParameterCategoryList(cl)
+addParameterCategoryListToTestType(cl)
}
class ParameterCategoryDto{
-code
-name
+ParameterCategoryDto(code,name)
}
class ParameterCategoryMapper{
+ toDto(pc)
+ toDto(pcStore)
}

class CreateTestTypeController{
+ createTestType(code,collectionMethod,description)
+ saveTestType()
+ saveParameterCategory(code)
+ getListParameterCategory()
+ getParameterCategoryStoreDto()
}
class ParameterCategoryStore{
+getParameterCategoryByCode(code)
}
class CreateTestTypeUI{
}
class Company{
-designation
+ getTestTypeStore()
+ getParameterCategoryStore()
}
class ParameterCategory{
-code
-name
}
class ParameterCategoryList{
+ParameterCategoryList()
+validateParameterCategory(pc)
-addParameterCategory(pc)
}
CreateTestTypeController .> ParameterCategoryDto
CreateTestTypeController ..> ParameterCategoryMapper
ParameterCategoryMapper ..> ParameterCategoryDto
CreateTestTypeUI ..> CreateTestTypeController
CreateTestTypeUI .> ParameterCategoryDto
CreateTestTypeController ..> Company
CreateTestTypeController .> TestTypeStore
CreateTestTypeController .> ParameterCategoryStore
ParameterCategoryMapper ..> ParameterCategory
Company "1" - ->"1" TestTypeStore: uses >
Company "1" ->"1" ParameterCategoryStore: uses >
TestTypeStore"1" - ->"*" TestType: conducts >
CreateTestTypeController ..> TestType
ParameterCategoryStore "1" - -> "*" ParameterCategory :conducts >
TestType "1" - -> "1" ParameterCategoryList: has >
CreateTestTypeController ..> ParameterCategoryList
ParameterCategoryList "1" -> "*" ParameterCategory: composed by >
@enduml

PlantUML version 1.2021.5(Sun Apr 25 12:20:28 BST 2021)
(GPL source distribution)
Java Runtime: OpenJDK Runtime Environment
JVM: Dynamic Code Evolution 64-Bit Server VM
Default Encoding: Cp1252
Language: pt
Country: PT
--></g></svg>