<?xml version="1.0" encoding="UTF-8" standalone="no"?><svg xmlns="http://www.w3.org/2000/svg" xmlns:xlink="http://www.w3.org/1999/xlink" contentScriptType="application/ecmascript" contentStyleType="text/css" height="766.25px" preserveAspectRatio="none" style="width:701px;height:766px;" version="1.1" viewBox="0 0 701 766" width="701.25px" zoomAndPan="magnify"><defs><filter height="300%" id="f64y31dsfzt7k" width="300%" x="-1" y="-1"><feGaussianBlur result="blurOut" stdDeviation="2.5"/><feColorMatrix in="blurOut" result="blurOut2" type="matrix" values="0 0 0 0 0 0 0 0 0 0 0 0 0 0 0 0 0 0 .4 0"/><feOffset dx="5.0" dy="5.0" in="blurOut2" result="blurOut3"/><feBlend in="SourceGraphic" in2="blurOut3" mode="normal"/></filter></defs><g><!--MD5=[7421f545a0d8420c5bec41e74b387d9c]
class Employee--><rect codeLine="4" fill="#FEFECE" filter="url(#f64y31dsfzt7k)" height="198.3594" id="Employee" style="stroke:#A80036;stroke-width:1.875;" width="115" x="341.125" y="183.75"/><ellipse cx="362.6875" cy="203.75" fill="#ADD1B2" rx="13.75" ry="13.75" style="stroke:#A80036;stroke-width:1.25;"/><path d="M365.1875,199.375 Q365.4414,198.75 365.7344,198.4375 Q366.0273,198.125 366.3594,198.125 Q366.9453,198.125 367.3164,198.4766 Q367.6875,198.8281 367.6875,199.6484 L367.6875,201.6016 Q367.6875,202.4219 367.3359,202.7734 Q366.9844,203.125 366.4375,203.125 Q365.9492,203.125 365.6367,202.9102 Q365.3242,202.6953 365.1875,202.1289 Q365.1289,201.7383 364.9141,201.5234 Q364.5234,201.1133 363.8203,200.8789 Q363.1172,200.625 362.4141,200.625 Q361.5352,200.625 360.793,200.9766 Q360.0703,201.3281 359.5039,202.1094 Q358.9375,202.8906 358.9375,203.9648 L358.9375,205.1172 Q358.9375,206.4063 359.9922,207.2656 Q361.0469,208.125 362.9219,208.125 Q364.0352,208.125 364.8164,207.8711 Q365.2656,207.7344 365.7734,207.2852 Q366.1055,207.0313 366.2813,206.9531 Q366.457,206.875 366.6719,206.875 Q367.082,206.875 367.375,207.207 Q367.6875,207.5195 367.6875,207.9688 Q367.6875,208.3984 367.2578,208.9063 Q366.6328,209.6484 365.6367,210.0586 Q364.3281,210.625 362.7266,210.625 Q360.8516,210.625 359.3477,209.8828 Q358.1367,209.2969 357.2773,208.0273 Q356.4375,206.7578 356.4375,205.2539 L356.4375,203.8867 Q356.4375,202.3242 357.1797,200.957 Q357.9414,199.5898 359.25,198.8672 Q360.5781,198.125 362.0625,198.125 Q362.9609,198.125 363.7422,198.4375 Q364.5234,198.75 365.1875,199.375 Z " fill="#000000"/><text fill="#000000" font-family="sans-serif" font-size="15" lengthAdjust="spacing" textLength="68.75" x="380.8125" y="209.8877">Employee</text><line style="stroke:#A80036;stroke-width:1.875;" x1="342.375" x2="454.875" y1="223.75" y2="223.75"/><text fill="#000000" font-family="sans-serif" font-size="13.75" lengthAdjust="spacing" textLength="32.5" x="348.625" y="243.0237">name</text><text fill="#000000" font-family="sans-serif" font-size="13.75" lengthAdjust="spacing" textLength="83.75" x="348.625" y="260.3186">phoneNumber</text><text fill="#000000" font-family="sans-serif" font-size="13.75" lengthAdjust="spacing" textLength="30" x="348.625" y="277.6135">email</text><text fill="#000000" font-family="sans-serif" font-size="13.75" lengthAdjust="spacing" textLength="62.5" x="348.625" y="294.9084">password</text><text fill="#000000" font-family="sans-serif" font-size="13.75" lengthAdjust="spacing" textLength="68.75" x="348.625" y="312.2034">employeeID</text><text fill="#000000" font-family="sans-serif" font-size="13.75" lengthAdjust="spacing" textLength="53.75" x="348.625" y="329.4983">socCode</text><text fill="#000000" font-family="sans-serif" font-size="13.75" lengthAdjust="spacing" textLength="100" x="348.625" y="346.7932">organizationRole</text><text fill="#000000" font-family="sans-serif" font-size="13.75" lengthAdjust="spacing" textLength="50" x="348.625" y="364.0881">address</text><line style="stroke:#A80036;stroke-width:1.875;" x1="342.375" x2="454.875" y1="372.1094" y2="372.1094"/><!--MD5=[da547346deef918ea16944ba046651ef]
class Administrator--><rect codeLine="16" fill="#FEFECE" filter="url(#f64y31dsfzt7k)" height="60" id="Administrator" style="stroke:#A80036;stroke-width:1.875;" width="131.25" x="426.75" y="480"/><ellipse cx="445.5" cy="500" fill="#ADD1B2" rx="13.75" ry="13.75" style="stroke:#A80036;stroke-width:1.25;"/><path d="M448,495.625 Q448.2539,495 448.5469,494.6875 Q448.8398,494.375 449.1719,494.375 Q449.7578,494.375 450.1289,494.7266 Q450.5,495.0781 450.5,495.8984 L450.5,497.8516 Q450.5,498.6719 450.1484,499.0234 Q449.7969,499.375 449.25,499.375 Q448.7617,499.375 448.4492,499.1602 Q448.1367,498.9453 448,498.3789 Q447.9414,497.9883 447.7266,497.7734 Q447.3359,497.3633 446.6328,497.1289 Q445.9297,496.875 445.2266,496.875 Q444.3477,496.875 443.6055,497.2266 Q442.8828,497.5781 442.3164,498.3594 Q441.75,499.1406 441.75,500.2148 L441.75,501.3672 Q441.75,502.6563 442.8047,503.5156 Q443.8594,504.375 445.7344,504.375 Q446.8477,504.375 447.6289,504.1211 Q448.0781,503.9844 448.5859,503.5352 Q448.918,503.2813 449.0938,503.2031 Q449.2695,503.125 449.4844,503.125 Q449.8945,503.125 450.1875,503.457 Q450.5,503.7695 450.5,504.2188 Q450.5,504.6484 450.0703,505.1563 Q449.4453,505.8984 448.4492,506.3086 Q447.1406,506.875 445.5391,506.875 Q443.6641,506.875 442.1602,506.1328 Q440.9492,505.5469 440.0898,504.2773 Q439.25,503.0078 439.25,501.5039 L439.25,500.1367 Q439.25,498.5742 439.9922,497.207 Q440.7539,495.8398 442.0625,495.1172 Q443.3906,494.375 444.875,494.375 Q445.7734,494.375 446.5547,494.6875 Q447.3359,495 448,495.625 Z " fill="#000000"/><text fill="#000000" font-family="sans-serif" font-size="15" lengthAdjust="spacing" textLength="91.25" x="463" y="506.1377">Administrator</text><line style="stroke:#A80036;stroke-width:1.875;" x1="428" x2="556.75" y1="520" y2="520"/><line style="stroke:#A80036;stroke-width:1.875;" x1="428" x2="556.75" y1="530" y2="530"/><!--MD5=[aeb3272166074d8737a70b61b1e71682]
class TestType--><rect codeLine="18" fill="#FEFECE" filter="url(#f64y31dsfzt7k)" height="111.8848" id="TestType" style="stroke:#A80036;stroke-width:1.875;" width="115" x="234.875" y="637.5"/><ellipse cx="259.25" cy="657.5" fill="#ADD1B2" rx="13.75" ry="13.75" style="stroke:#A80036;stroke-width:1.25;"/><path d="M261.75,653.125 Q262.0039,652.5 262.2969,652.1875 Q262.5898,651.875 262.9219,651.875 Q263.5078,651.875 263.8789,652.2266 Q264.25,652.5781 264.25,653.3984 L264.25,655.3516 Q264.25,656.1719 263.8984,656.5234 Q263.5469,656.875 263,656.875 Q262.5117,656.875 262.1992,656.6602 Q261.8867,656.4453 261.75,655.8789 Q261.6914,655.4883 261.4766,655.2734 Q261.0859,654.8633 260.3828,654.6289 Q259.6797,654.375 258.9766,654.375 Q258.0977,654.375 257.3555,654.7266 Q256.6328,655.0781 256.0664,655.8594 Q255.5,656.6406 255.5,657.7148 L255.5,658.8672 Q255.5,660.1563 256.5547,661.0156 Q257.6094,661.875 259.4844,661.875 Q260.5977,661.875 261.3789,661.6211 Q261.8281,661.4844 262.3359,661.0352 Q262.668,660.7813 262.8438,660.7031 Q263.0195,660.625 263.2344,660.625 Q263.6445,660.625 263.9375,660.957 Q264.25,661.2695 264.25,661.7188 Q264.25,662.1484 263.8203,662.6563 Q263.1953,663.3984 262.1992,663.8086 Q260.8906,664.375 259.2891,664.375 Q257.4141,664.375 255.9102,663.6328 Q254.6992,663.0469 253.8398,661.7773 Q253,660.5078 253,659.0039 L253,657.6367 Q253,656.0742 253.7422,654.707 Q254.5039,653.3398 255.8125,652.6172 Q257.1406,651.875 258.625,651.875 Q259.5234,651.875 260.3047,652.1875 Q261.0859,652.5 261.75,653.125 Z " fill="#000000"/><text fill="#000000" font-family="sans-serif" font-size="15" lengthAdjust="spacing" textLength="62.5" x="278" y="663.6377">TestType</text><line style="stroke:#A80036;stroke-width:1.875;" x1="236.125" x2="348.625" y1="677.5" y2="677.5"/><text fill="#000000" font-family="sans-serif" font-size="13.75" lengthAdjust="spacing" textLength="66.25" x="242.375" y="696.7737">description</text><text fill="#000000" font-family="sans-serif" font-size="13.75" lengthAdjust="spacing" textLength="30" x="242.375" y="714.0686">code</text><text fill="#000000" font-family="sans-serif" font-size="13.75" lengthAdjust="spacing" textLength="100" x="242.375" y="731.3635">collectionMethod</text><line style="stroke:#A80036;stroke-width:1.875;" x1="236.125" x2="348.625" y1="739.3848" y2="739.3848"/><!--MD5=[36afb6bbd95a8ac778c4537c55a683d5]
class ParameterCategory--><rect codeLine="24" fill="#FEFECE" filter="url(#f64y31dsfzt7k)" height="94.5898" id="ParameterCategory" style="stroke:#A80036;stroke-width:1.875;" width="173.75" x="496.75" y="646.25"/><ellipse cx="515.5" cy="666.25" fill="#ADD1B2" rx="13.75" ry="13.75" style="stroke:#A80036;stroke-width:1.25;"/><path d="M518,661.875 Q518.2539,661.25 518.5469,660.9375 Q518.8398,660.625 519.1719,660.625 Q519.7578,660.625 520.1289,660.9766 Q520.5,661.3281 520.5,662.1484 L520.5,664.1016 Q520.5,664.9219 520.1484,665.2734 Q519.7969,665.625 519.25,665.625 Q518.7617,665.625 518.4492,665.4102 Q518.1367,665.1953 518,664.6289 Q517.9414,664.2383 517.7266,664.0234 Q517.3359,663.6133 516.6328,663.3789 Q515.9297,663.125 515.2266,663.125 Q514.3477,663.125 513.6055,663.4766 Q512.8828,663.8281 512.3164,664.6094 Q511.75,665.3906 511.75,666.4648 L511.75,667.6172 Q511.75,668.9063 512.8047,669.7656 Q513.8594,670.625 515.7344,670.625 Q516.8477,670.625 517.6289,670.3711 Q518.0781,670.2344 518.5859,669.7852 Q518.918,669.5313 519.0938,669.4531 Q519.2695,669.375 519.4844,669.375 Q519.8945,669.375 520.1875,669.707 Q520.5,670.0195 520.5,670.4688 Q520.5,670.8984 520.0703,671.4063 Q519.4453,672.1484 518.4492,672.5586 Q517.1406,673.125 515.5391,673.125 Q513.6641,673.125 512.1602,672.3828 Q510.9492,671.7969 510.0898,670.5273 Q509.25,669.2578 509.25,667.7539 L509.25,666.3867 Q509.25,664.8242 509.9922,663.457 Q510.7539,662.0898 512.0625,661.3672 Q513.3906,660.625 514.875,660.625 Q515.7734,660.625 516.5547,660.9375 Q517.3359,661.25 518,661.875 Z " fill="#000000"/><text fill="#000000" font-family="sans-serif" font-size="15" lengthAdjust="spacing" textLength="133.75" x="533" y="672.3877">ParameterCategory</text><line style="stroke:#A80036;stroke-width:1.875;" x1="498" x2="669.25" y1="686.25" y2="686.25"/><text fill="#000000" font-family="sans-serif" font-size="13.75" lengthAdjust="spacing" textLength="30" x="504.25" y="705.5237">code</text><text fill="#000000" font-family="sans-serif" font-size="13.75" lengthAdjust="spacing" textLength="32.5" x="504.25" y="722.8186">name</text><line style="stroke:#A80036;stroke-width:1.875;" x1="498" x2="669.25" y1="730.8398" y2="730.8398"/><!--MD5=[02e4b9b7573f1156f41e60aa5b4e25a4]
class Company--><rect codeLine="28" fill="#FEFECE" filter="url(#f64y31dsfzt7k)" height="77.2949" id="Company" style="stroke:#A80036;stroke-width:1.875;" width="106.25" x="453" y="8.75"/><ellipse cx="471.75" cy="28.75" fill="#ADD1B2" rx="13.75" ry="13.75" style="stroke:#A80036;stroke-width:1.25;"/><path d="M474.25,24.375 Q474.5039,23.75 474.7969,23.4375 Q475.0898,23.125 475.4219,23.125 Q476.0078,23.125 476.3789,23.4766 Q476.75,23.8281 476.75,24.6484 L476.75,26.6016 Q476.75,27.4219 476.3984,27.7734 Q476.0469,28.125 475.5,28.125 Q475.0117,28.125 474.6992,27.9102 Q474.3867,27.6953 474.25,27.1289 Q474.1914,26.7383 473.9766,26.5234 Q473.5859,26.1133 472.8828,25.8789 Q472.1797,25.625 471.4766,25.625 Q470.5977,25.625 469.8555,25.9766 Q469.1328,26.3281 468.5664,27.1094 Q468,27.8906 468,28.9648 L468,30.1172 Q468,31.4063 469.0547,32.2656 Q470.1094,33.125 471.9844,33.125 Q473.0977,33.125 473.8789,32.8711 Q474.3281,32.7344 474.8359,32.2852 Q475.168,32.0313 475.3438,31.9531 Q475.5195,31.875 475.7344,31.875 Q476.1445,31.875 476.4375,32.207 Q476.75,32.5195 476.75,32.9688 Q476.75,33.3984 476.3203,33.9063 Q475.6953,34.6484 474.6992,35.0586 Q473.3906,35.625 471.7891,35.625 Q469.9141,35.625 468.4102,34.8828 Q467.1992,34.2969 466.3398,33.0273 Q465.5,31.7578 465.5,30.2539 L465.5,28.8867 Q465.5,27.3242 466.2422,25.957 Q467.0039,24.5898 468.3125,23.8672 Q469.6406,23.125 471.125,23.125 Q472.0234,23.125 472.8047,23.4375 Q473.5859,23.75 474.25,24.375 Z " fill="#000000"/><text fill="#000000" font-family="sans-serif" font-size="15" lengthAdjust="spacing" textLength="66.25" x="489.25" y="34.8877">Company</text><line style="stroke:#A80036;stroke-width:1.875;" x1="454.25" x2="558" y1="48.75" y2="48.75"/><text fill="#000000" font-family="sans-serif" font-size="13.75" lengthAdjust="spacing" textLength="68.75" x="460.5" y="68.0237">designation</text><line style="stroke:#A80036;stroke-width:1.875;" x1="454.25" x2="558" y1="76.0449" y2="76.0449"/><!--MD5=[3fd616f346a44cd59a91eb10b19e157c]
class User--><rect codeLine="31" fill="#FEFECE" filter="url(#f64y31dsfzt7k)" height="111.8848" id="User" style="stroke:#A80036;stroke-width:1.875;" width="77.5" x="133.625" y="226.875"/><ellipse cx="154.0625" cy="246.875" fill="#ADD1B2" rx="13.75" ry="13.75" style="stroke:#A80036;stroke-width:1.25;"/><path d="M156.5625,242.5 Q156.8164,241.875 157.1094,241.5625 Q157.4023,241.25 157.7344,241.25 Q158.3203,241.25 158.6914,241.6016 Q159.0625,241.9531 159.0625,242.7734 L159.0625,244.7266 Q159.0625,245.5469 158.7109,245.8984 Q158.3594,246.25 157.8125,246.25 Q157.3242,246.25 157.0117,246.0352 Q156.6992,245.8203 156.5625,245.2539 Q156.5039,244.8633 156.2891,244.6484 Q155.8984,244.2383 155.1953,244.0039 Q154.4922,243.75 153.7891,243.75 Q152.9102,243.75 152.168,244.1016 Q151.4453,244.4531 150.8789,245.2344 Q150.3125,246.0156 150.3125,247.0898 L150.3125,248.2422 Q150.3125,249.5313 151.3672,250.3906 Q152.4219,251.25 154.2969,251.25 Q155.4102,251.25 156.1914,250.9961 Q156.6406,250.8594 157.1484,250.4102 Q157.4805,250.1563 157.6563,250.0781 Q157.832,250 158.0469,250 Q158.457,250 158.75,250.332 Q159.0625,250.6445 159.0625,251.0938 Q159.0625,251.5234 158.6328,252.0313 Q158.0078,252.7734 157.0117,253.1836 Q155.7031,253.75 154.1016,253.75 Q152.2266,253.75 150.7227,253.0078 Q149.5117,252.4219 148.6523,251.1523 Q147.8125,249.8828 147.8125,248.3789 L147.8125,247.0117 Q147.8125,245.4492 148.5547,244.082 Q149.3164,242.7148 150.625,241.9922 Q151.9531,241.25 153.4375,241.25 Q154.3359,241.25 155.1172,241.5625 Q155.8984,241.875 156.5625,242.5 Z " fill="#000000"/><text fill="#000000" font-family="sans-serif" font-size="15" lengthAdjust="spacing" textLength="33.75" x="171.9375" y="253.0127">User</text><line style="stroke:#A80036;stroke-width:1.875;" x1="134.875" x2="209.875" y1="266.875" y2="266.875"/><text fill="#000000" font-family="sans-serif" font-size="13.75" lengthAdjust="spacing" textLength="32.5" x="141.125" y="286.1487">name</text><text fill="#000000" font-family="sans-serif" font-size="13.75" lengthAdjust="spacing" textLength="30" x="141.125" y="303.4436">email</text><text fill="#000000" font-family="sans-serif" font-size="13.75" lengthAdjust="spacing" textLength="62.5" x="141.125" y="320.7385">password</text><line style="stroke:#A80036;stroke-width:1.875;" x1="134.875" x2="209.875" y1="328.7598" y2="328.7598"/><!--MD5=[48afc90033d240f0c7566c2ff402e39b]
link User to Employee--><path codeLine="36" d="M211.2625,283.125 C246.9,283.125 300.1125,283.125 340.7375,283.125 " fill="none" id="User-Employee" style="stroke:#A80036;stroke-width:1.25;"/><polygon fill="#000000" points="233,268.3447,244.3064,272.0184,244.3064,264.6711,233,268.3447" style="stroke:#000000;stroke-width:1.25;"/><text fill="#000000" font-family="sans-serif" font-size="16.25" lengthAdjust="spacing" textLength="67.5" x="250.5" y="274.9939">relates to</text><text fill="#000000" font-family="sans-serif" font-size="16.25" lengthAdjust="spacing" textLength="8.75" x="221.267" y="277.8033">1</text><text fill="#000000" font-family="sans-serif" font-size="16.25" lengthAdjust="spacing" textLength="27.5" x="303.6112" y="301.3934">0..1</text><!--MD5=[f7fb1bbd8b4f4021e9754ae6fe2871a0]
reverse link Employee to Administrator--><path codeLine="37" d="M459.1875,406.15 C461.1625,410.8125 463.0625,415.4375 464.875,420 C472.6625,439.65 479.675,462.425 484.675,479.9875 " fill="none" id="Employee-backto-Administrator" style="stroke:#A80036;stroke-width:1.25;"/><polygon fill="none" points="450.9875,409.2375,448.9,382.8375,467,402.175,450.9875,409.2375" style="stroke:#A80036;stroke-width:1.25;"/><!--MD5=[8f7dd94d56b58fc07b233ccd3dd98f8c]
link Administrator to Employee--><path codeLine="38" d="M426.625,483.675 C409.1375,473.6375 392.35,460.1625 382.375,442.5 C372.1875,424.475 369.3625,403.45 370.475,382.7125 " fill="none" id="Administrator-Employee" style="stroke:#A80036;stroke-width:1.25;"/><polygon fill="#000000" points="385.5873,426.0076,387.872,437.6742,394.2931,434.1031,385.5873,426.0076" style="stroke:#000000;stroke-width:1.25;"/><text fill="#000000" font-family="sans-serif" font-size="16.25" lengthAdjust="spacing" textLength="53.75" x="399.875" y="438.1189">creates</text><text fill="#000000" font-family="sans-serif" font-size="16.25" lengthAdjust="spacing" textLength="8.75" x="408.0137" y="475.4666">1</text><text fill="#000000" font-family="sans-serif" font-size="16.25" lengthAdjust="spacing" textLength="8.75" x="358.9299" y="409.0347">1</text><!--MD5=[09366576ee87d48d594df10cacc83f45]
link Company to Employee--><path codeLine="39" d="M485.125,86.575 C478.8,98.375 471.9875,111.5 466.125,123.75 C456.9625,142.8625 447.7,163.5375 439.0875,183.4375 " fill="none" id="Company-Employee" style="stroke:#A80036;stroke-width:1.25;"/><polygon fill="#000000" points="469.6921,140.8646,477.8635,132.2299,471.2276,129.076,469.6921,140.8646" style="stroke:#000000;stroke-width:1.25;"/><text fill="#000000" font-family="sans-serif" font-size="16.25" lengthAdjust="spacing" textLength="26.25" x="483.625" y="141.8689">has</text><text fill="#000000" font-family="sans-serif" font-size="16.25" lengthAdjust="spacing" textLength="8.75" x="471.5379" y="112.8603">1</text><text fill="#000000" font-family="sans-serif" font-size="16.25" lengthAdjust="spacing" textLength="25" x="416.6653" y="170.2328">1..*</text><!--MD5=[742a261f27a3dcd734c626287d811acd]
link Company to TestType--><path codeLine="40" d="M452.6875,48.8625 C364.375,52.2875 189.95,73.5125 111.125,183.75 C7.5,328.6625 157.5375,538.7125 241.7875,637.3875 " fill="none" id="Company-TestType" style="stroke:#A80036;stroke-width:1.25;"/><polygon fill="#000000" points="116.5166,437.3534,123.7891,427.9491,116.8724,425.4705,116.5166,437.3534" style="stroke:#000000;stroke-width:1.25;"/><text fill="#000000" font-family="sans-serif" font-size="16.25" lengthAdjust="spacing" textLength="66.25" x="129.875" y="438.1189">conducts</text><text fill="#000000" font-family="sans-serif" font-size="16.25" lengthAdjust="spacing" textLength="8.75" x="434.3623" y="44.3542">1</text><text fill="#000000" font-family="sans-serif" font-size="16.25" lengthAdjust="spacing" textLength="6.25" x="226.9771" y="623.7639">*</text><!--MD5=[71159b3869b6d7a411768e18bcaa697a]
link Administrator to TestType--><path codeLine="41" d="M460.2375,540.375 C430.65,567.1875 386.0375,607.6125 350.25,640.05 " fill="none" id="Administrator-TestType" style="stroke:#A80036;stroke-width:1.25;"/><polygon fill="#000000" points="417.7438,593.1667,428.5886,588.2965,423.6548,582.8522,417.7438,593.1667" style="stroke:#000000;stroke-width:1.25;"/><text fill="#000000" font-family="sans-serif" font-size="16.25" lengthAdjust="spacing" textLength="53.75" x="433.625" y="595.6189">creates</text><text fill="#000000" font-family="sans-serif" font-size="16.25" lengthAdjust="spacing" textLength="8.75" x="443.044" y="566.6314">1</text><text fill="#000000" font-family="sans-serif" font-size="16.25" lengthAdjust="spacing" textLength="6.25" x="359.9719" y="626.8508">*</text><!--MD5=[eaea43e34e45c5b9d20b595fc78f1f20]
link Company to Administrator--><path codeLine="42" d="M512.1375,86.425 C513.775,98.325 515.3125,111.5625 516.125,123.75 C516.7875,133.725 516.375,136.25 516.125,146.25 C512.7875,278.0375 513.1,311.2125 501.125,442.5 C500,454.75 498.3125,468.2125 496.7125,479.7875 " fill="none" id="Company-Administrator" style="stroke:#A80036;stroke-width:1.25;"/><polygon fill="#000000" points="521.3699,277.0995,517.256,288.2533,524.5977,288.5411,521.3699,277.0995" style="stroke:#000000;stroke-width:1.25;"/><text fill="#000000" font-family="sans-serif" font-size="16.25" lengthAdjust="spacing" textLength="61.25" x="532.375" y="289.9939">works at</text><text fill="#000000" font-family="sans-serif" font-size="16.25" lengthAdjust="spacing" textLength="8.75" x="503.7099" y="112.9895">1</text><text fill="#000000" font-family="sans-serif" font-size="16.25" lengthAdjust="spacing" textLength="6.25" x="490.7732" y="466.4082">*</text><!--MD5=[8aaf0efd5e2f3824be7ea3e488dcc283]
link TestType to ParameterCategory--><path codeLine="43" d="M349.9125,693.75 C391.6875,693.75 448.9625,693.75 496.35,693.75 " fill="none" id="TestType-ParameterCategory" style="stroke:#A80036;stroke-width:1.25;"/><polygon fill="#000000" points="383.9375,678.9697,372.6311,675.2961,372.6311,682.6434,383.9375,678.9697" style="stroke:#000000;stroke-width:1.25;"/><text fill="#000000" font-family="sans-serif" font-size="16.25" lengthAdjust="spacing" textLength="85" x="388.9375" y="685.6189">has a set of</text><text fill="#000000" font-family="sans-serif" font-size="16.25" lengthAdjust="spacing" textLength="8.75" x="359.7798" y="689.1092">1</text><text fill="#000000" font-family="sans-serif" font-size="16.25" lengthAdjust="spacing" textLength="6.25" x="480.7775" y="689.6315">*</text><!--MD5=[93b4f25fb503a8e0e9a46b1d30ff3f44]
link Company to ParameterCategory--><path codeLine="44" d="M543.4,86.4375 C565.7375,111.7 592.2,146.9625 604.875,183.75 C661.875,349.3 614.6,402.4375 617.375,577.5 C617.5375,587.5 619.1125,590.15 617.375,600 C614.6625,615.3125 609.6125,631.4375 604.2375,645.85 " fill="none" id="Company-ParameterCategory" style="stroke:#A80036;stroke-width:1.25;"/><polygon fill="#000000" points="633.0507,437.6831,635.4805,426.0458,628.1762,426.8402,633.0507,437.6831" style="stroke:#000000;stroke-width:1.25;"/><text fill="#000000" font-family="sans-serif" font-size="16.25" lengthAdjust="spacing" textLength="48.75" x="643.625" y="438.1189">adopts</text><text fill="#000000" font-family="sans-serif" font-size="16.25" lengthAdjust="spacing" textLength="8.75" x="541.1272" y="113.0044">1</text><text fill="#000000" font-family="sans-serif" font-size="16.25" lengthAdjust="spacing" textLength="6.25" x="600.9932" y="632.8403">*</text><!--MD5=[7144ffdeebbe38808f7fb2ce8ac24f7d]
link Administrator to ParameterCategory--><path codeLine="45" d="M507.0375,540.375 C521.3875,568.8875 543.5,612.8 560.275,646.125 " fill="none" id="Administrator-ParameterCategory" style="stroke:#A80036;stroke-width:1.25;"/><polygon fill="#000000" points="543.9354,594.5522,542.1327,582.8015,535.57,586.1053,543.9354,594.5522" style="stroke:#000000;stroke-width:1.25;"/><text fill="#000000" font-family="sans-serif" font-size="16.25" lengthAdjust="spacing" textLength="53.75" x="552.375" y="595.6189">creates</text><text fill="#000000" font-family="sans-serif" font-size="16.25" lengthAdjust="spacing" textLength="8.75" x="500.6665" y="566.6314">1</text><text fill="#000000" font-family="sans-serif" font-size="16.25" lengthAdjust="spacing" textLength="6.25" x="549.3091" y="632.8051">*</text><!--MD5=[416a2931fd835023733797a0bbb3a5de]
@startuml
'https://plantuml.com/class-diagram


class Employee{
    name
    phoneNumber
    email
    password
    employeeID
    socCode
    organizationRole
    address
}


class Administrator{
}
class TestType{
description
code
collectionMethod
}

class ParameterCategory{
code
name
}
class Company{
designation
}
class User{
    name
    email
    password
}
User "1" - "0..1" Employee: relates to <
Employee <|- - Administrator
Administrator "1" - - "1" Employee: creates >
Company "1" - - "1..*" Employee: has >
Company "1" - - "*" TestType : conducts >
Administrator "1" - - "*" TestType : creates >
Company "1" - - "*" Administrator : works at <
TestType "1" - "*" ParameterCategory: has a set of >
Company "1" - - "*" ParameterCategory: adopts >
Administrator "1" - - "*" ParameterCategory: creates >


@enduml

@startuml


class Employee{
    name
    phoneNumber
    email
    password
    employeeID
    socCode
    organizationRole
    address
}


class Administrator{
}
class TestType{
description
code
collectionMethod
}

class ParameterCategory{
code
name
}
class Company{
designation
}
class User{
    name
    email
    password
}
User "1" - "0..1" Employee: relates to <
Employee <|- - Administrator
Administrator "1" - - "1" Employee: creates >
Company "1" - - "1..*" Employee: has >
Company "1" - - "*" TestType : conducts >
Administrator "1" - - "*" TestType : creates >
Company "1" - - "*" Administrator : works at <
TestType "1" - "*" ParameterCategory: has a set of >
Company "1" - - "*" ParameterCategory: adopts >
Administrator "1" - - "*" ParameterCategory: creates >


@enduml

PlantUML version 1.2021.5(Sun Apr 25 12:20:28 BST 2021)
(GPL source distribution)
Java Runtime: OpenJDK Runtime Environment
JVM: Dynamic Code Evolution 64-Bit Server VM
Default Encoding: Cp1252
Language: pt
Country: PT
--></g></svg>