<?xml version="1.0" encoding="UTF-8" standalone="no"?><svg xmlns="http://www.w3.org/2000/svg" xmlns:xlink="http://www.w3.org/1999/xlink" contentScriptType="application/ecmascript" contentStyleType="text/css" height="870px" preserveAspectRatio="none" style="width:476px;height:870px;" version="1.1" viewBox="0 0 476 870" width="476.25px" zoomAndPan="magnify"><defs><filter height="300%" id="fxfeqs1a8n7sz" width="300%" x="-1" y="-1"><feGaussianBlur result="blurOut" stdDeviation="2.5"/><feColorMatrix in="blurOut" result="blurOut2" type="matrix" values="0 0 0 0 0 0 0 0 0 0 0 0 0 0 0 0 0 0 .4 0"/><feOffset dx="5.0" dy="5.0" in="blurOut2" result="blurOut3"/><feBlend in="SourceGraphic" in2="blurOut3" mode="normal"/></filter></defs><g><!--MD5=[02e4b9b7573f1156f41e60aa5b4e25a4]
class Company--><rect codeLine="3" fill="#FEFECE" filter="url(#fxfeqs1a8n7sz)" height="77.2949" id="Company" style="stroke:#A80036;stroke-width:1.875;" width="106.25" x="9.2875" y="8.75"/><ellipse cx="28.0375" cy="28.75" fill="#ADD1B2" rx="13.75" ry="13.75" style="stroke:#A80036;stroke-width:1.25;"/><path d="M30.5375,24.375 Q30.7914,23.75 31.0844,23.4375 Q31.3773,23.125 31.7094,23.125 Q32.2953,23.125 32.6664,23.4766 Q33.0375,23.8281 33.0375,24.6484 L33.0375,26.6016 Q33.0375,27.4219 32.6859,27.7734 Q32.3344,28.125 31.7875,28.125 Q31.2992,28.125 30.9867,27.9102 Q30.6742,27.6953 30.5375,27.1289 Q30.4789,26.7383 30.2641,26.5234 Q29.8734,26.1133 29.1703,25.8789 Q28.4672,25.625 27.7641,25.625 Q26.8852,25.625 26.143,25.9766 Q25.4203,26.3281 24.8539,27.1094 Q24.2875,27.8906 24.2875,28.9648 L24.2875,30.1172 Q24.2875,31.4063 25.3422,32.2656 Q26.3969,33.125 28.2719,33.125 Q29.3852,33.125 30.1664,32.8711 Q30.6156,32.7344 31.1234,32.2852 Q31.4555,32.0313 31.6313,31.9531 Q31.807,31.875 32.0219,31.875 Q32.432,31.875 32.725,32.207 Q33.0375,32.5195 33.0375,32.9688 Q33.0375,33.3984 32.6078,33.9063 Q31.9828,34.6484 30.9867,35.0586 Q29.6781,35.625 28.0766,35.625 Q26.2016,35.625 24.6977,34.8828 Q23.4867,34.2969 22.6273,33.0273 Q21.7875,31.7578 21.7875,30.2539 L21.7875,28.8867 Q21.7875,27.3242 22.5297,25.957 Q23.2914,24.5898 24.6,23.8672 Q25.9281,23.125 27.4125,23.125 Q28.3109,23.125 29.0922,23.4375 Q29.8734,23.75 30.5375,24.375 Z " fill="#000000"/><text fill="#000000" font-family="sans-serif" font-size="15" lengthAdjust="spacing" textLength="66.25" x="45.5375" y="34.8877">Company</text><line style="stroke:#A80036;stroke-width:1.875;" x1="10.5375" x2="114.2875" y1="48.75" y2="48.75"/><text fill="#000000" font-family="sans-serif" font-size="13.75" lengthAdjust="spacing" textLength="68.75" x="16.7875" y="68.0237">designation</text><line style="stroke:#A80036;stroke-width:1.875;" x1="10.5375" x2="114.2875" y1="76.0449" y2="76.0449"/><!--MD5=[7d96fd15f3014691d2fcaf89c5791e2a]
class SpecialistDoctor--><rect codeLine="7" fill="#FEFECE" filter="url(#fxfeqs1a8n7sz)" height="77.2949" id="SpecialistDoctor" style="stroke:#A80036;stroke-width:1.875;" width="152.5" x="163.6625" y="8.75"/><ellipse cx="182.4125" cy="28.75" fill="#ADD1B2" rx="13.75" ry="13.75" style="stroke:#A80036;stroke-width:1.25;"/><path d="M184.9125,24.375 Q185.1664,23.75 185.4594,23.4375 Q185.7523,23.125 186.0844,23.125 Q186.6703,23.125 187.0414,23.4766 Q187.4125,23.8281 187.4125,24.6484 L187.4125,26.6016 Q187.4125,27.4219 187.0609,27.7734 Q186.7094,28.125 186.1625,28.125 Q185.6742,28.125 185.3617,27.9102 Q185.0492,27.6953 184.9125,27.1289 Q184.8539,26.7383 184.6391,26.5234 Q184.2484,26.1133 183.5453,25.8789 Q182.8422,25.625 182.1391,25.625 Q181.2602,25.625 180.518,25.9766 Q179.7953,26.3281 179.2289,27.1094 Q178.6625,27.8906 178.6625,28.9648 L178.6625,30.1172 Q178.6625,31.4063 179.7172,32.2656 Q180.7719,33.125 182.6469,33.125 Q183.7602,33.125 184.5414,32.8711 Q184.9906,32.7344 185.4984,32.2852 Q185.8305,32.0313 186.0063,31.9531 Q186.182,31.875 186.3969,31.875 Q186.807,31.875 187.1,32.207 Q187.4125,32.5195 187.4125,32.9688 Q187.4125,33.3984 186.9828,33.9063 Q186.3578,34.6484 185.3617,35.0586 Q184.0531,35.625 182.4516,35.625 Q180.5766,35.625 179.0727,34.8828 Q177.8617,34.2969 177.0023,33.0273 Q176.1625,31.7578 176.1625,30.2539 L176.1625,28.8867 Q176.1625,27.3242 176.9047,25.957 Q177.6664,24.5898 178.975,23.8672 Q180.3031,23.125 181.7875,23.125 Q182.6859,23.125 183.4672,23.4375 Q184.2484,23.75 184.9125,24.375 Z " fill="#000000"/><text fill="#000000" font-family="sans-serif" font-size="15" lengthAdjust="spacing" textLength="112.5" x="199.9125" y="34.8877">SpecialistDoctor</text><line style="stroke:#A80036;stroke-width:1.875;" x1="164.9125" x2="314.9125" y1="48.75" y2="48.75"/><text fill="#000000" font-family="sans-serif" font-size="13.75" lengthAdjust="spacing" textLength="117.5" x="171.1625" y="68.0237">doctorIndexNumber</text><line style="stroke:#A80036;stroke-width:1.875;" x1="164.9125" x2="314.9125" y1="76.0449" y2="76.0449"/><!--MD5=[1440c33e6e2d06f1d65157f758d3adef]
class TestReport--><rect codeLine="11" fill="#FEFECE" filter="url(#fxfeqs1a8n7sz)" height="94.5898" id="TestReport" style="stroke:#A80036;stroke-width:1.875;" width="116.25" x="284.2875" y="235.625"/><ellipse cx="303.0375" cy="255.625" fill="#ADD1B2" rx="13.75" ry="13.75" style="stroke:#A80036;stroke-width:1.25;"/><path d="M305.5375,251.25 Q305.7914,250.625 306.0844,250.3125 Q306.3773,250 306.7094,250 Q307.2953,250 307.6664,250.3516 Q308.0375,250.7031 308.0375,251.5234 L308.0375,253.4766 Q308.0375,254.2969 307.6859,254.6484 Q307.3344,255 306.7875,255 Q306.2992,255 305.9867,254.7852 Q305.6742,254.5703 305.5375,254.0039 Q305.4789,253.6133 305.2641,253.3984 Q304.8734,252.9883 304.1703,252.7539 Q303.4672,252.5 302.7641,252.5 Q301.8852,252.5 301.143,252.8516 Q300.4203,253.2031 299.8539,253.9844 Q299.2875,254.7656 299.2875,255.8398 L299.2875,256.9922 Q299.2875,258.2813 300.3422,259.1406 Q301.3969,260 303.2719,260 Q304.3852,260 305.1664,259.7461 Q305.6156,259.6094 306.1234,259.1602 Q306.4555,258.9063 306.6313,258.8281 Q306.807,258.75 307.0219,258.75 Q307.432,258.75 307.725,259.082 Q308.0375,259.3945 308.0375,259.8438 Q308.0375,260.2734 307.6078,260.7813 Q306.9828,261.5234 305.9867,261.9336 Q304.6781,262.5 303.0766,262.5 Q301.2016,262.5 299.6977,261.7578 Q298.4867,261.1719 297.6273,259.9023 Q296.7875,258.6328 296.7875,257.1289 L296.7875,255.7617 Q296.7875,254.1992 297.5297,252.832 Q298.2914,251.4648 299.6,250.7422 Q300.9281,250 302.4125,250 Q303.3109,250 304.0922,250.3125 Q304.8734,250.625 305.5375,251.25 Z " fill="#000000"/><text fill="#000000" font-family="sans-serif" font-size="15" lengthAdjust="spacing" textLength="76.25" x="320.5375" y="261.7627">TestReport</text><line style="stroke:#A80036;stroke-width:1.875;" x1="285.5375" x2="399.2875" y1="275.625" y2="275.625"/><text fill="#000000" font-family="sans-serif" font-size="13.75" lengthAdjust="spacing" textLength="66.25" x="291.7875" y="294.8987">description</text><text fill="#000000" font-family="sans-serif" font-size="13.75" lengthAdjust="spacing" textLength="42.5" x="291.7875" y="312.1936">header</text><line style="stroke:#A80036;stroke-width:1.875;" x1="285.5375" x2="399.2875" y1="320.2148" y2="320.2148"/><!--MD5=[7421f545a0d8420c5bec41e74b387d9c]
class Employee--><rect codeLine="15" fill="#FEFECE" filter="url(#fxfeqs1a8n7sz)" height="198.3594" id="Employee" style="stroke:#A80036;stroke-width:1.875;" width="115" x="124.9125" y="183.75"/><ellipse cx="146.475" cy="203.75" fill="#ADD1B2" rx="13.75" ry="13.75" style="stroke:#A80036;stroke-width:1.25;"/><path d="M148.975,199.375 Q149.2289,198.75 149.5219,198.4375 Q149.8148,198.125 150.1469,198.125 Q150.7328,198.125 151.1039,198.4766 Q151.475,198.8281 151.475,199.6484 L151.475,201.6016 Q151.475,202.4219 151.1234,202.7734 Q150.7719,203.125 150.225,203.125 Q149.7367,203.125 149.4242,202.9102 Q149.1117,202.6953 148.975,202.1289 Q148.9164,201.7383 148.7016,201.5234 Q148.3109,201.1133 147.6078,200.8789 Q146.9047,200.625 146.2016,200.625 Q145.3227,200.625 144.5805,200.9766 Q143.8578,201.3281 143.2914,202.1094 Q142.725,202.8906 142.725,203.9648 L142.725,205.1172 Q142.725,206.4063 143.7797,207.2656 Q144.8344,208.125 146.7094,208.125 Q147.8227,208.125 148.6039,207.8711 Q149.0531,207.7344 149.5609,207.2852 Q149.893,207.0313 150.0688,206.9531 Q150.2445,206.875 150.4594,206.875 Q150.8695,206.875 151.1625,207.207 Q151.475,207.5195 151.475,207.9688 Q151.475,208.3984 151.0453,208.9063 Q150.4203,209.6484 149.4242,210.0586 Q148.1156,210.625 146.5141,210.625 Q144.6391,210.625 143.1352,209.8828 Q141.9242,209.2969 141.0648,208.0273 Q140.225,206.7578 140.225,205.2539 L140.225,203.8867 Q140.225,202.3242 140.9672,200.957 Q141.7289,199.5898 143.0375,198.8672 Q144.3656,198.125 145.85,198.125 Q146.7484,198.125 147.5297,198.4375 Q148.3109,198.75 148.975,199.375 Z " fill="#000000"/><text fill="#000000" font-family="sans-serif" font-size="15" lengthAdjust="spacing" textLength="68.75" x="164.6" y="209.8877">Employee</text><line style="stroke:#A80036;stroke-width:1.875;" x1="126.1625" x2="238.6625" y1="223.75" y2="223.75"/><text fill="#000000" font-family="sans-serif" font-size="13.75" lengthAdjust="spacing" textLength="32.5" x="132.4125" y="243.0237">name</text><text fill="#000000" font-family="sans-serif" font-size="13.75" lengthAdjust="spacing" textLength="83.75" x="132.4125" y="260.3186">phoneNumber</text><text fill="#000000" font-family="sans-serif" font-size="13.75" lengthAdjust="spacing" textLength="30" x="132.4125" y="277.6135">email</text><text fill="#000000" font-family="sans-serif" font-size="13.75" lengthAdjust="spacing" textLength="62.5" x="132.4125" y="294.9084">password</text><text fill="#000000" font-family="sans-serif" font-size="13.75" lengthAdjust="spacing" textLength="68.75" x="132.4125" y="312.2034">employeeID</text><text fill="#000000" font-family="sans-serif" font-size="13.75" lengthAdjust="spacing" textLength="53.75" x="132.4125" y="329.4983">socCode</text><text fill="#000000" font-family="sans-serif" font-size="13.75" lengthAdjust="spacing" textLength="100" x="132.4125" y="346.7932">organizationRole</text><text fill="#000000" font-family="sans-serif" font-size="13.75" lengthAdjust="spacing" textLength="50" x="132.4125" y="364.0881">address</text><line style="stroke:#A80036;stroke-width:1.875;" x1="126.1625" x2="238.6625" y1="372.1094" y2="372.1094"/><!--MD5=[4e608140b854dae633589343bce77383]
class TestParameterResult--><rect codeLine="26" fill="#FEFECE" filter="url(#fxfeqs1a8n7sz)" height="111.8848" id="TestParameterResult" style="stroke:#A80036;stroke-width:1.875;" width="187.5" x="248.6625" y="514.375"/><ellipse cx="267.4125" cy="534.375" fill="#ADD1B2" rx="13.75" ry="13.75" style="stroke:#A80036;stroke-width:1.25;"/><path d="M269.9125,530 Q270.1664,529.375 270.4594,529.0625 Q270.7523,528.75 271.0844,528.75 Q271.6703,528.75 272.0414,529.1016 Q272.4125,529.4531 272.4125,530.2734 L272.4125,532.2266 Q272.4125,533.0469 272.0609,533.3984 Q271.7094,533.75 271.1625,533.75 Q270.6742,533.75 270.3617,533.5352 Q270.0492,533.3203 269.9125,532.7539 Q269.8539,532.3633 269.6391,532.1484 Q269.2484,531.7383 268.5453,531.5039 Q267.8422,531.25 267.1391,531.25 Q266.2602,531.25 265.518,531.6016 Q264.7953,531.9531 264.2289,532.7344 Q263.6625,533.5156 263.6625,534.5898 L263.6625,535.7422 Q263.6625,537.0313 264.7172,537.8906 Q265.7719,538.75 267.6469,538.75 Q268.7602,538.75 269.5414,538.4961 Q269.9906,538.3594 270.4984,537.9102 Q270.8305,537.6563 271.0063,537.5781 Q271.182,537.5 271.3969,537.5 Q271.807,537.5 272.1,537.832 Q272.4125,538.1445 272.4125,538.5938 Q272.4125,539.0234 271.9828,539.5313 Q271.3578,540.2734 270.3617,540.6836 Q269.0531,541.25 267.4516,541.25 Q265.5766,541.25 264.0727,540.5078 Q262.8617,539.9219 262.0023,538.6523 Q261.1625,537.3828 261.1625,535.8789 L261.1625,534.5117 Q261.1625,532.9492 261.9047,531.582 Q262.6664,530.2148 263.975,529.4922 Q265.3031,528.75 266.7875,528.75 Q267.6859,528.75 268.4672,529.0625 Q269.2484,529.375 269.9125,530 Z " fill="#000000"/><text fill="#000000" font-family="sans-serif" font-size="15" lengthAdjust="spacing" textLength="147.5" x="284.9125" y="540.5127">TestParameterResult</text><line style="stroke:#A80036;stroke-width:1.875;" x1="249.9125" x2="434.9125" y1="554.375" y2="554.375"/><text fill="#000000" font-family="sans-serif" font-size="13.75" lengthAdjust="spacing" textLength="32.5" x="256.1625" y="573.6487">value</text><text fill="#000000" font-family="sans-serif" font-size="13.75" lengthAdjust="spacing" textLength="36.25" x="256.1625" y="590.9436">metric</text><text fill="#000000" font-family="sans-serif" font-size="13.75" lengthAdjust="spacing" textLength="60" x="256.1625" y="608.2385">createdAt</text><line style="stroke:#A80036;stroke-width:1.875;" x1="249.9125" x2="434.9125" y1="616.2598" y2="616.2598"/><!--MD5=[df38be88ccee13e832d6fafd6288a4ca]
class Test--><rect codeLine="32" fill="#FEFECE" filter="url(#fxfeqs1a8n7sz)" height="181.0645" id="Test" style="stroke:#A80036;stroke-width:1.875;" width="85" x="38.6625" y="480"/><ellipse cx="64.1625" cy="500" fill="#ADD1B2" rx="13.75" ry="13.75" style="stroke:#A80036;stroke-width:1.25;"/><path d="M66.6625,495.625 Q66.9164,495 67.2094,494.6875 Q67.5023,494.375 67.8344,494.375 Q68.4203,494.375 68.7914,494.7266 Q69.1625,495.0781 69.1625,495.8984 L69.1625,497.8516 Q69.1625,498.6719 68.8109,499.0234 Q68.4594,499.375 67.9125,499.375 Q67.4242,499.375 67.1117,499.1602 Q66.7992,498.9453 66.6625,498.3789 Q66.6039,497.9883 66.3891,497.7734 Q65.9984,497.3633 65.2953,497.1289 Q64.5922,496.875 63.8891,496.875 Q63.0102,496.875 62.268,497.2266 Q61.5453,497.5781 60.9789,498.3594 Q60.4125,499.1406 60.4125,500.2148 L60.4125,501.3672 Q60.4125,502.6563 61.4672,503.5156 Q62.5219,504.375 64.3969,504.375 Q65.5102,504.375 66.2914,504.1211 Q66.7406,503.9844 67.2484,503.5352 Q67.5805,503.2813 67.7563,503.2031 Q67.932,503.125 68.1469,503.125 Q68.557,503.125 68.85,503.457 Q69.1625,503.7695 69.1625,504.2188 Q69.1625,504.6484 68.7328,505.1563 Q68.1078,505.8984 67.1117,506.3086 Q65.8031,506.875 64.2016,506.875 Q62.3266,506.875 60.8227,506.1328 Q59.6117,505.5469 58.7523,504.2773 Q57.9125,503.0078 57.9125,501.5039 L57.9125,500.1367 Q57.9125,498.5742 58.6547,497.207 Q59.4164,495.8398 60.725,495.1172 Q62.0531,494.375 63.5375,494.375 Q64.4359,494.375 65.2172,494.6875 Q65.9984,495 66.6625,495.625 Z " fill="#000000"/><text fill="#000000" font-family="sans-serif" font-size="15" lengthAdjust="spacing" textLength="30" x="83.1625" y="506.1377">Test</text><line style="stroke:#A80036;stroke-width:1.875;" x1="39.9125" x2="122.4125" y1="520" y2="520"/><text fill="#000000" font-family="sans-serif" font-size="13.75" lengthAdjust="spacing" textLength="30" x="46.1625" y="539.2737">code</text><text fill="#000000" font-family="sans-serif" font-size="13.75" lengthAdjust="spacing" textLength="53.75" x="46.1625" y="556.5686">nhsCode</text><text fill="#000000" font-family="sans-serif" font-size="13.75" lengthAdjust="spacing" textLength="66.25" x="46.1625" y="573.8635">description</text><text fill="#000000" font-family="sans-serif" font-size="13.75" lengthAdjust="spacing" textLength="60" x="46.1625" y="591.1584">createdAt</text><text fill="#000000" font-family="sans-serif" font-size="13.75" lengthAdjust="spacing" textLength="70" x="46.1625" y="608.4534">sampleDate</text><text fill="#000000" font-family="sans-serif" font-size="13.75" lengthAdjust="spacing" textLength="61.25" x="46.1625" y="625.7483">resultDate</text><text fill="#000000" font-family="sans-serif" font-size="13.75" lengthAdjust="spacing" textLength="63.75" x="46.1625" y="643.0432">reportDate</text><line style="stroke:#A80036;stroke-width:1.875;" x1="39.9125" x2="122.4125" y1="651.0645" y2="651.0645"/><!--MD5=[1c357e7e7fdba398bcadd6e61afe49f5]
class ReferenceValue--><rect codeLine="42" fill="#FEFECE" filter="url(#fxfeqs1a8n7sz)" height="94.5898" id="ReferenceValue" style="stroke:#A80036;stroke-width:1.875;" width="150" x="267.4125" y="758.75"/><ellipse cx="286.1625" cy="778.75" fill="#ADD1B2" rx="13.75" ry="13.75" style="stroke:#A80036;stroke-width:1.25;"/><path d="M288.6625,774.375 Q288.9164,773.75 289.2094,773.4375 Q289.5023,773.125 289.8344,773.125 Q290.4203,773.125 290.7914,773.4766 Q291.1625,773.8281 291.1625,774.6484 L291.1625,776.6016 Q291.1625,777.4219 290.8109,777.7734 Q290.4594,778.125 289.9125,778.125 Q289.4242,778.125 289.1117,777.9102 Q288.7992,777.6953 288.6625,777.1289 Q288.6039,776.7383 288.3891,776.5234 Q287.9984,776.1133 287.2953,775.8789 Q286.5922,775.625 285.8891,775.625 Q285.0102,775.625 284.268,775.9766 Q283.5453,776.3281 282.9789,777.1094 Q282.4125,777.8906 282.4125,778.9648 L282.4125,780.1172 Q282.4125,781.4063 283.4672,782.2656 Q284.5219,783.125 286.3969,783.125 Q287.5102,783.125 288.2914,782.8711 Q288.7406,782.7344 289.2484,782.2852 Q289.5805,782.0313 289.7563,781.9531 Q289.932,781.875 290.1469,781.875 Q290.557,781.875 290.85,782.207 Q291.1625,782.5195 291.1625,782.9688 Q291.1625,783.3984 290.7328,783.9063 Q290.1078,784.6484 289.1117,785.0586 Q287.8031,785.625 286.2016,785.625 Q284.3266,785.625 282.8227,784.8828 Q281.6117,784.2969 280.7523,783.0273 Q279.9125,781.7578 279.9125,780.2539 L279.9125,778.8867 Q279.9125,777.3242 280.6547,775.957 Q281.4164,774.5898 282.725,773.8672 Q284.0531,773.125 285.5375,773.125 Q286.4359,773.125 287.2172,773.4375 Q287.9984,773.75 288.6625,774.375 Z " fill="#000000"/><text fill="#000000" font-family="sans-serif" font-size="15" lengthAdjust="spacing" textLength="110" x="303.6625" y="784.8877">ReferenceValue</text><line style="stroke:#A80036;stroke-width:1.875;" x1="268.6625" x2="416.1625" y1="798.75" y2="798.75"/><text fill="#000000" font-family="sans-serif" font-size="13.75" lengthAdjust="spacing" textLength="133.75" x="274.9125" y="818.0237">upperReferenceValue</text><text fill="#000000" font-family="sans-serif" font-size="13.75" lengthAdjust="spacing" textLength="133.75" x="274.9125" y="835.3186">lowerReferenceValue</text><line style="stroke:#A80036;stroke-width:1.875;" x1="268.6625" x2="416.1625" y1="843.3398" y2="843.3398"/><!--MD5=[e66f8c4fa516e197a55cf1b13c3927b3]
link SpecialistDoctor to Employee--><path codeLine="47" d="M230.55,86.725 C225.6,106.775 219.225,132.625 212.7375,158.9125 " fill="none" id="SpecialistDoctor-to-Employee" style="stroke:#A80036;stroke-width:1.25;"/><polygon fill="none" points="221.15,161.375,206.6625,183.55,204.15,157.1875,221.15,161.375" style="stroke:#A80036;stroke-width:1.25;"/><!--MD5=[9809f131518a531a93397184f13a27a2]
link SpecialistDoctor to TestReport--><path codeLine="48" d="M256.6125,86.725 C274.475,127.3625 302.8375,191.8625 322.0125,235.4875 " fill="none" id="SpecialistDoctor-TestReport" style="stroke:#A80036;stroke-width:1.25;"/><polygon fill="#000000" points="289.9278,140.9412,288.7406,129.1125,282.0145,132.0694,289.9278,140.9412" style="stroke:#000000;stroke-width:1.25;"/><text fill="#000000" font-family="sans-serif" font-size="16.25" lengthAdjust="spacing" textLength="71.25" x="298.6625" y="141.8689">generates</text><text fill="#000000" font-family="sans-serif" font-size="16.25" lengthAdjust="spacing" textLength="8.75" x="250.212" y="113.0388">1</text><text fill="#000000" font-family="sans-serif" font-size="16.25" lengthAdjust="spacing" textLength="8.75" x="308.8495" y="222.1654">1</text><!--MD5=[8e3f4062b5eef7f64025b4e9faa78fe5]
link TestReport to TestParameterResult--><path codeLine="50" d="M342.4125,330.8 C342.4125,380.9625 342.4125,460.8375 342.4125,514.175 " fill="none" id="TestReport-TestParameterResult" style="stroke:#A80036;stroke-width:1.25;"/><polygon fill="#000000" points="348.6625,437.7197,352.3362,426.4134,344.9888,426.4134,348.6625,437.7197" style="stroke:#000000;stroke-width:1.25;"/><text fill="#000000" font-family="sans-serif" font-size="16.25" lengthAdjust="spacing" textLength="107.5" x="359.9125" y="438.1189">generated from</text><text fill="#000000" font-family="sans-serif" font-size="16.25" lengthAdjust="spacing" textLength="8.75" x="332.9652" y="356.9286">1</text><text fill="#000000" font-family="sans-serif" font-size="16.25" lengthAdjust="spacing" textLength="25" x="315.4984" y="500.9495">1..*</text><!--MD5=[675d6c7c498151618f076cb352fafe57]
link TestReport to Test--><path codeLine="51" d="M305.775,330.9875 C292.425,347.5125 277.025,366.075 262.4125,382.5 C216.75,433.825 161.4125,490.0875 123.9875,527.325 " fill="none" id="TestReport-Test" style="stroke:#A80036;stroke-width:1.25;"/><polygon fill="#000000" points="225.6663,436.0558,236.0434,430.2554,230.6521,425.2636,225.6663,436.0558" style="stroke:#000000;stroke-width:1.25;"/><text fill="#000000" font-family="sans-serif" font-size="16.25" lengthAdjust="spacing" textLength="67.5" x="241.1625" y="438.1189">relates to</text><text fill="#000000" font-family="sans-serif" font-size="16.25" lengthAdjust="spacing" textLength="27.5" x="270.2445" y="357.1459">0..1</text><text fill="#000000" font-family="sans-serif" font-size="16.25" lengthAdjust="spacing" textLength="8.75" x="133.7225" y="513.2652">1</text><!--MD5=[52200cc2361fa0ac0481dd6ffcdb824b]
link TestParameterResult to ReferenceValue--><path codeLine="53" d="M342.4125,627.125 C342.4125,667.1125 342.4125,720.5625 342.4125,758.4 " fill="none" id="TestParameterResult-ReferenceValue" style="stroke:#A80036;stroke-width:1.25;"/><polygon fill="#000000" points="348.6625,716.4697,352.3362,705.1634,344.9888,705.1634,348.6625,716.4697" style="stroke:#000000;stroke-width:1.25;"/><text fill="#000000" font-family="sans-serif" font-size="16.25" lengthAdjust="spacing" textLength="53.75" x="359.9125" y="716.8689">records</text><text fill="#000000" font-family="sans-serif" font-size="16.25" lengthAdjust="spacing" textLength="8.75" x="333.0746" y="653.0007">1</text><text fill="#000000" font-family="sans-serif" font-size="16.25" lengthAdjust="spacing" textLength="8.75" x="332.8832" y="745.04">1</text><!--MD5=[7e4bc624457760b649895ff2ead938fa]
link Company to Test--><path codeLine="55" d="M47.5875,86.4625 C37.925,113.15 26.2,150.0625 21.1625,183.75 C8.1125,271.1125 7.5,295.225 21.1625,382.5 C26.25,414.9875 36.025,449.5375 46.2375,479.975 " fill="none" id="Company-Test" style="stroke:#A80036;stroke-width:1.25;"/><polygon fill="#000000" points="27.3911,289.5947,31.1035,278.301,23.7562,278.2758,27.3911,289.5947" style="stroke:#000000;stroke-width:1.25;"/><text fill="#000000" font-family="sans-serif" font-size="16.25" lengthAdjust="spacing" textLength="62.5" x="38.6625" y="289.9939">performs</text><text fill="#000000" font-family="sans-serif" font-size="16.25" lengthAdjust="spacing" textLength="8.75" x="35.0575" y="113.0343">1</text><text fill="#000000" font-family="sans-serif" font-size="16.25" lengthAdjust="spacing" textLength="6.25" x="36.0636" y="466.4966">*</text><!--MD5=[09366576ee87d48d594df10cacc83f45]
link Company to Employee--><path codeLine="56" d="M81.9625,86.725 C95.5125,113.05 114.2125,149.375 131.8,183.55 " fill="none" id="Company-Employee" style="stroke:#A80036;stroke-width:1.25;"/><polygon fill="#000000" points="121.5228,140.7768,119.6148,129.0427,113.0821,132.4052,121.5228,140.7768" style="stroke:#000000;stroke-width:1.25;"/><text fill="#000000" font-family="sans-serif" font-size="16.25" lengthAdjust="spacing" textLength="26.25" x="129.9125" y="141.8689">has</text><text fill="#000000" font-family="sans-serif" font-size="16.25" lengthAdjust="spacing" textLength="8.75" x="76.1052" y="113.0388">1</text><text fill="#000000" font-family="sans-serif" font-size="16.25" lengthAdjust="spacing" textLength="25" x="100.7846" y="170.0146">1..*</text><!--MD5=[23a34063854197791541e6e1c4c5e703]
@startuml
'https://plantuml.com/class-diagram

class Company{
    designation
}

class SpecialistDoctor{
    doctorIndexNumber
}

class TestReport{
    description
    header
}
class Employee{
    name
    phoneNumber
    email
    password
    employeeID
    socCode
    organizationRole
    address
}

class TestParameterResult{
    value
    metric
    createdAt
}

class Test{
    code
    nhsCode
    description
    createdAt
    sampleDate
    resultDate
    reportDate
}

class ReferenceValue {
    upperReferenceValue
    lowerReferenceValue
}

SpecialistDoctor - -|> Employee
SpecialistDoctor "1" - - "1" TestReport: generates >

TestReport "1" - - "1..*" TestParameterResult: generated from >
TestReport "0..1" - - "1" Test: relates to >

TestParameterResult "1" - - "1" ReferenceValue: records >

Company "1" - - "*" Test: performs >
Company "1" - - "1..*" Employee: has >

@enduml

@startuml

class Company{
    designation
}

class SpecialistDoctor{
    doctorIndexNumber
}

class TestReport{
    description
    header
}
class Employee{
    name
    phoneNumber
    email
    password
    employeeID
    socCode
    organizationRole
    address
}

class TestParameterResult{
    value
    metric
    createdAt
}

class Test{
    code
    nhsCode
    description
    createdAt
    sampleDate
    resultDate
    reportDate
}

class ReferenceValue {
    upperReferenceValue
    lowerReferenceValue
}

SpecialistDoctor - -|> Employee
SpecialistDoctor "1" - - "1" TestReport: generates >

TestReport "1" - - "1..*" TestParameterResult: generated from >
TestReport "0..1" - - "1" Test: relates to >

TestParameterResult "1" - - "1" ReferenceValue: records >

Company "1" - - "*" Test: performs >
Company "1" - - "1..*" Employee: has >

@enduml

PlantUML version 1.2021.00(Sun Jan 10 10:25:05 GMT 2021)
(GPL source distribution)
Java Runtime: OpenJDK Runtime Environment
JVM: OpenJDK 64-Bit Server VM
Default Encoding: Cp1252
Language: pt
Country: PT
--></g></svg>