<?xml version="1.0" encoding="UTF-8" standalone="no"?><svg xmlns="http://www.w3.org/2000/svg" xmlns:xlink="http://www.w3.org/1999/xlink" contentScriptType="application/ecmascript" contentStyleType="text/css" height="2071.25px" preserveAspectRatio="none" style="width:1375px;height:2071px;" version="1.1" viewBox="0 0 1375 2071" width="1375px" zoomAndPan="magnify"><defs><filter height="300%" id="ficdilhtdl4wl" width="300%" x="-1" y="-1"><feGaussianBlur result="blurOut" stdDeviation="2.5"/><feColorMatrix in="blurOut" result="blurOut2" type="matrix" values="0 0 0 0 0 0 0 0 0 0 0 0 0 0 0 0 0 0 .4 0"/><feOffset dx="5.0" dy="5.0" in="blurOut2" result="blurOut3"/><feBlend in="SourceGraphic" in2="blurOut3" mode="normal"/></filter></defs><g><!--MD5=[02e4b9b7573f1156f41e60aa5b4e25a4]
class Company--><rect codeLine="2" fill="#FEFECE" filter="url(#ficdilhtdl4wl)" height="146.4746" id="Company" style="stroke:#A80036;stroke-width:1.875;" width="155" x="860" y="506.25"/><ellipse cx="900.6875" cy="526.25" fill="#ADD1B2" rx="13.75" ry="13.75" style="stroke:#A80036;stroke-width:1.25;"/><path d="M903.1875,521.875 Q903.4414,521.25 903.7344,520.9375 Q904.0273,520.625 904.3594,520.625 Q904.9453,520.625 905.3164,520.9766 Q905.6875,521.3281 905.6875,522.1484 L905.6875,524.1016 Q905.6875,524.9219 905.3359,525.2734 Q904.9844,525.625 904.4375,525.625 Q903.9492,525.625 903.6367,525.4102 Q903.3242,525.1953 903.1875,524.6289 Q903.1289,524.2383 902.9141,524.0234 Q902.5234,523.6133 901.8203,523.3789 Q901.1172,523.125 900.4141,523.125 Q899.5352,523.125 898.793,523.4766 Q898.0703,523.8281 897.5039,524.6094 Q896.9375,525.3906 896.9375,526.4648 L896.9375,527.6172 Q896.9375,528.9063 897.9922,529.7656 Q899.0469,530.625 900.9219,530.625 Q902.0352,530.625 902.8164,530.3711 Q903.2656,530.2344 903.7734,529.7852 Q904.1055,529.5313 904.2813,529.4531 Q904.457,529.375 904.6719,529.375 Q905.082,529.375 905.375,529.707 Q905.6875,530.0195 905.6875,530.4688 Q905.6875,530.8984 905.2578,531.4063 Q904.6328,532.1484 903.6367,532.5586 Q902.3281,533.125 900.7266,533.125 Q898.8516,533.125 897.3477,532.3828 Q896.1367,531.7969 895.2773,530.5273 Q894.4375,529.2578 894.4375,527.7539 L894.4375,526.3867 Q894.4375,524.8242 895.1797,523.457 Q895.9414,522.0898 897.25,521.3672 Q898.5781,520.625 900.0625,520.625 Q900.9609,520.625 901.7422,520.9375 Q902.5234,521.25 903.1875,521.875 Z " fill="#000000"/><text fill="#000000" font-family="sans-serif" font-size="15" lengthAdjust="spacing" textLength="66.25" x="923.0625" y="532.3877">Company</text><line style="stroke:#A80036;stroke-width:1.875;" x1="861.25" x2="1013.75" y1="546.25" y2="546.25"/><rect fill="none" height="7.5" style="stroke:#C82930;stroke-width:1.25;" width="7.5" x="870" y="556.25"/><text fill="#000000" font-family="sans-serif" font-size="13.75" lengthAdjust="spacing" textLength="68.75" x="885" y="565.5237">designation</text><line style="stroke:#A80036;stroke-width:1.875;" x1="861.25" x2="1013.75" y1="573.5449" y2="573.5449"/><ellipse cx="873.75" cy="587.2949" fill="#84BE84" rx="3.75" ry="3.75" style="stroke:#038048;stroke-width:1.25;"/><text fill="#000000" font-family="sans-serif" font-size="13.75" lengthAdjust="spacing" textLength="102.5" x="885" y="592.8186">getAuthFacade()</text><ellipse cx="873.75" cy="604.5898" fill="#84BE84" rx="3.75" ry="3.75" style="stroke:#038048;stroke-width:1.25;"/><text fill="#000000" font-family="sans-serif" font-size="13.75" lengthAdjust="spacing" textLength="122.5" x="885" y="610.1135">getParameterStore()</text><ellipse cx="873.75" cy="621.8848" fill="#84BE84" rx="3.75" ry="3.75" style="stroke:#038048;stroke-width:1.25;"/><text fill="#000000" font-family="sans-serif" font-size="13.75" lengthAdjust="spacing" textLength="87.5" x="885" y="627.4084">getTestStore()</text><ellipse cx="873.75" cy="639.1797" fill="#84BE84" rx="3.75" ry="3.75" style="stroke:#038048;stroke-width:1.25;"/><text fill="#000000" font-family="sans-serif" font-size="13.75" lengthAdjust="spacing" textLength="52.5" x="885" y="644.7034">listDTO()</text><!--MD5=[0f07739f46effee96e095e9c408da841]
class TestParameter--><rect codeLine="11" fill="#FEFECE" filter="url(#ficdilhtdl4wl)" height="111.8848" id="TestParameter" style="stroke:#A80036;stroke-width:1.875;" width="142.5" x="1057.5" y="1575"/><ellipse cx="1076.25" cy="1595" fill="#ADD1B2" rx="13.75" ry="13.75" style="stroke:#A80036;stroke-width:1.25;"/><path d="M1078.75,1590.625 Q1079.0039,1590 1079.2969,1589.6875 Q1079.5898,1589.375 1079.9219,1589.375 Q1080.5078,1589.375 1080.8789,1589.7266 Q1081.25,1590.0781 1081.25,1590.8984 L1081.25,1592.8516 Q1081.25,1593.6719 1080.8984,1594.0234 Q1080.5469,1594.375 1080,1594.375 Q1079.5117,1594.375 1079.1992,1594.1602 Q1078.8867,1593.9453 1078.75,1593.3789 Q1078.6914,1592.9883 1078.4766,1592.7734 Q1078.0859,1592.3633 1077.3828,1592.1289 Q1076.6797,1591.875 1075.9766,1591.875 Q1075.0977,1591.875 1074.3555,1592.2266 Q1073.6328,1592.5781 1073.0664,1593.3594 Q1072.5,1594.1406 1072.5,1595.2148 L1072.5,1596.3672 Q1072.5,1597.6563 1073.5547,1598.5156 Q1074.6094,1599.375 1076.4844,1599.375 Q1077.5977,1599.375 1078.3789,1599.1211 Q1078.8281,1598.9844 1079.3359,1598.5352 Q1079.668,1598.2813 1079.8438,1598.2031 Q1080.0195,1598.125 1080.2344,1598.125 Q1080.6445,1598.125 1080.9375,1598.457 Q1081.25,1598.7695 1081.25,1599.2188 Q1081.25,1599.6484 1080.8203,1600.1563 Q1080.1953,1600.8984 1079.1992,1601.3086 Q1077.8906,1601.875 1076.2891,1601.875 Q1074.4141,1601.875 1072.9102,1601.1328 Q1071.6992,1600.5469 1070.8398,1599.2773 Q1070,1598.0078 1070,1596.5039 L1070,1595.1367 Q1070,1593.5742 1070.7422,1592.207 Q1071.5039,1590.8398 1072.8125,1590.1172 Q1074.1406,1589.375 1075.625,1589.375 Q1076.5234,1589.375 1077.3047,1589.6875 Q1078.0859,1590 1078.75,1590.625 Z " fill="#000000"/><text fill="#000000" font-family="sans-serif" font-size="15" lengthAdjust="spacing" textLength="102.5" x="1093.75" y="1601.1377">TestParameter</text><line style="stroke:#A80036;stroke-width:1.875;" x1="1058.75" x2="1198.75" y1="1615" y2="1615"/><rect fill="none" height="7.5" style="stroke:#C82930;stroke-width:1.25;" width="7.5" x="1067.5" y="1625"/><text fill="#000000" font-family="sans-serif" font-size="13.75" lengthAdjust="spacing" textLength="61.25" x="1082.5" y="1634.2737">parameter</text><line style="stroke:#A80036;stroke-width:1.875;" x1="1058.75" x2="1198.75" y1="1642.2949" y2="1642.2949"/><ellipse cx="1071.25" cy="1656.0449" fill="#84BE84" rx="3.75" ry="3.75" style="stroke:#038048;stroke-width:1.25;"/><text fill="#000000" font-family="sans-serif" font-size="13.75" lengthAdjust="spacing" textLength="56.25" x="1082.5" y="1661.5686">toString()</text><ellipse cx="1071.25" cy="1673.3398" fill="#84BE84" rx="3.75" ry="3.75" style="stroke:#038048;stroke-width:1.25;"/><text fill="#000000" font-family="sans-serif" font-size="13.75" lengthAdjust="spacing" textLength="92.5" x="1082.5" y="1678.8635">getTestResult()</text><!--MD5=[4e608140b854dae633589343bce77383]
class TestParameterResult--><rect codeLine="18" fill="#FEFECE" filter="url(#ficdilhtdl4wl)" height="77.2949" id="TestParameterResult" style="stroke:#A80036;stroke-width:1.875;" width="187.5" x="1035" y="1823.75"/><ellipse cx="1053.75" cy="1843.75" fill="#ADD1B2" rx="13.75" ry="13.75" style="stroke:#A80036;stroke-width:1.25;"/><path d="M1056.25,1839.375 Q1056.5039,1838.75 1056.7969,1838.4375 Q1057.0898,1838.125 1057.4219,1838.125 Q1058.0078,1838.125 1058.3789,1838.4766 Q1058.75,1838.8281 1058.75,1839.6484 L1058.75,1841.6016 Q1058.75,1842.4219 1058.3984,1842.7734 Q1058.0469,1843.125 1057.5,1843.125 Q1057.0117,1843.125 1056.6992,1842.9102 Q1056.3867,1842.6953 1056.25,1842.1289 Q1056.1914,1841.7383 1055.9766,1841.5234 Q1055.5859,1841.1133 1054.8828,1840.8789 Q1054.1797,1840.625 1053.4766,1840.625 Q1052.5977,1840.625 1051.8555,1840.9766 Q1051.1328,1841.3281 1050.5664,1842.1094 Q1050,1842.8906 1050,1843.9648 L1050,1845.1172 Q1050,1846.4063 1051.0547,1847.2656 Q1052.1094,1848.125 1053.9844,1848.125 Q1055.0977,1848.125 1055.8789,1847.8711 Q1056.3281,1847.7344 1056.8359,1847.2852 Q1057.168,1847.0313 1057.3438,1846.9531 Q1057.5195,1846.875 1057.7344,1846.875 Q1058.1445,1846.875 1058.4375,1847.207 Q1058.75,1847.5195 1058.75,1847.9688 Q1058.75,1848.3984 1058.3203,1848.9063 Q1057.6953,1849.6484 1056.6992,1850.0586 Q1055.3906,1850.625 1053.7891,1850.625 Q1051.9141,1850.625 1050.4102,1849.8828 Q1049.1992,1849.2969 1048.3398,1848.0273 Q1047.5,1846.7578 1047.5,1845.2539 L1047.5,1843.8867 Q1047.5,1842.3242 1048.2422,1840.957 Q1049.0039,1839.5898 1050.3125,1838.8672 Q1051.6406,1838.125 1053.125,1838.125 Q1054.0234,1838.125 1054.8047,1838.4375 Q1055.5859,1838.75 1056.25,1839.375 Z " fill="#000000"/><text fill="#000000" font-family="sans-serif" font-size="15" lengthAdjust="spacing" textLength="147.5" x="1071.25" y="1849.8877">TestParameterResult</text><line style="stroke:#A80036;stroke-width:1.875;" x1="1036.25" x2="1221.25" y1="1863.75" y2="1863.75"/><line style="stroke:#A80036;stroke-width:1.875;" x1="1036.25" x2="1221.25" y1="1873.75" y2="1873.75"/><ellipse cx="1048.75" cy="1887.5" fill="#84BE84" rx="3.75" ry="3.75" style="stroke:#038048;stroke-width:1.25;"/><text fill="#000000" font-family="sans-serif" font-size="13.75" lengthAdjust="spacing" textLength="85" x="1060" y="1893.0237">getRefValue()</text><!--MD5=[1c357e7e7fdba398bcadd6e61afe49f5]
class ReferenceValue--><rect codeLine="22" fill="#FEFECE" filter="url(#ficdilhtdl4wl)" height="77.2949" id="ReferenceValue" style="stroke:#A80036;stroke-width:1.875;" width="150" x="1053.75" y="1977.5"/><ellipse cx="1072.5" cy="1997.5" fill="#ADD1B2" rx="13.75" ry="13.75" style="stroke:#A80036;stroke-width:1.25;"/><path d="M1075,1993.125 Q1075.2539,1992.5 1075.5469,1992.1875 Q1075.8398,1991.875 1076.1719,1991.875 Q1076.7578,1991.875 1077.1289,1992.2266 Q1077.5,1992.5781 1077.5,1993.3984 L1077.5,1995.3516 Q1077.5,1996.1719 1077.1484,1996.5234 Q1076.7969,1996.875 1076.25,1996.875 Q1075.7617,1996.875 1075.4492,1996.6602 Q1075.1367,1996.4453 1075,1995.8789 Q1074.9414,1995.4883 1074.7266,1995.2734 Q1074.3359,1994.8633 1073.6328,1994.6289 Q1072.9297,1994.375 1072.2266,1994.375 Q1071.3477,1994.375 1070.6055,1994.7266 Q1069.8828,1995.0781 1069.3164,1995.8594 Q1068.75,1996.6406 1068.75,1997.7148 L1068.75,1998.8672 Q1068.75,2000.1563 1069.8047,2001.0156 Q1070.8594,2001.875 1072.7344,2001.875 Q1073.8477,2001.875 1074.6289,2001.6211 Q1075.0781,2001.4844 1075.5859,2001.0352 Q1075.918,2000.7813 1076.0938,2000.7031 Q1076.2695,2000.625 1076.4844,2000.625 Q1076.8945,2000.625 1077.1875,2000.957 Q1077.5,2001.2695 1077.5,2001.7188 Q1077.5,2002.1484 1077.0703,2002.6563 Q1076.4453,2003.3984 1075.4492,2003.8086 Q1074.1406,2004.375 1072.5391,2004.375 Q1070.6641,2004.375 1069.1602,2003.6328 Q1067.9492,2003.0469 1067.0898,2001.7773 Q1066.25,2000.5078 1066.25,1999.0039 L1066.25,1997.6367 Q1066.25,1996.0742 1066.9922,1994.707 Q1067.7539,1993.3398 1069.0625,1992.6172 Q1070.3906,1991.875 1071.875,1991.875 Q1072.7734,1991.875 1073.5547,1992.1875 Q1074.3359,1992.5 1075,1993.125 Z " fill="#000000"/><text fill="#000000" font-family="sans-serif" font-size="15" lengthAdjust="spacing" textLength="110" x="1090" y="2003.6377">ReferenceValue</text><line style="stroke:#A80036;stroke-width:1.875;" x1="1055" x2="1202.5" y1="2017.5" y2="2017.5"/><line style="stroke:#A80036;stroke-width:1.875;" x1="1055" x2="1202.5" y1="2027.5" y2="2027.5"/><ellipse cx="1067.5" cy="2041.25" fill="#84BE84" rx="3.75" ry="3.75" style="stroke:#038048;stroke-width:1.25;"/><text fill="#000000" font-family="sans-serif" font-size="13.75" lengthAdjust="spacing" textLength="56.25" x="1078.75" y="2046.7737">toString()</text><!--MD5=[df38be88ccee13e832d6fafd6288a4ca]
class Test--><rect codeLine="26" fill="#FEFECE" filter="url(#ficdilhtdl4wl)" height="388.6035" id="Test" style="stroke:#A80036;stroke-width:1.875;" width="251.25" x="839.375" y="1028.75"/><ellipse cx="944.6875" cy="1048.75" fill="#ADD1B2" rx="13.75" ry="13.75" style="stroke:#A80036;stroke-width:1.25;"/><path d="M947.1875,1044.375 Q947.4414,1043.75 947.7344,1043.4375 Q948.0273,1043.125 948.3594,1043.125 Q948.9453,1043.125 949.3164,1043.4766 Q949.6875,1043.8281 949.6875,1044.6484 L949.6875,1046.6016 Q949.6875,1047.4219 949.3359,1047.7734 Q948.9844,1048.125 948.4375,1048.125 Q947.9492,1048.125 947.6367,1047.9102 Q947.3242,1047.6953 947.1875,1047.1289 Q947.1289,1046.7383 946.9141,1046.5234 Q946.5234,1046.1133 945.8203,1045.8789 Q945.1172,1045.625 944.4141,1045.625 Q943.5352,1045.625 942.793,1045.9766 Q942.0703,1046.3281 941.5039,1047.1094 Q940.9375,1047.8906 940.9375,1048.9648 L940.9375,1050.1172 Q940.9375,1051.4063 941.9922,1052.2656 Q943.0469,1053.125 944.9219,1053.125 Q946.0352,1053.125 946.8164,1052.8711 Q947.2656,1052.7344 947.7734,1052.2852 Q948.1055,1052.0313 948.2813,1051.9531 Q948.457,1051.875 948.6719,1051.875 Q949.082,1051.875 949.375,1052.207 Q949.6875,1052.5195 949.6875,1052.9688 Q949.6875,1053.3984 949.2578,1053.9063 Q948.6328,1054.6484 947.6367,1055.0586 Q946.3281,1055.625 944.7266,1055.625 Q942.8516,1055.625 941.3477,1054.8828 Q940.1367,1054.2969 939.2773,1053.0273 Q938.4375,1051.7578 938.4375,1050.2539 L938.4375,1048.8867 Q938.4375,1047.3242 939.1797,1045.957 Q939.9414,1044.5898 941.25,1043.8672 Q942.5781,1043.125 944.0625,1043.125 Q944.9609,1043.125 945.7422,1043.4375 Q946.5234,1043.75 947.1875,1044.375 Z " fill="#000000"/><text fill="#000000" font-family="sans-serif" font-size="15" lengthAdjust="spacing" textLength="30" x="970.3125" y="1054.8877">Test</text><line style="stroke:#A80036;stroke-width:1.875;" x1="840.625" x2="1089.375" y1="1068.75" y2="1068.75"/><rect fill="none" height="7.5" style="stroke:#C82930;stroke-width:1.25;" width="7.5" x="849.375" y="1078.75"/><text fill="#000000" font-family="sans-serif" font-size="13.75" lengthAdjust="spacing" textLength="30" x="864.375" y="1088.0237">code</text><rect fill="none" height="7.5" style="stroke:#C82930;stroke-width:1.25;" width="7.5" x="849.375" y="1096.0449"/><text fill="#000000" font-family="sans-serif" font-size="13.75" lengthAdjust="spacing" textLength="53.75" x="864.375" y="1105.3186">nhsCode</text><rect fill="none" height="7.5" style="stroke:#C82930;stroke-width:1.25;" width="7.5" x="849.375" y="1113.3398"/><text fill="#000000" font-family="sans-serif" font-size="13.75" lengthAdjust="spacing" textLength="60" x="864.375" y="1122.6135">createdAt</text><rect fill="none" height="7.5" style="stroke:#C82930;stroke-width:1.25;" width="7.5" x="849.375" y="1130.6348"/><text fill="#000000" font-family="sans-serif" font-size="13.75" lengthAdjust="spacing" textLength="70" x="864.375" y="1139.9084">sampleDate</text><rect fill="none" height="7.5" style="stroke:#C82930;stroke-width:1.25;" width="7.5" x="849.375" y="1147.9297"/><text fill="#000000" font-family="sans-serif" font-size="13.75" lengthAdjust="spacing" textLength="61.25" x="864.375" y="1157.2034">resultDate</text><rect fill="none" height="7.5" style="stroke:#C82930;stroke-width:1.25;" width="7.5" x="849.375" y="1165.2246"/><text fill="#000000" font-family="sans-serif" font-size="13.75" lengthAdjust="spacing" textLength="63.75" x="864.375" y="1174.4983">reportDate</text><line style="stroke:#A80036;stroke-width:1.875;" x1="840.625" x2="1089.375" y1="1182.5195" y2="1182.5195"/><ellipse cx="853.125" cy="1196.2695" fill="#84BE84" rx="3.75" ry="3.75" style="stroke:#038048;stroke-width:1.25;"/><text fill="#000000" font-family="sans-serif" font-size="13.75" lengthAdjust="spacing" textLength="83.75" x="864.375" y="1201.7932">getNhsCode()</text><ellipse cx="853.125" cy="1213.5645" fill="#84BE84" rx="3.75" ry="3.75" style="stroke:#038048;stroke-width:1.25;"/><text fill="#000000" font-family="sans-serif" font-size="13.75" lengthAdjust="spacing" textLength="196.25" x="864.375" y="1219.0881">getTestParameterByCode(index)</text><ellipse cx="853.125" cy="1230.8594" fill="#84BE84" rx="3.75" ry="3.75" style="stroke:#038048;stroke-width:1.25;"/><text fill="#000000" font-family="sans-serif" font-size="13.75" lengthAdjust="spacing" textLength="137.5" x="864.375" y="1236.3831">getTestParameterList()</text><ellipse cx="853.125" cy="1248.1543" fill="#84BE84" rx="3.75" ry="3.75" style="stroke:#038048;stroke-width:1.25;"/><text fill="#000000" font-family="sans-serif" font-size="13.75" lengthAdjust="spacing" textLength="77.5" x="864.375" y="1253.678">hasResults()</text><ellipse cx="853.125" cy="1265.4492" fill="#84BE84" rx="3.75" ry="3.75" style="stroke:#038048;stroke-width:1.25;"/><text fill="#000000" font-family="sans-serif" font-size="13.75" lengthAdjust="spacing" textLength="72.5" x="864.375" y="1270.9729">hasReport()</text><ellipse cx="853.125" cy="1282.7441" fill="#84BE84" rx="3.75" ry="3.75" style="stroke:#038048;stroke-width:1.25;"/><text fill="#000000" font-family="sans-serif" font-size="13.75" lengthAdjust="spacing" textLength="218.75" x="864.375" y="1288.2678">getParametersAssociatedWithTest()</text><ellipse cx="853.125" cy="1300.0391" fill="#84BE84" rx="3.75" ry="3.75" style="stroke:#038048;stroke-width:1.25;"/><text fill="#000000" font-family="sans-serif" font-size="13.75" lengthAdjust="spacing" textLength="161.25" x="864.375" y="1305.5627">addTestReport(testReport)</text><ellipse cx="853.125" cy="1317.334" fill="#84BE84" rx="3.75" ry="3.75" style="stroke:#038048;stroke-width:1.25;"/><text fill="#000000" font-family="sans-serif" font-size="13.75" lengthAdjust="spacing" textLength="100" x="864.375" y="1322.8577">addReportDate()</text><ellipse cx="853.125" cy="1334.6289" fill="#84BE84" rx="3.75" ry="3.75" style="stroke:#038048;stroke-width:1.25;"/><text fill="#000000" font-family="sans-serif" font-size="13.75" lengthAdjust="spacing" textLength="90" x="864.375" y="1340.1526">getCreatedAt()</text><ellipse cx="853.125" cy="1351.9238" fill="#84BE84" rx="3.75" ry="3.75" style="stroke:#038048;stroke-width:1.25;"/><text fill="#000000" font-family="sans-serif" font-size="13.75" lengthAdjust="spacing" textLength="100" x="864.375" y="1357.4475">getSampleDate()</text><ellipse cx="853.125" cy="1369.2188" fill="#84BE84" rx="3.75" ry="3.75" style="stroke:#038048;stroke-width:1.25;"/><text fill="#000000" font-family="sans-serif" font-size="13.75" lengthAdjust="spacing" textLength="93.75" x="864.375" y="1374.7424">getResultDate()</text><ellipse cx="853.125" cy="1386.5137" fill="#84BE84" rx="3.75" ry="3.75" style="stroke:#038048;stroke-width:1.25;"/><text fill="#000000" font-family="sans-serif" font-size="13.75" lengthAdjust="spacing" textLength="60" x="864.375" y="1392.0374">getCode()</text><ellipse cx="853.125" cy="1403.8086" fill="#84BE84" rx="3.75" ry="3.75" style="stroke:#038048;stroke-width:1.25;"/><text fill="#000000" font-family="sans-serif" font-size="13.75" lengthAdjust="spacing" textLength="95" x="864.375" y="1409.3323">getTestReport()</text><!--MD5=[9fb704ffefcaf68bf1a361787afa998b]
class TestDTO--><rect codeLine="49" fill="#FEFECE" filter="url(#ficdilhtdl4wl)" height="163.7695" id="TestDTO" style="stroke:#A80036;stroke-width:1.875;" width="332.5" x="8.75" y="758.75"/><ellipse cx="139.0625" cy="778.75" fill="#ADD1B2" rx="13.75" ry="13.75" style="stroke:#A80036;stroke-width:1.25;"/><path d="M141.5625,774.375 Q141.8164,773.75 142.1094,773.4375 Q142.4023,773.125 142.7344,773.125 Q143.3203,773.125 143.6914,773.4766 Q144.0625,773.8281 144.0625,774.6484 L144.0625,776.6016 Q144.0625,777.4219 143.7109,777.7734 Q143.3594,778.125 142.8125,778.125 Q142.3242,778.125 142.0117,777.9102 Q141.6992,777.6953 141.5625,777.1289 Q141.5039,776.7383 141.2891,776.5234 Q140.8984,776.1133 140.1953,775.8789 Q139.4922,775.625 138.7891,775.625 Q137.9102,775.625 137.168,775.9766 Q136.4453,776.3281 135.8789,777.1094 Q135.3125,777.8906 135.3125,778.9648 L135.3125,780.1172 Q135.3125,781.4063 136.3672,782.2656 Q137.4219,783.125 139.2969,783.125 Q140.4102,783.125 141.1914,782.8711 Q141.6406,782.7344 142.1484,782.2852 Q142.4805,782.0313 142.6563,781.9531 Q142.832,781.875 143.0469,781.875 Q143.457,781.875 143.75,782.207 Q144.0625,782.5195 144.0625,782.9688 Q144.0625,783.3984 143.6328,783.9063 Q143.0078,784.6484 142.0117,785.0586 Q140.7031,785.625 139.1016,785.625 Q137.2266,785.625 135.7227,784.8828 Q134.5117,784.2969 133.6523,783.0273 Q132.8125,781.7578 132.8125,780.2539 L132.8125,778.8867 Q132.8125,777.3242 133.5547,775.957 Q134.3164,774.5898 135.625,773.8672 Q136.9531,773.125 138.4375,773.125 Q139.3359,773.125 140.1172,773.4375 Q140.8984,773.75 141.5625,774.375 Z " fill="#000000"/><text fill="#000000" font-family="sans-serif" font-size="15" lengthAdjust="spacing" textLength="61.25" x="164.6875" y="784.8877">TestDTO</text><line style="stroke:#A80036;stroke-width:1.875;" x1="10" x2="340" y1="798.75" y2="798.75"/><rect fill="none" height="7.5" style="stroke:#C82930;stroke-width:1.25;" width="7.5" x="18.75" y="808.75"/><text fill="#000000" font-family="sans-serif" font-size="13.75" lengthAdjust="spacing" textLength="30" x="33.75" y="818.0237">code</text><rect fill="none" height="7.5" style="stroke:#C82930;stroke-width:1.25;" width="7.5" x="18.75" y="826.0449"/><text fill="#000000" font-family="sans-serif" font-size="13.75" lengthAdjust="spacing" textLength="60" x="33.75" y="835.3186">createdAt</text><rect fill="none" height="7.5" style="stroke:#C82930;stroke-width:1.25;" width="7.5" x="18.75" y="843.3398"/><text fill="#000000" font-family="sans-serif" font-size="13.75" lengthAdjust="spacing" textLength="70" x="33.75" y="852.6135">sampleDate</text><rect fill="none" height="7.5" style="stroke:#C82930;stroke-width:1.25;" width="7.5" x="18.75" y="860.6348"/><text fill="#000000" font-family="sans-serif" font-size="13.75" lengthAdjust="spacing" textLength="61.25" x="33.75" y="869.9084">resultDate</text><line style="stroke:#A80036;stroke-width:1.875;" x1="10" x2="340" y1="877.9297" y2="877.9297"/><ellipse cx="22.5" cy="891.6797" fill="#84BE84" rx="3.75" ry="3.75" style="stroke:#038048;stroke-width:1.25;"/><text fill="#000000" font-family="sans-serif" font-size="13.75" lengthAdjust="spacing" textLength="300" x="33.75" y="897.2034">TestDto(code, createdAt, sampleDate, resultDate)</text><ellipse cx="22.5" cy="908.9746" fill="#84BE84" rx="3.75" ry="3.75" style="stroke:#038048;stroke-width:1.25;"/><text fill="#000000" font-family="sans-serif" font-size="13.75" lengthAdjust="spacing" textLength="167.5" x="33.75" y="914.4983">toStringTestWithoutReport()</text><!--MD5=[144698ec4d0188f6929a3b58a3eeb1f6]
class TestMapper--><rect codeLine="59" fill="#FEFECE" filter="url(#ficdilhtdl4wl)" height="94.5898" id="TestMapper" style="stroke:#A80036;stroke-width:1.875;" width="195" x="522.5" y="531.875"/><ellipse cx="574.4375" cy="551.875" fill="#ADD1B2" rx="13.75" ry="13.75" style="stroke:#A80036;stroke-width:1.25;"/><path d="M576.9375,547.5 Q577.1914,546.875 577.4844,546.5625 Q577.7773,546.25 578.1094,546.25 Q578.6953,546.25 579.0664,546.6016 Q579.4375,546.9531 579.4375,547.7734 L579.4375,549.7266 Q579.4375,550.5469 579.0859,550.8984 Q578.7344,551.25 578.1875,551.25 Q577.6992,551.25 577.3867,551.0352 Q577.0742,550.8203 576.9375,550.2539 Q576.8789,549.8633 576.6641,549.6484 Q576.2734,549.2383 575.5703,549.0039 Q574.8672,548.75 574.1641,548.75 Q573.2852,548.75 572.543,549.1016 Q571.8203,549.4531 571.2539,550.2344 Q570.6875,551.0156 570.6875,552.0898 L570.6875,553.2422 Q570.6875,554.5313 571.7422,555.3906 Q572.7969,556.25 574.6719,556.25 Q575.7852,556.25 576.5664,555.9961 Q577.0156,555.8594 577.5234,555.4102 Q577.8555,555.1563 578.0313,555.0781 Q578.207,555 578.4219,555 Q578.832,555 579.125,555.332 Q579.4375,555.6445 579.4375,556.0938 Q579.4375,556.5234 579.0078,557.0313 Q578.3828,557.7734 577.3867,558.1836 Q576.0781,558.75 574.4766,558.75 Q572.6016,558.75 571.0977,558.0078 Q569.8867,557.4219 569.0273,556.1523 Q568.1875,554.8828 568.1875,553.3789 L568.1875,552.0117 Q568.1875,550.4492 568.9297,549.082 Q569.6914,547.7148 571,546.9922 Q572.3281,546.25 573.8125,546.25 Q574.7109,546.25 575.4922,546.5625 Q576.2734,546.875 576.9375,547.5 Z " fill="#000000"/><text fill="#000000" font-family="sans-serif" font-size="15" lengthAdjust="spacing" textLength="81.25" x="599.3125" y="558.0127">TestMapper</text><line style="stroke:#A80036;stroke-width:1.875;" x1="523.75" x2="716.25" y1="571.875" y2="571.875"/><line style="stroke:#A80036;stroke-width:1.875;" x1="523.75" x2="716.25" y1="581.875" y2="581.875"/><ellipse cx="536.25" cy="595.625" fill="#84BE84" rx="3.75" ry="3.75" style="stroke:#038048;stroke-width:1.25;"/><text fill="#000000" font-family="sans-serif" font-size="13.75" lengthAdjust="spacing" textLength="162.5" x="547.5" y="601.1487">toDTOForReport(testStore)</text><ellipse cx="536.25" cy="612.9199" fill="#84BE84" rx="3.75" ry="3.75" style="stroke:#038048;stroke-width:1.25;"/><text fill="#000000" font-family="sans-serif" font-size="13.75" lengthAdjust="spacing" textLength="130" x="547.5" y="618.4436">toDTOForReport(test)</text><!--MD5=[1440c33e6e2d06f1d65157f758d3adef]
class TestReport--><rect codeLine="64" fill="#FEFECE" filter="url(#ficdilhtdl4wl)" height="232.9492" id="TestReport" style="stroke:#A80036;stroke-width:1.875;" width="518.75" x="494.375" y="1515"/><ellipse cx="710.3125" cy="1535" fill="#ADD1B2" rx="13.75" ry="13.75" style="stroke:#A80036;stroke-width:1.25;"/><path d="M712.8125,1530.625 Q713.0664,1530 713.3594,1529.6875 Q713.6523,1529.375 713.9844,1529.375 Q714.5703,1529.375 714.9414,1529.7266 Q715.3125,1530.0781 715.3125,1530.8984 L715.3125,1532.8516 Q715.3125,1533.6719 714.9609,1534.0234 Q714.6094,1534.375 714.0625,1534.375 Q713.5742,1534.375 713.2617,1534.1602 Q712.9492,1533.9453 712.8125,1533.3789 Q712.7539,1532.9883 712.5391,1532.7734 Q712.1484,1532.3633 711.4453,1532.1289 Q710.7422,1531.875 710.0391,1531.875 Q709.1602,1531.875 708.418,1532.2266 Q707.6953,1532.5781 707.1289,1533.3594 Q706.5625,1534.1406 706.5625,1535.2148 L706.5625,1536.3672 Q706.5625,1537.6563 707.6172,1538.5156 Q708.6719,1539.375 710.5469,1539.375 Q711.6602,1539.375 712.4414,1539.1211 Q712.8906,1538.9844 713.3984,1538.5352 Q713.7305,1538.2813 713.9063,1538.2031 Q714.082,1538.125 714.2969,1538.125 Q714.707,1538.125 715,1538.457 Q715.3125,1538.7695 715.3125,1539.2188 Q715.3125,1539.6484 714.8828,1540.1563 Q714.2578,1540.8984 713.2617,1541.3086 Q711.9531,1541.875 710.3516,1541.875 Q708.4766,1541.875 706.9727,1541.1328 Q705.7617,1540.5469 704.9023,1539.2773 Q704.0625,1538.0078 704.0625,1536.5039 L704.0625,1535.1367 Q704.0625,1533.5742 704.8047,1532.207 Q705.5664,1530.8398 706.875,1530.1172 Q708.2031,1529.375 709.6875,1529.375 Q710.5859,1529.375 711.3672,1529.6875 Q712.1484,1530 712.8125,1530.625 Z " fill="#000000"/><text fill="#000000" font-family="sans-serif" font-size="15" lengthAdjust="spacing" textLength="76.25" x="735.9375" y="1541.1377">TestReport</text><line style="stroke:#A80036;stroke-width:1.875;" x1="495.625" x2="1011.875" y1="1555" y2="1555"/><rect fill="none" height="7.5" style="stroke:#C82930;stroke-width:1.25;" width="7.5" x="504.375" y="1565"/><text fill="#000000" font-family="sans-serif" font-size="13.75" lengthAdjust="spacing" textLength="42.5" x="519.375" y="1574.2737">header</text><rect fill="none" height="7.5" style="stroke:#C82930;stroke-width:1.25;" width="7.5" x="504.375" y="1582.2949"/><text fill="#000000" font-family="sans-serif" font-size="13.75" lengthAdjust="spacing" textLength="22.5" x="519.375" y="1591.5686">text</text><rect fill="none" height="7.5" style="stroke:#C82930;stroke-width:1.25;" width="7.5" x="504.375" y="1599.5898"/><text fill="#000000" font-family="sans-serif" font-size="13.75" lengthAdjust="spacing" textLength="130" x="519.375" y="1608.8635">specialistDoctorName</text><rect fill="none" height="7.5" style="stroke:#C82930;stroke-width:1.25;" width="7.5" x="504.375" y="1616.8848"/><text fill="#000000" font-family="sans-serif" font-size="13.75" lengthAdjust="spacing" textLength="126.25" x="519.375" y="1626.1584">specialistDoctorEmail</text><line style="stroke:#A80036;stroke-width:1.875;" x1="495.625" x2="1011.875" y1="1634.1797" y2="1634.1797"/><ellipse cx="508.125" cy="1647.9297" fill="#84BE84" rx="3.75" ry="3.75" style="stroke:#038048;stroke-width:1.25;"/><text fill="#000000" font-family="sans-serif" font-size="13.75" lengthAdjust="spacing" textLength="486.25" x="519.375" y="1653.4534">TestReport(text, numberOfTheTest, specialistDoctorName, specialistDoctorEmail)</text><ellipse cx="508.125" cy="1665.2246" fill="#84BE84" rx="3.75" ry="3.75" style="stroke:#038048;stroke-width:1.25;"/><text fill="#000000" font-family="sans-serif" font-size="13.75" lengthAdjust="spacing" textLength="95" x="519.375" y="1670.7483">checkText(text)</text><ellipse cx="508.125" cy="1682.5195" fill="#84BE84" rx="3.75" ry="3.75" style="stroke:#038048;stroke-width:1.25;"/><text fill="#000000" font-family="sans-serif" font-size="13.75" lengthAdjust="spacing" textLength="181.25" x="519.375" y="1688.0432">setHeader(numberOfTheTest)</text><ellipse cx="508.125" cy="1699.8145" fill="#84BE84" rx="3.75" ry="3.75" style="stroke:#038048;stroke-width:1.25;"/><text fill="#000000" font-family="sans-serif" font-size="13.75" lengthAdjust="spacing" textLength="72.5" x="519.375" y="1705.3381">getHeader()</text><ellipse cx="508.125" cy="1717.1094" fill="#84BE84" rx="3.75" ry="3.75" style="stroke:#038048;stroke-width:1.25;"/><text fill="#000000" font-family="sans-serif" font-size="13.75" lengthAdjust="spacing" textLength="55" x="519.375" y="1722.6331">getText()</text><ellipse cx="508.125" cy="1734.4043" fill="#84BE84" rx="3.75" ry="3.75" style="stroke:#038048;stroke-width:1.25;"/><text fill="#000000" font-family="sans-serif" font-size="13.75" lengthAdjust="spacing" textLength="56.25" x="519.375" y="1739.928">toString()</text><!--MD5=[0f6f7964b844a64b0496af0dda7914bd]
class TestStore--><rect codeLine="78" fill="#FEFECE" filter="url(#ficdilhtdl4wl)" height="181.0645" id="TestStore" style="stroke:#A80036;stroke-width:1.875;" width="231.25" x="846.875" y="750"/><ellipse cx="924.0625" cy="770" fill="#ADD1B2" rx="13.75" ry="13.75" style="stroke:#A80036;stroke-width:1.25;"/><path d="M926.5625,765.625 Q926.8164,765 927.1094,764.6875 Q927.4023,764.375 927.7344,764.375 Q928.3203,764.375 928.6914,764.7266 Q929.0625,765.0781 929.0625,765.8984 L929.0625,767.8516 Q929.0625,768.6719 928.7109,769.0234 Q928.3594,769.375 927.8125,769.375 Q927.3242,769.375 927.0117,769.1602 Q926.6992,768.9453 926.5625,768.3789 Q926.5039,767.9883 926.2891,767.7734 Q925.8984,767.3633 925.1953,767.1289 Q924.4922,766.875 923.7891,766.875 Q922.9102,766.875 922.168,767.2266 Q921.4453,767.5781 920.8789,768.3594 Q920.3125,769.1406 920.3125,770.2148 L920.3125,771.3672 Q920.3125,772.6563 921.3672,773.5156 Q922.4219,774.375 924.2969,774.375 Q925.4102,774.375 926.1914,774.1211 Q926.6406,773.9844 927.1484,773.5352 Q927.4805,773.2813 927.6563,773.2031 Q927.832,773.125 928.0469,773.125 Q928.457,773.125 928.75,773.457 Q929.0625,773.7695 929.0625,774.2188 Q929.0625,774.6484 928.6328,775.1563 Q928.0078,775.8984 927.0117,776.3086 Q925.7031,776.875 924.1016,776.875 Q922.2266,776.875 920.7227,776.1328 Q919.5117,775.5469 918.6523,774.2773 Q917.8125,773.0078 917.8125,771.5039 L917.8125,770.1367 Q917.8125,768.5742 918.5547,767.207 Q919.3164,765.8398 920.625,765.1172 Q921.9531,764.375 923.4375,764.375 Q924.3359,764.375 925.1172,764.6875 Q925.8984,765 926.5625,765.625 Z " fill="#000000"/><text fill="#000000" font-family="sans-serif" font-size="15" lengthAdjust="spacing" textLength="66.25" x="949.6875" y="776.1377">TestStore</text><line style="stroke:#A80036;stroke-width:1.875;" x1="848.125" x2="1076.875" y1="790" y2="790"/><rect fill="none" height="7.5" style="stroke:#C82930;stroke-width:1.25;" width="7.5" x="856.875" y="800"/><text fill="#000000" font-family="sans-serif" font-size="13.75" lengthAdjust="spacing" textLength="43.75" x="871.875" y="809.2737">testList</text><line style="stroke:#A80036;stroke-width:1.875;" x1="848.125" x2="1076.875" y1="817.2949" y2="817.2949"/><ellipse cx="860.625" cy="831.0449" fill="#84BE84" rx="3.75" ry="3.75" style="stroke:#038048;stroke-width:1.25;"/><text fill="#000000" font-family="sans-serif" font-size="13.75" lengthAdjust="spacing" textLength="68.75" x="871.875" y="836.5686">TestStore()</text><ellipse cx="860.625" cy="848.3398" fill="#84BE84" rx="3.75" ry="3.75" style="stroke:#038048;stroke-width:1.25;"/><text fill="#000000" font-family="sans-serif" font-size="13.75" lengthAdjust="spacing" textLength="140" x="871.875" y="853.8635">getTestWithResultList()</text><ellipse cx="860.625" cy="865.6348" fill="#84BE84" rx="3.75" ry="3.75" style="stroke:#038048;stroke-width:1.25;"/><text fill="#000000" font-family="sans-serif" font-size="13.75" lengthAdjust="spacing" textLength="180" x="871.875" y="871.1584">getTestByNhsCode(nhsCode)</text><ellipse cx="860.625" cy="882.9297" fill="#84BE84" rx="3.75" ry="3.75" style="stroke:#038048;stroke-width:1.25;"/><text fill="#000000" font-family="sans-serif" font-size="13.75" lengthAdjust="spacing" textLength="198.75" x="871.875" y="888.4534">saveTestReport(test, testReport)</text><ellipse cx="860.625" cy="900.2246" fill="#84BE84" rx="3.75" ry="3.75" style="stroke:#038048;stroke-width:1.25;"/><text fill="#000000" font-family="sans-serif" font-size="13.75" lengthAdjust="spacing" textLength="185" x="871.875" y="905.7483">validateTestReport(testReport)</text><ellipse cx="860.625" cy="917.5195" fill="#84BE84" rx="3.75" ry="3.75" style="stroke:#038048;stroke-width:1.25;"/><text fill="#000000" font-family="sans-serif" font-size="13.75" lengthAdjust="spacing" textLength="61.25" x="871.875" y="923.0432">getStore()</text><!--MD5=[71fba8c2abd557a2f7006580273aba3e]
class WriteReportUI--><rect codeLine="89" fill="#FEFECE" filter="url(#ficdilhtdl4wl)" height="60" id="WriteReportUI" style="stroke:#A80036;stroke-width:1.875;" width="136.25" x="674.375" y="8.75"/><ellipse cx="693.125" cy="28.75" fill="#ADD1B2" rx="13.75" ry="13.75" style="stroke:#A80036;stroke-width:1.25;"/><path d="M695.625,24.375 Q695.8789,23.75 696.1719,23.4375 Q696.4648,23.125 696.7969,23.125 Q697.3828,23.125 697.7539,23.4766 Q698.125,23.8281 698.125,24.6484 L698.125,26.6016 Q698.125,27.4219 697.7734,27.7734 Q697.4219,28.125 696.875,28.125 Q696.3867,28.125 696.0742,27.9102 Q695.7617,27.6953 695.625,27.1289 Q695.5664,26.7383 695.3516,26.5234 Q694.9609,26.1133 694.2578,25.8789 Q693.5547,25.625 692.8516,25.625 Q691.9727,25.625 691.2305,25.9766 Q690.5078,26.3281 689.9414,27.1094 Q689.375,27.8906 689.375,28.9648 L689.375,30.1172 Q689.375,31.4063 690.4297,32.2656 Q691.4844,33.125 693.3594,33.125 Q694.4727,33.125 695.2539,32.8711 Q695.7031,32.7344 696.2109,32.2852 Q696.543,32.0313 696.7188,31.9531 Q696.8945,31.875 697.1094,31.875 Q697.5195,31.875 697.8125,32.207 Q698.125,32.5195 698.125,32.9688 Q698.125,33.3984 697.6953,33.9063 Q697.0703,34.6484 696.0742,35.0586 Q694.7656,35.625 693.1641,35.625 Q691.2891,35.625 689.7852,34.8828 Q688.5742,34.2969 687.7148,33.0273 Q686.875,31.7578 686.875,30.2539 L686.875,28.8867 Q686.875,27.3242 687.6172,25.957 Q688.3789,24.5898 689.6875,23.8672 Q691.0156,23.125 692.5,23.125 Q693.3984,23.125 694.1797,23.4375 Q694.9609,23.75 695.625,24.375 Z " fill="#000000"/><text fill="#000000" font-family="sans-serif" font-size="15" lengthAdjust="spacing" textLength="96.25" x="710.625" y="34.8877">WriteReportUI</text><line style="stroke:#A80036;stroke-width:1.875;" x1="675.625" x2="809.375" y1="48.75" y2="48.75"/><line style="stroke:#A80036;stroke-width:1.875;" x1="675.625" x2="809.375" y1="58.75" y2="58.75"/><!--MD5=[d7b8916e3117ca4a3ffdab4f31ea783a]
class WriteReportController--><rect codeLine="91" fill="#FEFECE" filter="url(#ficdilhtdl4wl)" height="284.834" id="WriteReportController" style="stroke:#A80036;stroke-width:1.875;" width="226.25" x="629.375" y="145"/><ellipse cx="665" cy="165" fill="#ADD1B2" rx="13.75" ry="13.75" style="stroke:#A80036;stroke-width:1.25;"/><path d="M667.5,160.625 Q667.7539,160 668.0469,159.6875 Q668.3398,159.375 668.6719,159.375 Q669.2578,159.375 669.6289,159.7266 Q670,160.0781 670,160.8984 L670,162.8516 Q670,163.6719 669.6484,164.0234 Q669.2969,164.375 668.75,164.375 Q668.2617,164.375 667.9492,164.1602 Q667.6367,163.9453 667.5,163.3789 Q667.4414,162.9883 667.2266,162.7734 Q666.8359,162.3633 666.1328,162.1289 Q665.4297,161.875 664.7266,161.875 Q663.8477,161.875 663.1055,162.2266 Q662.3828,162.5781 661.8164,163.3594 Q661.25,164.1406 661.25,165.2148 L661.25,166.3672 Q661.25,167.6563 662.3047,168.5156 Q663.3594,169.375 665.2344,169.375 Q666.3477,169.375 667.1289,169.1211 Q667.5781,168.9844 668.0859,168.5352 Q668.418,168.2813 668.5938,168.2031 Q668.7695,168.125 668.9844,168.125 Q669.3945,168.125 669.6875,168.457 Q670,168.7695 670,169.2188 Q670,169.6484 669.5703,170.1563 Q668.9453,170.8984 667.9492,171.3086 Q666.6406,171.875 665.0391,171.875 Q663.1641,171.875 661.6602,171.1328 Q660.4492,170.5469 659.5898,169.2773 Q658.75,168.0078 658.75,166.5039 L658.75,165.1367 Q658.75,163.5742 659.4922,162.207 Q660.2539,160.8398 661.5625,160.1172 Q662.8906,159.375 664.375,159.375 Q665.2734,159.375 666.0547,159.6875 Q666.8359,160 667.5,160.625 Z " fill="#000000"/><text fill="#000000" font-family="sans-serif" font-size="15" lengthAdjust="spacing" textLength="148.75" x="686.25" y="171.1377">WriteReportController</text><line style="stroke:#A80036;stroke-width:1.875;" x1="630.625" x2="854.375" y1="185" y2="185"/><rect fill="none" height="7.5" style="stroke:#C82930;stroke-width:1.25;" width="7.5" x="639.375" y="195"/><text fill="#000000" font-family="sans-serif" font-size="13.75" lengthAdjust="spacing" textLength="22.5" x="654.375" y="204.2737">test</text><rect fill="none" height="7.5" style="stroke:#C82930;stroke-width:1.25;" width="7.5" x="639.375" y="212.2949"/><text fill="#000000" font-family="sans-serif" font-size="13.75" lengthAdjust="spacing" textLength="62.5" x="654.375" y="221.5686">testReport</text><rect fill="none" height="7.5" style="stroke:#C82930;stroke-width:1.25;" width="7.5" x="639.375" y="229.5898"/><text fill="#000000" font-family="sans-serif" font-size="13.75" lengthAdjust="spacing" textLength="55" x="654.375" y="238.8635">company</text><rect fill="none" height="7.5" style="stroke:#C82930;stroke-width:1.25;" width="7.5" x="639.375" y="246.8848"/><text fill="#000000" font-family="sans-serif" font-size="13.75" lengthAdjust="spacing" textLength="115" x="654.375" y="256.1584">testsWithResultList</text><line style="stroke:#A80036;stroke-width:1.875;" x1="630.625" x2="854.375" y1="264.1797" y2="264.1797"/><ellipse cx="643.125" cy="277.9297" fill="#84BE84" rx="3.75" ry="3.75" style="stroke:#038048;stroke-width:1.25;"/><text fill="#000000" font-family="sans-serif" font-size="13.75" lengthAdjust="spacing" textLength="138.75" x="654.375" y="283.4534">WriteReportController()</text><ellipse cx="643.125" cy="295.2246" fill="#84BE84" rx="3.75" ry="3.75" style="stroke:#038048;stroke-width:1.25;"/><text fill="#000000" font-family="sans-serif" font-size="13.75" lengthAdjust="spacing" textLength="193.75" x="654.375" y="300.7483">WriteReportController(company)</text><ellipse cx="643.125" cy="312.5195" fill="#84BE84" rx="3.75" ry="3.75" style="stroke:#038048;stroke-width:1.25;"/><text fill="#000000" font-family="sans-serif" font-size="13.75" lengthAdjust="spacing" textLength="182.5" x="654.375" y="318.0432">generateTestsWithResultList()</text><ellipse cx="643.125" cy="329.8145" fill="#84BE84" rx="3.75" ry="3.75" style="stroke:#038048;stroke-width:1.25;"/><text fill="#000000" font-family="sans-serif" font-size="13.75" lengthAdjust="spacing" textLength="147.5" x="654.375" y="335.3381">getTestsWithResultList()</text><ellipse cx="643.125" cy="347.1094" fill="#84BE84" rx="3.75" ry="3.75" style="stroke:#038048;stroke-width:1.25;"/><text fill="#000000" font-family="sans-serif" font-size="13.75" lengthAdjust="spacing" textLength="136.25" x="654.375" y="352.6331">getTestByIndex(index)</text><ellipse cx="643.125" cy="364.4043" fill="#84BE84" rx="3.75" ry="3.75" style="stroke:#038048;stroke-width:1.25;"/><text fill="#000000" font-family="sans-serif" font-size="13.75" lengthAdjust="spacing" textLength="90" x="654.375" y="369.928">showResults()</text><ellipse cx="643.125" cy="381.6992" fill="#84BE84" rx="3.75" ry="3.75" style="stroke:#038048;stroke-width:1.25;"/><text fill="#000000" font-family="sans-serif" font-size="13.75" lengthAdjust="spacing" textLength="152.5" x="654.375" y="387.2229">generateTestReport(text)</text><ellipse cx="643.125" cy="398.9941" fill="#84BE84" rx="3.75" ry="3.75" style="stroke:#038048;stroke-width:1.25;"/><text fill="#000000" font-family="sans-serif" font-size="13.75" lengthAdjust="spacing" textLength="111.25" x="654.375" y="404.5178">showTestReport()</text><ellipse cx="643.125" cy="416.2891" fill="#84BE84" rx="3.75" ry="3.75" style="stroke:#038048;stroke-width:1.25;"/><text fill="#000000" font-family="sans-serif" font-size="13.75" lengthAdjust="spacing" textLength="106.25" x="654.375" y="421.8127">saveTestReport()</text><!--MD5=[f8d2b21678b6ea5d90e779ee6463ca37]
class Utils--><rect codeLine="108" fill="#FEFECE" filter="url(#ficdilhtdl4wl)" height="77.2949" id="Utils" style="stroke:#A80036;stroke-width:1.875;" width="113.75" x="1244.375" y="1592.5"/><ellipse cx="1282.25" cy="1612.5" fill="#ADD1B2" rx="13.75" ry="13.75" style="stroke:#A80036;stroke-width:1.25;"/><path d="M1284.75,1608.125 Q1285.0039,1607.5 1285.2969,1607.1875 Q1285.5898,1606.875 1285.9219,1606.875 Q1286.5078,1606.875 1286.8789,1607.2266 Q1287.25,1607.5781 1287.25,1608.3984 L1287.25,1610.3516 Q1287.25,1611.1719 1286.8984,1611.5234 Q1286.5469,1611.875 1286,1611.875 Q1285.5117,1611.875 1285.1992,1611.6602 Q1284.8867,1611.4453 1284.75,1610.8789 Q1284.6914,1610.4883 1284.4766,1610.2734 Q1284.0859,1609.8633 1283.3828,1609.6289 Q1282.6797,1609.375 1281.9766,1609.375 Q1281.0977,1609.375 1280.3555,1609.7266 Q1279.6328,1610.0781 1279.0664,1610.8594 Q1278.5,1611.6406 1278.5,1612.7148 L1278.5,1613.8672 Q1278.5,1615.1563 1279.5547,1616.0156 Q1280.6094,1616.875 1282.4844,1616.875 Q1283.5977,1616.875 1284.3789,1616.6211 Q1284.8281,1616.4844 1285.3359,1616.0352 Q1285.668,1615.7813 1285.8438,1615.7031 Q1286.0195,1615.625 1286.2344,1615.625 Q1286.6445,1615.625 1286.9375,1615.957 Q1287.25,1616.2695 1287.25,1616.7188 Q1287.25,1617.1484 1286.8203,1617.6563 Q1286.1953,1618.3984 1285.1992,1618.8086 Q1283.8906,1619.375 1282.2891,1619.375 Q1280.4141,1619.375 1278.9102,1618.6328 Q1277.6992,1618.0469 1276.8398,1616.7773 Q1276,1615.5078 1276,1614.0039 L1276,1612.6367 Q1276,1611.0742 1276.7422,1609.707 Q1277.5039,1608.3398 1278.8125,1607.6172 Q1280.1406,1606.875 1281.625,1606.875 Q1282.5234,1606.875 1283.3047,1607.1875 Q1284.0859,1607.5 1284.75,1608.125 Z " fill="#000000"/><text fill="#000000" font-family="sans-serif" font-size="15" lengthAdjust="spacing" textLength="31.25" x="1304" y="1618.6377">Utils</text><line style="stroke:#A80036;stroke-width:1.875;" x1="1245.625" x2="1356.875" y1="1632.5" y2="1632.5"/><line style="stroke:#A80036;stroke-width:1.875;" x1="1245.625" x2="1356.875" y1="1642.5" y2="1642.5"/><ellipse cx="1258.125" cy="1656.25" fill="#84BE84" rx="3.75" ry="3.75" style="stroke:#038048;stroke-width:1.25;"/><text fill="#000000" font-family="sans-serif" font-size="13.75" lengthAdjust="spacing" textLength="81.25" x="1269.375" y="1661.7737">currentDate()</text><!--MD5=[c5b08e60048ef1bcd788d24cf324082e]
class UserSession--><rect codeLine="112" fill="#FEFECE" filter="url(#ficdilhtdl4wl)" height="94.5898" id="UserSession" style="stroke:#A80036;stroke-width:1.875;" width="131.25" x="385.625" y="793.125"/><ellipse cx="404.375" cy="813.125" fill="#ADD1B2" rx="13.75" ry="13.75" style="stroke:#A80036;stroke-width:1.25;"/><path d="M406.875,808.75 Q407.1289,808.125 407.4219,807.8125 Q407.7148,807.5 408.0469,807.5 Q408.6328,807.5 409.0039,807.8516 Q409.375,808.2031 409.375,809.0234 L409.375,810.9766 Q409.375,811.7969 409.0234,812.1484 Q408.6719,812.5 408.125,812.5 Q407.6367,812.5 407.3242,812.2852 Q407.0117,812.0703 406.875,811.5039 Q406.8164,811.1133 406.6016,810.8984 Q406.2109,810.4883 405.5078,810.2539 Q404.8047,810 404.1016,810 Q403.2227,810 402.4805,810.3516 Q401.7578,810.7031 401.1914,811.4844 Q400.625,812.2656 400.625,813.3398 L400.625,814.4922 Q400.625,815.7813 401.6797,816.6406 Q402.7344,817.5 404.6094,817.5 Q405.7227,817.5 406.5039,817.2461 Q406.9531,817.1094 407.4609,816.6602 Q407.793,816.4063 407.9688,816.3281 Q408.1445,816.25 408.3594,816.25 Q408.7695,816.25 409.0625,816.582 Q409.375,816.8945 409.375,817.3438 Q409.375,817.7734 408.9453,818.2813 Q408.3203,819.0234 407.3242,819.4336 Q406.0156,820 404.4141,820 Q402.5391,820 401.0352,819.2578 Q399.8242,818.6719 398.9648,817.4023 Q398.125,816.1328 398.125,814.6289 L398.125,813.2617 Q398.125,811.6992 398.8672,810.332 Q399.6289,808.9648 400.9375,808.2422 Q402.2656,807.5 403.75,807.5 Q404.6484,807.5 405.4297,807.8125 Q406.2109,808.125 406.875,808.75 Z " fill="#000000"/><text fill="#000000" font-family="sans-serif" font-size="15" lengthAdjust="spacing" textLength="91.25" x="421.875" y="819.2627">UserSession</text><line style="stroke:#A80036;stroke-width:1.875;" x1="386.875" x2="515.625" y1="833.125" y2="833.125"/><line style="stroke:#A80036;stroke-width:1.875;" x1="386.875" x2="515.625" y1="843.125" y2="843.125"/><ellipse cx="399.375" cy="856.875" fill="#84BE84" rx="3.75" ry="3.75" style="stroke:#038048;stroke-width:1.25;"/><text fill="#000000" font-family="sans-serif" font-size="13.75" lengthAdjust="spacing" textLength="91.25" x="410.625" y="862.3987">getUserName()</text><ellipse cx="399.375" cy="874.1699" fill="#84BE84" rx="3.75" ry="3.75" style="stroke:#038048;stroke-width:1.25;"/><text fill="#000000" font-family="sans-serif" font-size="13.75" lengthAdjust="spacing" textLength="68.75" x="410.625" y="879.6936">getUserID()</text><!--MD5=[3fd616f346a44cd59a91eb10b19e157c]
class User--><rect codeLine="117" fill="#FEFECE" filter="url(#ficdilhtdl4wl)" height="129.1797" id="User" style="stroke:#A80036;stroke-width:1.875;" width="95" x="403.75" y="1158.75"/><ellipse cx="432.0625" cy="1178.75" fill="#ADD1B2" rx="13.75" ry="13.75" style="stroke:#A80036;stroke-width:1.25;"/><path d="M434.5625,1174.375 Q434.8164,1173.75 435.1094,1173.4375 Q435.4023,1173.125 435.7344,1173.125 Q436.3203,1173.125 436.6914,1173.4766 Q437.0625,1173.8281 437.0625,1174.6484 L437.0625,1176.6016 Q437.0625,1177.4219 436.7109,1177.7734 Q436.3594,1178.125 435.8125,1178.125 Q435.3242,1178.125 435.0117,1177.9102 Q434.6992,1177.6953 434.5625,1177.1289 Q434.5039,1176.7383 434.2891,1176.5234 Q433.8984,1176.1133 433.1953,1175.8789 Q432.4922,1175.625 431.7891,1175.625 Q430.9102,1175.625 430.168,1175.9766 Q429.4453,1176.3281 428.8789,1177.1094 Q428.3125,1177.8906 428.3125,1178.9648 L428.3125,1180.1172 Q428.3125,1181.4063 429.3672,1182.2656 Q430.4219,1183.125 432.2969,1183.125 Q433.4102,1183.125 434.1914,1182.8711 Q434.6406,1182.7344 435.1484,1182.2852 Q435.4805,1182.0313 435.6563,1181.9531 Q435.832,1181.875 436.0469,1181.875 Q436.457,1181.875 436.75,1182.207 Q437.0625,1182.5195 437.0625,1182.9688 Q437.0625,1183.3984 436.6328,1183.9063 Q436.0078,1184.6484 435.0117,1185.0586 Q433.7031,1185.625 432.1016,1185.625 Q430.2266,1185.625 428.7227,1184.8828 Q427.5117,1184.2969 426.6523,1183.0273 Q425.8125,1181.7578 425.8125,1180.2539 L425.8125,1178.8867 Q425.8125,1177.3242 426.5547,1175.957 Q427.3164,1174.5898 428.625,1173.8672 Q429.9531,1173.125 431.4375,1173.125 Q432.3359,1173.125 433.1172,1173.4375 Q433.8984,1173.75 434.5625,1174.375 Z " fill="#000000"/><text fill="#000000" font-family="sans-serif" font-size="15" lengthAdjust="spacing" textLength="33.75" x="451.6875" y="1184.8877">User</text><line style="stroke:#A80036;stroke-width:1.875;" x1="405" x2="497.5" y1="1198.75" y2="1198.75"/><rect fill="none" height="7.5" style="stroke:#C82930;stroke-width:1.25;" width="7.5" x="413.75" y="1208.75"/><text fill="#000000" font-family="sans-serif" font-size="13.75" lengthAdjust="spacing" textLength="10" x="428.75" y="1218.0237">id</text><rect fill="none" height="7.5" style="stroke:#C82930;stroke-width:1.25;" width="7.5" x="413.75" y="1226.0449"/><text fill="#000000" font-family="sans-serif" font-size="13.75" lengthAdjust="spacing" textLength="32.5" x="428.75" y="1235.3186">name</text><line style="stroke:#A80036;stroke-width:1.875;" x1="405" x2="497.5" y1="1243.3398" y2="1243.3398"/><ellipse cx="417.5" cy="1257.0898" fill="#84BE84" rx="3.75" ry="3.75" style="stroke:#038048;stroke-width:1.25;"/><text fill="#000000" font-family="sans-serif" font-size="13.75" lengthAdjust="spacing" textLength="38.75" x="428.75" y="1262.6135">getId()</text><ellipse cx="417.5" cy="1274.3848" fill="#84BE84" rx="3.75" ry="3.75" style="stroke:#038048;stroke-width:1.25;"/><text fill="#000000" font-family="sans-serif" font-size="13.75" lengthAdjust="spacing" textLength="62.5" x="428.75" y="1279.9084">getName()</text><!--MD5=[8ae808d068a8995f06b9b3ec51357f0b]
class AuthFacade--><rect codeLine="125" fill="#FEFECE" filter="url(#ficdilhtdl4wl)" height="77.2949" id="AuthFacade" style="stroke:#A80036;stroke-width:1.875;" width="183.75" x="294.375" y="540.625"/><ellipse cx="341.25" cy="560.625" fill="#ADD1B2" rx="13.75" ry="13.75" style="stroke:#A80036;stroke-width:1.25;"/><path d="M343.75,556.25 Q344.0039,555.625 344.2969,555.3125 Q344.5898,555 344.9219,555 Q345.5078,555 345.8789,555.3516 Q346.25,555.7031 346.25,556.5234 L346.25,558.4766 Q346.25,559.2969 345.8984,559.6484 Q345.5469,560 345,560 Q344.5117,560 344.1992,559.7852 Q343.8867,559.5703 343.75,559.0039 Q343.6914,558.6133 343.4766,558.3984 Q343.0859,557.9883 342.3828,557.7539 Q341.6797,557.5 340.9766,557.5 Q340.0977,557.5 339.3555,557.8516 Q338.6328,558.2031 338.0664,558.9844 Q337.5,559.7656 337.5,560.8398 L337.5,561.9922 Q337.5,563.2813 338.5547,564.1406 Q339.6094,565 341.4844,565 Q342.5977,565 343.3789,564.7461 Q343.8281,564.6094 344.3359,564.1602 Q344.668,563.9063 344.8438,563.8281 Q345.0195,563.75 345.2344,563.75 Q345.6445,563.75 345.9375,564.082 Q346.25,564.3945 346.25,564.8438 Q346.25,565.2734 345.8203,565.7813 Q345.1953,566.5234 344.1992,566.9336 Q342.8906,567.5 341.2891,567.5 Q339.4141,567.5 337.9102,566.7578 Q336.6992,566.1719 335.8398,564.9023 Q335,563.6328 335,562.1289 L335,560.7617 Q335,559.1992 335.7422,557.832 Q336.5039,556.4648 337.8125,555.7422 Q339.1406,555 340.625,555 Q341.5234,555 342.3047,555.3125 Q343.0859,555.625 343.75,556.25 Z " fill="#000000"/><text fill="#000000" font-family="sans-serif" font-size="15" lengthAdjust="spacing" textLength="81.25" x="365" y="566.7627">AuthFacade</text><line style="stroke:#A80036;stroke-width:1.875;" x1="295.625" x2="476.875" y1="580.625" y2="580.625"/><line style="stroke:#A80036;stroke-width:1.875;" x1="295.625" x2="476.875" y1="590.625" y2="590.625"/><ellipse cx="308.125" cy="604.375" fill="#84BE84" rx="3.75" ry="3.75" style="stroke:#038048;stroke-width:1.25;"/><text fill="#000000" font-family="sans-serif" font-size="13.75" lengthAdjust="spacing" textLength="151.25" x="319.375" y="609.8987">getCurrentUserSession()</text><!--MD5=[4ff913b72b026e4c95390310e4df5ddd]
link WriteReportUI to WriteReportController--><path codeLine="129" d="M742.5,69.2125 C742.5,87.2625 742.5,111.9375 742.5,138.1875 " fill="none" id="WriteReportUI-to-WriteReportController" style="stroke:#A80036;stroke-width:1.25;stroke-dasharray:7.0,7.0;"/><polygon fill="#A80036" points="742.5,144.525,747.5,133.275,742.5,138.275,737.5,133.275,742.5,144.525" style="stroke:#A80036;stroke-width:1.25;"/><!--MD5=[b14f4b55bc9aa939c7cd06f1c0b56da5]
link WriteReportUI to TestDTO--><path codeLine="130" d="M683.5625,68.8875 C565.3875,130.425 301.35,286.975 191.25,506.25 C152.7875,582.85 153.375,682.25 160.7125,752.475 " fill="none" id="WriteReportUI-to-TestDTO" style="stroke:#A80036;stroke-width:1.25;stroke-dasharray:7.0,7.0;"/><polygon fill="#A80036" points="161.3875,758.75,165.1368,747.0237,160.7091,752.5369,155.1959,748.1092,161.3875,758.75" style="stroke:#A80036;stroke-width:1.25;"/><!--MD5=[087d952f8ef0f2da8ee623642327d95b]
link WriteReportUI to Utils--><path codeLine="131" d="M810.8875,40.6875 C956.2,46.1375 1282.5,81.2 1282.5,286.25 C1282.5,286.25 1282.5,286.25 1282.5,1224.375 C1282.5,1355.7625 1292.4375,1510.8375 1297.8375,1585.4625 " fill="none" id="WriteReportUI-to-Utils" style="stroke:#A80036;stroke-width:1.25;stroke-dasharray:7.0,7.0;"/><polygon fill="#A80036" points="1298.325,1592,1302.5084,1580.4215,1297.8784,1585.766,1292.534,1581.136,1298.325,1592" style="stroke:#A80036;stroke-width:1.25;"/><!--MD5=[d2c887862af794255aa293b427ffc580]
link WriteReportController to TestDTO--><path codeLine="133" d="M629.3625,312.65 C522.5125,340.9875 365.2125,398.6125 272.5,506.25 C213.1375,575.1625 189.875,678.625 180.7875,751.9375 " fill="none" id="WriteReportController-to-TestDTO" style="stroke:#A80036;stroke-width:1.25;stroke-dasharray:7.0,7.0;"/><polygon fill="#A80036" points="180,758.4875,186.312,747.9177,180.7489,752.2825,176.384,746.7194,180,758.4875" style="stroke:#A80036;stroke-width:1.25;"/><!--MD5=[f27b4a25a5b059d18ef9f1b16d7419ab]
link WriteReportController to TestMapper--><path codeLine="134" d="M682.6875,430.05 C668.225,464.1875 653.675,498.5875 642.225,525.625 " fill="none" id="WriteReportController-to-TestMapper" style="stroke:#A80036;stroke-width:1.25;stroke-dasharray:7.0,7.0;"/><polygon fill="#A80036" points="639.6875,531.6375,648.6613,523.2094,642.1129,525.8773,639.445,519.3288,639.6875,531.6375" style="stroke:#A80036;stroke-width:1.25;"/><!--MD5=[a3405a5a29c0a1359ce5b85a18cd6043]
link WriteReportController to Company--><path codeLine="135" d="M837.7125,430.05 C854.1125,454.3875 870.6,478.85 885.3125,500.6875 " fill="none" id="WriteReportController-to-Company" style="stroke:#A80036;stroke-width:1.25;stroke-dasharray:7.0,7.0;"/><polygon fill="#A80036" points="889.0125,506.175,886.8842,494.0493,885.525,500.9885,878.5858,499.6293,889.0125,506.175" style="stroke:#A80036;stroke-width:1.25;"/><!--MD5=[4d3310fc4566637689da5334cbb1e821]
link WriteReportController to TestParameter--><path codeLine="136" d="M855.9,315.5125 C978.775,352.05 1157.5,430.5625 1157.5,578.125 C1157.5,578.125 1157.5,578.125 1157.5,1224.375 C1157.5,1346.6 1144.35,1489.025 1135.8375,1568.4375 " fill="none" id="WriteReportController-to-TestParameter" style="stroke:#A80036;stroke-width:1.25;stroke-dasharray:7.0,7.0;"/><polygon fill="#A80036" points="1135.125,1574.975,1141.3166,1564.3342,1135.8034,1568.7619,1131.3757,1563.2487,1135.125,1574.975" style="stroke:#A80036;stroke-width:1.25;"/><!--MD5=[0a4b9c9f3bc7d6a720422b3cf21003ff]
link WriteReportController to AuthFacade--><path codeLine="137" d="M629.2875,380.7125 C565.0125,432.925 487.6625,495.75 437.7625,536.2875 " fill="none" id="WriteReportController-to-AuthFacade" style="stroke:#A80036;stroke-width:1.25;stroke-dasharray:7.0,7.0;"/><polygon fill="#A80036" points="432.4125,540.625,444.2909,537.39,437.2561,536.6751,437.971,529.6402,432.4125,540.625" style="stroke:#A80036;stroke-width:1.25;"/><!--MD5=[4da449bf5b33f661eba217aaa53f10f0]
link WriteReportController to TestReport--><path codeLine="138" d="M743.6875,430.0625 C745.9,694.4 750.6375,1259.3125 752.725,1508.0875 " fill="none" id="WriteReportController-to-TestReport" style="stroke:#A80036;stroke-width:1.25;stroke-dasharray:7.0,7.0;"/><polygon fill="#A80036" points="752.7875,1514.6375,757.6909,1503.3451,752.7339,1508.3877,747.6913,1503.4308,752.7875,1514.6375" style="stroke:#A80036;stroke-width:1.25;"/><!--MD5=[7f6cf7f175eae0af66201860de5de971]
link Company to TestStore--><path codeLine="140" d="M944.4625,652.7 C947.3625,682.7625 950.775,717.9875 953.8375,749.6875 " fill="none" id="Company-TestStore" style="stroke:#A80036;stroke-width:1.25;"/><polygon fill="#000000" points="956.8513,707.6907,959.4201,696.0834,952.1069,696.7903,956.8513,707.6907" style="stroke:#000000;stroke-width:1.25;"/><text fill="#000000" font-family="sans-serif" font-size="16.25" lengthAdjust="spacing" textLength="35" x="967.5" y="708.1189">uses</text><text fill="#000000" font-family="sans-serif" font-size="16.25" lengthAdjust="spacing" textLength="8.75" x="936.0279" y="679.7372">1</text><text fill="#000000" font-family="sans-serif" font-size="16.25" lengthAdjust="spacing" textLength="8.75" x="943.743" y="736.1794">1</text><!--MD5=[f24c888dadeb846430474fe80a58922b]
link Test to TestParameter--><path codeLine="142" d="M969.4875,1417.6 C974.475,1438.5125 981.5125,1458.9125 991.25,1477.5 C1003.1375,1500.1875 1017.1125,1496.675 1035,1515 C1052.9875,1533.4375 1071.225,1555.0125 1086.775,1574.475 " fill="none" id="Test-TestParameter" style="stroke:#A80036;stroke-width:1.25;"/><polygon fill="#000000" points="1001.2425,1471.4754,997.4145,1460.2203,991.53,1464.6198,1001.2425,1471.4754" style="stroke:#000000;stroke-width:1.25;"/><text fill="#000000" font-family="sans-serif" font-size="16.25" lengthAdjust="spacing" textLength="35" x="1008.75" y="1473.1189">uses</text><text fill="#000000" font-family="sans-serif" font-size="16.25" lengthAdjust="spacing" textLength="8.75" x="960.7429" y="1444.3873">1</text><text fill="#000000" font-family="sans-serif" font-size="16.25" lengthAdjust="spacing" textLength="25" x="1053.774" y="1561.6138">1..*</text><!--MD5=[bf2c4a24c3ba26e9822e5aa7c016b9db]
link Test to TestReport--><path codeLine="143" d="M864.325,1417.6875 C847,1450.9375 829.5,1484.55 813.7,1514.9 " fill="none" id="Test-TestReport" style="stroke:#A80036;stroke-width:1.25;"/><polygon fill="#000000" points="843.3632,1472.0131,851.8438,1463.6819,845.3272,1460.2882,843.3632,1472.0131" style="stroke:#000000;stroke-width:1.25;"/><text fill="#000000" font-family="sans-serif" font-size="16.25" lengthAdjust="spacing" textLength="26.25" x="857.5" y="1473.1189">has</text><text fill="#000000" font-family="sans-serif" font-size="16.25" lengthAdjust="spacing" textLength="8.75" x="850.4866" y="1444.4791">1</text><text fill="#000000" font-family="sans-serif" font-size="16.25" lengthAdjust="spacing" textLength="8.75" x="809.5523" y="1501.3051">1</text><!--MD5=[b0f4f6db8206580012ef9cd998ed01c5]
link TestStore to Test--><path codeLine="145" d="M963.0875,931.45 C963.2875,960.7375 963.5,994.5 963.725,1028.4125 " fill="none" id="TestStore-Test" style="stroke:#A80036;stroke-width:1.25;"/><polygon fill="#000000" points="968.7911,986.4696,972.3903,975.1393,965.0432,975.1876,968.7911,986.4696" style="stroke:#000000;stroke-width:1.25;"/><text fill="#000000" font-family="sans-serif" font-size="16.25" lengthAdjust="spacing" textLength="26.25" x="980" y="986.8689">has</text><text fill="#000000" font-family="sans-serif" font-size="16.25" lengthAdjust="spacing" textLength="8.75" x="953.9765" y="957.9586">1</text><text fill="#000000" font-family="sans-serif" font-size="16.25" lengthAdjust="spacing" textLength="6.25" x="957.2619" y="1015.3798">*</text><!--MD5=[8d9a2c3ea1bf73d8d45b939465e53fff]
link TestMapper to Test--><path codeLine="147" d="M645.0875,627.2625 C689.2125,709.275 783.1,883.7875 857.8125,1022.6625 " fill="none" id="TestMapper-to-Test" style="stroke:#A80036;stroke-width:1.25;stroke-dasharray:7.0,7.0;"/><polygon fill="#A80036" points="860.9125,1028.4125,860.0074,1016.1347,857.9611,1022.9033,851.1926,1020.857,860.9125,1028.4125" style="stroke:#A80036;stroke-width:1.25;"/><!--MD5=[f6fda4afaf882dd39139bcbf06c50c8c]
link TestMapper to TestDTO--><path codeLine="148" d="M542.975,627.0375 C528.7125,635.55 513.925,644.325 500,652.5 C442.0625,686.5 378.025,723.4625 322.2125,755.4625 " fill="none" id="TestMapper-to-TestDTO" style="stroke:#A80036;stroke-width:1.25;stroke-dasharray:7.0,7.0;"/><polygon fill="#A80036" points="316.4875,758.75,328.735,757.501,321.9118,755.6453,323.7675,748.8221,316.4875,758.75" style="stroke:#A80036;stroke-width:1.25;"/><!--MD5=[0e00e25ac6b8c14659aaff2cf7e5df08]
link TestParameter to TestParameterResult--><path codeLine="150" d="M1128.75,1687.875 C1128.75,1727.4625 1128.75,1780.025 1128.75,1816.8625 " fill="none" id="TestParameter-to-TestParameterResult" style="stroke:#A80036;stroke-width:1.25;stroke-dasharray:7.0,7.0;"/><polygon fill="#A80036" points="1128.75,1823.55,1133.75,1812.3,1128.75,1817.3,1123.75,1812.3,1128.75,1823.55" style="stroke:#A80036;stroke-width:1.25;"/><!--MD5=[52200cc2361fa0ac0481dd6ffcdb824b]
link TestParameterResult to ReferenceValue--><path codeLine="151" d="M1128.75,1901.525 C1128.75,1922.4625 1128.75,1948.6125 1128.75,1970.525 " fill="none" id="TestParameterResult-to-ReferenceValue" style="stroke:#A80036;stroke-width:1.25;stroke-dasharray:7.0,7.0;"/><polygon fill="#A80036" points="1128.75,1977.175,1133.75,1965.925,1128.75,1970.925,1123.75,1965.925,1128.75,1977.175" style="stroke:#A80036;stroke-width:1.25;"/><!--MD5=[09b59d4fdfb01fc2a1a8a7bea70efe14]
link Test to Utils--><path codeLine="153" d="M1090.75,1359.225 C1133.8625,1407.2875 1181.5375,1462.525 1222.5,1515 C1240.475,1538.0375 1259.025,1564.925 1273.5875,1586.9125 " fill="none" id="Test-to-Utils" style="stroke:#A80036;stroke-width:1.25;stroke-dasharray:7.0,7.0;"/><polygon fill="#A80036" points="1277.2125,1592.4,1275.1805,1580.2578,1273.7663,1587.186,1266.8381,1585.7718,1277.2125,1592.4" style="stroke:#A80036;stroke-width:1.25;"/><!--MD5=[434feadd2b6df9bf2f29d4ac96be7aa9]
link AuthFacade to UserSession--><path codeLine="155" d="M395.7,618.25 C406.825,662.5125 425.3625,736.3125 437.9375,786.3625 " fill="none" id="AuthFacade-to-UserSession" style="stroke:#A80036;stroke-width:1.25;stroke-dasharray:7.0,7.0;"/><polygon fill="#A80036" points="439.5875,792.95,441.6761,780.8174,438.0549,786.8908,431.9815,783.2696,439.5875,792.95" style="stroke:#A80036;stroke-width:1.25;"/><!--MD5=[261a9f975a95b8b9805b87baf77053d0]
link UserSession to User--><path codeLine="156" d="M451.25,888.475 C451.25,954.4 451.25,1075.3875 451.25,1152.075 " fill="none" id="UserSession-to-User" style="stroke:#A80036;stroke-width:1.25;stroke-dasharray:7.0,7.0;"/><polygon fill="#A80036" points="451.25,1158.4375,456.25,1147.1875,451.25,1152.1875,446.25,1147.1875,451.25,1158.4375" style="stroke:#A80036;stroke-width:1.25;"/><!--MD5=[575123481951df99a7be677df4cc61bd]
@startuml

class Company {
    - designation

    + getAuthFacade()
    + getParameterStore()
    + getTestStore()
    + listDTO()
}

class TestParameter {
    - parameter

    + toString()
    + getTestResult()
}

class TestParameterResult {
    + getRefValue()
}

class ReferenceValue{
    + toString()
}

class Test {
    - code
    - nhsCode
    - createdAt
    - sampleDate
    - resultDate
    - reportDate

    + getNhsCode()
    + getTestParameterByCode(index)
    + getTestParameterList()
    + hasResults()
    + hasReport()
    + getParametersAssociatedWithTest()
    + addTestReport(testReport)
    + addReportDate()
    + getCreatedAt()
    + getSampleDate()
    + getResultDate()
    + getCode()
    + getTestReport()
}

class TestDTO {
    - code
    - createdAt
    - sampleDate
    - resultDate

    + TestDto(code, createdAt, sampleDate, resultDate)
    + toStringTestWithoutReport()
}

class TestMapper {
    + toDTOForReport(testStore)
    + toDTOForReport(test)
}

class TestReport {
    - header
    - text
    - specialistDoctorName
    - specialistDoctorEmail

    + TestReport(text, numberOfTheTest, specialistDoctorName, specialistDoctorEmail)
    + checkText(text)
    + setHeader(numberOfTheTest)
    + getHeader()
    + getText()
    + toString()
}

class TestStore {
    - testList

    + TestStore()
    + getTestWithResultList()
    + getTestByNhsCode(nhsCode)
    + saveTestReport(test, testReport)
    + validateTestReport(testReport)
    + getStore()
}

class WriteReportUI {}

class WriteReportController {
    - test
    - testReport
    - company
    - testsWithResultList

    + WriteReportController()
    + WriteReportController(company)
    + generateTestsWithResultList()
    + getTestsWithResultList()
    + getTestByIndex(index)
    + showResults()
    + generateTestReport(text)
    + showTestReport()
    + saveTestReport()
}

class Utils{
    + currentDate()
}

class UserSession{
    + getUserName()
    + getUserID()
}

class User{
    - id
    - name

    + getId()
    + getName()
}

class AuthFacade{
    + getCurrentUserSession()
}

WriteReportUI ..> WriteReportController
WriteReportUI ..> TestDTO
WriteReportUI ..> Utils

WriteReportController ..> TestDTO
WriteReportController ..> TestMapper
WriteReportController ..> Company
WriteReportController ..> TestParameter
WriteReportController ..> AuthFacade
WriteReportController ..> TestReport

Company "1" - - "1" TestStore: uses >

Test "1" - - "1..*" TestParameter: uses >
Test "1" - - "1" TestReport: has >

TestStore "1" - - "*" Test : has >

TestMapper ..> Test
TestMapper ..> TestDTO

TestParameter ..> TestParameterResult
TestParameterResult ..> ReferenceValue

Test ..> Utils

AuthFacade ..> UserSession
UserSession ..> User

@enduml

PlantUML version 1.2021.00(Sun Jan 10 10:25:05 GMT 2021)
(GPL source distribution)
Java Runtime: OpenJDK Runtime Environment
JVM: OpenJDK 64-Bit Server VM
Default Encoding: Cp1252
Language: pt
Country: PT
--></g></svg>