<?xml version="1.0" encoding="UTF-8" standalone="no"?><svg xmlns="http://www.w3.org/2000/svg" xmlns:xlink="http://www.w3.org/1999/xlink" contentScriptType="application/ecmascript" contentStyleType="text/css" height="466px" preserveAspectRatio="none" style="width:1006px;height:466px;" version="1.1" viewBox="0 0 1006 466" width="1006px" zoomAndPan="magnify"><defs><filter height="300%" id="f1m9pja08trpdn" width="300%" x="-1" y="-1"><feGaussianBlur result="blurOut" stdDeviation="2.0"/><feColorMatrix in="blurOut" result="blurOut2" type="matrix" values="0 0 0 0 0 0 0 0 0 0 0 0 0 0 0 0 0 0 .4 0"/><feOffset dx="4.0" dy="4.0" in="blurOut2" result="blurOut3"/><feBlend in="SourceGraphic" in2="blurOut3" mode="normal"/></filter></defs><g><rect fill="#FFFFFF" filter="url(#f1m9pja08trpdn)" height="272.1641" style="stroke:#A80036;stroke-width:1.0;" width="10" x="376.5" y="99.6094"/><rect fill="#FFFFFF" filter="url(#f1m9pja08trpdn)" height="43.5273" style="stroke:#A80036;stroke-width:1.0;" width="10" x="945.5" y="135.1367"/><rect fill="#FFFFFF" filter="url(#f1m9pja08trpdn)" height="37.3516" style="stroke:#A80036;stroke-width:1.0;" width="10" x="945.5" y="264.7188"/><rect fill="#FFFFFF" filter="url(#f1m9pja08trpdn)" height="30.3516" style="stroke:#A80036;stroke-width:1.0;" width="10" x="945.5" y="332.4219"/><rect fill="#FFFFFF" filter="url(#f1m9pja08trpdn)" height="48.7031" style="stroke:#000000;stroke-width:2.0;" width="694.5" x="298" y="224.0156"/><line style="stroke:#A80036;stroke-width:1.0;stroke-dasharray:5.0,5.0;" x1="381" x2="381" y1="89.6094" y2="380.7734"/><line style="stroke:#A80036;stroke-width:1.0;stroke-dasharray:5.0,5.0;" x1="950.5" x2="950.5" y1="89.6094" y2="380.7734"/><text fill="#000000" font-family="sans-serif" font-size="14" lengthAdjust="spacing" textLength="141" x="308" y="86.5332">MedicalLabTechnician</text><ellipse cx="381.5" cy="15" fill="#FEFECE" filter="url(#f1m9pja08trpdn)" rx="8" ry="8" style="stroke:#A80036;stroke-width:2.0;"/><path d="M381.5,23 L381.5,50 M368.5,31 L394.5,31 M381.5,50 L368.5,65 M381.5,50 L394.5,65 " fill="none" filter="url(#f1m9pja08trpdn)" style="stroke:#A80036;stroke-width:2.0;"/><text fill="#000000" font-family="sans-serif" font-size="14" lengthAdjust="spacing" textLength="141" x="308" y="394.3066">MedicalLabTechnician</text><ellipse cx="381.5" cy="407.3828" fill="#FEFECE" filter="url(#f1m9pja08trpdn)" rx="8" ry="8" style="stroke:#A80036;stroke-width:2.0;"/><path d="M381.5,415.3828 L381.5,442.3828 M368.5,423.3828 L394.5,423.3828 M381.5,442.3828 L368.5,457.3828 M381.5,442.3828 L394.5,457.3828 " fill="none" filter="url(#f1m9pja08trpdn)" style="stroke:#A80036;stroke-width:2.0;"/><rect fill="#FEFECE" filter="url(#f1m9pja08trpdn)" height="31.6094" style="stroke:#A80036;stroke-width:1.5;" width="60" x="918.5" y="53"/><text fill="#000000" font-family="sans-serif" font-size="14" lengthAdjust="spacing" textLength="46" x="925.5" y="74.5332">System</text><rect fill="#FEFECE" filter="url(#f1m9pja08trpdn)" height="31.6094" style="stroke:#A80036;stroke-width:1.5;" width="60" x="918.5" y="379.7734"/><text fill="#000000" font-family="sans-serif" font-size="14" lengthAdjust="spacing" textLength="46" x="925.5" y="401.3066">System</text><rect fill="#FFFFFF" filter="url(#f1m9pja08trpdn)" height="272.1641" style="stroke:#A80036;stroke-width:1.0;" width="10" x="376.5" y="99.6094"/><rect fill="#FFFFFF" filter="url(#f1m9pja08trpdn)" height="43.5273" style="stroke:#A80036;stroke-width:1.0;" width="10" x="945.5" y="135.1367"/><rect fill="#FFFFFF" filter="url(#f1m9pja08trpdn)" height="37.3516" style="stroke:#A80036;stroke-width:1.0;" width="10" x="945.5" y="264.7188"/><rect fill="#FFFFFF" filter="url(#f1m9pja08trpdn)" height="30.3516" style="stroke:#A80036;stroke-width:1.0;" width="10" x="945.5" y="332.4219"/><polygon fill="#A80036" points="933.5,131.1367,943.5,135.1367,933.5,139.1367,937.5,135.1367" style="stroke:#A80036;stroke-width:1.0;"/><line style="stroke:#A80036;stroke-width:1.0;" x1="386.5" x2="939.5" y1="135.1367" y2="135.1367"/><text fill="#000000" font-family="sans-serif" font-size="13" font-weight="bold" lengthAdjust="spacing" textLength="7" x="393.5" y="130.2803">1</text><text fill="#000000" font-family="sans-serif" font-size="13" lengthAdjust="spacing" textLength="268" x="404.5" y="130.2803">Asks to show the List of Tests to be Sampled.</text><path d="M5,104.6094 L5,146.6094 L368,146.6094 L368,114.6094 L358,104.6094 L5,104.6094 " fill="#FBFB77" filter="url(#f1m9pja08trpdn)" style="stroke:#A80036;stroke-width:1.0;"/><path d="M358,104.6094 L358,114.6094 L368,114.6094 L358,104.6094 " fill="#FBFB77" style="stroke:#A80036;stroke-width:1.0;"/><text fill="#000000" font-family="sans-serif" font-size="13" lengthAdjust="spacing" textLength="338" x="11" y="123.1045">See the steps of the Clinical Analysis Laboratory selection</text><text fill="#000000" font-family="sans-serif" font-size="13" lengthAdjust="spacing" textLength="311" x="11" y="139.4561">(US05-ChooseLabSSD.puml) before seeing the US05.</text><polygon fill="#A80036" points="397.5,174.6641,387.5,178.6641,397.5,182.6641,393.5,178.6641" style="stroke:#A80036;stroke-width:1.0;"/><line style="stroke:#A80036;stroke-width:1.0;" x1="391.5" x2="949.5" y1="178.6641" y2="178.6641"/><text fill="#000000" font-family="sans-serif" font-size="13" font-weight="bold" lengthAdjust="spacing" textLength="7" x="403.5" y="173.8076">2</text><text fill="#000000" font-family="sans-serif" font-size="13" lengthAdjust="spacing" textLength="226" x="414.5" y="173.8076">Shows the List of Tests to be sampled.</text><polygon fill="#A80036" points="938.5,205.0156,948.5,209.0156,938.5,213.0156,942.5,209.0156" style="stroke:#A80036;stroke-width:1.0;"/><line style="stroke:#A80036;stroke-width:1.0;" x1="386.5" x2="944.5" y1="209.0156" y2="209.0156"/><text fill="#000000" font-family="sans-serif" font-size="13" font-weight="bold" lengthAdjust="spacing" textLength="7" x="393.5" y="204.1592">3</text><text fill="#000000" font-family="sans-serif" font-size="13" lengthAdjust="spacing" textLength="268" x="404.5" y="204.1592">Choose the Test from Test to be sampled List.</text><path d="M298,224.0156 L371,224.0156 L371,232.0156 L361,242.0156 L298,242.0156 L298,224.0156 " fill="#EEEEEE" style="stroke:#000000;stroke-width:1.0;"/><rect fill="none" height="48.7031" style="stroke:#000000;stroke-width:2.0;" width="694.5" x="298" y="224.0156"/><text fill="#000000" font-family="sans-serif" font-size="13" font-weight="bold" lengthAdjust="spacing" textLength="28" x="313" y="238.5107">loop</text><text fill="#000000" font-family="sans-serif" font-size="11" font-weight="bold" lengthAdjust="spacing" textLength="117" x="386" y="237.4346">[number of samples]</text><polygon fill="#A80036" points="933.5,260.7188,943.5,264.7188,933.5,268.7188,937.5,264.7188" style="stroke:#A80036;stroke-width:1.0;"/><line style="stroke:#A80036;stroke-width:1.0;" x1="386.5" x2="939.5" y1="264.7188" y2="264.7188"/><text fill="#000000" font-family="sans-serif" font-size="13" font-weight="bold" lengthAdjust="spacing" textLength="7" x="393.5" y="259.8623">4</text><text fill="#000000" font-family="sans-serif" font-size="13" lengthAdjust="spacing" textLength="529" x="404.5" y="259.8623">Introduce a number of samples creating the samples with a automatic barcode for that Test.</text><polygon fill="#A80036" points="397.5,298.0703,387.5,302.0703,397.5,306.0703,393.5,302.0703" style="stroke:#A80036;stroke-width:1.0;"/><line style="stroke:#A80036;stroke-width:1.0;" x1="391.5" x2="949.5" y1="302.0703" y2="302.0703"/><text fill="#000000" font-family="sans-serif" font-size="13" font-weight="bold" lengthAdjust="spacing" textLength="7" x="403.5" y="297.2139">5</text><text fill="#000000" font-family="sans-serif" font-size="13" lengthAdjust="spacing" textLength="260" x="414.5" y="297.2139">Asks for confirmation of a Test with samples.</text><polygon fill="#A80036" points="933.5,328.4219,943.5,332.4219,933.5,336.4219,937.5,332.4219" style="stroke:#A80036;stroke-width:1.0;"/><line style="stroke:#A80036;stroke-width:1.0;" x1="386.5" x2="939.5" y1="332.4219" y2="332.4219"/><text fill="#000000" font-family="sans-serif" font-size="13" font-weight="bold" lengthAdjust="spacing" textLength="7" x="393.5" y="327.5654">6</text><text fill="#000000" font-family="sans-serif" font-size="13" lengthAdjust="spacing" textLength="55" x="404.5" y="327.5654">Confirms.</text><polygon fill="#A80036" points="397.5,358.7734,387.5,362.7734,397.5,366.7734,393.5,362.7734" style="stroke:#A80036;stroke-width:1.0;"/><line style="stroke:#A80036;stroke-width:1.0;" x1="391.5" x2="949.5" y1="362.7734" y2="362.7734"/><text fill="#000000" font-family="sans-serif" font-size="13" font-weight="bold" lengthAdjust="spacing" textLength="7" x="403.5" y="357.917">7</text><text fill="#000000" font-family="sans-serif" font-size="13" lengthAdjust="spacing" textLength="152" x="414.5" y="357.917">Informs operation success</text><!--MD5=[e8d38a9993f6761840ba034a27d9b33a]
@startuml

autonumber

actor MedicalLabTechnician as MLT
participant System

activate MLT
MLT -> System: Asks to show the List of Tests to be Sampled.
activate System
note left: See the steps of the Clinical Analysis Laboratory selection \n(US05-ChooseLabSSD.puml) before seeing the US05.
System -> MLT: Shows the List of Tests to be sampled.
deactivate System

MLT -> System: Choose the Test from Test to be sampled List.

loop number of samples

MLT -> System: Introduce a number of samples creating the samples with a automatic barcode for that Test.
activate System

end

System -> MLT: Asks for confirmation of a Test with samples.
deactivate System
MLT -> System: Confirms.

activate System
System -> MLT: Informs operation success
deactivate System

@enduml

PlantUML version 1.2021.5(Sun Apr 25 12:20:28 BST 2021)
(GPL source distribution)
Java Runtime: OpenJDK Runtime Environment
JVM: Dynamic Code Evolution 64-Bit Server VM
Default Encoding: Cp1252
Language: pt
Country: PT
--></g></svg>