<?xml version="1.0" encoding="UTF-8" standalone="no"?><svg xmlns="http://www.w3.org/2000/svg" xmlns:xlink="http://www.w3.org/1999/xlink" contentScriptType="application/ecmascript" contentStyleType="text/css" height="473px" preserveAspectRatio="none" style="width:982px;height:473px;" version="1.1" viewBox="0 0 982 473" width="982px" zoomAndPan="magnify"><defs><filter height="300%" id="f1prjkz2qsbz63" width="300%" x="-1" y="-1"><feGaussianBlur result="blurOut" stdDeviation="2.0"/><feColorMatrix in="blurOut" result="blurOut2" type="matrix" values="0 0 0 0 0 0 0 0 0 0 0 0 0 0 0 0 0 0 .4 0"/><feOffset dx="4.0" dy="4.0" in="blurOut2" result="blurOut3"/><feBlend in="SourceGraphic" in2="blurOut3" mode="normal"/></filter></defs><g><!--MD5=[02e4b9b7573f1156f41e60aa5b4e25a4]
class Company--><rect codeLine="11" fill="#FEFECE" filter="url(#f1prjkz2qsbz63)" height="61.8359" id="Company" style="stroke:#A80036;stroke-width:1.5;" width="85" x="427.5" y="7"/><ellipse cx="442.5" cy="23" fill="#ADD1B2" rx="11" ry="11" style="stroke:#A80036;stroke-width:1.0;"/><path d="M444.5,19.5 Q444.7031,19 444.9375,18.75 Q445.1719,18.5 445.4375,18.5 Q445.9063,18.5 446.2031,18.7813 Q446.5,19.0625 446.5,19.7188 L446.5,21.2813 Q446.5,21.9375 446.2188,22.2188 Q445.9375,22.5 445.5,22.5 Q445.1094,22.5 444.8594,22.3281 Q444.6094,22.1563 444.5,21.7031 Q444.4531,21.3906 444.2813,21.2188 Q443.9688,20.8906 443.4063,20.7031 Q442.8438,20.5 442.2813,20.5 Q441.5781,20.5 440.9844,20.7813 Q440.4063,21.0625 439.9531,21.6875 Q439.5,22.3125 439.5,23.1719 L439.5,24.0938 Q439.5,25.125 440.3438,25.8125 Q441.1875,26.5 442.6875,26.5 Q443.5781,26.5 444.2031,26.2969 Q444.5625,26.1875 444.9688,25.8281 Q445.2344,25.625 445.375,25.5625 Q445.5156,25.5 445.6875,25.5 Q446.0156,25.5 446.25,25.7656 Q446.5,26.0156 446.5,26.375 Q446.5,26.7188 446.1563,27.125 Q445.6563,27.7188 444.8594,28.0469 Q443.8125,28.5 442.5313,28.5 Q441.0313,28.5 439.8281,27.9063 Q438.8594,27.4375 438.1719,26.4219 Q437.5,25.4063 437.5,24.2031 L437.5,23.1094 Q437.5,21.8594 438.0938,20.7656 Q438.7031,19.6719 439.75,19.0938 Q440.8125,18.5 442,18.5 Q442.7188,18.5 443.3438,18.75 Q443.9688,19 444.5,19.5 Z " fill="#000000"/><text fill="#000000" font-family="sans-serif" font-size="12" lengthAdjust="spacing" textLength="53" x="456.5" y="27.9102">Company</text><line style="stroke:#A80036;stroke-width:1.5;" x1="428.5" x2="511.5" y1="39" y2="39"/><rect fill="none" height="6" style="stroke:#C82930;stroke-width:1.0;" width="6" x="435.5" y="47"/><text fill="#000000" font-family="sans-serif" font-size="11" lengthAdjust="spacing" textLength="55" x="447.5" y="54.4189">designation</text><line style="stroke:#A80036;stroke-width:1.5;" x1="428.5" x2="511.5" y1="60.8359" y2="60.8359"/><!--MD5=[7421f545a0d8420c5bec41e74b387d9c]
class Employee--><rect codeLine="15" fill="#FEFECE" filter="url(#f1prjkz2qsbz63)" height="144.8516" id="Employee" style="stroke:#A80036;stroke-width:1.5;" width="106" x="7" y="161"/><ellipse cx="30.55" cy="177" fill="#ADD1B2" rx="11" ry="11" style="stroke:#A80036;stroke-width:1.0;"/><path d="M32.55,173.5 Q32.7531,173 32.9875,172.75 Q33.2219,172.5 33.4875,172.5 Q33.9563,172.5 34.2531,172.7813 Q34.55,173.0625 34.55,173.7188 L34.55,175.2813 Q34.55,175.9375 34.2688,176.2188 Q33.9875,176.5 33.55,176.5 Q33.1594,176.5 32.9094,176.3281 Q32.6594,176.1563 32.55,175.7031 Q32.5031,175.3906 32.3313,175.2188 Q32.0188,174.8906 31.4563,174.7031 Q30.8938,174.5 30.3313,174.5 Q29.6281,174.5 29.0344,174.7813 Q28.4563,175.0625 28.0031,175.6875 Q27.55,176.3125 27.55,177.1719 L27.55,178.0938 Q27.55,179.125 28.3938,179.8125 Q29.2375,180.5 30.7375,180.5 Q31.6281,180.5 32.2531,180.2969 Q32.6125,180.1875 33.0188,179.8281 Q33.2844,179.625 33.425,179.5625 Q33.5656,179.5 33.7375,179.5 Q34.0656,179.5 34.3,179.7656 Q34.55,180.0156 34.55,180.375 Q34.55,180.7188 34.2063,181.125 Q33.7063,181.7188 32.9094,182.0469 Q31.8625,182.5 30.5813,182.5 Q29.0813,182.5 27.8781,181.9063 Q26.9094,181.4375 26.2219,180.4219 Q25.55,179.4063 25.55,178.2031 L25.55,177.1094 Q25.55,175.8594 26.1438,174.7656 Q26.7531,173.6719 27.8,173.0938 Q28.8625,172.5 30.05,172.5 Q30.7688,172.5 31.3938,172.75 Q32.0188,173 32.55,173.5 Z " fill="#000000"/><text fill="#000000" font-family="sans-serif" font-size="12" lengthAdjust="spacing" textLength="55" x="46.45" y="181.9102">Employee</text><line style="stroke:#A80036;stroke-width:1.5;" x1="8" x2="112" y1="193" y2="193"/><rect fill="none" height="6" style="stroke:#C82930;stroke-width:1.0;" width="6" x="15" y="201"/><text fill="#000000" font-family="sans-serif" font-size="11" lengthAdjust="spacing" textLength="26" x="27" y="208.4189">name</text><rect fill="none" height="6" style="stroke:#C82930;stroke-width:1.0;" width="6" x="15" y="214.8359"/><text fill="#000000" font-family="sans-serif" font-size="11" lengthAdjust="spacing" textLength="67" x="27" y="222.2549">phoneNumber</text><rect fill="none" height="6" style="stroke:#C82930;stroke-width:1.0;" width="6" x="15" y="228.6719"/><text fill="#000000" font-family="sans-serif" font-size="11" lengthAdjust="spacing" textLength="24" x="27" y="236.0908">email</text><rect fill="none" height="6" style="stroke:#C82930;stroke-width:1.0;" width="6" x="15" y="242.5078"/><text fill="#000000" font-family="sans-serif" font-size="11" lengthAdjust="spacing" textLength="55" x="27" y="249.9268">employeeID</text><rect fill="none" height="6" style="stroke:#C82930;stroke-width:1.0;" width="6" x="15" y="256.3438"/><text fill="#000000" font-family="sans-serif" font-size="11" lengthAdjust="spacing" textLength="43" x="27" y="263.7627">socCode</text><rect fill="none" height="6" style="stroke:#C82930;stroke-width:1.0;" width="6" x="15" y="270.1797"/><text fill="#000000" font-family="sans-serif" font-size="11" lengthAdjust="spacing" textLength="80" x="27" y="277.5986">organizationRole</text><rect fill="none" height="6" style="stroke:#C82930;stroke-width:1.0;" width="6" x="15" y="284.0156"/><text fill="#000000" font-family="sans-serif" font-size="11" lengthAdjust="spacing" textLength="40" x="27" y="291.4346">address</text><line style="stroke:#A80036;stroke-width:1.5;" x1="8" x2="112" y1="297.8516" y2="297.8516"/><!--MD5=[03960189e81aa2c066c762ffabbee709]
class Receptionist--><rect codeLine="25" fill="#FEFECE" filter="url(#f1prjkz2qsbz63)" height="48" id="Receptionist" style="stroke:#A80036;stroke-width:1.5;" width="101" x="148.5" y="209.5"/><ellipse cx="163.5" cy="225.5" fill="#ADD1B2" rx="11" ry="11" style="stroke:#A80036;stroke-width:1.0;"/><path d="M165.5,222 Q165.7031,221.5 165.9375,221.25 Q166.1719,221 166.4375,221 Q166.9063,221 167.2031,221.2813 Q167.5,221.5625 167.5,222.2188 L167.5,223.7813 Q167.5,224.4375 167.2188,224.7188 Q166.9375,225 166.5,225 Q166.1094,225 165.8594,224.8281 Q165.6094,224.6563 165.5,224.2031 Q165.4531,223.8906 165.2813,223.7188 Q164.9688,223.3906 164.4063,223.2031 Q163.8438,223 163.2813,223 Q162.5781,223 161.9844,223.2813 Q161.4063,223.5625 160.9531,224.1875 Q160.5,224.8125 160.5,225.6719 L160.5,226.5938 Q160.5,227.625 161.3438,228.3125 Q162.1875,229 163.6875,229 Q164.5781,229 165.2031,228.7969 Q165.5625,228.6875 165.9688,228.3281 Q166.2344,228.125 166.375,228.0625 Q166.5156,228 166.6875,228 Q167.0156,228 167.25,228.2656 Q167.5,228.5156 167.5,228.875 Q167.5,229.2188 167.1563,229.625 Q166.6563,230.2188 165.8594,230.5469 Q164.8125,231 163.5313,231 Q162.0313,231 160.8281,230.4063 Q159.8594,229.9375 159.1719,228.9219 Q158.5,227.9063 158.5,226.7031 L158.5,225.6094 Q158.5,224.3594 159.0938,223.2656 Q159.7031,222.1719 160.75,221.5938 Q161.8125,221 163,221 Q163.7188,221 164.3438,221.25 Q164.9688,221.5 165.5,222 Z " fill="#000000"/><text fill="#000000" font-family="sans-serif" font-size="12" lengthAdjust="spacing" textLength="69" x="177.5" y="230.4102">Receptionist</text><line style="stroke:#A80036;stroke-width:1.5;" x1="149.5" x2="248.5" y1="241.5" y2="241.5"/><line style="stroke:#A80036;stroke-width:1.5;" x1="149.5" x2="248.5" y1="249.5" y2="249.5"/><!--MD5=[df38be88ccee13e832d6fafd6288a4ca]
class Test--><rect codeLine="28" fill="#FEFECE" filter="url(#f1prjkz2qsbz63)" height="172.5234" id="Test" style="stroke:#A80036;stroke-width:1.5;" width="153" x="349.5" y="147"/><ellipse cx="409.75" cy="163" fill="#ADD1B2" rx="11" ry="11" style="stroke:#A80036;stroke-width:1.0;"/><path d="M411.75,159.5 Q411.9531,159 412.1875,158.75 Q412.4219,158.5 412.6875,158.5 Q413.1563,158.5 413.4531,158.7813 Q413.75,159.0625 413.75,159.7188 L413.75,161.2813 Q413.75,161.9375 413.4688,162.2188 Q413.1875,162.5 412.75,162.5 Q412.3594,162.5 412.1094,162.3281 Q411.8594,162.1563 411.75,161.7031 Q411.7031,161.3906 411.5313,161.2188 Q411.2188,160.8906 410.6563,160.7031 Q410.0938,160.5 409.5313,160.5 Q408.8281,160.5 408.2344,160.7813 Q407.6563,161.0625 407.2031,161.6875 Q406.75,162.3125 406.75,163.1719 L406.75,164.0938 Q406.75,165.125 407.5938,165.8125 Q408.4375,166.5 409.9375,166.5 Q410.8281,166.5 411.4531,166.2969 Q411.8125,166.1875 412.2188,165.8281 Q412.4844,165.625 412.625,165.5625 Q412.7656,165.5 412.9375,165.5 Q413.2656,165.5 413.5,165.7656 Q413.75,166.0156 413.75,166.375 Q413.75,166.7188 413.4063,167.125 Q412.9063,167.7188 412.1094,168.0469 Q411.0625,168.5 409.7813,168.5 Q408.2813,168.5 407.0781,167.9063 Q406.1094,167.4375 405.4219,166.4219 Q404.75,165.4063 404.75,164.2031 L404.75,163.1094 Q404.75,161.8594 405.3438,160.7656 Q405.9531,159.6719 407,159.0938 Q408.0625,158.5 409.25,158.5 Q409.9688,158.5 410.5938,158.75 Q411.2188,159 411.75,159.5 Z " fill="#000000"/><text fill="#000000" font-family="sans-serif" font-size="12" lengthAdjust="spacing" textLength="24" x="430.25" y="167.9102">Test</text><line style="stroke:#A80036;stroke-width:1.5;" x1="350.5" x2="501.5" y1="179" y2="179"/><rect fill="none" height="6" style="stroke:#C82930;stroke-width:1.0;" width="6" x="357.5" y="187"/><text fill="#000000" font-family="sans-serif" font-size="11" lengthAdjust="spacing" textLength="24" x="369.5" y="194.4189">code</text><rect fill="none" height="6" style="stroke:#C82930;stroke-width:1.0;" width="6" x="357.5" y="200.8359"/><text fill="#000000" font-family="sans-serif" font-size="11" lengthAdjust="spacing" textLength="43" x="369.5" y="208.2549">nhsCode</text><rect fill="none" height="6" style="stroke:#C82930;stroke-width:1.0;" width="6" x="357.5" y="214.6719"/><text fill="#000000" font-family="sans-serif" font-size="11" lengthAdjust="spacing" textLength="48" x="369.5" y="222.0908">createdAt</text><rect fill="none" height="6" style="stroke:#C82930;stroke-width:1.0;" width="6" x="357.5" y="228.5078"/><text fill="#000000" font-family="sans-serif" font-size="11" lengthAdjust="spacing" textLength="49" x="369.5" y="235.9268">resultDate</text><rect fill="none" height="6" style="stroke:#C82930;stroke-width:1.0;" width="6" x="357.5" y="242.3438"/><text fill="#000000" font-family="sans-serif" font-size="11" lengthAdjust="spacing" textLength="56" x="369.5" y="249.7627">sampleDate</text><rect fill="none" height="6" style="stroke:#C82930;stroke-width:1.0;" width="6" x="357.5" y="256.1797"/><text fill="#000000" font-family="sans-serif" font-size="11" lengthAdjust="spacing" textLength="51" x="369.5" y="263.5986">reportDate</text><rect fill="none" height="6" style="stroke:#C82930;stroke-width:1.0;" width="6" x="357.5" y="270.0156"/><text fill="#000000" font-family="sans-serif" font-size="11" lengthAdjust="spacing" textLength="42" x="369.5" y="277.4346">testType</text><rect fill="none" height="6" style="stroke:#C82930;stroke-width:1.0;" width="6" x="357.5" y="283.8516"/><text fill="#000000" font-family="sans-serif" font-size="11" lengthAdjust="spacing" textLength="127" x="369.5" y="291.2705">clinicalAnalysisLaboratory</text><rect fill="none" height="6" style="stroke:#C82930;stroke-width:1.0;" width="6" x="357.5" y="297.6875"/><text fill="#000000" font-family="sans-serif" font-size="11" lengthAdjust="spacing" textLength="50" x="369.5" y="305.1064">testReport</text><line style="stroke:#A80036;stroke-width:1.5;" x1="350.5" x2="501.5" y1="311.5234" y2="311.5234"/><!--MD5=[9681492165142af2a4a3a169d90ee8d4]
class Sample--><rect codeLine="39" fill="#FEFECE" filter="url(#f1prjkz2qsbz63)" height="61.8359" id="Sample" style="stroke:#A80036;stroke-width:1.5;" width="103" x="481.5" y="398"/><ellipse cx="509.1" cy="414" fill="#ADD1B2" rx="11" ry="11" style="stroke:#A80036;stroke-width:1.0;"/><path d="M511.1,410.5 Q511.3031,410 511.5375,409.75 Q511.7719,409.5 512.0375,409.5 Q512.5063,409.5 512.8031,409.7813 Q513.1,410.0625 513.1,410.7188 L513.1,412.2813 Q513.1,412.9375 512.8188,413.2188 Q512.5375,413.5 512.1,413.5 Q511.7094,413.5 511.4594,413.3281 Q511.2094,413.1563 511.1,412.7031 Q511.0531,412.3906 510.8813,412.2188 Q510.5688,411.8906 510.0063,411.7031 Q509.4438,411.5 508.8813,411.5 Q508.1781,411.5 507.5844,411.7813 Q507.0063,412.0625 506.5531,412.6875 Q506.1,413.3125 506.1,414.1719 L506.1,415.0938 Q506.1,416.125 506.9438,416.8125 Q507.7875,417.5 509.2875,417.5 Q510.1781,417.5 510.8031,417.2969 Q511.1625,417.1875 511.5688,416.8281 Q511.8344,416.625 511.975,416.5625 Q512.1156,416.5 512.2875,416.5 Q512.6156,416.5 512.85,416.7656 Q513.1,417.0156 513.1,417.375 Q513.1,417.7188 512.7563,418.125 Q512.2563,418.7188 511.4594,419.0469 Q510.4125,419.5 509.1313,419.5 Q507.6313,419.5 506.4281,418.9063 Q505.4594,418.4375 504.7719,417.4219 Q504.1,416.4063 504.1,415.2031 L504.1,414.1094 Q504.1,412.8594 504.6938,411.7656 Q505.3031,410.6719 506.35,410.0938 Q507.4125,409.5 508.6,409.5 Q509.3188,409.5 509.9438,409.75 Q510.5688,410 511.1,410.5 Z " fill="#000000"/><text fill="#000000" font-family="sans-serif" font-size="12" lengthAdjust="spacing" textLength="43" x="525.9" y="418.9102">Sample</text><line style="stroke:#A80036;stroke-width:1.5;" x1="482.5" x2="583.5" y1="430" y2="430"/><rect fill="none" height="6" style="stroke:#C82930;stroke-width:1.0;" width="6" x="489.5" y="438"/><text fill="#000000" font-family="sans-serif" font-size="11" lengthAdjust="spacing" textLength="77" x="501.5" y="445.4189">barcodeNumber</text><line style="stroke:#A80036;stroke-width:1.5;" x1="482.5" x2="583.5" y1="451.8359" y2="451.8359"/><!--MD5=[01931d41e78f8996acd44f6f0fd8de28]
class MedicalLabTechnician--><rect codeLine="43" fill="#FEFECE" filter="url(#f1prjkz2qsbz63)" height="48" id="MedicalLabTechnician" style="stroke:#A80036;stroke-width:1.5;" width="155" x="537.5" y="209.5"/><ellipse cx="552.5" cy="225.5" fill="#ADD1B2" rx="11" ry="11" style="stroke:#A80036;stroke-width:1.0;"/><path d="M554.5,222 Q554.7031,221.5 554.9375,221.25 Q555.1719,221 555.4375,221 Q555.9063,221 556.2031,221.2813 Q556.5,221.5625 556.5,222.2188 L556.5,223.7813 Q556.5,224.4375 556.2188,224.7188 Q555.9375,225 555.5,225 Q555.1094,225 554.8594,224.8281 Q554.6094,224.6563 554.5,224.2031 Q554.4531,223.8906 554.2813,223.7188 Q553.9688,223.3906 553.4063,223.2031 Q552.8438,223 552.2813,223 Q551.5781,223 550.9844,223.2813 Q550.4063,223.5625 549.9531,224.1875 Q549.5,224.8125 549.5,225.6719 L549.5,226.5938 Q549.5,227.625 550.3438,228.3125 Q551.1875,229 552.6875,229 Q553.5781,229 554.2031,228.7969 Q554.5625,228.6875 554.9688,228.3281 Q555.2344,228.125 555.375,228.0625 Q555.5156,228 555.6875,228 Q556.0156,228 556.25,228.2656 Q556.5,228.5156 556.5,228.875 Q556.5,229.2188 556.1563,229.625 Q555.6563,230.2188 554.8594,230.5469 Q553.8125,231 552.5313,231 Q551.0313,231 549.8281,230.4063 Q548.8594,229.9375 548.1719,228.9219 Q547.5,227.9063 547.5,226.7031 L547.5,225.6094 Q547.5,224.3594 548.0938,223.2656 Q548.7031,222.1719 549.75,221.5938 Q550.8125,221 552,221 Q552.7188,221 553.3438,221.25 Q553.9688,221.5 554.5,222 Z " fill="#000000"/><text fill="#000000" font-family="sans-serif" font-size="12" lengthAdjust="spacing" textLength="123" x="566.5" y="230.4102">MedicalLabTechnician</text><line style="stroke:#A80036;stroke-width:1.5;" x1="538.5" x2="691.5" y1="241.5" y2="241.5"/><line style="stroke:#A80036;stroke-width:1.5;" x1="538.5" x2="691.5" y1="249.5" y2="249.5"/><!--MD5=[e671f3231fffda95da92cdb61ed3f059]
class BarcodeAPI--><rect codeLine="46" fill="#FEFECE" filter="url(#f1prjkz2qsbz63)" height="48" id="BarcodeAPI" style="stroke:#A80036;stroke-width:1.5;" width="96" x="261" y="405"/><ellipse cx="276" cy="421" fill="#ADD1B2" rx="11" ry="11" style="stroke:#A80036;stroke-width:1.0;"/><path d="M278,417.5 Q278.2031,417 278.4375,416.75 Q278.6719,416.5 278.9375,416.5 Q279.4063,416.5 279.7031,416.7813 Q280,417.0625 280,417.7188 L280,419.2813 Q280,419.9375 279.7188,420.2188 Q279.4375,420.5 279,420.5 Q278.6094,420.5 278.3594,420.3281 Q278.1094,420.1563 278,419.7031 Q277.9531,419.3906 277.7813,419.2188 Q277.4688,418.8906 276.9063,418.7031 Q276.3438,418.5 275.7813,418.5 Q275.0781,418.5 274.4844,418.7813 Q273.9063,419.0625 273.4531,419.6875 Q273,420.3125 273,421.1719 L273,422.0938 Q273,423.125 273.8438,423.8125 Q274.6875,424.5 276.1875,424.5 Q277.0781,424.5 277.7031,424.2969 Q278.0625,424.1875 278.4688,423.8281 Q278.7344,423.625 278.875,423.5625 Q279.0156,423.5 279.1875,423.5 Q279.5156,423.5 279.75,423.7656 Q280,424.0156 280,424.375 Q280,424.7188 279.6563,425.125 Q279.1563,425.7188 278.3594,426.0469 Q277.3125,426.5 276.0313,426.5 Q274.5313,426.5 273.3281,425.9063 Q272.3594,425.4375 271.6719,424.4219 Q271,423.4063 271,422.2031 L271,421.1094 Q271,419.8594 271.5938,418.7656 Q272.2031,417.6719 273.25,417.0938 Q274.3125,416.5 275.5,416.5 Q276.2188,416.5 276.8438,416.75 Q277.4688,417 278,417.5 Z " fill="#000000"/><text fill="#000000" font-family="sans-serif" font-size="12" lengthAdjust="spacing" textLength="64" x="290" y="425.9102">BarcodeAPI</text><line style="stroke:#A80036;stroke-width:1.5;" x1="262" x2="356" y1="437" y2="437"/><line style="stroke:#A80036;stroke-width:1.5;" x1="262" x2="356" y1="445" y2="445"/><!--MD5=[1934a092c0e7d4da7dc7075b6f4b6b03]
class ClinicalAnalysisLaboratory--><rect codeLine="49" fill="#FEFECE" filter="url(#f1prjkz2qsbz63)" height="117.1797" id="ClinicalAnalysisLaboratory" style="stroke:#A80036;stroke-width:1.5;" width="177" x="791.5" y="175"/><ellipse cx="806.5" cy="191" fill="#ADD1B2" rx="11" ry="11" style="stroke:#A80036;stroke-width:1.0;"/><path d="M808.5,187.5 Q808.7031,187 808.9375,186.75 Q809.1719,186.5 809.4375,186.5 Q809.9063,186.5 810.2031,186.7813 Q810.5,187.0625 810.5,187.7188 L810.5,189.2813 Q810.5,189.9375 810.2188,190.2188 Q809.9375,190.5 809.5,190.5 Q809.1094,190.5 808.8594,190.3281 Q808.6094,190.1563 808.5,189.7031 Q808.4531,189.3906 808.2813,189.2188 Q807.9688,188.8906 807.4063,188.7031 Q806.8438,188.5 806.2813,188.5 Q805.5781,188.5 804.9844,188.7813 Q804.4063,189.0625 803.9531,189.6875 Q803.5,190.3125 803.5,191.1719 L803.5,192.0938 Q803.5,193.125 804.3438,193.8125 Q805.1875,194.5 806.6875,194.5 Q807.5781,194.5 808.2031,194.2969 Q808.5625,194.1875 808.9688,193.8281 Q809.2344,193.625 809.375,193.5625 Q809.5156,193.5 809.6875,193.5 Q810.0156,193.5 810.25,193.7656 Q810.5,194.0156 810.5,194.375 Q810.5,194.7188 810.1563,195.125 Q809.6563,195.7188 808.8594,196.0469 Q807.8125,196.5 806.5313,196.5 Q805.0313,196.5 803.8281,195.9063 Q802.8594,195.4375 802.1719,194.4219 Q801.5,193.4063 801.5,192.2031 L801.5,191.1094 Q801.5,189.8594 802.0938,188.7656 Q802.7031,187.6719 803.75,187.0938 Q804.8125,186.5 806,186.5 Q806.7188,186.5 807.3438,186.75 Q807.9688,187 808.5,187.5 Z " fill="#000000"/><text fill="#000000" font-family="sans-serif" font-size="12" lengthAdjust="spacing" textLength="145" x="820.5" y="195.9102">ClinicalAnalysisLaboratory</text><line style="stroke:#A80036;stroke-width:1.5;" x1="792.5" x2="967.5" y1="207" y2="207"/><rect fill="none" height="6" style="stroke:#C82930;stroke-width:1.0;" width="6" x="799.5" y="215"/><text fill="#000000" font-family="sans-serif" font-size="11" lengthAdjust="spacing" textLength="40" x="811.5" y="222.4189">address</text><rect fill="none" height="6" style="stroke:#C82930;stroke-width:1.0;" width="6" x="799.5" y="228.8359"/><text fill="#000000" font-family="sans-serif" font-size="11" lengthAdjust="spacing" textLength="67" x="811.5" y="236.2549">phoneNumber</text><rect fill="none" height="6" style="stroke:#C82930;stroke-width:1.0;" width="6" x="799.5" y="242.6719"/><text fill="#000000" font-family="sans-serif" font-size="11" lengthAdjust="spacing" textLength="48" x="811.5" y="250.0908">tinNumber</text><rect fill="none" height="6" style="stroke:#C82930;stroke-width:1.0;" width="6" x="799.5" y="256.5078"/><text fill="#000000" font-family="sans-serif" font-size="11" lengthAdjust="spacing" textLength="26" x="811.5" y="263.9268">name</text><rect fill="none" height="6" style="stroke:#C82930;stroke-width:1.0;" width="6" x="799.5" y="270.3438"/><text fill="#000000" font-family="sans-serif" font-size="11" lengthAdjust="spacing" textLength="58" x="811.5" y="277.7627">laboratoryID</text><line style="stroke:#A80036;stroke-width:1.5;" x1="792.5" x2="967.5" y1="284.1797" y2="284.1797"/><!--MD5=[aafc5d8a5829a6a8d6dc892cb1ff5d24]
link Company to ClinicalAnalysisLaboratory--><path codeLine="57" d="M512.74,57.57 C560.94,78.66 641.52,114.39 710,147 C736.55,159.64 765.18,173.83 791.24,186.96 " fill="none" id="Company-ClinicalAnalysisLaboratory" style="stroke:#A80036;stroke-width:1.0;"/><polygon fill="#000000" points="653.5345,110.2825,646.5698,103.8061,644.0932,109.1367,653.5345,110.2825" style="stroke:#000000;stroke-width:1.0;"/><text fill="#000000" font-family="sans-serif" font-size="13" lengthAdjust="spacing" textLength="30" x="658" y="113.4951">owns</text><text fill="#000000" font-family="sans-serif" font-size="13" lengthAdjust="spacing" textLength="7" x="520.3985" y="57.0241">1</text><text fill="#000000" font-family="sans-serif" font-size="13" lengthAdjust="spacing" textLength="5" x="778.3973" y="179.7755">*</text><!--MD5=[09366576ee87d48d594df10cacc83f45]
link Company to Employee--><path codeLine="58" d="M427.28,44.7 C359.5,55.4 225.37,83.39 131,147 C124.76,151.21 118.77,156.11 113.11,161.41 " fill="none" id="Company-Employee" style="stroke:#A80036;stroke-width:1.0;"/><polygon fill="#000000" points="217.313,109.917,226.8153,109.5221,224.7685,104.0122,217.313,109.917" style="stroke:#000000;stroke-width:1.0;"/><text fill="#000000" font-family="sans-serif" font-size="13" lengthAdjust="spacing" textLength="21" x="231" y="113.4951">has</text><text fill="#000000" font-family="sans-serif" font-size="13" lengthAdjust="spacing" textLength="7" x="412.6248" y="42.0225">1</text><text fill="#000000" font-family="sans-serif" font-size="13" lengthAdjust="spacing" textLength="5" x="119.1923" y="150.1726">*</text><!--MD5=[1e1dce08c37f0187623bbbd21aae314b]
link BarcodeAPI to Sample--><path codeLine="59" d="M357.05,429 C393.56,429 443.7,429 481.12,429 " fill="none" id="BarcodeAPI-Sample" style="stroke:#A80036;stroke-width:1.0;"/><polygon fill="#000000" points="374.25,417.1758,383.2951,420.1147,383.2951,414.2369,374.25,417.1758" style="stroke:#000000;stroke-width:1.0;"/><text fill="#000000" font-family="sans-serif" font-size="13" lengthAdjust="spacing" textLength="75" x="388.25" y="422.4951">is created by</text><text fill="#000000" font-family="sans-serif" font-size="13" lengthAdjust="spacing" textLength="7" x="364.9436" y="425.297">1</text><text fill="#000000" font-family="sans-serif" font-size="13" lengthAdjust="spacing" textLength="7" x="466.3322" y="425.4064">1</text><!--MD5=[b72ac8ab7fb5921fceb5036a3902baea]
link Test to Sample--><path codeLine="60" d="M473.4,320.22 C488.72,347.92 504.71,376.84 516.27,397.74 " fill="none" id="Test-Sample" style="stroke:#A80036;stroke-width:1.0;"/><polygon fill="#000000" points="501.5803,354.8003,503.3858,364.1379,508.5294,361.2933,501.5803,354.8003" style="stroke:#000000;stroke-width:1.0;"/><text fill="#000000" font-family="sans-serif" font-size="13" lengthAdjust="spacing" textLength="35" x="513" y="364.4951">needs</text><text fill="#000000" font-family="sans-serif" font-size="13" lengthAdjust="spacing" textLength="7" x="469.7611" y="340.9988">1</text><text fill="#000000" font-family="sans-serif" font-size="13" lengthAdjust="spacing" textLength="7" x="505.0976" y="387.1909">1</text><!--MD5=[e8b34c2e6517a986175307f5599f058a]
link Receptionist to Test--><path codeLine="61" d="M249.66,233.5 C278.93,233.5 316.34,233.5 349.17,233.5 " fill="none" id="Receptionist-Test" style="stroke:#A80036;stroke-width:1.0;"/><polygon fill="#000000" points="277,221.6758,267.9549,218.7369,267.9549,224.6147,277,221.6758" style="stroke:#000000;stroke-width:1.0;"/><text fill="#000000" font-family="sans-serif" font-size="13" lengthAdjust="spacing" textLength="50" x="281" y="226.9951">registers</text><text fill="#000000" font-family="sans-serif" font-size="13" lengthAdjust="spacing" textLength="7" x="257.6147" y="229.8459">1</text><text fill="#000000" font-family="sans-serif" font-size="13" lengthAdjust="spacing" textLength="7" x="334.5135" y="230.2721">1</text><!--MD5=[bfff716514ca687b645fe473c6e098a4]
reverse link Employee to Receptionist--><path codeLine="62" d="M126.41,233.5 C133.74,233.5 141.07,233.5 148.4,233.5 " fill="none" id="Employee-backto-Receptionist" style="stroke:#A80036;stroke-width:1.0;"/><polygon fill="#FFFFFF" points="113.21,233.5,119.21,237.5,125.21,233.5,119.21,229.5,113.21,233.5" style="stroke:#A80036;stroke-width:1.0;"/><!--MD5=[0a29b4543c1af9e8341b856b8b8ec05c]
link MedicalLabTechnician to Sample--><path codeLine="63" d="M605.11,257.84 C590.24,292.92 562.14,359.24 545.75,397.91 " fill="none" id="MedicalLabTechnician-Sample" style="stroke:#A80036;stroke-width:1.0;"/><polygon fill="#000000" points="570.951,354.5721,564.7157,361.7535,570.1276,364.047,570.951,354.5721" style="stroke:#000000;stroke-width:1.0;"/><text fill="#000000" font-family="sans-serif" font-size="13" lengthAdjust="spacing" textLength="84" x="578" y="364.4951">is collected by</text><text fill="#000000" font-family="sans-serif" font-size="13" lengthAdjust="spacing" textLength="7" x="595.0136" y="278.8544">1</text><text fill="#000000" font-family="sans-serif" font-size="13" lengthAdjust="spacing" textLength="7" x="540.7734" y="386.9106">1</text><!--MD5=[738f0445d4a0804ca0738b44323ae22b]
link MedicalLabTechnician to ClinicalAnalysisLaboratory--><path codeLine="64" d="M692.72,233.5 C723.57,233.5 759.23,233.5 791.1,233.5 " fill="none" id="MedicalLabTechnician-ClinicalAnalysisLaboratory" style="stroke:#A80036;stroke-width:1.0;"/><polygon fill="#000000" points="710,221.6758,719.0451,224.6147,719.0451,218.7369,710,221.6758" style="stroke:#000000;stroke-width:1.0;"/><text fill="#000000" font-family="sans-serif" font-size="13" lengthAdjust="spacing" textLength="49" x="724" y="226.9951">works at</text><text fill="#000000" font-family="sans-serif" font-size="13" lengthAdjust="spacing" textLength="7" x="700.4613" y="230.2494">1</text><text fill="#000000" font-family="sans-serif" font-size="13" lengthAdjust="spacing" textLength="5" x="778.5309" y="230.3397">*</text><!--MD5=[905794671ad68ed3a27bdc94c8e08f87]
@startuml

class Company
class Employee
class Receptionist
class Test
class Sample
class MedicalLabTechnician
class BarcodeAPI
class ClinicalAnalysisLaboratory

class Company{
-designation
}

class Employee{
- name
- phoneNumber
- email
- employeeID
- socCode
- organizationRole
- address
}

class Receptionist {
}

class Test {
- code
- nhsCode
- createdAt
- resultDate
- sampleDate
- reportDate
- testType
- clinicalAnalysisLaboratory
- testReport
}
class Sample {
-barcodeNumber
}

class MedicalLabTechnician {
}

class BarcodeAPI {
}

class ClinicalAnalysisLaboratory {
-address
-phoneNumber
-tinNumber
-name
-laboratoryID
}

Company "1" - - "*" ClinicalAnalysisLaboratory : owns >
Company "1" - - "*" Employee : has >
BarcodeAPI "1" - "1" Sample : is created by <
Test "1" - - "1" Sample : needs <
Receptionist "1" - "1" Test : registers >
Employee o- Receptionist
MedicalLabTechnician "1" - - "1" Sample : is collected by <
MedicalLabTechnician "1" - "*" ClinicalAnalysisLaboratory : works at <

@enduml

PlantUML version 1.2021.5(Sun Apr 25 12:20:28 BST 2021)
(GPL source distribution)
Java Runtime: OpenJDK Runtime Environment
JVM: Dynamic Code Evolution 64-Bit Server VM
Default Encoding: Cp1252
Language: pt
Country: PT
--></g></svg>