<?xml version="1.0" encoding="UTF-8" standalone="no"?><svg xmlns="http://www.w3.org/2000/svg" xmlns:xlink="http://www.w3.org/1999/xlink" contentScriptType="application/ecmascript" contentStyleType="text/css" height="745px" preserveAspectRatio="none" style="width:1118px;height:745px;" version="1.1" viewBox="0 0 1118 745" width="1118.75px" zoomAndPan="magnify"><defs><filter height="300%" id="f1fxfb53ydar0r" width="300%" x="-1" y="-1"><feGaussianBlur result="blurOut" stdDeviation="2.5"/><feColorMatrix in="blurOut" result="blurOut2" type="matrix" values="0 0 0 0 0 0 0 0 0 0 0 0 0 0 0 0 0 0 .4 0"/><feOffset dx="5.0" dy="5.0" in="blurOut2" result="blurOut3"/><feBlend in="SourceGraphic" in2="blurOut3" mode="normal"/></filter></defs><g><!--MD5=[da547346deef918ea16944ba046651ef]
class Administrator--><rect codeLine="2" fill="#FEFECE" filter="url(#f1fxfb53ydar0r)" height="60" id="Administrator" style="stroke:#A80036;stroke-width:1.875;" width="131.25" x="435.625" y="8.75"/><ellipse cx="454.375" cy="28.75" fill="#ADD1B2" rx="13.75" ry="13.75" style="stroke:#A80036;stroke-width:1.25;"/><path d="M456.875,24.375 Q457.1289,23.75 457.4219,23.4375 Q457.7148,23.125 458.0469,23.125 Q458.6328,23.125 459.0039,23.4766 Q459.375,23.8281 459.375,24.6484 L459.375,26.6016 Q459.375,27.4219 459.0234,27.7734 Q458.6719,28.125 458.125,28.125 Q457.6367,28.125 457.3242,27.9102 Q457.0117,27.6953 456.875,27.1289 Q456.8164,26.7383 456.6016,26.5234 Q456.2109,26.1133 455.5078,25.8789 Q454.8047,25.625 454.1016,25.625 Q453.2227,25.625 452.4805,25.9766 Q451.7578,26.3281 451.1914,27.1094 Q450.625,27.8906 450.625,28.9648 L450.625,30.1172 Q450.625,31.4063 451.6797,32.2656 Q452.7344,33.125 454.6094,33.125 Q455.7227,33.125 456.5039,32.8711 Q456.9531,32.7344 457.4609,32.2852 Q457.793,32.0313 457.9688,31.9531 Q458.1445,31.875 458.3594,31.875 Q458.7695,31.875 459.0625,32.207 Q459.375,32.5195 459.375,32.9688 Q459.375,33.3984 458.9453,33.9063 Q458.3203,34.6484 457.3242,35.0586 Q456.0156,35.625 454.4141,35.625 Q452.5391,35.625 451.0352,34.8828 Q449.8242,34.2969 448.9648,33.0273 Q448.125,31.7578 448.125,30.2539 L448.125,28.8867 Q448.125,27.3242 448.8672,25.957 Q449.6289,24.5898 450.9375,23.8672 Q452.2656,23.125 453.75,23.125 Q454.6484,23.125 455.4297,23.4375 Q456.2109,23.75 456.875,24.375 Z " fill="#000000"/><text fill="#000000" font-family="sans-serif" font-size="15" lengthAdjust="spacing" textLength="91.25" x="471.875" y="34.8877">Administrator</text><line style="stroke:#A80036;stroke-width:1.875;" x1="436.875" x2="565.625" y1="48.75" y2="48.75"/><line style="stroke:#A80036;stroke-width:1.875;" x1="436.875" x2="565.625" y1="58.75" y2="58.75"/><!--MD5=[02e4b9b7573f1156f41e60aa5b4e25a4]
class Company--><rect codeLine="5" fill="#FEFECE" filter="url(#f1fxfb53ydar0r)" height="77.2949" id="Company" style="stroke:#A80036;stroke-width:1.875;" width="106.25" x="306.875" y="183.75"/><ellipse cx="325.625" cy="203.75" fill="#ADD1B2" rx="13.75" ry="13.75" style="stroke:#A80036;stroke-width:1.25;"/><path d="M328.125,199.375 Q328.3789,198.75 328.6719,198.4375 Q328.9648,198.125 329.2969,198.125 Q329.8828,198.125 330.2539,198.4766 Q330.625,198.8281 330.625,199.6484 L330.625,201.6016 Q330.625,202.4219 330.2734,202.7734 Q329.9219,203.125 329.375,203.125 Q328.8867,203.125 328.5742,202.9102 Q328.2617,202.6953 328.125,202.1289 Q328.0664,201.7383 327.8516,201.5234 Q327.4609,201.1133 326.7578,200.8789 Q326.0547,200.625 325.3516,200.625 Q324.4727,200.625 323.7305,200.9766 Q323.0078,201.3281 322.4414,202.1094 Q321.875,202.8906 321.875,203.9648 L321.875,205.1172 Q321.875,206.4063 322.9297,207.2656 Q323.9844,208.125 325.8594,208.125 Q326.9727,208.125 327.7539,207.8711 Q328.2031,207.7344 328.7109,207.2852 Q329.043,207.0313 329.2188,206.9531 Q329.3945,206.875 329.6094,206.875 Q330.0195,206.875 330.3125,207.207 Q330.625,207.5195 330.625,207.9688 Q330.625,208.3984 330.1953,208.9063 Q329.5703,209.6484 328.5742,210.0586 Q327.2656,210.625 325.6641,210.625 Q323.7891,210.625 322.2852,209.8828 Q321.0742,209.2969 320.2148,208.0273 Q319.375,206.7578 319.375,205.2539 L319.375,203.8867 Q319.375,202.3242 320.1172,200.957 Q320.8789,199.5898 322.1875,198.8672 Q323.5156,198.125 325,198.125 Q325.8984,198.125 326.6797,198.4375 Q327.4609,198.75 328.125,199.375 Z " fill="#000000"/><text fill="#000000" font-family="sans-serif" font-size="15" lengthAdjust="spacing" textLength="66.25" x="343.125" y="209.8877">Company</text><line style="stroke:#A80036;stroke-width:1.875;" x1="308.125" x2="411.875" y1="223.75" y2="223.75"/><text fill="#000000" font-family="sans-serif" font-size="13.75" lengthAdjust="spacing" textLength="68.75" x="314.375" y="243.0237">designation</text><line style="stroke:#A80036;stroke-width:1.875;" x1="308.125" x2="411.875" y1="251.0449" y2="251.0449"/><!--MD5=[012ee2a8bf3ae2b319009b06f951c2e5]
class ClinicalChemistryTechnologist--><rect codeLine="9" fill="#FEFECE" filter="url(#f1fxfb53ydar0r)" height="60" id="ClinicalChemistryTechnologist" style="stroke:#A80036;stroke-width:1.875;" width="250" x="8.75" y="660"/><ellipse cx="27.5" cy="680" fill="#ADD1B2" rx="13.75" ry="13.75" style="stroke:#A80036;stroke-width:1.25;"/><path d="M30,675.625 Q30.2539,675 30.5469,674.6875 Q30.8398,674.375 31.1719,674.375 Q31.7578,674.375 32.1289,674.7266 Q32.5,675.0781 32.5,675.8984 L32.5,677.8516 Q32.5,678.6719 32.1484,679.0234 Q31.7969,679.375 31.25,679.375 Q30.7617,679.375 30.4492,679.1602 Q30.1367,678.9453 30,678.3789 Q29.9414,677.9883 29.7266,677.7734 Q29.3359,677.3633 28.6328,677.1289 Q27.9297,676.875 27.2266,676.875 Q26.3477,676.875 25.6055,677.2266 Q24.8828,677.5781 24.3164,678.3594 Q23.75,679.1406 23.75,680.2148 L23.75,681.3672 Q23.75,682.6563 24.8047,683.5156 Q25.8594,684.375 27.7344,684.375 Q28.8477,684.375 29.6289,684.1211 Q30.0781,683.9844 30.5859,683.5352 Q30.918,683.2813 31.0938,683.2031 Q31.2695,683.125 31.4844,683.125 Q31.8945,683.125 32.1875,683.457 Q32.5,683.7695 32.5,684.2188 Q32.5,684.6484 32.0703,685.1563 Q31.4453,685.8984 30.4492,686.3086 Q29.1406,686.875 27.5391,686.875 Q25.6641,686.875 24.1602,686.1328 Q22.9492,685.5469 22.0898,684.2773 Q21.25,683.0078 21.25,681.5039 L21.25,680.1367 Q21.25,678.5742 21.9922,677.207 Q22.7539,675.8398 24.0625,675.1172 Q25.3906,674.375 26.875,674.375 Q27.7734,674.375 28.5547,674.6875 Q29.3359,675 30,675.625 Z " fill="#000000"/><text fill="#000000" font-family="sans-serif" font-size="15" lengthAdjust="spacing" textLength="210" x="45" y="686.1377">ClinicalChemistryTechnologist</text><line style="stroke:#A80036;stroke-width:1.875;" x1="10" x2="257.5" y1="700" y2="700"/><line style="stroke:#A80036;stroke-width:1.875;" x1="10" x2="257.5" y1="710" y2="710"/><!--MD5=[7421f545a0d8420c5bec41e74b387d9c]
class Employee--><rect codeLine="11" fill="#FEFECE" filter="url(#f1fxfb53ydar0r)" height="198.3594" id="Employee" style="stroke:#A80036;stroke-width:1.875;" width="115" x="512.5" y="376.25"/><ellipse cx="534.0625" cy="396.25" fill="#ADD1B2" rx="13.75" ry="13.75" style="stroke:#A80036;stroke-width:1.25;"/><path d="M536.5625,391.875 Q536.8164,391.25 537.1094,390.9375 Q537.4023,390.625 537.7344,390.625 Q538.3203,390.625 538.6914,390.9766 Q539.0625,391.3281 539.0625,392.1484 L539.0625,394.1016 Q539.0625,394.9219 538.7109,395.2734 Q538.3594,395.625 537.8125,395.625 Q537.3242,395.625 537.0117,395.4102 Q536.6992,395.1953 536.5625,394.6289 Q536.5039,394.2383 536.2891,394.0234 Q535.8984,393.6133 535.1953,393.3789 Q534.4922,393.125 533.7891,393.125 Q532.9102,393.125 532.168,393.4766 Q531.4453,393.8281 530.8789,394.6094 Q530.3125,395.3906 530.3125,396.4648 L530.3125,397.6172 Q530.3125,398.9063 531.3672,399.7656 Q532.4219,400.625 534.2969,400.625 Q535.4102,400.625 536.1914,400.3711 Q536.6406,400.2344 537.1484,399.7852 Q537.4805,399.5313 537.6563,399.4531 Q537.832,399.375 538.0469,399.375 Q538.457,399.375 538.75,399.707 Q539.0625,400.0195 539.0625,400.4688 Q539.0625,400.8984 538.6328,401.4063 Q538.0078,402.1484 537.0117,402.5586 Q535.7031,403.125 534.1016,403.125 Q532.2266,403.125 530.7227,402.3828 Q529.5117,401.7969 528.6523,400.5273 Q527.8125,399.2578 527.8125,397.7539 L527.8125,396.3867 Q527.8125,394.8242 528.5547,393.457 Q529.3164,392.0898 530.625,391.3672 Q531.9531,390.625 533.4375,390.625 Q534.3359,390.625 535.1172,390.9375 Q535.8984,391.25 536.5625,391.875 Z " fill="#000000"/><text fill="#000000" font-family="sans-serif" font-size="15" lengthAdjust="spacing" textLength="68.75" x="552.1875" y="402.3877">Employee</text><line style="stroke:#A80036;stroke-width:1.875;" x1="513.75" x2="626.25" y1="416.25" y2="416.25"/><text fill="#000000" font-family="sans-serif" font-size="13.75" lengthAdjust="spacing" textLength="32.5" x="520" y="435.5237">name</text><text fill="#000000" font-family="sans-serif" font-size="13.75" lengthAdjust="spacing" textLength="83.75" x="520" y="452.8186">phoneNumber</text><text fill="#000000" font-family="sans-serif" font-size="13.75" lengthAdjust="spacing" textLength="30" x="520" y="470.1135">email</text><text fill="#000000" font-family="sans-serif" font-size="13.75" lengthAdjust="spacing" textLength="62.5" x="520" y="487.4084">password</text><text fill="#000000" font-family="sans-serif" font-size="13.75" lengthAdjust="spacing" textLength="68.75" x="520" y="504.7034">employeeID</text><text fill="#000000" font-family="sans-serif" font-size="13.75" lengthAdjust="spacing" textLength="53.75" x="520" y="521.9983">socCode</text><text fill="#000000" font-family="sans-serif" font-size="13.75" lengthAdjust="spacing" textLength="100" x="520" y="539.2932">organizationRole</text><text fill="#000000" font-family="sans-serif" font-size="13.75" lengthAdjust="spacing" textLength="50" x="520" y="556.5881">address</text><line style="stroke:#A80036;stroke-width:1.875;" x1="513.75" x2="626.25" y1="564.6094" y2="564.6094"/><!--MD5=[03960189e81aa2c066c762ffabbee709]
class Receptionist--><rect codeLine="22" fill="#FEFECE" filter="url(#f1fxfb53ydar0r)" height="60" id="Receptionist" style="stroke:#A80036;stroke-width:1.875;" width="126.25" x="303.125" y="660"/><ellipse cx="321.875" cy="680" fill="#ADD1B2" rx="13.75" ry="13.75" style="stroke:#A80036;stroke-width:1.25;"/><path d="M324.375,675.625 Q324.6289,675 324.9219,674.6875 Q325.2148,674.375 325.5469,674.375 Q326.1328,674.375 326.5039,674.7266 Q326.875,675.0781 326.875,675.8984 L326.875,677.8516 Q326.875,678.6719 326.5234,679.0234 Q326.1719,679.375 325.625,679.375 Q325.1367,679.375 324.8242,679.1602 Q324.5117,678.9453 324.375,678.3789 Q324.3164,677.9883 324.1016,677.7734 Q323.7109,677.3633 323.0078,677.1289 Q322.3047,676.875 321.6016,676.875 Q320.7227,676.875 319.9805,677.2266 Q319.2578,677.5781 318.6914,678.3594 Q318.125,679.1406 318.125,680.2148 L318.125,681.3672 Q318.125,682.6563 319.1797,683.5156 Q320.2344,684.375 322.1094,684.375 Q323.2227,684.375 324.0039,684.1211 Q324.4531,683.9844 324.9609,683.5352 Q325.293,683.2813 325.4688,683.2031 Q325.6445,683.125 325.8594,683.125 Q326.2695,683.125 326.5625,683.457 Q326.875,683.7695 326.875,684.2188 Q326.875,684.6484 326.4453,685.1563 Q325.8203,685.8984 324.8242,686.3086 Q323.5156,686.875 321.9141,686.875 Q320.0391,686.875 318.5352,686.1328 Q317.3242,685.5469 316.4648,684.2773 Q315.625,683.0078 315.625,681.5039 L315.625,680.1367 Q315.625,678.5742 316.3672,677.207 Q317.1289,675.8398 318.4375,675.1172 Q319.7656,674.375 321.25,674.375 Q322.1484,674.375 322.9297,674.6875 Q323.7109,675 324.375,675.625 Z " fill="#000000"/><text fill="#000000" font-family="sans-serif" font-size="15" lengthAdjust="spacing" textLength="86.25" x="339.375" y="686.1377">Receptionist</text><line style="stroke:#A80036;stroke-width:1.875;" x1="304.375" x2="428.125" y1="700" y2="700"/><line style="stroke:#A80036;stroke-width:1.875;" x1="304.375" x2="428.125" y1="710" y2="710"/><!--MD5=[01931d41e78f8996acd44f6f0fd8de28]
class MedicalLabTechnician--><rect codeLine="23" fill="#FEFECE" filter="url(#f1fxfb53ydar0r)" height="60" id="MedicalLabTechnician" style="stroke:#A80036;stroke-width:1.875;" width="193.75" x="473.125" y="660"/><ellipse cx="491.875" cy="680" fill="#ADD1B2" rx="13.75" ry="13.75" style="stroke:#A80036;stroke-width:1.25;"/><path d="M494.375,675.625 Q494.6289,675 494.9219,674.6875 Q495.2148,674.375 495.5469,674.375 Q496.1328,674.375 496.5039,674.7266 Q496.875,675.0781 496.875,675.8984 L496.875,677.8516 Q496.875,678.6719 496.5234,679.0234 Q496.1719,679.375 495.625,679.375 Q495.1367,679.375 494.8242,679.1602 Q494.5117,678.9453 494.375,678.3789 Q494.3164,677.9883 494.1016,677.7734 Q493.7109,677.3633 493.0078,677.1289 Q492.3047,676.875 491.6016,676.875 Q490.7227,676.875 489.9805,677.2266 Q489.2578,677.5781 488.6914,678.3594 Q488.125,679.1406 488.125,680.2148 L488.125,681.3672 Q488.125,682.6563 489.1797,683.5156 Q490.2344,684.375 492.1094,684.375 Q493.2227,684.375 494.0039,684.1211 Q494.4531,683.9844 494.9609,683.5352 Q495.293,683.2813 495.4688,683.2031 Q495.6445,683.125 495.8594,683.125 Q496.2695,683.125 496.5625,683.457 Q496.875,683.7695 496.875,684.2188 Q496.875,684.6484 496.4453,685.1563 Q495.8203,685.8984 494.8242,686.3086 Q493.5156,686.875 491.9141,686.875 Q490.0391,686.875 488.5352,686.1328 Q487.3242,685.5469 486.4648,684.2773 Q485.625,683.0078 485.625,681.5039 L485.625,680.1367 Q485.625,678.5742 486.3672,677.207 Q487.1289,675.8398 488.4375,675.1172 Q489.7656,674.375 491.25,674.375 Q492.1484,674.375 492.9297,674.6875 Q493.7109,675 494.375,675.625 Z " fill="#000000"/><text fill="#000000" font-family="sans-serif" font-size="15" lengthAdjust="spacing" textLength="153.75" x="509.375" y="686.1377">MedicalLabTechnician</text><line style="stroke:#A80036;stroke-width:1.875;" x1="474.375" x2="665.625" y1="700" y2="700"/><line style="stroke:#A80036;stroke-width:1.875;" x1="474.375" x2="665.625" y1="710" y2="710"/><!--MD5=[052425de1c0eb6cc1c1b48342b0bb88f]
class LaboratoryCoordinator--><rect codeLine="24" fill="#FEFECE" filter="url(#f1fxfb53ydar0r)" height="60" id="LaboratoryCoordinator" style="stroke:#A80036;stroke-width:1.875;" width="193.75" x="710.625" y="660"/><ellipse cx="729.375" cy="680" fill="#ADD1B2" rx="13.75" ry="13.75" style="stroke:#A80036;stroke-width:1.25;"/><path d="M731.875,675.625 Q732.1289,675 732.4219,674.6875 Q732.7148,674.375 733.0469,674.375 Q733.6328,674.375 734.0039,674.7266 Q734.375,675.0781 734.375,675.8984 L734.375,677.8516 Q734.375,678.6719 734.0234,679.0234 Q733.6719,679.375 733.125,679.375 Q732.6367,679.375 732.3242,679.1602 Q732.0117,678.9453 731.875,678.3789 Q731.8164,677.9883 731.6016,677.7734 Q731.2109,677.3633 730.5078,677.1289 Q729.8047,676.875 729.1016,676.875 Q728.2227,676.875 727.4805,677.2266 Q726.7578,677.5781 726.1914,678.3594 Q725.625,679.1406 725.625,680.2148 L725.625,681.3672 Q725.625,682.6563 726.6797,683.5156 Q727.7344,684.375 729.6094,684.375 Q730.7227,684.375 731.5039,684.1211 Q731.9531,683.9844 732.4609,683.5352 Q732.793,683.2813 732.9688,683.2031 Q733.1445,683.125 733.3594,683.125 Q733.7695,683.125 734.0625,683.457 Q734.375,683.7695 734.375,684.2188 Q734.375,684.6484 733.9453,685.1563 Q733.3203,685.8984 732.3242,686.3086 Q731.0156,686.875 729.4141,686.875 Q727.5391,686.875 726.0352,686.1328 Q724.8242,685.5469 723.9648,684.2773 Q723.125,683.0078 723.125,681.5039 L723.125,680.1367 Q723.125,678.5742 723.8672,677.207 Q724.6289,675.8398 725.9375,675.1172 Q727.2656,674.375 728.75,674.375 Q729.6484,674.375 730.4297,674.6875 Q731.2109,675 731.875,675.625 Z " fill="#000000"/><text fill="#000000" font-family="sans-serif" font-size="15" lengthAdjust="spacing" textLength="153.75" x="746.875" y="686.1377">LaboratoryCoordinator</text><line style="stroke:#A80036;stroke-width:1.875;" x1="711.875" x2="903.125" y1="700" y2="700"/><line style="stroke:#A80036;stroke-width:1.875;" x1="711.875" x2="903.125" y1="710" y2="710"/><!--MD5=[7d96fd15f3014691d2fcaf89c5791e2a]
class SpecialistDoctor--><rect codeLine="26" fill="#FEFECE" filter="url(#f1fxfb53ydar0r)" height="77.2949" id="SpecialistDoctor" style="stroke:#A80036;stroke-width:1.875;" width="152.5" x="948.75" y="651.25"/><ellipse cx="967.5" cy="671.25" fill="#ADD1B2" rx="13.75" ry="13.75" style="stroke:#A80036;stroke-width:1.25;"/><path d="M970,666.875 Q970.2539,666.25 970.5469,665.9375 Q970.8398,665.625 971.1719,665.625 Q971.7578,665.625 972.1289,665.9766 Q972.5,666.3281 972.5,667.1484 L972.5,669.1016 Q972.5,669.9219 972.1484,670.2734 Q971.7969,670.625 971.25,670.625 Q970.7617,670.625 970.4492,670.4102 Q970.1367,670.1953 970,669.6289 Q969.9414,669.2383 969.7266,669.0234 Q969.3359,668.6133 968.6328,668.3789 Q967.9297,668.125 967.2266,668.125 Q966.3477,668.125 965.6055,668.4766 Q964.8828,668.8281 964.3164,669.6094 Q963.75,670.3906 963.75,671.4648 L963.75,672.6172 Q963.75,673.9063 964.8047,674.7656 Q965.8594,675.625 967.7344,675.625 Q968.8477,675.625 969.6289,675.3711 Q970.0781,675.2344 970.5859,674.7852 Q970.918,674.5313 971.0938,674.4531 Q971.2695,674.375 971.4844,674.375 Q971.8945,674.375 972.1875,674.707 Q972.5,675.0195 972.5,675.4688 Q972.5,675.8984 972.0703,676.4063 Q971.4453,677.1484 970.4492,677.5586 Q969.1406,678.125 967.5391,678.125 Q965.6641,678.125 964.1602,677.3828 Q962.9492,676.7969 962.0898,675.5273 Q961.25,674.2578 961.25,672.7539 L961.25,671.3867 Q961.25,669.8242 961.9922,668.457 Q962.7539,667.0898 964.0625,666.3672 Q965.3906,665.625 966.875,665.625 Q967.7734,665.625 968.5547,665.9375 Q969.3359,666.25 970,666.875 Z " fill="#000000"/><text fill="#000000" font-family="sans-serif" font-size="15" lengthAdjust="spacing" textLength="112.5" x="985" y="677.3877">SpecialistDoctor</text><line style="stroke:#A80036;stroke-width:1.875;" x1="950" x2="1100" y1="691.25" y2="691.25"/><text fill="#000000" font-family="sans-serif" font-size="13.75" lengthAdjust="spacing" textLength="117.5" x="956.25" y="710.5237">doctorIndexNumber</text><line style="stroke:#A80036;stroke-width:1.875;" x1="950" x2="1100" y1="718.5449" y2="718.5449"/><!--MD5=[3fd616f346a44cd59a91eb10b19e157c]
class User--><rect codeLine="30" fill="#FEFECE" filter="url(#f1fxfb53ydar0r)" height="111.8848" id="User" style="stroke:#A80036;stroke-width:1.875;" width="77.5" x="706.25" y="166.25"/><ellipse cx="726.6875" cy="186.25" fill="#ADD1B2" rx="13.75" ry="13.75" style="stroke:#A80036;stroke-width:1.25;"/><path d="M729.1875,181.875 Q729.4414,181.25 729.7344,180.9375 Q730.0273,180.625 730.3594,180.625 Q730.9453,180.625 731.3164,180.9766 Q731.6875,181.3281 731.6875,182.1484 L731.6875,184.1016 Q731.6875,184.9219 731.3359,185.2734 Q730.9844,185.625 730.4375,185.625 Q729.9492,185.625 729.6367,185.4102 Q729.3242,185.1953 729.1875,184.6289 Q729.1289,184.2383 728.9141,184.0234 Q728.5234,183.6133 727.8203,183.3789 Q727.1172,183.125 726.4141,183.125 Q725.5352,183.125 724.793,183.4766 Q724.0703,183.8281 723.5039,184.6094 Q722.9375,185.3906 722.9375,186.4648 L722.9375,187.6172 Q722.9375,188.9063 723.9922,189.7656 Q725.0469,190.625 726.9219,190.625 Q728.0352,190.625 728.8164,190.3711 Q729.2656,190.2344 729.7734,189.7852 Q730.1055,189.5313 730.2813,189.4531 Q730.457,189.375 730.6719,189.375 Q731.082,189.375 731.375,189.707 Q731.6875,190.0195 731.6875,190.4688 Q731.6875,190.8984 731.2578,191.4063 Q730.6328,192.1484 729.6367,192.5586 Q728.3281,193.125 726.7266,193.125 Q724.8516,193.125 723.3477,192.3828 Q722.1367,191.7969 721.2773,190.5273 Q720.4375,189.2578 720.4375,187.7539 L720.4375,186.3867 Q720.4375,184.8242 721.1797,183.457 Q721.9414,182.0898 723.25,181.3672 Q724.5781,180.625 726.0625,180.625 Q726.9609,180.625 727.7422,180.9375 Q728.5234,181.25 729.1875,181.875 Z " fill="#000000"/><text fill="#000000" font-family="sans-serif" font-size="15" lengthAdjust="spacing" textLength="33.75" x="744.5625" y="192.3877">User</text><line style="stroke:#A80036;stroke-width:1.875;" x1="707.5" x2="782.5" y1="206.25" y2="206.25"/><text fill="#000000" font-family="sans-serif" font-size="13.75" lengthAdjust="spacing" textLength="32.5" x="713.75" y="225.5237">name</text><text fill="#000000" font-family="sans-serif" font-size="13.75" lengthAdjust="spacing" textLength="30" x="713.75" y="242.8186">email</text><text fill="#000000" font-family="sans-serif" font-size="13.75" lengthAdjust="spacing" textLength="62.5" x="713.75" y="260.1135">password</text><line style="stroke:#A80036;stroke-width:1.875;" x1="707.5" x2="782.5" y1="268.1348" y2="268.1348"/><!--MD5=[8f7dd94d56b58fc07b233ccd3dd98f8c]
link Administrator to Employee--><path codeLine="36" d="M505.0125,69.0875 C510.9125,114.1 522.925,203.3125 535,278.75 C540.075,310.4375 546.075,344.9125 551.675,375.975 " fill="none" id="Administrator-Employee" style="stroke:#A80036;stroke-width:1.25;"/><polygon fill="#000000" points="542.1895,228.8987,544.1218,217.1686,536.858,218.2731,542.1895,228.8987" style="stroke:#000000;stroke-width:1.25;"/><text fill="#000000" font-family="sans-serif" font-size="16.25" lengthAdjust="spacing" textLength="53.75" x="552.5" y="229.3689">creates</text><text fill="#000000" font-family="sans-serif" font-size="16.25" lengthAdjust="spacing" textLength="8.75" x="496.1132" y="95.8422">1</text><text fill="#000000" font-family="sans-serif" font-size="16.25" lengthAdjust="spacing" textLength="8.75" x="540.8323" y="362.7738">1</text><!--MD5=[f7fb1bbd8b4f4021e9754ae6fe2871a0]
reverse link Employee to Administrator--><path codeLine="48" d="M613.975,351.7875 C627.95,294 634.7,225.0125 612.5,166.25 C597.6375,126.9 564.2875,91.875 537.9625,68.75 " fill="none" id="Employee-backto-Administrator" style="stroke:#A80036;stroke-width:1.25;"/><polygon fill="none" points="622.35,354.3,607.475,376.2125,605.4375,349.8,622.35,354.3" style="stroke:#A80036;stroke-width:1.25;"/><!--MD5=[304db59a05c0da2cdffc3c882f2d9e9b]
link Administrator to Company--><path codeLine="37" d="M435.5,67.1625 C418.1,77.1625 400.825,90.0875 388.75,106.25 C372.1125,128.5 365.0375,159.2625 362.05,183.375 " fill="none" id="Administrator-Company" style="stroke:#A80036;stroke-width:1.25;"/><polygon fill="#000000" points="391.6608,123.003,400.8068,115.4082,394.596,111.4828,391.6608,123.003" style="stroke:#000000;stroke-width:1.25;"/><text fill="#000000" font-family="sans-serif" font-size="16.25" lengthAdjust="spacing" textLength="61.25" x="406.25" y="124.3689">works at</text><text fill="#000000" font-family="sans-serif" font-size="16.25" lengthAdjust="spacing" textLength="8.75" x="416.8887" y="66.6516">1</text><text fill="#000000" font-family="sans-serif" font-size="16.25" lengthAdjust="spacing" textLength="8.75" x="352.8205" y="170.1783">1</text><!--MD5=[09366576ee87d48d594df10cacc83f45]
link Company to Employee--><path codeLine="39" d="M377.0375,261.3375 C388.55,284.75 405.025,314.85 423.75,338.75 C449.5875,371.7375 483.675,403.8375 512.4375,428.525 " fill="none" id="Company-Employee" style="stroke:#A80036;stroke-width:1.25;"/><polygon fill="#000000" points="433.9335,332.5767,429.6726,321.4783,423.9629,326.1024,433.9335,332.5767" style="stroke:#000000;stroke-width:1.25;"/><text fill="#000000" font-family="sans-serif" font-size="16.25" lengthAdjust="spacing" textLength="26.25" x="441.25" y="334.3689">has</text><text fill="#000000" font-family="sans-serif" font-size="16.25" lengthAdjust="spacing" textLength="8.75" x="370.7804" y="287.8847">1</text><text fill="#000000" font-family="sans-serif" font-size="16.25" lengthAdjust="spacing" textLength="25" x="477.585" y="417.4226">1..*</text><!--MD5=[48afc90033d240f0c7566c2ff402e39b]
link User to Employee--><path codeLine="41" d="M711.6375,278.775 C699.6375,297.975 685.7875,319.525 672.5,338.75 C658.4,359.1375 642.525,380.75 627.5375,400.5875 " fill="none" id="User-Employee" style="stroke:#A80036;stroke-width:1.25;"/><polygon fill="#000000" points="696.0509,322.5765,686.6041,329.7935,692.6504,333.9679,696.0509,322.5765" style="stroke:#000000;stroke-width:1.25;"/><text fill="#000000" font-family="sans-serif" font-size="16.25" lengthAdjust="spacing" textLength="67.5" x="703.75" y="334.3689">relates to</text><text fill="#000000" font-family="sans-serif" font-size="16.25" lengthAdjust="spacing" textLength="8.75" x="697.5807" y="305.038">1</text><text fill="#000000" font-family="sans-serif" font-size="16.25" lengthAdjust="spacing" textLength="27.5" x="637.5623" y="385.5564">0..1</text><!--MD5=[372bd27a178b4208a6d241b4516ac7e6]
reverse link Employee to SpecialistDoctor--><path codeLine="43" d="M650.575,514.4 C734.7625,553.6 865.8875,614.6625 948.525,653.1375 " fill="none" id="Employee-backto-SpecialistDoctor" style="stroke:#A80036;stroke-width:1.25;"/><polygon fill="none" points="646.6,522.2,627.625,503.7125,653.9875,506.325,646.6,522.2" style="stroke:#A80036;stroke-width:1.25;"/><!--MD5=[bfff716514ca687b645fe473c6e098a4]
reverse link Employee to Receptionist--><path codeLine="44" d="M494.375,555.5125 C459.425,591.8625 420.05,632.8 394.2875,659.6 " fill="none" id="Employee-backto-Receptionist" style="stroke:#A80036;stroke-width:1.25;"/><polygon fill="none" points="488.525,548.975,512.1625,537.025,501.1375,561.1125,488.525,548.975" style="stroke:#A80036;stroke-width:1.25;"/><!--MD5=[8c76900db13228c02bafda6909b4bb57]
reverse link Employee to MedicalLabTechnician--><path codeLine="45" d="M570,600.525 C570,622.5875 570,643.6 570,659.5875 " fill="none" id="Employee-backto-MedicalLabTechnician" style="stroke:#A80036;stroke-width:1.25;"/><polygon fill="none" points="561.25,600.375,570,575.375,578.75,600.375,561.25,600.375" style="stroke:#A80036;stroke-width:1.25;"/><!--MD5=[7dae17bb55c59b06af656d7c83a51371]
reverse link Employee to LaboratoryCoordinator--><path codeLine="46" d="M647.325,545.8625 C690.6875,584.5375 742.4625,630.7375 775.175,659.9125 " fill="none" id="Employee-backto-LaboratoryCoordinator" style="stroke:#A80036;stroke-width:1.25;"/><polygon fill="none" points="640.925,551.875,628.1,528.7,652.575,538.8125,640.925,551.875" style="stroke:#A80036;stroke-width:1.25;"/><!--MD5=[4c7c52c4bf7e982cdae6fb6daeda4b43]
reverse link Employee to ClinicalChemistryTechnologist--><path codeLine="47" d="M489.2,516.1125 C403.325,557.825 269.5625,622.7875 192.9625,659.9875 " fill="none" id="Employee-backto-ClinicalChemistryTechnologist" style="stroke:#A80036;stroke-width:1.25;"/><polygon fill="none" points="485.7625,508.0625,512.075,505.0125,493.4,523.8,485.7625,508.0625" style="stroke:#A80036;stroke-width:1.25;"/><!--MD5=[934e19927d8263cf8c5b541015871b40]
@startuml

class Administrator{
}

class Company{
    designation
}

class ClinicalChemistryTechnologist

class Employee{
    name
    phoneNumber
    email
    password
    employeeID
    socCode
    organizationRole
    address
}

class Receptionist
class MedicalLabTechnician
class LaboratoryCoordinator

class SpecialistDoctor{
    doctorIndexNumber
}

class User{
    name
    email
    password
}

Administrator "1" - - "1" Employee: creates >
Administrator "1" - - "1" Company: works at >

Company "1" - - "1..*" Employee: has >

User "1" - - "0..1" Employee: relates to <

Employee <|- - SpecialistDoctor
Employee <|- - Receptionist
Employee <|- - MedicalLabTechnician
Employee <|- - LaboratoryCoordinator
Employee <|- - ClinicalChemistryTechnologist
Employee <|- - Administrator

@enduml

PlantUML version 1.2021.5(Sun Apr 25 12:20:28 BST 2021)
(GPL source distribution)
Java Runtime: OpenJDK Runtime Environment
JVM: Dynamic Code Evolution 64-Bit Server VM
Default Encoding: Cp1252
Language: pt
Country: PT
--></g></svg>