<?xml version="1.0" encoding="UTF-8" standalone="no"?><svg xmlns="http://www.w3.org/2000/svg" xmlns:xlink="http://www.w3.org/1999/xlink" contentScriptType="application/ecmascript" contentStyleType="text/css" height="941.25px" preserveAspectRatio="none" style="width:586px;height:941px;" version="1.1" viewBox="0 0 586 941" width="586.25px" zoomAndPan="magnify"><defs><filter height="300%" id="fuzzj7wkkx60" width="300%" x="-1" y="-1"><feGaussianBlur result="blurOut" stdDeviation="2.5"/><feColorMatrix in="blurOut" result="blurOut2" type="matrix" values="0 0 0 0 0 0 0 0 0 0 0 0 0 0 0 0 0 0 .4 0"/><feOffset dx="5.0" dy="5.0" in="blurOut2" result="blurOut3"/><feBlend in="SourceGraphic" in2="blurOut3" mode="normal"/></filter></defs><g><!--MD5=[7421f545a0d8420c5bec41e74b387d9c]
class Employee--><rect codeLine="3" fill="#FEFECE" filter="url(#fuzzj7wkkx60)" height="198.3594" id="Employee" style="stroke:#A80036;stroke-width:1.875;" width="115" x="216.25" y="166.25"/><ellipse cx="237.8125" cy="186.25" fill="#ADD1B2" rx="13.75" ry="13.75" style="stroke:#A80036;stroke-width:1.25;"/><path d="M240.3125,181.875 Q240.5664,181.25 240.8594,180.9375 Q241.1523,180.625 241.4844,180.625 Q242.0703,180.625 242.4414,180.9766 Q242.8125,181.3281 242.8125,182.1484 L242.8125,184.1016 Q242.8125,184.9219 242.4609,185.2734 Q242.1094,185.625 241.5625,185.625 Q241.0742,185.625 240.7617,185.4102 Q240.4492,185.1953 240.3125,184.6289 Q240.2539,184.2383 240.0391,184.0234 Q239.6484,183.6133 238.9453,183.3789 Q238.2422,183.125 237.5391,183.125 Q236.6602,183.125 235.918,183.4766 Q235.1953,183.8281 234.6289,184.6094 Q234.0625,185.3906 234.0625,186.4648 L234.0625,187.6172 Q234.0625,188.9063 235.1172,189.7656 Q236.1719,190.625 238.0469,190.625 Q239.1602,190.625 239.9414,190.3711 Q240.3906,190.2344 240.8984,189.7852 Q241.2305,189.5313 241.4063,189.4531 Q241.582,189.375 241.7969,189.375 Q242.207,189.375 242.5,189.707 Q242.8125,190.0195 242.8125,190.4688 Q242.8125,190.8984 242.3828,191.4063 Q241.7578,192.1484 240.7617,192.5586 Q239.4531,193.125 237.8516,193.125 Q235.9766,193.125 234.4727,192.3828 Q233.2617,191.7969 232.4023,190.5273 Q231.5625,189.2578 231.5625,187.7539 L231.5625,186.3867 Q231.5625,184.8242 232.3047,183.457 Q233.0664,182.0898 234.375,181.3672 Q235.7031,180.625 237.1875,180.625 Q238.0859,180.625 238.8672,180.9375 Q239.6484,181.25 240.3125,181.875 Z " fill="#000000"/><text fill="#000000" font-family="sans-serif" font-size="15" lengthAdjust="spacing" textLength="68.75" x="255.9375" y="192.3877">Employee</text><line style="stroke:#A80036;stroke-width:1.875;" x1="217.5" x2="330" y1="206.25" y2="206.25"/><text fill="#000000" font-family="sans-serif" font-size="13.75" lengthAdjust="spacing" textLength="32.5" x="223.75" y="225.5237">name</text><text fill="#000000" font-family="sans-serif" font-size="13.75" lengthAdjust="spacing" textLength="83.75" x="223.75" y="242.8186">phoneNumber</text><text fill="#000000" font-family="sans-serif" font-size="13.75" lengthAdjust="spacing" textLength="30" x="223.75" y="260.1135">email</text><text fill="#000000" font-family="sans-serif" font-size="13.75" lengthAdjust="spacing" textLength="62.5" x="223.75" y="277.4084">password</text><text fill="#000000" font-family="sans-serif" font-size="13.75" lengthAdjust="spacing" textLength="68.75" x="223.75" y="294.7034">employeeID</text><text fill="#000000" font-family="sans-serif" font-size="13.75" lengthAdjust="spacing" textLength="53.75" x="223.75" y="311.9983">socCode</text><text fill="#000000" font-family="sans-serif" font-size="13.75" lengthAdjust="spacing" textLength="100" x="223.75" y="329.2932">organizationRole</text><text fill="#000000" font-family="sans-serif" font-size="13.75" lengthAdjust="spacing" textLength="50" x="223.75" y="346.5881">address</text><line style="stroke:#A80036;stroke-width:1.875;" x1="217.5" x2="330" y1="354.6094" y2="354.6094"/><!--MD5=[da547346deef918ea16944ba046651ef]
class Administrator--><rect codeLine="13" fill="#FEFECE" filter="url(#fuzzj7wkkx60)" height="60" id="Administrator" style="stroke:#A80036;stroke-width:1.875;" width="131.25" x="173.125" y="462.5"/><ellipse cx="191.875" cy="482.5" fill="#ADD1B2" rx="13.75" ry="13.75" style="stroke:#A80036;stroke-width:1.25;"/><path d="M194.375,478.125 Q194.6289,477.5 194.9219,477.1875 Q195.2148,476.875 195.5469,476.875 Q196.1328,476.875 196.5039,477.2266 Q196.875,477.5781 196.875,478.3984 L196.875,480.3516 Q196.875,481.1719 196.5234,481.5234 Q196.1719,481.875 195.625,481.875 Q195.1367,481.875 194.8242,481.6602 Q194.5117,481.4453 194.375,480.8789 Q194.3164,480.4883 194.1016,480.2734 Q193.7109,479.8633 193.0078,479.6289 Q192.3047,479.375 191.6016,479.375 Q190.7227,479.375 189.9805,479.7266 Q189.2578,480.0781 188.6914,480.8594 Q188.125,481.6406 188.125,482.7148 L188.125,483.8672 Q188.125,485.1563 189.1797,486.0156 Q190.2344,486.875 192.1094,486.875 Q193.2227,486.875 194.0039,486.6211 Q194.4531,486.4844 194.9609,486.0352 Q195.293,485.7813 195.4688,485.7031 Q195.6445,485.625 195.8594,485.625 Q196.2695,485.625 196.5625,485.957 Q196.875,486.2695 196.875,486.7188 Q196.875,487.1484 196.4453,487.6563 Q195.8203,488.3984 194.8242,488.8086 Q193.5156,489.375 191.9141,489.375 Q190.0391,489.375 188.5352,488.6328 Q187.3242,488.0469 186.4648,486.7773 Q185.625,485.5078 185.625,484.0039 L185.625,482.6367 Q185.625,481.0742 186.3672,479.707 Q187.1289,478.3398 188.4375,477.6172 Q189.7656,476.875 191.25,476.875 Q192.1484,476.875 192.9297,477.1875 Q193.7109,477.5 194.375,478.125 Z " fill="#000000"/><text fill="#000000" font-family="sans-serif" font-size="15" lengthAdjust="spacing" textLength="91.25" x="209.375" y="488.6377">Administrator</text><line style="stroke:#A80036;stroke-width:1.875;" x1="174.375" x2="303.125" y1="502.5" y2="502.5"/><line style="stroke:#A80036;stroke-width:1.875;" x1="174.375" x2="303.125" y1="512.5" y2="512.5"/><!--MD5=[1f6362a5c8f21d8d6a0fce68f3a92a4e]
class Parameter--><rect codeLine="16" fill="#FEFECE" filter="url(#fuzzj7wkkx60)" height="111.8848" id="Parameter" style="stroke:#A80036;stroke-width:1.875;" width="112.5" x="331.25" y="620"/><ellipse cx="350" cy="640" fill="#ADD1B2" rx="13.75" ry="13.75" style="stroke:#A80036;stroke-width:1.25;"/><path d="M352.5,635.625 Q352.7539,635 353.0469,634.6875 Q353.3398,634.375 353.6719,634.375 Q354.2578,634.375 354.6289,634.7266 Q355,635.0781 355,635.8984 L355,637.8516 Q355,638.6719 354.6484,639.0234 Q354.2969,639.375 353.75,639.375 Q353.2617,639.375 352.9492,639.1602 Q352.6367,638.9453 352.5,638.3789 Q352.4414,637.9883 352.2266,637.7734 Q351.8359,637.3633 351.1328,637.1289 Q350.4297,636.875 349.7266,636.875 Q348.8477,636.875 348.1055,637.2266 Q347.3828,637.5781 346.8164,638.3594 Q346.25,639.1406 346.25,640.2148 L346.25,641.3672 Q346.25,642.6563 347.3047,643.5156 Q348.3594,644.375 350.2344,644.375 Q351.3477,644.375 352.1289,644.1211 Q352.5781,643.9844 353.0859,643.5352 Q353.418,643.2813 353.5938,643.2031 Q353.7695,643.125 353.9844,643.125 Q354.3945,643.125 354.6875,643.457 Q355,643.7695 355,644.2188 Q355,644.6484 354.5703,645.1563 Q353.9453,645.8984 352.9492,646.3086 Q351.6406,646.875 350.0391,646.875 Q348.1641,646.875 346.6602,646.1328 Q345.4492,645.5469 344.5898,644.2773 Q343.75,643.0078 343.75,641.5039 L343.75,640.1367 Q343.75,638.5742 344.4922,637.207 Q345.2539,635.8398 346.5625,635.1172 Q347.8906,634.375 349.375,634.375 Q350.2734,634.375 351.0547,634.6875 Q351.8359,635 352.5,635.625 Z " fill="#000000"/><text fill="#000000" font-family="sans-serif" font-size="15" lengthAdjust="spacing" textLength="72.5" x="367.5" y="646.1377">Parameter</text><line style="stroke:#A80036;stroke-width:1.875;" x1="332.5" x2="442.5" y1="660" y2="660"/><text fill="#000000" font-family="sans-serif" font-size="13.75" lengthAdjust="spacing" textLength="30" x="338.75" y="679.2737">code</text><text fill="#000000" font-family="sans-serif" font-size="13.75" lengthAdjust="spacing" textLength="65" x="338.75" y="696.5686">shortName</text><text fill="#000000" font-family="sans-serif" font-size="13.75" lengthAdjust="spacing" textLength="66.25" x="338.75" y="713.8635">description</text><line style="stroke:#A80036;stroke-width:1.875;" x1="332.5" x2="442.5" y1="721.8848" y2="721.8848"/><!--MD5=[36afb6bbd95a8ac778c4537c55a683d5]
class ParameterCategory--><rect codeLine="22" fill="#FEFECE" filter="url(#fuzzj7wkkx60)" height="94.5898" id="ParameterCategory" style="stroke:#A80036;stroke-width:1.875;" width="173.75" x="259.375" y="830"/><ellipse cx="278.125" cy="850" fill="#ADD1B2" rx="13.75" ry="13.75" style="stroke:#A80036;stroke-width:1.25;"/><path d="M280.625,845.625 Q280.8789,845 281.1719,844.6875 Q281.4648,844.375 281.7969,844.375 Q282.3828,844.375 282.7539,844.7266 Q283.125,845.0781 283.125,845.8984 L283.125,847.8516 Q283.125,848.6719 282.7734,849.0234 Q282.4219,849.375 281.875,849.375 Q281.3867,849.375 281.0742,849.1602 Q280.7617,848.9453 280.625,848.3789 Q280.5664,847.9883 280.3516,847.7734 Q279.9609,847.3633 279.2578,847.1289 Q278.5547,846.875 277.8516,846.875 Q276.9727,846.875 276.2305,847.2266 Q275.5078,847.5781 274.9414,848.3594 Q274.375,849.1406 274.375,850.2148 L274.375,851.3672 Q274.375,852.6563 275.4297,853.5156 Q276.4844,854.375 278.3594,854.375 Q279.4727,854.375 280.2539,854.1211 Q280.7031,853.9844 281.2109,853.5352 Q281.543,853.2813 281.7188,853.2031 Q281.8945,853.125 282.1094,853.125 Q282.5195,853.125 282.8125,853.457 Q283.125,853.7695 283.125,854.2188 Q283.125,854.6484 282.6953,855.1563 Q282.0703,855.8984 281.0742,856.3086 Q279.7656,856.875 278.1641,856.875 Q276.2891,856.875 274.7852,856.1328 Q273.5742,855.5469 272.7148,854.2773 Q271.875,853.0078 271.875,851.5039 L271.875,850.1367 Q271.875,848.5742 272.6172,847.207 Q273.3789,845.8398 274.6875,845.1172 Q276.0156,844.375 277.5,844.375 Q278.3984,844.375 279.1797,844.6875 Q279.9609,845 280.625,845.625 Z " fill="#000000"/><text fill="#000000" font-family="sans-serif" font-size="15" lengthAdjust="spacing" textLength="133.75" x="295.625" y="856.1377">ParameterCategory</text><line style="stroke:#A80036;stroke-width:1.875;" x1="260.625" x2="431.875" y1="870" y2="870"/><text fill="#000000" font-family="sans-serif" font-size="13.75" lengthAdjust="spacing" textLength="30" x="266.875" y="889.2737">code</text><text fill="#000000" font-family="sans-serif" font-size="13.75" lengthAdjust="spacing" textLength="32.5" x="266.875" y="906.5686">name</text><line style="stroke:#A80036;stroke-width:1.875;" x1="260.625" x2="431.875" y1="914.5898" y2="914.5898"/><!--MD5=[3fd616f346a44cd59a91eb10b19e157c]
class User--><rect codeLine="26" fill="#FEFECE" filter="url(#fuzzj7wkkx60)" height="111.8848" id="User" style="stroke:#A80036;stroke-width:1.875;" width="77.5" x="8.75" y="209.375"/><ellipse cx="29.1875" cy="229.375" fill="#ADD1B2" rx="13.75" ry="13.75" style="stroke:#A80036;stroke-width:1.25;"/><path d="M31.6875,225 Q31.9414,224.375 32.2344,224.0625 Q32.5273,223.75 32.8594,223.75 Q33.4453,223.75 33.8164,224.1016 Q34.1875,224.4531 34.1875,225.2734 L34.1875,227.2266 Q34.1875,228.0469 33.8359,228.3984 Q33.4844,228.75 32.9375,228.75 Q32.4492,228.75 32.1367,228.5352 Q31.8242,228.3203 31.6875,227.7539 Q31.6289,227.3633 31.4141,227.1484 Q31.0234,226.7383 30.3203,226.5039 Q29.6172,226.25 28.9141,226.25 Q28.0352,226.25 27.293,226.6016 Q26.5703,226.9531 26.0039,227.7344 Q25.4375,228.5156 25.4375,229.5898 L25.4375,230.7422 Q25.4375,232.0313 26.4922,232.8906 Q27.5469,233.75 29.4219,233.75 Q30.5352,233.75 31.3164,233.4961 Q31.7656,233.3594 32.2734,232.9102 Q32.6055,232.6563 32.7813,232.5781 Q32.957,232.5 33.1719,232.5 Q33.582,232.5 33.875,232.832 Q34.1875,233.1445 34.1875,233.5938 Q34.1875,234.0234 33.7578,234.5313 Q33.1328,235.2734 32.1367,235.6836 Q30.8281,236.25 29.2266,236.25 Q27.3516,236.25 25.8477,235.5078 Q24.6367,234.9219 23.7773,233.6523 Q22.9375,232.3828 22.9375,230.8789 L22.9375,229.5117 Q22.9375,227.9492 23.6797,226.582 Q24.4414,225.2148 25.75,224.4922 Q27.0781,223.75 28.5625,223.75 Q29.4609,223.75 30.2422,224.0625 Q31.0234,224.375 31.6875,225 Z " fill="#000000"/><text fill="#000000" font-family="sans-serif" font-size="15" lengthAdjust="spacing" textLength="33.75" x="47.0625" y="235.5127">User</text><line style="stroke:#A80036;stroke-width:1.875;" x1="10" x2="85" y1="249.375" y2="249.375"/><text fill="#000000" font-family="sans-serif" font-size="13.75" lengthAdjust="spacing" textLength="32.5" x="16.25" y="268.6487">name</text><text fill="#000000" font-family="sans-serif" font-size="13.75" lengthAdjust="spacing" textLength="30" x="16.25" y="285.9436">email</text><text fill="#000000" font-family="sans-serif" font-size="13.75" lengthAdjust="spacing" textLength="62.5" x="16.25" y="303.2385">password</text><line style="stroke:#A80036;stroke-width:1.875;" x1="10" x2="85" y1="311.2598" y2="311.2598"/><!--MD5=[02e4b9b7573f1156f41e60aa5b4e25a4]
class Company--><rect fill="#FEFECE" filter="url(#fuzzj7wkkx60)" height="60" id="Company" style="stroke:#A80036;stroke-width:1.875;" width="106.25" x="344.375" y="8.75"/><ellipse cx="363.125" cy="28.75" fill="#ADD1B2" rx="13.75" ry="13.75" style="stroke:#A80036;stroke-width:1.25;"/><path d="M365.625,24.375 Q365.8789,23.75 366.1719,23.4375 Q366.4648,23.125 366.7969,23.125 Q367.3828,23.125 367.7539,23.4766 Q368.125,23.8281 368.125,24.6484 L368.125,26.6016 Q368.125,27.4219 367.7734,27.7734 Q367.4219,28.125 366.875,28.125 Q366.3867,28.125 366.0742,27.9102 Q365.7617,27.6953 365.625,27.1289 Q365.5664,26.7383 365.3516,26.5234 Q364.9609,26.1133 364.2578,25.8789 Q363.5547,25.625 362.8516,25.625 Q361.9727,25.625 361.2305,25.9766 Q360.5078,26.3281 359.9414,27.1094 Q359.375,27.8906 359.375,28.9648 L359.375,30.1172 Q359.375,31.4063 360.4297,32.2656 Q361.4844,33.125 363.3594,33.125 Q364.4727,33.125 365.2539,32.8711 Q365.7031,32.7344 366.2109,32.2852 Q366.543,32.0313 366.7188,31.9531 Q366.8945,31.875 367.1094,31.875 Q367.5195,31.875 367.8125,32.207 Q368.125,32.5195 368.125,32.9688 Q368.125,33.3984 367.6953,33.9063 Q367.0703,34.6484 366.0742,35.0586 Q364.7656,35.625 363.1641,35.625 Q361.2891,35.625 359.7852,34.8828 Q358.5742,34.2969 357.7148,33.0273 Q356.875,31.7578 356.875,30.2539 L356.875,28.8867 Q356.875,27.3242 357.6172,25.957 Q358.3789,24.5898 359.6875,23.8672 Q361.0156,23.125 362.5,23.125 Q363.3984,23.125 364.1797,23.4375 Q364.9609,23.75 365.625,24.375 Z " fill="#000000"/><text fill="#000000" font-family="sans-serif" font-size="15" lengthAdjust="spacing" textLength="66.25" x="380.625" y="34.8877">Company</text><line style="stroke:#A80036;stroke-width:1.875;" x1="345.625" x2="449.375" y1="48.75" y2="48.75"/><line style="stroke:#A80036;stroke-width:1.875;" x1="345.625" x2="449.375" y1="58.75" y2="58.75"/><!--MD5=[48afc90033d240f0c7566c2ff402e39b]
link User to Employee--><path codeLine="31" d="M86.4,265.625 C122.025,265.625 175.2375,265.625 215.8625,265.625 " fill="none" id="User-Employee" style="stroke:#A80036;stroke-width:1.25;"/><polygon fill="#000000" points="108.125,250.8447,119.4314,254.5184,119.4314,247.1711,108.125,250.8447" style="stroke:#000000;stroke-width:1.25;"/><text fill="#000000" font-family="sans-serif" font-size="16.25" lengthAdjust="spacing" textLength="67.5" x="125.625" y="257.4939">relates to</text><text fill="#000000" font-family="sans-serif" font-size="16.25" lengthAdjust="spacing" textLength="8.75" x="96.4073" y="260.3033">1</text><text fill="#000000" font-family="sans-serif" font-size="16.25" lengthAdjust="spacing" textLength="27.5" x="178.7362" y="283.8934">0..1</text><!--MD5=[09366576ee87d48d594df10cacc83f45]
link Company to Employee--><path codeLine="32" d="M354.9375,68.9 C342.1625,79.3625 329.1375,92.125 320,106.25 C308.35,124.2625 299.5625,145.3 292.95,166.025 " fill="none" id="Company-Employee" style="stroke:#A80036;stroke-width:1.25;"/><polygon fill="#000000" points="322.8876,122.9882,332.067,115.4339,325.8736,111.4811,322.8876,122.9882" style="stroke:#000000;stroke-width:1.25;"/><text fill="#000000" font-family="sans-serif" font-size="16.25" lengthAdjust="spacing" textLength="26.25" x="337.5" y="124.3689">has</text><text fill="#000000" font-family="sans-serif" font-size="16.25" lengthAdjust="spacing" textLength="8.75" x="334.7465" y="95.609">1</text><text fill="#000000" font-family="sans-serif" font-size="16.25" lengthAdjust="spacing" textLength="25" x="268.5677" y="152.8284">1..*</text><!--MD5=[f7fb1bbd8b4f4021e9754ae6fe2871a0]
reverse link Employee to Administrator--><path codeLine="33" d="M229.925,389.9375 C228.4125,401.675 227.8875,413.4875 228.75,425 C229.675,437.3 231.55,450.7625 233.425,462.3375 " fill="none" id="Employee-backto-Administrator" style="stroke:#A80036;stroke-width:1.25;"/><polygon fill="none" points="221.325,388.3125,234.4375,365.2875,238.5375,391.4625,221.325,388.3125" style="stroke:#A80036;stroke-width:1.25;"/><!--MD5=[8f7dd94d56b58fc07b233ccd3dd98f8c]
link Administrator to Employee--><path codeLine="34" d="M243.3125,462.025 C247.1625,437.2875 252.925,400.375 258.4,365.2875 " fill="none" id="Administrator-Employee" style="stroke:#A80036;stroke-width:1.25;"/><polygon fill="#000000" points="259.7131,407.7944,254.341,418.3996,261.6006,419.5318,259.7131,407.7944" style="stroke:#000000;stroke-width:1.25;"/><text fill="#000000" font-family="sans-serif" font-size="16.25" lengthAdjust="spacing" textLength="53.75" x="270" y="420.6189">creates</text><text fill="#000000" font-family="sans-serif" font-size="16.25" lengthAdjust="spacing" textLength="8.75" x="234.6082" y="449.0817">1</text><text fill="#000000" font-family="sans-serif" font-size="16.25" lengthAdjust="spacing" textLength="8.75" x="247.9549" y="391.6162">1</text><!--MD5=[7144ffdeebbe38808f7fb2ce8ac24f7d]
link Administrator to ParameterCategory--><path codeLine="35" d="M232.4625,522.6375 C223.775,568.525 211.7875,660.2625 236.25,732.5 C248.65,769.1125 274.525,803.725 298.075,829.8125 " fill="none" id="Administrator-ParameterCategory" style="stroke:#A80036;stroke-width:1.25;"/><polygon fill="#000000" points="243.8055,682.5818,245.0364,670.7575,237.8512,672.2923,243.8055,682.5818" style="stroke:#000000;stroke-width:1.25;"/><text fill="#000000" font-family="sans-serif" font-size="16.25" lengthAdjust="spacing" textLength="53.75" x="253.75" y="683.1189">creates</text><text fill="#000000" font-family="sans-serif" font-size="16.25" lengthAdjust="spacing" textLength="8.75" x="221.1135" y="549.3435">1</text><text fill="#000000" font-family="sans-serif" font-size="16.25" lengthAdjust="spacing" textLength="8.75" x="279.9645" y="816.4815">1</text><!--MD5=[4816e9029af7918ac30a965ff8ded5aa]
link Administrator to Parameter--><path codeLine="36" d="M253.725,522.5375 C263.6625,540.525 277.5875,563.75 292.5,582.5 C303.9625,596.9125 317.5375,611.35 330.7875,624.4 " fill="none" id="Administrator-Parameter" style="stroke:#A80036;stroke-width:1.25;"/><polygon fill="#000000" points="302.5208,576.454,298.6291,565.2209,292.7696,569.6538,302.5208,576.454" style="stroke:#000000;stroke-width:1.25;"/><text fill="#000000" font-family="sans-serif" font-size="16.25" lengthAdjust="spacing" textLength="53.75" x="310" y="578.1189">creates</text><text fill="#000000" font-family="sans-serif" font-size="16.25" lengthAdjust="spacing" textLength="8.75" x="247.5588" y="549.2191">1</text><text fill="#000000" font-family="sans-serif" font-size="16.25" lengthAdjust="spacing" textLength="25" x="296.0545" y="612.6454">1..*</text><!--MD5=[6df8849671cb880f6936e94aa30db6f9]
link Parameter to ParameterCategory--><path codeLine="37" d="M355.65,732.75 C350.2125,744.675 345.3875,757.475 342.5,770 C338.0625,789.25 338,810.9625 339.4125,829.725 " fill="none" id="Parameter-ParameterCategory" style="stroke:#A80036;stroke-width:1.25;"/><polygon fill="#000000" points="347.7179,787.6339,353.2082,777.0895,345.9618,775.8761,347.7179,787.6339" style="stroke:#000000;stroke-width:1.25;"/><text fill="#000000" font-family="sans-serif" font-size="16.25" lengthAdjust="spacing" textLength="116.25" x="360" y="788.1189">presented under</text><text fill="#000000" font-family="sans-serif" font-size="16.25" lengthAdjust="spacing" textLength="6.25" x="344.7002" y="758.6257">*</text><text fill="#000000" font-family="sans-serif" font-size="16.25" lengthAdjust="spacing" textLength="8.75" x="328.6653" y="816.3784">1</text><!--MD5=[93b4f25fb503a8e0e9a46b1d30ff3f44]
link Company to ParameterCategory--><path codeLine="38" d="M423.025,68.875 C456.225,109.5125 510,187.25 510,264.375 C510,264.375 510,264.375 510,677.5 C510,730.05 513.3375,749.95 482.5,792.5 C469.7125,810.15 451.95,824.85 433.475,836.75 " fill="none" id="Company-ParameterCategory" style="stroke:#A80036;stroke-width:1.25;"/><polygon fill="#000000" points="516.335,498.9691,519.8545,487.6138,512.5079,487.7138,516.335,498.9691" style="stroke:#000000;stroke-width:1.25;"/><text fill="#000000" font-family="sans-serif" font-size="16.25" lengthAdjust="spacing" textLength="48.75" x="527.5" y="499.3689">adopts</text><text fill="#000000" font-family="sans-serif" font-size="16.25" lengthAdjust="spacing" textLength="8.75" x="419.4303" y="95.5779">1</text><text fill="#000000" font-family="sans-serif" font-size="16.25" lengthAdjust="spacing" textLength="6.25" x="443.357" y="828.1146">*</text><!--MD5=[12d76240d3c3c66074d4ec2ea8bf469c]
link Company to Parameter--><path codeLine="39" d="M397.05,68.9375 C395.5,167.2 390.425,489.225 388.375,619.525 " fill="none" id="Company-Parameter" style="stroke:#A80036;stroke-width:1.25;"/><polygon fill="#000000" points="398.6515,420.219,402.5029,408.9719,395.1565,408.8561,398.6515,420.219" style="stroke:#000000;stroke-width:1.25;"/><text fill="#000000" font-family="sans-serif" font-size="16.25" lengthAdjust="spacing" textLength="48.75" x="410" y="420.6189">adopts</text><text fill="#000000" font-family="sans-serif" font-size="16.25" lengthAdjust="spacing" textLength="8.75" x="387.1239" y="95.6557">1</text><text fill="#000000" font-family="sans-serif" font-size="16.25" lengthAdjust="spacing" textLength="6.25" x="381.7805" y="606.2574">*</text><!--MD5=[18fc64058ea2b1f2cc7860dec079a07e]
@startuml
'https://plantuml.com/class-diagram

class Employee{
    name
    phoneNumber
    email
    password
    employeeID
    socCode
    organizationRole
    address
}
class Administrator {
}

class Parameter {
code
shortName
description
}

class ParameterCategory{
code
name
}
class User{
    name
    email
    password
}
User "1" - "0..1" Employee: relates to <
Company "1" - - "1..*" Employee: has >
Employee <|- - Administrator
Administrator "1" - - "1" Employee: creates >
Administrator "1" - - "1" ParameterCategory : creates >
Administrator "1" - - "1..*" Parameter : creates >
Parameter "*" - - "1"    ParameterCategory : presented under >
Company "1" - - "*" ParameterCategory: adopts >
Company "1" - "*" Parameter: adopts >
@enduml

@startuml

class Employee{
    name
    phoneNumber
    email
    password
    employeeID
    socCode
    organizationRole
    address
}
class Administrator {
}

class Parameter {
code
shortName
description
}

class ParameterCategory{
code
name
}
class User{
    name
    email
    password
}
User "1" - "0..1" Employee: relates to <
Company "1" - - "1..*" Employee: has >
Employee <|- - Administrator
Administrator "1" - - "1" Employee: creates >
Administrator "1" - - "1" ParameterCategory : creates >
Administrator "1" - - "1..*" Parameter : creates >
Parameter "*" - - "1"    ParameterCategory : presented under >
Company "1" - - "*" ParameterCategory: adopts >
Company "1" - "*" Parameter: adopts >
@enduml

PlantUML version 1.2021.5(Sun Apr 25 12:20:28 BST 2021)
(GPL source distribution)
Java Runtime: OpenJDK Runtime Environment
JVM: Dynamic Code Evolution 64-Bit Server VM
Default Encoding: Cp1252
Language: pt
Country: PT
--></g></svg>