<?xml version="1.0" encoding="UTF-8" standalone="no"?><svg xmlns="http://www.w3.org/2000/svg" xmlns:xlink="http://www.w3.org/1999/xlink" contentScriptType="application/ecmascript" contentStyleType="text/css" height="1464px" preserveAspectRatio="none" style="width:2752px;height:1464px;" version="1.1" viewBox="0 0 2752 1464" width="2752px" zoomAndPan="magnify"><defs><filter height="300%" id="f1kz613fu6f3ff" width="300%" x="-1" y="-1"><feGaussianBlur result="blurOut" stdDeviation="2.0"/><feColorMatrix in="blurOut" result="blurOut2" type="matrix" values="0 0 0 0 0 0 0 0 0 0 0 0 0 0 0 0 0 0 .4 0"/><feOffset dx="4.0" dy="4.0" in="blurOut2" result="blurOut3"/><feBlend in="SourceGraphic" in2="blurOut3" mode="normal"/></filter></defs><g><rect fill="#FFFFFF" filter="url(#f1kz613fu6f3ff)" height="1270.0781" style="stroke:#A80036;stroke-width:1.0;" width="10" x="76" y="99.6094"/><rect fill="#FFFFFF" filter="url(#f1kz613fu6f3ff)" height="30.3516" style="stroke:#A80036;stroke-width:1.0;" width="10" x="448" y="121.9609"/><rect fill="#FFFFFF" filter="url(#f1kz613fu6f3ff)" height="565.0469" style="stroke:#A80036;stroke-width:1.0;" width="10" x="448" y="182.6641"/><rect fill="#FFFFFF" filter="url(#f1kz613fu6f3ff)" height="30.3516" style="stroke:#A80036;stroke-width:1.0;" width="10" x="448" y="778.0625"/><rect fill="#FFFFFF" filter="url(#f1kz613fu6f3ff)" height="253.8125" style="stroke:#A80036;stroke-width:1.0;" width="10" x="448" y="838.7656"/><rect fill="#FFFFFF" filter="url(#f1kz613fu6f3ff)" height="237.7578" style="stroke:#A80036;stroke-width:1.0;" width="10" x="448" y="1122.9297"/><rect fill="#FFFFFF" filter="url(#f1kz613fu6f3ff)" height="504.3438" style="stroke:#A80036;stroke-width:1.0;" width="10" x="754" y="213.0156"/><rect fill="#FFFFFF" filter="url(#f1kz613fu6f3ff)" height="186.1094" style="stroke:#A80036;stroke-width:1.0;" width="10" x="754" y="869.1172"/><rect fill="#FFFFFF" filter="url(#f1kz613fu6f3ff)" height="207.4063" style="stroke:#A80036;stroke-width:1.0;" width="10" x="754" y="1153.2813"/><rect fill="#FFFFFF" filter="url(#f1kz613fu6f3ff)" height="30" style="stroke:#A80036;stroke-width:1.0;" width="10" x="1016" y="243.3672"/><rect fill="#FFFFFF" filter="url(#f1kz613fu6f3ff)" height="30" style="stroke:#A80036;stroke-width:1.0;" width="10" x="1016" y="458.6406"/><rect fill="#FFFFFF" filter="url(#f1kz613fu6f3ff)" height="30.3516" style="stroke:#A80036;stroke-width:1.0;" width="10" x="1128" y="303.7188"/><rect fill="#FFFFFF" filter="url(#f1kz613fu6f3ff)" height="30" style="stroke:#A80036;stroke-width:1.0;" width="10" x="1128" y="398.2891"/><rect fill="#FFFFFF" filter="url(#f1kz613fu6f3ff)" height="177.0547" style="stroke:#A80036;stroke-width:1.0;" width="10" x="1128" y="1183.6328"/><rect fill="#FFFFFF" filter="url(#f1kz613fu6f3ff)" height="28" style="stroke:#A80036;stroke-width:1.0;" width="10" x="1133" y="1221.9844"/><rect fill="#FFFFFF" filter="url(#f1kz613fu6f3ff)" height="28" style="stroke:#A80036;stroke-width:1.0;" width="10" x="1133" y="1295.3359"/><rect fill="#FFFFFF" filter="url(#f1kz613fu6f3ff)" height="30.3516" style="stroke:#A80036;stroke-width:1.0;" width="10" x="1339" y="549.3438"/><rect fill="#FFFFFF" filter="url(#f1kz613fu6f3ff)" height="66.3516" style="stroke:#A80036;stroke-width:1.0;" width="10" x="1483" y="988.875"/><rect fill="#FFFFFF" filter="url(#f1kz613fu6f3ff)" height="28" style="stroke:#A80036;stroke-width:1.0;" width="10" x="1488" y="1027.2266"/><rect fill="#FFFFFF" filter="url(#f1kz613fu6f3ff)" height="76.9609" style="stroke:#A80036;stroke-width:1.0;" width="10" x="2269" y="610.0469"/><line style="stroke:#A80036;stroke-width:1.0;stroke-dasharray:5.0,5.0;" x1="81" x2="81" y1="89.6094" y2="1378.6875"/><line style="stroke:#A80036;stroke-width:1.0;stroke-dasharray:5.0,5.0;" x1="452.5" x2="452.5" y1="89.6094" y2="1378.6875"/><line style="stroke:#A80036;stroke-width:1.0;stroke-dasharray:5.0,5.0;" x1="758.5" x2="758.5" y1="89.6094" y2="1378.6875"/><line style="stroke:#A80036;stroke-width:1.0;stroke-dasharray:5.0,5.0;" x1="1021" x2="1021" y1="89.6094" y2="1378.6875"/><line style="stroke:#A80036;stroke-width:1.0;stroke-dasharray:5.0,5.0;" x1="1133" x2="1133" y1="89.6094" y2="1378.6875"/><line style="stroke:#A80036;stroke-width:1.0;stroke-dasharray:5.0,5.0;" x1="1344" x2="1344" y1="89.6094" y2="1378.6875"/><line style="stroke:#A80036;stroke-width:1.0;stroke-dasharray:5.0,5.0;" x1="1488" x2="1488" y1="353.8281" y2="1378.6875"/><line style="stroke:#A80036;stroke-width:1.0;stroke-dasharray:5.0,5.0;" x1="1759" x2="1759" y1="89.6094" y2="1378.6875"/><line style="stroke:#A80036;stroke-width:1.0;stroke-dasharray:5.0,5.0;" x1="2004" x2="2004" y1="89.6094" y2="1378.6875"/><line style="stroke:#A80036;stroke-width:1.0;stroke-dasharray:5.0,5.0;" x1="2274" x2="2274" y1="89.6094" y2="1378.6875"/><line style="stroke:#A80036;stroke-width:1.0;stroke-dasharray:5.0,5.0;" x1="2561" x2="2561" y1="651.3516" y2="1378.6875"/><text fill="#000000" font-family="sans-serif" font-size="14" lengthAdjust="spacing" textLength="146" x="5" y="86.5332">Organization Employee</text><ellipse cx="81" cy="15" fill="#FEFECE" filter="url(#f1kz613fu6f3ff)" rx="8" ry="8" style="stroke:#A80036;stroke-width:2.0;"/><path d="M81,23 L81,50 M68,31 L94,31 M81,50 L68,65 M81,50 L94,65 " fill="none" filter="url(#f1kz613fu6f3ff)" style="stroke:#A80036;stroke-width:2.0;"/><text fill="#000000" font-family="sans-serif" font-size="14" lengthAdjust="spacing" textLength="146" x="5" y="1392.2207">Organization Employee</text><ellipse cx="81" cy="1405.2969" fill="#FEFECE" filter="url(#f1kz613fu6f3ff)" rx="8" ry="8" style="stroke:#A80036;stroke-width:2.0;"/><path d="M81,1413.2969 L81,1440.2969 M68,1421.2969 L94,1421.2969 M81,1440.2969 L68,1455.2969 M81,1440.2969 L94,1455.2969 " fill="none" filter="url(#f1kz613fu6f3ff)" style="stroke:#A80036;stroke-width:2.0;"/><rect fill="#FEFECE" filter="url(#f1kz613fu6f3ff)" height="31.6094" style="stroke:#A80036;stroke-width:1.5;" width="139" x="381.5" y="53"/><text fill="#000000" font-family="sans-serif" font-size="14" lengthAdjust="spacing" textLength="125" x="388.5" y="74.5332">:CreateParameterUI</text><rect fill="#FEFECE" filter="url(#f1kz613fu6f3ff)" height="31.6094" style="stroke:#A80036;stroke-width:1.5;" width="139" x="381.5" y="1377.6875"/><text fill="#000000" font-family="sans-serif" font-size="14" lengthAdjust="spacing" textLength="125" x="388.5" y="1399.2207">:CreateParameterUI</text><rect fill="#FEFECE" filter="url(#f1kz613fu6f3ff)" height="31.6094" style="stroke:#A80036;stroke-width:1.5;" width="189" x="662.5" y="53"/><text fill="#000000" font-family="sans-serif" font-size="14" lengthAdjust="spacing" textLength="175" x="669.5" y="74.5332">:CreateParameterController</text><rect fill="#FEFECE" filter="url(#f1kz613fu6f3ff)" height="31.6094" style="stroke:#A80036;stroke-width:1.5;" width="189" x="662.5" y="1377.6875"/><text fill="#000000" font-family="sans-serif" font-size="14" lengthAdjust="spacing" textLength="175" x="669.5" y="1399.2207">:CreateParameterController</text><rect fill="#FEFECE" filter="url(#f1kz613fu6f3ff)" height="31.6094" style="stroke:#A80036;stroke-width:1.5;" width="78" x="980" y="53"/><text fill="#000000" font-family="sans-serif" font-size="14" lengthAdjust="spacing" textLength="64" x="987" y="74.5332">:Company</text><rect fill="#FEFECE" filter="url(#f1kz613fu6f3ff)" height="31.6094" style="stroke:#A80036;stroke-width:1.5;" width="78" x="980" y="1377.6875"/><text fill="#000000" font-family="sans-serif" font-size="14" lengthAdjust="spacing" textLength="64" x="987" y="1399.2207">:Company</text><rect fill="#FEFECE" filter="url(#f1kz613fu6f3ff)" height="49.2188" style="stroke:#A80036;stroke-width:1.5;" width="118" x="1072" y="35.3906"/><text fill="#000000" font-family="sans-serif" font-size="14" lengthAdjust="spacing" textLength="34" x="1114" y="56.9238">Store</text><text fill="#000000" font-family="sans-serif" font-size="14" lengthAdjust="spacing" textLength="104" x="1079" y="74.5332">:ParameterStore</text><rect fill="#FEFECE" filter="url(#f1kz613fu6f3ff)" height="49.2188" style="stroke:#A80036;stroke-width:1.5;" width="118" x="1072" y="1377.6875"/><text fill="#000000" font-family="sans-serif" font-size="14" lengthAdjust="spacing" textLength="34" x="1114" y="1399.2207">Store</text><text fill="#000000" font-family="sans-serif" font-size="14" lengthAdjust="spacing" textLength="104" x="1079" y="1416.8301">:ParameterStore</text><rect fill="#FEFECE" filter="url(#f1kz613fu6f3ff)" height="49.2188" style="stroke:#A80036;stroke-width:1.5;" width="176" x="1254" y="35.3906"/><text fill="#000000" font-family="sans-serif" font-size="14" lengthAdjust="spacing" textLength="48" x="1318" y="56.9238">storePc</text><text fill="#000000" font-family="sans-serif" font-size="14" lengthAdjust="spacing" textLength="162" x="1261" y="74.5332">:ParameterCategoryStore</text><rect fill="#FEFECE" filter="url(#f1kz613fu6f3ff)" height="49.2188" style="stroke:#A80036;stroke-width:1.5;" width="176" x="1254" y="1377.6875"/><text fill="#000000" font-family="sans-serif" font-size="14" lengthAdjust="spacing" textLength="48" x="1318" y="1399.2207">storePc</text><text fill="#000000" font-family="sans-serif" font-size="14" lengthAdjust="spacing" textLength="162" x="1261" y="1416.8301">:ParameterCategoryStore</text><rect fill="#FEFECE" filter="url(#f1kz613fu6f3ff)" height="49.2188" style="stroke:#A80036;stroke-width:1.5;" width="84" x="1444" y="1377.6875"/><text fill="#000000" font-family="sans-serif" font-size="14" lengthAdjust="spacing" textLength="65" x="1453.5" y="1399.2207">parameter</text><text fill="#000000" font-family="sans-serif" font-size="14" lengthAdjust="spacing" textLength="70" x="1451" y="1416.8301">:Parameter</text><rect fill="#FEFECE" filter="url(#f1kz613fu6f3ff)" height="49.2188" style="stroke:#A80036;stroke-width:1.5;" width="142" x="1686" y="35.3906"/><text fill="#000000" font-family="sans-serif" font-size="14" lengthAdjust="spacing" textLength="15" x="1749.5" y="56.9238">pc</text><text fill="#000000" font-family="sans-serif" font-size="14" lengthAdjust="spacing" textLength="128" x="1693" y="74.5332">:ParameterCategory</text><rect fill="#FEFECE" filter="url(#f1kz613fu6f3ff)" height="49.2188" style="stroke:#A80036;stroke-width:1.5;" width="142" x="1686" y="1377.6875"/><text fill="#000000" font-family="sans-serif" font-size="14" lengthAdjust="spacing" textLength="15" x="1749.5" y="1399.2207">pc</text><text fill="#000000" font-family="sans-serif" font-size="14" lengthAdjust="spacing" textLength="128" x="1693" y="1416.8301">:ParameterCategory</text><rect fill="#FEFECE" filter="url(#f1kz613fu6f3ff)" height="31.6094" style="stroke:#A80036;stroke-width:1.5;" width="321" x="1842" y="53"/><text fill="#000000" font-family="sans-serif" font-size="14" lengthAdjust="spacing" textLength="307" x="1849" y="74.5332">listParameterCategory:List&lt;ParameterCategory&gt;</text><rect fill="#FEFECE" filter="url(#f1kz613fu6f3ff)" height="31.6094" style="stroke:#A80036;stroke-width:1.5;" width="321" x="1842" y="1377.6875"/><text fill="#000000" font-family="sans-serif" font-size="14" lengthAdjust="spacing" textLength="307" x="1849" y="1399.2207">listParameterCategory:List&lt;ParameterCategory&gt;</text><rect fill="#FEFECE" filter="url(#f1kz613fu6f3ff)" height="31.6094" style="stroke:#A80036;stroke-width:1.5;" width="190" x="2177" y="53"/><text fill="#000000" font-family="sans-serif" font-size="14" lengthAdjust="spacing" textLength="176" x="2184" y="74.5332">:ParameterCategoryMapper</text><rect fill="#FEFECE" filter="url(#f1kz613fu6f3ff)" height="31.6094" style="stroke:#A80036;stroke-width:1.5;" width="190" x="2177" y="1377.6875"/><text fill="#000000" font-family="sans-serif" font-size="14" lengthAdjust="spacing" textLength="176" x="2184" y="1399.2207">:ParameterCategoryMapper</text><rect fill="#FEFECE" filter="url(#f1kz613fu6f3ff)" height="31.6094" style="stroke:#A80036;stroke-width:1.5;" width="357" x="2381" y="1377.6875"/><text fill="#000000" font-family="sans-serif" font-size="14" lengthAdjust="spacing" textLength="343" x="2388" y="1399.2207">listParameterCategoryDto:List&lt;ParameterCategoryDto</text><rect fill="#FFFFFF" filter="url(#f1kz613fu6f3ff)" height="1270.0781" style="stroke:#A80036;stroke-width:1.0;" width="10" x="76" y="99.6094"/><rect fill="#FFFFFF" filter="url(#f1kz613fu6f3ff)" height="30.3516" style="stroke:#A80036;stroke-width:1.0;" width="10" x="448" y="121.9609"/><rect fill="#FFFFFF" filter="url(#f1kz613fu6f3ff)" height="565.0469" style="stroke:#A80036;stroke-width:1.0;" width="10" x="448" y="182.6641"/><rect fill="#FFFFFF" filter="url(#f1kz613fu6f3ff)" height="30.3516" style="stroke:#A80036;stroke-width:1.0;" width="10" x="448" y="778.0625"/><rect fill="#FFFFFF" filter="url(#f1kz613fu6f3ff)" height="253.8125" style="stroke:#A80036;stroke-width:1.0;" width="10" x="448" y="838.7656"/><rect fill="#FFFFFF" filter="url(#f1kz613fu6f3ff)" height="237.7578" style="stroke:#A80036;stroke-width:1.0;" width="10" x="448" y="1122.9297"/><rect fill="#FFFFFF" filter="url(#f1kz613fu6f3ff)" height="504.3438" style="stroke:#A80036;stroke-width:1.0;" width="10" x="754" y="213.0156"/><rect fill="#FFFFFF" filter="url(#f1kz613fu6f3ff)" height="186.1094" style="stroke:#A80036;stroke-width:1.0;" width="10" x="754" y="869.1172"/><rect fill="#FFFFFF" filter="url(#f1kz613fu6f3ff)" height="207.4063" style="stroke:#A80036;stroke-width:1.0;" width="10" x="754" y="1153.2813"/><rect fill="#FFFFFF" filter="url(#f1kz613fu6f3ff)" height="30" style="stroke:#A80036;stroke-width:1.0;" width="10" x="1016" y="243.3672"/><rect fill="#FFFFFF" filter="url(#f1kz613fu6f3ff)" height="30" style="stroke:#A80036;stroke-width:1.0;" width="10" x="1016" y="458.6406"/><rect fill="#FFFFFF" filter="url(#f1kz613fu6f3ff)" height="30.3516" style="stroke:#A80036;stroke-width:1.0;" width="10" x="1128" y="303.7188"/><rect fill="#FFFFFF" filter="url(#f1kz613fu6f3ff)" height="30" style="stroke:#A80036;stroke-width:1.0;" width="10" x="1128" y="398.2891"/><rect fill="#FFFFFF" filter="url(#f1kz613fu6f3ff)" height="177.0547" style="stroke:#A80036;stroke-width:1.0;" width="10" x="1128" y="1183.6328"/><rect fill="#FFFFFF" filter="url(#f1kz613fu6f3ff)" height="28" style="stroke:#A80036;stroke-width:1.0;" width="10" x="1133" y="1221.9844"/><rect fill="#FFFFFF" filter="url(#f1kz613fu6f3ff)" height="28" style="stroke:#A80036;stroke-width:1.0;" width="10" x="1133" y="1295.3359"/><rect fill="#FFFFFF" filter="url(#f1kz613fu6f3ff)" height="30.3516" style="stroke:#A80036;stroke-width:1.0;" width="10" x="1339" y="549.3438"/><rect fill="#FFFFFF" filter="url(#f1kz613fu6f3ff)" height="66.3516" style="stroke:#A80036;stroke-width:1.0;" width="10" x="1483" y="988.875"/><rect fill="#FFFFFF" filter="url(#f1kz613fu6f3ff)" height="28" style="stroke:#A80036;stroke-width:1.0;" width="10" x="1488" y="1027.2266"/><rect fill="#FFFFFF" filter="url(#f1kz613fu6f3ff)" height="76.9609" style="stroke:#A80036;stroke-width:1.0;" width="10" x="2269" y="610.0469"/><polygon fill="#A80036" points="436,117.9609,446,121.9609,436,125.9609,440,121.9609" style="stroke:#A80036;stroke-width:1.0;"/><line style="stroke:#A80036;stroke-width:1.0;" x1="86" x2="442" y1="121.9609" y2="121.9609"/><text fill="#000000" font-family="sans-serif" font-size="13" font-weight="bold" lengthAdjust="spacing" textLength="7" x="93" y="117.1045">1</text><text fill="#000000" font-family="sans-serif" font-size="13" lengthAdjust="spacing" textLength="183" x="104" y="117.1045">asks to create a new parameter</text><polygon fill="#A80036" points="97,148.3125,87,152.3125,97,156.3125,93,152.3125" style="stroke:#A80036;stroke-width:1.0;"/><line style="stroke:#A80036;stroke-width:1.0;stroke-dasharray:2.0,2.0;" x1="91" x2="452" y1="152.3125" y2="152.3125"/><text fill="#000000" font-family="sans-serif" font-size="13" font-weight="bold" lengthAdjust="spacing" textLength="7" x="103" y="147.4561">2</text><text fill="#000000" font-family="sans-serif" font-size="13" lengthAdjust="spacing" textLength="253" x="114" y="147.4561">requests data (shortName,code,description)</text><polygon fill="#A80036" points="436,178.6641,446,182.6641,436,186.6641,440,182.6641" style="stroke:#A80036;stroke-width:1.0;"/><line style="stroke:#A80036;stroke-width:1.0;" x1="86" x2="442" y1="182.6641" y2="182.6641"/><text fill="#000000" font-family="sans-serif" font-size="13" font-weight="bold" lengthAdjust="spacing" textLength="7" x="93" y="177.8076">3</text><text fill="#000000" font-family="sans-serif" font-size="13" lengthAdjust="spacing" textLength="122" x="104" y="177.8076">types requested data</text><polygon fill="#A80036" points="742,209.0156,752,213.0156,742,217.0156,746,213.0156" style="stroke:#A80036;stroke-width:1.0;"/><line style="stroke:#A80036;stroke-width:1.0;" x1="458" x2="748" y1="213.0156" y2="213.0156"/><text fill="#000000" font-family="sans-serif" font-size="13" font-weight="bold" lengthAdjust="spacing" textLength="7" x="465" y="208.1592">4</text><text fill="#000000" font-family="sans-serif" font-size="13" lengthAdjust="spacing" textLength="266" x="476" y="208.1592">createParameter(shortName,code,description)</text><polygon fill="#A80036" points="1004,239.3672,1014,243.3672,1004,247.3672,1008,243.3672" style="stroke:#A80036;stroke-width:1.0;"/><line style="stroke:#A80036;stroke-width:1.0;" x1="764" x2="1010" y1="243.3672" y2="243.3672"/><text fill="#000000" font-family="sans-serif" font-size="13" font-weight="bold" lengthAdjust="spacing" textLength="7" x="771" y="238.5107">5</text><text fill="#000000" font-family="sans-serif" font-size="13" lengthAdjust="spacing" textLength="154" x="782" y="238.5107">store=getParameterStore()</text><polygon fill="#A80036" points="1116,299.7188,1126,303.7188,1116,307.7188,1120,303.7188" style="stroke:#A80036;stroke-width:1.0;"/><line style="stroke:#A80036;stroke-width:1.0;" x1="764" x2="1122" y1="303.7188" y2="303.7188"/><text fill="#000000" font-family="sans-serif" font-size="13" font-weight="bold" lengthAdjust="spacing" textLength="7" x="771" y="298.8623">6</text><text fill="#000000" font-family="sans-serif" font-size="13" lengthAdjust="spacing" textLength="332" x="782" y="298.8623">parameter=createParameter(shortName,code,description)</text><polygon fill="#A80036" points="1432,330.0703,1442,334.0703,1432,338.0703,1436,334.0703" style="stroke:#A80036;stroke-width:1.0;"/><line style="stroke:#A80036;stroke-width:1.0;stroke-dasharray:2.0,2.0;" x1="1133" x2="1438" y1="334.0703" y2="334.0703"/><text fill="#000000" font-family="sans-serif" font-size="13" font-weight="bold" lengthAdjust="spacing" textLength="7" x="1140" y="329.2139">7</text><text fill="#000000" font-family="sans-serif" font-size="13" lengthAdjust="spacing" textLength="206" x="1151" y="329.2139">create(shortName,code,description)</text><rect fill="#FEFECE" filter="url(#f1kz613fu6f3ff)" height="49.2188" style="stroke:#A80036;stroke-width:1.5;" width="84" x="1444" y="311.7188"/><text fill="#000000" font-family="sans-serif" font-size="14" lengthAdjust="spacing" textLength="65" x="1453.5" y="333.252">parameter</text><text fill="#000000" font-family="sans-serif" font-size="14" lengthAdjust="spacing" textLength="70" x="1451" y="350.8613">:Parameter</text><polygon fill="#A80036" points="1116,394.2891,1126,398.2891,1116,402.2891,1120,398.2891" style="stroke:#A80036;stroke-width:1.0;"/><line style="stroke:#A80036;stroke-width:1.0;" x1="764" x2="1122" y1="398.2891" y2="398.2891"/><text fill="#000000" font-family="sans-serif" font-size="13" font-weight="bold" lengthAdjust="spacing" textLength="7" x="771" y="393.4326">8</text><text fill="#000000" font-family="sans-serif" font-size="13" lengthAdjust="spacing" textLength="169" x="782" y="393.4326">validateParameter(parameter)</text><polygon fill="#A80036" points="1004,454.6406,1014,458.6406,1004,462.6406,1008,458.6406" style="stroke:#A80036;stroke-width:1.0;"/><line style="stroke:#A80036;stroke-width:1.0;" x1="764" x2="1010" y1="458.6406" y2="458.6406"/><text fill="#000000" font-family="sans-serif" font-size="13" font-weight="bold" lengthAdjust="spacing" textLength="7" x="771" y="453.7842">9</text><text fill="#000000" font-family="sans-serif" font-size="13" lengthAdjust="spacing" textLength="222" x="782" y="453.7842">storePc=getParameterCategoryStore()</text><polygon fill="#A80036" points="742,514.9922,752,518.9922,742,522.9922,746,518.9922" style="stroke:#A80036;stroke-width:1.0;"/><line style="stroke:#A80036;stroke-width:1.0;" x1="458" x2="748" y1="518.9922" y2="518.9922"/><text fill="#000000" font-family="sans-serif" font-size="13" font-weight="bold" lengthAdjust="spacing" textLength="14" x="465" y="514.1357">10</text><text fill="#000000" font-family="sans-serif" font-size="13" lengthAdjust="spacing" textLength="182" x="483" y="514.1357">getListOfParameterCategories()</text><polygon fill="#A80036" points="1327,545.3438,1337,549.3438,1327,553.3438,1331,549.3438" style="stroke:#A80036;stroke-width:1.0;"/><line style="stroke:#A80036;stroke-width:1.0;" x1="764" x2="1333" y1="549.3438" y2="549.3438"/><text fill="#000000" font-family="sans-serif" font-size="13" font-weight="bold" lengthAdjust="spacing" textLength="14" x="771" y="544.4873">11</text><text fill="#000000" font-family="sans-serif" font-size="13" lengthAdjust="spacing" textLength="182" x="789" y="544.4873">getListOfParameterCategories()</text><polygon fill="#A80036" points="775,575.6953,765,579.6953,775,583.6953,771,579.6953" style="stroke:#A80036;stroke-width:1.0;"/><line style="stroke:#A80036;stroke-width:1.0;stroke-dasharray:2.0,2.0;" x1="769" x2="1343" y1="579.6953" y2="579.6953"/><text fill="#000000" font-family="sans-serif" font-size="13" font-weight="bold" lengthAdjust="spacing" textLength="14" x="781" y="574.8389">12</text><text fill="#000000" font-family="sans-serif" font-size="13" lengthAdjust="spacing" textLength="129" x="799" y="574.8389">listParameterCategory</text><polygon fill="#A80036" points="2257,606.0469,2267,610.0469,2257,614.0469,2261,610.0469" style="stroke:#A80036;stroke-width:1.0;"/><line style="stroke:#A80036;stroke-width:1.0;" x1="764" x2="2263" y1="610.0469" y2="610.0469"/><text fill="#000000" font-family="sans-serif" font-size="13" font-weight="bold" lengthAdjust="spacing" textLength="14" x="771" y="605.1904">13</text><text fill="#000000" font-family="sans-serif" font-size="13" lengthAdjust="spacing" textLength="168" x="789" y="605.1904">toDto(listParameterCategory)</text><polygon fill="#A80036" points="2369,636.3984,2379,640.3984,2369,644.3984,2373,640.3984" style="stroke:#A80036;stroke-width:1.0;"/><line style="stroke:#A80036;stroke-width:1.0;stroke-dasharray:2.0,2.0;" x1="2279" x2="2375" y1="640.3984" y2="640.3984"/><text fill="#000000" font-family="sans-serif" font-size="13" font-weight="bold" lengthAdjust="spacing" textLength="14" x="2286" y="635.542">14</text><text fill="#000000" font-family="sans-serif" font-size="13" lengthAdjust="spacing" textLength="44" x="2304" y="635.542">create()</text><rect fill="#FEFECE" filter="url(#f1kz613fu6f3ff)" height="31.6094" style="stroke:#A80036;stroke-width:1.5;" width="357" x="2381" y="618.0469"/><text fill="#000000" font-family="sans-serif" font-size="14" lengthAdjust="spacing" textLength="343" x="2388" y="639.5801">listParameterCategoryDto:List&lt;ParameterCategoryDto</text><polygon fill="#A80036" points="775,683.0078,765,687.0078,775,691.0078,771,687.0078" style="stroke:#A80036;stroke-width:1.0;"/><line style="stroke:#A80036;stroke-width:1.0;stroke-dasharray:2.0,2.0;" x1="769" x2="2273" y1="687.0078" y2="687.0078"/><text fill="#000000" font-family="sans-serif" font-size="13" font-weight="bold" lengthAdjust="spacing" textLength="14" x="781" y="682.1514">15</text><text fill="#000000" font-family="sans-serif" font-size="13" lengthAdjust="spacing" textLength="149" x="799" y="682.1514">listParameterCategoryDto</text><polygon fill="#A80036" points="469,713.3594,459,717.3594,469,721.3594,465,717.3594" style="stroke:#A80036;stroke-width:1.0;"/><line style="stroke:#A80036;stroke-width:1.0;stroke-dasharray:2.0,2.0;" x1="463" x2="758" y1="717.3594" y2="717.3594"/><text fill="#000000" font-family="sans-serif" font-size="13" font-weight="bold" lengthAdjust="spacing" textLength="14" x="475" y="712.5029">16</text><text fill="#000000" font-family="sans-serif" font-size="13" lengthAdjust="spacing" textLength="149" x="493" y="712.5029">listParameterCategoryDto</text><polygon fill="#A80036" points="97,743.7109,87,747.7109,97,751.7109,93,747.7109" style="stroke:#A80036;stroke-width:1.0;"/><line style="stroke:#A80036;stroke-width:1.0;stroke-dasharray:2.0,2.0;" x1="91" x2="452" y1="747.7109" y2="747.7109"/><text fill="#000000" font-family="sans-serif" font-size="13" font-weight="bold" lengthAdjust="spacing" textLength="14" x="103" y="742.8545">17</text><text fill="#000000" font-family="sans-serif" font-size="13" lengthAdjust="spacing" textLength="320" x="121" y="742.8545">shows parameter categories list and asks to select one</text><polygon fill="#A80036" points="436,774.0625,446,778.0625,436,782.0625,440,778.0625" style="stroke:#A80036;stroke-width:1.0;"/><line style="stroke:#A80036;stroke-width:1.0;" x1="86" x2="442" y1="778.0625" y2="778.0625"/><text fill="#000000" font-family="sans-serif" font-size="13" font-weight="bold" lengthAdjust="spacing" textLength="14" x="93" y="773.2061">18</text><text fill="#000000" font-family="sans-serif" font-size="13" lengthAdjust="spacing" textLength="169" x="111" y="773.2061">selects a parameter category</text><polygon fill="#A80036" points="97,804.4141,87,808.4141,97,812.4141,93,808.4141" style="stroke:#A80036;stroke-width:1.0;"/><line style="stroke:#A80036;stroke-width:1.0;stroke-dasharray:2.0,2.0;" x1="91" x2="452" y1="808.4141" y2="808.4141"/><text fill="#000000" font-family="sans-serif" font-size="13" font-weight="bold" lengthAdjust="spacing" textLength="14" x="103" y="803.5576">19</text><text fill="#000000" font-family="sans-serif" font-size="13" lengthAdjust="spacing" textLength="266" x="121" y="803.5576">shows the category and requests confirmation</text><polygon fill="#A80036" points="436,834.7656,446,838.7656,436,842.7656,440,838.7656" style="stroke:#A80036;stroke-width:1.0;"/><line style="stroke:#A80036;stroke-width:1.0;" x1="86" x2="442" y1="838.7656" y2="838.7656"/><text fill="#000000" font-family="sans-serif" font-size="13" font-weight="bold" lengthAdjust="spacing" textLength="14" x="93" y="833.9092">20</text><text fill="#000000" font-family="sans-serif" font-size="13" lengthAdjust="spacing" textLength="191" x="111" y="833.9092">Confirms the Parameter category</text><polygon fill="#A80036" points="742,865.1172,752,869.1172,742,873.1172,746,869.1172" style="stroke:#A80036;stroke-width:1.0;"/><line style="stroke:#A80036;stroke-width:1.0;" x1="458" x2="748" y1="869.1172" y2="869.1172"/><text fill="#000000" font-family="sans-serif" font-size="13" font-weight="bold" lengthAdjust="spacing" textLength="14" x="465" y="864.2607">21</text><text fill="#000000" font-family="sans-serif" font-size="13" lengthAdjust="spacing" textLength="226" x="483" y="864.2607">saveParameterCategory(categoryCode)</text><polygon fill="#A80036" points="1332,924.9961,1342,928.9961,1332,932.9961,1336,928.9961" style="stroke:#A80036;stroke-width:1.0;"/><line style="stroke:#A80036;stroke-width:1.0;" x1="764" x2="1338" y1="928.9961" y2="928.9961"/><text fill="#000000" font-family="sans-serif" font-size="13" font-weight="bold" lengthAdjust="spacing" textLength="14" x="771" y="924.1396">22</text><text fill="#000000" font-family="sans-serif" font-size="13" lengthAdjust="spacing" textLength="286" x="789" y="924.1396">pc=getParameterCategoryByCode(categoryCode)</text><path d="M1349,882.1172 L1349,957.1172 L1695,957.1172 L1695,892.1172 L1685,882.1172 L1349,882.1172 " fill="#FBFB77" filter="url(#f1kz613fu6f3ff)" style="stroke:#A80036;stroke-width:1.0;"/><path d="M1685,882.1172 L1685,892.1172 L1695,892.1172 L1685,882.1172 " fill="#FBFB77" style="stroke:#A80036;stroke-width:1.0;"/><text fill="#000000" font-family="sans-serif" font-size="13" lengthAdjust="spacing" textLength="249" x="1355" y="900.6123">The use of the variable name categoryCode</text><text fill="#000000" font-family="sans-serif" font-size="13" lengthAdjust="spacing" textLength="313" x="1359" y="916.9639">is so that it wont be confused with the parameter code</text><text fill="#000000" font-family="sans-serif" font-size="13" lengthAdjust="spacing" textLength="293" x="1359" y="933.3154">but in the code implementation and other diagrams</text><text fill="#000000" font-family="sans-serif" font-size="13" lengthAdjust="spacing" textLength="175" x="1359" y="949.667">this variable is named as code</text><polygon fill="#A80036" points="1471,984.875,1481,988.875,1471,992.875,1475,988.875" style="stroke:#A80036;stroke-width:1.0;"/><line style="stroke:#A80036;stroke-width:1.0;" x1="764" x2="1477" y1="988.875" y2="988.875"/><text fill="#000000" font-family="sans-serif" font-size="13" font-weight="bold" lengthAdjust="spacing" textLength="14" x="771" y="984.0186">23</text><text fill="#000000" font-family="sans-serif" font-size="13" lengthAdjust="spacing" textLength="160" x="789" y="984.0186">saveParameterCategory(pc)</text><line style="stroke:#A80036;stroke-width:1.0;" x1="1498" x2="1540" y1="1019.2266" y2="1019.2266"/><line style="stroke:#A80036;stroke-width:1.0;" x1="1540" x2="1540" y1="1019.2266" y2="1032.2266"/><line style="stroke:#A80036;stroke-width:1.0;" x1="1499" x2="1540" y1="1032.2266" y2="1032.2266"/><polygon fill="#A80036" points="1509,1028.2266,1499,1032.2266,1509,1036.2266,1505,1032.2266" style="stroke:#A80036;stroke-width:1.0;"/><text fill="#000000" font-family="sans-serif" font-size="13" font-weight="bold" lengthAdjust="spacing" textLength="14" x="1505" y="1014.3701">24</text><text fill="#000000" font-family="sans-serif" font-size="13" lengthAdjust="spacing" textLength="229" x="1523" y="1014.3701">addParameterCategoryToParameter(pc)</text><polygon fill="#A80036" points="97,1088.5781,87,1092.5781,97,1096.5781,93,1092.5781" style="stroke:#A80036;stroke-width:1.0;"/><line style="stroke:#A80036;stroke-width:1.0;stroke-dasharray:2.0,2.0;" x1="91" x2="452" y1="1092.5781" y2="1092.5781"/><text fill="#000000" font-family="sans-serif" font-size="13" font-weight="bold" lengthAdjust="spacing" textLength="14" x="103" y="1087.7217">25</text><text fill="#000000" font-family="sans-serif" font-size="13" lengthAdjust="spacing" textLength="258" x="121" y="1087.7217">shows all the data and requests confirmation</text><polygon fill="#A80036" points="436,1118.9297,446,1122.9297,436,1126.9297,440,1122.9297" style="stroke:#A80036;stroke-width:1.0;"/><line style="stroke:#A80036;stroke-width:1.0;" x1="86" x2="442" y1="1122.9297" y2="1122.9297"/><text fill="#000000" font-family="sans-serif" font-size="13" font-weight="bold" lengthAdjust="spacing" textLength="14" x="93" y="1118.0732">26</text><text fill="#000000" font-family="sans-serif" font-size="13" lengthAdjust="spacing" textLength="102" x="111" y="1118.0732">Confirms the data</text><polygon fill="#A80036" points="742,1149.2813,752,1153.2813,742,1157.2813,746,1153.2813" style="stroke:#A80036;stroke-width:1.0;"/><line style="stroke:#A80036;stroke-width:1.0;" x1="458" x2="748" y1="1153.2813" y2="1153.2813"/><text fill="#000000" font-family="sans-serif" font-size="13" font-weight="bold" lengthAdjust="spacing" textLength="14" x="465" y="1148.4248">27</text><text fill="#000000" font-family="sans-serif" font-size="13" lengthAdjust="spacing" textLength="94" x="483" y="1148.4248">saveParameter()</text><polygon fill="#A80036" points="1116,1179.6328,1126,1183.6328,1116,1187.6328,1120,1183.6328" style="stroke:#A80036;stroke-width:1.0;"/><line style="stroke:#A80036;stroke-width:1.0;" x1="764" x2="1122" y1="1183.6328" y2="1183.6328"/><text fill="#000000" font-family="sans-serif" font-size="13" font-weight="bold" lengthAdjust="spacing" textLength="14" x="771" y="1178.7764">28</text><text fill="#000000" font-family="sans-serif" font-size="13" lengthAdjust="spacing" textLength="152" x="789" y="1178.7764">saveParameter(parameter)</text><line style="stroke:#A80036;stroke-width:1.0;" x1="1143" x2="1185" y1="1213.9844" y2="1213.9844"/><line style="stroke:#A80036;stroke-width:1.0;" x1="1185" x2="1185" y1="1213.9844" y2="1226.9844"/><line style="stroke:#A80036;stroke-width:1.0;" x1="1144" x2="1185" y1="1226.9844" y2="1226.9844"/><polygon fill="#A80036" points="1154,1222.9844,1144,1226.9844,1154,1230.9844,1150,1226.9844" style="stroke:#A80036;stroke-width:1.0;"/><text fill="#000000" font-family="sans-serif" font-size="13" font-weight="bold" lengthAdjust="spacing" textLength="14" x="1150" y="1209.1279">29</text><text fill="#000000" font-family="sans-serif" font-size="13" lengthAdjust="spacing" textLength="169" x="1168" y="1209.1279">validateParameter(parameter)</text><line style="stroke:#A80036;stroke-width:1.0;" x1="1143" x2="1185" y1="1287.3359" y2="1287.3359"/><line style="stroke:#A80036;stroke-width:1.0;" x1="1185" x2="1185" y1="1287.3359" y2="1300.3359"/><line style="stroke:#A80036;stroke-width:1.0;" x1="1144" x2="1185" y1="1300.3359" y2="1300.3359"/><polygon fill="#A80036" points="1154,1296.3359,1144,1300.3359,1154,1304.3359,1150,1300.3359" style="stroke:#A80036;stroke-width:1.0;"/><text fill="#000000" font-family="sans-serif" font-size="13" font-weight="bold" lengthAdjust="spacing" textLength="14" x="1150" y="1282.4795">30</text><text fill="#000000" font-family="sans-serif" font-size="13" lengthAdjust="spacing" textLength="147" x="1168" y="1282.4795">addParameter(parameter)</text><polygon fill="#A80036" points="97,1356.6875,87,1360.6875,97,1364.6875,93,1360.6875" style="stroke:#A80036;stroke-width:1.0;"/><line style="stroke:#A80036;stroke-width:1.0;stroke-dasharray:2.0,2.0;" x1="91" x2="452" y1="1360.6875" y2="1360.6875"/><text fill="#000000" font-family="sans-serif" font-size="13" font-weight="bold" lengthAdjust="spacing" textLength="14" x="103" y="1355.8311">31</text><text fill="#000000" font-family="sans-serif" font-size="13" lengthAdjust="spacing" textLength="199" x="121" y="1355.8311">Informs of the operation´s success</text><!--MD5=[a74cbb5e4801dabd31481caedeaaa195]
@startuml

autonumber
actor "Organization Employee" as ADM

participant ":CreateParameterUI" as UI
participant ":CreateParameterController" as CTRL
participant ":Company" as COM
participant "Store\n:ParameterStore" as store
participant "storePc\n:ParameterCategoryStore" as storePc
participant "parameter\n:Parameter" as parameter
participant "pc\n:ParameterCategory" as pc
participant "listParameterCategory:List<ParameterCategory>" as listPc
participant ":ParameterCategoryMapper" as pcMapper
participant "listParameterCategoryDto:List<ParameterCategoryDto" as listDto

activate ADM
ADM -> UI : asks to create a new parameter
activate UI
UI - -> ADM : requests data (shortName,code,description)
deactivate UI

ADM -> UI : types requested data
activate UI
UI -> CTRL : createParameter(shortName,code,description)
activate CTRL
CTRL -> COM : store=getParameterStore()
activate COM
deactivate COM
CTRL -> store: parameter=createParameter(shortName,code,description)

activate store

store- -> parameter**: create(shortName,code,description)
deactivate store
CTRL -> store :validateParameter(parameter)
activate store
deactivate store

CTRL -> COM : storePc=getParameterCategoryStore()
activate COM
deactivate COM


UI -> CTRL: getListOfParameterCategories()
CTRL -> storePc: getListOfParameterCategories()
activate storePc
storePc - -> CTRL: listParameterCategory
deactivate storePc
CTRL -> pcMapper: toDto(listParameterCategory)
activate pcMapper
pcMapper - -> listDto**: create()
pcMapper - -> CTRL: listParameterCategoryDto
deactivate pcMapper
UI <- - CTRL: listParameterCategoryDto
deactivate CTRL
UI - -> ADM : shows parameter categories list and asks to select one

deactivate UI

ADM -> UI : selects a parameter category
activate UI
UI - -> ADM: shows the category and requests confirmation
deactivate UI
ADM -> UI: Confirms the Parameter category
activate UI
UI -> CTRL : saveParameterCategory(categoryCode)
activate CTRL
CTRL -> storePc : pc=getParameterCategoryByCode(categoryCode)
note right: The use of the variable name categoryCode \n is so that it wont be confused with the parameter code  \n but in the code implementation and other diagrams \n this variable is named as code
CTRL ->parameter :saveParameterCategory(pc)
activate parameter
parameter -> parameter: addParameterCategoryToParameter(pc)
activate parameter
deactivate parameter
deactivate parameter
deactivate CTRL
UI - -> ADM:shows all the data and requests confirmation
deactivate UI

ADM -> UI : Confirms the data
activate UI
UI -> CTRL:saveParameter()
activate CTRL

CTRL -> store: saveParameter(parameter)
activate store
store-> store: validateParameter(parameter)
activate store
deactivate store
store-> store: addParameter(parameter)
activate store
deactivate store
deactivate parameter
UI - -> ADM: Informs of the operation´s success
deactivate store

deactivate CTRL
deactivate UI

@enduml

PlantUML version 1.2021.2(Sun Mar 07 11:10:27 GMT 2021)
(GPL source distribution)
Java Runtime: OpenJDK Runtime Environment
JVM: OpenJDK 64-Bit Server VM
Default Encoding: Cp1252
Language: pt
Country: PT
--></g></svg>