<?xml version="1.0" encoding="UTF-8" standalone="no"?><svg xmlns="http://www.w3.org/2000/svg" xmlns:xlink="http://www.w3.org/1999/xlink" contentScriptType="application/ecmascript" contentStyleType="text/css" height="1235px" preserveAspectRatio="none" style="width:1041px;height:1235px;" version="1.1" viewBox="0 0 1041 1235" width="1041.25px" zoomAndPan="magnify"><defs><filter height="300%" id="fudjs7b76sxa4" width="300%" x="-1" y="-1"><feGaussianBlur result="blurOut" stdDeviation="2.5"/><feColorMatrix in="blurOut" result="blurOut2" type="matrix" values="0 0 0 0 0 0 0 0 0 0 0 0 0 0 0 0 0 0 .4 0"/><feOffset dx="5.0" dy="5.0" in="blurOut2" result="blurOut3"/><feBlend in="SourceGraphic" in2="blurOut3" mode="normal"/></filter></defs><g><!--MD5=[02e4b9b7573f1156f41e60aa5b4e25a4]
class Company--><rect codeLine="2" fill="#FEFECE" filter="url(#fudjs7b76sxa4)" height="111.8848" id="Company" style="stroke:#A80036;stroke-width:1.875;" width="210" x="258.75" y="443.75"/><ellipse cx="325.3125" cy="463.75" fill="#ADD1B2" rx="13.75" ry="13.75" style="stroke:#A80036;stroke-width:1.25;"/><path d="M327.8125,459.375 Q328.0664,458.75 328.3594,458.4375 Q328.6523,458.125 328.9844,458.125 Q329.5703,458.125 329.9414,458.4766 Q330.3125,458.8281 330.3125,459.6484 L330.3125,461.6016 Q330.3125,462.4219 329.9609,462.7734 Q329.6094,463.125 329.0625,463.125 Q328.5742,463.125 328.2617,462.9102 Q327.9492,462.6953 327.8125,462.1289 Q327.7539,461.7383 327.5391,461.5234 Q327.1484,461.1133 326.4453,460.8789 Q325.7422,460.625 325.0391,460.625 Q324.1602,460.625 323.418,460.9766 Q322.6953,461.3281 322.1289,462.1094 Q321.5625,462.8906 321.5625,463.9648 L321.5625,465.1172 Q321.5625,466.4063 322.6172,467.2656 Q323.6719,468.125 325.5469,468.125 Q326.6602,468.125 327.4414,467.8711 Q327.8906,467.7344 328.3984,467.2852 Q328.7305,467.0313 328.9063,466.9531 Q329.082,466.875 329.2969,466.875 Q329.707,466.875 330,467.207 Q330.3125,467.5195 330.3125,467.9688 Q330.3125,468.3984 329.8828,468.9063 Q329.2578,469.6484 328.2617,470.0586 Q326.9531,470.625 325.3516,470.625 Q323.4766,470.625 321.9727,469.8828 Q320.7617,469.2969 319.9023,468.0273 Q319.0625,466.7578 319.0625,465.2539 L319.0625,463.8867 Q319.0625,462.3242 319.8047,460.957 Q320.5664,459.5898 321.875,458.8672 Q323.2031,458.125 324.6875,458.125 Q325.5859,458.125 326.3672,458.4375 Q327.1484,458.75 327.8125,459.375 Z " fill="#000000"/><text fill="#000000" font-family="sans-serif" font-size="15" lengthAdjust="spacing" textLength="66.25" x="350.9375" y="469.8877">Company</text><line style="stroke:#A80036;stroke-width:1.875;" x1="260" x2="467.5" y1="483.75" y2="483.75"/><rect fill="none" height="7.5" style="stroke:#C82930;stroke-width:1.25;" width="7.5" x="268.75" y="493.75"/><text fill="#000000" font-family="sans-serif" font-size="13.75" lengthAdjust="spacing" textLength="68.75" x="283.75" y="503.0237">designation</text><line style="stroke:#A80036;stroke-width:1.875;" x1="260" x2="467.5" y1="511.0449" y2="511.0449"/><ellipse cx="272.5" cy="524.7949" fill="#84BE84" rx="3.75" ry="3.75" style="stroke:#038048;stroke-width:1.25;"/><text fill="#000000" font-family="sans-serif" font-size="13.75" lengthAdjust="spacing" textLength="122.5" x="283.75" y="530.3186">getParameterStore()</text><ellipse cx="272.5" cy="542.0898" fill="#84BE84" rx="3.75" ry="3.75" style="stroke:#038048;stroke-width:1.25;"/><text fill="#000000" font-family="sans-serif" font-size="13.75" lengthAdjust="spacing" textLength="177.5" x="283.75" y="547.6135">getParameterCategoryStore()</text><!--MD5=[b9009a04d919d78a73c2eeec1e385786]
class CreateParameterController--><rect codeLine="8" fill="#FEFECE" filter="url(#fudjs7b76sxa4)" height="146.4746" id="CreateParameterController" style="stroke:#A80036;stroke-width:1.875;" width="311.25" x="445.625" y="145"/><ellipse cx="502.8125" cy="165" fill="#ADD1B2" rx="13.75" ry="13.75" style="stroke:#A80036;stroke-width:1.25;"/><path d="M505.3125,160.625 Q505.5664,160 505.8594,159.6875 Q506.1523,159.375 506.4844,159.375 Q507.0703,159.375 507.4414,159.7266 Q507.8125,160.0781 507.8125,160.8984 L507.8125,162.8516 Q507.8125,163.6719 507.4609,164.0234 Q507.1094,164.375 506.5625,164.375 Q506.0742,164.375 505.7617,164.1602 Q505.4492,163.9453 505.3125,163.3789 Q505.2539,162.9883 505.0391,162.7734 Q504.6484,162.3633 503.9453,162.1289 Q503.2422,161.875 502.5391,161.875 Q501.6602,161.875 500.918,162.2266 Q500.1953,162.5781 499.6289,163.3594 Q499.0625,164.1406 499.0625,165.2148 L499.0625,166.3672 Q499.0625,167.6563 500.1172,168.5156 Q501.1719,169.375 503.0469,169.375 Q504.1602,169.375 504.9414,169.1211 Q505.3906,168.9844 505.8984,168.5352 Q506.2305,168.2813 506.4063,168.2031 Q506.582,168.125 506.7969,168.125 Q507.207,168.125 507.5,168.457 Q507.8125,168.7695 507.8125,169.2188 Q507.8125,169.6484 507.3828,170.1563 Q506.7578,170.8984 505.7617,171.3086 Q504.4531,171.875 502.8516,171.875 Q500.9766,171.875 499.4727,171.1328 Q498.2617,170.5469 497.4023,169.2773 Q496.5625,168.0078 496.5625,166.5039 L496.5625,165.1367 Q496.5625,163.5742 497.3047,162.207 Q498.0664,160.8398 499.375,160.1172 Q500.7031,159.375 502.1875,159.375 Q503.0859,159.375 503.8672,159.6875 Q504.6484,160 505.3125,160.625 Z " fill="#000000"/><text fill="#000000" font-family="sans-serif" font-size="15" lengthAdjust="spacing" textLength="186.25" x="528.4375" y="171.1377">CreateParameterController</text><line style="stroke:#A80036;stroke-width:1.875;" x1="446.875" x2="755.625" y1="185" y2="185"/><line style="stroke:#A80036;stroke-width:1.875;" x1="446.875" x2="755.625" y1="195" y2="195"/><ellipse cx="459.375" cy="208.75" fill="#84BE84" rx="3.75" ry="3.75" style="stroke:#038048;stroke-width:1.25;"/><text fill="#000000" font-family="sans-serif" font-size="13.75" lengthAdjust="spacing" textLength="278.75" x="470.625" y="214.2737">createParameter(shortName,code,description)</text><ellipse cx="459.375" cy="226.0449" fill="#84BE84" rx="3.75" ry="3.75" style="stroke:#038048;stroke-width:1.25;"/><text fill="#000000" font-family="sans-serif" font-size="13.75" lengthAdjust="spacing" textLength="101.25" x="470.625" y="231.5686">saveParameter()</text><ellipse cx="459.375" cy="243.3398" fill="#84BE84" rx="3.75" ry="3.75" style="stroke:#038048;stroke-width:1.25;"/><text fill="#000000" font-family="sans-serif" font-size="13.75" lengthAdjust="spacing" textLength="186.25" x="470.625" y="248.8635">saveParameterCategory(code)</text><ellipse cx="459.375" cy="260.6348" fill="#84BE84" rx="3.75" ry="3.75" style="stroke:#038048;stroke-width:1.25;"/><text fill="#000000" font-family="sans-serif" font-size="13.75" lengthAdjust="spacing" textLength="197.5" x="470.625" y="266.1584">getParameterCategoryStoreDto()</text><ellipse cx="459.375" cy="277.9297" fill="#84BE84" rx="3.75" ry="3.75" style="stroke:#038048;stroke-width:1.25;"/><text fill="#000000" font-family="sans-serif" font-size="13.75" lengthAdjust="spacing" textLength="166.25" x="470.625" y="283.4534">getListParameterCategory()</text><!--MD5=[5518e6815e09c51d4db6e17774f331d2]
class CreateParameterUI--><rect codeLine="16" fill="#FEFECE" filter="url(#fudjs7b76sxa4)" height="60" id="CreateParameterUI" style="stroke:#A80036;stroke-width:1.875;" width="173.75" x="736.875" y="8.75"/><ellipse cx="755.625" cy="28.75" fill="#ADD1B2" rx="13.75" ry="13.75" style="stroke:#A80036;stroke-width:1.25;"/><path d="M758.125,24.375 Q758.3789,23.75 758.6719,23.4375 Q758.9648,23.125 759.2969,23.125 Q759.8828,23.125 760.2539,23.4766 Q760.625,23.8281 760.625,24.6484 L760.625,26.6016 Q760.625,27.4219 760.2734,27.7734 Q759.9219,28.125 759.375,28.125 Q758.8867,28.125 758.5742,27.9102 Q758.2617,27.6953 758.125,27.1289 Q758.0664,26.7383 757.8516,26.5234 Q757.4609,26.1133 756.7578,25.8789 Q756.0547,25.625 755.3516,25.625 Q754.4727,25.625 753.7305,25.9766 Q753.0078,26.3281 752.4414,27.1094 Q751.875,27.8906 751.875,28.9648 L751.875,30.1172 Q751.875,31.4063 752.9297,32.2656 Q753.9844,33.125 755.8594,33.125 Q756.9727,33.125 757.7539,32.8711 Q758.2031,32.7344 758.7109,32.2852 Q759.043,32.0313 759.2188,31.9531 Q759.3945,31.875 759.6094,31.875 Q760.0195,31.875 760.3125,32.207 Q760.625,32.5195 760.625,32.9688 Q760.625,33.3984 760.1953,33.9063 Q759.5703,34.6484 758.5742,35.0586 Q757.2656,35.625 755.6641,35.625 Q753.7891,35.625 752.2852,34.8828 Q751.0742,34.2969 750.2148,33.0273 Q749.375,31.7578 749.375,30.2539 L749.375,28.8867 Q749.375,27.3242 750.1172,25.957 Q750.8789,24.5898 752.1875,23.8672 Q753.5156,23.125 755,23.125 Q755.8984,23.125 756.6797,23.4375 Q757.4609,23.75 758.125,24.375 Z " fill="#000000"/><text fill="#000000" font-family="sans-serif" font-size="15" lengthAdjust="spacing" textLength="133.75" x="773.125" y="34.8877">CreateParameterUI</text><line style="stroke:#A80036;stroke-width:1.875;" x1="738.125" x2="909.375" y1="48.75" y2="48.75"/><line style="stroke:#A80036;stroke-width:1.875;" x1="738.125" x2="909.375" y1="58.75" y2="58.75"/><!--MD5=[ae4ce8b9e36cc829775f8966335bc94b]
class ParameterCategoryDto--><rect codeLine="18" fill="#FEFECE" filter="url(#fudjs7b76sxa4)" height="111.8848" id="ParameterCategoryDto" style="stroke:#A80036;stroke-width:1.875;" width="245" x="778.75" y="661.875"/><ellipse cx="818.875" cy="681.875" fill="#ADD1B2" rx="13.75" ry="13.75" style="stroke:#A80036;stroke-width:1.25;"/><path d="M821.375,677.5 Q821.6289,676.875 821.9219,676.5625 Q822.2148,676.25 822.5469,676.25 Q823.1328,676.25 823.5039,676.6016 Q823.875,676.9531 823.875,677.7734 L823.875,679.7266 Q823.875,680.5469 823.5234,680.8984 Q823.1719,681.25 822.625,681.25 Q822.1367,681.25 821.8242,681.0352 Q821.5117,680.8203 821.375,680.2539 Q821.3164,679.8633 821.1016,679.6484 Q820.7109,679.2383 820.0078,679.0039 Q819.3047,678.75 818.6016,678.75 Q817.7227,678.75 816.9805,679.1016 Q816.2578,679.4531 815.6914,680.2344 Q815.125,681.0156 815.125,682.0898 L815.125,683.2422 Q815.125,684.5313 816.1797,685.3906 Q817.2344,686.25 819.1094,686.25 Q820.2227,686.25 821.0039,685.9961 Q821.4531,685.8594 821.9609,685.4102 Q822.293,685.1563 822.4688,685.0781 Q822.6445,685 822.8594,685 Q823.2695,685 823.5625,685.332 Q823.875,685.6445 823.875,686.0938 Q823.875,686.5234 823.4453,687.0313 Q822.8203,687.7734 821.8242,688.1836 Q820.5156,688.75 818.9141,688.75 Q817.0391,688.75 815.5352,688.0078 Q814.3242,687.4219 813.4648,686.1523 Q812.625,684.8828 812.625,683.3789 L812.625,682.0117 Q812.625,680.4492 813.3672,679.082 Q814.1289,677.7148 815.4375,676.9922 Q816.7656,676.25 818.25,676.25 Q819.1484,676.25 819.9297,676.5625 Q820.7109,676.875 821.375,677.5 Z " fill="#000000"/><text fill="#000000" font-family="sans-serif" font-size="15" lengthAdjust="spacing" textLength="157.5" x="841.125" y="688.0127">ParameterCategoryDto</text><line style="stroke:#A80036;stroke-width:1.875;" x1="780" x2="1022.5" y1="701.875" y2="701.875"/><rect fill="none" height="7.5" style="stroke:#C82930;stroke-width:1.25;" width="7.5" x="788.75" y="711.875"/><text fill="#000000" font-family="sans-serif" font-size="13.75" lengthAdjust="spacing" textLength="30" x="803.75" y="721.1487">code</text><rect fill="none" height="7.5" style="stroke:#C82930;stroke-width:1.25;" width="7.5" x="788.75" y="729.1699"/><text fill="#000000" font-family="sans-serif" font-size="13.75" lengthAdjust="spacing" textLength="32.5" x="803.75" y="738.4436">name</text><line style="stroke:#A80036;stroke-width:1.875;" x1="780" x2="1022.5" y1="746.4648" y2="746.4648"/><ellipse cx="792.5" cy="760.2148" fill="#84BE84" rx="3.75" ry="3.75" style="stroke:#038048;stroke-width:1.25;"/><text fill="#000000" font-family="sans-serif" font-size="13.75" lengthAdjust="spacing" textLength="212.5" x="803.75" y="765.7385">ParameterCategoryDto(code,name)</text><!--MD5=[fab6cba0d8a30102bb3e071a5ce00b91]
class ParameterCategoryMapper--><rect codeLine="23" fill="#FEFECE" filter="url(#fudjs7b76sxa4)" height="94.5898" id="ParameterCategoryMapper" style="stroke:#A80036;stroke-width:1.875;" width="225" x="610" y="452.5"/><ellipse cx="628.75" cy="472.5" fill="#ADD1B2" rx="13.75" ry="13.75" style="stroke:#A80036;stroke-width:1.25;"/><path d="M631.25,468.125 Q631.5039,467.5 631.7969,467.1875 Q632.0898,466.875 632.4219,466.875 Q633.0078,466.875 633.3789,467.2266 Q633.75,467.5781 633.75,468.3984 L633.75,470.3516 Q633.75,471.1719 633.3984,471.5234 Q633.0469,471.875 632.5,471.875 Q632.0117,471.875 631.6992,471.6602 Q631.3867,471.4453 631.25,470.8789 Q631.1914,470.4883 630.9766,470.2734 Q630.5859,469.8633 629.8828,469.6289 Q629.1797,469.375 628.4766,469.375 Q627.5977,469.375 626.8555,469.7266 Q626.1328,470.0781 625.5664,470.8594 Q625,471.6406 625,472.7148 L625,473.8672 Q625,475.1563 626.0547,476.0156 Q627.1094,476.875 628.9844,476.875 Q630.0977,476.875 630.8789,476.6211 Q631.3281,476.4844 631.8359,476.0352 Q632.168,475.7813 632.3438,475.7031 Q632.5195,475.625 632.7344,475.625 Q633.1445,475.625 633.4375,475.957 Q633.75,476.2695 633.75,476.7188 Q633.75,477.1484 633.3203,477.6563 Q632.6953,478.3984 631.6992,478.8086 Q630.3906,479.375 628.7891,479.375 Q626.9141,479.375 625.4102,478.6328 Q624.1992,478.0469 623.3398,476.7773 Q622.5,475.5078 622.5,474.0039 L622.5,472.6367 Q622.5,471.0742 623.2422,469.707 Q624.0039,468.3398 625.3125,467.6172 Q626.6406,466.875 628.125,466.875 Q629.0234,466.875 629.8047,467.1875 Q630.5859,467.5 631.25,468.125 Z " fill="#000000"/><text fill="#000000" font-family="sans-serif" font-size="15" lengthAdjust="spacing" textLength="185" x="646.25" y="478.6377">ParameterCategoryMapper</text><line style="stroke:#A80036;stroke-width:1.875;" x1="611.25" x2="833.75" y1="492.5" y2="492.5"/><line style="stroke:#A80036;stroke-width:1.875;" x1="611.25" x2="833.75" y1="502.5" y2="502.5"/><ellipse cx="623.75" cy="516.25" fill="#84BE84" rx="3.75" ry="3.75" style="stroke:#038048;stroke-width:1.25;"/><text fill="#000000" font-family="sans-serif" font-size="13.75" lengthAdjust="spacing" textLength="56.25" x="635" y="521.7737">toDto(pc)</text><ellipse cx="623.75" cy="533.5449" fill="#84BE84" rx="3.75" ry="3.75" style="stroke:#038048;stroke-width:1.25;"/><text fill="#000000" font-family="sans-serif" font-size="13.75" lengthAdjust="spacing" textLength="88.75" x="635" y="539.0686">toDto(pcStore)</text><!--MD5=[1f6362a5c8f21d8d6a0fce68f3a92a4e]
class Parameter--><rect codeLine="28" fill="#FEFECE" filter="url(#fudjs7b76sxa4)" height="146.4746" id="Parameter" style="stroke:#A80036;stroke-width:1.875;" width="272.5" x="300" y="880"/><ellipse cx="394.6875" cy="900" fill="#ADD1B2" rx="13.75" ry="13.75" style="stroke:#A80036;stroke-width:1.25;"/><path d="M397.1875,895.625 Q397.4414,895 397.7344,894.6875 Q398.0273,894.375 398.3594,894.375 Q398.9453,894.375 399.3164,894.7266 Q399.6875,895.0781 399.6875,895.8984 L399.6875,897.8516 Q399.6875,898.6719 399.3359,899.0234 Q398.9844,899.375 398.4375,899.375 Q397.9492,899.375 397.6367,899.1602 Q397.3242,898.9453 397.1875,898.3789 Q397.1289,897.9883 396.9141,897.7734 Q396.5234,897.3633 395.8203,897.1289 Q395.1172,896.875 394.4141,896.875 Q393.5352,896.875 392.793,897.2266 Q392.0703,897.5781 391.5039,898.3594 Q390.9375,899.1406 390.9375,900.2148 L390.9375,901.3672 Q390.9375,902.6563 391.9922,903.5156 Q393.0469,904.375 394.9219,904.375 Q396.0352,904.375 396.8164,904.1211 Q397.2656,903.9844 397.7734,903.5352 Q398.1055,903.2813 398.2813,903.2031 Q398.457,903.125 398.6719,903.125 Q399.082,903.125 399.375,903.457 Q399.6875,903.7695 399.6875,904.2188 Q399.6875,904.6484 399.2578,905.1563 Q398.6328,905.8984 397.6367,906.3086 Q396.3281,906.875 394.7266,906.875 Q392.8516,906.875 391.3477,906.1328 Q390.1367,905.5469 389.2773,904.2773 Q388.4375,903.0078 388.4375,901.5039 L388.4375,900.1367 Q388.4375,898.5742 389.1797,897.207 Q389.9414,895.8398 391.25,895.1172 Q392.5781,894.375 394.0625,894.375 Q394.9609,894.375 395.7422,894.6875 Q396.5234,895 397.1875,895.625 Z " fill="#000000"/><text fill="#000000" font-family="sans-serif" font-size="15" lengthAdjust="spacing" textLength="72.5" x="420.3125" y="906.1377">Parameter</text><line style="stroke:#A80036;stroke-width:1.875;" x1="301.25" x2="571.25" y1="920" y2="920"/><rect fill="none" height="7.5" style="stroke:#C82930;stroke-width:1.25;" width="7.5" x="310" y="930"/><text fill="#000000" font-family="sans-serif" font-size="13.75" lengthAdjust="spacing" textLength="65" x="325" y="939.2737">shortName</text><rect fill="none" height="7.5" style="stroke:#C82930;stroke-width:1.25;" width="7.5" x="310" y="947.2949"/><text fill="#000000" font-family="sans-serif" font-size="13.75" lengthAdjust="spacing" textLength="30" x="325" y="956.5686">code</text><rect fill="none" height="7.5" style="stroke:#C82930;stroke-width:1.25;" width="7.5" x="310" y="964.5898"/><text fill="#000000" font-family="sans-serif" font-size="13.75" lengthAdjust="spacing" textLength="66.25" x="325" y="973.8635">description</text><line style="stroke:#A80036;stroke-width:1.875;" x1="301.25" x2="571.25" y1="981.8848" y2="981.8848"/><ellipse cx="313.75" cy="995.6348" fill="#84BE84" rx="3.75" ry="3.75" style="stroke:#038048;stroke-width:1.25;"/><text fill="#000000" font-family="sans-serif" font-size="13.75" lengthAdjust="spacing" textLength="240" x="325" y="1001.1584">Parameter(shortName,code,description)</text><ellipse cx="313.75" cy="1012.9297" fill="#84BE84" rx="3.75" ry="3.75" style="stroke:#038048;stroke-width:1.25;"/><text fill="#000000" font-family="sans-serif" font-size="13.75" lengthAdjust="spacing" textLength="240" x="325" y="1018.4534">addParameterCategoryToParameter(pc)</text><!--MD5=[be7802b157a16874d39c59ca0e2b25be]
class ParameterStore--><rect codeLine="36" fill="#FEFECE" filter="url(#fudjs7b76sxa4)" height="129.1797" id="ParameterStore" style="stroke:#A80036;stroke-width:1.875;" width="278.75" x="198.125" y="653.75"/><ellipse cx="277.8125" cy="673.75" fill="#ADD1B2" rx="13.75" ry="13.75" style="stroke:#A80036;stroke-width:1.25;"/><path d="M280.3125,669.375 Q280.5664,668.75 280.8594,668.4375 Q281.1523,668.125 281.4844,668.125 Q282.0703,668.125 282.4414,668.4766 Q282.8125,668.8281 282.8125,669.6484 L282.8125,671.6016 Q282.8125,672.4219 282.4609,672.7734 Q282.1094,673.125 281.5625,673.125 Q281.0742,673.125 280.7617,672.9102 Q280.4492,672.6953 280.3125,672.1289 Q280.2539,671.7383 280.0391,671.5234 Q279.6484,671.1133 278.9453,670.8789 Q278.2422,670.625 277.5391,670.625 Q276.6602,670.625 275.918,670.9766 Q275.1953,671.3281 274.6289,672.1094 Q274.0625,672.8906 274.0625,673.9648 L274.0625,675.1172 Q274.0625,676.4063 275.1172,677.2656 Q276.1719,678.125 278.0469,678.125 Q279.1602,678.125 279.9414,677.8711 Q280.3906,677.7344 280.8984,677.2852 Q281.2305,677.0313 281.4063,676.9531 Q281.582,676.875 281.7969,676.875 Q282.207,676.875 282.5,677.207 Q282.8125,677.5195 282.8125,677.9688 Q282.8125,678.3984 282.3828,678.9063 Q281.7578,679.6484 280.7617,680.0586 Q279.4531,680.625 277.8516,680.625 Q275.9766,680.625 274.4727,679.8828 Q273.2617,679.2969 272.4023,678.0273 Q271.5625,676.7578 271.5625,675.2539 L271.5625,673.8867 Q271.5625,672.3242 272.3047,670.957 Q273.0664,669.5898 274.375,668.8672 Q275.7031,668.125 277.1875,668.125 Q278.0859,668.125 278.8672,668.4375 Q279.6484,668.75 280.3125,669.375 Z " fill="#000000"/><text fill="#000000" font-family="sans-serif" font-size="15" lengthAdjust="spacing" textLength="108.75" x="303.4375" y="679.8877">ParameterStore</text><line style="stroke:#A80036;stroke-width:1.875;" x1="199.375" x2="475.625" y1="693.75" y2="693.75"/><line style="stroke:#A80036;stroke-width:1.875;" x1="199.375" x2="475.625" y1="703.75" y2="703.75"/><ellipse cx="211.875" cy="717.5" fill="#84BE84" rx="3.75" ry="3.75" style="stroke:#038048;stroke-width:1.25;"/><text fill="#000000" font-family="sans-serif" font-size="13.75" lengthAdjust="spacing" textLength="246.25" x="223.125" y="723.0237">createParameter(name,code,description)</text><ellipse cx="211.875" cy="734.7949" fill="#84BE84" rx="3.75" ry="3.75" style="stroke:#038048;stroke-width:1.25;"/><text fill="#000000" font-family="sans-serif" font-size="13.75" lengthAdjust="spacing" textLength="178.75" x="223.125" y="740.3186">validateParameter(parameter)</text><ellipse cx="211.875" cy="752.0898" fill="#84BE84" rx="3.75" ry="3.75" style="stroke:#038048;stroke-width:1.25;"/><text fill="#000000" font-family="sans-serif" font-size="13.75" lengthAdjust="spacing" textLength="162.5" x="223.125" y="757.6135">saveParameter(parameter)</text><rect fill="#F24D5C" height="7.5" style="stroke:#C82930;stroke-width:1.25;" width="7.5" x="208.125" y="765.6348"/><text fill="#000000" font-family="sans-serif" font-size="13.75" lengthAdjust="spacing" textLength="155" x="223.125" y="774.9084">addParameter(parameter)</text><!--MD5=[36afb6bbd95a8ac778c4537c55a683d5]
class ParameterCategory--><rect codeLine="43" fill="#FEFECE" filter="url(#fudjs7b76sxa4)" height="94.5898" id="ParameterCategory" style="stroke:#A80036;stroke-width:1.875;" width="173.75" x="349.375" y="1123.75"/><ellipse cx="368.125" cy="1143.75" fill="#ADD1B2" rx="13.75" ry="13.75" style="stroke:#A80036;stroke-width:1.25;"/><path d="M370.625,1139.375 Q370.8789,1138.75 371.1719,1138.4375 Q371.4648,1138.125 371.7969,1138.125 Q372.3828,1138.125 372.7539,1138.4766 Q373.125,1138.8281 373.125,1139.6484 L373.125,1141.6016 Q373.125,1142.4219 372.7734,1142.7734 Q372.4219,1143.125 371.875,1143.125 Q371.3867,1143.125 371.0742,1142.9102 Q370.7617,1142.6953 370.625,1142.1289 Q370.5664,1141.7383 370.3516,1141.5234 Q369.9609,1141.1133 369.2578,1140.8789 Q368.5547,1140.625 367.8516,1140.625 Q366.9727,1140.625 366.2305,1140.9766 Q365.5078,1141.3281 364.9414,1142.1094 Q364.375,1142.8906 364.375,1143.9648 L364.375,1145.1172 Q364.375,1146.4063 365.4297,1147.2656 Q366.4844,1148.125 368.3594,1148.125 Q369.4727,1148.125 370.2539,1147.8711 Q370.7031,1147.7344 371.2109,1147.2852 Q371.543,1147.0313 371.7188,1146.9531 Q371.8945,1146.875 372.1094,1146.875 Q372.5195,1146.875 372.8125,1147.207 Q373.125,1147.5195 373.125,1147.9688 Q373.125,1148.3984 372.6953,1148.9063 Q372.0703,1149.6484 371.0742,1150.0586 Q369.7656,1150.625 368.1641,1150.625 Q366.2891,1150.625 364.7852,1149.8828 Q363.5742,1149.2969 362.7148,1148.0273 Q361.875,1146.7578 361.875,1145.2539 L361.875,1143.8867 Q361.875,1142.3242 362.6172,1140.957 Q363.3789,1139.5898 364.6875,1138.8672 Q366.0156,1138.125 367.5,1138.125 Q368.3984,1138.125 369.1797,1138.4375 Q369.9609,1138.75 370.625,1139.375 Z " fill="#000000"/><text fill="#000000" font-family="sans-serif" font-size="15" lengthAdjust="spacing" textLength="133.75" x="385.625" y="1149.8877">ParameterCategory</text><line style="stroke:#A80036;stroke-width:1.875;" x1="350.625" x2="521.875" y1="1163.75" y2="1163.75"/><rect fill="none" height="7.5" style="stroke:#C82930;stroke-width:1.25;" width="7.5" x="359.375" y="1173.75"/><text fill="#000000" font-family="sans-serif" font-size="13.75" lengthAdjust="spacing" textLength="30" x="374.375" y="1183.0237">code</text><rect fill="none" height="7.5" style="stroke:#C82930;stroke-width:1.25;" width="7.5" x="359.375" y="1191.0449"/><text fill="#000000" font-family="sans-serif" font-size="13.75" lengthAdjust="spacing" textLength="32.5" x="374.375" y="1200.3186">name</text><line style="stroke:#A80036;stroke-width:1.875;" x1="350.625" x2="521.875" y1="1208.3398" y2="1208.3398"/><!--MD5=[d802db621b5b215a6f0466f93cefcb42]
class ParameterCategoryStore--><rect codeLine="48" fill="#FEFECE" filter="url(#fudjs7b76sxa4)" height="77.2949" id="ParameterCategoryStore" style="stroke:#A80036;stroke-width:1.875;" width="255" x="8.75" y="328.75"/><ellipse cx="47.75" cy="348.75" fill="#ADD1B2" rx="13.75" ry="13.75" style="stroke:#A80036;stroke-width:1.25;"/><path d="M50.25,344.375 Q50.5039,343.75 50.7969,343.4375 Q51.0898,343.125 51.4219,343.125 Q52.0078,343.125 52.3789,343.4766 Q52.75,343.8281 52.75,344.6484 L52.75,346.6016 Q52.75,347.4219 52.3984,347.7734 Q52.0469,348.125 51.5,348.125 Q51.0117,348.125 50.6992,347.9102 Q50.3867,347.6953 50.25,347.1289 Q50.1914,346.7383 49.9766,346.5234 Q49.5859,346.1133 48.8828,345.8789 Q48.1797,345.625 47.4766,345.625 Q46.5977,345.625 45.8555,345.9766 Q45.1328,346.3281 44.5664,347.1094 Q44,347.8906 44,348.9648 L44,350.1172 Q44,351.4063 45.0547,352.2656 Q46.1094,353.125 47.9844,353.125 Q49.0977,353.125 49.8789,352.8711 Q50.3281,352.7344 50.8359,352.2852 Q51.168,352.0313 51.3438,351.9531 Q51.5195,351.875 51.7344,351.875 Q52.1445,351.875 52.4375,352.207 Q52.75,352.5195 52.75,352.9688 Q52.75,353.3984 52.3203,353.9063 Q51.6953,354.6484 50.6992,355.0586 Q49.3906,355.625 47.7891,355.625 Q45.9141,355.625 44.4102,354.8828 Q43.1992,354.2969 42.3398,353.0273 Q41.5,351.7578 41.5,350.2539 L41.5,348.8867 Q41.5,347.3242 42.2422,345.957 Q43.0039,344.5898 44.3125,343.8672 Q45.6406,343.125 47.125,343.125 Q48.0234,343.125 48.8047,343.4375 Q49.5859,343.75 50.25,344.375 Z " fill="#000000"/><text fill="#000000" font-family="sans-serif" font-size="15" lengthAdjust="spacing" textLength="170" x="69.75" y="354.8877">ParameterCategoryStore</text><line style="stroke:#A80036;stroke-width:1.875;" x1="10" x2="262.5" y1="368.75" y2="368.75"/><line style="stroke:#A80036;stroke-width:1.875;" x1="10" x2="262.5" y1="378.75" y2="378.75"/><ellipse cx="22.5" cy="392.5" fill="#84BE84" rx="3.75" ry="3.75" style="stroke:#038048;stroke-width:1.25;"/><text fill="#000000" font-family="sans-serif" font-size="13.75" lengthAdjust="spacing" textLength="222.5" x="33.75" y="398.0237">getParameterCategoryByCode(code)</text><!--MD5=[19765d4468597c595e89fcbff5e25b10]
link ParameterCategoryMapper to ParameterCategory--><path codeLine="51" d="M723.15,547.7625 C722.325,654 706.8375,918.2625 581.25,1086.25 C567.5625,1104.55 548.6125,1119.5125 528.925,1131.45 " fill="none" id="ParameterCategoryMapper-to-ParameterCategory" style="stroke:#A80036;stroke-width:1.25;stroke-dasharray:7.0,7.0;"/><polygon fill="#A80036" points="523.35,1134.75,535.5786,1133.3273,528.7297,1131.5686,530.4884,1124.7198,523.35,1134.75" style="stroke:#A80036;stroke-width:1.25;"/><!--MD5=[96fc547a7d12070d937e6fa795205487]
link CreateParameterController to ParameterCategoryDto--><path codeLine="52" d="M714.9125,291.45 C766.65,330.25 823.725,382.6875 857.5,443.75 C893.8625,509.5 902.125,596.9125 903.05,654.9375 " fill="none" id="CreateParameterController-to-ParameterCategoryDto" style="stroke:#A80036;stroke-width:1.25;stroke-dasharray:7.0,7.0;"/><polygon fill="#A80036" points="903.125,661.5125,907.9961,650.2061,903.0536,655.2629,897.9968,650.3204,903.125,661.5125" style="stroke:#A80036;stroke-width:1.25;"/><!--MD5=[28500599d7d52b0914bd4c3c68a17d33]
link CreateParameterController to ParameterCategoryMapper--><path codeLine="53" d="M632.475,291.325 C653.5625,339.9 680.9125,402.9125 699.9,446.675 " fill="none" id="CreateParameterController-to-ParameterCategoryMapper" style="stroke:#A80036;stroke-width:1.25;stroke-dasharray:7.0,7.0;"/><polygon fill="#A80036" points="702.4125,452.45,702.5304,440.1395,699.929,446.7146,693.3538,444.1132,702.4125,452.45" style="stroke:#A80036;stroke-width:1.25;"/><!--MD5=[58fac5310c1666a6e65c137533900c90]
link ParameterCategoryMapper to ParameterCategoryDto--><path codeLine="54" d="M760.85,547.5125 C787.25,579.35 822.575,621.975 851.1875,656.4875 " fill="none" id="ParameterCategoryMapper-to-ParameterCategoryDto" style="stroke:#A80036;stroke-width:1.25;stroke-dasharray:7.0,7.0;"/><polygon fill="#A80036" points="855.3625,661.525,852.0275,649.6743,851.3719,656.7149,844.3313,656.0593,855.3625,661.525" style="stroke:#A80036;stroke-width:1.25;"/><!--MD5=[9d3dd688f78c4545f26622cd23f9dd25]
link CreateParameterUI to CreateParameterController--><path codeLine="55" d="M787.5125,68.8125 C762.8375,88.4125 728.975,115.3375 696.875,140.8625 " fill="none" id="CreateParameterUI-to-CreateParameterController" style="stroke:#A80036;stroke-width:1.25;stroke-dasharray:7.0,7.0;"/><polygon fill="#A80036" points="691.7375,144.9375,703.6541,141.8459,696.6284,141.0462,697.428,134.0205,691.7375,144.9375" style="stroke:#A80036;stroke-width:1.25;"/><!--MD5=[4bad94e0b97379ae169a366a4d46c584]
link CreateParameterUI to ParameterCategoryDto--><path codeLine="56" d="M831.85,69.0875 C854.1125,150.8875 915.65,390.175 932.5,593.75 C933.325,603.7125 934,606.3625 932.5,616.25 C930.5375,629.15 927.25,642.675 923.5125,655.475 " fill="none" id="CreateParameterUI-to-ParameterCategoryDto" style="stroke:#A80036;stroke-width:1.25;stroke-dasharray:7.0,7.0;"/><polygon fill="#A80036" points="921.65,661.6875,929.6514,652.3312,923.4328,655.6972,920.0668,649.4786,921.65,661.6875" style="stroke:#A80036;stroke-width:1.25;"/><!--MD5=[6d585fb02c26694275539b4f1508918e]
link CreateParameterController to Company--><path codeLine="57" d="M540.0875,291.325 C501.3875,336.8375 451.925,395.025 415.2375,438.175 " fill="none" id="CreateParameterController-to-Company" style="stroke:#A80036;stroke-width:1.25;stroke-dasharray:7.0,7.0;"/><polygon fill="#A80036" points="410.8375,443.3625,421.9338,438.0301,414.8858,438.6008,414.3151,431.5528,410.8375,443.3625" style="stroke:#A80036;stroke-width:1.25;"/><!--MD5=[c56d23af98be554523068ac4fbdb568e]
link CreateParameterController to Parameter--><path codeLine="58" d="M592.225,291.375 C577.775,399.3375 546.1625,609 498.75,782.5 C490.4625,812.85 479.0625,845.425 468.275,873.8375 " fill="none" id="CreateParameterController-to-Parameter" style="stroke:#A80036;stroke-width:1.25;stroke-dasharray:7.0,7.0;"/><polygon fill="#A80036" points="465.975,879.825,474.6624,871.1019,468.2067,873.987,465.3216,867.5313,465.975,879.825" style="stroke:#A80036;stroke-width:1.25;"/><!--MD5=[daf3d7412afa2c7651483be0b6e971d1]
link Company to ParameterStore--><path codeLine="59" d="M356.9875,556.775 C353.6375,584.275 349.5625,617.75 346.0125,646.975 " fill="none" id="Company-to-ParameterStore" style="stroke:#A80036;stroke-width:1.25;"/><polygon fill="#A80036" points="345.2125,653.525,351.5281,642.9573,345.9635,647.3203,341.6005,641.7557,345.2125,653.525" style="stroke:#A80036;stroke-width:1.25;"/><polygon fill="#000000" points="357.9951,611.424,363.0075,600.6441,355.714,599.7567,357.9951,611.424" style="stroke:#000000;stroke-width:1.25;"/><text fill="#000000" font-family="sans-serif" font-size="16.25" lengthAdjust="spacing" textLength="35" x="370" y="611.8689">uses</text><text fill="#000000" font-family="sans-serif" font-size="16.25" lengthAdjust="spacing" textLength="8.75" x="346.7409" y="582.6876">1</text><text fill="#000000" font-family="sans-serif" font-size="16.25" lengthAdjust="spacing" textLength="8.75" x="336.911" y="640.3702">1</text><!--MD5=[a0992dda039fed1bb57aff5aacace800]
link ParameterStore to Parameter--><path codeLine="60" d="M364.4875,782.9125 C376.425,811.0125 390.575,844.3375 403.15,873.9375 " fill="none" id="ParameterStore-to-Parameter" style="stroke:#A80036;stroke-width:1.25;"/><polygon fill="#A80036" points="405.6375,879.8,405.8664,867.4911,403.2058,874.0425,396.6543,871.3819,405.6375,879.8" style="stroke:#A80036;stroke-width:1.25;"/><polygon fill="#000000" points="396.1934,837.2223,395.1545,825.3796,388.392,828.252,396.1934,837.2223" style="stroke:#000000;stroke-width:1.25;"/><text fill="#000000" font-family="sans-serif" font-size="16.25" lengthAdjust="spacing" textLength="48.75" x="405" y="838.1189">adopts</text><text fill="#000000" font-family="sans-serif" font-size="16.25" lengthAdjust="spacing" textLength="8.75" x="358.7761" y="809.8316">1</text><text fill="#000000" font-family="sans-serif" font-size="16.25" lengthAdjust="spacing" textLength="6.25" x="395.2757" y="866.5268">*</text><!--MD5=[6df8849671cb880f6936e94aa30db6f9]
link Parameter to ParameterCategory--><path codeLine="61" d="M436.25,1026.775 C436.25,1056.3375 436.25,1089.9 436.25,1117.1 " fill="none" id="Parameter-to-ParameterCategory" style="stroke:#A80036;stroke-width:1.25;"/><polygon fill="#A80036" points="436.25,1123.5125,441.25,1112.2625,436.25,1117.2625,431.25,1112.2625,436.25,1123.5125" style="stroke:#A80036;stroke-width:1.25;"/><polygon fill="#000000" points="442.5,1081.4697,446.1737,1070.1634,438.8263,1070.1634,442.5,1081.4697" style="stroke:#000000;stroke-width:1.25;"/><text fill="#000000" font-family="sans-serif" font-size="16.25" lengthAdjust="spacing" textLength="116.25" x="453.75" y="1081.8689">presented under</text><text fill="#000000" font-family="sans-serif" font-size="16.25" lengthAdjust="spacing" textLength="8.75" x="426.9941" y="1053.3283">1</text><text fill="#000000" font-family="sans-serif" font-size="16.25" lengthAdjust="spacing" textLength="8.75" x="426.7207" y="1110.1726">1</text><!--MD5=[d6274e3b73b5bc8f467c6cfbf5bf003e]
link ParameterCategoryStore to ParameterCategory--><path codeLine="62" d="M118.3375,406.4625 C98.3375,452.1125 68.75,531.8 68.75,603.75 C68.75,603.75 68.75,603.75 68.75,954.375 C68.75,1081.3 233.8375,1134.95 342.725,1156.525 " fill="none" id="ParameterCategoryStore-to-ParameterCategory" style="stroke:#A80036;stroke-width:1.25;"/><polygon fill="#A80036" points="349.1625,1157.775,339.0759,1150.7165,343.0278,1156.5802,337.1641,1160.5321,349.1625,1157.775" style="stroke:#A80036;stroke-width:1.25;"/><polygon fill="#000000" points="76.7913,724.3325,77.0703,712.4476,70.0313,714.5534,76.7913,724.3325" style="stroke:#000000;stroke-width:1.25;"/><text fill="#000000" font-family="sans-serif" font-size="16.25" lengthAdjust="spacing" textLength="66.25" x="86.25" y="724.9939">conducts</text><text fill="#000000" font-family="sans-serif" font-size="16.25" lengthAdjust="spacing" textLength="8.75" x="105.1996" y="433.0343">1</text><text fill="#000000" font-family="sans-serif" font-size="16.25" lengthAdjust="spacing" textLength="6.25" x="333.0455" y="1152.1228">*</text><!--MD5=[d4acd0f9b6f472dc8c1d58fc6da00ca5]
link CreateParameterController to ParameterCategoryStore--><path codeLine="63" d="M445.4375,268.5875 C385.475,287.525 317.8375,308.9 261.15,326.8 " fill="none" id="CreateParameterController-to-ParameterCategoryStore" style="stroke:#A80036;stroke-width:1.25;stroke-dasharray:7.0,7.0;"/><polygon fill="#A80036" points="255,328.7375,267.2317,330.1335,260.9623,326.8631,264.2327,320.5938,255,328.7375" style="stroke:#A80036;stroke-width:1.25;"/><!--MD5=[07863db5dcc2e96c0eb7dd3de8283ec2]
@startuml
'https://plantuml.com/class-diagram
class Company {
    - designation
    + getParameterStore()
    + getParameterCategoryStore()
}

class CreateParameterController{
    + createParameter(shortName,code,description)
    + saveParameter()
    + saveParameterCategory(code)
    + getParameterCategoryStoreDto()
    + getListParameterCategory()
}

class CreateParameterUI{
}
class ParameterCategoryDto{
-code
-name
+ParameterCategoryDto(code,name)
}
class ParameterCategoryMapper{
+toDto(pc)
+toDto(pcStore)
}

class Parameter{
    - shortName
    - code
    - description
    + Parameter(shortName,code,description)
    + addParameterCategoryToParameter(pc)
}

class ParameterStore{
    + createParameter(name,code,description)
    + validateParameter(parameter)
    + saveParameter(parameter)
    - addParameter(parameter)
}

class ParameterCategory{
-code
- name
}

class ParameterCategoryStore{
    + getParameterCategoryByCode(code)
}
ParameterCategoryMapper ..> ParameterCategory
CreateParameterController .> ParameterCategoryDto
CreateParameterController ..> ParameterCategoryMapper
ParameterCategoryMapper ..> ParameterCategoryDto
CreateParameterUI ..> CreateParameterController
CreateParameterUI .> ParameterCategoryDto
CreateParameterController ..> Company
CreateParameterController ..> Parameter
Company "1" - -> "1" ParameterStore : uses >
ParameterStore "1" - -> "*" Parameter : adopts >
Parameter "1" - -> "1" ParameterCategory : presented under >
ParameterCategoryStore "1" - -> "*" ParameterCategory : conducts >
CreateParameterController .> ParameterCategoryStore
@enduml

@startuml
class Company {
    - designation
    + getParameterStore()
    + getParameterCategoryStore()
}

class CreateParameterController{
    + createParameter(shortName,code,description)
    + saveParameter()
    + saveParameterCategory(code)
    + getParameterCategoryStoreDto()
    + getListParameterCategory()
}

class CreateParameterUI{
}
class ParameterCategoryDto{
-code
-name
+ParameterCategoryDto(code,name)
}
class ParameterCategoryMapper{
+toDto(pc)
+toDto(pcStore)
}

class Parameter{
    - shortName
    - code
    - description
    + Parameter(shortName,code,description)
    + addParameterCategoryToParameter(pc)
}

class ParameterStore{
    + createParameter(name,code,description)
    + validateParameter(parameter)
    + saveParameter(parameter)
    - addParameter(parameter)
}

class ParameterCategory{
-code
- name
}

class ParameterCategoryStore{
    + getParameterCategoryByCode(code)
}
ParameterCategoryMapper ..> ParameterCategory
CreateParameterController .> ParameterCategoryDto
CreateParameterController ..> ParameterCategoryMapper
ParameterCategoryMapper ..> ParameterCategoryDto
CreateParameterUI ..> CreateParameterController
CreateParameterUI .> ParameterCategoryDto
CreateParameterController ..> Company
CreateParameterController ..> Parameter
Company "1" - -> "1" ParameterStore : uses >
ParameterStore "1" - -> "*" Parameter : adopts >
Parameter "1" - -> "1" ParameterCategory : presented under >
ParameterCategoryStore "1" - -> "*" ParameterCategory : conducts >
CreateParameterController .> ParameterCategoryStore
@enduml

PlantUML version 1.2021.5(Sun Apr 25 12:20:28 BST 2021)
(GPL source distribution)
Java Runtime: OpenJDK Runtime Environment
JVM: Dynamic Code Evolution 64-Bit Server VM
Default Encoding: Cp1252
Language: pt
Country: PT
--></g></svg>